G04 #@! TF.FileFunction,Copper,L2,Inr,Signal*
%FSLAX46Y46*%
G04 Gerber Fmt 4.6, Leading zero omitted, Abs format (unit mm)*
G04 Created by KiCad (PCBNEW 4.0.6-e0-6349~53~ubuntu14.04.1) date Thu Apr 13 00:44:52 2017*
%MOMM*%
%LPD*%
G01*
G04 APERTURE LIST*
%ADD10C,0.100000*%
%ADD11R,1.700000X1.700000*%
%ADD12O,1.700000X1.700000*%
%ADD13C,0.460000*%
%ADD14C,0.240000*%
%ADD15C,0.360000*%
%ADD16C,0.254000*%
G04 APERTURE END LIST*
D10*
D11*
X134210000Y-81750000D03*
D12*
X136750000Y-81750000D03*
D13*
X145950000Y-88075000D03*
X145325000Y-87000000D03*
X145325000Y-86000000D03*
X146000000Y-85425000D03*
X145025000Y-91850000D03*
X145025000Y-90150000D03*
X146025000Y-91000000D03*
X143850000Y-90950000D03*
X140575000Y-89750000D03*
X143825000Y-91825000D03*
X146075000Y-91825000D03*
X145975000Y-90125000D03*
X143825000Y-90150000D03*
X148775000Y-91050000D03*
X149600000Y-91050000D03*
X150475000Y-91775000D03*
X151625000Y-92900000D03*
X153700000Y-93250000D03*
X149275000Y-88600000D03*
X150875000Y-88725000D03*
X152025000Y-89750000D03*
X153575000Y-90775000D03*
X140750000Y-91025000D03*
X139525000Y-90825000D03*
X138150000Y-90825000D03*
X136800000Y-90825000D03*
X135425000Y-90775000D03*
X131050000Y-90325000D03*
X132350000Y-90375000D03*
X133475000Y-90400000D03*
X134775000Y-90450000D03*
X135300000Y-89825000D03*
X135250000Y-88525000D03*
X135125000Y-87675000D03*
X134125000Y-87650000D03*
X133000000Y-87700000D03*
X131950000Y-87700000D03*
X131000000Y-87700000D03*
X131000000Y-86000000D03*
X131025000Y-84800000D03*
X131000000Y-83350000D03*
X131025000Y-82200000D03*
X131025000Y-81125000D03*
X132250000Y-81125000D03*
X138750000Y-80875000D03*
X140600000Y-80925000D03*
X141950000Y-80900000D03*
X143275000Y-80900000D03*
X144575000Y-80925000D03*
X146325000Y-80925000D03*
X147675000Y-80925000D03*
X149250000Y-80925000D03*
X150750000Y-80925000D03*
X152000000Y-80925000D03*
X153250000Y-80925000D03*
X154750000Y-80925000D03*
X156225000Y-80925000D03*
X157525000Y-80925000D03*
X158925000Y-80925000D03*
X158925000Y-82075000D03*
X158925000Y-83375000D03*
X158950000Y-84975000D03*
X158950000Y-86475000D03*
X158825000Y-87525000D03*
X157725000Y-87500000D03*
X156600000Y-87525000D03*
X155450000Y-87525000D03*
X154775000Y-88300000D03*
X154725000Y-89650000D03*
X155200000Y-90425000D03*
X156250000Y-90425000D03*
X157525000Y-90400000D03*
X158800000Y-90450000D03*
X158900000Y-93475000D03*
X157775000Y-93550000D03*
X156525000Y-93525000D03*
X155850000Y-93250000D03*
X154775000Y-93625000D03*
X154825000Y-95200000D03*
X154850000Y-96250000D03*
X156100000Y-96375000D03*
X157000000Y-96325000D03*
X157950000Y-96325000D03*
X158925000Y-96350000D03*
X158950000Y-97875000D03*
X158950000Y-98900000D03*
X157650000Y-98875000D03*
X156125000Y-98850000D03*
X154550000Y-98850000D03*
X152500000Y-98850000D03*
X150775000Y-98850000D03*
X149125000Y-98850000D03*
X147800000Y-98850000D03*
X146025000Y-98875000D03*
X143725000Y-98875000D03*
X141850000Y-98875000D03*
X140050000Y-98875000D03*
X138575000Y-98850000D03*
X136800000Y-98850000D03*
X135275000Y-98850000D03*
X133900000Y-98850000D03*
X132400000Y-98850000D03*
X131075000Y-98875000D03*
X131075000Y-97550000D03*
X131075000Y-96400000D03*
X132375000Y-96375000D03*
X133375000Y-96350000D03*
X134325000Y-96325000D03*
X135175000Y-95875000D03*
X135225000Y-94975000D03*
X135225000Y-94175000D03*
X134475000Y-93625000D03*
X131725000Y-93625000D03*
X131075000Y-93175000D03*
X132650000Y-93225000D03*
X133850000Y-93000000D03*
X134875000Y-92900000D03*
X136225000Y-92925000D03*
X137575000Y-92950000D03*
X138825000Y-93075000D03*
X140600000Y-93125000D03*
X142325000Y-87000000D03*
X142325000Y-86000000D03*
X141750000Y-88900000D03*
X141750000Y-93100000D03*
X142450000Y-93750000D03*
X143400000Y-93750000D03*
X148250000Y-93100000D03*
X147550000Y-93750000D03*
X146600000Y-93750000D03*
X145000000Y-93750000D03*
X147500000Y-91325000D03*
X147500000Y-90675000D03*
X142500000Y-91325000D03*
X142500000Y-90675000D03*
X148250000Y-88900000D03*
X142450000Y-88250000D03*
X147550000Y-88275000D03*
X143400000Y-88250000D03*
X146600000Y-88275000D03*
X145000000Y-88275000D03*
X145000000Y-91000000D03*
X147675000Y-87000000D03*
X147675000Y-86000000D03*
X148700000Y-97750000D03*
X147550000Y-96000000D03*
X147550000Y-95000000D03*
X143675000Y-97000000D03*
X144925000Y-97750000D03*
X144950000Y-96000000D03*
X145800000Y-93850000D03*
X144950000Y-95000000D03*
X144050000Y-86500000D03*
X141350000Y-84000000D03*
X144200000Y-87925000D03*
X140350000Y-97000000D03*
D14*
X139625000Y-88450000D02*
X139250000Y-88450000D01*
X139250000Y-88450000D02*
X138875000Y-88825000D01*
X139800000Y-89075000D02*
X139800000Y-88625000D01*
X139800000Y-88625000D02*
X139625000Y-88450000D01*
X143825000Y-90150000D02*
X140875000Y-90150000D01*
X140875000Y-90150000D02*
X139800000Y-89075000D01*
X143825000Y-90150000D02*
X140975000Y-90150000D01*
X140975000Y-90150000D02*
X140575000Y-89750000D01*
X145000000Y-91000000D02*
X142660000Y-91000000D01*
X142660000Y-91000000D02*
X141410000Y-89750000D01*
X141410000Y-89750000D02*
X140575000Y-89750000D01*
X149600000Y-91050000D02*
X148775000Y-91050000D01*
X150475000Y-91775000D02*
X150325000Y-91775000D01*
X150325000Y-91775000D02*
X149600000Y-91050000D01*
X151625000Y-92900000D02*
X151600000Y-92900000D01*
X151600000Y-92900000D02*
X150475000Y-91775000D01*
X153700000Y-93250000D02*
X151975000Y-93250000D01*
X151975000Y-93250000D02*
X151625000Y-92900000D01*
X153575000Y-90775000D02*
X153575000Y-93125000D01*
X153575000Y-93125000D02*
X153700000Y-93250000D01*
X150875000Y-88725000D02*
X149400000Y-88725000D01*
X149400000Y-88725000D02*
X149275000Y-88600000D01*
X152025000Y-89750000D02*
X151900000Y-89750000D01*
X151900000Y-89750000D02*
X150875000Y-88725000D01*
X153575000Y-90775000D02*
X153050000Y-90775000D01*
X153050000Y-90775000D02*
X152025000Y-89750000D01*
X155200000Y-90425000D02*
X153925000Y-90425000D01*
X153925000Y-90425000D02*
X153575000Y-90775000D01*
X139525000Y-90825000D02*
X140550000Y-90825000D01*
X140550000Y-90825000D02*
X140750000Y-91025000D01*
X138150000Y-90825000D02*
X139525000Y-90825000D01*
X136800000Y-90825000D02*
X138150000Y-90825000D01*
X135425000Y-90775000D02*
X136750000Y-90775000D01*
X136750000Y-90775000D02*
X136800000Y-90825000D01*
X134775000Y-90450000D02*
X135100000Y-90450000D01*
X135100000Y-90450000D02*
X135425000Y-90775000D01*
X132350000Y-90375000D02*
X131100000Y-90375000D01*
X131100000Y-90375000D02*
X131050000Y-90325000D01*
X133475000Y-90400000D02*
X132375000Y-90400000D01*
X132375000Y-90400000D02*
X132350000Y-90375000D01*
X134775000Y-90450000D02*
X133525000Y-90450000D01*
X133525000Y-90450000D02*
X133475000Y-90400000D01*
X135300000Y-89825000D02*
X135300000Y-89925000D01*
X135300000Y-89925000D02*
X134775000Y-90450000D01*
X135250000Y-88525000D02*
X135250000Y-89775000D01*
X135250000Y-89775000D02*
X135300000Y-89825000D01*
X135125000Y-87675000D02*
X135125000Y-88400000D01*
X135125000Y-88400000D02*
X135250000Y-88525000D01*
X134125000Y-87650000D02*
X135100000Y-87650000D01*
X135100000Y-87650000D02*
X135125000Y-87675000D01*
X133000000Y-87700000D02*
X134075000Y-87700000D01*
X134075000Y-87700000D02*
X134125000Y-87650000D01*
X131950000Y-87700000D02*
X133000000Y-87700000D01*
X131000000Y-87700000D02*
X131950000Y-87700000D01*
X131000000Y-86000000D02*
X131000000Y-87700000D01*
X131025000Y-84800000D02*
X131025000Y-85975000D01*
X131025000Y-85975000D02*
X131000000Y-86000000D01*
X131000000Y-83350000D02*
X131000000Y-84775000D01*
X131000000Y-84775000D02*
X131025000Y-84800000D01*
X131025000Y-82200000D02*
X131025000Y-83325000D01*
X131025000Y-83325000D02*
X131000000Y-83350000D01*
X131025000Y-81125000D02*
X131025000Y-82200000D01*
X132250000Y-81125000D02*
X131025000Y-81125000D01*
X133550000Y-84350000D02*
X132250000Y-83050000D01*
X132250000Y-83050000D02*
X132250000Y-81125000D01*
X137000000Y-84350000D02*
X133550000Y-84350000D01*
X138520001Y-82829999D02*
X137000000Y-84350000D01*
X138750000Y-80875000D02*
X138520001Y-81104999D01*
X138520001Y-81104999D02*
X138520001Y-82829999D01*
X140600000Y-80925000D02*
X138800000Y-80925000D01*
X138800000Y-80925000D02*
X138750000Y-80875000D01*
X141950000Y-80900000D02*
X140625000Y-80900000D01*
X140625000Y-80900000D02*
X140600000Y-80925000D01*
X143275000Y-80900000D02*
X141950000Y-80900000D01*
X144575000Y-80925000D02*
X143300000Y-80925000D01*
X143300000Y-80925000D02*
X143275000Y-80900000D01*
X146325000Y-80925000D02*
X144575000Y-80925000D01*
X147675000Y-80925000D02*
X146325000Y-80925000D01*
X149250000Y-80925000D02*
X147675000Y-80925000D01*
X150750000Y-80925000D02*
X149250000Y-80925000D01*
X152000000Y-80925000D02*
X150750000Y-80925000D01*
X153250000Y-80925000D02*
X152000000Y-80925000D01*
X154750000Y-80925000D02*
X153250000Y-80925000D01*
X156225000Y-80925000D02*
X154750000Y-80925000D01*
X157525000Y-80925000D02*
X156225000Y-80925000D01*
X158925000Y-80925000D02*
X157525000Y-80925000D01*
X158925000Y-82075000D02*
X158925000Y-80925000D01*
X158925000Y-83375000D02*
X158925000Y-82075000D01*
X158950000Y-84975000D02*
X158950000Y-83400000D01*
X158950000Y-83400000D02*
X158925000Y-83375000D01*
X158950000Y-86475000D02*
X158950000Y-84975000D01*
X158825000Y-87525000D02*
X158825000Y-86600000D01*
X158825000Y-86600000D02*
X158950000Y-86475000D01*
X157725000Y-87500000D02*
X158800000Y-87500000D01*
X158800000Y-87500000D02*
X158825000Y-87525000D01*
X156600000Y-87525000D02*
X157700000Y-87525000D01*
X157700000Y-87525000D02*
X157725000Y-87500000D01*
X155450000Y-87525000D02*
X156600000Y-87525000D01*
X154775000Y-88300000D02*
X154775000Y-88200000D01*
X154775000Y-88200000D02*
X155450000Y-87525000D01*
X154725000Y-89650000D02*
X154725000Y-88350000D01*
X154725000Y-88350000D02*
X154775000Y-88300000D01*
X155200000Y-90425000D02*
X155200000Y-90125000D01*
X155200000Y-90125000D02*
X154725000Y-89650000D01*
X156250000Y-90425000D02*
X155200000Y-90425000D01*
X157525000Y-90400000D02*
X156275000Y-90400000D01*
X156275000Y-90400000D02*
X156250000Y-90425000D01*
X158800000Y-90450000D02*
X157575000Y-90450000D01*
X157575000Y-90450000D02*
X157525000Y-90400000D01*
X158900000Y-93475000D02*
X158900000Y-90550000D01*
X158900000Y-90550000D02*
X158800000Y-90450000D01*
X157775000Y-93550000D02*
X158825000Y-93550000D01*
X158825000Y-93550000D02*
X158900000Y-93475000D01*
X156525000Y-93525000D02*
X157750000Y-93525000D01*
X157750000Y-93525000D02*
X157775000Y-93550000D01*
X155850000Y-93250000D02*
X156250000Y-93250000D01*
X156250000Y-93250000D02*
X156525000Y-93525000D01*
X154775000Y-93625000D02*
X155475000Y-93625000D01*
X155475000Y-93625000D02*
X155850000Y-93250000D01*
X154825000Y-95200000D02*
X154825000Y-93675000D01*
X154825000Y-93675000D02*
X154775000Y-93625000D01*
X154850000Y-96250000D02*
X154850000Y-95225000D01*
X154850000Y-95225000D02*
X154825000Y-95200000D01*
X156100000Y-96375000D02*
X154975000Y-96375000D01*
X154975000Y-96375000D02*
X154850000Y-96250000D01*
X157000000Y-96325000D02*
X156150000Y-96325000D01*
X156150000Y-96325000D02*
X156100000Y-96375000D01*
X157950000Y-96325000D02*
X157000000Y-96325000D01*
X158925000Y-96350000D02*
X157975000Y-96350000D01*
X157975000Y-96350000D02*
X157950000Y-96325000D01*
X158950000Y-97875000D02*
X158950000Y-96375000D01*
X158950000Y-96375000D02*
X158925000Y-96350000D01*
X158950000Y-98900000D02*
X158950000Y-97875000D01*
X157650000Y-98875000D02*
X158925000Y-98875000D01*
X158925000Y-98875000D02*
X158950000Y-98900000D01*
X156125000Y-98850000D02*
X157625000Y-98850000D01*
X157625000Y-98850000D02*
X157650000Y-98875000D01*
X154550000Y-98850000D02*
X156125000Y-98850000D01*
X152500000Y-98850000D02*
X154550000Y-98850000D01*
X150775000Y-98850000D02*
X152500000Y-98850000D01*
X149125000Y-98850000D02*
X150775000Y-98850000D01*
X147800000Y-98850000D02*
X149125000Y-98850000D01*
X146025000Y-98875000D02*
X147775000Y-98875000D01*
X147775000Y-98875000D02*
X147800000Y-98850000D01*
X143725000Y-98875000D02*
X146025000Y-98875000D01*
X141850000Y-98875000D02*
X143725000Y-98875000D01*
X140050000Y-98875000D02*
X141850000Y-98875000D01*
X138575000Y-98850000D02*
X140025000Y-98850000D01*
X140025000Y-98850000D02*
X140050000Y-98875000D01*
X136800000Y-98850000D02*
X138575000Y-98850000D01*
X135275000Y-98850000D02*
X136800000Y-98850000D01*
X133900000Y-98850000D02*
X135275000Y-98850000D01*
X132400000Y-98850000D02*
X133900000Y-98850000D01*
X131075000Y-98875000D02*
X132375000Y-98875000D01*
X132375000Y-98875000D02*
X132400000Y-98850000D01*
X131075000Y-97550000D02*
X131075000Y-98875000D01*
X131075000Y-96400000D02*
X131075000Y-97550000D01*
X132375000Y-96375000D02*
X131100000Y-96375000D01*
X131100000Y-96375000D02*
X131075000Y-96400000D01*
X133375000Y-96350000D02*
X132400000Y-96350000D01*
X132400000Y-96350000D02*
X132375000Y-96375000D01*
X134325000Y-96325000D02*
X133400000Y-96325000D01*
X133400000Y-96325000D02*
X133375000Y-96350000D01*
X135175000Y-95875000D02*
X134775000Y-95875000D01*
X134775000Y-95875000D02*
X134325000Y-96325000D01*
X135225000Y-94975000D02*
X135225000Y-95825000D01*
X135225000Y-95825000D02*
X135175000Y-95875000D01*
X135225000Y-94175000D02*
X135225000Y-94975000D01*
X134475000Y-93625000D02*
X134675000Y-93625000D01*
X134675000Y-93625000D02*
X135225000Y-94175000D01*
X131725000Y-93625000D02*
X134475000Y-93625000D01*
X132650000Y-93225000D02*
X132125000Y-93225000D01*
X132125000Y-93225000D02*
X131725000Y-93625000D01*
D15*
X132650000Y-93225000D02*
X131125000Y-93225000D01*
X131125000Y-93225000D02*
X131075000Y-93175000D01*
X133850000Y-93000000D02*
X132875000Y-93000000D01*
X132875000Y-93000000D02*
X132650000Y-93225000D01*
X134875000Y-92900000D02*
X133950000Y-92900000D01*
X133950000Y-92900000D02*
X133850000Y-93000000D01*
X136225000Y-92925000D02*
X134900000Y-92925000D01*
X134900000Y-92925000D02*
X134875000Y-92900000D01*
X137575000Y-92950000D02*
X136250000Y-92950000D01*
X136250000Y-92950000D02*
X136225000Y-92925000D01*
X138825000Y-93075000D02*
X137700000Y-93075000D01*
X137700000Y-93075000D02*
X137575000Y-92950000D01*
X140600000Y-93125000D02*
X138875000Y-93125000D01*
X138875000Y-93125000D02*
X138825000Y-93075000D01*
X141750000Y-93100000D02*
X140625000Y-93100000D01*
X140625000Y-93100000D02*
X140600000Y-93125000D01*
D16*
G36*
X132712560Y-80900000D02*
X132712560Y-82600000D01*
X132756838Y-82835317D01*
X132895910Y-83051441D01*
X133108110Y-83196431D01*
X133360000Y-83247440D01*
X135060000Y-83247440D01*
X135295317Y-83203162D01*
X135511441Y-83064090D01*
X135656431Y-82851890D01*
X135707440Y-82600000D01*
X135707440Y-80900000D01*
X135671689Y-80710000D01*
X159290000Y-80710000D01*
X159290000Y-99290000D01*
X130710000Y-99290000D01*
X130710000Y-97171304D01*
X139484851Y-97171304D01*
X139616261Y-97489343D01*
X139859377Y-97732883D01*
X140177186Y-97864849D01*
X140521304Y-97865149D01*
X140839343Y-97733739D01*
X141082883Y-97490623D01*
X141214849Y-97172814D01*
X141214850Y-97171304D01*
X142809851Y-97171304D01*
X142941261Y-97489343D01*
X143184377Y-97732883D01*
X143502186Y-97864849D01*
X143846304Y-97865149D01*
X144059977Y-97776862D01*
X144059851Y-97921304D01*
X144191261Y-98239343D01*
X144434377Y-98482883D01*
X144752186Y-98614849D01*
X145096304Y-98615149D01*
X145414343Y-98483739D01*
X145657883Y-98240623D01*
X145789849Y-97922814D01*
X145790149Y-97578696D01*
X145658739Y-97260657D01*
X145415623Y-97017117D01*
X145097814Y-96885151D01*
X144753696Y-96884851D01*
X144540023Y-96973138D01*
X144540149Y-96828696D01*
X144509089Y-96753525D01*
X144777186Y-96864849D01*
X145121304Y-96865149D01*
X145439343Y-96733739D01*
X145682883Y-96490623D01*
X145814849Y-96172814D01*
X145815149Y-95828696D01*
X145683739Y-95510657D01*
X145673295Y-95500195D01*
X145682883Y-95490623D01*
X145814849Y-95172814D01*
X145815149Y-94828696D01*
X145768160Y-94714972D01*
X145971304Y-94715149D01*
X146289343Y-94583739D01*
X146532883Y-94340623D01*
X146664849Y-94022814D01*
X146665149Y-93678696D01*
X146533739Y-93360657D01*
X146290623Y-93117117D01*
X145972814Y-92985151D01*
X145628696Y-92984851D01*
X145310657Y-93116261D01*
X145067117Y-93359377D01*
X144935151Y-93677186D01*
X144934851Y-94021304D01*
X144981840Y-94135028D01*
X144778696Y-94134851D01*
X144460657Y-94266261D01*
X144217117Y-94509377D01*
X144085151Y-94827186D01*
X144084851Y-95171304D01*
X144216261Y-95489343D01*
X144226705Y-95499805D01*
X144217117Y-95509377D01*
X144085151Y-95827186D01*
X144084851Y-96171304D01*
X144115911Y-96246475D01*
X143847814Y-96135151D01*
X143503696Y-96134851D01*
X143185657Y-96266261D01*
X142942117Y-96509377D01*
X142810151Y-96827186D01*
X142809851Y-97171304D01*
X141214850Y-97171304D01*
X141215149Y-96828696D01*
X141083739Y-96510657D01*
X140840623Y-96267117D01*
X140522814Y-96135151D01*
X140178696Y-96134851D01*
X139860657Y-96266261D01*
X139617117Y-96509377D01*
X139485151Y-96827186D01*
X139484851Y-97171304D01*
X130710000Y-97171304D01*
X130710000Y-86671304D01*
X143184851Y-86671304D01*
X143316261Y-86989343D01*
X143559377Y-87232883D01*
X143636770Y-87265019D01*
X143467117Y-87434377D01*
X143335151Y-87752186D01*
X143334851Y-88096304D01*
X143466261Y-88414343D01*
X143709377Y-88657883D01*
X144027186Y-88789849D01*
X144371304Y-88790149D01*
X144689343Y-88658739D01*
X144932883Y-88415623D01*
X145064849Y-88097814D01*
X145065084Y-87828681D01*
X145108233Y-87846598D01*
X145085151Y-87902186D01*
X145084851Y-88246304D01*
X145216261Y-88564343D01*
X145459377Y-88807883D01*
X145777186Y-88939849D01*
X146121304Y-88940149D01*
X146439343Y-88808739D01*
X146682883Y-88565623D01*
X146814849Y-88247814D01*
X146815149Y-87903696D01*
X146683739Y-87585657D01*
X146440623Y-87342117D01*
X146166767Y-87228402D01*
X146189849Y-87172814D01*
X146190149Y-86828696D01*
X146058739Y-86510657D01*
X146048295Y-86500195D01*
X146057883Y-86490623D01*
X146141138Y-86290123D01*
X146171304Y-86290149D01*
X146489343Y-86158739D01*
X146732883Y-85915623D01*
X146864849Y-85597814D01*
X146865149Y-85253696D01*
X146733739Y-84935657D01*
X146490623Y-84692117D01*
X146172814Y-84560151D01*
X145828696Y-84559851D01*
X145510657Y-84691261D01*
X145267117Y-84934377D01*
X145183862Y-85134877D01*
X145153696Y-85134851D01*
X144835657Y-85266261D01*
X144592117Y-85509377D01*
X144493260Y-85747450D01*
X144222814Y-85635151D01*
X143878696Y-85634851D01*
X143560657Y-85766261D01*
X143317117Y-86009377D01*
X143185151Y-86327186D01*
X143184851Y-86671304D01*
X130710000Y-86671304D01*
X130710000Y-84171304D01*
X140484851Y-84171304D01*
X140616261Y-84489343D01*
X140859377Y-84732883D01*
X141177186Y-84864849D01*
X141521304Y-84865149D01*
X141839343Y-84733739D01*
X142082883Y-84490623D01*
X142214849Y-84172814D01*
X142215149Y-83828696D01*
X142083739Y-83510657D01*
X141840623Y-83267117D01*
X141522814Y-83135151D01*
X141178696Y-83134851D01*
X140860657Y-83266261D01*
X140617117Y-83509377D01*
X140485151Y-83827186D01*
X140484851Y-84171304D01*
X130710000Y-84171304D01*
X130710000Y-80710000D01*
X132751036Y-80710000D01*
X132712560Y-80900000D01*
X132712560Y-80900000D01*
G37*
X132712560Y-80900000D02*
X132712560Y-82600000D01*
X132756838Y-82835317D01*
X132895910Y-83051441D01*
X133108110Y-83196431D01*
X133360000Y-83247440D01*
X135060000Y-83247440D01*
X135295317Y-83203162D01*
X135511441Y-83064090D01*
X135656431Y-82851890D01*
X135707440Y-82600000D01*
X135707440Y-80900000D01*
X135671689Y-80710000D01*
X159290000Y-80710000D01*
X159290000Y-99290000D01*
X130710000Y-99290000D01*
X130710000Y-97171304D01*
X139484851Y-97171304D01*
X139616261Y-97489343D01*
X139859377Y-97732883D01*
X140177186Y-97864849D01*
X140521304Y-97865149D01*
X140839343Y-97733739D01*
X141082883Y-97490623D01*
X141214849Y-97172814D01*
X141214850Y-97171304D01*
X142809851Y-97171304D01*
X142941261Y-97489343D01*
X143184377Y-97732883D01*
X143502186Y-97864849D01*
X143846304Y-97865149D01*
X144059977Y-97776862D01*
X144059851Y-97921304D01*
X144191261Y-98239343D01*
X144434377Y-98482883D01*
X144752186Y-98614849D01*
X145096304Y-98615149D01*
X145414343Y-98483739D01*
X145657883Y-98240623D01*
X145789849Y-97922814D01*
X145790149Y-97578696D01*
X145658739Y-97260657D01*
X145415623Y-97017117D01*
X145097814Y-96885151D01*
X144753696Y-96884851D01*
X144540023Y-96973138D01*
X144540149Y-96828696D01*
X144509089Y-96753525D01*
X144777186Y-96864849D01*
X145121304Y-96865149D01*
X145439343Y-96733739D01*
X145682883Y-96490623D01*
X145814849Y-96172814D01*
X145815149Y-95828696D01*
X145683739Y-95510657D01*
X145673295Y-95500195D01*
X145682883Y-95490623D01*
X145814849Y-95172814D01*
X145815149Y-94828696D01*
X145768160Y-94714972D01*
X145971304Y-94715149D01*
X146289343Y-94583739D01*
X146532883Y-94340623D01*
X146664849Y-94022814D01*
X146665149Y-93678696D01*
X146533739Y-93360657D01*
X146290623Y-93117117D01*
X145972814Y-92985151D01*
X145628696Y-92984851D01*
X145310657Y-93116261D01*
X145067117Y-93359377D01*
X144935151Y-93677186D01*
X144934851Y-94021304D01*
X144981840Y-94135028D01*
X144778696Y-94134851D01*
X144460657Y-94266261D01*
X144217117Y-94509377D01*
X144085151Y-94827186D01*
X144084851Y-95171304D01*
X144216261Y-95489343D01*
X144226705Y-95499805D01*
X144217117Y-95509377D01*
X144085151Y-95827186D01*
X144084851Y-96171304D01*
X144115911Y-96246475D01*
X143847814Y-96135151D01*
X143503696Y-96134851D01*
X143185657Y-96266261D01*
X142942117Y-96509377D01*
X142810151Y-96827186D01*
X142809851Y-97171304D01*
X141214850Y-97171304D01*
X141215149Y-96828696D01*
X141083739Y-96510657D01*
X140840623Y-96267117D01*
X140522814Y-96135151D01*
X140178696Y-96134851D01*
X139860657Y-96266261D01*
X139617117Y-96509377D01*
X139485151Y-96827186D01*
X139484851Y-97171304D01*
X130710000Y-97171304D01*
X130710000Y-86671304D01*
X143184851Y-86671304D01*
X143316261Y-86989343D01*
X143559377Y-87232883D01*
X143636770Y-87265019D01*
X143467117Y-87434377D01*
X143335151Y-87752186D01*
X143334851Y-88096304D01*
X143466261Y-88414343D01*
X143709377Y-88657883D01*
X144027186Y-88789849D01*
X144371304Y-88790149D01*
X144689343Y-88658739D01*
X144932883Y-88415623D01*
X145064849Y-88097814D01*
X145065084Y-87828681D01*
X145108233Y-87846598D01*
X145085151Y-87902186D01*
X145084851Y-88246304D01*
X145216261Y-88564343D01*
X145459377Y-88807883D01*
X145777186Y-88939849D01*
X146121304Y-88940149D01*
X146439343Y-88808739D01*
X146682883Y-88565623D01*
X146814849Y-88247814D01*
X146815149Y-87903696D01*
X146683739Y-87585657D01*
X146440623Y-87342117D01*
X146166767Y-87228402D01*
X146189849Y-87172814D01*
X146190149Y-86828696D01*
X146058739Y-86510657D01*
X146048295Y-86500195D01*
X146057883Y-86490623D01*
X146141138Y-86290123D01*
X146171304Y-86290149D01*
X146489343Y-86158739D01*
X146732883Y-85915623D01*
X146864849Y-85597814D01*
X146865149Y-85253696D01*
X146733739Y-84935657D01*
X146490623Y-84692117D01*
X146172814Y-84560151D01*
X145828696Y-84559851D01*
X145510657Y-84691261D01*
X145267117Y-84934377D01*
X145183862Y-85134877D01*
X145153696Y-85134851D01*
X144835657Y-85266261D01*
X144592117Y-85509377D01*
X144493260Y-85747450D01*
X144222814Y-85635151D01*
X143878696Y-85634851D01*
X143560657Y-85766261D01*
X143317117Y-86009377D01*
X143185151Y-86327186D01*
X143184851Y-86671304D01*
X130710000Y-86671304D01*
X130710000Y-84171304D01*
X140484851Y-84171304D01*
X140616261Y-84489343D01*
X140859377Y-84732883D01*
X141177186Y-84864849D01*
X141521304Y-84865149D01*
X141839343Y-84733739D01*
X142082883Y-84490623D01*
X142214849Y-84172814D01*
X142215149Y-83828696D01*
X142083739Y-83510657D01*
X141840623Y-83267117D01*
X141522814Y-83135151D01*
X141178696Y-83134851D01*
X140860657Y-83266261D01*
X140617117Y-83509377D01*
X140485151Y-83827186D01*
X140484851Y-84171304D01*
X130710000Y-84171304D01*
X130710000Y-80710000D01*
X132751036Y-80710000D01*
X132712560Y-80900000D01*
M02*
