G04 #@! TF.FileFunction,Soldermask,Bot*
%FSLAX46Y46*%
G04 Gerber Fmt 4.6, Leading zero omitted, Abs format (unit mm)*
G04 Created by KiCad (PCBNEW 4.0.6-e0-6349~53~ubuntu14.04.1) date Thu Apr 13 00:44:52 2017*
%MOMM*%
%LPD*%
G01*
G04 APERTURE LIST*
%ADD10C,0.100000*%
G04 APERTURE END LIST*
D10*
G36*
X134888500Y-96038500D02*
X130261500Y-96038500D01*
X130261500Y-93911500D01*
X134888500Y-93911500D01*
X134888500Y-96038500D01*
X134888500Y-96038500D01*
G37*
G36*
X159738500Y-96013500D02*
X155111500Y-96013500D01*
X155111500Y-93886500D01*
X159738500Y-93886500D01*
X159738500Y-96013500D01*
X159738500Y-96013500D01*
G37*
G36*
X134888500Y-90088500D02*
X130261500Y-90088500D01*
X130261500Y-87961500D01*
X134888500Y-87961500D01*
X134888500Y-90088500D01*
X134888500Y-90088500D01*
G37*
G36*
X159738500Y-90063500D02*
X155111500Y-90063500D01*
X155111500Y-87936500D01*
X159738500Y-87936500D01*
X159738500Y-90063500D01*
X159738500Y-90063500D01*
G37*
G36*
X136933637Y-80850732D02*
X136933642Y-80850733D01*
X136933685Y-80850738D01*
X137103995Y-80903458D01*
X137260823Y-80988254D01*
X137398193Y-81101897D01*
X137510874Y-81240057D01*
X137594573Y-81397472D01*
X137646103Y-81568147D01*
X137663500Y-81745580D01*
X137663500Y-81754454D01*
X137663426Y-81765119D01*
X137663425Y-81765125D01*
X137663411Y-81767174D01*
X137643538Y-81944347D01*
X137589630Y-82114286D01*
X137503741Y-82270517D01*
X137389142Y-82407091D01*
X137250199Y-82518804D01*
X137092203Y-82601402D01*
X136921173Y-82651739D01*
X136921142Y-82651742D01*
X136921128Y-82651746D01*
X136743626Y-82667900D01*
X136566363Y-82649268D01*
X136566358Y-82649267D01*
X136566315Y-82649262D01*
X136396005Y-82596542D01*
X136239177Y-82511746D01*
X136101807Y-82398103D01*
X135989126Y-82259943D01*
X135905427Y-82102528D01*
X135853897Y-81931853D01*
X135836500Y-81754420D01*
X135836500Y-81745546D01*
X135836574Y-81734881D01*
X135836575Y-81734875D01*
X135836589Y-81732826D01*
X135856462Y-81555653D01*
X135910370Y-81385714D01*
X135996259Y-81229483D01*
X136110858Y-81092909D01*
X136249801Y-80981196D01*
X136407797Y-80898598D01*
X136578827Y-80848261D01*
X136578858Y-80848258D01*
X136578872Y-80848254D01*
X136756374Y-80832100D01*
X136933637Y-80850732D01*
X136933637Y-80850732D01*
G37*
G36*
X135123500Y-82663500D02*
X133296500Y-82663500D01*
X133296500Y-80836500D01*
X135123500Y-80836500D01*
X135123500Y-82663500D01*
X135123500Y-82663500D01*
G37*
M02*
