G04 #@! TF.FileFunction,Legend,Top*
%FSLAX46Y46*%
G04 Gerber Fmt 4.6, Leading zero omitted, Abs format (unit mm)*
G04 Created by KiCad (PCBNEW 4.0.6-e0-6349~53~ubuntu14.04.1) date Thu Apr 13 00:44:52 2017*
%MOMM*%
%LPD*%
G01*
G04 APERTURE LIST*
%ADD10C,0.100000*%
%ADD11C,0.300000*%
%ADD12C,0.120000*%
G04 APERTURE END LIST*
D10*
D11*
X150775000Y-94378571D02*
X151060714Y-94378571D01*
X151203572Y-94450000D01*
X151346429Y-94592857D01*
X151417857Y-94878571D01*
X151417857Y-95378571D01*
X151346429Y-95664286D01*
X151203572Y-95807143D01*
X151060714Y-95878571D01*
X150775000Y-95878571D01*
X150632143Y-95807143D01*
X150489286Y-95664286D01*
X150417857Y-95378571D01*
X150417857Y-94878571D01*
X150489286Y-94592857D01*
X150632143Y-94450000D01*
X150775000Y-94378571D01*
X152060715Y-94378571D02*
X152060715Y-95592857D01*
X152132143Y-95735714D01*
X152203572Y-95807143D01*
X152346429Y-95878571D01*
X152632143Y-95878571D01*
X152775001Y-95807143D01*
X152846429Y-95735714D01*
X152917858Y-95592857D01*
X152917858Y-94378571D01*
X153417858Y-94378571D02*
X154275001Y-94378571D01*
X153846430Y-95878571D02*
X153846430Y-94378571D01*
X136014286Y-95753571D02*
X136014286Y-94253571D01*
X136728572Y-95753571D02*
X136728572Y-94253571D01*
X137585715Y-95753571D01*
X137585715Y-94253571D01*
X136857143Y-84175000D02*
X136714286Y-84103571D01*
X136500000Y-84103571D01*
X136285715Y-84175000D01*
X136142857Y-84317857D01*
X136071429Y-84460714D01*
X136000000Y-84746429D01*
X136000000Y-84960714D01*
X136071429Y-85246429D01*
X136142857Y-85389286D01*
X136285715Y-85532143D01*
X136500000Y-85603571D01*
X136642857Y-85603571D01*
X136857143Y-85532143D01*
X136928572Y-85460714D01*
X136928572Y-84960714D01*
X136642857Y-84960714D01*
X137571429Y-85603571D02*
X137571429Y-84103571D01*
X138428572Y-85603571D01*
X138428572Y-84103571D01*
X139142858Y-85603571D02*
X139142858Y-84103571D01*
X139500001Y-84103571D01*
X139714286Y-84175000D01*
X139857144Y-84317857D01*
X139928572Y-84460714D01*
X140000001Y-84746429D01*
X140000001Y-84960714D01*
X139928572Y-85246429D01*
X139857144Y-85389286D01*
X139714286Y-85532143D01*
X139500001Y-85603571D01*
X139142858Y-85603571D01*
X130521429Y-85032143D02*
X131664286Y-85032143D01*
X131092857Y-85603571D02*
X131092857Y-84460714D01*
X133092858Y-84103571D02*
X132378572Y-84103571D01*
X132307143Y-84817857D01*
X132378572Y-84746429D01*
X132521429Y-84675000D01*
X132878572Y-84675000D01*
X133021429Y-84746429D01*
X133092858Y-84817857D01*
X133164286Y-84960714D01*
X133164286Y-85317857D01*
X133092858Y-85460714D01*
X133021429Y-85532143D01*
X132878572Y-85603571D01*
X132521429Y-85603571D01*
X132378572Y-85532143D01*
X132307143Y-85460714D01*
X133592857Y-84103571D02*
X134092857Y-85603571D01*
X134592857Y-84103571D01*
D12*
X147500000Y-83150000D02*
X146500000Y-83150000D01*
X146500000Y-84850000D02*
X147500000Y-84850000D01*
X146750000Y-85530000D02*
X146250000Y-85530000D01*
X146250000Y-86470000D02*
X146750000Y-86470000D01*
X146750000Y-86530000D02*
X146250000Y-86530000D01*
X146250000Y-87470000D02*
X146750000Y-87470000D01*
X147250000Y-96900000D02*
X146250000Y-96900000D01*
X146250000Y-98600000D02*
X147250000Y-98600000D01*
X146500000Y-94530000D02*
X146000000Y-94530000D01*
X146000000Y-95470000D02*
X146500000Y-95470000D01*
X146500000Y-95530000D02*
X146000000Y-95530000D01*
X146000000Y-96470000D02*
X146500000Y-96470000D01*
X143250000Y-86470000D02*
X143750000Y-86470000D01*
X143750000Y-85530000D02*
X143250000Y-85530000D01*
X143250000Y-87470000D02*
X143750000Y-87470000D01*
X143750000Y-86530000D02*
X143250000Y-86530000D01*
D11*
X130325000Y-93000000D02*
X130325000Y-94750000D01*
X130325000Y-89250000D02*
X130325000Y-91000000D01*
X159675000Y-90975000D02*
X159675000Y-89225000D01*
X159675000Y-94725000D02*
X159675000Y-92975000D01*
D12*
X142400000Y-83120000D02*
X143600000Y-83120000D01*
X143600000Y-84880000D02*
X142400000Y-84880000D01*
X141400000Y-96120000D02*
X142600000Y-96120000D01*
X142600000Y-97880000D02*
X141400000Y-97880000D01*
D11*
X141750000Y-87750000D02*
G75*
G03X141750000Y-87750000I-250000J0D01*
G01*
X141750000Y-88250000D02*
X142250000Y-88250000D01*
X141750000Y-93750000D02*
X141750000Y-88250000D01*
X148250000Y-93750000D02*
X141750000Y-93750000D01*
X148250000Y-88250000D02*
X148250000Y-93750000D01*
X142000000Y-88250000D02*
X148250000Y-88250000D01*
D12*
X135480000Y-83080000D02*
X138080000Y-83080000D01*
X138080000Y-83080000D02*
X138080000Y-80420000D01*
X138080000Y-80420000D02*
X135480000Y-80420000D01*
X135480000Y-80420000D02*
X135480000Y-83080000D01*
X134210000Y-83080000D02*
X132880000Y-83080000D01*
X132880000Y-83080000D02*
X132880000Y-81750000D01*
M02*
