G04 #@! TF.FileFunction,Soldermask,Top*
%FSLAX46Y46*%
G04 Gerber Fmt 4.6, Leading zero omitted, Abs format (unit mm)*
G04 Created by KiCad (PCBNEW 4.0.6-e0-6349~53~ubuntu14.04.1) date Thu Apr 13 00:44:52 2017*
%MOMM*%
%LPD*%
G01*
G04 APERTURE LIST*
%ADD10C,0.100000*%
G04 APERTURE END LIST*
D10*
G36*
X148313500Y-98438500D02*
X147186500Y-98438500D01*
X147186500Y-97061500D01*
X148313500Y-97061500D01*
X148313500Y-98438500D01*
X148313500Y-98438500D01*
G37*
G36*
X146313500Y-98438500D02*
X145186500Y-98438500D01*
X145186500Y-97061500D01*
X146313500Y-97061500D01*
X146313500Y-98438500D01*
X146313500Y-98438500D01*
G37*
G36*
X141463500Y-97713500D02*
X140636500Y-97713500D01*
X140636500Y-96286500D01*
X141463500Y-96286500D01*
X141463500Y-97713500D01*
X141463500Y-97713500D01*
G37*
G36*
X143363500Y-97713500D02*
X142536500Y-97713500D01*
X142536500Y-96286500D01*
X143363500Y-96286500D01*
X143363500Y-97713500D01*
X143363500Y-97713500D01*
G37*
G36*
X146063500Y-96313500D02*
X145336500Y-96313500D01*
X145336500Y-95686500D01*
X146063500Y-95686500D01*
X146063500Y-96313500D01*
X146063500Y-96313500D01*
G37*
G36*
X147163500Y-96313500D02*
X146436500Y-96313500D01*
X146436500Y-95686500D01*
X147163500Y-95686500D01*
X147163500Y-96313500D01*
X147163500Y-96313500D01*
G37*
G36*
X134888500Y-96038500D02*
X130261500Y-96038500D01*
X130261500Y-93911500D01*
X134888500Y-93911500D01*
X134888500Y-96038500D01*
X134888500Y-96038500D01*
G37*
G36*
X159738500Y-96013500D02*
X155111500Y-96013500D01*
X155111500Y-93886500D01*
X159738500Y-93886500D01*
X159738500Y-96013500D01*
X159738500Y-96013500D01*
G37*
G36*
X147163500Y-95313500D02*
X146436500Y-95313500D01*
X146436500Y-94686500D01*
X147163500Y-94686500D01*
X147163500Y-95313500D01*
X147163500Y-95313500D01*
G37*
G36*
X146063500Y-95313500D02*
X145336500Y-95313500D01*
X145336500Y-94686500D01*
X146063500Y-94686500D01*
X146063500Y-95313500D01*
X146063500Y-95313500D01*
G37*
G36*
X146113500Y-93463500D02*
X145486500Y-93463500D01*
X145486500Y-92836500D01*
X146113500Y-92836500D01*
X146113500Y-93463500D01*
X146113500Y-93463500D01*
G37*
G36*
X143713500Y-89335700D02*
X143715511Y-89349853D01*
X143721386Y-89362884D01*
X143730658Y-89373764D01*
X143742594Y-89381629D01*
X143756249Y-89385858D01*
X143764300Y-89386500D01*
X144635700Y-89386500D01*
X144649853Y-89384489D01*
X144662884Y-89378614D01*
X144673764Y-89369342D01*
X144681629Y-89357406D01*
X144685858Y-89343751D01*
X144686500Y-89335700D01*
X144686500Y-88536500D01*
X145313500Y-88536500D01*
X145313500Y-89335700D01*
X145315511Y-89349853D01*
X145321386Y-89362884D01*
X145330658Y-89373764D01*
X145342594Y-89381629D01*
X145356249Y-89385858D01*
X145364300Y-89386500D01*
X146235700Y-89386500D01*
X146249853Y-89384489D01*
X146262884Y-89378614D01*
X146273764Y-89369342D01*
X146281629Y-89357406D01*
X146285858Y-89343751D01*
X146286500Y-89335700D01*
X146286500Y-88536500D01*
X146913500Y-88536500D01*
X146913500Y-89335700D01*
X146915511Y-89349853D01*
X146921386Y-89362884D01*
X146930658Y-89373764D01*
X146942594Y-89381629D01*
X146956249Y-89385858D01*
X146964300Y-89386500D01*
X147163500Y-89386500D01*
X147163500Y-90235700D01*
X147165511Y-90249853D01*
X147171386Y-90262884D01*
X147180658Y-90273764D01*
X147192594Y-90281629D01*
X147206249Y-90285858D01*
X147214300Y-90286500D01*
X147963500Y-90286500D01*
X147963500Y-91713500D01*
X147214300Y-91713500D01*
X147200147Y-91715511D01*
X147187116Y-91721386D01*
X147176236Y-91730658D01*
X147168371Y-91742594D01*
X147164142Y-91756249D01*
X147163500Y-91764300D01*
X147163500Y-92613500D01*
X146964300Y-92613500D01*
X146950147Y-92615511D01*
X146937116Y-92621386D01*
X146926236Y-92630658D01*
X146918371Y-92642594D01*
X146914142Y-92656249D01*
X146913500Y-92664300D01*
X146913500Y-93463500D01*
X146286500Y-93463500D01*
X146286500Y-92664300D01*
X146284489Y-92650147D01*
X146278614Y-92637116D01*
X146269342Y-92626236D01*
X146257406Y-92618371D01*
X146243751Y-92614142D01*
X146235700Y-92613500D01*
X145364300Y-92613500D01*
X145350147Y-92615511D01*
X145337116Y-92621386D01*
X145326236Y-92630658D01*
X145318371Y-92642594D01*
X145314142Y-92656249D01*
X145313500Y-92664300D01*
X145313500Y-93463500D01*
X144686500Y-93463500D01*
X144686500Y-92664300D01*
X144684489Y-92650147D01*
X144678614Y-92637116D01*
X144669342Y-92626236D01*
X144657406Y-92618371D01*
X144643751Y-92614142D01*
X144635700Y-92613500D01*
X143764300Y-92613500D01*
X143750147Y-92615511D01*
X143737116Y-92621386D01*
X143726236Y-92630658D01*
X143718371Y-92642594D01*
X143714142Y-92656249D01*
X143713500Y-92664300D01*
X143713500Y-93463500D01*
X143086500Y-93463500D01*
X143086500Y-92664300D01*
X143084489Y-92650147D01*
X143078614Y-92637116D01*
X143069342Y-92626236D01*
X143057406Y-92618371D01*
X143043751Y-92614142D01*
X143035700Y-92613500D01*
X142836500Y-92613500D01*
X142836500Y-91764300D01*
X142834489Y-91750147D01*
X142828614Y-91737116D01*
X142819342Y-91726236D01*
X142807406Y-91718371D01*
X142793751Y-91714142D01*
X142785700Y-91713500D01*
X142036500Y-91713500D01*
X142036500Y-90286500D01*
X142785700Y-90286500D01*
X142799853Y-90284489D01*
X142812884Y-90278614D01*
X142823764Y-90269342D01*
X142831629Y-90257406D01*
X142835858Y-90243751D01*
X142836500Y-90235700D01*
X142836500Y-89386500D01*
X143035700Y-89386500D01*
X143049853Y-89384489D01*
X143062884Y-89378614D01*
X143073764Y-89369342D01*
X143081629Y-89357406D01*
X143085858Y-89343751D01*
X143086500Y-89335700D01*
X143086500Y-88536500D01*
X143713500Y-88536500D01*
X143713500Y-89335700D01*
X143713500Y-89335700D01*
G37*
G36*
X147963500Y-93463500D02*
X147136500Y-93463500D01*
X147136500Y-92736500D01*
X147963500Y-92736500D01*
X147963500Y-93463500D01*
X147963500Y-93463500D01*
G37*
G36*
X142863500Y-93463500D02*
X142036500Y-93463500D01*
X142036500Y-92736500D01*
X142863500Y-92736500D01*
X142863500Y-93463500D01*
X142863500Y-93463500D01*
G37*
G36*
X144513500Y-93463500D02*
X143886500Y-93463500D01*
X143886500Y-92836500D01*
X144513500Y-92836500D01*
X144513500Y-93463500D01*
X144513500Y-93463500D01*
G37*
G36*
X147963500Y-92513500D02*
X147336500Y-92513500D01*
X147336500Y-91886500D01*
X147963500Y-91886500D01*
X147963500Y-92513500D01*
X147963500Y-92513500D01*
G37*
G36*
X142663500Y-92513500D02*
X142036500Y-92513500D01*
X142036500Y-91886500D01*
X142663500Y-91886500D01*
X142663500Y-92513500D01*
X142663500Y-92513500D01*
G37*
G36*
X133388500Y-92488500D02*
X130261500Y-92488500D01*
X130261500Y-91511500D01*
X133388500Y-91511500D01*
X133388500Y-92488500D01*
X133388500Y-92488500D01*
G37*
G36*
X159738500Y-92463500D02*
X156611500Y-92463500D01*
X156611500Y-91486500D01*
X159738500Y-91486500D01*
X159738500Y-92463500D01*
X159738500Y-92463500D01*
G37*
G36*
X147963500Y-90113500D02*
X147336500Y-90113500D01*
X147336500Y-89486500D01*
X147963500Y-89486500D01*
X147963500Y-90113500D01*
X147963500Y-90113500D01*
G37*
G36*
X142663500Y-90113500D02*
X142036500Y-90113500D01*
X142036500Y-89486500D01*
X142663500Y-89486500D01*
X142663500Y-90113500D01*
X142663500Y-90113500D01*
G37*
G36*
X134888500Y-90088500D02*
X130261500Y-90088500D01*
X130261500Y-87961500D01*
X134888500Y-87961500D01*
X134888500Y-90088500D01*
X134888500Y-90088500D01*
G37*
G36*
X159738500Y-90063500D02*
X155111500Y-90063500D01*
X155111500Y-87936500D01*
X159738500Y-87936500D01*
X159738500Y-90063500D01*
X159738500Y-90063500D01*
G37*
G36*
X142863500Y-89263500D02*
X142036500Y-89263500D01*
X142036500Y-88536500D01*
X142863500Y-88536500D01*
X142863500Y-89263500D01*
X142863500Y-89263500D01*
G37*
G36*
X147963500Y-89263500D02*
X147136500Y-89263500D01*
X147136500Y-88536500D01*
X147963500Y-88536500D01*
X147963500Y-89263500D01*
X147963500Y-89263500D01*
G37*
G36*
X144513500Y-89163500D02*
X143886500Y-89163500D01*
X143886500Y-88536500D01*
X144513500Y-88536500D01*
X144513500Y-89163500D01*
X144513500Y-89163500D01*
G37*
G36*
X146113500Y-89163500D02*
X145486500Y-89163500D01*
X145486500Y-88536500D01*
X146113500Y-88536500D01*
X146113500Y-89163500D01*
X146113500Y-89163500D01*
G37*
G36*
X144413500Y-87313500D02*
X143686500Y-87313500D01*
X143686500Y-86686500D01*
X144413500Y-86686500D01*
X144413500Y-87313500D01*
X144413500Y-87313500D01*
G37*
G36*
X147413500Y-87313500D02*
X146686500Y-87313500D01*
X146686500Y-86686500D01*
X147413500Y-86686500D01*
X147413500Y-87313500D01*
X147413500Y-87313500D01*
G37*
G36*
X143313500Y-87313500D02*
X142586500Y-87313500D01*
X142586500Y-86686500D01*
X143313500Y-86686500D01*
X143313500Y-87313500D01*
X143313500Y-87313500D01*
G37*
G36*
X146313500Y-87313500D02*
X145586500Y-87313500D01*
X145586500Y-86686500D01*
X146313500Y-86686500D01*
X146313500Y-87313500D01*
X146313500Y-87313500D01*
G37*
G36*
X146313500Y-86313500D02*
X145586500Y-86313500D01*
X145586500Y-85686500D01*
X146313500Y-85686500D01*
X146313500Y-86313500D01*
X146313500Y-86313500D01*
G37*
G36*
X144413500Y-86313500D02*
X143686500Y-86313500D01*
X143686500Y-85686500D01*
X144413500Y-85686500D01*
X144413500Y-86313500D01*
X144413500Y-86313500D01*
G37*
G36*
X143313500Y-86313500D02*
X142586500Y-86313500D01*
X142586500Y-85686500D01*
X143313500Y-85686500D01*
X143313500Y-86313500D01*
X143313500Y-86313500D01*
G37*
G36*
X147413500Y-86313500D02*
X146686500Y-86313500D01*
X146686500Y-85686500D01*
X147413500Y-85686500D01*
X147413500Y-86313500D01*
X147413500Y-86313500D01*
G37*
G36*
X142463500Y-84713500D02*
X141636500Y-84713500D01*
X141636500Y-83286500D01*
X142463500Y-83286500D01*
X142463500Y-84713500D01*
X142463500Y-84713500D01*
G37*
G36*
X144363500Y-84713500D02*
X143536500Y-84713500D01*
X143536500Y-83286500D01*
X144363500Y-83286500D01*
X144363500Y-84713500D01*
X144363500Y-84713500D01*
G37*
G36*
X146563500Y-84688500D02*
X145436500Y-84688500D01*
X145436500Y-83311500D01*
X146563500Y-83311500D01*
X146563500Y-84688500D01*
X146563500Y-84688500D01*
G37*
G36*
X148563500Y-84688500D02*
X147436500Y-84688500D01*
X147436500Y-83311500D01*
X148563500Y-83311500D01*
X148563500Y-84688500D01*
X148563500Y-84688500D01*
G37*
G36*
X136933637Y-80850732D02*
X136933642Y-80850733D01*
X136933685Y-80850738D01*
X137103995Y-80903458D01*
X137260823Y-80988254D01*
X137398193Y-81101897D01*
X137510874Y-81240057D01*
X137594573Y-81397472D01*
X137646103Y-81568147D01*
X137663500Y-81745580D01*
X137663500Y-81754454D01*
X137663426Y-81765119D01*
X137663425Y-81765125D01*
X137663411Y-81767174D01*
X137643538Y-81944347D01*
X137589630Y-82114286D01*
X137503741Y-82270517D01*
X137389142Y-82407091D01*
X137250199Y-82518804D01*
X137092203Y-82601402D01*
X136921173Y-82651739D01*
X136921142Y-82651742D01*
X136921128Y-82651746D01*
X136743626Y-82667900D01*
X136566363Y-82649268D01*
X136566358Y-82649267D01*
X136566315Y-82649262D01*
X136396005Y-82596542D01*
X136239177Y-82511746D01*
X136101807Y-82398103D01*
X135989126Y-82259943D01*
X135905427Y-82102528D01*
X135853897Y-81931853D01*
X135836500Y-81754420D01*
X135836500Y-81745546D01*
X135836574Y-81734881D01*
X135836575Y-81734875D01*
X135836589Y-81732826D01*
X135856462Y-81555653D01*
X135910370Y-81385714D01*
X135996259Y-81229483D01*
X136110858Y-81092909D01*
X136249801Y-80981196D01*
X136407797Y-80898598D01*
X136578827Y-80848261D01*
X136578858Y-80848258D01*
X136578872Y-80848254D01*
X136756374Y-80832100D01*
X136933637Y-80850732D01*
X136933637Y-80850732D01*
G37*
G36*
X135123500Y-82663500D02*
X133296500Y-82663500D01*
X133296500Y-80836500D01*
X135123500Y-80836500D01*
X135123500Y-82663500D01*
X135123500Y-82663500D01*
G37*
M02*
