G04 #@! TF.FileFunction,Legend,Bot*
%FSLAX46Y46*%
G04 Gerber Fmt 4.6, Leading zero omitted, Abs format (unit mm)*
G04 Created by KiCad (PCBNEW 4.0.6-e0-6349~53~ubuntu14.04.1) date Thu Apr 13 00:44:52 2017*
%MOMM*%
%LPD*%
G01*
G04 APERTURE LIST*
%ADD10C,0.100000*%
%ADD11C,0.300000*%
G04 APERTURE END LIST*
D10*
D11*
X156207142Y-81978571D02*
X155635713Y-81978571D01*
X155992856Y-81478571D02*
X155992856Y-82764286D01*
X155921428Y-82907143D01*
X155778570Y-82978571D01*
X155635713Y-82978571D01*
X155135713Y-82978571D02*
X155135713Y-81978571D01*
X155135713Y-81478571D02*
X155207142Y-81550000D01*
X155135713Y-81621429D01*
X155064285Y-81550000D01*
X155135713Y-81478571D01*
X155135713Y-81621429D01*
X154421427Y-81978571D02*
X154421427Y-82978571D01*
X154421427Y-82121429D02*
X154349999Y-82050000D01*
X154207141Y-81978571D01*
X153992856Y-81978571D01*
X153849999Y-82050000D01*
X153778570Y-82192857D01*
X153778570Y-82978571D01*
X153207141Y-81978571D02*
X152849998Y-82978571D01*
X152492856Y-81978571D02*
X152849998Y-82978571D01*
X152992856Y-83335714D01*
X153064284Y-83407143D01*
X153207141Y-83478571D01*
X150778570Y-82978571D02*
X150778570Y-81478571D01*
X150207142Y-81478571D01*
X150064284Y-81550000D01*
X149992856Y-81621429D01*
X149921427Y-81764286D01*
X149921427Y-81978571D01*
X149992856Y-82121429D01*
X150064284Y-82192857D01*
X150207142Y-82264286D01*
X150778570Y-82264286D01*
X149349999Y-82550000D02*
X148635713Y-82550000D01*
X149492856Y-82978571D02*
X148992856Y-81478571D01*
X148492856Y-82978571D01*
X146992856Y-81978571D02*
X146635713Y-82978571D01*
X146278571Y-81978571D01*
X144921428Y-82978571D02*
X145778571Y-82978571D01*
X145349999Y-82978571D02*
X145349999Y-81478571D01*
X145492856Y-81692857D01*
X145635714Y-81835714D01*
X145778571Y-81907143D01*
X144278571Y-82835714D02*
X144207143Y-82907143D01*
X144278571Y-82978571D01*
X144350000Y-82907143D01*
X144278571Y-82835714D01*
X144278571Y-82978571D01*
X143278571Y-81478571D02*
X143135714Y-81478571D01*
X142992857Y-81550000D01*
X142921428Y-81621429D01*
X142849999Y-81764286D01*
X142778571Y-82050000D01*
X142778571Y-82407143D01*
X142849999Y-82692857D01*
X142921428Y-82835714D01*
X142992857Y-82907143D01*
X143135714Y-82978571D01*
X143278571Y-82978571D01*
X143421428Y-82907143D01*
X143492857Y-82835714D01*
X143564285Y-82692857D01*
X143635714Y-82407143D01*
X143635714Y-82050000D01*
X143564285Y-81764286D01*
X143492857Y-81621429D01*
X143421428Y-81550000D01*
X143278571Y-81478571D01*
X157707143Y-84528571D02*
X157421429Y-85528571D01*
X157135715Y-84814286D01*
X156850000Y-85528571D01*
X156564286Y-84528571D01*
X155992857Y-85528571D02*
X155992857Y-84028571D01*
X155992857Y-84600000D02*
X155850000Y-84528571D01*
X155564286Y-84528571D01*
X155421429Y-84600000D01*
X155350000Y-84671429D01*
X155278571Y-84814286D01*
X155278571Y-85242857D01*
X155350000Y-85385714D01*
X155421429Y-85457143D01*
X155564286Y-85528571D01*
X155850000Y-85528571D01*
X155992857Y-85457143D01*
X154635714Y-85528571D02*
X154635714Y-84528571D01*
X154635714Y-84814286D02*
X154564286Y-84671429D01*
X154492857Y-84600000D01*
X154350000Y-84528571D01*
X154207143Y-84528571D01*
X153064286Y-85528571D02*
X153064286Y-84742857D01*
X153135715Y-84600000D01*
X153278572Y-84528571D01*
X153564286Y-84528571D01*
X153707143Y-84600000D01*
X153064286Y-85457143D02*
X153207143Y-85528571D01*
X153564286Y-85528571D01*
X153707143Y-85457143D01*
X153778572Y-85314286D01*
X153778572Y-85171429D01*
X153707143Y-85028571D01*
X153564286Y-84957143D01*
X153207143Y-84957143D01*
X153064286Y-84885714D01*
X151707143Y-84528571D02*
X151707143Y-85528571D01*
X152350000Y-84528571D02*
X152350000Y-85314286D01*
X152278572Y-85457143D01*
X152135714Y-85528571D01*
X151921429Y-85528571D01*
X151778572Y-85457143D01*
X151707143Y-85385714D01*
X150992857Y-84528571D02*
X150992857Y-85528571D01*
X150992857Y-84671429D02*
X150921429Y-84600000D01*
X150778571Y-84528571D01*
X150564286Y-84528571D01*
X150421429Y-84600000D01*
X150350000Y-84742857D01*
X150350000Y-85528571D01*
X148707143Y-84814286D02*
X148778571Y-84742857D01*
X148921428Y-84671429D01*
X149064286Y-84671429D01*
X149207143Y-84742857D01*
X149278571Y-84814286D01*
X149350000Y-84957143D01*
X149350000Y-85100000D01*
X149278571Y-85242857D01*
X149207143Y-85314286D01*
X149064286Y-85385714D01*
X148921428Y-85385714D01*
X148778571Y-85314286D01*
X148707143Y-85242857D01*
X148707143Y-84671429D02*
X148707143Y-85242857D01*
X148635714Y-85314286D01*
X148564286Y-85314286D01*
X148421428Y-85242857D01*
X148350000Y-85100000D01*
X148350000Y-84742857D01*
X148492857Y-84528571D01*
X148707143Y-84385714D01*
X148992857Y-84314286D01*
X149278571Y-84385714D01*
X149492857Y-84528571D01*
X149635714Y-84742857D01*
X149707143Y-85028571D01*
X149635714Y-85314286D01*
X149492857Y-85528571D01*
X149278571Y-85671429D01*
X148992857Y-85742857D01*
X148707143Y-85671429D01*
X148492857Y-85528571D01*
X147707143Y-85528571D02*
X147707143Y-84528571D01*
X147707143Y-84671429D02*
X147635715Y-84600000D01*
X147492857Y-84528571D01*
X147278572Y-84528571D01*
X147135715Y-84600000D01*
X147064286Y-84742857D01*
X147064286Y-85528571D01*
X147064286Y-84742857D02*
X146992857Y-84600000D01*
X146850000Y-84528571D01*
X146635715Y-84528571D01*
X146492857Y-84600000D01*
X146421429Y-84742857D01*
X146421429Y-85528571D01*
X145707143Y-85528571D02*
X145707143Y-84528571D01*
X145707143Y-84028571D02*
X145778572Y-84100000D01*
X145707143Y-84171429D01*
X145635715Y-84100000D01*
X145707143Y-84028571D01*
X145707143Y-84171429D01*
X145207143Y-84528571D02*
X144635714Y-84528571D01*
X144992857Y-84028571D02*
X144992857Y-85314286D01*
X144921429Y-85457143D01*
X144778571Y-85528571D01*
X144635714Y-85528571D01*
X144135714Y-85385714D02*
X144064286Y-85457143D01*
X144135714Y-85528571D01*
X144207143Y-85457143D01*
X144135714Y-85385714D01*
X144135714Y-85528571D01*
X142850000Y-85457143D02*
X142992857Y-85528571D01*
X143278571Y-85528571D01*
X143421428Y-85457143D01*
X143492857Y-85314286D01*
X143492857Y-84742857D01*
X143421428Y-84600000D01*
X143278571Y-84528571D01*
X142992857Y-84528571D01*
X142850000Y-84600000D01*
X142778571Y-84742857D01*
X142778571Y-84885714D01*
X143492857Y-85028571D01*
X141492857Y-85528571D02*
X141492857Y-84028571D01*
X141492857Y-85457143D02*
X141635714Y-85528571D01*
X141921428Y-85528571D01*
X142064286Y-85457143D01*
X142135714Y-85385714D01*
X142207143Y-85242857D01*
X142207143Y-84814286D01*
X142135714Y-84671429D01*
X142064286Y-84600000D01*
X141921428Y-84528571D01*
X141635714Y-84528571D01*
X141492857Y-84600000D01*
X140135714Y-84528571D02*
X140135714Y-85528571D01*
X140778571Y-84528571D02*
X140778571Y-85314286D01*
X140707143Y-85457143D01*
X140564285Y-85528571D01*
X140350000Y-85528571D01*
X140207143Y-85457143D01*
X140135714Y-85385714D01*
M02*
