G04 #@! TF.FileFunction,Copper,L4,Bot,Signal*
%FSLAX46Y46*%
G04 Gerber Fmt 4.6, Leading zero omitted, Abs format (unit mm)*
G04 Created by KiCad (PCBNEW 4.0.6-e0-6349~53~ubuntu14.04.1) date Thu Apr 13 00:44:52 2017*
%MOMM*%
%LPD*%
G01*
G04 APERTURE LIST*
%ADD10C,0.100000*%
%ADD11R,4.500000X2.000000*%
%ADD12R,1.700000X1.700000*%
%ADD13O,1.700000X1.700000*%
%ADD14C,0.460000*%
%ADD15C,0.200000*%
G04 APERTURE END LIST*
D10*
D11*
X132575000Y-89025000D03*
X132575000Y-94975000D03*
X157425000Y-94950000D03*
X157425000Y-89000000D03*
D12*
X134210000Y-81750000D03*
D13*
X136750000Y-81750000D03*
D14*
X145950000Y-88075000D03*
X145325000Y-87000000D03*
X145325000Y-86000000D03*
X146000000Y-85425000D03*
X145025000Y-91850000D03*
X145025000Y-90150000D03*
X146025000Y-91000000D03*
X143850000Y-90950000D03*
X140575000Y-89750000D03*
X143825000Y-91825000D03*
X146075000Y-91825000D03*
X145975000Y-90125000D03*
X143825000Y-90150000D03*
X148775000Y-91050000D03*
X149600000Y-91050000D03*
X150475000Y-91775000D03*
X151625000Y-92900000D03*
X153700000Y-93250000D03*
X149275000Y-88600000D03*
X150875000Y-88725000D03*
X152025000Y-89750000D03*
X153575000Y-90775000D03*
X140750000Y-91025000D03*
X139525000Y-90825000D03*
X138150000Y-90825000D03*
X136800000Y-90825000D03*
X135425000Y-90775000D03*
X131050000Y-90325000D03*
X132350000Y-90375000D03*
X133475000Y-90400000D03*
X134775000Y-90450000D03*
X135300000Y-89825000D03*
X135250000Y-88525000D03*
X135125000Y-87675000D03*
X134125000Y-87650000D03*
X133000000Y-87700000D03*
X131950000Y-87700000D03*
X131000000Y-87700000D03*
X131000000Y-86000000D03*
X131025000Y-84800000D03*
X131000000Y-83350000D03*
X131025000Y-82200000D03*
X131025000Y-81125000D03*
X132250000Y-81125000D03*
X138750000Y-80875000D03*
X140600000Y-80925000D03*
X141950000Y-80900000D03*
X143275000Y-80900000D03*
X144575000Y-80925000D03*
X146325000Y-80925000D03*
X147675000Y-80925000D03*
X149250000Y-80925000D03*
X150750000Y-80925000D03*
X152000000Y-80925000D03*
X153250000Y-80925000D03*
X154750000Y-80925000D03*
X156225000Y-80925000D03*
X157525000Y-80925000D03*
X158925000Y-80925000D03*
X158925000Y-82075000D03*
X158925000Y-83375000D03*
X158950000Y-84975000D03*
X158950000Y-86475000D03*
X158825000Y-87525000D03*
X157725000Y-87500000D03*
X156600000Y-87525000D03*
X155450000Y-87525000D03*
X154775000Y-88300000D03*
X154725000Y-89650000D03*
X155200000Y-90425000D03*
X156250000Y-90425000D03*
X157525000Y-90400000D03*
X158800000Y-90450000D03*
X158900000Y-93475000D03*
X157775000Y-93550000D03*
X156525000Y-93525000D03*
X155850000Y-93250000D03*
X154775000Y-93625000D03*
X154825000Y-95200000D03*
X154850000Y-96250000D03*
X156100000Y-96375000D03*
X157000000Y-96325000D03*
X157950000Y-96325000D03*
X158925000Y-96350000D03*
X158950000Y-97875000D03*
X158950000Y-98900000D03*
X157650000Y-98875000D03*
X156125000Y-98850000D03*
X154550000Y-98850000D03*
X152500000Y-98850000D03*
X150775000Y-98850000D03*
X149125000Y-98850000D03*
X147800000Y-98850000D03*
X146025000Y-98875000D03*
X143725000Y-98875000D03*
X141850000Y-98875000D03*
X140050000Y-98875000D03*
X138575000Y-98850000D03*
X136800000Y-98850000D03*
X135275000Y-98850000D03*
X133900000Y-98850000D03*
X132400000Y-98850000D03*
X131075000Y-98875000D03*
X131075000Y-97550000D03*
X131075000Y-96400000D03*
X132375000Y-96375000D03*
X133375000Y-96350000D03*
X134325000Y-96325000D03*
X135175000Y-95875000D03*
X135225000Y-94975000D03*
X135225000Y-94175000D03*
X134475000Y-93625000D03*
X131725000Y-93625000D03*
X131075000Y-93175000D03*
X132650000Y-93225000D03*
X133850000Y-93000000D03*
X134875000Y-92900000D03*
X136225000Y-92925000D03*
X137575000Y-92950000D03*
X138825000Y-93075000D03*
X140600000Y-93125000D03*
X142325000Y-87000000D03*
X142325000Y-86000000D03*
X141750000Y-88900000D03*
X141750000Y-93100000D03*
X142450000Y-93750000D03*
X143400000Y-93750000D03*
X148250000Y-93100000D03*
X147550000Y-93750000D03*
X146600000Y-93750000D03*
X145000000Y-93750000D03*
X147500000Y-91325000D03*
X147500000Y-90675000D03*
X142500000Y-91325000D03*
X142500000Y-90675000D03*
X148250000Y-88900000D03*
X142450000Y-88250000D03*
X147550000Y-88275000D03*
X143400000Y-88250000D03*
X146600000Y-88275000D03*
X145000000Y-88275000D03*
X145000000Y-91000000D03*
X147675000Y-87000000D03*
X147675000Y-86000000D03*
X148700000Y-97750000D03*
X147550000Y-96000000D03*
X147550000Y-95000000D03*
X143675000Y-97000000D03*
X144925000Y-97750000D03*
X144950000Y-96000000D03*
X145800000Y-93850000D03*
X144950000Y-95000000D03*
X144050000Y-86500000D03*
X141350000Y-84000000D03*
X144200000Y-87925000D03*
X140350000Y-97000000D03*
D15*
G36*
X159625000Y-99625000D02*
X130375000Y-99625000D01*
X130375000Y-97854961D01*
X144394909Y-97854961D01*
X144475426Y-98049828D01*
X144624387Y-98199050D01*
X144819114Y-98279907D01*
X145029961Y-98280091D01*
X145224828Y-98199574D01*
X145374050Y-98050613D01*
X145454907Y-97855886D01*
X145455091Y-97645039D01*
X145374574Y-97450172D01*
X145225613Y-97300950D01*
X145030886Y-97220093D01*
X144820039Y-97219909D01*
X144625172Y-97300426D01*
X144475950Y-97449387D01*
X144395093Y-97644114D01*
X144394909Y-97854961D01*
X130375000Y-97854961D01*
X130375000Y-97104961D01*
X139819909Y-97104961D01*
X139900426Y-97299828D01*
X140049387Y-97449050D01*
X140244114Y-97529907D01*
X140454961Y-97530091D01*
X140649828Y-97449574D01*
X140799050Y-97300613D01*
X140879907Y-97105886D01*
X140879907Y-97104961D01*
X143144909Y-97104961D01*
X143225426Y-97299828D01*
X143374387Y-97449050D01*
X143569114Y-97529907D01*
X143779961Y-97530091D01*
X143974828Y-97449574D01*
X144124050Y-97300613D01*
X144204907Y-97105886D01*
X144205091Y-96895039D01*
X144124574Y-96700172D01*
X143975613Y-96550950D01*
X143780886Y-96470093D01*
X143570039Y-96469909D01*
X143375172Y-96550426D01*
X143225950Y-96699387D01*
X143145093Y-96894114D01*
X143144909Y-97104961D01*
X140879907Y-97104961D01*
X140880091Y-96895039D01*
X140799574Y-96700172D01*
X140650613Y-96550950D01*
X140455886Y-96470093D01*
X140245039Y-96469909D01*
X140050172Y-96550426D01*
X139900950Y-96699387D01*
X139820093Y-96894114D01*
X139819909Y-97104961D01*
X130375000Y-97104961D01*
X130375000Y-95104961D01*
X144419909Y-95104961D01*
X144500426Y-95299828D01*
X144649387Y-95449050D01*
X144772151Y-95500026D01*
X144650172Y-95550426D01*
X144500950Y-95699387D01*
X144420093Y-95894114D01*
X144419909Y-96104961D01*
X144500426Y-96299828D01*
X144649387Y-96449050D01*
X144844114Y-96529907D01*
X145054961Y-96530091D01*
X145249828Y-96449574D01*
X145399050Y-96300613D01*
X145479907Y-96105886D01*
X145480091Y-95895039D01*
X145399574Y-95700172D01*
X145250613Y-95550950D01*
X145127849Y-95499974D01*
X145249828Y-95449574D01*
X145399050Y-95300613D01*
X145479907Y-95105886D01*
X145480091Y-94895039D01*
X145399574Y-94700172D01*
X145250613Y-94550950D01*
X145055886Y-94470093D01*
X144845039Y-94469909D01*
X144650172Y-94550426D01*
X144500950Y-94699387D01*
X144420093Y-94894114D01*
X144419909Y-95104961D01*
X130375000Y-95104961D01*
X130375000Y-93954961D01*
X145269909Y-93954961D01*
X145350426Y-94149828D01*
X145499387Y-94299050D01*
X145694114Y-94379907D01*
X145904961Y-94380091D01*
X146099828Y-94299574D01*
X146249050Y-94150613D01*
X146329907Y-93955886D01*
X146330091Y-93745039D01*
X146249574Y-93550172D01*
X146100613Y-93400950D01*
X145905886Y-93320093D01*
X145695039Y-93319909D01*
X145500172Y-93400426D01*
X145350950Y-93549387D01*
X145270093Y-93744114D01*
X145269909Y-93954961D01*
X130375000Y-93954961D01*
X130375000Y-88029961D01*
X143669909Y-88029961D01*
X143750426Y-88224828D01*
X143899387Y-88374050D01*
X144094114Y-88454907D01*
X144304961Y-88455091D01*
X144499828Y-88374574D01*
X144649050Y-88225613D01*
X144668006Y-88179961D01*
X145419909Y-88179961D01*
X145500426Y-88374828D01*
X145649387Y-88524050D01*
X145844114Y-88604907D01*
X146054961Y-88605091D01*
X146249828Y-88524574D01*
X146399050Y-88375613D01*
X146479907Y-88180886D01*
X146480091Y-87970039D01*
X146399574Y-87775172D01*
X146250613Y-87625950D01*
X146055886Y-87545093D01*
X145845039Y-87544909D01*
X145650172Y-87625426D01*
X145500950Y-87774387D01*
X145420093Y-87969114D01*
X145419909Y-88179961D01*
X144668006Y-88179961D01*
X144729907Y-88030886D01*
X144730091Y-87820039D01*
X144649574Y-87625172D01*
X144500613Y-87475950D01*
X144305886Y-87395093D01*
X144095039Y-87394909D01*
X143900172Y-87475426D01*
X143750950Y-87624387D01*
X143670093Y-87819114D01*
X143669909Y-88029961D01*
X130375000Y-88029961D01*
X130375000Y-86604961D01*
X143519909Y-86604961D01*
X143600426Y-86799828D01*
X143749387Y-86949050D01*
X143944114Y-87029907D01*
X144154961Y-87030091D01*
X144349828Y-86949574D01*
X144499050Y-86800613D01*
X144579907Y-86605886D01*
X144580091Y-86395039D01*
X144499574Y-86200172D01*
X144404530Y-86104961D01*
X144794909Y-86104961D01*
X144875426Y-86299828D01*
X145024387Y-86449050D01*
X145147151Y-86500026D01*
X145025172Y-86550426D01*
X144875950Y-86699387D01*
X144795093Y-86894114D01*
X144794909Y-87104961D01*
X144875426Y-87299828D01*
X145024387Y-87449050D01*
X145219114Y-87529907D01*
X145429961Y-87530091D01*
X145624828Y-87449574D01*
X145774050Y-87300613D01*
X145854907Y-87105886D01*
X145855091Y-86895039D01*
X145774574Y-86700172D01*
X145625613Y-86550950D01*
X145502849Y-86499974D01*
X145624828Y-86449574D01*
X145774050Y-86300613D01*
X145854907Y-86105886D01*
X145855053Y-85938688D01*
X145894114Y-85954907D01*
X146104961Y-85955091D01*
X146299828Y-85874574D01*
X146449050Y-85725613D01*
X146529907Y-85530886D01*
X146530091Y-85320039D01*
X146449574Y-85125172D01*
X146300613Y-84975950D01*
X146105886Y-84895093D01*
X145895039Y-84894909D01*
X145700172Y-84975426D01*
X145550950Y-85124387D01*
X145470093Y-85319114D01*
X145469947Y-85486312D01*
X145430886Y-85470093D01*
X145220039Y-85469909D01*
X145025172Y-85550426D01*
X144875950Y-85699387D01*
X144795093Y-85894114D01*
X144794909Y-86104961D01*
X144404530Y-86104961D01*
X144350613Y-86050950D01*
X144155886Y-85970093D01*
X143945039Y-85969909D01*
X143750172Y-86050426D01*
X143600950Y-86199387D01*
X143520093Y-86394114D01*
X143519909Y-86604961D01*
X130375000Y-86604961D01*
X130375000Y-84104961D01*
X140819909Y-84104961D01*
X140900426Y-84299828D01*
X141049387Y-84449050D01*
X141244114Y-84529907D01*
X141454961Y-84530091D01*
X141649828Y-84449574D01*
X141799050Y-84300613D01*
X141879907Y-84105886D01*
X141880091Y-83895039D01*
X141799574Y-83700172D01*
X141650613Y-83550950D01*
X141455886Y-83470093D01*
X141245039Y-83469909D01*
X141050172Y-83550426D01*
X140900950Y-83699387D01*
X140820093Y-83894114D01*
X140819909Y-84104961D01*
X130375000Y-84104961D01*
X130375000Y-80900000D01*
X133054123Y-80900000D01*
X133054123Y-82600000D01*
X133075042Y-82711173D01*
X133140745Y-82813279D01*
X133240997Y-82881778D01*
X133360000Y-82905877D01*
X135060000Y-82905877D01*
X135171173Y-82884958D01*
X135273279Y-82819255D01*
X135341778Y-82719003D01*
X135365877Y-82600000D01*
X135365877Y-80900000D01*
X135344958Y-80788827D01*
X135279255Y-80686721D01*
X135179003Y-80618222D01*
X135060000Y-80594123D01*
X133360000Y-80594123D01*
X133248827Y-80615042D01*
X133146721Y-80680745D01*
X133078222Y-80780997D01*
X133054123Y-80900000D01*
X130375000Y-80900000D01*
X130375000Y-80375000D01*
X159625000Y-80375000D01*
X159625000Y-99625000D01*
X159625000Y-99625000D01*
G37*
X159625000Y-99625000D02*
X130375000Y-99625000D01*
X130375000Y-97854961D01*
X144394909Y-97854961D01*
X144475426Y-98049828D01*
X144624387Y-98199050D01*
X144819114Y-98279907D01*
X145029961Y-98280091D01*
X145224828Y-98199574D01*
X145374050Y-98050613D01*
X145454907Y-97855886D01*
X145455091Y-97645039D01*
X145374574Y-97450172D01*
X145225613Y-97300950D01*
X145030886Y-97220093D01*
X144820039Y-97219909D01*
X144625172Y-97300426D01*
X144475950Y-97449387D01*
X144395093Y-97644114D01*
X144394909Y-97854961D01*
X130375000Y-97854961D01*
X130375000Y-97104961D01*
X139819909Y-97104961D01*
X139900426Y-97299828D01*
X140049387Y-97449050D01*
X140244114Y-97529907D01*
X140454961Y-97530091D01*
X140649828Y-97449574D01*
X140799050Y-97300613D01*
X140879907Y-97105886D01*
X140879907Y-97104961D01*
X143144909Y-97104961D01*
X143225426Y-97299828D01*
X143374387Y-97449050D01*
X143569114Y-97529907D01*
X143779961Y-97530091D01*
X143974828Y-97449574D01*
X144124050Y-97300613D01*
X144204907Y-97105886D01*
X144205091Y-96895039D01*
X144124574Y-96700172D01*
X143975613Y-96550950D01*
X143780886Y-96470093D01*
X143570039Y-96469909D01*
X143375172Y-96550426D01*
X143225950Y-96699387D01*
X143145093Y-96894114D01*
X143144909Y-97104961D01*
X140879907Y-97104961D01*
X140880091Y-96895039D01*
X140799574Y-96700172D01*
X140650613Y-96550950D01*
X140455886Y-96470093D01*
X140245039Y-96469909D01*
X140050172Y-96550426D01*
X139900950Y-96699387D01*
X139820093Y-96894114D01*
X139819909Y-97104961D01*
X130375000Y-97104961D01*
X130375000Y-95104961D01*
X144419909Y-95104961D01*
X144500426Y-95299828D01*
X144649387Y-95449050D01*
X144772151Y-95500026D01*
X144650172Y-95550426D01*
X144500950Y-95699387D01*
X144420093Y-95894114D01*
X144419909Y-96104961D01*
X144500426Y-96299828D01*
X144649387Y-96449050D01*
X144844114Y-96529907D01*
X145054961Y-96530091D01*
X145249828Y-96449574D01*
X145399050Y-96300613D01*
X145479907Y-96105886D01*
X145480091Y-95895039D01*
X145399574Y-95700172D01*
X145250613Y-95550950D01*
X145127849Y-95499974D01*
X145249828Y-95449574D01*
X145399050Y-95300613D01*
X145479907Y-95105886D01*
X145480091Y-94895039D01*
X145399574Y-94700172D01*
X145250613Y-94550950D01*
X145055886Y-94470093D01*
X144845039Y-94469909D01*
X144650172Y-94550426D01*
X144500950Y-94699387D01*
X144420093Y-94894114D01*
X144419909Y-95104961D01*
X130375000Y-95104961D01*
X130375000Y-93954961D01*
X145269909Y-93954961D01*
X145350426Y-94149828D01*
X145499387Y-94299050D01*
X145694114Y-94379907D01*
X145904961Y-94380091D01*
X146099828Y-94299574D01*
X146249050Y-94150613D01*
X146329907Y-93955886D01*
X146330091Y-93745039D01*
X146249574Y-93550172D01*
X146100613Y-93400950D01*
X145905886Y-93320093D01*
X145695039Y-93319909D01*
X145500172Y-93400426D01*
X145350950Y-93549387D01*
X145270093Y-93744114D01*
X145269909Y-93954961D01*
X130375000Y-93954961D01*
X130375000Y-88029961D01*
X143669909Y-88029961D01*
X143750426Y-88224828D01*
X143899387Y-88374050D01*
X144094114Y-88454907D01*
X144304961Y-88455091D01*
X144499828Y-88374574D01*
X144649050Y-88225613D01*
X144668006Y-88179961D01*
X145419909Y-88179961D01*
X145500426Y-88374828D01*
X145649387Y-88524050D01*
X145844114Y-88604907D01*
X146054961Y-88605091D01*
X146249828Y-88524574D01*
X146399050Y-88375613D01*
X146479907Y-88180886D01*
X146480091Y-87970039D01*
X146399574Y-87775172D01*
X146250613Y-87625950D01*
X146055886Y-87545093D01*
X145845039Y-87544909D01*
X145650172Y-87625426D01*
X145500950Y-87774387D01*
X145420093Y-87969114D01*
X145419909Y-88179961D01*
X144668006Y-88179961D01*
X144729907Y-88030886D01*
X144730091Y-87820039D01*
X144649574Y-87625172D01*
X144500613Y-87475950D01*
X144305886Y-87395093D01*
X144095039Y-87394909D01*
X143900172Y-87475426D01*
X143750950Y-87624387D01*
X143670093Y-87819114D01*
X143669909Y-88029961D01*
X130375000Y-88029961D01*
X130375000Y-86604961D01*
X143519909Y-86604961D01*
X143600426Y-86799828D01*
X143749387Y-86949050D01*
X143944114Y-87029907D01*
X144154961Y-87030091D01*
X144349828Y-86949574D01*
X144499050Y-86800613D01*
X144579907Y-86605886D01*
X144580091Y-86395039D01*
X144499574Y-86200172D01*
X144404530Y-86104961D01*
X144794909Y-86104961D01*
X144875426Y-86299828D01*
X145024387Y-86449050D01*
X145147151Y-86500026D01*
X145025172Y-86550426D01*
X144875950Y-86699387D01*
X144795093Y-86894114D01*
X144794909Y-87104961D01*
X144875426Y-87299828D01*
X145024387Y-87449050D01*
X145219114Y-87529907D01*
X145429961Y-87530091D01*
X145624828Y-87449574D01*
X145774050Y-87300613D01*
X145854907Y-87105886D01*
X145855091Y-86895039D01*
X145774574Y-86700172D01*
X145625613Y-86550950D01*
X145502849Y-86499974D01*
X145624828Y-86449574D01*
X145774050Y-86300613D01*
X145854907Y-86105886D01*
X145855053Y-85938688D01*
X145894114Y-85954907D01*
X146104961Y-85955091D01*
X146299828Y-85874574D01*
X146449050Y-85725613D01*
X146529907Y-85530886D01*
X146530091Y-85320039D01*
X146449574Y-85125172D01*
X146300613Y-84975950D01*
X146105886Y-84895093D01*
X145895039Y-84894909D01*
X145700172Y-84975426D01*
X145550950Y-85124387D01*
X145470093Y-85319114D01*
X145469947Y-85486312D01*
X145430886Y-85470093D01*
X145220039Y-85469909D01*
X145025172Y-85550426D01*
X144875950Y-85699387D01*
X144795093Y-85894114D01*
X144794909Y-86104961D01*
X144404530Y-86104961D01*
X144350613Y-86050950D01*
X144155886Y-85970093D01*
X143945039Y-85969909D01*
X143750172Y-86050426D01*
X143600950Y-86199387D01*
X143520093Y-86394114D01*
X143519909Y-86604961D01*
X130375000Y-86604961D01*
X130375000Y-84104961D01*
X140819909Y-84104961D01*
X140900426Y-84299828D01*
X141049387Y-84449050D01*
X141244114Y-84529907D01*
X141454961Y-84530091D01*
X141649828Y-84449574D01*
X141799050Y-84300613D01*
X141879907Y-84105886D01*
X141880091Y-83895039D01*
X141799574Y-83700172D01*
X141650613Y-83550950D01*
X141455886Y-83470093D01*
X141245039Y-83469909D01*
X141050172Y-83550426D01*
X140900950Y-83699387D01*
X140820093Y-83894114D01*
X140819909Y-84104961D01*
X130375000Y-84104961D01*
X130375000Y-80900000D01*
X133054123Y-80900000D01*
X133054123Y-82600000D01*
X133075042Y-82711173D01*
X133140745Y-82813279D01*
X133240997Y-82881778D01*
X133360000Y-82905877D01*
X135060000Y-82905877D01*
X135171173Y-82884958D01*
X135273279Y-82819255D01*
X135341778Y-82719003D01*
X135365877Y-82600000D01*
X135365877Y-80900000D01*
X135344958Y-80788827D01*
X135279255Y-80686721D01*
X135179003Y-80618222D01*
X135060000Y-80594123D01*
X133360000Y-80594123D01*
X133248827Y-80615042D01*
X133146721Y-80680745D01*
X133078222Y-80780997D01*
X133054123Y-80900000D01*
X130375000Y-80900000D01*
X130375000Y-80375000D01*
X159625000Y-80375000D01*
X159625000Y-99625000D01*
M02*
