M48
;DRILL file {KiCad 4.0.6-e0-6349~53~ubuntu14.04.1} date Thu Apr 13 00:44:54 2017
;FORMAT={-:-/ absolute / inch / decimal}
FMAT,2
INCH,TZ
T1C0.010
T2C0.039
%
G90
G05
M72
T1
X5.1575Y-3.2815
X5.1575Y-3.3858
X5.1575Y-3.4528
X5.1585Y-3.1939
X5.1585Y-3.2362
X5.1585Y-3.3386
X5.1594Y-3.5561
X5.1604Y-3.6683
X5.1604Y-3.7953
X5.1604Y-3.8406
X5.1604Y-3.8927
X5.186Y-3.686
X5.1949Y-3.4528
X5.2067Y-3.1939
X5.2106Y-3.5581
X5.2116Y-3.7943
X5.2126Y-3.8917
X5.2224Y-3.6703
X5.2362Y-3.4528
X5.251Y-3.7933
X5.2549Y-3.5591
X5.2697Y-3.6614
X5.2717Y-3.8917
X5.2805Y-3.4508
X5.2884Y-3.7923
X5.2943Y-3.686
X5.3061Y-3.561
X5.31Y-3.6575
X5.3199Y-3.4518
X5.3219Y-3.7746
X5.3238Y-3.7077
X5.3238Y-3.7392
X5.3248Y-3.4852
X5.3258Y-3.8917
X5.3268Y-3.5364
X5.3317Y-3.5738
X5.3632Y-3.6585
X5.3858Y-3.5758
X5.3858Y-3.8917
X5.4163Y-3.6594
X5.439Y-3.5758
X5.4557Y-3.8917
X5.4626Y-3.1841
X5.4656Y-3.6644
X5.4931Y-3.5758
X5.5138Y-3.8927
X5.5256Y-3.8189
X5.5344Y-3.5335
X5.5354Y-3.186
X5.5354Y-3.6663
X5.5413Y-3.5837
X5.565Y-3.3071
X5.5807Y-3.5
X5.5807Y-3.6654
X5.5846Y-3.8927
X5.5886Y-3.185
X5.6033Y-3.3858
X5.6033Y-3.4252
X5.6083Y-3.4744
X5.6083Y-3.6909
X5.6102Y-3.5699
X5.6102Y-3.5955
X5.6407Y-3.185
X5.6457Y-3.4744
X5.6457Y-3.6909
X5.6565Y-3.8189
X5.6585Y-3.8927
X5.6624Y-3.5492
X5.6624Y-3.6152
X5.6634Y-3.5807
X5.6713Y-3.4055
X5.6772Y-3.4616
X5.6919Y-3.186
X5.7057Y-3.8484
X5.7067Y-3.7402
X5.7067Y-3.7795
X5.7087Y-3.4754
X5.7087Y-3.5827
X5.7087Y-3.6909
X5.7096Y-3.5492
X5.7096Y-3.6161
X5.7215Y-3.3858
X5.7215Y-3.4252
X5.7402Y-3.6949
X5.7461Y-3.4675
X5.747Y-3.5482
X5.748Y-3.3632
X5.749Y-3.5827
X5.749Y-3.8927
X5.751Y-3.6152
X5.7608Y-3.186
X5.7717Y-3.4754
X5.7717Y-3.6909
X5.8071Y-3.5699
X5.8071Y-3.5955
X5.8091Y-3.4754
X5.8091Y-3.6909
X5.8091Y-3.7402
X5.8091Y-3.7795
X5.814Y-3.186
X5.814Y-3.3858
X5.814Y-3.4252
X5.8189Y-3.8917
X5.8366Y-3.5
X5.8366Y-3.6654
X5.8543Y-3.8484
X5.8573Y-3.5846
X5.8711Y-3.8917
X5.876Y-3.186
X5.877Y-3.4882
X5.8898Y-3.5846
X5.9242Y-3.6132
X5.935Y-3.186
X5.936Y-3.8917
X5.94Y-3.4931
X5.9695Y-3.6575
X5.9843Y-3.186
X5.9852Y-3.5335
X6.0039Y-3.8917
X6.0335Y-3.186
X6.0463Y-3.5738
X6.0512Y-3.6713
X6.0846Y-3.8917
X6.0915Y-3.5295
X6.0925Y-3.186
X6.0935Y-3.4764
X6.0935Y-3.686
X6.0955Y-3.748
X6.0965Y-3.7894
X6.1102Y-3.56
X6.1201Y-3.4459
X6.1358Y-3.6713
X6.1457Y-3.7943
X6.1467Y-3.8917
X6.1506Y-3.186
X6.1516Y-3.56
X6.1624Y-3.6821
X6.1654Y-3.4459
X6.1811Y-3.7923
X6.2018Y-3.186
X6.2018Y-3.5591
X6.2067Y-3.8927
X6.2096Y-3.4449
X6.2116Y-3.6831
X6.2185Y-3.7923
X6.252Y-3.561
X6.253Y-3.4459
X6.2559Y-3.6801
X6.2569Y-3.186
X6.2569Y-3.2313
X6.2569Y-3.2825
X6.2569Y-3.7933
X6.2579Y-3.3455
X6.2579Y-3.4045
X6.2579Y-3.8533
X6.2579Y-3.8937
T2
X5.2839Y-3.2185
X5.3839Y-3.2185
T0
M30
