G04 #@! TF.FileFunction,Copper,L2,Inr,Signal*
%FSLAX46Y46*%
G04 Gerber Fmt 4.6, Leading zero omitted, Abs format (unit mm)*
G04 Created by KiCad (PCBNEW 4.0.6-e0-6349~53~ubuntu14.04.1) date Thu Apr 13 01:04:39 2017*
%MOMM*%
%LPD*%
G01*
G04 APERTURE LIST*
%ADD10C,0.100000*%
%ADD11R,1.700000X1.700000*%
%ADD12O,1.700000X1.700000*%
%ADD13C,0.480000*%
%ADD14C,0.240000*%
%ADD15C,0.254000*%
G04 APERTURE END LIST*
D10*
D11*
X99000000Y-114460000D03*
D12*
X99000000Y-117000000D03*
X99000000Y-119540000D03*
X99000000Y-122080000D03*
D13*
X112175000Y-131100000D03*
X115450000Y-114375000D03*
X106200000Y-118750000D03*
X122500000Y-120450000D03*
X122500000Y-147450000D03*
X122500000Y-135000000D03*
X112500000Y-121425000D03*
X107750000Y-118750000D03*
X111875000Y-145525000D03*
X118250000Y-143200000D03*
X120250000Y-130775000D03*
X117250000Y-130750000D03*
X117000000Y-119250000D03*
X122555000Y-151384000D03*
X115316000Y-150876000D03*
X115570000Y-137795000D03*
X115570000Y-125984000D03*
X122682000Y-126365000D03*
X122555000Y-138176000D03*
X122326400Y-114884200D03*
X121650000Y-111875000D03*
X127950000Y-110525000D03*
X125800000Y-110525000D03*
X123300000Y-110550000D03*
X120925000Y-110525000D03*
X105975000Y-110600000D03*
X103850000Y-110600000D03*
X102050000Y-110600000D03*
X100400000Y-110600000D03*
X98325000Y-110625000D03*
X98300000Y-111975000D03*
X98075000Y-123800000D03*
X98100000Y-125500000D03*
X98125000Y-126975000D03*
X98150000Y-128650000D03*
X109775000Y-118748000D03*
X110675000Y-117752000D03*
X111725000Y-116350000D03*
X122200000Y-125275000D03*
X107000000Y-124200000D03*
X107000000Y-121800000D03*
X108475000Y-123000000D03*
X113900000Y-113700000D03*
X113250000Y-114300000D03*
X112550000Y-114825000D03*
X112400000Y-115825000D03*
X113525000Y-115625000D03*
X114600000Y-115600000D03*
X111475000Y-120550000D03*
X114850000Y-120300000D03*
X113675000Y-120775000D03*
X112550000Y-120225000D03*
X113600000Y-118500000D03*
X114700000Y-118250000D03*
X115950000Y-118200000D03*
X116050000Y-124575000D03*
X115250000Y-123650000D03*
X114925000Y-125100000D03*
X114325000Y-126150000D03*
X114950000Y-127125000D03*
X113925000Y-127150000D03*
X113225000Y-126400000D03*
X113000000Y-125375000D03*
X111300000Y-124550000D03*
X111475000Y-123550000D03*
X111325000Y-122275000D03*
X112875000Y-142975000D03*
X113375000Y-142350000D03*
X114200000Y-141625000D03*
X115850000Y-141525000D03*
X116725000Y-141925000D03*
X116800000Y-142900000D03*
X116150000Y-143525000D03*
X114875000Y-143675000D03*
X113800000Y-144100000D03*
X112525000Y-144075000D03*
X111250000Y-144425000D03*
X108050000Y-144450000D03*
X108675000Y-144000000D03*
X109025000Y-142775000D03*
X110025000Y-141875000D03*
X111050000Y-140825000D03*
X112100000Y-139575000D03*
X113075000Y-138900000D03*
X114525000Y-138775000D03*
X114200000Y-137250000D03*
X115300000Y-136175000D03*
X114575000Y-135325000D03*
X113875000Y-133975000D03*
X112275000Y-134025000D03*
X110775000Y-134025000D03*
X109900000Y-133275000D03*
X109925000Y-131725000D03*
X109900000Y-130350000D03*
X111300000Y-129825000D03*
X115800000Y-131125000D03*
X115875000Y-129800000D03*
X114600000Y-129700000D03*
X113025000Y-129650000D03*
X111900000Y-128600000D03*
X110900000Y-127725000D03*
X109700000Y-127350000D03*
X109025000Y-125900000D03*
X108475000Y-124950000D03*
X107175000Y-126325000D03*
X108200000Y-127425000D03*
X108575000Y-129000000D03*
X108525000Y-130475000D03*
X108500000Y-131900000D03*
X108250000Y-133700000D03*
X107350000Y-134800000D03*
X107925000Y-135575000D03*
X108550000Y-137025000D03*
X108525000Y-138625000D03*
X108500000Y-140125000D03*
X108475000Y-141700000D03*
X107325000Y-143025000D03*
X107225000Y-144100000D03*
X115400000Y-149100000D03*
X114600000Y-148775000D03*
X113075000Y-148625000D03*
X111275000Y-148800000D03*
X111550000Y-149825000D03*
X112525000Y-150700000D03*
X113400000Y-151550000D03*
X114700000Y-152050000D03*
X105250000Y-122375000D03*
X104750000Y-123900000D03*
X104750000Y-125350000D03*
X104750000Y-126875000D03*
X105475000Y-128275000D03*
X106050000Y-129625000D03*
X106050000Y-130950000D03*
X106050000Y-132325000D03*
X104850000Y-132800000D03*
X102200000Y-132875000D03*
X102225000Y-131475000D03*
X102225000Y-130475000D03*
X101000000Y-130400000D03*
X99575000Y-130400000D03*
X98150000Y-130375000D03*
X98150000Y-133225000D03*
X99750000Y-133250000D03*
X101325000Y-133525000D03*
X114475000Y-155450000D03*
X111850000Y-155475000D03*
X110325000Y-155450000D03*
X108900000Y-155450000D03*
X107300000Y-155450000D03*
X105800000Y-155450000D03*
X104325000Y-155425000D03*
X102900000Y-155425000D03*
X101400000Y-155400000D03*
X99700000Y-155400000D03*
X98250000Y-155375000D03*
X98225000Y-154400000D03*
X98225000Y-152900000D03*
X98200000Y-151125000D03*
X98200000Y-149425000D03*
X98200000Y-147375000D03*
X98175000Y-145800000D03*
X98175000Y-143525000D03*
X98150000Y-141850000D03*
X98150000Y-140300000D03*
X102150000Y-137275000D03*
X102225000Y-138500000D03*
X100900000Y-139225000D03*
X99400000Y-139125000D03*
X98100000Y-139150000D03*
X98525000Y-136250000D03*
X100275000Y-136300000D03*
X101900000Y-136025000D03*
X104650000Y-136750000D03*
X105900000Y-137175000D03*
X106075000Y-138475000D03*
X106075000Y-139825000D03*
X105500000Y-141200000D03*
X104750000Y-142800000D03*
X104700000Y-144400000D03*
X104725000Y-146275000D03*
X105500000Y-147450000D03*
X108650000Y-148950000D03*
X108700000Y-150550000D03*
X109875000Y-152150000D03*
X111625000Y-153600000D03*
X113400000Y-154850000D03*
X115700000Y-154900000D03*
X122550000Y-155350000D03*
X123900000Y-155325000D03*
X123900000Y-154425000D03*
X124775000Y-153575000D03*
X125675000Y-153425000D03*
X126825000Y-153425000D03*
X127900000Y-153450000D03*
X127775000Y-150425000D03*
X126750000Y-150425000D03*
X125700000Y-150400000D03*
X124500000Y-150375000D03*
X123875000Y-149400000D03*
X123900000Y-148375000D03*
X124450000Y-147600000D03*
X125625000Y-147625000D03*
X126825000Y-147600000D03*
X127925000Y-147450000D03*
X127925000Y-145925000D03*
X127875000Y-144400000D03*
X126925000Y-144350000D03*
X125925000Y-144400000D03*
X124450000Y-144450000D03*
X123850000Y-143625000D03*
X123800000Y-142500000D03*
X123100000Y-141500000D03*
X124250000Y-141475000D03*
X125550000Y-141500000D03*
X126575000Y-141575000D03*
X127850000Y-141475000D03*
X127825000Y-138425000D03*
X126625000Y-138425000D03*
X125550000Y-138375000D03*
X124375000Y-138375000D03*
X123875000Y-137250000D03*
X123900000Y-136225000D03*
X124475000Y-135625000D03*
X125650000Y-135625000D03*
X126750000Y-135625000D03*
X127875000Y-135575000D03*
X127875000Y-132400000D03*
X126725000Y-132425000D03*
X125625000Y-132375000D03*
X124350000Y-132450000D03*
X123800000Y-131400000D03*
X123750000Y-130475000D03*
X123950000Y-129675000D03*
X125525000Y-129575000D03*
X126725000Y-129475000D03*
X127875000Y-129500000D03*
X127875000Y-126475000D03*
X126650000Y-126475000D03*
X125475000Y-126475000D03*
X124300000Y-126750000D03*
X123900000Y-125475000D03*
X123900000Y-124475000D03*
X124375000Y-123675000D03*
X125550000Y-123675000D03*
X126700000Y-123675000D03*
X127900000Y-123650000D03*
X123900000Y-113400000D03*
X123875000Y-112225000D03*
X124550000Y-111675000D03*
X126100000Y-111650000D03*
X127175000Y-111675000D03*
X128000000Y-111675000D03*
X128000000Y-114575000D03*
X127200000Y-114575000D03*
X126150000Y-114550000D03*
X125100000Y-114750000D03*
X123975000Y-114825000D03*
X123400000Y-114200000D03*
X123925000Y-118525000D03*
X123950000Y-119675000D03*
X124450000Y-120300000D03*
X125675000Y-120300000D03*
X126775000Y-120300000D03*
X127900000Y-120325000D03*
X127900000Y-117425000D03*
X126750000Y-117425000D03*
X125550000Y-117450000D03*
X124450000Y-117200000D03*
X123550000Y-117225000D03*
X122900000Y-117800000D03*
X114125000Y-131100000D03*
X116250000Y-119250000D03*
X115775000Y-150175000D03*
X115852000Y-151852000D03*
X104000000Y-118025000D03*
X106400000Y-120250000D03*
X122500000Y-123450000D03*
X122500000Y-144475000D03*
X122500000Y-132000000D03*
X112500000Y-123400000D03*
X108250000Y-113275000D03*
X107550000Y-115950000D03*
X108450000Y-115950000D03*
X108450000Y-115050000D03*
X107550000Y-115050000D03*
X108500000Y-117750000D03*
X103500000Y-135950000D03*
X103500000Y-133550000D03*
X107000000Y-147700000D03*
X103000000Y-135400000D03*
X103000000Y-134075000D03*
X105025000Y-134750000D03*
X106500000Y-147150000D03*
X107000000Y-145300000D03*
X108525000Y-146500000D03*
X111875000Y-147250000D03*
X115875000Y-153975000D03*
X115850000Y-152825000D03*
X122200000Y-150625000D03*
X122125000Y-151900000D03*
X122250000Y-152725000D03*
X122150000Y-153975000D03*
X117750000Y-155275000D03*
X118750000Y-155275000D03*
X119750000Y-155275000D03*
X120750000Y-155275000D03*
X115900000Y-140850000D03*
X122150000Y-140875000D03*
X122125000Y-137250000D03*
X122150000Y-138750000D03*
X122145477Y-139703411D03*
X115852414Y-137245301D03*
X115900000Y-138750000D03*
X115900000Y-139700000D03*
X117750000Y-142125000D03*
X118750000Y-142125000D03*
X119750000Y-142125000D03*
X120750000Y-142125000D03*
X115850000Y-125375000D03*
X115825000Y-126900000D03*
X115825000Y-127750000D03*
X115825000Y-129000000D03*
X118137500Y-153000000D03*
X119862500Y-153000000D03*
X119862500Y-151275000D03*
X118137500Y-151275000D03*
X118950000Y-145900000D03*
X118050000Y-145900000D03*
X118050000Y-145000000D03*
X118950000Y-145000000D03*
X118137500Y-139862500D03*
X119862500Y-139862500D03*
X119862500Y-138137500D03*
X118137500Y-138137500D03*
X118050000Y-133450000D03*
X118950000Y-133450000D03*
X118950000Y-132550000D03*
X118050000Y-132550000D03*
X118137500Y-128000000D03*
X119862500Y-128000000D03*
X119862500Y-126275000D03*
X118137500Y-126275000D03*
X118137500Y-116500000D03*
X118137500Y-114775000D03*
X119862500Y-114775000D03*
X119862500Y-116500000D03*
X122250000Y-126900000D03*
X122200000Y-128975000D03*
X122250000Y-127625000D03*
X117750000Y-130250000D03*
X118750000Y-130250000D03*
X119750000Y-130250000D03*
X120750000Y-130250000D03*
X118959200Y-121727800D03*
X118059200Y-121727800D03*
X118059200Y-120827800D03*
X118959200Y-120827800D03*
X115700000Y-113750000D03*
X122250000Y-116025000D03*
X115825000Y-117525000D03*
X115849170Y-114881584D03*
X115850000Y-115875000D03*
X117775000Y-118750000D03*
X118750000Y-118750000D03*
X119750000Y-118750000D03*
X120750000Y-118750000D03*
X122200000Y-117450000D03*
X122200000Y-113900000D03*
X118491000Y-148082000D03*
X120725000Y-144700000D03*
X120725000Y-132250000D03*
X120750000Y-120525000D03*
X105750000Y-116250000D03*
X119250000Y-143175000D03*
X119800000Y-131525000D03*
X107250000Y-117750000D03*
X120871000Y-119540000D03*
D14*
X127950000Y-110525000D02*
X123000000Y-110525000D01*
X123000000Y-110525000D02*
X121650000Y-111875000D01*
X125800000Y-110525000D02*
X127950000Y-110525000D01*
X123300000Y-110550000D02*
X125775000Y-110550000D01*
X125775000Y-110550000D02*
X125800000Y-110525000D01*
X120925000Y-110525000D02*
X123275000Y-110525000D01*
X123275000Y-110525000D02*
X123300000Y-110550000D01*
X105975000Y-110600000D02*
X120850000Y-110600000D01*
X120850000Y-110600000D02*
X120925000Y-110525000D01*
X103850000Y-110600000D02*
X105975000Y-110600000D01*
X102050000Y-110600000D02*
X103850000Y-110600000D01*
X100400000Y-110600000D02*
X102050000Y-110600000D01*
X98325000Y-110625000D02*
X100375000Y-110625000D01*
X100375000Y-110625000D02*
X100400000Y-110600000D01*
X98300000Y-111975000D02*
X98300000Y-110650000D01*
X98300000Y-110650000D02*
X98325000Y-110625000D01*
X101150000Y-122425000D02*
X101150000Y-114445598D01*
X101150000Y-114445598D02*
X98679402Y-111975000D01*
X98679402Y-111975000D02*
X98300000Y-111975000D01*
X99775000Y-123800000D02*
X101150000Y-122425000D01*
X98075000Y-123800000D02*
X99775000Y-123800000D01*
X98100000Y-125500000D02*
X98100000Y-123825000D01*
X98100000Y-123825000D02*
X98075000Y-123800000D01*
X98125000Y-126975000D02*
X98125000Y-125525000D01*
X98125000Y-125525000D02*
X98100000Y-125500000D01*
X98150000Y-128650000D02*
X98150000Y-127000000D01*
X98150000Y-127000000D02*
X98125000Y-126975000D01*
X98150000Y-130375000D02*
X98150000Y-128650000D01*
X110675000Y-117752000D02*
X110675000Y-117848000D01*
X110675000Y-117848000D02*
X109775000Y-118748000D01*
X112000001Y-116225000D02*
X112400000Y-115825001D01*
X112000001Y-116225000D02*
X111850000Y-116225000D01*
X111850000Y-116225000D02*
X111725000Y-116350000D01*
X112550000Y-114825000D02*
X111725000Y-115650000D01*
X111725000Y-115650000D02*
X111725000Y-116350000D01*
X112400000Y-115825001D02*
X112400000Y-115825000D01*
X113250000Y-114300000D02*
X113300000Y-114300000D01*
X113300000Y-114300000D02*
X113900000Y-113700000D01*
X112550000Y-114825000D02*
X112725000Y-114825000D01*
X112725000Y-114825000D02*
X113250000Y-114300000D01*
X113525000Y-115625000D02*
X112600000Y-115625000D01*
X112600000Y-115625000D02*
X112400000Y-115825000D01*
X114600000Y-115600000D02*
X113550000Y-115600000D01*
X113550000Y-115600000D02*
X113525000Y-115625000D01*
X115850000Y-115875000D02*
X114875000Y-115875000D01*
X114875000Y-115875000D02*
X114600000Y-115600000D01*
X112550000Y-120225000D02*
X111800000Y-120225000D01*
X111800000Y-120225000D02*
X111475000Y-120550000D01*
X113675000Y-120775000D02*
X114375000Y-120775000D01*
X114375000Y-120775000D02*
X114850000Y-120300000D01*
X112550000Y-120225000D02*
X113125000Y-120225000D01*
X113125000Y-120225000D02*
X113675000Y-120775000D01*
X113600000Y-118500000D02*
X113600000Y-119175000D01*
X113600000Y-119175000D02*
X112550000Y-120225000D01*
X114700000Y-118250000D02*
X113850000Y-118250000D01*
X113850000Y-118250000D02*
X113600000Y-118500000D01*
X115950000Y-118200000D02*
X114750000Y-118200000D01*
X114750000Y-118200000D02*
X114700000Y-118250000D01*
X115825000Y-117525000D02*
X115825000Y-118075000D01*
X115825000Y-118075000D02*
X115950000Y-118200000D01*
X115250000Y-123650000D02*
X115250000Y-123775000D01*
X115250000Y-123775000D02*
X116050000Y-124575000D01*
X114925000Y-125100000D02*
X114925000Y-123975000D01*
X114925000Y-123975000D02*
X115250000Y-123650000D01*
X114325000Y-126150000D02*
X114325000Y-125700000D01*
X114325000Y-125700000D02*
X114925000Y-125100000D01*
X114950000Y-127125000D02*
X114950000Y-126775000D01*
X114950000Y-126775000D02*
X114325000Y-126150000D01*
X113925000Y-127150000D02*
X114925000Y-127150000D01*
X114925000Y-127150000D02*
X114950000Y-127125000D01*
X113225000Y-126400000D02*
X113225000Y-126450000D01*
X113225000Y-126450000D02*
X113925000Y-127150000D01*
X113000000Y-125375000D02*
X113000000Y-126175000D01*
X113000000Y-126175000D02*
X113225000Y-126400000D01*
X111300000Y-124550000D02*
X112175000Y-124550000D01*
X112175000Y-124550000D02*
X113000000Y-125375000D01*
X111475000Y-123550000D02*
X111475000Y-124375000D01*
X111475000Y-124375000D02*
X111300000Y-124550000D01*
X111325000Y-122275000D02*
X111325000Y-123400000D01*
X111325000Y-123400000D02*
X111475000Y-123550000D01*
X112500000Y-123400000D02*
X112450000Y-123400000D01*
X112450000Y-123400000D02*
X111325000Y-122275000D01*
X113375000Y-142350000D02*
X113375000Y-142475000D01*
X113375000Y-142475000D02*
X112875000Y-142975000D01*
X114200000Y-141625000D02*
X114100000Y-141625000D01*
X114100000Y-141625000D02*
X113375000Y-142350000D01*
X115850000Y-141525000D02*
X114300000Y-141525000D01*
X114300000Y-141525000D02*
X114200000Y-141625000D01*
X116725000Y-141925000D02*
X116250000Y-141925000D01*
X116250000Y-141925000D02*
X115850000Y-141525000D01*
X116800000Y-142900000D02*
X116800000Y-142000000D01*
X116800000Y-142000000D02*
X116725000Y-141925000D01*
X116150000Y-143525000D02*
X116175000Y-143525000D01*
X116175000Y-143525000D02*
X116800000Y-142900000D01*
X114875000Y-143675000D02*
X116000000Y-143675000D01*
X116000000Y-143675000D02*
X116150000Y-143525000D01*
X113800000Y-144100000D02*
X114450000Y-144100000D01*
X114450000Y-144100000D02*
X114875000Y-143675000D01*
X112525000Y-144075000D02*
X113775000Y-144075000D01*
X113775000Y-144075000D02*
X113800000Y-144100000D01*
X111250000Y-144425000D02*
X112175000Y-144425000D01*
X112175000Y-144425000D02*
X112525000Y-144075000D01*
X108050000Y-144450000D02*
X111225000Y-144450000D01*
X111225000Y-144450000D02*
X111250000Y-144425000D01*
X108675000Y-144000000D02*
X108500000Y-144000000D01*
X108500000Y-144000000D02*
X108050000Y-144450000D01*
X109025000Y-142775000D02*
X109025000Y-143650000D01*
X109025000Y-143650000D02*
X108675000Y-144000000D01*
X110025000Y-141875000D02*
X109925000Y-141875000D01*
X109925000Y-141875000D02*
X109025000Y-142775000D01*
X111050000Y-140825000D02*
X111050000Y-140850000D01*
X111050000Y-140850000D02*
X110025000Y-141875000D01*
X112100000Y-139575000D02*
X112100000Y-139775000D01*
X112100000Y-139775000D02*
X111050000Y-140825000D01*
X113075000Y-138900000D02*
X112775000Y-138900000D01*
X112775000Y-138900000D02*
X112100000Y-139575000D01*
X114525000Y-138775000D02*
X113200000Y-138775000D01*
X113200000Y-138775000D02*
X113075000Y-138900000D01*
X114200000Y-137250000D02*
X114200000Y-138450000D01*
X114200000Y-138450000D02*
X114525000Y-138775000D01*
X115300000Y-136175000D02*
X115275000Y-136175000D01*
X115275000Y-136175000D02*
X114200000Y-137250000D01*
X114575000Y-135325000D02*
X114575000Y-135450000D01*
X114575000Y-135450000D02*
X115300000Y-136175000D01*
X113875000Y-133975000D02*
X113875000Y-134625000D01*
X113875000Y-134625000D02*
X114575000Y-135325000D01*
X112275000Y-134025000D02*
X113825000Y-134025000D01*
X113825000Y-134025000D02*
X113875000Y-133975000D01*
X110775000Y-134025000D02*
X112275000Y-134025000D01*
X109900000Y-133275000D02*
X110025000Y-133275000D01*
X110025000Y-133275000D02*
X110775000Y-134025000D01*
X109925000Y-131725000D02*
X109925000Y-133250000D01*
X109925000Y-133250000D02*
X109900000Y-133275000D01*
X109900000Y-130350000D02*
X109900000Y-131700000D01*
X109900000Y-131700000D02*
X109925000Y-131725000D01*
X111300000Y-129825000D02*
X110425000Y-129825000D01*
X110425000Y-129825000D02*
X109900000Y-130350000D01*
X115800000Y-131125000D02*
X114500000Y-129825000D01*
X114500000Y-129825000D02*
X111300000Y-129825000D01*
X115875000Y-129800000D02*
X115875000Y-131050000D01*
X115875000Y-131050000D02*
X115800000Y-131125000D01*
X114600000Y-129700000D02*
X115775000Y-129700000D01*
X115775000Y-129700000D02*
X115875000Y-129800000D01*
X113025000Y-129650000D02*
X114550000Y-129650000D01*
X114550000Y-129650000D02*
X114600000Y-129700000D01*
X111900000Y-128600000D02*
X111975000Y-128600000D01*
X111975000Y-128600000D02*
X113025000Y-129650000D01*
X110900000Y-127725000D02*
X111025000Y-127725000D01*
X111025000Y-127725000D02*
X111900000Y-128600000D01*
X109700000Y-127350000D02*
X110525000Y-127350000D01*
X110525000Y-127350000D02*
X110900000Y-127725000D01*
X109025000Y-125900000D02*
X109025000Y-126675000D01*
X109025000Y-126675000D02*
X109700000Y-127350000D01*
X108475000Y-124950000D02*
X108475000Y-125350000D01*
X108475000Y-125350000D02*
X109025000Y-125900000D01*
X107125000Y-124600000D02*
X108125000Y-124600000D01*
X108125000Y-124600000D02*
X108475000Y-124950000D01*
X107175000Y-126325000D02*
X107175000Y-124650000D01*
X107175000Y-124650000D02*
X107125000Y-124600000D01*
X108200000Y-127425000D02*
X108200000Y-127350000D01*
X108200000Y-127350000D02*
X107175000Y-126325000D01*
X108575000Y-129000000D02*
X108575000Y-127800000D01*
X108575000Y-127800000D02*
X108200000Y-127425000D01*
X108525000Y-130475000D02*
X108525000Y-129050000D01*
X108525000Y-129050000D02*
X108575000Y-129000000D01*
X108500000Y-131900000D02*
X108500000Y-130500000D01*
X108500000Y-130500000D02*
X108525000Y-130475000D01*
X108250000Y-133700000D02*
X108250000Y-132150000D01*
X108250000Y-132150000D02*
X108500000Y-131900000D01*
X107350000Y-134800000D02*
X107350000Y-134600000D01*
X107350000Y-134600000D02*
X108250000Y-133700000D01*
X107925000Y-135575000D02*
X107925000Y-135375000D01*
X107925000Y-135375000D02*
X107350000Y-134800000D01*
X108550000Y-137025000D02*
X108550000Y-136200000D01*
X108550000Y-136200000D02*
X107925000Y-135575000D01*
X108525000Y-138625000D02*
X108525000Y-137050000D01*
X108525000Y-137050000D02*
X108550000Y-137025000D01*
X108500000Y-140125000D02*
X108500000Y-138650000D01*
X108500000Y-138650000D02*
X108525000Y-138625000D01*
X108475000Y-141700000D02*
X108475000Y-140150000D01*
X108475000Y-140150000D02*
X108500000Y-140125000D01*
X107325000Y-143025000D02*
X107325000Y-142850000D01*
X107325000Y-142850000D02*
X108475000Y-141700000D01*
X107225000Y-144100000D02*
X107225000Y-143125000D01*
X107225000Y-143125000D02*
X107325000Y-143025000D01*
X107000000Y-145300000D02*
X107000000Y-144325000D01*
X107000000Y-144325000D02*
X107225000Y-144100000D01*
X114600000Y-148775000D02*
X115075000Y-148775000D01*
X115075000Y-148775000D02*
X115400000Y-149100000D01*
X113075000Y-148625000D02*
X114450000Y-148625000D01*
X114450000Y-148625000D02*
X114600000Y-148775000D01*
X111275000Y-148800000D02*
X112900000Y-148800000D01*
X112900000Y-148800000D02*
X113075000Y-148625000D01*
X111550000Y-149825000D02*
X111550000Y-149075000D01*
X111550000Y-149075000D02*
X111275000Y-148800000D01*
X112525000Y-150700000D02*
X112425000Y-150700000D01*
X112425000Y-150700000D02*
X111550000Y-149825000D01*
X113400000Y-151550000D02*
X113375000Y-151550000D01*
X113375000Y-151550000D02*
X112525000Y-150700000D01*
X114700000Y-152050000D02*
X113900000Y-152050000D01*
X113900000Y-152050000D02*
X113400000Y-151550000D01*
X115775000Y-150175000D02*
X116014999Y-150414999D01*
X116014999Y-150414999D02*
X116014999Y-150914043D01*
X116014999Y-150914043D02*
X114879042Y-152050000D01*
X114879042Y-152050000D02*
X114700000Y-152050000D01*
X105250000Y-122375000D02*
X106000000Y-122375000D01*
X106000000Y-122375000D02*
X106625000Y-121750000D01*
X104750000Y-123900000D02*
X104750000Y-122875000D01*
X104750000Y-122875000D02*
X105250000Y-122375000D01*
X104750000Y-125350000D02*
X104750000Y-123900000D01*
X104750000Y-126875000D02*
X104750000Y-125350000D01*
X105475000Y-128275000D02*
X105475000Y-127600000D01*
X105475000Y-127600000D02*
X104750000Y-126875000D01*
X106050000Y-129625000D02*
X106050000Y-128850000D01*
X106050000Y-128850000D02*
X105475000Y-128275000D01*
X106050000Y-130950000D02*
X106050000Y-129625000D01*
X106050000Y-132325000D02*
X106050000Y-130950000D01*
X104850000Y-132800000D02*
X105575000Y-132800000D01*
X105575000Y-132800000D02*
X106050000Y-132325000D01*
X103500000Y-133550000D02*
X104100000Y-133550000D01*
X104100000Y-133550000D02*
X104850000Y-132800000D01*
X102225000Y-131475000D02*
X102225000Y-132850000D01*
X102225000Y-132850000D02*
X102200000Y-132875000D01*
X102225000Y-130475000D02*
X102225000Y-131475000D01*
X101000000Y-130400000D02*
X102150000Y-130400000D01*
X102150000Y-130400000D02*
X102225000Y-130475000D01*
X99575000Y-130400000D02*
X101000000Y-130400000D01*
X98150000Y-130375000D02*
X99550000Y-130375000D01*
X99550000Y-130375000D02*
X99575000Y-130400000D01*
X98150000Y-133225000D02*
X98150000Y-130375000D01*
X99750000Y-133250000D02*
X98175000Y-133250000D01*
X98175000Y-133250000D02*
X98150000Y-133225000D01*
X101325000Y-133525000D02*
X100025000Y-133525000D01*
X100025000Y-133525000D02*
X99750000Y-133250000D01*
X103500000Y-133550000D02*
X101350000Y-133550000D01*
X101350000Y-133550000D02*
X101325000Y-133525000D01*
X111850000Y-155475000D02*
X114450000Y-155475000D01*
X114450000Y-155475000D02*
X114475000Y-155450000D01*
X110325000Y-155450000D02*
X111825000Y-155450000D01*
X111825000Y-155450000D02*
X111850000Y-155475000D01*
X108900000Y-155450000D02*
X110325000Y-155450000D01*
X107300000Y-155450000D02*
X108900000Y-155450000D01*
X105800000Y-155450000D02*
X107300000Y-155450000D01*
X104325000Y-155425000D02*
X105775000Y-155425000D01*
X105775000Y-155425000D02*
X105800000Y-155450000D01*
X102900000Y-155425000D02*
X104325000Y-155425000D01*
X101400000Y-155400000D02*
X102875000Y-155400000D01*
X102875000Y-155400000D02*
X102900000Y-155425000D01*
X99700000Y-155400000D02*
X101400000Y-155400000D01*
X98250000Y-155375000D02*
X99675000Y-155375000D01*
X99675000Y-155375000D02*
X99700000Y-155400000D01*
X98225000Y-154400000D02*
X98225000Y-155350000D01*
X98225000Y-155350000D02*
X98250000Y-155375000D01*
X98225000Y-152900000D02*
X98225000Y-154400000D01*
X98200000Y-151125000D02*
X98200000Y-152875000D01*
X98200000Y-152875000D02*
X98225000Y-152900000D01*
X98200000Y-149425000D02*
X98200000Y-151125000D01*
X98200000Y-147375000D02*
X98200000Y-149425000D01*
X98175000Y-145800000D02*
X98175000Y-147350000D01*
X98175000Y-147350000D02*
X98200000Y-147375000D01*
X98175000Y-143525000D02*
X98175000Y-145800000D01*
X98150000Y-141850000D02*
X98150000Y-143500000D01*
X98150000Y-143500000D02*
X98175000Y-143525000D01*
X98150000Y-140300000D02*
X98150000Y-141850000D01*
X98100000Y-139150000D02*
X98100000Y-140250000D01*
X98100000Y-140250000D02*
X98150000Y-140300000D01*
X102225000Y-138500000D02*
X102225000Y-137350000D01*
X102225000Y-137350000D02*
X102150000Y-137275000D01*
X100900000Y-139225000D02*
X101500000Y-139225000D01*
X101500000Y-139225000D02*
X102225000Y-138500000D01*
X99400000Y-139125000D02*
X100800000Y-139125000D01*
X100800000Y-139125000D02*
X100900000Y-139225000D01*
X98100000Y-139150000D02*
X99375000Y-139150000D01*
X99375000Y-139150000D02*
X99400000Y-139125000D01*
X98525000Y-136250000D02*
X98100000Y-136675000D01*
X98100000Y-136675000D02*
X98100000Y-139150000D01*
X100275000Y-136300000D02*
X98575000Y-136300000D01*
X98575000Y-136300000D02*
X98525000Y-136250000D01*
X101900000Y-136025000D02*
X100550000Y-136025000D01*
X100550000Y-136025000D02*
X100275000Y-136300000D01*
X104650000Y-136750000D02*
X102625000Y-136750000D01*
X102625000Y-136750000D02*
X101900000Y-136025000D01*
X105900000Y-137175000D02*
X105075000Y-137175000D01*
X105075000Y-137175000D02*
X104650000Y-136750000D01*
X106075000Y-138475000D02*
X106075000Y-137350000D01*
X106075000Y-137350000D02*
X105900000Y-137175000D01*
X106075000Y-139825000D02*
X106075000Y-138475000D01*
X105500000Y-141200000D02*
X105500000Y-140400000D01*
X105500000Y-140400000D02*
X106075000Y-139825000D01*
X104750000Y-142800000D02*
X104750000Y-141950000D01*
X104750000Y-141950000D02*
X105500000Y-141200000D01*
X104700000Y-144400000D02*
X104700000Y-142850000D01*
X104700000Y-142850000D02*
X104750000Y-142800000D01*
X104725000Y-146275000D02*
X104725000Y-144425000D01*
X104725000Y-144425000D02*
X104700000Y-144400000D01*
X105500000Y-147450000D02*
X105500000Y-147050000D01*
X105500000Y-147050000D02*
X104725000Y-146275000D01*
X108650000Y-148950000D02*
X107000000Y-148950000D01*
X107000000Y-148950000D02*
X105500000Y-147450000D01*
X108700000Y-150550000D02*
X108700000Y-149000000D01*
X108700000Y-149000000D02*
X108650000Y-148950000D01*
X109875000Y-152150000D02*
X109875000Y-151725000D01*
X109875000Y-151725000D02*
X108700000Y-150550000D01*
X111625000Y-153600000D02*
X111325000Y-153600000D01*
X111325000Y-153600000D02*
X109875000Y-152150000D01*
X113400000Y-154850000D02*
X112875000Y-154850000D01*
X112875000Y-154850000D02*
X111625000Y-153600000D01*
X115700000Y-154900000D02*
X113450000Y-154900000D01*
X113450000Y-154900000D02*
X113400000Y-154850000D01*
X122550000Y-155350000D02*
X122100000Y-154900000D01*
X122100000Y-154900000D02*
X115700000Y-154900000D01*
X123900000Y-155325000D02*
X122575000Y-155325000D01*
X122575000Y-155325000D02*
X122550000Y-155350000D01*
X123900000Y-154425000D02*
X123900000Y-155325000D01*
X124775000Y-153575000D02*
X124750000Y-153575000D01*
X124750000Y-153575000D02*
X123900000Y-154425000D01*
X125675000Y-153425000D02*
X124925000Y-153425000D01*
X124925000Y-153425000D02*
X124775000Y-153575000D01*
X126825000Y-153425000D02*
X125675000Y-153425000D01*
X127900000Y-153450000D02*
X126850000Y-153450000D01*
X126850000Y-153450000D02*
X126825000Y-153425000D01*
X127775000Y-150425000D02*
X127775000Y-153325000D01*
X127775000Y-153325000D02*
X127900000Y-153450000D01*
X126750000Y-150425000D02*
X127775000Y-150425000D01*
X125700000Y-150400000D02*
X126725000Y-150400000D01*
X126725000Y-150400000D02*
X126750000Y-150425000D01*
X124500000Y-150375000D02*
X125675000Y-150375000D01*
X125675000Y-150375000D02*
X125700000Y-150400000D01*
X123875000Y-149400000D02*
X123875000Y-149750000D01*
X123875000Y-149750000D02*
X124500000Y-150375000D01*
X123900000Y-148375000D02*
X123900000Y-149375000D01*
X123900000Y-149375000D02*
X123875000Y-149400000D01*
X124450000Y-147600000D02*
X124450000Y-147825000D01*
X124450000Y-147825000D02*
X123900000Y-148375000D01*
X125625000Y-147625000D02*
X124475000Y-147625000D01*
X124475000Y-147625000D02*
X124450000Y-147600000D01*
X126825000Y-147600000D02*
X125650000Y-147600000D01*
X125650000Y-147600000D02*
X125625000Y-147625000D01*
X127925000Y-147450000D02*
X126975000Y-147450000D01*
X126975000Y-147450000D02*
X126825000Y-147600000D01*
X127925000Y-145925000D02*
X127925000Y-147450000D01*
X127875000Y-144400000D02*
X127875000Y-145875000D01*
X127875000Y-145875000D02*
X127925000Y-145925000D01*
X126925000Y-144350000D02*
X127825000Y-144350000D01*
X127825000Y-144350000D02*
X127875000Y-144400000D01*
X125925000Y-144400000D02*
X126875000Y-144400000D01*
X126875000Y-144400000D02*
X126925000Y-144350000D01*
X124450000Y-144450000D02*
X125875000Y-144450000D01*
X125875000Y-144450000D02*
X125925000Y-144400000D01*
X123850000Y-143625000D02*
X123850000Y-143850000D01*
X123850000Y-143850000D02*
X124450000Y-144450000D01*
X123800000Y-142500000D02*
X123800000Y-143575000D01*
X123800000Y-143575000D02*
X123850000Y-143625000D01*
X123100000Y-141500000D02*
X123100000Y-141800000D01*
X123100000Y-141800000D02*
X123800000Y-142500000D01*
X124250000Y-141475000D02*
X123125000Y-141475000D01*
X123125000Y-141475000D02*
X123100000Y-141500000D01*
X125550000Y-141500000D02*
X124275000Y-141500000D01*
X124275000Y-141500000D02*
X124250000Y-141475000D01*
X126575000Y-141575000D02*
X125625000Y-141575000D01*
X125625000Y-141575000D02*
X125550000Y-141500000D01*
X127850000Y-141475000D02*
X126675000Y-141475000D01*
X126675000Y-141475000D02*
X126575000Y-141575000D01*
X127825000Y-138425000D02*
X127825000Y-141450000D01*
X127825000Y-141450000D02*
X127850000Y-141475000D01*
X126625000Y-138425000D02*
X127825000Y-138425000D01*
X125550000Y-138375000D02*
X126575000Y-138375000D01*
X126575000Y-138375000D02*
X126625000Y-138425000D01*
X124375000Y-138375000D02*
X125550000Y-138375000D01*
X123875000Y-137250000D02*
X123875000Y-137875000D01*
X123875000Y-137875000D02*
X124375000Y-138375000D01*
X123900000Y-136225000D02*
X123900000Y-137225000D01*
X123900000Y-137225000D02*
X123875000Y-137250000D01*
X124475000Y-135625000D02*
X124475000Y-135650000D01*
X124475000Y-135650000D02*
X123900000Y-136225000D01*
X125650000Y-135625000D02*
X124475000Y-135625000D01*
X126750000Y-135625000D02*
X125650000Y-135625000D01*
X127875000Y-135575000D02*
X126800000Y-135575000D01*
X126800000Y-135575000D02*
X126750000Y-135625000D01*
X127875000Y-132400000D02*
X127875000Y-135575000D01*
X126725000Y-132425000D02*
X127850000Y-132425000D01*
X127850000Y-132425000D02*
X127875000Y-132400000D01*
X125625000Y-132375000D02*
X126675000Y-132375000D01*
X126675000Y-132375000D02*
X126725000Y-132425000D01*
X124350000Y-132450000D02*
X125550000Y-132450000D01*
X125550000Y-132450000D02*
X125625000Y-132375000D01*
X123800000Y-131400000D02*
X123800000Y-131900000D01*
X123800000Y-131900000D02*
X124350000Y-132450000D01*
X123750000Y-130475000D02*
X123750000Y-131350000D01*
X123750000Y-131350000D02*
X123800000Y-131400000D01*
X123950000Y-129675000D02*
X123950000Y-130275000D01*
X123950000Y-130275000D02*
X123750000Y-130475000D01*
X125525000Y-129575000D02*
X124050000Y-129575000D01*
X124050000Y-129575000D02*
X123950000Y-129675000D01*
X126725000Y-129475000D02*
X125625000Y-129475000D01*
X125625000Y-129475000D02*
X125525000Y-129575000D01*
X127875000Y-129500000D02*
X126750000Y-129500000D01*
X126750000Y-129500000D02*
X126725000Y-129475000D01*
X127875000Y-126475000D02*
X127875000Y-129500000D01*
X126650000Y-126475000D02*
X127875000Y-126475000D01*
X125475000Y-126475000D02*
X126650000Y-126475000D01*
X124300000Y-126750000D02*
X125200000Y-126750000D01*
X125200000Y-126750000D02*
X125475000Y-126475000D01*
X123900000Y-125475000D02*
X123900000Y-126350000D01*
X123900000Y-126350000D02*
X124300000Y-126750000D01*
X123900000Y-124475000D02*
X123900000Y-125475000D01*
X124375000Y-123675000D02*
X124375000Y-124000000D01*
X124375000Y-124000000D02*
X123900000Y-124475000D01*
X125550000Y-123675000D02*
X124375000Y-123675000D01*
X126700000Y-123675000D02*
X125550000Y-123675000D01*
X127900000Y-123650000D02*
X126725000Y-123650000D01*
X126725000Y-123650000D02*
X126700000Y-123675000D01*
X127900000Y-120325000D02*
X127900000Y-123650000D01*
X123875000Y-112225000D02*
X123875000Y-113375000D01*
X123875000Y-113375000D02*
X123900000Y-113400000D01*
X124550000Y-111675000D02*
X124425000Y-111675000D01*
X124425000Y-111675000D02*
X123875000Y-112225000D01*
X126100000Y-111650000D02*
X124575000Y-111650000D01*
X124575000Y-111650000D02*
X124550000Y-111675000D01*
X127175000Y-111675000D02*
X126125000Y-111675000D01*
X126125000Y-111675000D02*
X126100000Y-111650000D01*
X128000000Y-111675000D02*
X127175000Y-111675000D01*
X128000000Y-114575000D02*
X128000000Y-111675000D01*
X127200000Y-114575000D02*
X128000000Y-114575000D01*
X126150000Y-114550000D02*
X127175000Y-114550000D01*
X127175000Y-114550000D02*
X127200000Y-114575000D01*
X125100000Y-114750000D02*
X125950000Y-114750000D01*
X125950000Y-114750000D02*
X126150000Y-114550000D01*
X123975000Y-114825000D02*
X125025000Y-114825000D01*
X125025000Y-114825000D02*
X125100000Y-114750000D01*
X123400000Y-114200000D02*
X123400000Y-114250000D01*
X123400000Y-114250000D02*
X123975000Y-114825000D01*
X122200000Y-113900000D02*
X123100000Y-113900000D01*
X123100000Y-113900000D02*
X123400000Y-114200000D01*
X123950000Y-119675000D02*
X123950000Y-118550000D01*
X123950000Y-118550000D02*
X123925000Y-118525000D01*
X124450000Y-120300000D02*
X124450000Y-120175000D01*
X124450000Y-120175000D02*
X123950000Y-119675000D01*
X125675000Y-120300000D02*
X124450000Y-120300000D01*
X126775000Y-120300000D02*
X125675000Y-120300000D01*
X127900000Y-120325000D02*
X126800000Y-120325000D01*
X126800000Y-120325000D02*
X126775000Y-120300000D01*
X127900000Y-117425000D02*
X127900000Y-120325000D01*
X126750000Y-117425000D02*
X127900000Y-117425000D01*
X125550000Y-117450000D02*
X126725000Y-117450000D01*
X126725000Y-117450000D02*
X126750000Y-117425000D01*
X124450000Y-117200000D02*
X125300000Y-117200000D01*
X125300000Y-117200000D02*
X125550000Y-117450000D01*
X123550000Y-117225000D02*
X124425000Y-117225000D01*
X124425000Y-117225000D02*
X124450000Y-117200000D01*
X122900000Y-117800000D02*
X122975000Y-117800000D01*
X122975000Y-117800000D02*
X123550000Y-117225000D01*
X122200000Y-117450000D02*
X122550000Y-117450000D01*
X122550000Y-117450000D02*
X122900000Y-117800000D01*
D15*
G36*
X128598000Y-156098000D02*
X97402000Y-156098000D01*
X97402000Y-151496288D01*
X121987902Y-151496288D01*
X122074041Y-151704760D01*
X122233401Y-151864399D01*
X122441722Y-151950901D01*
X122667288Y-151951098D01*
X122875760Y-151864959D01*
X123035399Y-151705599D01*
X123121901Y-151497278D01*
X123122098Y-151271712D01*
X123035959Y-151063240D01*
X122876599Y-150903601D01*
X122668278Y-150817099D01*
X122442712Y-150816902D01*
X122234240Y-150903041D01*
X122074601Y-151062401D01*
X121988099Y-151270722D01*
X121987902Y-151496288D01*
X97402000Y-151496288D01*
X97402000Y-150988288D01*
X114748902Y-150988288D01*
X114835041Y-151196760D01*
X114994401Y-151356399D01*
X115202722Y-151442901D01*
X115428288Y-151443098D01*
X115636760Y-151356959D01*
X115796399Y-151197599D01*
X115882901Y-150989278D01*
X115883098Y-150763712D01*
X115796959Y-150555240D01*
X115637599Y-150395601D01*
X115429278Y-150309099D01*
X115203712Y-150308902D01*
X114995240Y-150395041D01*
X114835601Y-150554401D01*
X114749099Y-150762722D01*
X114748902Y-150988288D01*
X97402000Y-150988288D01*
X97402000Y-147562288D01*
X121932902Y-147562288D01*
X122019041Y-147770760D01*
X122178401Y-147930399D01*
X122386722Y-148016901D01*
X122612288Y-148017098D01*
X122820760Y-147930959D01*
X122980399Y-147771599D01*
X123066901Y-147563278D01*
X123067098Y-147337712D01*
X122980959Y-147129240D01*
X122821599Y-146969601D01*
X122613278Y-146883099D01*
X122387712Y-146882902D01*
X122179240Y-146969041D01*
X122019601Y-147128401D01*
X121933099Y-147336722D01*
X121932902Y-147562288D01*
X97402000Y-147562288D01*
X97402000Y-145637288D01*
X111307902Y-145637288D01*
X111394041Y-145845760D01*
X111553401Y-146005399D01*
X111761722Y-146091901D01*
X111987288Y-146092098D01*
X112195760Y-146005959D01*
X112355399Y-145846599D01*
X112441901Y-145638278D01*
X112442098Y-145412712D01*
X112355959Y-145204240D01*
X112196599Y-145044601D01*
X111988278Y-144958099D01*
X111762712Y-144957902D01*
X111554240Y-145044041D01*
X111394601Y-145203401D01*
X111308099Y-145411722D01*
X111307902Y-145637288D01*
X97402000Y-145637288D01*
X97402000Y-144812288D01*
X120157902Y-144812288D01*
X120244041Y-145020760D01*
X120403401Y-145180399D01*
X120611722Y-145266901D01*
X120837288Y-145267098D01*
X121045760Y-145180959D01*
X121205399Y-145021599D01*
X121291901Y-144813278D01*
X121292098Y-144587712D01*
X121205959Y-144379240D01*
X121046599Y-144219601D01*
X120838278Y-144133099D01*
X120612712Y-144132902D01*
X120404240Y-144219041D01*
X120244601Y-144378401D01*
X120158099Y-144586722D01*
X120157902Y-144812288D01*
X97402000Y-144812288D01*
X97402000Y-143312288D01*
X117682902Y-143312288D01*
X117769041Y-143520760D01*
X117928401Y-143680399D01*
X118136722Y-143766901D01*
X118362288Y-143767098D01*
X118570760Y-143680959D01*
X118730399Y-143521599D01*
X118755119Y-143462066D01*
X118769041Y-143495760D01*
X118928401Y-143655399D01*
X119136722Y-143741901D01*
X119362288Y-143742098D01*
X119570760Y-143655959D01*
X119730399Y-143496599D01*
X119816901Y-143288278D01*
X119817098Y-143062712D01*
X119730959Y-142854240D01*
X119571599Y-142694601D01*
X119363278Y-142608099D01*
X119137712Y-142607902D01*
X118929240Y-142694041D01*
X118769601Y-142853401D01*
X118744881Y-142912934D01*
X118730959Y-142879240D01*
X118571599Y-142719601D01*
X118363278Y-142633099D01*
X118137712Y-142632902D01*
X117929240Y-142719041D01*
X117769601Y-142878401D01*
X117683099Y-143086722D01*
X117682902Y-143312288D01*
X97402000Y-143312288D01*
X97402000Y-137907288D01*
X115002902Y-137907288D01*
X115089041Y-138115760D01*
X115248401Y-138275399D01*
X115456722Y-138361901D01*
X115682288Y-138362098D01*
X115860921Y-138288288D01*
X121987902Y-138288288D01*
X122074041Y-138496760D01*
X122233401Y-138656399D01*
X122441722Y-138742901D01*
X122667288Y-138743098D01*
X122875760Y-138656959D01*
X123035399Y-138497599D01*
X123121901Y-138289278D01*
X123122098Y-138063712D01*
X123035959Y-137855240D01*
X122876599Y-137695601D01*
X122668278Y-137609099D01*
X122442712Y-137608902D01*
X122234240Y-137695041D01*
X122074601Y-137854401D01*
X121988099Y-138062722D01*
X121987902Y-138288288D01*
X115860921Y-138288288D01*
X115890760Y-138275959D01*
X116050399Y-138116599D01*
X116136901Y-137908278D01*
X116137098Y-137682712D01*
X116050959Y-137474240D01*
X115891599Y-137314601D01*
X115683278Y-137228099D01*
X115457712Y-137227902D01*
X115249240Y-137314041D01*
X115089601Y-137473401D01*
X115003099Y-137681722D01*
X115002902Y-137907288D01*
X97402000Y-137907288D01*
X97402000Y-135112288D01*
X121932902Y-135112288D01*
X122019041Y-135320760D01*
X122178401Y-135480399D01*
X122386722Y-135566901D01*
X122612288Y-135567098D01*
X122820760Y-135480959D01*
X122980399Y-135321599D01*
X123066901Y-135113278D01*
X123067098Y-134887712D01*
X122980959Y-134679240D01*
X122821599Y-134519601D01*
X122613278Y-134433099D01*
X122387712Y-134432902D01*
X122179240Y-134519041D01*
X122019601Y-134678401D01*
X121933099Y-134886722D01*
X121932902Y-135112288D01*
X97402000Y-135112288D01*
X97402000Y-132362288D01*
X120157902Y-132362288D01*
X120244041Y-132570760D01*
X120403401Y-132730399D01*
X120611722Y-132816901D01*
X120837288Y-132817098D01*
X121045760Y-132730959D01*
X121205399Y-132571599D01*
X121291901Y-132363278D01*
X121292098Y-132137712D01*
X121205959Y-131929240D01*
X121046599Y-131769601D01*
X120838278Y-131683099D01*
X120612712Y-131682902D01*
X120404240Y-131769041D01*
X120244601Y-131928401D01*
X120158099Y-132136722D01*
X120157902Y-132362288D01*
X97402000Y-132362288D01*
X97402000Y-131212288D01*
X111607902Y-131212288D01*
X111694041Y-131420760D01*
X111853401Y-131580399D01*
X112061722Y-131666901D01*
X112287288Y-131667098D01*
X112359433Y-131637288D01*
X119232902Y-131637288D01*
X119319041Y-131845760D01*
X119478401Y-132005399D01*
X119686722Y-132091901D01*
X119912288Y-132092098D01*
X120120760Y-132005959D01*
X120280399Y-131846599D01*
X120366901Y-131638278D01*
X120367098Y-131412712D01*
X120337912Y-131342077D01*
X120362288Y-131342098D01*
X120570760Y-131255959D01*
X120730399Y-131096599D01*
X120816901Y-130888278D01*
X120817098Y-130662712D01*
X120730959Y-130454240D01*
X120571599Y-130294601D01*
X120363278Y-130208099D01*
X120137712Y-130207902D01*
X119929240Y-130294041D01*
X119769601Y-130453401D01*
X119683099Y-130661722D01*
X119682902Y-130887288D01*
X119712088Y-130957923D01*
X119687712Y-130957902D01*
X119479240Y-131044041D01*
X119319601Y-131203401D01*
X119233099Y-131411722D01*
X119232902Y-131637288D01*
X112359433Y-131637288D01*
X112495760Y-131580959D01*
X112655399Y-131421599D01*
X112741901Y-131213278D01*
X112742098Y-130987712D01*
X112690274Y-130862288D01*
X116682902Y-130862288D01*
X116769041Y-131070760D01*
X116928401Y-131230399D01*
X117136722Y-131316901D01*
X117362288Y-131317098D01*
X117570760Y-131230959D01*
X117730399Y-131071599D01*
X117816901Y-130863278D01*
X117817098Y-130637712D01*
X117730959Y-130429240D01*
X117571599Y-130269601D01*
X117363278Y-130183099D01*
X117137712Y-130182902D01*
X116929240Y-130269041D01*
X116769601Y-130428401D01*
X116683099Y-130636722D01*
X116682902Y-130862288D01*
X112690274Y-130862288D01*
X112655959Y-130779240D01*
X112496599Y-130619601D01*
X112288278Y-130533099D01*
X112062712Y-130532902D01*
X111854240Y-130619041D01*
X111694601Y-130778401D01*
X111608099Y-130986722D01*
X111607902Y-131212288D01*
X97402000Y-131212288D01*
X97402000Y-126096288D01*
X115002902Y-126096288D01*
X115089041Y-126304760D01*
X115248401Y-126464399D01*
X115456722Y-126550901D01*
X115682288Y-126551098D01*
X115860921Y-126477288D01*
X122114902Y-126477288D01*
X122201041Y-126685760D01*
X122360401Y-126845399D01*
X122568722Y-126931901D01*
X122794288Y-126932098D01*
X123002760Y-126845959D01*
X123162399Y-126686599D01*
X123248901Y-126478278D01*
X123249098Y-126252712D01*
X123162959Y-126044240D01*
X123003599Y-125884601D01*
X122795278Y-125798099D01*
X122569712Y-125797902D01*
X122361240Y-125884041D01*
X122201601Y-126043401D01*
X122115099Y-126251722D01*
X122114902Y-126477288D01*
X115860921Y-126477288D01*
X115890760Y-126464959D01*
X116050399Y-126305599D01*
X116136901Y-126097278D01*
X116137098Y-125871712D01*
X116050959Y-125663240D01*
X115891599Y-125503601D01*
X115683278Y-125417099D01*
X115457712Y-125416902D01*
X115249240Y-125503041D01*
X115089601Y-125662401D01*
X115003099Y-125870722D01*
X115002902Y-126096288D01*
X97402000Y-126096288D01*
X97402000Y-121537288D01*
X111932902Y-121537288D01*
X112019041Y-121745760D01*
X112178401Y-121905399D01*
X112386722Y-121991901D01*
X112612288Y-121992098D01*
X112820760Y-121905959D01*
X112980399Y-121746599D01*
X113066901Y-121538278D01*
X113067098Y-121312712D01*
X112980959Y-121104240D01*
X112821599Y-120944601D01*
X112613278Y-120858099D01*
X112387712Y-120857902D01*
X112179240Y-120944041D01*
X112019601Y-121103401D01*
X111933099Y-121311722D01*
X111932902Y-121537288D01*
X97402000Y-121537288D01*
X97402000Y-119540000D01*
X97799941Y-119540000D01*
X97889535Y-119990418D01*
X98144676Y-120372265D01*
X98526523Y-120627406D01*
X98976941Y-120717000D01*
X99023059Y-120717000D01*
X99423796Y-120637288D01*
X120182902Y-120637288D01*
X120269041Y-120845760D01*
X120428401Y-121005399D01*
X120636722Y-121091901D01*
X120862288Y-121092098D01*
X121070760Y-121005959D01*
X121230399Y-120846599D01*
X121316901Y-120638278D01*
X121316967Y-120562288D01*
X121932902Y-120562288D01*
X122019041Y-120770760D01*
X122178401Y-120930399D01*
X122386722Y-121016901D01*
X122612288Y-121017098D01*
X122820760Y-120930959D01*
X122980399Y-120771599D01*
X123066901Y-120563278D01*
X123067098Y-120337712D01*
X122980959Y-120129240D01*
X122821599Y-119969601D01*
X122613278Y-119883099D01*
X122387712Y-119882902D01*
X122179240Y-119969041D01*
X122019601Y-120128401D01*
X121933099Y-120336722D01*
X121932902Y-120562288D01*
X121316967Y-120562288D01*
X121317098Y-120412712D01*
X121230959Y-120204240D01*
X121089980Y-120063014D01*
X121191760Y-120020959D01*
X121351399Y-119861599D01*
X121437901Y-119653278D01*
X121438098Y-119427712D01*
X121351959Y-119219240D01*
X121192599Y-119059601D01*
X120984278Y-118973099D01*
X120758712Y-118972902D01*
X120550240Y-119059041D01*
X120390601Y-119218401D01*
X120304099Y-119426722D01*
X120303902Y-119652288D01*
X120390041Y-119860760D01*
X120531020Y-120001986D01*
X120429240Y-120044041D01*
X120269601Y-120203401D01*
X120183099Y-120411722D01*
X120182902Y-120637288D01*
X99423796Y-120637288D01*
X99473477Y-120627406D01*
X99855324Y-120372265D01*
X100110465Y-119990418D01*
X100200059Y-119540000D01*
X100164710Y-119362288D01*
X116432902Y-119362288D01*
X116519041Y-119570760D01*
X116678401Y-119730399D01*
X116886722Y-119816901D01*
X117112288Y-119817098D01*
X117320760Y-119730959D01*
X117480399Y-119571599D01*
X117566901Y-119363278D01*
X117567098Y-119137712D01*
X117480959Y-118929240D01*
X117321599Y-118769601D01*
X117113278Y-118683099D01*
X116887712Y-118682902D01*
X116679240Y-118769041D01*
X116519601Y-118928401D01*
X116433099Y-119136722D01*
X116432902Y-119362288D01*
X100164710Y-119362288D01*
X100110465Y-119089582D01*
X99958593Y-118862288D01*
X105632902Y-118862288D01*
X105719041Y-119070760D01*
X105878401Y-119230399D01*
X106086722Y-119316901D01*
X106312288Y-119317098D01*
X106520760Y-119230959D01*
X106680399Y-119071599D01*
X106766901Y-118863278D01*
X106767098Y-118637712D01*
X106680959Y-118429240D01*
X106521599Y-118269601D01*
X106313278Y-118183099D01*
X106087712Y-118182902D01*
X105879240Y-118269041D01*
X105719601Y-118428401D01*
X105633099Y-118636722D01*
X105632902Y-118862288D01*
X99958593Y-118862288D01*
X99855324Y-118707735D01*
X99473477Y-118452594D01*
X99023059Y-118363000D01*
X98976941Y-118363000D01*
X98526523Y-118452594D01*
X98144676Y-118707735D01*
X97889535Y-119089582D01*
X97799941Y-119540000D01*
X97402000Y-119540000D01*
X97402000Y-117000000D01*
X97799941Y-117000000D01*
X97889535Y-117450418D01*
X98144676Y-117832265D01*
X98526523Y-118087406D01*
X98976941Y-118177000D01*
X99023059Y-118177000D01*
X99473477Y-118087406D01*
X99810391Y-117862288D01*
X106682902Y-117862288D01*
X106769041Y-118070760D01*
X106928401Y-118230399D01*
X107136722Y-118316901D01*
X107362288Y-118317098D01*
X107394384Y-118303836D01*
X107269601Y-118428401D01*
X107183099Y-118636722D01*
X107182902Y-118862288D01*
X107269041Y-119070760D01*
X107428401Y-119230399D01*
X107636722Y-119316901D01*
X107862288Y-119317098D01*
X108070760Y-119230959D01*
X108230399Y-119071599D01*
X108316901Y-118863278D01*
X108317098Y-118637712D01*
X108230959Y-118429240D01*
X108071599Y-118269601D01*
X107863278Y-118183099D01*
X107637712Y-118182902D01*
X107605616Y-118196164D01*
X107730399Y-118071599D01*
X107816901Y-117863278D01*
X107817098Y-117637712D01*
X107730959Y-117429240D01*
X107571599Y-117269601D01*
X107363278Y-117183099D01*
X107137712Y-117182902D01*
X106929240Y-117269041D01*
X106769601Y-117428401D01*
X106683099Y-117636722D01*
X106682902Y-117862288D01*
X99810391Y-117862288D01*
X99855324Y-117832265D01*
X100110465Y-117450418D01*
X100200059Y-117000000D01*
X100110465Y-116549582D01*
X99985320Y-116362288D01*
X105182902Y-116362288D01*
X105269041Y-116570760D01*
X105428401Y-116730399D01*
X105636722Y-116816901D01*
X105862288Y-116817098D01*
X106070760Y-116730959D01*
X106230399Y-116571599D01*
X106316901Y-116363278D01*
X106317098Y-116137712D01*
X106230959Y-115929240D01*
X106071599Y-115769601D01*
X105863278Y-115683099D01*
X105637712Y-115682902D01*
X105429240Y-115769041D01*
X105269601Y-115928401D01*
X105183099Y-116136722D01*
X105182902Y-116362288D01*
X99985320Y-116362288D01*
X99855324Y-116167735D01*
X99473477Y-115912594D01*
X99023059Y-115823000D01*
X98976941Y-115823000D01*
X98526523Y-115912594D01*
X98144676Y-116167735D01*
X97889535Y-116549582D01*
X97799941Y-117000000D01*
X97402000Y-117000000D01*
X97402000Y-113610000D01*
X97816594Y-113610000D01*
X97816594Y-115310000D01*
X97839395Y-115431179D01*
X97911012Y-115542474D01*
X98020286Y-115617138D01*
X98150000Y-115643406D01*
X99850000Y-115643406D01*
X99971179Y-115620605D01*
X100082474Y-115548988D01*
X100157138Y-115439714D01*
X100183406Y-115310000D01*
X100183406Y-114996488D01*
X121759302Y-114996488D01*
X121845441Y-115204960D01*
X122004801Y-115364599D01*
X122213122Y-115451101D01*
X122438688Y-115451298D01*
X122647160Y-115365159D01*
X122806799Y-115205799D01*
X122893301Y-114997478D01*
X122893498Y-114771912D01*
X122807359Y-114563440D01*
X122647999Y-114403801D01*
X122439678Y-114317299D01*
X122214112Y-114317102D01*
X122005640Y-114403241D01*
X121846001Y-114562601D01*
X121759499Y-114770922D01*
X121759302Y-114996488D01*
X100183406Y-114996488D01*
X100183406Y-114487288D01*
X114882902Y-114487288D01*
X114969041Y-114695760D01*
X115128401Y-114855399D01*
X115336722Y-114941901D01*
X115562288Y-114942098D01*
X115770760Y-114855959D01*
X115930399Y-114696599D01*
X116016901Y-114488278D01*
X116017098Y-114262712D01*
X115930959Y-114054240D01*
X115771599Y-113894601D01*
X115563278Y-113808099D01*
X115337712Y-113807902D01*
X115129240Y-113894041D01*
X114969601Y-114053401D01*
X114883099Y-114261722D01*
X114882902Y-114487288D01*
X100183406Y-114487288D01*
X100183406Y-113610000D01*
X100160605Y-113488821D01*
X100088988Y-113377526D01*
X99979714Y-113302862D01*
X99850000Y-113276594D01*
X98150000Y-113276594D01*
X98028821Y-113299395D01*
X97917526Y-113371012D01*
X97842862Y-113480286D01*
X97816594Y-113610000D01*
X97402000Y-113610000D01*
X97402000Y-109902000D01*
X128598000Y-109902000D01*
X128598000Y-156098000D01*
X128598000Y-156098000D01*
G37*
X128598000Y-156098000D02*
X97402000Y-156098000D01*
X97402000Y-151496288D01*
X121987902Y-151496288D01*
X122074041Y-151704760D01*
X122233401Y-151864399D01*
X122441722Y-151950901D01*
X122667288Y-151951098D01*
X122875760Y-151864959D01*
X123035399Y-151705599D01*
X123121901Y-151497278D01*
X123122098Y-151271712D01*
X123035959Y-151063240D01*
X122876599Y-150903601D01*
X122668278Y-150817099D01*
X122442712Y-150816902D01*
X122234240Y-150903041D01*
X122074601Y-151062401D01*
X121988099Y-151270722D01*
X121987902Y-151496288D01*
X97402000Y-151496288D01*
X97402000Y-150988288D01*
X114748902Y-150988288D01*
X114835041Y-151196760D01*
X114994401Y-151356399D01*
X115202722Y-151442901D01*
X115428288Y-151443098D01*
X115636760Y-151356959D01*
X115796399Y-151197599D01*
X115882901Y-150989278D01*
X115883098Y-150763712D01*
X115796959Y-150555240D01*
X115637599Y-150395601D01*
X115429278Y-150309099D01*
X115203712Y-150308902D01*
X114995240Y-150395041D01*
X114835601Y-150554401D01*
X114749099Y-150762722D01*
X114748902Y-150988288D01*
X97402000Y-150988288D01*
X97402000Y-147562288D01*
X121932902Y-147562288D01*
X122019041Y-147770760D01*
X122178401Y-147930399D01*
X122386722Y-148016901D01*
X122612288Y-148017098D01*
X122820760Y-147930959D01*
X122980399Y-147771599D01*
X123066901Y-147563278D01*
X123067098Y-147337712D01*
X122980959Y-147129240D01*
X122821599Y-146969601D01*
X122613278Y-146883099D01*
X122387712Y-146882902D01*
X122179240Y-146969041D01*
X122019601Y-147128401D01*
X121933099Y-147336722D01*
X121932902Y-147562288D01*
X97402000Y-147562288D01*
X97402000Y-145637288D01*
X111307902Y-145637288D01*
X111394041Y-145845760D01*
X111553401Y-146005399D01*
X111761722Y-146091901D01*
X111987288Y-146092098D01*
X112195760Y-146005959D01*
X112355399Y-145846599D01*
X112441901Y-145638278D01*
X112442098Y-145412712D01*
X112355959Y-145204240D01*
X112196599Y-145044601D01*
X111988278Y-144958099D01*
X111762712Y-144957902D01*
X111554240Y-145044041D01*
X111394601Y-145203401D01*
X111308099Y-145411722D01*
X111307902Y-145637288D01*
X97402000Y-145637288D01*
X97402000Y-144812288D01*
X120157902Y-144812288D01*
X120244041Y-145020760D01*
X120403401Y-145180399D01*
X120611722Y-145266901D01*
X120837288Y-145267098D01*
X121045760Y-145180959D01*
X121205399Y-145021599D01*
X121291901Y-144813278D01*
X121292098Y-144587712D01*
X121205959Y-144379240D01*
X121046599Y-144219601D01*
X120838278Y-144133099D01*
X120612712Y-144132902D01*
X120404240Y-144219041D01*
X120244601Y-144378401D01*
X120158099Y-144586722D01*
X120157902Y-144812288D01*
X97402000Y-144812288D01*
X97402000Y-143312288D01*
X117682902Y-143312288D01*
X117769041Y-143520760D01*
X117928401Y-143680399D01*
X118136722Y-143766901D01*
X118362288Y-143767098D01*
X118570760Y-143680959D01*
X118730399Y-143521599D01*
X118755119Y-143462066D01*
X118769041Y-143495760D01*
X118928401Y-143655399D01*
X119136722Y-143741901D01*
X119362288Y-143742098D01*
X119570760Y-143655959D01*
X119730399Y-143496599D01*
X119816901Y-143288278D01*
X119817098Y-143062712D01*
X119730959Y-142854240D01*
X119571599Y-142694601D01*
X119363278Y-142608099D01*
X119137712Y-142607902D01*
X118929240Y-142694041D01*
X118769601Y-142853401D01*
X118744881Y-142912934D01*
X118730959Y-142879240D01*
X118571599Y-142719601D01*
X118363278Y-142633099D01*
X118137712Y-142632902D01*
X117929240Y-142719041D01*
X117769601Y-142878401D01*
X117683099Y-143086722D01*
X117682902Y-143312288D01*
X97402000Y-143312288D01*
X97402000Y-137907288D01*
X115002902Y-137907288D01*
X115089041Y-138115760D01*
X115248401Y-138275399D01*
X115456722Y-138361901D01*
X115682288Y-138362098D01*
X115860921Y-138288288D01*
X121987902Y-138288288D01*
X122074041Y-138496760D01*
X122233401Y-138656399D01*
X122441722Y-138742901D01*
X122667288Y-138743098D01*
X122875760Y-138656959D01*
X123035399Y-138497599D01*
X123121901Y-138289278D01*
X123122098Y-138063712D01*
X123035959Y-137855240D01*
X122876599Y-137695601D01*
X122668278Y-137609099D01*
X122442712Y-137608902D01*
X122234240Y-137695041D01*
X122074601Y-137854401D01*
X121988099Y-138062722D01*
X121987902Y-138288288D01*
X115860921Y-138288288D01*
X115890760Y-138275959D01*
X116050399Y-138116599D01*
X116136901Y-137908278D01*
X116137098Y-137682712D01*
X116050959Y-137474240D01*
X115891599Y-137314601D01*
X115683278Y-137228099D01*
X115457712Y-137227902D01*
X115249240Y-137314041D01*
X115089601Y-137473401D01*
X115003099Y-137681722D01*
X115002902Y-137907288D01*
X97402000Y-137907288D01*
X97402000Y-135112288D01*
X121932902Y-135112288D01*
X122019041Y-135320760D01*
X122178401Y-135480399D01*
X122386722Y-135566901D01*
X122612288Y-135567098D01*
X122820760Y-135480959D01*
X122980399Y-135321599D01*
X123066901Y-135113278D01*
X123067098Y-134887712D01*
X122980959Y-134679240D01*
X122821599Y-134519601D01*
X122613278Y-134433099D01*
X122387712Y-134432902D01*
X122179240Y-134519041D01*
X122019601Y-134678401D01*
X121933099Y-134886722D01*
X121932902Y-135112288D01*
X97402000Y-135112288D01*
X97402000Y-132362288D01*
X120157902Y-132362288D01*
X120244041Y-132570760D01*
X120403401Y-132730399D01*
X120611722Y-132816901D01*
X120837288Y-132817098D01*
X121045760Y-132730959D01*
X121205399Y-132571599D01*
X121291901Y-132363278D01*
X121292098Y-132137712D01*
X121205959Y-131929240D01*
X121046599Y-131769601D01*
X120838278Y-131683099D01*
X120612712Y-131682902D01*
X120404240Y-131769041D01*
X120244601Y-131928401D01*
X120158099Y-132136722D01*
X120157902Y-132362288D01*
X97402000Y-132362288D01*
X97402000Y-131212288D01*
X111607902Y-131212288D01*
X111694041Y-131420760D01*
X111853401Y-131580399D01*
X112061722Y-131666901D01*
X112287288Y-131667098D01*
X112359433Y-131637288D01*
X119232902Y-131637288D01*
X119319041Y-131845760D01*
X119478401Y-132005399D01*
X119686722Y-132091901D01*
X119912288Y-132092098D01*
X120120760Y-132005959D01*
X120280399Y-131846599D01*
X120366901Y-131638278D01*
X120367098Y-131412712D01*
X120337912Y-131342077D01*
X120362288Y-131342098D01*
X120570760Y-131255959D01*
X120730399Y-131096599D01*
X120816901Y-130888278D01*
X120817098Y-130662712D01*
X120730959Y-130454240D01*
X120571599Y-130294601D01*
X120363278Y-130208099D01*
X120137712Y-130207902D01*
X119929240Y-130294041D01*
X119769601Y-130453401D01*
X119683099Y-130661722D01*
X119682902Y-130887288D01*
X119712088Y-130957923D01*
X119687712Y-130957902D01*
X119479240Y-131044041D01*
X119319601Y-131203401D01*
X119233099Y-131411722D01*
X119232902Y-131637288D01*
X112359433Y-131637288D01*
X112495760Y-131580959D01*
X112655399Y-131421599D01*
X112741901Y-131213278D01*
X112742098Y-130987712D01*
X112690274Y-130862288D01*
X116682902Y-130862288D01*
X116769041Y-131070760D01*
X116928401Y-131230399D01*
X117136722Y-131316901D01*
X117362288Y-131317098D01*
X117570760Y-131230959D01*
X117730399Y-131071599D01*
X117816901Y-130863278D01*
X117817098Y-130637712D01*
X117730959Y-130429240D01*
X117571599Y-130269601D01*
X117363278Y-130183099D01*
X117137712Y-130182902D01*
X116929240Y-130269041D01*
X116769601Y-130428401D01*
X116683099Y-130636722D01*
X116682902Y-130862288D01*
X112690274Y-130862288D01*
X112655959Y-130779240D01*
X112496599Y-130619601D01*
X112288278Y-130533099D01*
X112062712Y-130532902D01*
X111854240Y-130619041D01*
X111694601Y-130778401D01*
X111608099Y-130986722D01*
X111607902Y-131212288D01*
X97402000Y-131212288D01*
X97402000Y-126096288D01*
X115002902Y-126096288D01*
X115089041Y-126304760D01*
X115248401Y-126464399D01*
X115456722Y-126550901D01*
X115682288Y-126551098D01*
X115860921Y-126477288D01*
X122114902Y-126477288D01*
X122201041Y-126685760D01*
X122360401Y-126845399D01*
X122568722Y-126931901D01*
X122794288Y-126932098D01*
X123002760Y-126845959D01*
X123162399Y-126686599D01*
X123248901Y-126478278D01*
X123249098Y-126252712D01*
X123162959Y-126044240D01*
X123003599Y-125884601D01*
X122795278Y-125798099D01*
X122569712Y-125797902D01*
X122361240Y-125884041D01*
X122201601Y-126043401D01*
X122115099Y-126251722D01*
X122114902Y-126477288D01*
X115860921Y-126477288D01*
X115890760Y-126464959D01*
X116050399Y-126305599D01*
X116136901Y-126097278D01*
X116137098Y-125871712D01*
X116050959Y-125663240D01*
X115891599Y-125503601D01*
X115683278Y-125417099D01*
X115457712Y-125416902D01*
X115249240Y-125503041D01*
X115089601Y-125662401D01*
X115003099Y-125870722D01*
X115002902Y-126096288D01*
X97402000Y-126096288D01*
X97402000Y-121537288D01*
X111932902Y-121537288D01*
X112019041Y-121745760D01*
X112178401Y-121905399D01*
X112386722Y-121991901D01*
X112612288Y-121992098D01*
X112820760Y-121905959D01*
X112980399Y-121746599D01*
X113066901Y-121538278D01*
X113067098Y-121312712D01*
X112980959Y-121104240D01*
X112821599Y-120944601D01*
X112613278Y-120858099D01*
X112387712Y-120857902D01*
X112179240Y-120944041D01*
X112019601Y-121103401D01*
X111933099Y-121311722D01*
X111932902Y-121537288D01*
X97402000Y-121537288D01*
X97402000Y-119540000D01*
X97799941Y-119540000D01*
X97889535Y-119990418D01*
X98144676Y-120372265D01*
X98526523Y-120627406D01*
X98976941Y-120717000D01*
X99023059Y-120717000D01*
X99423796Y-120637288D01*
X120182902Y-120637288D01*
X120269041Y-120845760D01*
X120428401Y-121005399D01*
X120636722Y-121091901D01*
X120862288Y-121092098D01*
X121070760Y-121005959D01*
X121230399Y-120846599D01*
X121316901Y-120638278D01*
X121316967Y-120562288D01*
X121932902Y-120562288D01*
X122019041Y-120770760D01*
X122178401Y-120930399D01*
X122386722Y-121016901D01*
X122612288Y-121017098D01*
X122820760Y-120930959D01*
X122980399Y-120771599D01*
X123066901Y-120563278D01*
X123067098Y-120337712D01*
X122980959Y-120129240D01*
X122821599Y-119969601D01*
X122613278Y-119883099D01*
X122387712Y-119882902D01*
X122179240Y-119969041D01*
X122019601Y-120128401D01*
X121933099Y-120336722D01*
X121932902Y-120562288D01*
X121316967Y-120562288D01*
X121317098Y-120412712D01*
X121230959Y-120204240D01*
X121089980Y-120063014D01*
X121191760Y-120020959D01*
X121351399Y-119861599D01*
X121437901Y-119653278D01*
X121438098Y-119427712D01*
X121351959Y-119219240D01*
X121192599Y-119059601D01*
X120984278Y-118973099D01*
X120758712Y-118972902D01*
X120550240Y-119059041D01*
X120390601Y-119218401D01*
X120304099Y-119426722D01*
X120303902Y-119652288D01*
X120390041Y-119860760D01*
X120531020Y-120001986D01*
X120429240Y-120044041D01*
X120269601Y-120203401D01*
X120183099Y-120411722D01*
X120182902Y-120637288D01*
X99423796Y-120637288D01*
X99473477Y-120627406D01*
X99855324Y-120372265D01*
X100110465Y-119990418D01*
X100200059Y-119540000D01*
X100164710Y-119362288D01*
X116432902Y-119362288D01*
X116519041Y-119570760D01*
X116678401Y-119730399D01*
X116886722Y-119816901D01*
X117112288Y-119817098D01*
X117320760Y-119730959D01*
X117480399Y-119571599D01*
X117566901Y-119363278D01*
X117567098Y-119137712D01*
X117480959Y-118929240D01*
X117321599Y-118769601D01*
X117113278Y-118683099D01*
X116887712Y-118682902D01*
X116679240Y-118769041D01*
X116519601Y-118928401D01*
X116433099Y-119136722D01*
X116432902Y-119362288D01*
X100164710Y-119362288D01*
X100110465Y-119089582D01*
X99958593Y-118862288D01*
X105632902Y-118862288D01*
X105719041Y-119070760D01*
X105878401Y-119230399D01*
X106086722Y-119316901D01*
X106312288Y-119317098D01*
X106520760Y-119230959D01*
X106680399Y-119071599D01*
X106766901Y-118863278D01*
X106767098Y-118637712D01*
X106680959Y-118429240D01*
X106521599Y-118269601D01*
X106313278Y-118183099D01*
X106087712Y-118182902D01*
X105879240Y-118269041D01*
X105719601Y-118428401D01*
X105633099Y-118636722D01*
X105632902Y-118862288D01*
X99958593Y-118862288D01*
X99855324Y-118707735D01*
X99473477Y-118452594D01*
X99023059Y-118363000D01*
X98976941Y-118363000D01*
X98526523Y-118452594D01*
X98144676Y-118707735D01*
X97889535Y-119089582D01*
X97799941Y-119540000D01*
X97402000Y-119540000D01*
X97402000Y-117000000D01*
X97799941Y-117000000D01*
X97889535Y-117450418D01*
X98144676Y-117832265D01*
X98526523Y-118087406D01*
X98976941Y-118177000D01*
X99023059Y-118177000D01*
X99473477Y-118087406D01*
X99810391Y-117862288D01*
X106682902Y-117862288D01*
X106769041Y-118070760D01*
X106928401Y-118230399D01*
X107136722Y-118316901D01*
X107362288Y-118317098D01*
X107394384Y-118303836D01*
X107269601Y-118428401D01*
X107183099Y-118636722D01*
X107182902Y-118862288D01*
X107269041Y-119070760D01*
X107428401Y-119230399D01*
X107636722Y-119316901D01*
X107862288Y-119317098D01*
X108070760Y-119230959D01*
X108230399Y-119071599D01*
X108316901Y-118863278D01*
X108317098Y-118637712D01*
X108230959Y-118429240D01*
X108071599Y-118269601D01*
X107863278Y-118183099D01*
X107637712Y-118182902D01*
X107605616Y-118196164D01*
X107730399Y-118071599D01*
X107816901Y-117863278D01*
X107817098Y-117637712D01*
X107730959Y-117429240D01*
X107571599Y-117269601D01*
X107363278Y-117183099D01*
X107137712Y-117182902D01*
X106929240Y-117269041D01*
X106769601Y-117428401D01*
X106683099Y-117636722D01*
X106682902Y-117862288D01*
X99810391Y-117862288D01*
X99855324Y-117832265D01*
X100110465Y-117450418D01*
X100200059Y-117000000D01*
X100110465Y-116549582D01*
X99985320Y-116362288D01*
X105182902Y-116362288D01*
X105269041Y-116570760D01*
X105428401Y-116730399D01*
X105636722Y-116816901D01*
X105862288Y-116817098D01*
X106070760Y-116730959D01*
X106230399Y-116571599D01*
X106316901Y-116363278D01*
X106317098Y-116137712D01*
X106230959Y-115929240D01*
X106071599Y-115769601D01*
X105863278Y-115683099D01*
X105637712Y-115682902D01*
X105429240Y-115769041D01*
X105269601Y-115928401D01*
X105183099Y-116136722D01*
X105182902Y-116362288D01*
X99985320Y-116362288D01*
X99855324Y-116167735D01*
X99473477Y-115912594D01*
X99023059Y-115823000D01*
X98976941Y-115823000D01*
X98526523Y-115912594D01*
X98144676Y-116167735D01*
X97889535Y-116549582D01*
X97799941Y-117000000D01*
X97402000Y-117000000D01*
X97402000Y-113610000D01*
X97816594Y-113610000D01*
X97816594Y-115310000D01*
X97839395Y-115431179D01*
X97911012Y-115542474D01*
X98020286Y-115617138D01*
X98150000Y-115643406D01*
X99850000Y-115643406D01*
X99971179Y-115620605D01*
X100082474Y-115548988D01*
X100157138Y-115439714D01*
X100183406Y-115310000D01*
X100183406Y-114996488D01*
X121759302Y-114996488D01*
X121845441Y-115204960D01*
X122004801Y-115364599D01*
X122213122Y-115451101D01*
X122438688Y-115451298D01*
X122647160Y-115365159D01*
X122806799Y-115205799D01*
X122893301Y-114997478D01*
X122893498Y-114771912D01*
X122807359Y-114563440D01*
X122647999Y-114403801D01*
X122439678Y-114317299D01*
X122214112Y-114317102D01*
X122005640Y-114403241D01*
X121846001Y-114562601D01*
X121759499Y-114770922D01*
X121759302Y-114996488D01*
X100183406Y-114996488D01*
X100183406Y-114487288D01*
X114882902Y-114487288D01*
X114969041Y-114695760D01*
X115128401Y-114855399D01*
X115336722Y-114941901D01*
X115562288Y-114942098D01*
X115770760Y-114855959D01*
X115930399Y-114696599D01*
X116016901Y-114488278D01*
X116017098Y-114262712D01*
X115930959Y-114054240D01*
X115771599Y-113894601D01*
X115563278Y-113808099D01*
X115337712Y-113807902D01*
X115129240Y-113894041D01*
X114969601Y-114053401D01*
X114883099Y-114261722D01*
X114882902Y-114487288D01*
X100183406Y-114487288D01*
X100183406Y-113610000D01*
X100160605Y-113488821D01*
X100088988Y-113377526D01*
X99979714Y-113302862D01*
X99850000Y-113276594D01*
X98150000Y-113276594D01*
X98028821Y-113299395D01*
X97917526Y-113371012D01*
X97842862Y-113480286D01*
X97816594Y-113610000D01*
X97402000Y-113610000D01*
X97402000Y-109902000D01*
X128598000Y-109902000D01*
X128598000Y-156098000D01*
M02*
