G04 #@! TF.FileFunction,Copper,L1,Top,Signal*
%FSLAX46Y46*%
G04 Gerber Fmt 4.6, Leading zero omitted, Abs format (unit mm)*
G04 Created by KiCad (PCBNEW 4.0.6-e0-6349~53~ubuntu14.04.1) date Thu Apr 13 01:04:39 2017*
%MOMM*%
%LPD*%
G01*
G04 APERTURE LIST*
%ADD10C,0.100000*%
%ADD11R,3.000000X0.850000*%
%ADD12R,4.500000X2.000000*%
%ADD13R,0.600000X0.500000*%
%ADD14R,0.750000X0.800000*%
%ADD15R,0.800000X0.750000*%
%ADD16R,1.700000X1.700000*%
%ADD17O,1.700000X1.700000*%
%ADD18R,0.500000X0.900000*%
%ADD19R,0.900000X0.500000*%
%ADD20O,0.750000X0.300000*%
%ADD21O,0.300000X0.750000*%
%ADD22R,0.900000X0.900000*%
%ADD23R,0.700000X0.250000*%
%ADD24R,0.250000X0.700000*%
%ADD25R,1.725000X1.725000*%
%ADD26R,0.330000X0.410000*%
%ADD27C,0.480000*%
%ADD28C,0.140000*%
%ADD29C,0.240000*%
%ADD30C,0.480000*%
%ADD31C,0.360000*%
%ADD32C,0.254000*%
G04 APERTURE END LIST*
D10*
D11*
X127250000Y-139975000D03*
D12*
X126500000Y-142950000D03*
X126500000Y-137000000D03*
D11*
X98750000Y-134750000D03*
D12*
X99500000Y-131775000D03*
X99500000Y-137725000D03*
D11*
X127250000Y-151975000D03*
D12*
X126500000Y-154950000D03*
X126500000Y-149000000D03*
D13*
X114550000Y-140258800D03*
X113450000Y-140258800D03*
D14*
X122500000Y-121195400D03*
X122500000Y-122695400D03*
D13*
X114550000Y-116890800D03*
X113450000Y-116890800D03*
D14*
X122500000Y-146723800D03*
X122500000Y-145223800D03*
D13*
X114550000Y-128397000D03*
X113450000Y-128397000D03*
D15*
X105500000Y-118750000D03*
X104000000Y-118750000D03*
D14*
X122500000Y-134250000D03*
X122500000Y-132750000D03*
D13*
X114550000Y-153390600D03*
X113450000Y-153390600D03*
D11*
X127250000Y-116000000D03*
D12*
X126500000Y-118975000D03*
X126500000Y-113025000D03*
D11*
X127250000Y-128000000D03*
D12*
X126500000Y-130975000D03*
X126500000Y-125025000D03*
D16*
X99000000Y-114460000D03*
D17*
X99000000Y-117000000D03*
X99000000Y-119540000D03*
X99000000Y-122080000D03*
D18*
X107000000Y-118750000D03*
X108500000Y-118750000D03*
X108500000Y-120250000D03*
X107000000Y-120250000D03*
X112483200Y-122250200D03*
X113983200Y-122250200D03*
X114008600Y-124206000D03*
X112508600Y-124206000D03*
D19*
X106000000Y-135500000D03*
X106000000Y-134000000D03*
X110000000Y-147350200D03*
X110000000Y-145850200D03*
X110000000Y-123750000D03*
X110000000Y-122250000D03*
X111379000Y-131101400D03*
X111379000Y-132601400D03*
X113334800Y-132601400D03*
X113334800Y-131101400D03*
D18*
X112508600Y-145542000D03*
X114008600Y-145542000D03*
X113996600Y-147243800D03*
X112496600Y-147243800D03*
D20*
X109475000Y-116250000D03*
X109475000Y-115750000D03*
X109475000Y-115250000D03*
X109475000Y-114750000D03*
D21*
X108750000Y-114025000D03*
X108250000Y-114025000D03*
X107750000Y-114025000D03*
X107250000Y-114025000D03*
D20*
X106525000Y-114750000D03*
X106525000Y-115250000D03*
X106525000Y-115750000D03*
X106525000Y-116250000D03*
D21*
X107250000Y-116975000D03*
X107750000Y-116975000D03*
X108250000Y-116975000D03*
X108750000Y-116975000D03*
D22*
X107550000Y-115050000D03*
X107550000Y-115950000D03*
X108450000Y-115050000D03*
X108450000Y-115950000D03*
D23*
X116600000Y-113887500D03*
X116600000Y-114387500D03*
X116600000Y-114887500D03*
X116600000Y-115387500D03*
X116600000Y-115887500D03*
X116600000Y-116387500D03*
X116600000Y-116887500D03*
X116600000Y-117387500D03*
D24*
X117250000Y-118037500D03*
X117750000Y-118037500D03*
X118250000Y-118037500D03*
X118750000Y-118037500D03*
X119250000Y-118037500D03*
X119750000Y-118037500D03*
X120250000Y-118037500D03*
X120750000Y-118037500D03*
D23*
X121400000Y-117387500D03*
X121400000Y-116887500D03*
X121400000Y-116387500D03*
X121400000Y-115887500D03*
X121400000Y-115387500D03*
X121400000Y-114887500D03*
X121400000Y-114387500D03*
X121400000Y-113887500D03*
D24*
X120750000Y-113237500D03*
X120250000Y-113237500D03*
X119750000Y-113237500D03*
X119250000Y-113237500D03*
X118750000Y-113237500D03*
X118250000Y-113237500D03*
X117750000Y-113237500D03*
X117250000Y-113237500D03*
D25*
X119862500Y-116500000D03*
X119862500Y-114775000D03*
X118137500Y-116500000D03*
X118137500Y-114775000D03*
D20*
X117034200Y-120527800D03*
X117034200Y-121027800D03*
X117034200Y-121527800D03*
X117034200Y-122027800D03*
D21*
X117759200Y-122752800D03*
X118259200Y-122752800D03*
X118759200Y-122752800D03*
X119259200Y-122752800D03*
D20*
X119984200Y-122027800D03*
X119984200Y-121527800D03*
X119984200Y-121027800D03*
X119984200Y-120527800D03*
D21*
X119259200Y-119802800D03*
X118759200Y-119802800D03*
X118259200Y-119802800D03*
X117759200Y-119802800D03*
D22*
X118959200Y-121727800D03*
X118959200Y-120827800D03*
X118059200Y-121727800D03*
X118059200Y-120827800D03*
D23*
X116600000Y-125387500D03*
X116600000Y-125887500D03*
X116600000Y-126387500D03*
X116600000Y-126887500D03*
X116600000Y-127387500D03*
X116600000Y-127887500D03*
X116600000Y-128387500D03*
X116600000Y-128887500D03*
D24*
X117250000Y-129537500D03*
X117750000Y-129537500D03*
X118250000Y-129537500D03*
X118750000Y-129537500D03*
X119250000Y-129537500D03*
X119750000Y-129537500D03*
X120250000Y-129537500D03*
X120750000Y-129537500D03*
D23*
X121400000Y-128887500D03*
X121400000Y-128387500D03*
X121400000Y-127887500D03*
X121400000Y-127387500D03*
X121400000Y-126887500D03*
X121400000Y-126387500D03*
X121400000Y-125887500D03*
X121400000Y-125387500D03*
D24*
X120750000Y-124737500D03*
X120250000Y-124737500D03*
X119750000Y-124737500D03*
X119250000Y-124737500D03*
X118750000Y-124737500D03*
X118250000Y-124737500D03*
X117750000Y-124737500D03*
X117250000Y-124737500D03*
D25*
X119862500Y-128000000D03*
X119862500Y-126275000D03*
X118137500Y-128000000D03*
X118137500Y-126275000D03*
D26*
X104500000Y-134750000D03*
X104500000Y-134090000D03*
X104500000Y-135410000D03*
X103500000Y-134750000D03*
X103500000Y-134090000D03*
X103500000Y-135410000D03*
X108000000Y-146500000D03*
X108000000Y-145840000D03*
X108000000Y-147160000D03*
X107000000Y-146500000D03*
X107000000Y-145840000D03*
X107000000Y-147160000D03*
X108000000Y-123000000D03*
X108000000Y-122340000D03*
X108000000Y-123660000D03*
X107000000Y-123000000D03*
X107000000Y-122340000D03*
X107000000Y-123660000D03*
D20*
X117025000Y-132250000D03*
X117025000Y-132750000D03*
X117025000Y-133250000D03*
X117025000Y-133750000D03*
D21*
X117750000Y-134475000D03*
X118250000Y-134475000D03*
X118750000Y-134475000D03*
X119250000Y-134475000D03*
D20*
X119975000Y-133750000D03*
X119975000Y-133250000D03*
X119975000Y-132750000D03*
X119975000Y-132250000D03*
D21*
X119250000Y-131525000D03*
X118750000Y-131525000D03*
X118250000Y-131525000D03*
X117750000Y-131525000D03*
D22*
X118950000Y-133450000D03*
X118950000Y-132550000D03*
X118050000Y-133450000D03*
X118050000Y-132550000D03*
D23*
X116600000Y-137250000D03*
X116600000Y-137750000D03*
X116600000Y-138250000D03*
X116600000Y-138750000D03*
X116600000Y-139250000D03*
X116600000Y-139750000D03*
X116600000Y-140250000D03*
X116600000Y-140750000D03*
D24*
X117250000Y-141400000D03*
X117750000Y-141400000D03*
X118250000Y-141400000D03*
X118750000Y-141400000D03*
X119250000Y-141400000D03*
X119750000Y-141400000D03*
X120250000Y-141400000D03*
X120750000Y-141400000D03*
D23*
X121400000Y-140750000D03*
X121400000Y-140250000D03*
X121400000Y-139750000D03*
X121400000Y-139250000D03*
X121400000Y-138750000D03*
X121400000Y-138250000D03*
X121400000Y-137750000D03*
X121400000Y-137250000D03*
D24*
X120750000Y-136600000D03*
X120250000Y-136600000D03*
X119750000Y-136600000D03*
X119250000Y-136600000D03*
X118750000Y-136600000D03*
X118250000Y-136600000D03*
X117750000Y-136600000D03*
X117250000Y-136600000D03*
D25*
X119862500Y-139862500D03*
X119862500Y-138137500D03*
X118137500Y-139862500D03*
X118137500Y-138137500D03*
D20*
X117025000Y-144700000D03*
X117025000Y-145200000D03*
X117025000Y-145700000D03*
X117025000Y-146200000D03*
D21*
X117750000Y-146925000D03*
X118250000Y-146925000D03*
X118750000Y-146925000D03*
X119250000Y-146925000D03*
D20*
X119975000Y-146200000D03*
X119975000Y-145700000D03*
X119975000Y-145200000D03*
X119975000Y-144700000D03*
D21*
X119250000Y-143975000D03*
X118750000Y-143975000D03*
X118250000Y-143975000D03*
X117750000Y-143975000D03*
D22*
X118950000Y-145900000D03*
X118950000Y-145000000D03*
X118050000Y-145900000D03*
X118050000Y-145000000D03*
D23*
X116600000Y-150387500D03*
X116600000Y-150887500D03*
X116600000Y-151387500D03*
X116600000Y-151887500D03*
X116600000Y-152387500D03*
X116600000Y-152887500D03*
X116600000Y-153387500D03*
X116600000Y-153887500D03*
D24*
X117250000Y-154537500D03*
X117750000Y-154537500D03*
X118250000Y-154537500D03*
X118750000Y-154537500D03*
X119250000Y-154537500D03*
X119750000Y-154537500D03*
X120250000Y-154537500D03*
X120750000Y-154537500D03*
D23*
X121400000Y-153887500D03*
X121400000Y-153387500D03*
X121400000Y-152887500D03*
X121400000Y-152387500D03*
X121400000Y-151887500D03*
X121400000Y-151387500D03*
X121400000Y-150887500D03*
X121400000Y-150387500D03*
D24*
X120750000Y-149737500D03*
X120250000Y-149737500D03*
X119750000Y-149737500D03*
X119250000Y-149737500D03*
X118750000Y-149737500D03*
X118250000Y-149737500D03*
X117750000Y-149737500D03*
X117250000Y-149737500D03*
D25*
X119862500Y-153000000D03*
X119862500Y-151275000D03*
X118137500Y-153000000D03*
X118137500Y-151275000D03*
D27*
X112175000Y-131100000D03*
X115450000Y-114375000D03*
X106200000Y-118750000D03*
X122500000Y-120450000D03*
X122500000Y-147450000D03*
X122500000Y-135000000D03*
X112500000Y-121425000D03*
X107750000Y-118750000D03*
X111875000Y-145525000D03*
X118250000Y-143200000D03*
X120250000Y-130775000D03*
X117250000Y-130750000D03*
X117000000Y-119250000D03*
X122555000Y-151384000D03*
X115316000Y-150876000D03*
X115570000Y-137795000D03*
X115570000Y-125984000D03*
X122682000Y-126365000D03*
X122555000Y-138176000D03*
X122326400Y-114884200D03*
X121650000Y-111875000D03*
X127950000Y-110525000D03*
X125800000Y-110525000D03*
X123300000Y-110550000D03*
X120925000Y-110525000D03*
X105975000Y-110600000D03*
X103850000Y-110600000D03*
X102050000Y-110600000D03*
X100400000Y-110600000D03*
X98325000Y-110625000D03*
X98300000Y-111975000D03*
X98075000Y-123800000D03*
X98100000Y-125500000D03*
X98125000Y-126975000D03*
X98150000Y-128650000D03*
X109775000Y-118748000D03*
X110675000Y-117752000D03*
X111725000Y-116350000D03*
X122200000Y-125275000D03*
X107000000Y-124200000D03*
X107000000Y-121800000D03*
X108475000Y-123000000D03*
X113900000Y-113700000D03*
X113250000Y-114300000D03*
X112550000Y-114825000D03*
X112400000Y-115825000D03*
X113525000Y-115625000D03*
X114600000Y-115600000D03*
X111475000Y-120550000D03*
X114850000Y-120300000D03*
X113675000Y-120775000D03*
X112550000Y-120225000D03*
X113600000Y-118500000D03*
X114700000Y-118250000D03*
X115950000Y-118200000D03*
X116050000Y-124575000D03*
X115250000Y-123650000D03*
X114925000Y-125100000D03*
X114325000Y-126150000D03*
X114950000Y-127125000D03*
X113925000Y-127150000D03*
X113225000Y-126400000D03*
X113000000Y-125375000D03*
X111300000Y-124550000D03*
X111475000Y-123550000D03*
X111325000Y-122275000D03*
X112875000Y-142975000D03*
X113375000Y-142350000D03*
X114200000Y-141625000D03*
X115850000Y-141525000D03*
X116725000Y-141925000D03*
X116800000Y-142900000D03*
X116150000Y-143525000D03*
X114875000Y-143675000D03*
X113800000Y-144100000D03*
X112525000Y-144075000D03*
X111250000Y-144425000D03*
X108050000Y-144450000D03*
X108675000Y-144000000D03*
X109025000Y-142775000D03*
X110025000Y-141875000D03*
X111050000Y-140825000D03*
X112100000Y-139575000D03*
X113075000Y-138900000D03*
X114525000Y-138775000D03*
X114200000Y-137250000D03*
X115300000Y-136175000D03*
X114575000Y-135325000D03*
X113875000Y-133975000D03*
X112275000Y-134025000D03*
X110775000Y-134025000D03*
X109900000Y-133275000D03*
X109925000Y-131725000D03*
X109900000Y-130350000D03*
X111300000Y-129825000D03*
X115800000Y-131125000D03*
X115875000Y-129800000D03*
X114600000Y-129700000D03*
X113025000Y-129650000D03*
X111900000Y-128600000D03*
X110900000Y-127725000D03*
X109700000Y-127350000D03*
X109025000Y-125900000D03*
X108475000Y-124950000D03*
X107175000Y-126325000D03*
X108200000Y-127425000D03*
X108575000Y-129000000D03*
X108525000Y-130475000D03*
X108500000Y-131900000D03*
X108250000Y-133700000D03*
X107350000Y-134800000D03*
X107925000Y-135575000D03*
X108550000Y-137025000D03*
X108525000Y-138625000D03*
X108500000Y-140125000D03*
X108475000Y-141700000D03*
X107325000Y-143025000D03*
X107225000Y-144100000D03*
X115400000Y-149100000D03*
X114600000Y-148775000D03*
X113075000Y-148625000D03*
X111275000Y-148800000D03*
X111550000Y-149825000D03*
X112525000Y-150700000D03*
X113400000Y-151550000D03*
X114700000Y-152050000D03*
X105250000Y-122375000D03*
X104750000Y-123900000D03*
X104750000Y-125350000D03*
X104750000Y-126875000D03*
X105475000Y-128275000D03*
X106050000Y-129625000D03*
X106050000Y-130950000D03*
X106050000Y-132325000D03*
X104850000Y-132800000D03*
X102200000Y-132875000D03*
X102225000Y-131475000D03*
X102225000Y-130475000D03*
X101000000Y-130400000D03*
X99575000Y-130400000D03*
X98150000Y-130375000D03*
X98150000Y-133225000D03*
X99750000Y-133250000D03*
X101325000Y-133525000D03*
X114475000Y-155450000D03*
X111850000Y-155475000D03*
X110325000Y-155450000D03*
X108900000Y-155450000D03*
X107300000Y-155450000D03*
X105800000Y-155450000D03*
X104325000Y-155425000D03*
X102900000Y-155425000D03*
X101400000Y-155400000D03*
X99700000Y-155400000D03*
X98250000Y-155375000D03*
X98225000Y-154400000D03*
X98225000Y-152900000D03*
X98200000Y-151125000D03*
X98200000Y-149425000D03*
X98200000Y-147375000D03*
X98175000Y-145800000D03*
X98175000Y-143525000D03*
X98150000Y-141850000D03*
X98150000Y-140300000D03*
X102150000Y-137275000D03*
X102225000Y-138500000D03*
X100900000Y-139225000D03*
X99400000Y-139125000D03*
X98100000Y-139150000D03*
X98525000Y-136250000D03*
X100275000Y-136300000D03*
X101900000Y-136025000D03*
X104650000Y-136750000D03*
X105900000Y-137175000D03*
X106075000Y-138475000D03*
X106075000Y-139825000D03*
X105500000Y-141200000D03*
X104750000Y-142800000D03*
X104700000Y-144400000D03*
X104725000Y-146275000D03*
X105500000Y-147450000D03*
X108650000Y-148950000D03*
X108700000Y-150550000D03*
X109875000Y-152150000D03*
X111625000Y-153600000D03*
X113400000Y-154850000D03*
X115700000Y-154900000D03*
X122550000Y-155350000D03*
X123900000Y-155325000D03*
X123900000Y-154425000D03*
X124775000Y-153575000D03*
X125675000Y-153425000D03*
X126825000Y-153425000D03*
X127900000Y-153450000D03*
X127775000Y-150425000D03*
X126750000Y-150425000D03*
X125700000Y-150400000D03*
X124500000Y-150375000D03*
X123875000Y-149400000D03*
X123900000Y-148375000D03*
X124450000Y-147600000D03*
X125625000Y-147625000D03*
X126825000Y-147600000D03*
X127925000Y-147450000D03*
X127925000Y-145925000D03*
X127875000Y-144400000D03*
X126925000Y-144350000D03*
X125925000Y-144400000D03*
X124450000Y-144450000D03*
X123850000Y-143625000D03*
X123800000Y-142500000D03*
X123100000Y-141500000D03*
X124250000Y-141475000D03*
X125550000Y-141500000D03*
X126575000Y-141575000D03*
X127850000Y-141475000D03*
X127825000Y-138425000D03*
X126625000Y-138425000D03*
X125550000Y-138375000D03*
X124375000Y-138375000D03*
X123875000Y-137250000D03*
X123900000Y-136225000D03*
X124475000Y-135625000D03*
X125650000Y-135625000D03*
X126750000Y-135625000D03*
X127875000Y-135575000D03*
X127875000Y-132400000D03*
X126725000Y-132425000D03*
X125625000Y-132375000D03*
X124350000Y-132450000D03*
X123800000Y-131400000D03*
X123750000Y-130475000D03*
X123950000Y-129675000D03*
X125525000Y-129575000D03*
X126725000Y-129475000D03*
X127875000Y-129500000D03*
X127875000Y-126475000D03*
X126650000Y-126475000D03*
X125475000Y-126475000D03*
X124300000Y-126750000D03*
X123900000Y-125475000D03*
X123900000Y-124475000D03*
X124375000Y-123675000D03*
X125550000Y-123675000D03*
X126700000Y-123675000D03*
X127900000Y-123650000D03*
X123900000Y-113400000D03*
X123875000Y-112225000D03*
X124550000Y-111675000D03*
X126100000Y-111650000D03*
X127175000Y-111675000D03*
X128000000Y-111675000D03*
X128000000Y-114575000D03*
X127200000Y-114575000D03*
X126150000Y-114550000D03*
X125100000Y-114750000D03*
X123975000Y-114825000D03*
X123400000Y-114200000D03*
X123925000Y-118525000D03*
X123950000Y-119675000D03*
X124450000Y-120300000D03*
X125675000Y-120300000D03*
X126775000Y-120300000D03*
X127900000Y-120325000D03*
X127900000Y-117425000D03*
X126750000Y-117425000D03*
X125550000Y-117450000D03*
X124450000Y-117200000D03*
X123550000Y-117225000D03*
X122900000Y-117800000D03*
X114125000Y-131100000D03*
X116250000Y-119250000D03*
X115775000Y-150175000D03*
X115852000Y-151852000D03*
X104000000Y-118025000D03*
X106400000Y-120250000D03*
X122500000Y-123450000D03*
X122500000Y-144475000D03*
X122500000Y-132000000D03*
X112500000Y-123400000D03*
X108250000Y-113275000D03*
X107550000Y-115950000D03*
X108450000Y-115950000D03*
X108450000Y-115050000D03*
X107550000Y-115050000D03*
X108500000Y-117750000D03*
X103500000Y-135950000D03*
X103500000Y-133550000D03*
X107000000Y-147700000D03*
X103000000Y-135400000D03*
X103000000Y-134075000D03*
X105025000Y-134750000D03*
X106500000Y-147150000D03*
X107000000Y-145300000D03*
X108525000Y-146500000D03*
X111875000Y-147250000D03*
X115875000Y-153975000D03*
X115850000Y-152825000D03*
X122200000Y-150625000D03*
X122125000Y-151900000D03*
X122250000Y-152725000D03*
X122150000Y-153975000D03*
X117750000Y-155275000D03*
X118750000Y-155275000D03*
X119750000Y-155275000D03*
X120750000Y-155275000D03*
X115900000Y-140850000D03*
X122150000Y-140875000D03*
X122125000Y-137250000D03*
X122150000Y-138750000D03*
X122145477Y-139703411D03*
X115852414Y-137245301D03*
X115900000Y-138750000D03*
X115900000Y-139700000D03*
X117750000Y-142125000D03*
X118750000Y-142125000D03*
X119750000Y-142125000D03*
X120750000Y-142125000D03*
X115850000Y-125375000D03*
X115825000Y-126900000D03*
X115825000Y-127750000D03*
X115825000Y-129000000D03*
X118137500Y-153000000D03*
X119862500Y-153000000D03*
X119862500Y-151275000D03*
X118137500Y-151275000D03*
X118950000Y-145900000D03*
X118050000Y-145900000D03*
X118050000Y-145000000D03*
X118950000Y-145000000D03*
X118137500Y-139862500D03*
X119862500Y-139862500D03*
X119862500Y-138137500D03*
X118137500Y-138137500D03*
X118050000Y-133450000D03*
X118950000Y-133450000D03*
X118950000Y-132550000D03*
X118050000Y-132550000D03*
X118137500Y-128000000D03*
X119862500Y-128000000D03*
X119862500Y-126275000D03*
X118137500Y-126275000D03*
X118137500Y-116500000D03*
X118137500Y-114775000D03*
X119862500Y-114775000D03*
X119862500Y-116500000D03*
X122250000Y-126900000D03*
X122200000Y-128975000D03*
X122250000Y-127625000D03*
X117750000Y-130250000D03*
X118750000Y-130250000D03*
X119750000Y-130250000D03*
X120750000Y-130250000D03*
X118959200Y-121727800D03*
X118059200Y-121727800D03*
X118059200Y-120827800D03*
X118959200Y-120827800D03*
X115700000Y-113750000D03*
X122250000Y-116025000D03*
X115825000Y-117525000D03*
X115849170Y-114881584D03*
X115850000Y-115875000D03*
X117775000Y-118750000D03*
X118750000Y-118750000D03*
X119750000Y-118750000D03*
X120750000Y-118750000D03*
X122200000Y-117450000D03*
X122200000Y-113900000D03*
X118491000Y-148082000D03*
X120725000Y-144700000D03*
X120725000Y-132250000D03*
X120750000Y-120525000D03*
X105750000Y-116250000D03*
X119250000Y-143175000D03*
X119800000Y-131525000D03*
X107250000Y-117750000D03*
X120871000Y-119540000D03*
D28*
X118194790Y-119219790D02*
X118275000Y-119219790D01*
X118259200Y-119235590D02*
X118275000Y-119219790D01*
X118275000Y-119219790D02*
X118694790Y-119219790D01*
X118259200Y-119802800D02*
X118259200Y-119235590D01*
D29*
X111379000Y-131101400D02*
X112173600Y-131101400D01*
X112173600Y-131101400D02*
X112175000Y-131100000D01*
X115610129Y-114383583D02*
X115458583Y-114383583D01*
X115458583Y-114383583D02*
X115450000Y-114375000D01*
X106200000Y-118750000D02*
X107000000Y-118750000D01*
X105500000Y-118750000D02*
X106200000Y-118750000D01*
X122500000Y-121195400D02*
X122500000Y-120450000D01*
X122500000Y-146723800D02*
X122500000Y-147450000D01*
X122500000Y-134250000D02*
X122500000Y-135000000D01*
X112483200Y-122250200D02*
X112483200Y-121441800D01*
X112483200Y-121441800D02*
X112500000Y-121425000D01*
X107750000Y-116975000D02*
X107750000Y-118750000D01*
X107000000Y-118750000D02*
X107750000Y-118750000D01*
X112508600Y-145542000D02*
X111892000Y-145542000D01*
X111892000Y-145542000D02*
X111875000Y-145525000D01*
X118750000Y-143360000D02*
X118590000Y-143200000D01*
X118590000Y-143200000D02*
X118250000Y-143200000D01*
X118750000Y-143975000D02*
X118750000Y-143360000D01*
X117750000Y-143360000D02*
X117910000Y-143200000D01*
X117910000Y-143200000D02*
X118250000Y-143200000D01*
X117750000Y-143975000D02*
X117750000Y-143360000D01*
X118250000Y-143975000D02*
X118250000Y-143200000D01*
D28*
X118750000Y-131525000D02*
X118750000Y-131010000D01*
X118750000Y-131010000D02*
X118985000Y-130775000D01*
X118985000Y-130775000D02*
X120250000Y-130775000D01*
D29*
X117640000Y-130800000D02*
X117300000Y-130800000D01*
X117300000Y-130800000D02*
X117250000Y-130750000D01*
X117750000Y-131525000D02*
X117750000Y-130910000D01*
X117750000Y-130910000D02*
X117640000Y-130800000D01*
D28*
X118694790Y-119219790D02*
X118759200Y-119284200D01*
X118759200Y-119284200D02*
X118759200Y-119802800D01*
X118194790Y-119219790D02*
X117030210Y-119219790D01*
X117030210Y-119219790D02*
X117000000Y-119250000D01*
D29*
X115911500Y-114387500D02*
X115911500Y-114383583D01*
X115911500Y-114383583D02*
X116600000Y-114387500D01*
X115610129Y-114383583D02*
X115911500Y-114383583D01*
X121400000Y-151387500D02*
X122551500Y-151387500D01*
X122551500Y-151387500D02*
X122555000Y-151384000D01*
X116600000Y-150887500D02*
X115327500Y-150887500D01*
X115327500Y-150887500D02*
X115316000Y-150876000D01*
X116600000Y-137750000D02*
X115615000Y-137750000D01*
X115615000Y-137750000D02*
X115570000Y-137795000D01*
X116600000Y-125887500D02*
X115666500Y-125887500D01*
X115666500Y-125887500D02*
X115570000Y-125984000D01*
X121400000Y-126387500D02*
X122659500Y-126387500D01*
X122659500Y-126387500D02*
X122682000Y-126365000D01*
X121400000Y-138250000D02*
X122481000Y-138250000D01*
X122481000Y-138250000D02*
X122555000Y-138176000D01*
X112649000Y-145542000D02*
X112508600Y-145542000D01*
X112508600Y-145542000D02*
X112508600Y-145342000D01*
X121400000Y-114887500D02*
X122323100Y-114887500D01*
X122323100Y-114887500D02*
X122326400Y-114884200D01*
X111725000Y-116350000D02*
X111725000Y-116702000D01*
X111725000Y-116702000D02*
X110675000Y-117752000D01*
X121400000Y-125887500D02*
X121990000Y-125887500D01*
X121990000Y-125887500D02*
X122200000Y-125677500D01*
X122200000Y-125677500D02*
X122200000Y-125275000D01*
X121400000Y-125387500D02*
X122087500Y-125387500D01*
X122087500Y-125387500D02*
X122200000Y-125275000D01*
X107000000Y-123660000D02*
X107000000Y-124200000D01*
X107000000Y-122340000D02*
X107000000Y-121800000D01*
X107000000Y-122340000D02*
X107000000Y-122125000D01*
X107000000Y-122125000D02*
X106625000Y-121750000D01*
X108000000Y-123000000D02*
X108475000Y-123000000D01*
X117260589Y-130100000D02*
X117260589Y-129548089D01*
X117260589Y-129548089D02*
X117250000Y-129537500D01*
X117750000Y-130250000D02*
X117410589Y-130250000D01*
X117410589Y-130250000D02*
X117260589Y-130100000D01*
X113334800Y-131101400D02*
X114123600Y-131101400D01*
X114123600Y-131101400D02*
X114125000Y-131100000D01*
D28*
X118250000Y-134475000D02*
X118250000Y-133650000D01*
X118250000Y-133650000D02*
X118050000Y-133450000D01*
X118259200Y-122752800D02*
X118259200Y-121927800D01*
X118259200Y-121927800D02*
X118059200Y-121727800D01*
D29*
X117759200Y-119802800D02*
X116802800Y-119802800D01*
X116802800Y-119802800D02*
X116250000Y-119250000D01*
X116600000Y-150387500D02*
X115987500Y-150387500D01*
X115987500Y-150387500D02*
X115775000Y-150175000D01*
X115852000Y-151387500D02*
X115852000Y-151852000D01*
X115852000Y-151852000D02*
X115887500Y-151887500D01*
X104000000Y-118750000D02*
X104000000Y-118025000D01*
X107000000Y-120250000D02*
X106400000Y-120250000D01*
X122500000Y-122695400D02*
X122500000Y-123450000D01*
X122500000Y-145223800D02*
X122500000Y-144475000D01*
X122500000Y-132750000D02*
X122500000Y-132000000D01*
X112508600Y-124206000D02*
X112508600Y-123408600D01*
X112508600Y-123408600D02*
X112500000Y-123400000D01*
X108250000Y-114025000D02*
X108250000Y-113275000D01*
X108750000Y-116975000D02*
X108750000Y-117500000D01*
X108750000Y-117500000D02*
X108500000Y-117750000D01*
X108250000Y-116975000D02*
X108250000Y-117500000D01*
X108250000Y-117500000D02*
X108500000Y-117750000D01*
X103500000Y-135410000D02*
X103500000Y-135950000D01*
X103500000Y-134090000D02*
X103500000Y-133550000D01*
X107000000Y-147160000D02*
X107000000Y-147700000D01*
X103500000Y-135410000D02*
X103010000Y-135410000D01*
X103010000Y-135410000D02*
X103000000Y-135400000D01*
X103500000Y-134090000D02*
X103015000Y-134090000D01*
X103015000Y-134090000D02*
X103000000Y-134075000D01*
X104500000Y-134750000D02*
X105025000Y-134750000D01*
X107000000Y-147160000D02*
X106510000Y-147160000D01*
X106510000Y-147160000D02*
X106500000Y-147150000D01*
X107000000Y-145840000D02*
X107000000Y-145300000D01*
X108000000Y-146500000D02*
X108525000Y-146500000D01*
X112496600Y-147243800D02*
X111881200Y-147243800D01*
X111881200Y-147243800D02*
X111875000Y-147250000D01*
X116600000Y-153887500D02*
X115962500Y-153887500D01*
X115962500Y-153887500D02*
X115875000Y-153975000D01*
X115850000Y-151925000D02*
X115850000Y-152400000D01*
X115850000Y-151925000D02*
X115887500Y-151887500D01*
X115887500Y-151887500D02*
X116600000Y-151887500D01*
X115850000Y-152400000D02*
X115850000Y-152825000D01*
X115862500Y-152387500D02*
X116600000Y-152387500D01*
X115850000Y-152400000D02*
X115862500Y-152387500D01*
X116600000Y-151387500D02*
X115852000Y-151387500D01*
X116600000Y-152887500D02*
X115912500Y-152887500D01*
X115912500Y-152887500D02*
X115850000Y-152825000D01*
X121400000Y-150387500D02*
X121962500Y-150387500D01*
X121962500Y-150387500D02*
X122200000Y-150625000D01*
X121400000Y-150887500D02*
X121937500Y-150887500D01*
X121937500Y-150887500D02*
X122200000Y-150625000D01*
X121400000Y-151887500D02*
X122112500Y-151887500D01*
X122112500Y-151887500D02*
X122125000Y-151900000D01*
X121400000Y-152387500D02*
X121912500Y-152387500D01*
X121912500Y-152387500D02*
X122250000Y-152725000D01*
X121400000Y-152887500D02*
X122087500Y-152887500D01*
X122087500Y-152887500D02*
X122250000Y-152725000D01*
X121400000Y-153887500D02*
X122062500Y-153887500D01*
X122062500Y-153887500D02*
X122150000Y-153975000D01*
X120750000Y-155275000D02*
X120250000Y-155275000D01*
X120250000Y-155275000D02*
X119750000Y-155275000D01*
X120250000Y-154537500D02*
X120250000Y-155127500D01*
X120250000Y-155127500D02*
X120250000Y-155275000D01*
X119750000Y-155275000D02*
X119250000Y-155275000D01*
X119250000Y-155275000D02*
X118750000Y-155275000D01*
X119250000Y-154537500D02*
X119250000Y-155127500D01*
X119250000Y-155127500D02*
X119250000Y-155275000D01*
X118750000Y-155275000D02*
X118250000Y-155275000D01*
X118250000Y-155275000D02*
X117750000Y-155275000D01*
X118250000Y-154537500D02*
X118250000Y-155127500D01*
X118250000Y-155127500D02*
X118250000Y-155275000D01*
X117250000Y-155127500D02*
X117397500Y-155275000D01*
X117397500Y-155275000D02*
X117750000Y-155275000D01*
X117250000Y-154537500D02*
X117250000Y-155127500D01*
X117750000Y-154537500D02*
X117750000Y-155275000D01*
X118750000Y-154537500D02*
X118750000Y-155275000D01*
X119750000Y-154537500D02*
X119750000Y-155275000D01*
X120750000Y-154537500D02*
X120750000Y-155275000D01*
X116600000Y-140750000D02*
X116000000Y-140750000D01*
X116000000Y-140750000D02*
X115900000Y-140850000D01*
X121400000Y-140750000D02*
X122025000Y-140750000D01*
X122025000Y-140750000D02*
X122150000Y-140875000D01*
X121990000Y-137750000D02*
X122125000Y-137615000D01*
X122125000Y-137615000D02*
X122125000Y-137250000D01*
X121400000Y-137750000D02*
X121990000Y-137750000D01*
X121400000Y-137250000D02*
X122125000Y-137250000D01*
X121400000Y-138750000D02*
X122150000Y-138750000D01*
X122125000Y-139385000D02*
X122125000Y-139682934D01*
X122125000Y-139682934D02*
X122145477Y-139703411D01*
X121400000Y-139250000D02*
X121990000Y-139250000D01*
X121990000Y-139250000D02*
X122125000Y-139385000D01*
X121400000Y-139750000D02*
X122098888Y-139750000D01*
X122098888Y-139750000D02*
X122145477Y-139703411D01*
X116600000Y-137250000D02*
X115857113Y-137250000D01*
X115857113Y-137250000D02*
X115852414Y-137245301D01*
X115900000Y-138360000D02*
X115900000Y-138750000D01*
X116600000Y-138250000D02*
X116010000Y-138250000D01*
X116010000Y-138250000D02*
X115900000Y-138360000D01*
X116600000Y-138750000D02*
X115900000Y-138750000D01*
X115900000Y-139325000D02*
X115975000Y-139250000D01*
X115975000Y-139250000D02*
X116600000Y-139250000D01*
X115900000Y-139700000D02*
X115900000Y-139325000D01*
X116600000Y-139750000D02*
X115950000Y-139750000D01*
X115950000Y-139750000D02*
X115900000Y-139700000D01*
X117250000Y-141990000D02*
X117385000Y-142125000D01*
X117385000Y-142125000D02*
X117750000Y-142125000D01*
X117250000Y-141400000D02*
X117250000Y-141990000D01*
X118750000Y-142125000D02*
X118250000Y-142125000D01*
X118250000Y-142125000D02*
X117750000Y-142125000D01*
X118250000Y-141400000D02*
X118250000Y-141990000D01*
X118250000Y-141990000D02*
X118250000Y-142125000D01*
X119750000Y-142125000D02*
X119250000Y-142125000D01*
X119250000Y-142125000D02*
X118750000Y-142125000D01*
X119250000Y-141400000D02*
X119250000Y-141990000D01*
X119250000Y-141990000D02*
X119250000Y-142125000D01*
X120750000Y-142125000D02*
X120250000Y-142125000D01*
X120250000Y-142125000D02*
X119750000Y-142125000D01*
X120250000Y-141400000D02*
X120250000Y-142125000D01*
X117750000Y-141400000D02*
X117750000Y-142125000D01*
X118750000Y-141400000D02*
X118750000Y-142125000D01*
X119750000Y-141400000D02*
X119750000Y-142125000D01*
X120750000Y-141400000D02*
X120750000Y-142125000D01*
X118250000Y-131525000D02*
X118250000Y-130910000D01*
X118250000Y-130910000D02*
X118250000Y-130250000D01*
X116600000Y-125387500D02*
X115862500Y-125387500D01*
X115862500Y-125387500D02*
X115850000Y-125375000D01*
X115825000Y-126900000D02*
X115825000Y-126560589D01*
X115825000Y-126560589D02*
X115998089Y-126387500D01*
X115998089Y-126387500D02*
X116010000Y-126387500D01*
X116600000Y-126387500D02*
X116010000Y-126387500D01*
X116010000Y-126387500D02*
X116000000Y-126397500D01*
X116600000Y-126887500D02*
X115837500Y-126887500D01*
X115837500Y-126887500D02*
X115825000Y-126900000D01*
X116600000Y-127387500D02*
X116187500Y-127387500D01*
X116187500Y-127387500D02*
X115825000Y-127750000D01*
X116600000Y-127887500D02*
X115962500Y-127887500D01*
X115962500Y-127887500D02*
X115825000Y-127750000D01*
X116600000Y-128887500D02*
X115937500Y-128887500D01*
X115937500Y-128887500D02*
X115825000Y-129000000D01*
X121400000Y-126887500D02*
X122237500Y-126887500D01*
X122237500Y-126887500D02*
X122250000Y-126900000D01*
X121400000Y-128887500D02*
X122112500Y-128887500D01*
X122112500Y-128887500D02*
X122200000Y-128975000D01*
X121400000Y-127387500D02*
X122012500Y-127387500D01*
X122012500Y-127387500D02*
X122250000Y-127625000D01*
X121400000Y-127887500D02*
X121987500Y-127887500D01*
X121987500Y-127887500D02*
X122250000Y-127625000D01*
X120750000Y-130250000D02*
X120275000Y-130250000D01*
X120250000Y-129537500D02*
X120250000Y-130225000D01*
X120275000Y-130250000D02*
X119750000Y-130250000D01*
X120250000Y-130225000D02*
X120275000Y-130250000D01*
X119750000Y-130250000D02*
X119250000Y-130250000D01*
X119250000Y-130250000D02*
X118750000Y-130250000D01*
X119250000Y-129537500D02*
X119250000Y-130250000D01*
X118750000Y-130250000D02*
X118250000Y-130250000D01*
X118250000Y-130250000D02*
X117750000Y-130250000D01*
X118250000Y-129537500D02*
X118250000Y-130250000D01*
X117750000Y-129537500D02*
X117750000Y-130250000D01*
X118750000Y-129537500D02*
X118750000Y-130250000D01*
X119750000Y-129537500D02*
X119750000Y-130250000D01*
X120750000Y-129537500D02*
X120750000Y-130250000D01*
X116124166Y-113887500D02*
X115837500Y-113887500D01*
X115837500Y-113887500D02*
X115700000Y-113750000D01*
X116600000Y-113887500D02*
X116124166Y-113887500D01*
X121400000Y-117387500D02*
X122137500Y-117387500D01*
X122137500Y-117387500D02*
X122200000Y-117450000D01*
X122250000Y-115425000D02*
X122212500Y-115387500D01*
X122212500Y-115387500D02*
X121400000Y-115387500D01*
X122250000Y-116025000D02*
X122250000Y-115425000D01*
X121400000Y-115887500D02*
X122112500Y-115887500D01*
X122112500Y-115887500D02*
X122250000Y-116025000D01*
X121400000Y-116387500D02*
X121887500Y-116387500D01*
X121887500Y-116387500D02*
X122250000Y-116025000D01*
X118750000Y-118750000D02*
X117775000Y-118750000D01*
X117372500Y-118750000D02*
X117775000Y-118750000D01*
X117250000Y-118037500D02*
X117250000Y-118627500D01*
X117250000Y-118627500D02*
X117372500Y-118750000D01*
X116600000Y-117387500D02*
X115962500Y-117387500D01*
X115962500Y-117387500D02*
X115825000Y-117525000D01*
X115849170Y-115375000D02*
X115849170Y-115874170D01*
X115849170Y-114881584D02*
X115849170Y-115375000D01*
X115849170Y-115375000D02*
X115861670Y-115387500D01*
X115861670Y-115387500D02*
X116600000Y-115387500D01*
X116010000Y-116387500D02*
X115850000Y-116227500D01*
X115850000Y-116227500D02*
X115850000Y-115875000D01*
X116600000Y-116387500D02*
X116010000Y-116387500D01*
X115849170Y-115874170D02*
X115850000Y-115875000D01*
X116600000Y-114887500D02*
X115855086Y-114887500D01*
X115855086Y-114887500D02*
X115849170Y-114881584D01*
X116600000Y-115887500D02*
X115862500Y-115887500D01*
X115862500Y-115887500D02*
X115850000Y-115875000D01*
X117750000Y-118037500D02*
X117750000Y-118725000D01*
X117750000Y-118725000D02*
X117775000Y-118750000D01*
X118250000Y-118037500D02*
X118250000Y-118627500D01*
X118250000Y-118627500D02*
X118250000Y-118750000D01*
X118750000Y-118037500D02*
X118750000Y-118750000D01*
X119750000Y-118750000D02*
X119250000Y-118750000D01*
X119250000Y-118750000D02*
X118750000Y-118750000D01*
X119250000Y-118037500D02*
X119250000Y-118750000D01*
X119750000Y-118037500D02*
X119750000Y-118750000D01*
X119750000Y-118750000D02*
X120750000Y-118750000D01*
X120250000Y-118037500D02*
X120250000Y-118627500D01*
X120250000Y-118627500D02*
X120250000Y-118750000D01*
X120750000Y-118037500D02*
X120750000Y-118750000D01*
D28*
X120750000Y-118750000D02*
X120250000Y-118750000D01*
X120250000Y-118750000D02*
X119750000Y-118750000D01*
X117775000Y-118750000D02*
X118250000Y-118750000D01*
X118250000Y-118750000D02*
X118750000Y-118750000D01*
X122112500Y-114387500D02*
X122200000Y-114300000D01*
X122200000Y-114300000D02*
X122200000Y-113900000D01*
X121400000Y-114387500D02*
X122112500Y-114387500D01*
X121400000Y-113887500D02*
X122187500Y-113887500D01*
X122187500Y-113887500D02*
X122200000Y-113900000D01*
D29*
X118025000Y-152887500D02*
X118137500Y-153000000D01*
X107550000Y-115950000D02*
X107550000Y-115050000D01*
X107550000Y-115950000D02*
X108450000Y-115950000D01*
X108450000Y-115050000D02*
X107550000Y-115050000D01*
X118050000Y-132550000D02*
X118250000Y-132350000D01*
X118050000Y-133450000D02*
X118950000Y-133450000D01*
X118050000Y-132550000D02*
X118050000Y-133450000D01*
X118950000Y-132550000D02*
X118050000Y-132550000D01*
X118059200Y-121727800D02*
X118959200Y-121727800D01*
X118059200Y-120827800D02*
X118059200Y-121727800D01*
X118959200Y-120827800D02*
X118059200Y-120827800D01*
X118050000Y-145000000D02*
X118050000Y-145900000D01*
X118050000Y-145000000D02*
X118950000Y-145000000D01*
X118950000Y-145900000D02*
X118050000Y-145900000D01*
X118250000Y-146925000D02*
X118250000Y-147841000D01*
X118250000Y-147841000D02*
X118491000Y-148082000D01*
X118025000Y-139750000D02*
X118137500Y-139862500D01*
X118137500Y-139862500D02*
X118137500Y-138137500D01*
X119862500Y-139862500D02*
X118137500Y-139862500D01*
X120250000Y-137750000D02*
X119862500Y-138137500D01*
X118025000Y-126387500D02*
X118137500Y-126275000D01*
X120250000Y-125887500D02*
X119862500Y-126275000D01*
X118250000Y-146100000D02*
X118050000Y-145900000D01*
D30*
X113334800Y-131101400D02*
X113134800Y-131101400D01*
X99500000Y-137725000D02*
X99500000Y-137600000D01*
D31*
X99500000Y-131775000D02*
X99491921Y-131775000D01*
D29*
X127343600Y-112181400D02*
X126500000Y-113025000D01*
X118137500Y-116500000D02*
X118137500Y-114775000D01*
X118025000Y-114887500D02*
X118137500Y-114775000D01*
X120250000Y-114387500D02*
X119862500Y-114775000D01*
X117759200Y-120527800D02*
X118059200Y-120827800D01*
X108250000Y-116150000D02*
X108450000Y-115950000D01*
X108250000Y-114850000D02*
X108450000Y-115050000D01*
X115646200Y-116890800D02*
X115649500Y-116887500D01*
X115649500Y-116887500D02*
X116600000Y-116887500D01*
D31*
X114550000Y-116890800D02*
X115646200Y-116890800D01*
X111917739Y-119133758D02*
X111991931Y-119133758D01*
X110000000Y-122250000D02*
X110000000Y-120290800D01*
X110000000Y-120290800D02*
X111252000Y-119038800D01*
X112324631Y-118726865D02*
X112308122Y-118654533D01*
X111778562Y-119085058D02*
X111845407Y-119117248D01*
X111310005Y-118992541D02*
X111376850Y-118960351D01*
X112131108Y-119085058D02*
X112189114Y-119038800D01*
X111991931Y-119133758D02*
X112064263Y-119117248D01*
X111376850Y-118960351D02*
X111449182Y-118943841D01*
X111252000Y-119038800D02*
X111310005Y-118992541D01*
X112308122Y-118873389D02*
X112324631Y-118801057D01*
X111595706Y-118960351D02*
X111662551Y-118992541D01*
X111449182Y-118943841D02*
X111523374Y-118943841D01*
X112189114Y-119038800D02*
X112229673Y-118998240D01*
X111523374Y-118943841D02*
X111595706Y-118960351D01*
X111662551Y-118992541D02*
X111778562Y-119085058D01*
X111845407Y-119117248D02*
X111917739Y-119133758D01*
X112064263Y-119117248D02*
X112131108Y-119085058D01*
X112229673Y-118998240D02*
X112275931Y-118940234D01*
X112275931Y-118940234D02*
X112308122Y-118873389D01*
X112275931Y-118587688D02*
X112183414Y-118471677D01*
X112324631Y-118801057D02*
X112324631Y-118726865D01*
X112308122Y-118654533D02*
X112275931Y-118587688D01*
X112183414Y-118471677D02*
X112151224Y-118404832D01*
X112229673Y-118061125D02*
X112100528Y-118190271D01*
X112151224Y-118404832D02*
X112134714Y-118332500D01*
X112183414Y-118119131D02*
X112229673Y-118061125D01*
X112134714Y-118332500D02*
X112134714Y-118258308D01*
X112100528Y-118190271D02*
X113400000Y-116890800D01*
X112134714Y-118258308D02*
X112151224Y-118185976D01*
X112151224Y-118185976D02*
X112183414Y-118119131D01*
X113400000Y-116890800D02*
X113450000Y-116890800D01*
X108000000Y-122340000D02*
X109910000Y-122340000D01*
X109910000Y-122340000D02*
X110000000Y-122250000D01*
D29*
X115646200Y-128397000D02*
X115655700Y-128387500D01*
X115655700Y-128387500D02*
X116600000Y-128387500D01*
D31*
X115210000Y-128397000D02*
X115646200Y-128397000D01*
X114550000Y-128397000D02*
X115210000Y-128397000D01*
X113450000Y-128397000D02*
X113400000Y-128397000D01*
X111852564Y-125849400D02*
X111790656Y-125800030D01*
X111945326Y-125991686D02*
X111910970Y-125920344D01*
X111910970Y-125920344D02*
X111861600Y-125858436D01*
X111642115Y-125748053D02*
X111562931Y-125748053D01*
X110237419Y-126125480D02*
X110237419Y-126046296D01*
X111777873Y-126491768D02*
X111812229Y-126420426D01*
X113400000Y-128397000D02*
X111861600Y-126858600D01*
X111812229Y-126796691D02*
X111777873Y-126725349D01*
X111910970Y-126296609D02*
X111945326Y-126225267D01*
X111790656Y-125800030D02*
X111719314Y-125765673D01*
X111861600Y-126858600D02*
X111812229Y-126796691D01*
X111777873Y-126725349D02*
X111760253Y-126648151D01*
X110714633Y-126428692D02*
X110637435Y-126446312D01*
X111760253Y-126648151D02*
X111760253Y-126568967D01*
X110409710Y-126394334D02*
X110347802Y-126344965D01*
X111861600Y-125858436D02*
X111852564Y-125849400D01*
X111760253Y-126568967D02*
X111777873Y-126491768D01*
X111812229Y-126420426D02*
X111910970Y-126296609D01*
X111945326Y-126225267D02*
X111962946Y-126148069D01*
X111962946Y-126148069D02*
X111962946Y-126068885D01*
X111352483Y-125849400D02*
X111102442Y-126099440D01*
X110289395Y-125897755D02*
X110388136Y-125773939D01*
X111962946Y-126068885D02*
X111945326Y-125991686D01*
X111097924Y-126094924D02*
X110847884Y-126344965D01*
X111719314Y-125765673D02*
X111642115Y-125748053D01*
X111562931Y-125748053D02*
X111485733Y-125765673D01*
X110847884Y-126344965D02*
X110785974Y-126394334D01*
X111414391Y-125800030D02*
X111352483Y-125849400D01*
X111485733Y-125765673D02*
X111414391Y-125800030D01*
X111102442Y-126099440D02*
X111097924Y-126094924D01*
X110785974Y-126394334D02*
X110714633Y-126428692D01*
X110637435Y-126446312D02*
X110558251Y-126446312D01*
X110558251Y-126446312D02*
X110481053Y-126428692D01*
X110481053Y-126428692D02*
X110409710Y-126394334D01*
X110440112Y-125625399D02*
X110440112Y-125546215D01*
X110347802Y-126344965D02*
X110338766Y-126335929D01*
X110338766Y-126335929D02*
X110289396Y-126274021D01*
X110289396Y-126274021D02*
X110255038Y-126202678D01*
X110255038Y-126202678D02*
X110237419Y-126125480D01*
X110237419Y-126046296D02*
X110255039Y-125969098D01*
X110255039Y-125969098D02*
X110289395Y-125897755D01*
X110388136Y-125773939D02*
X110422492Y-125702597D01*
X110422492Y-125702597D02*
X110440112Y-125625399D01*
X110440112Y-125546215D02*
X110422491Y-125469015D01*
X110422491Y-125469015D02*
X110388135Y-125397673D01*
X110388135Y-125397673D02*
X110338765Y-125335765D01*
X110338765Y-125335765D02*
X110000000Y-124997000D01*
X110000000Y-124997000D02*
X110000000Y-123797000D01*
X110000000Y-123797000D02*
X110000000Y-123750000D01*
X108000000Y-123660000D02*
X109910000Y-123660000D01*
X109910000Y-123660000D02*
X110000000Y-123750000D01*
D29*
X115646200Y-140258800D02*
X115655000Y-140250000D01*
X115655000Y-140250000D02*
X116600000Y-140250000D01*
D31*
X115210000Y-140258800D02*
X115646200Y-140258800D01*
X114550000Y-140258800D02*
X115210000Y-140258800D01*
X110000000Y-145850200D02*
X110000000Y-143658800D01*
X110930219Y-143029046D02*
X111025904Y-143105353D01*
X110000000Y-143658800D02*
X110591600Y-143067200D01*
X110591600Y-143067200D02*
X110639442Y-143029046D01*
X113400000Y-140258800D02*
X113450000Y-140258800D01*
X111408857Y-142334255D02*
X111422474Y-142274596D01*
X111551882Y-142841569D02*
X111565499Y-142781910D01*
X110639442Y-143029046D02*
X110694575Y-143002496D01*
X112364668Y-141440951D02*
X112340954Y-141411215D01*
X111025904Y-143105353D02*
X111081037Y-143131903D01*
X112328472Y-141375543D02*
X112328472Y-141356526D01*
X110694575Y-143002496D02*
X110754234Y-142988879D01*
X110815427Y-142988879D02*
X110875086Y-143002496D01*
X111525331Y-142896702D02*
X111551882Y-142841569D01*
X110754234Y-142988879D02*
X110815427Y-142988879D01*
X111828827Y-141923344D02*
X111858563Y-141947058D01*
X111140696Y-143145520D02*
X111201889Y-143145520D01*
X111422474Y-142455107D02*
X111408857Y-142395448D01*
X111551882Y-142661058D02*
X111525331Y-142605925D01*
X110875086Y-143002496D02*
X110930219Y-143029046D01*
X112377151Y-141476624D02*
X112372919Y-141458084D01*
X112340954Y-141320854D02*
X112352811Y-141305986D01*
X111440128Y-142218671D02*
X111723599Y-141935201D01*
X111449024Y-142510240D02*
X111422474Y-142455107D01*
X111201889Y-143145520D02*
X111261548Y-143131903D01*
X111081037Y-143131903D02*
X111140696Y-143145520D01*
X111755599Y-141915093D02*
X111774139Y-141910862D01*
X111261548Y-143131903D02*
X111316681Y-143105353D01*
X111723599Y-141935201D02*
X111738466Y-141923344D01*
X111316681Y-143105353D02*
X111364524Y-143067200D01*
X112352811Y-141305986D02*
X112572127Y-141086672D01*
X111364524Y-143067200D02*
X111487178Y-142944545D01*
X111858563Y-141947058D02*
X111875696Y-141955309D01*
X111449024Y-142219463D02*
X111487178Y-142171620D01*
X111487178Y-142944545D02*
X111525331Y-142896702D01*
X111565499Y-142781910D02*
X111565499Y-142720717D01*
X112340954Y-141411215D02*
X112332703Y-141394082D01*
X111565499Y-142720717D02*
X111551882Y-142661058D01*
X111525331Y-142605925D02*
X111449024Y-142510240D01*
X111408857Y-142395448D02*
X111408857Y-142334255D01*
X111963792Y-141935201D02*
X112352812Y-141546180D01*
X111422474Y-142274596D02*
X111449024Y-142219463D01*
X111948924Y-141947058D02*
X111963792Y-141935201D01*
X111487178Y-142171620D02*
X111440128Y-142218671D01*
X112364668Y-141531313D02*
X112372919Y-141514179D01*
X111738466Y-141923344D02*
X111755599Y-141915093D01*
X111774139Y-141910862D02*
X111793155Y-141910862D01*
X111793155Y-141910862D02*
X111811694Y-141915093D01*
X111811694Y-141915093D02*
X111828827Y-141923344D01*
X111875696Y-141955309D02*
X111894235Y-141959540D01*
X111894235Y-141959540D02*
X111913252Y-141959540D01*
X111913252Y-141959540D02*
X111931791Y-141955309D01*
X111931791Y-141955309D02*
X111948924Y-141947058D01*
X112352812Y-141546180D02*
X112364668Y-141531313D01*
X112372919Y-141514179D02*
X112377151Y-141495640D01*
X112377151Y-141495640D02*
X112377151Y-141476624D01*
X112372919Y-141458084D02*
X112364668Y-141440951D01*
X112332703Y-141394082D02*
X112328472Y-141375543D01*
X112328472Y-141356526D02*
X112332703Y-141337987D01*
X112332703Y-141337987D02*
X112340954Y-141320854D01*
X112572127Y-141086672D02*
X113400000Y-140258800D01*
X108000000Y-145840000D02*
X109989800Y-145840000D01*
X109989800Y-145840000D02*
X110000000Y-145850200D01*
D29*
X115646200Y-153390600D02*
X115649300Y-153387500D01*
X115649300Y-153387500D02*
X116600000Y-153387500D01*
D31*
X115210000Y-153390600D02*
X115646200Y-153390600D01*
X114550000Y-153390600D02*
X115210000Y-153390600D01*
X110000000Y-147350200D02*
X110000000Y-149990600D01*
X110000000Y-149990600D02*
X110515400Y-150506000D01*
X111580109Y-151757938D02*
X111586876Y-151771989D01*
X111120346Y-151196684D02*
X111156403Y-151196684D01*
X110492918Y-150761908D02*
X110477274Y-150794395D01*
X110561549Y-150637887D02*
X110553525Y-150673040D01*
X111596600Y-151587200D02*
X111606323Y-151599392D01*
X110515400Y-150506000D02*
X110537881Y-150534190D01*
X111580109Y-151711934D02*
X111576639Y-151727139D01*
X110537881Y-150534190D02*
X110553525Y-150566677D01*
X110892629Y-151288984D02*
X110928686Y-151288984D01*
X112192014Y-152185083D02*
X112204207Y-152194807D01*
X110553525Y-150566677D02*
X110561549Y-150601830D01*
X110477274Y-150794395D02*
X110469250Y-150829548D01*
X111586876Y-151771989D02*
X111596600Y-151784182D01*
X110561549Y-150601830D02*
X110561549Y-150637887D01*
X110553525Y-150673040D02*
X110537881Y-150705527D01*
X112131959Y-152178316D02*
X112147164Y-152174846D01*
X110857475Y-151280960D02*
X110892629Y-151288984D01*
X110537881Y-150705527D02*
X110492918Y-150761908D01*
X112064268Y-152214767D02*
X112079473Y-152211297D01*
X110469250Y-150865605D02*
X110477274Y-150900758D01*
X112147164Y-152174846D02*
X112162759Y-152174846D01*
X110469250Y-150829548D02*
X110469250Y-150865605D01*
X112079473Y-152211297D02*
X112093523Y-152204530D01*
X111085193Y-151204708D02*
X111120346Y-151196684D01*
X110477274Y-150900758D02*
X110492918Y-150933245D01*
X110492918Y-150933245D02*
X110515400Y-150961436D01*
X110515400Y-150961436D02*
X110796798Y-151242834D01*
X111052706Y-151220352D02*
X111085193Y-151204708D01*
X110796798Y-151242834D02*
X110824989Y-151265316D01*
X111224043Y-151220352D02*
X111252234Y-151242834D01*
X110824989Y-151265316D02*
X110857475Y-151280960D01*
X110928686Y-151288984D02*
X110963839Y-151280960D01*
X111596600Y-151784182D02*
X112007225Y-152194807D01*
X110963839Y-151280960D02*
X110996326Y-151265316D01*
X110996326Y-151265316D02*
X111052706Y-151220352D01*
X112162759Y-152174846D02*
X112177963Y-152178316D01*
X111606323Y-151599392D02*
X111613090Y-151613443D01*
X111156403Y-151196684D02*
X111191556Y-151204708D01*
X111191556Y-151204708D02*
X111224043Y-151220352D01*
X111252234Y-151242834D02*
X111596600Y-151587200D01*
X111613090Y-151613443D02*
X111616560Y-151628648D01*
X111616560Y-151628648D02*
X111616560Y-151644243D01*
X111616560Y-151644243D02*
X111613090Y-151659447D01*
X111613090Y-151659447D02*
X111606323Y-151673498D01*
X111606323Y-151673498D02*
X111586876Y-151697883D01*
X111586876Y-151697883D02*
X111580109Y-151711934D01*
X113400000Y-153390600D02*
X113450000Y-153390600D01*
X111576639Y-151727139D02*
X111576639Y-151742734D01*
X111576639Y-151742734D02*
X111580109Y-151757938D01*
X112007225Y-152194807D02*
X112019418Y-152204530D01*
X112019418Y-152204530D02*
X112033469Y-152211297D01*
X112033469Y-152211297D02*
X112048673Y-152214767D01*
X112093523Y-152204530D02*
X112117908Y-152185083D01*
X112048673Y-152214767D02*
X112064268Y-152214767D01*
X112117908Y-152185083D02*
X112131959Y-152178316D01*
X112204207Y-152194807D02*
X113400000Y-153390600D01*
X112177963Y-152178316D02*
X112192014Y-152185083D01*
X108000000Y-147160000D02*
X109809800Y-147160000D01*
X109809800Y-147160000D02*
X110000000Y-147350200D01*
X98750000Y-134750000D02*
X100610000Y-134750000D01*
X100610000Y-134750000D02*
X103500000Y-134750000D01*
X127250000Y-116000000D02*
X123083600Y-116000000D01*
X122199725Y-116883875D02*
X122196100Y-116887500D01*
X123083600Y-116000000D02*
X122199725Y-116883875D01*
D29*
X121627500Y-116887500D02*
X122196100Y-116887500D01*
X121627500Y-116887500D02*
X121630800Y-116890800D01*
D31*
X122932101Y-128371600D02*
X122199400Y-128371600D01*
X125018400Y-128371600D02*
X122932101Y-128371600D01*
X125390000Y-128000000D02*
X125018400Y-128371600D01*
X127250000Y-128000000D02*
X125390000Y-128000000D01*
D29*
X121400000Y-128387500D02*
X121990000Y-128387500D01*
X121990000Y-128387500D02*
X122005900Y-128371600D01*
X122005900Y-128371600D02*
X122199400Y-128371600D01*
D31*
X127250000Y-139975000D02*
X125390000Y-139975000D01*
X125390000Y-139975000D02*
X125106200Y-140258800D01*
X125106200Y-140258800D02*
X123414298Y-140258800D01*
X123414298Y-140258800D02*
X122199400Y-140258800D01*
D29*
X121400000Y-140250000D02*
X121990000Y-140250000D01*
X121990000Y-140250000D02*
X121998800Y-140258800D01*
X121998800Y-140258800D02*
X122199400Y-140258800D01*
D31*
X123291600Y-153390600D02*
X124707200Y-151975000D01*
X124707200Y-151975000D02*
X127250000Y-151975000D01*
X122224800Y-153390600D02*
X123291600Y-153390600D01*
D29*
X121400000Y-153387500D02*
X121990000Y-153387500D01*
X121993100Y-153390600D02*
X122224800Y-153390600D01*
X121990000Y-153387500D02*
X121993100Y-153390600D01*
X119975000Y-144700000D02*
X120725000Y-144700000D01*
X119975000Y-132250000D02*
X120725000Y-132250000D01*
X119984200Y-120527800D02*
X120747200Y-120527800D01*
X120747200Y-120527800D02*
X120750000Y-120525000D01*
X106525000Y-116250000D02*
X105750000Y-116250000D01*
X119975000Y-144700000D02*
X120200000Y-144700000D01*
X120222000Y-144700000D02*
X119975000Y-144700000D01*
X119250000Y-143975000D02*
X119250000Y-143175000D01*
D28*
X119250000Y-131525000D02*
X119800000Y-131525000D01*
D29*
X107250000Y-116975000D02*
X107250000Y-117750000D01*
D28*
X119347000Y-119200000D02*
X120531000Y-119200000D01*
X120531000Y-119200000D02*
X120871000Y-119540000D01*
X119259200Y-119802800D02*
X119259200Y-119287800D01*
X119259200Y-119287800D02*
X119347000Y-119200000D01*
D29*
X107250000Y-117200000D02*
X107250000Y-116975000D01*
D28*
X109475000Y-116250000D02*
X109990000Y-116250000D01*
X109990000Y-116250000D02*
X110050000Y-116310000D01*
X110050000Y-116310000D02*
X110050000Y-117000000D01*
X110050000Y-117000000D02*
X108500000Y-118550000D01*
X108500000Y-118550000D02*
X108500000Y-118750000D01*
D29*
X108500000Y-120250000D02*
X108500000Y-118750000D01*
X113983200Y-122250200D02*
X113983200Y-124180600D01*
X113983200Y-124180600D02*
X114008600Y-124206000D01*
X113983200Y-122250200D02*
X114473200Y-122250200D01*
X114473200Y-122250200D02*
X116195600Y-120527800D01*
X116195600Y-120527800D02*
X116419200Y-120527800D01*
X116419200Y-120527800D02*
X117034200Y-120527800D01*
D31*
X104500000Y-135410000D02*
X105910000Y-135410000D01*
X106460615Y-146499917D02*
X106985615Y-146499917D01*
X105985615Y-146024917D02*
X106460615Y-146499917D01*
X105985615Y-142544917D02*
X105985615Y-146024917D01*
X107300615Y-141229917D02*
X105985615Y-142544917D01*
X107300615Y-136614917D02*
X107300615Y-141229917D01*
X106185615Y-135499917D02*
X107300615Y-136614917D01*
X107315000Y-128270000D02*
X106000000Y-126955000D01*
X106000000Y-126955000D02*
X106000000Y-123475000D01*
X107315000Y-132885000D02*
X107315000Y-128270000D01*
X106200000Y-134000000D02*
X107315000Y-132885000D01*
X104500000Y-134090000D02*
X105910000Y-134090000D01*
X106000000Y-123475000D02*
X106475000Y-123000000D01*
X106475000Y-123000000D02*
X107000000Y-123000000D01*
D29*
X113334800Y-132601400D02*
X115954842Y-132601400D01*
X115954842Y-132601400D02*
X116306242Y-132250000D01*
X116306242Y-132250000D02*
X116410000Y-132250000D01*
X116410000Y-132250000D02*
X117025000Y-132250000D01*
X111379000Y-132601400D02*
X113334800Y-132601400D01*
X114008600Y-145542000D02*
X114498600Y-145542000D01*
X114498600Y-145542000D02*
X115340600Y-144700000D01*
X115340600Y-144700000D02*
X116410000Y-144700000D01*
X116410000Y-144700000D02*
X117025000Y-144700000D01*
X114008600Y-145542000D02*
X114008600Y-147231800D01*
X114008600Y-147231800D02*
X113996600Y-147243800D01*
X109475000Y-115750000D02*
X110090000Y-115750000D01*
X110090000Y-115750000D02*
X113318000Y-112522000D01*
X113318000Y-112522000D02*
X116759500Y-112522000D01*
X116759500Y-112522000D02*
X117250000Y-113012500D01*
X117250000Y-113012500D02*
X117250000Y-113237500D01*
X109475000Y-115250000D02*
X110055414Y-115250000D01*
X110055414Y-115250000D02*
X113161424Y-112143990D01*
X117750000Y-112647500D02*
X117750000Y-113237500D01*
X113161424Y-112143990D02*
X117246490Y-112143990D01*
X117246490Y-112143990D02*
X117750000Y-112647500D01*
X109475000Y-114750000D02*
X109700000Y-114750000D01*
X109700000Y-114750000D02*
X112684020Y-111765980D01*
X112684020Y-111765980D02*
X117451880Y-111765980D01*
X117451880Y-111765980D02*
X118250000Y-112564100D01*
X118250000Y-112564100D02*
X118250000Y-112647500D01*
X118250000Y-112647500D02*
X118250000Y-113237500D01*
X110684230Y-111387970D02*
X108750000Y-113322200D01*
X108750000Y-113322200D02*
X108750000Y-114025000D01*
X118750000Y-113237500D02*
X118750000Y-112529514D01*
X118750000Y-112529514D02*
X117608456Y-111387970D01*
X117608456Y-111387970D02*
X110684230Y-111387970D01*
X107750000Y-114025000D02*
X107750000Y-113037958D01*
X107750000Y-113037958D02*
X109777998Y-111009960D01*
X109777998Y-111009960D02*
X117765032Y-111009960D01*
X117765032Y-111009960D02*
X119250000Y-112494928D01*
X119250000Y-112494928D02*
X119250000Y-113237500D01*
X107250000Y-114025000D02*
X107250000Y-113003372D01*
X107250000Y-113003372D02*
X109621422Y-110631950D01*
X109621422Y-110631950D02*
X117921608Y-110631950D01*
X117921608Y-110631950D02*
X119750000Y-112460342D01*
X119750000Y-112460342D02*
X119750000Y-112647500D01*
X119750000Y-112647500D02*
X119750000Y-113237500D01*
X105587800Y-113944400D02*
X109278260Y-110253940D01*
X109278260Y-110253940D02*
X118078184Y-110253940D01*
X118078184Y-110253940D02*
X120250000Y-112425756D01*
X120250000Y-112425756D02*
X120250000Y-112647500D01*
X120250000Y-112647500D02*
X120250000Y-113237500D01*
X105587800Y-114427800D02*
X105587800Y-113944400D01*
X106525000Y-114750000D02*
X105910000Y-114750000D01*
X105910000Y-114750000D02*
X105587800Y-114427800D01*
X106525000Y-115250000D02*
X105875414Y-115250000D01*
X105875414Y-115250000D02*
X105209790Y-114584376D01*
X105209790Y-113787824D02*
X109121684Y-109875930D01*
X105209790Y-114584376D02*
X105209790Y-113787824D01*
X109121684Y-109875930D02*
X118234760Y-109875930D01*
X118234760Y-109875930D02*
X120750000Y-112391170D01*
X120750000Y-112391170D02*
X120750000Y-112647500D01*
X120750000Y-112647500D02*
X120750000Y-113237500D01*
D28*
X117250000Y-124737500D02*
X117250000Y-124236330D01*
X115700000Y-121847000D02*
X116519200Y-121027800D01*
X117250000Y-124236330D02*
X115700000Y-122686330D01*
X115700000Y-122686330D02*
X115700000Y-121847000D01*
X116519200Y-121027800D02*
X117034200Y-121027800D01*
X117631020Y-123881020D02*
X117750000Y-124000000D01*
X117750000Y-124000000D02*
X117750000Y-124737500D01*
X117287855Y-123881020D02*
X117631020Y-123881020D01*
X117034200Y-121527800D02*
X116519200Y-121527800D01*
X116519200Y-121527800D02*
X116096990Y-121950010D01*
X116096990Y-121950010D02*
X116096990Y-122690155D01*
X116096990Y-122690155D02*
X117287855Y-123881020D01*
X116375000Y-122575000D02*
X117403010Y-123603010D01*
X117403010Y-123603010D02*
X117778010Y-123603010D01*
X116375000Y-122172000D02*
X116375000Y-122575000D01*
X117034200Y-122027800D02*
X116519200Y-122027800D01*
X116519200Y-122027800D02*
X116375000Y-122172000D01*
X118250000Y-124737500D02*
X118175018Y-124662518D01*
X118175018Y-124662518D02*
X118175018Y-124000018D01*
X118175018Y-124000018D02*
X117778010Y-123603010D01*
X117975000Y-123325000D02*
X118750000Y-124100000D01*
X118750000Y-124100000D02*
X118750000Y-124737500D01*
X117759200Y-122752800D02*
X117759200Y-123267800D01*
X117759200Y-123267800D02*
X117816400Y-123325000D01*
X117816400Y-123325000D02*
X117975000Y-123325000D01*
X118750000Y-124360013D02*
X118750000Y-124737500D01*
X119250000Y-124737500D02*
X119250000Y-123758600D01*
X119250000Y-123758600D02*
X118759200Y-123267800D01*
X118759200Y-123267800D02*
X118759200Y-122752800D01*
X118782435Y-122776035D02*
X118759200Y-122752800D01*
X119259200Y-122752800D02*
X119259200Y-123267800D01*
X119259200Y-123267800D02*
X119750000Y-123758600D01*
X119750000Y-123758600D02*
X119750000Y-124225000D01*
X119750000Y-124225000D02*
X119750000Y-124737500D01*
D29*
X120250000Y-124737500D02*
X120250000Y-123513800D01*
X120250000Y-123513800D02*
X120650000Y-123113800D01*
X120650000Y-122078600D02*
X120599200Y-122027800D01*
X120599200Y-122027800D02*
X119984200Y-122027800D01*
X120650000Y-123113800D02*
X120650000Y-122078600D01*
X120750000Y-124737500D02*
X120750000Y-124147500D01*
X120750000Y-124147500D02*
X121028010Y-123869490D01*
X121028010Y-121922024D02*
X120633786Y-121527800D01*
X121028010Y-123869490D02*
X121028010Y-121922024D01*
X120633786Y-121527800D02*
X120599200Y-121527800D01*
X120599200Y-121527800D02*
X119984200Y-121527800D01*
D28*
X117250000Y-136600000D02*
X117250000Y-136110000D01*
X116200000Y-135275000D02*
X115425000Y-134500000D01*
X117250000Y-136110000D02*
X116415000Y-135275000D01*
X116415000Y-135275000D02*
X116200000Y-135275000D01*
X115425000Y-134500000D02*
X115425000Y-133606836D01*
X115425000Y-133606836D02*
X116281836Y-132750000D01*
X116281836Y-132750000D02*
X117025000Y-132750000D01*
X115850000Y-133575000D02*
X116175000Y-133250000D01*
X116175000Y-133250000D02*
X117025000Y-133250000D01*
X115850000Y-134275000D02*
X115850000Y-133575000D01*
X116400000Y-134825000D02*
X115850000Y-134275000D01*
X116725000Y-134825000D02*
X116400000Y-134825000D01*
X117750000Y-135850000D02*
X116725000Y-134825000D01*
X117750000Y-136600000D02*
X117750000Y-135850000D01*
X116250000Y-133975000D02*
X116475000Y-133750000D01*
X116475000Y-133750000D02*
X117025000Y-133750000D01*
X116250000Y-134150000D02*
X116250000Y-133975000D01*
X116450000Y-134350000D02*
X116250000Y-134150000D01*
X116823671Y-134350000D02*
X116450000Y-134350000D01*
X118249999Y-135776328D02*
X116823671Y-134350000D01*
X118250000Y-136600000D02*
X118249999Y-135776328D01*
X117750000Y-134475000D02*
X117750000Y-134883165D01*
X117750000Y-134883165D02*
X118750000Y-135883164D01*
X118750000Y-135883164D02*
X118750000Y-136600000D01*
X118750000Y-134990000D02*
X119250000Y-135490000D01*
X119250000Y-135490000D02*
X119250000Y-136600000D01*
X118750000Y-134475000D02*
X118750000Y-134990000D01*
X119250000Y-134475000D02*
X119250000Y-135096836D01*
X119250000Y-135096836D02*
X119750000Y-135596836D01*
X119750000Y-135596836D02*
X119750000Y-136110000D01*
X119750000Y-136110000D02*
X119750000Y-136600000D01*
D29*
X120250000Y-136600000D02*
X120250000Y-136010000D01*
X120250000Y-136010000D02*
X120777000Y-135483000D01*
X120777000Y-135483000D02*
X120777000Y-133937000D01*
X120777000Y-133937000D02*
X120590000Y-133750000D01*
X120590000Y-133750000D02*
X119975000Y-133750000D01*
X120750000Y-136600000D02*
X120750000Y-136044586D01*
X120750000Y-136044586D02*
X121155010Y-135639576D01*
X121155010Y-135639576D02*
X121155010Y-133780424D01*
X121155010Y-133780424D02*
X120624586Y-133250000D01*
X120590000Y-133250000D02*
X119975000Y-133250000D01*
X120624586Y-133250000D02*
X120590000Y-133250000D01*
X117250000Y-149737500D02*
X117250000Y-149251258D01*
X116410000Y-145200000D02*
X117025000Y-145200000D01*
X117250000Y-149251258D02*
X115601380Y-147602638D01*
X115601380Y-147602638D02*
X115601380Y-145974034D01*
X115601380Y-145974034D02*
X116375414Y-145200000D01*
X116375414Y-145200000D02*
X116410000Y-145200000D01*
X117750000Y-149737500D02*
X117750000Y-149216672D01*
X115979390Y-146130610D02*
X116410000Y-145700000D01*
X117750000Y-149216672D02*
X115979390Y-147446062D01*
X115979390Y-147446062D02*
X115979390Y-146130610D01*
X116410000Y-145700000D02*
X117025000Y-145700000D01*
X118250000Y-149737500D02*
X118250000Y-149182086D01*
X118250000Y-149182086D02*
X116357400Y-147289486D01*
X116800000Y-146200000D02*
X117025000Y-146200000D01*
X116357400Y-147289486D02*
X116357400Y-146642600D01*
X116357400Y-146642600D02*
X116800000Y-146200000D01*
X118750000Y-149737500D02*
X118750000Y-149147500D01*
X117750000Y-148147500D02*
X117750000Y-147540000D01*
X117750000Y-147540000D02*
X117750000Y-146925000D01*
X118750000Y-149147500D02*
X117750000Y-148147500D01*
X119250000Y-149737500D02*
X119250000Y-148040000D01*
X119250000Y-148040000D02*
X118750000Y-147540000D01*
X118750000Y-147540000D02*
X118750000Y-146925000D01*
X119750000Y-149737500D02*
X119750000Y-147650000D01*
X119750000Y-147650000D02*
X119250000Y-147150000D01*
X119250000Y-147150000D02*
X119250000Y-146925000D01*
X120250000Y-149737500D02*
X120250000Y-147948600D01*
X120250000Y-147948600D02*
X120751600Y-147447000D01*
X120751600Y-147447000D02*
X120751600Y-146361600D01*
X120751600Y-146361600D02*
X120590000Y-146200000D01*
X120590000Y-146200000D02*
X119975000Y-146200000D01*
X120750000Y-149737500D02*
X120750000Y-149147500D01*
X120750000Y-149147500D02*
X121129610Y-148767890D01*
X121129610Y-148767890D02*
X121129610Y-146205024D01*
X121129610Y-146205024D02*
X120624586Y-145700000D01*
X120624586Y-145700000D02*
X120590000Y-145700000D01*
X120590000Y-145700000D02*
X119975000Y-145700000D01*
D32*
G36*
X128348000Y-114986696D02*
X125750000Y-114986696D01*
X125536177Y-115026930D01*
X125339793Y-115153299D01*
X125278503Y-115243000D01*
X123083600Y-115243000D01*
X123060107Y-115247673D01*
X123143258Y-115047424D01*
X123143542Y-114722402D01*
X123019423Y-114422011D01*
X122789798Y-114191985D01*
X122489624Y-114067342D01*
X122164602Y-114067058D01*
X121865849Y-114190500D01*
X121830512Y-114190500D01*
X121750000Y-114174196D01*
X121050000Y-114174196D01*
X120836177Y-114214430D01*
X120639793Y-114340799D01*
X120508046Y-114533617D01*
X120461696Y-114762500D01*
X120461696Y-115012500D01*
X120501930Y-115226323D01*
X120628299Y-115422707D01*
X120821117Y-115554454D01*
X121050000Y-115600804D01*
X121750000Y-115600804D01*
X121836647Y-115584500D01*
X121882473Y-115584500D01*
X122163176Y-115701058D01*
X122311852Y-115701188D01*
X121823882Y-116189158D01*
X121750000Y-116174196D01*
X121050000Y-116174196D01*
X120836177Y-116214430D01*
X120639793Y-116340799D01*
X120508046Y-116533617D01*
X120461696Y-116762500D01*
X120461696Y-117012500D01*
X120501930Y-117226323D01*
X120628299Y-117422707D01*
X120821117Y-117554454D01*
X121050000Y-117600804D01*
X121750000Y-117600804D01*
X121836647Y-117584500D01*
X121902851Y-117584500D01*
X121906408Y-117586877D01*
X122196100Y-117644500D01*
X122485792Y-117586877D01*
X122731380Y-117422780D01*
X122735002Y-117419157D01*
X122735005Y-117419155D01*
X123397160Y-116757000D01*
X125277974Y-116757000D01*
X125328299Y-116835207D01*
X125521117Y-116966954D01*
X125750000Y-117013304D01*
X128348000Y-117013304D01*
X128348000Y-126986696D01*
X125750000Y-126986696D01*
X125536177Y-127026930D01*
X125339793Y-127153299D01*
X125260966Y-127268666D01*
X125100308Y-127300623D01*
X124854720Y-127464720D01*
X124704840Y-127614600D01*
X122199400Y-127614600D01*
X121909709Y-127672223D01*
X121882355Y-127690500D01*
X121830512Y-127690500D01*
X121750000Y-127674196D01*
X121050000Y-127674196D01*
X120836177Y-127714430D01*
X120639793Y-127840799D01*
X120508046Y-128033617D01*
X120461696Y-128262500D01*
X120461696Y-128512500D01*
X120501930Y-128726323D01*
X120628299Y-128922707D01*
X120821117Y-129054454D01*
X121050000Y-129100804D01*
X121750000Y-129100804D01*
X121836647Y-129084500D01*
X121977694Y-129084500D01*
X122199400Y-129128600D01*
X125018400Y-129128600D01*
X125308092Y-129070977D01*
X125492765Y-128947582D01*
X125521117Y-128966954D01*
X125750000Y-129013304D01*
X128348000Y-129013304D01*
X128348000Y-138961696D01*
X125750000Y-138961696D01*
X125536177Y-139001930D01*
X125339793Y-139128299D01*
X125260966Y-139243666D01*
X125100308Y-139275623D01*
X124854720Y-139439720D01*
X124792640Y-139501800D01*
X122199400Y-139501800D01*
X121942000Y-139553000D01*
X121830512Y-139553000D01*
X121750000Y-139536696D01*
X121050000Y-139536696D01*
X120836177Y-139576930D01*
X120639793Y-139703299D01*
X120508046Y-139896117D01*
X120461696Y-140125000D01*
X120461696Y-140375000D01*
X120501930Y-140588823D01*
X120628299Y-140785207D01*
X120821117Y-140916954D01*
X121050000Y-140963304D01*
X121750000Y-140963304D01*
X121836647Y-140947000D01*
X121892981Y-140947000D01*
X121909709Y-140958177D01*
X122199400Y-141015800D01*
X125106200Y-141015800D01*
X125395892Y-140958177D01*
X125471208Y-140907852D01*
X125521117Y-140941954D01*
X125750000Y-140988304D01*
X128348000Y-140988304D01*
X128348000Y-150961696D01*
X125750000Y-150961696D01*
X125536177Y-151001930D01*
X125339793Y-151128299D01*
X125278503Y-151218000D01*
X124707200Y-151218000D01*
X124417508Y-151275623D01*
X124171920Y-151439720D01*
X122978040Y-152633600D01*
X122224800Y-152633600D01*
X121938744Y-152690500D01*
X121830512Y-152690500D01*
X121750000Y-152674196D01*
X121050000Y-152674196D01*
X120836177Y-152714430D01*
X120639793Y-152840799D01*
X120508046Y-153033617D01*
X120461696Y-153262500D01*
X120461696Y-153512500D01*
X120501930Y-153726323D01*
X120628299Y-153922707D01*
X120821117Y-154054454D01*
X121050000Y-154100804D01*
X121750000Y-154100804D01*
X121836647Y-154084500D01*
X121926912Y-154084500D01*
X121935109Y-154089977D01*
X122224800Y-154147600D01*
X123291600Y-154147600D01*
X123581292Y-154089977D01*
X123826880Y-153925880D01*
X125020760Y-152732000D01*
X125277974Y-152732000D01*
X125328299Y-152810207D01*
X125521117Y-152941954D01*
X125750000Y-152988304D01*
X128348000Y-152988304D01*
X128348000Y-155848000D01*
X97652000Y-155848000D01*
X97652000Y-135763304D01*
X100250000Y-135763304D01*
X100463823Y-135723070D01*
X100660207Y-135596701D01*
X100721497Y-135507000D01*
X103155726Y-135507000D01*
X103335000Y-135543304D01*
X103665000Y-135543304D01*
X103746696Y-135527932D01*
X103746696Y-135615000D01*
X103786930Y-135828823D01*
X103913299Y-136025207D01*
X104106117Y-136156954D01*
X104335000Y-136203304D01*
X104665000Y-136203304D01*
X104857937Y-136167000D01*
X105138241Y-136167000D01*
X105321117Y-136291954D01*
X105550000Y-136338304D01*
X105953442Y-136338304D01*
X106543615Y-136928477D01*
X106543615Y-140916357D01*
X105450335Y-142009637D01*
X105286238Y-142255225D01*
X105240974Y-142482785D01*
X105228615Y-142544917D01*
X105228615Y-146024917D01*
X105286238Y-146314609D01*
X105450335Y-146560197D01*
X105925335Y-147035197D01*
X106170924Y-147199294D01*
X106460615Y-147256917D01*
X106655316Y-147256917D01*
X106835000Y-147293304D01*
X107165000Y-147293304D01*
X107246696Y-147277932D01*
X107246696Y-147365000D01*
X107286930Y-147578823D01*
X107413299Y-147775207D01*
X107606117Y-147906954D01*
X107835000Y-147953304D01*
X108165000Y-147953304D01*
X108357937Y-147917000D01*
X109068194Y-147917000D01*
X109128299Y-148010407D01*
X109243000Y-148088779D01*
X109243000Y-149990600D01*
X109300623Y-150280292D01*
X109464720Y-150525880D01*
X109721564Y-150782724D01*
X109712250Y-150829548D01*
X109712250Y-150865605D01*
X109723853Y-150923940D01*
X109723772Y-150926840D01*
X109721464Y-150943186D01*
X109723132Y-150949652D01*
X109722944Y-150956339D01*
X109728842Y-150971791D01*
X109729562Y-150974584D01*
X109731232Y-151034064D01*
X109739256Y-151069217D01*
X109763549Y-151123505D01*
X109764118Y-151126364D01*
X109765506Y-151142817D01*
X109768571Y-151148749D01*
X109769873Y-151155296D01*
X109779043Y-151169020D01*
X109780381Y-151171609D01*
X109795233Y-151229192D01*
X109810877Y-151261679D01*
X109846657Y-151309225D01*
X109859901Y-151338821D01*
X109873321Y-151351508D01*
X109901076Y-151405232D01*
X109923558Y-151433423D01*
X109956306Y-151461075D01*
X109980120Y-151496716D01*
X110261518Y-151778114D01*
X110297159Y-151801928D01*
X110324811Y-151834676D01*
X110353002Y-151857158D01*
X110406726Y-151884913D01*
X110419416Y-151898336D01*
X110449009Y-151911578D01*
X110496546Y-151947353D01*
X110529033Y-151962997D01*
X110586622Y-151977852D01*
X110589214Y-151979191D01*
X110602938Y-151988361D01*
X110609485Y-151989663D01*
X110615417Y-151992728D01*
X110631870Y-151994116D01*
X110634728Y-151994685D01*
X110689020Y-152018979D01*
X110724174Y-152027003D01*
X110783644Y-152028672D01*
X110786461Y-152029399D01*
X110801895Y-152035290D01*
X110808573Y-152035103D01*
X110815038Y-152036770D01*
X110831383Y-152034462D01*
X110834294Y-152034381D01*
X110885355Y-152044537D01*
X110888494Y-152049236D01*
X110898083Y-152086404D01*
X110904850Y-152100455D01*
X110942161Y-152150030D01*
X110962723Y-152195984D01*
X110977419Y-152209879D01*
X110995039Y-152243983D01*
X111004763Y-152256176D01*
X111037509Y-152283826D01*
X111061320Y-152319462D01*
X111471945Y-152730087D01*
X111507598Y-152753909D01*
X111535261Y-152786667D01*
X111547454Y-152796390D01*
X111581539Y-152813997D01*
X111595423Y-152828683D01*
X111641377Y-152849245D01*
X111690952Y-152886556D01*
X111705004Y-152893323D01*
X111742171Y-152902911D01*
X111758982Y-152914144D01*
X111785687Y-152919456D01*
X111809875Y-152931951D01*
X111830007Y-152933649D01*
X111865031Y-152949320D01*
X111880235Y-152952790D01*
X111891959Y-152953119D01*
X112561696Y-153622856D01*
X112561696Y-153640600D01*
X112601930Y-153854423D01*
X112728299Y-154050807D01*
X112921117Y-154182554D01*
X113150000Y-154228904D01*
X113750000Y-154228904D01*
X113963823Y-154188670D01*
X113997939Y-154166717D01*
X114021117Y-154182554D01*
X114250000Y-154228904D01*
X114850000Y-154228904D01*
X115063823Y-154188670D01*
X115127648Y-154147600D01*
X115646200Y-154147600D01*
X115935891Y-154089977D01*
X115944088Y-154084500D01*
X116169488Y-154084500D01*
X116250000Y-154100804D01*
X116950000Y-154100804D01*
X117163823Y-154060570D01*
X117360207Y-153934201D01*
X117491954Y-153741383D01*
X117538304Y-153512500D01*
X117538304Y-153262500D01*
X117498070Y-153048677D01*
X117371701Y-152852293D01*
X117178883Y-152720546D01*
X116950000Y-152674196D01*
X116250000Y-152674196D01*
X116163353Y-152690500D01*
X115932256Y-152690500D01*
X115646200Y-152633600D01*
X115130040Y-152633600D01*
X115078883Y-152598646D01*
X114850000Y-152552296D01*
X114250000Y-152552296D01*
X114036177Y-152592530D01*
X114002061Y-152614483D01*
X113978883Y-152598646D01*
X113750000Y-152552296D01*
X113632256Y-152552296D01*
X112739487Y-151659527D01*
X112703851Y-151635716D01*
X112676201Y-151602970D01*
X112664008Y-151593246D01*
X112629904Y-151575626D01*
X112616009Y-151560930D01*
X112570055Y-151540368D01*
X112520480Y-151503057D01*
X112506429Y-151496290D01*
X112469261Y-151486701D01*
X112452450Y-151475469D01*
X112425766Y-151470161D01*
X112401594Y-151457673D01*
X112381445Y-151455973D01*
X112349653Y-151441748D01*
X112335435Y-151409971D01*
X112333735Y-151389819D01*
X112321245Y-151365644D01*
X112315937Y-151338957D01*
X112304705Y-151322147D01*
X112295116Y-151284978D01*
X112288349Y-151270926D01*
X112251041Y-151221355D01*
X112230482Y-151175406D01*
X112215784Y-151161509D01*
X112198164Y-151127404D01*
X112188442Y-151115212D01*
X112155693Y-151087558D01*
X112131880Y-151051920D01*
X111787514Y-150707554D01*
X111751873Y-150683740D01*
X111724221Y-150650992D01*
X111696030Y-150628510D01*
X111642306Y-150600755D01*
X111629619Y-150587335D01*
X111600023Y-150574091D01*
X111552477Y-150538311D01*
X111519990Y-150522667D01*
X111462407Y-150507815D01*
X111459818Y-150506477D01*
X111446094Y-150497307D01*
X111439547Y-150496005D01*
X111433615Y-150492940D01*
X111417162Y-150491552D01*
X111414303Y-150490983D01*
X111360015Y-150466690D01*
X111324862Y-150458666D01*
X111300258Y-150457975D01*
X111299567Y-150433370D01*
X111291543Y-150398218D01*
X111267250Y-150343930D01*
X111266684Y-150341085D01*
X111265295Y-150324622D01*
X111262228Y-150318686D01*
X111260926Y-150312139D01*
X111251756Y-150298415D01*
X111250419Y-150295827D01*
X111235566Y-150238242D01*
X111219922Y-150205756D01*
X111184142Y-150158210D01*
X111170898Y-150128614D01*
X111157479Y-150115928D01*
X111129725Y-150062206D01*
X111107244Y-150034015D01*
X111074494Y-150006361D01*
X111050680Y-149970720D01*
X110757000Y-149677040D01*
X110757000Y-148088313D01*
X110860207Y-148021901D01*
X110991954Y-147829083D01*
X111038304Y-147600200D01*
X111038304Y-147100200D01*
X110998070Y-146886377D01*
X110871701Y-146689993D01*
X110739432Y-146599617D01*
X110860207Y-146521901D01*
X110991954Y-146329083D01*
X111038304Y-146100200D01*
X111038304Y-145686798D01*
X111057858Y-145686798D01*
X111181977Y-145987189D01*
X111411602Y-146217215D01*
X111711776Y-146341858D01*
X111798114Y-146341933D01*
X111836899Y-146402207D01*
X112029717Y-146533954D01*
X112258600Y-146580304D01*
X112758600Y-146580304D01*
X112972423Y-146540070D01*
X113168807Y-146413701D01*
X113259183Y-146281432D01*
X113311600Y-146362891D01*
X113311600Y-146408385D01*
X113204646Y-146564917D01*
X113158296Y-146793800D01*
X113158296Y-147693800D01*
X113198530Y-147907623D01*
X113324899Y-148104007D01*
X113517717Y-148235754D01*
X113746600Y-148282104D01*
X114246600Y-148282104D01*
X114460423Y-148241870D01*
X114656807Y-148115501D01*
X114788554Y-147922683D01*
X114834904Y-147693800D01*
X114834904Y-146793800D01*
X114794670Y-146579977D01*
X114705600Y-146441558D01*
X114705600Y-146359853D01*
X114800554Y-146220883D01*
X114814248Y-146153258D01*
X114904380Y-146093034D01*
X114904380Y-147602638D01*
X114942433Y-147793944D01*
X114957436Y-147869369D01*
X115108527Y-148095491D01*
X116536696Y-149523661D01*
X116536696Y-150087500D01*
X116553009Y-150174196D01*
X116250000Y-150174196D01*
X116163353Y-150190500D01*
X115786101Y-150190500D01*
X115779398Y-150183785D01*
X115479224Y-150059142D01*
X115154202Y-150058858D01*
X114853811Y-150182977D01*
X114623785Y-150412602D01*
X114499142Y-150712776D01*
X114498858Y-151037798D01*
X114622977Y-151338189D01*
X114852602Y-151568215D01*
X115152776Y-151692858D01*
X115477798Y-151693142D01*
X115740732Y-151584500D01*
X116169488Y-151584500D01*
X116250000Y-151600804D01*
X116950000Y-151600804D01*
X117163823Y-151560570D01*
X117360207Y-151434201D01*
X117477525Y-151262500D01*
X120461696Y-151262500D01*
X120461696Y-151512500D01*
X120501930Y-151726323D01*
X120628299Y-151922707D01*
X120821117Y-152054454D01*
X121050000Y-152100804D01*
X121750000Y-152100804D01*
X121836647Y-152084500D01*
X122111555Y-152084500D01*
X122391776Y-152200858D01*
X122716798Y-152201142D01*
X123017189Y-152077023D01*
X123247215Y-151847398D01*
X123371858Y-151547224D01*
X123372142Y-151222202D01*
X123248023Y-150921811D01*
X123018398Y-150691785D01*
X122718224Y-150567142D01*
X122393202Y-150566858D01*
X122093965Y-150690500D01*
X121830512Y-150690500D01*
X121750000Y-150674196D01*
X121050000Y-150674196D01*
X120836177Y-150714430D01*
X120639793Y-150840799D01*
X120508046Y-151033617D01*
X120461696Y-151262500D01*
X117477525Y-151262500D01*
X117491954Y-151241383D01*
X117538304Y-151012500D01*
X117538304Y-150762500D01*
X117517910Y-150654118D01*
X117625000Y-150675804D01*
X117875000Y-150675804D01*
X118004588Y-150651420D01*
X118125000Y-150675804D01*
X118375000Y-150675804D01*
X118504588Y-150651420D01*
X118625000Y-150675804D01*
X118875000Y-150675804D01*
X119004588Y-150651420D01*
X119125000Y-150675804D01*
X119375000Y-150675804D01*
X119504588Y-150651420D01*
X119625000Y-150675804D01*
X119875000Y-150675804D01*
X120004588Y-150651420D01*
X120125000Y-150675804D01*
X120375000Y-150675804D01*
X120504588Y-150651420D01*
X120625000Y-150675804D01*
X120875000Y-150675804D01*
X121088823Y-150635570D01*
X121285207Y-150509201D01*
X121416954Y-150316383D01*
X121463304Y-150087500D01*
X121463304Y-149419903D01*
X121622464Y-149260743D01*
X121773554Y-149034620D01*
X121826610Y-148767890D01*
X121826610Y-147931856D01*
X122036602Y-148142215D01*
X122336776Y-148266858D01*
X122661798Y-148267142D01*
X122962189Y-148143023D01*
X123192215Y-147913398D01*
X123316858Y-147613224D01*
X123316958Y-147499032D01*
X123416954Y-147352683D01*
X123463304Y-147123800D01*
X123463304Y-146323800D01*
X123423070Y-146109977D01*
X123296701Y-145913593D01*
X123103883Y-145781846D01*
X122875000Y-145735496D01*
X122125000Y-145735496D01*
X121911177Y-145775730D01*
X121738973Y-145886540D01*
X121730126Y-145873299D01*
X121622464Y-145712171D01*
X121245303Y-145335011D01*
X121417215Y-145163398D01*
X121541858Y-144863224D01*
X121542142Y-144538202D01*
X121418023Y-144237811D01*
X121188398Y-144007785D01*
X120888224Y-143883142D01*
X120563202Y-143882858D01*
X120303969Y-143989971D01*
X120218651Y-143973000D01*
X119977000Y-143973000D01*
X119977000Y-143731349D01*
X119953233Y-143611864D01*
X120066858Y-143338224D01*
X120067142Y-143013202D01*
X119943023Y-142712811D01*
X119713398Y-142482785D01*
X119413224Y-142358142D01*
X119088202Y-142357858D01*
X118787811Y-142481977D01*
X118737636Y-142532065D01*
X118713398Y-142507785D01*
X118413224Y-142383142D01*
X118088202Y-142382858D01*
X117787811Y-142506977D01*
X117762380Y-142532363D01*
X117687523Y-142547254D01*
X117643269Y-142556056D01*
X117417146Y-142707147D01*
X117257147Y-142867147D01*
X117106056Y-143093269D01*
X117101599Y-143115678D01*
X117053000Y-143360000D01*
X117053000Y-143580530D01*
X117023000Y-143731349D01*
X117023000Y-143973000D01*
X116781349Y-143973000D01*
X116630530Y-144003000D01*
X115340600Y-144003000D01*
X115073870Y-144056056D01*
X114847747Y-144207146D01*
X114497799Y-144557095D01*
X114487483Y-144550046D01*
X114258600Y-144503696D01*
X113758600Y-144503696D01*
X113544777Y-144543930D01*
X113348393Y-144670299D01*
X113258017Y-144802568D01*
X113180301Y-144681793D01*
X112987483Y-144550046D01*
X112758600Y-144503696D01*
X112258600Y-144503696D01*
X112044777Y-144543930D01*
X111848393Y-144670299D01*
X111822665Y-144707954D01*
X111713202Y-144707858D01*
X111412811Y-144831977D01*
X111182785Y-145061602D01*
X111058142Y-145361776D01*
X111057858Y-145686798D01*
X111038304Y-145686798D01*
X111038304Y-145600200D01*
X110998070Y-145386377D01*
X110871701Y-145189993D01*
X110757000Y-145111621D01*
X110757000Y-143972360D01*
X110875868Y-143853492D01*
X110912586Y-143869923D01*
X110972245Y-143883540D01*
X111028546Y-143885120D01*
X111038599Y-143887713D01*
X111052254Y-143885785D01*
X111057272Y-143885926D01*
X111062208Y-143886908D01*
X111075090Y-143891825D01*
X111085465Y-143891534D01*
X111140696Y-143902520D01*
X111201889Y-143902520D01*
X111257120Y-143891534D01*
X111267495Y-143891825D01*
X111280377Y-143886908D01*
X111285313Y-143885926D01*
X111290331Y-143885785D01*
X111303986Y-143887713D01*
X111314039Y-143885120D01*
X111370340Y-143883540D01*
X111429999Y-143869923D01*
X111481401Y-143846922D01*
X111491580Y-143844897D01*
X111503044Y-143837237D01*
X111507633Y-143835184D01*
X111512502Y-143833928D01*
X111526241Y-143832769D01*
X111535462Y-143828005D01*
X111589991Y-143813940D01*
X111645125Y-143787389D01*
X111690129Y-143753521D01*
X111699604Y-143749281D01*
X111709077Y-143739262D01*
X111713086Y-143736244D01*
X111788659Y-143697203D01*
X111836502Y-143659050D01*
X111864161Y-143626296D01*
X111899806Y-143602478D01*
X112022460Y-143479822D01*
X112046274Y-143444182D01*
X112079028Y-143416523D01*
X112117180Y-143368680D01*
X112156218Y-143293115D01*
X112159242Y-143289097D01*
X112169260Y-143279625D01*
X112173499Y-143270152D01*
X112207363Y-143225155D01*
X112233914Y-143170023D01*
X112247983Y-143115484D01*
X112252747Y-143106262D01*
X112253906Y-143092523D01*
X112255161Y-143087658D01*
X112257216Y-143083065D01*
X112264876Y-143071601D01*
X112266901Y-143061422D01*
X112289902Y-143010020D01*
X112303519Y-142950361D01*
X112305099Y-142894069D01*
X112307691Y-142884019D01*
X112305764Y-142870367D01*
X112305905Y-142865334D01*
X112306887Y-142860398D01*
X112311804Y-142847516D01*
X112311513Y-142837141D01*
X112322499Y-142781910D01*
X112322499Y-142720717D01*
X112311513Y-142665486D01*
X112311804Y-142655111D01*
X112306887Y-142642229D01*
X112305905Y-142637293D01*
X112305764Y-142632260D01*
X112307691Y-142618608D01*
X112305099Y-142608558D01*
X112305090Y-142608235D01*
X112326615Y-142592035D01*
X112369832Y-142572698D01*
X112383525Y-142558215D01*
X112420910Y-142538901D01*
X112435778Y-142527044D01*
X112463432Y-142494295D01*
X112499073Y-142470480D01*
X112888092Y-142081459D01*
X112911907Y-142045818D01*
X112944659Y-142018161D01*
X112956515Y-142003294D01*
X112975818Y-141965930D01*
X112990286Y-141952252D01*
X113009636Y-141909012D01*
X113046706Y-141859753D01*
X113054957Y-141842619D01*
X113065462Y-141801893D01*
X113076528Y-141785331D01*
X113081168Y-141762004D01*
X113092083Y-141740876D01*
X113093757Y-141721035D01*
X113110934Y-141682650D01*
X113115166Y-141664111D01*
X113116348Y-141622040D01*
X113121921Y-141607438D01*
X113632256Y-141097104D01*
X113750000Y-141097104D01*
X113963823Y-141056870D01*
X113997939Y-141034917D01*
X114021117Y-141050754D01*
X114250000Y-141097104D01*
X114850000Y-141097104D01*
X115063823Y-141056870D01*
X115127648Y-141015800D01*
X115646200Y-141015800D01*
X115935891Y-140958177D01*
X115952619Y-140947000D01*
X116169488Y-140947000D01*
X116250000Y-140963304D01*
X116950000Y-140963304D01*
X117163823Y-140923070D01*
X117360207Y-140796701D01*
X117491954Y-140603883D01*
X117538304Y-140375000D01*
X117538304Y-140125000D01*
X117498070Y-139911177D01*
X117371701Y-139714793D01*
X117178883Y-139583046D01*
X116950000Y-139536696D01*
X116250000Y-139536696D01*
X116163353Y-139553000D01*
X115903600Y-139553000D01*
X115646200Y-139501800D01*
X115130040Y-139501800D01*
X115078883Y-139466846D01*
X114850000Y-139420496D01*
X114250000Y-139420496D01*
X114036177Y-139460730D01*
X114002061Y-139482683D01*
X113978883Y-139466846D01*
X113750000Y-139420496D01*
X113150000Y-139420496D01*
X112936177Y-139460730D01*
X112739793Y-139587099D01*
X112608046Y-139779917D01*
X112561696Y-140008800D01*
X112561696Y-140026544D01*
X112036849Y-140551390D01*
X111817534Y-140770704D01*
X111793720Y-140806344D01*
X111760968Y-140834000D01*
X111749111Y-140848868D01*
X111729797Y-140886253D01*
X111715314Y-140899946D01*
X111695977Y-140943163D01*
X111658923Y-140992398D01*
X111650672Y-141009531D01*
X111640163Y-141050271D01*
X111629095Y-141066835D01*
X111624456Y-141090156D01*
X111613541Y-141111284D01*
X111611866Y-141131143D01*
X111594679Y-141169554D01*
X111593282Y-141175673D01*
X111587175Y-141177067D01*
X111548747Y-141194261D01*
X111528872Y-141195938D01*
X111507753Y-141206849D01*
X111484448Y-141211485D01*
X111467883Y-141222554D01*
X111427143Y-141233063D01*
X111410010Y-141241313D01*
X111360780Y-141278363D01*
X111317565Y-141297699D01*
X111303862Y-141312192D01*
X111266461Y-141331516D01*
X111251594Y-141343373D01*
X111223950Y-141376113D01*
X111188320Y-141399920D01*
X110951896Y-141636344D01*
X110951892Y-141636346D01*
X110904842Y-141683397D01*
X110887060Y-141710011D01*
X110857180Y-141747478D01*
X110840662Y-141779452D01*
X110829041Y-141796844D01*
X110740752Y-141928978D01*
X110740751Y-141928982D01*
X110740748Y-141928987D01*
X110726879Y-141998714D01*
X110726373Y-142000676D01*
X110721611Y-142009894D01*
X110720452Y-142023630D01*
X110719193Y-142028511D01*
X110717140Y-142033100D01*
X110709480Y-142044564D01*
X110707455Y-142054743D01*
X110684454Y-142106145D01*
X110670837Y-142165804D01*
X110669257Y-142222105D01*
X110666664Y-142232158D01*
X110668592Y-142245813D01*
X110668515Y-142248537D01*
X110665792Y-142248614D01*
X110652137Y-142246686D01*
X110642084Y-142249279D01*
X110585783Y-142250859D01*
X110526124Y-142264476D01*
X110474722Y-142287477D01*
X110464543Y-142289502D01*
X110453079Y-142297162D01*
X110448490Y-142299215D01*
X110443603Y-142300476D01*
X110429865Y-142301635D01*
X110420647Y-142306397D01*
X110366132Y-142320459D01*
X110310999Y-142347009D01*
X110265994Y-142380878D01*
X110256519Y-142385118D01*
X110247047Y-142395137D01*
X110243028Y-142398161D01*
X110167451Y-142437207D01*
X110119609Y-142475361D01*
X110091958Y-142508107D01*
X110056320Y-142531920D01*
X109464720Y-143123520D01*
X109300623Y-143369108D01*
X109254203Y-143602478D01*
X109243000Y-143658800D01*
X109243000Y-145083000D01*
X108344274Y-145083000D01*
X108165000Y-145046696D01*
X107835000Y-145046696D01*
X107621177Y-145086930D01*
X107424793Y-145213299D01*
X107293046Y-145406117D01*
X107246696Y-145635000D01*
X107246696Y-145723240D01*
X107165000Y-145706696D01*
X106835000Y-145706696D01*
X106753323Y-145722065D01*
X106742615Y-145711357D01*
X106742615Y-142858477D01*
X107835895Y-141765197D01*
X107999992Y-141519609D01*
X108057615Y-141229917D01*
X108057615Y-136614917D01*
X108030960Y-136480914D01*
X107999992Y-136325225D01*
X107835895Y-136079637D01*
X107038304Y-135282046D01*
X107038304Y-135250000D01*
X106998070Y-135036177D01*
X106871701Y-134839793D01*
X106739432Y-134749417D01*
X106860207Y-134671701D01*
X106991954Y-134478883D01*
X107038304Y-134250000D01*
X107038304Y-134232256D01*
X107850280Y-133420280D01*
X108014377Y-133174692D01*
X108072000Y-132885000D01*
X108072000Y-130851400D01*
X110340696Y-130851400D01*
X110340696Y-131351400D01*
X110380930Y-131565223D01*
X110507299Y-131761607D01*
X110639568Y-131851983D01*
X110518793Y-131929699D01*
X110387046Y-132122517D01*
X110340696Y-132351400D01*
X110340696Y-132851400D01*
X110380930Y-133065223D01*
X110507299Y-133261607D01*
X110700117Y-133393354D01*
X110929000Y-133439704D01*
X111829000Y-133439704D01*
X112042823Y-133399470D01*
X112199891Y-133298400D01*
X112516947Y-133298400D01*
X112655917Y-133393354D01*
X112884800Y-133439704D01*
X113784800Y-133439704D01*
X113998623Y-133399470D01*
X114155691Y-133298400D01*
X114867902Y-133298400D01*
X114827250Y-133359240D01*
X114778000Y-133606836D01*
X114778000Y-134500000D01*
X114827250Y-134747596D01*
X114967502Y-134957498D01*
X115742502Y-135732498D01*
X115952404Y-135872750D01*
X116133845Y-135908841D01*
X116536696Y-136311692D01*
X116536696Y-136950000D01*
X116553009Y-137036696D01*
X116250000Y-137036696D01*
X116163353Y-137053000D01*
X115913502Y-137053000D01*
X115733224Y-136978142D01*
X115408202Y-136977858D01*
X115107811Y-137101977D01*
X114877785Y-137331602D01*
X114753142Y-137631776D01*
X114752858Y-137956798D01*
X114876977Y-138257189D01*
X115106602Y-138487215D01*
X115406776Y-138611858D01*
X115731798Y-138612142D01*
X116032189Y-138488023D01*
X116073284Y-138447000D01*
X116169488Y-138447000D01*
X116250000Y-138463304D01*
X116950000Y-138463304D01*
X117163823Y-138423070D01*
X117360207Y-138296701D01*
X117477525Y-138125000D01*
X120461696Y-138125000D01*
X120461696Y-138375000D01*
X120501930Y-138588823D01*
X120628299Y-138785207D01*
X120821117Y-138916954D01*
X121050000Y-138963304D01*
X121750000Y-138963304D01*
X121836647Y-138947000D01*
X122281338Y-138947000D01*
X122391776Y-138992858D01*
X122716798Y-138993142D01*
X123017189Y-138869023D01*
X123247215Y-138639398D01*
X123371858Y-138339224D01*
X123372142Y-138014202D01*
X123248023Y-137713811D01*
X123018398Y-137483785D01*
X122718224Y-137359142D01*
X122393202Y-137358858D01*
X122092811Y-137482977D01*
X122022666Y-137553000D01*
X121830512Y-137553000D01*
X121750000Y-137536696D01*
X121050000Y-137536696D01*
X120836177Y-137576930D01*
X120639793Y-137703299D01*
X120508046Y-137896117D01*
X120461696Y-138125000D01*
X117477525Y-138125000D01*
X117491954Y-138103883D01*
X117538304Y-137875000D01*
X117538304Y-137625000D01*
X117517910Y-137516618D01*
X117625000Y-137538304D01*
X117875000Y-137538304D01*
X118004588Y-137513920D01*
X118125000Y-137538304D01*
X118375000Y-137538304D01*
X118504588Y-137513920D01*
X118625000Y-137538304D01*
X118875000Y-137538304D01*
X119004588Y-137513920D01*
X119125000Y-137538304D01*
X119375000Y-137538304D01*
X119504588Y-137513920D01*
X119625000Y-137538304D01*
X119875000Y-137538304D01*
X120004588Y-137513920D01*
X120125000Y-137538304D01*
X120375000Y-137538304D01*
X120504588Y-137513920D01*
X120625000Y-137538304D01*
X120875000Y-137538304D01*
X121088823Y-137498070D01*
X121285207Y-137371701D01*
X121416954Y-137178883D01*
X121463304Y-136950000D01*
X121463304Y-136316989D01*
X121647864Y-136132429D01*
X121798954Y-135906306D01*
X121852010Y-135639576D01*
X121852010Y-135507301D01*
X122036602Y-135692215D01*
X122336776Y-135816858D01*
X122661798Y-135817142D01*
X122962189Y-135693023D01*
X123192215Y-135463398D01*
X123316858Y-135163224D01*
X123316979Y-135025202D01*
X123416954Y-134878883D01*
X123463304Y-134650000D01*
X123463304Y-133850000D01*
X123423070Y-133636177D01*
X123296701Y-133439793D01*
X123103883Y-133308046D01*
X122875000Y-133261696D01*
X122125000Y-133261696D01*
X121911177Y-133301930D01*
X121733746Y-133416103D01*
X121647864Y-133287571D01*
X121245303Y-132885011D01*
X121417215Y-132713398D01*
X121541858Y-132413224D01*
X121542142Y-132088202D01*
X121418023Y-131787811D01*
X121188398Y-131557785D01*
X120888224Y-131433142D01*
X120747254Y-131433019D01*
X120942215Y-131238398D01*
X121066858Y-130938224D01*
X121067142Y-130613202D01*
X120943023Y-130312811D01*
X120713398Y-130082785D01*
X120413224Y-129958142D01*
X120088202Y-129957858D01*
X119787811Y-130081977D01*
X119741708Y-130128000D01*
X118985000Y-130128000D01*
X118737404Y-130177250D01*
X118527502Y-130317502D01*
X118316955Y-130528049D01*
X118242853Y-130417146D01*
X118132853Y-130307147D01*
X117906731Y-130156056D01*
X117862477Y-130147254D01*
X117787903Y-130132420D01*
X117713398Y-130057785D01*
X117413224Y-129933142D01*
X117088202Y-129932858D01*
X116787811Y-130056977D01*
X116557785Y-130286602D01*
X116433142Y-130586776D01*
X116432858Y-130911798D01*
X116556977Y-131212189D01*
X116786602Y-131442215D01*
X116981154Y-131523000D01*
X116781349Y-131523000D01*
X116630530Y-131553000D01*
X116306242Y-131553000D01*
X116039512Y-131606056D01*
X115813389Y-131757146D01*
X115666135Y-131904400D01*
X114152653Y-131904400D01*
X114013683Y-131809446D01*
X113784800Y-131763096D01*
X112884800Y-131763096D01*
X112670977Y-131803330D01*
X112513909Y-131904400D01*
X112367636Y-131904400D01*
X112637189Y-131793023D01*
X112867215Y-131563398D01*
X112991858Y-131263224D01*
X112992142Y-130938202D01*
X112868023Y-130637811D01*
X112638398Y-130407785D01*
X112338224Y-130283142D01*
X112013202Y-130282858D01*
X111984714Y-130294629D01*
X111829000Y-130263096D01*
X110929000Y-130263096D01*
X110715177Y-130303330D01*
X110518793Y-130429699D01*
X110387046Y-130622517D01*
X110340696Y-130851400D01*
X108072000Y-130851400D01*
X108072000Y-128270000D01*
X108039154Y-128104870D01*
X108014377Y-127980308D01*
X107850280Y-127734720D01*
X106757000Y-126641440D01*
X106757000Y-123788560D01*
X106766190Y-123779370D01*
X106835000Y-123793304D01*
X107165000Y-123793304D01*
X107246696Y-123777932D01*
X107246696Y-123865000D01*
X107286930Y-124078823D01*
X107413299Y-124275207D01*
X107606117Y-124406954D01*
X107835000Y-124453304D01*
X108165000Y-124453304D01*
X108357937Y-124417000D01*
X109138241Y-124417000D01*
X109243000Y-124488579D01*
X109243000Y-124997000D01*
X109300623Y-125286692D01*
X109464720Y-125532280D01*
X109573033Y-125640593D01*
X109573002Y-125640656D01*
X109551758Y-125723014D01*
X109517019Y-125800649D01*
X109499399Y-125877847D01*
X109497013Y-125962871D01*
X109480419Y-126046296D01*
X109480419Y-126125480D01*
X109497012Y-126208901D01*
X109499397Y-126293920D01*
X109517016Y-126371118D01*
X109551758Y-126448763D01*
X109573008Y-126531136D01*
X109607366Y-126602479D01*
X109658513Y-126670440D01*
X109697550Y-126746003D01*
X109746919Y-126807911D01*
X109779671Y-126835568D01*
X109803486Y-126871209D01*
X109812522Y-126880245D01*
X109848168Y-126904063D01*
X109875826Y-126936816D01*
X109937734Y-126986185D01*
X110013296Y-127025221D01*
X110081252Y-127076364D01*
X110152595Y-127110722D01*
X110234964Y-127131970D01*
X110312604Y-127166712D01*
X110389802Y-127184332D01*
X110474825Y-127186718D01*
X110558251Y-127203312D01*
X110637435Y-127203312D01*
X110720860Y-127186718D01*
X110805884Y-127184332D01*
X110883082Y-127166712D01*
X110960729Y-127131967D01*
X111043098Y-127110718D01*
X111108161Y-127079384D01*
X111130194Y-127125137D01*
X111181343Y-127193103D01*
X111220384Y-127268674D01*
X111269755Y-127330583D01*
X111302504Y-127358237D01*
X111326320Y-127393880D01*
X112561696Y-128629256D01*
X112561696Y-128647000D01*
X112601930Y-128860823D01*
X112728299Y-129057207D01*
X112921117Y-129188954D01*
X113150000Y-129235304D01*
X113750000Y-129235304D01*
X113963823Y-129195070D01*
X113997939Y-129173117D01*
X114021117Y-129188954D01*
X114250000Y-129235304D01*
X114850000Y-129235304D01*
X115063823Y-129195070D01*
X115127648Y-129154000D01*
X115646200Y-129154000D01*
X115935891Y-129096377D01*
X115953666Y-129084500D01*
X116169488Y-129084500D01*
X116250000Y-129100804D01*
X116950000Y-129100804D01*
X117163823Y-129060570D01*
X117360207Y-128934201D01*
X117491954Y-128741383D01*
X117538304Y-128512500D01*
X117538304Y-128262500D01*
X117498070Y-128048677D01*
X117371701Y-127852293D01*
X117178883Y-127720546D01*
X116950000Y-127674196D01*
X116250000Y-127674196D01*
X116163353Y-127690500D01*
X115900081Y-127690500D01*
X115646200Y-127640000D01*
X115130040Y-127640000D01*
X115078883Y-127605046D01*
X114850000Y-127558696D01*
X114250000Y-127558696D01*
X114036177Y-127598930D01*
X114002061Y-127620883D01*
X113978883Y-127605046D01*
X113750000Y-127558696D01*
X113632256Y-127558696D01*
X112627333Y-126553773D01*
X112627361Y-126553714D01*
X112648606Y-126471353D01*
X112683346Y-126393716D01*
X112700966Y-126316518D01*
X112703352Y-126231495D01*
X112719946Y-126148069D01*
X112719946Y-126068885D01*
X112703352Y-125985463D01*
X112700967Y-125900438D01*
X112683347Y-125823239D01*
X112648605Y-125745598D01*
X112627361Y-125663239D01*
X112593005Y-125591898D01*
X112541857Y-125523933D01*
X112502816Y-125448362D01*
X112453446Y-125386454D01*
X112420696Y-125358799D01*
X112396880Y-125323156D01*
X112387844Y-125314120D01*
X112352203Y-125290305D01*
X112324546Y-125257553D01*
X112262638Y-125208184D01*
X112187070Y-125169144D01*
X112119110Y-125117999D01*
X112047768Y-125083641D01*
X111965402Y-125062394D01*
X111887761Y-125027652D01*
X111810562Y-125010032D01*
X111725537Y-125007647D01*
X111642115Y-124991053D01*
X111562931Y-124991053D01*
X111479505Y-125007647D01*
X111394482Y-125010033D01*
X111317284Y-125027653D01*
X111239645Y-125062394D01*
X111157279Y-125083641D01*
X111092204Y-125114980D01*
X111070170Y-125069227D01*
X111019022Y-125001262D01*
X110979981Y-124925691D01*
X110930611Y-124863783D01*
X110897861Y-124836128D01*
X110874045Y-124800485D01*
X110757000Y-124683440D01*
X110757000Y-124488113D01*
X110860207Y-124421701D01*
X110991954Y-124228883D01*
X111038304Y-124000000D01*
X111038304Y-123500000D01*
X110998070Y-123286177D01*
X110871701Y-123089793D01*
X110739432Y-122999417D01*
X110860207Y-122921701D01*
X110991954Y-122728883D01*
X111038304Y-122500000D01*
X111038304Y-122000000D01*
X111000709Y-121800200D01*
X111644896Y-121800200D01*
X111644896Y-122700200D01*
X111685130Y-122914023D01*
X111811499Y-123110407D01*
X112004317Y-123242154D01*
X112233200Y-123288504D01*
X112733200Y-123288504D01*
X112947023Y-123248270D01*
X113143407Y-123121901D01*
X113233783Y-122989632D01*
X113286200Y-123071091D01*
X113286200Y-123425321D01*
X113216646Y-123527117D01*
X113170296Y-123756000D01*
X113170296Y-124656000D01*
X113210530Y-124869823D01*
X113336899Y-125066207D01*
X113529717Y-125197954D01*
X113758600Y-125244304D01*
X114258600Y-125244304D01*
X114472423Y-125204070D01*
X114668807Y-125077701D01*
X114800554Y-124884883D01*
X114846904Y-124656000D01*
X114846904Y-123756000D01*
X114806670Y-123542177D01*
X114680301Y-123345793D01*
X114680200Y-123345724D01*
X114680200Y-123068053D01*
X114775154Y-122929083D01*
X114788848Y-122861458D01*
X114966053Y-122743053D01*
X115053000Y-122656106D01*
X115053000Y-122686330D01*
X115102250Y-122933926D01*
X115242502Y-123143828D01*
X116536696Y-124438022D01*
X116536696Y-125087500D01*
X116553009Y-125174196D01*
X116250000Y-125174196D01*
X116163353Y-125190500D01*
X115789476Y-125190500D01*
X115733224Y-125167142D01*
X115408202Y-125166858D01*
X115107811Y-125290977D01*
X114877785Y-125520602D01*
X114753142Y-125820776D01*
X114752858Y-126145798D01*
X114876977Y-126446189D01*
X115106602Y-126676215D01*
X115406776Y-126800858D01*
X115731798Y-126801142D01*
X116032189Y-126677023D01*
X116124874Y-126584500D01*
X116169488Y-126584500D01*
X116250000Y-126600804D01*
X116950000Y-126600804D01*
X117163823Y-126560570D01*
X117360207Y-126434201D01*
X117477525Y-126262500D01*
X120461696Y-126262500D01*
X120461696Y-126512500D01*
X120501930Y-126726323D01*
X120628299Y-126922707D01*
X120821117Y-127054454D01*
X121050000Y-127100804D01*
X121750000Y-127100804D01*
X121836647Y-127084500D01*
X122284312Y-127084500D01*
X122518776Y-127181858D01*
X122843798Y-127182142D01*
X123144189Y-127058023D01*
X123374215Y-126828398D01*
X123498858Y-126528224D01*
X123499142Y-126203202D01*
X123375023Y-125902811D01*
X123145398Y-125672785D01*
X122845224Y-125548142D01*
X122520202Y-125547858D01*
X122219811Y-125671977D01*
X122201256Y-125690500D01*
X121830512Y-125690500D01*
X121750000Y-125674196D01*
X121050000Y-125674196D01*
X120836177Y-125714430D01*
X120639793Y-125840799D01*
X120508046Y-126033617D01*
X120461696Y-126262500D01*
X117477525Y-126262500D01*
X117491954Y-126241383D01*
X117538304Y-126012500D01*
X117538304Y-125762500D01*
X117517910Y-125654118D01*
X117625000Y-125675804D01*
X117875000Y-125675804D01*
X118004588Y-125651420D01*
X118125000Y-125675804D01*
X118375000Y-125675804D01*
X118504588Y-125651420D01*
X118625000Y-125675804D01*
X118875000Y-125675804D01*
X119004588Y-125651420D01*
X119125000Y-125675804D01*
X119375000Y-125675804D01*
X119504588Y-125651420D01*
X119625000Y-125675804D01*
X119875000Y-125675804D01*
X120004588Y-125651420D01*
X120125000Y-125675804D01*
X120375000Y-125675804D01*
X120504588Y-125651420D01*
X120625000Y-125675804D01*
X120875000Y-125675804D01*
X121088823Y-125635570D01*
X121285207Y-125509201D01*
X121416954Y-125316383D01*
X121463304Y-125087500D01*
X121463304Y-124419903D01*
X121520864Y-124362343D01*
X121671954Y-124136220D01*
X121725010Y-123869490D01*
X121725010Y-122020442D01*
X121896117Y-122137354D01*
X122125000Y-122183704D01*
X122875000Y-122183704D01*
X123088823Y-122143470D01*
X123285207Y-122017101D01*
X123416954Y-121824283D01*
X123463304Y-121595400D01*
X123463304Y-120795400D01*
X123423070Y-120581577D01*
X123317030Y-120416785D01*
X123317142Y-120288202D01*
X123193023Y-119987811D01*
X122963398Y-119757785D01*
X122663224Y-119633142D01*
X122338202Y-119632858D01*
X122037811Y-119756977D01*
X121807785Y-119986602D01*
X121683142Y-120286776D01*
X121683025Y-120420192D01*
X121583046Y-120566517D01*
X121566895Y-120646275D01*
X121567142Y-120363202D01*
X121460741Y-120105693D01*
X121563215Y-120003398D01*
X121687858Y-119703224D01*
X121688142Y-119378202D01*
X121564023Y-119077811D01*
X121334398Y-118847785D01*
X121034224Y-118723142D01*
X120959426Y-118723077D01*
X120778596Y-118602250D01*
X120531000Y-118553000D01*
X119347000Y-118553000D01*
X119099404Y-118602250D01*
X119006086Y-118664603D01*
X118942386Y-118622040D01*
X118694790Y-118572790D01*
X117478377Y-118572790D01*
X117463398Y-118557785D01*
X117163224Y-118433142D01*
X116838202Y-118432858D01*
X116537811Y-118556977D01*
X116307785Y-118786602D01*
X116183142Y-119086776D01*
X116182858Y-119411798D01*
X116306977Y-119712189D01*
X116425381Y-119830800D01*
X116195600Y-119830800D01*
X115928870Y-119883856D01*
X115909199Y-119897000D01*
X115702746Y-120034947D01*
X114472399Y-121265295D01*
X114462083Y-121258246D01*
X114233200Y-121211896D01*
X113733200Y-121211896D01*
X113519377Y-121252130D01*
X113322993Y-121378499D01*
X113317034Y-121387221D01*
X113317142Y-121263202D01*
X113193023Y-120962811D01*
X112963398Y-120732785D01*
X112663224Y-120608142D01*
X112338202Y-120607858D01*
X112037811Y-120731977D01*
X111807785Y-120961602D01*
X111683142Y-121261776D01*
X111682858Y-121586798D01*
X111686383Y-121595330D01*
X111644896Y-121800200D01*
X111000709Y-121800200D01*
X110998070Y-121786177D01*
X110871701Y-121589793D01*
X110757000Y-121511421D01*
X110757000Y-120604360D01*
X111552825Y-119808535D01*
X111599321Y-119820528D01*
X111676952Y-119855267D01*
X111749284Y-119871777D01*
X111834313Y-119874164D01*
X111917739Y-119890758D01*
X111991931Y-119890758D01*
X112075357Y-119874164D01*
X112160386Y-119871777D01*
X112232718Y-119855267D01*
X112310349Y-119820528D01*
X112392706Y-119799285D01*
X112459551Y-119767095D01*
X112527517Y-119715947D01*
X112603088Y-119676906D01*
X112661094Y-119630648D01*
X112688755Y-119597891D01*
X112724400Y-119574073D01*
X112764960Y-119533513D01*
X112788773Y-119497873D01*
X112821521Y-119470220D01*
X112867778Y-119412215D01*
X112906817Y-119336647D01*
X112957964Y-119268685D01*
X112990155Y-119201841D01*
X113011402Y-119119474D01*
X113046143Y-119041834D01*
X113062652Y-118969502D01*
X113065037Y-118884480D01*
X113081631Y-118801057D01*
X113081631Y-118726865D01*
X113065037Y-118643442D01*
X113062652Y-118558420D01*
X113046143Y-118486088D01*
X113011402Y-118408448D01*
X112999408Y-118361951D01*
X113632255Y-117729104D01*
X113750000Y-117729104D01*
X113963823Y-117688870D01*
X113997939Y-117666917D01*
X114021117Y-117682754D01*
X114250000Y-117729104D01*
X114850000Y-117729104D01*
X115063823Y-117688870D01*
X115127648Y-117647800D01*
X115646200Y-117647800D01*
X115935891Y-117590177D01*
X115944387Y-117584500D01*
X116169488Y-117584500D01*
X116250000Y-117600804D01*
X116950000Y-117600804D01*
X117163823Y-117560570D01*
X117360207Y-117434201D01*
X117491954Y-117241383D01*
X117538304Y-117012500D01*
X117538304Y-116762500D01*
X117498070Y-116548677D01*
X117371701Y-116352293D01*
X117178883Y-116220546D01*
X116950000Y-116174196D01*
X116250000Y-116174196D01*
X116163353Y-116190500D01*
X115931251Y-116190500D01*
X115646200Y-116133800D01*
X115130040Y-116133800D01*
X115078883Y-116098846D01*
X114850000Y-116052496D01*
X114250000Y-116052496D01*
X114036177Y-116092730D01*
X114002061Y-116114683D01*
X113978883Y-116098846D01*
X113750000Y-116052496D01*
X113150000Y-116052496D01*
X112936177Y-116092730D01*
X112739793Y-116219099D01*
X112608046Y-116411917D01*
X112561696Y-116640800D01*
X112561696Y-116658544D01*
X111694394Y-117525845D01*
X111694391Y-117525847D01*
X111565246Y-117654993D01*
X111527359Y-117711696D01*
X111401151Y-117900579D01*
X111401151Y-117900581D01*
X111401150Y-117900582D01*
X111379577Y-118009041D01*
X111343528Y-118190271D01*
X111343528Y-118190274D01*
X111346255Y-118203983D01*
X111280727Y-118205822D01*
X111208395Y-118222332D01*
X111130764Y-118257071D01*
X111048407Y-118278314D01*
X110981562Y-118310504D01*
X110913592Y-118361656D01*
X110838013Y-118400702D01*
X110780009Y-118446961D01*
X110752358Y-118479708D01*
X110716720Y-118503520D01*
X109464720Y-119755520D01*
X109338304Y-119944715D01*
X109338304Y-119800000D01*
X109298070Y-119586177D01*
X109242978Y-119500561D01*
X109291954Y-119428883D01*
X109338304Y-119200000D01*
X109338304Y-118626692D01*
X110507498Y-117457498D01*
X110647750Y-117247596D01*
X110697000Y-117000000D01*
X110697000Y-116310000D01*
X110666921Y-116158785D01*
X113606707Y-113219000D01*
X116470794Y-113219000D01*
X116536696Y-113284903D01*
X116536696Y-113587500D01*
X116553009Y-113674196D01*
X116250000Y-113674196D01*
X116176227Y-113688078D01*
X115917210Y-113686604D01*
X115913398Y-113682785D01*
X115613224Y-113558142D01*
X115288202Y-113557858D01*
X114987811Y-113681977D01*
X114757785Y-113911602D01*
X114633142Y-114211776D01*
X114632858Y-114536798D01*
X114756977Y-114837189D01*
X114986602Y-115067215D01*
X115286776Y-115191858D01*
X115611798Y-115192142D01*
X115881791Y-115080583D01*
X115891808Y-115080583D01*
X115911500Y-115084500D01*
X115930588Y-115080703D01*
X116157103Y-115081992D01*
X116250000Y-115100804D01*
X116950000Y-115100804D01*
X117163823Y-115060570D01*
X117360207Y-114934201D01*
X117491954Y-114741383D01*
X117538304Y-114512500D01*
X117538304Y-114262500D01*
X117517910Y-114154118D01*
X117625000Y-114175804D01*
X117875000Y-114175804D01*
X118004588Y-114151420D01*
X118125000Y-114175804D01*
X118375000Y-114175804D01*
X118504588Y-114151420D01*
X118625000Y-114175804D01*
X118875000Y-114175804D01*
X119004588Y-114151420D01*
X119125000Y-114175804D01*
X119375000Y-114175804D01*
X119504588Y-114151420D01*
X119625000Y-114175804D01*
X119875000Y-114175804D01*
X120004588Y-114151420D01*
X120125000Y-114175804D01*
X120375000Y-114175804D01*
X120504588Y-114151420D01*
X120625000Y-114175804D01*
X120875000Y-114175804D01*
X121088823Y-114135570D01*
X121285207Y-114009201D01*
X121416954Y-113816383D01*
X121463304Y-113587500D01*
X121463304Y-112887500D01*
X121447000Y-112800853D01*
X121447000Y-112391170D01*
X121393944Y-112124440D01*
X121367571Y-112084970D01*
X121242854Y-111898317D01*
X119496536Y-110152000D01*
X128348000Y-110152000D01*
X128348000Y-114986696D01*
X128348000Y-114986696D01*
G37*
X128348000Y-114986696D02*
X125750000Y-114986696D01*
X125536177Y-115026930D01*
X125339793Y-115153299D01*
X125278503Y-115243000D01*
X123083600Y-115243000D01*
X123060107Y-115247673D01*
X123143258Y-115047424D01*
X123143542Y-114722402D01*
X123019423Y-114422011D01*
X122789798Y-114191985D01*
X122489624Y-114067342D01*
X122164602Y-114067058D01*
X121865849Y-114190500D01*
X121830512Y-114190500D01*
X121750000Y-114174196D01*
X121050000Y-114174196D01*
X120836177Y-114214430D01*
X120639793Y-114340799D01*
X120508046Y-114533617D01*
X120461696Y-114762500D01*
X120461696Y-115012500D01*
X120501930Y-115226323D01*
X120628299Y-115422707D01*
X120821117Y-115554454D01*
X121050000Y-115600804D01*
X121750000Y-115600804D01*
X121836647Y-115584500D01*
X121882473Y-115584500D01*
X122163176Y-115701058D01*
X122311852Y-115701188D01*
X121823882Y-116189158D01*
X121750000Y-116174196D01*
X121050000Y-116174196D01*
X120836177Y-116214430D01*
X120639793Y-116340799D01*
X120508046Y-116533617D01*
X120461696Y-116762500D01*
X120461696Y-117012500D01*
X120501930Y-117226323D01*
X120628299Y-117422707D01*
X120821117Y-117554454D01*
X121050000Y-117600804D01*
X121750000Y-117600804D01*
X121836647Y-117584500D01*
X121902851Y-117584500D01*
X121906408Y-117586877D01*
X122196100Y-117644500D01*
X122485792Y-117586877D01*
X122731380Y-117422780D01*
X122735002Y-117419157D01*
X122735005Y-117419155D01*
X123397160Y-116757000D01*
X125277974Y-116757000D01*
X125328299Y-116835207D01*
X125521117Y-116966954D01*
X125750000Y-117013304D01*
X128348000Y-117013304D01*
X128348000Y-126986696D01*
X125750000Y-126986696D01*
X125536177Y-127026930D01*
X125339793Y-127153299D01*
X125260966Y-127268666D01*
X125100308Y-127300623D01*
X124854720Y-127464720D01*
X124704840Y-127614600D01*
X122199400Y-127614600D01*
X121909709Y-127672223D01*
X121882355Y-127690500D01*
X121830512Y-127690500D01*
X121750000Y-127674196D01*
X121050000Y-127674196D01*
X120836177Y-127714430D01*
X120639793Y-127840799D01*
X120508046Y-128033617D01*
X120461696Y-128262500D01*
X120461696Y-128512500D01*
X120501930Y-128726323D01*
X120628299Y-128922707D01*
X120821117Y-129054454D01*
X121050000Y-129100804D01*
X121750000Y-129100804D01*
X121836647Y-129084500D01*
X121977694Y-129084500D01*
X122199400Y-129128600D01*
X125018400Y-129128600D01*
X125308092Y-129070977D01*
X125492765Y-128947582D01*
X125521117Y-128966954D01*
X125750000Y-129013304D01*
X128348000Y-129013304D01*
X128348000Y-138961696D01*
X125750000Y-138961696D01*
X125536177Y-139001930D01*
X125339793Y-139128299D01*
X125260966Y-139243666D01*
X125100308Y-139275623D01*
X124854720Y-139439720D01*
X124792640Y-139501800D01*
X122199400Y-139501800D01*
X121942000Y-139553000D01*
X121830512Y-139553000D01*
X121750000Y-139536696D01*
X121050000Y-139536696D01*
X120836177Y-139576930D01*
X120639793Y-139703299D01*
X120508046Y-139896117D01*
X120461696Y-140125000D01*
X120461696Y-140375000D01*
X120501930Y-140588823D01*
X120628299Y-140785207D01*
X120821117Y-140916954D01*
X121050000Y-140963304D01*
X121750000Y-140963304D01*
X121836647Y-140947000D01*
X121892981Y-140947000D01*
X121909709Y-140958177D01*
X122199400Y-141015800D01*
X125106200Y-141015800D01*
X125395892Y-140958177D01*
X125471208Y-140907852D01*
X125521117Y-140941954D01*
X125750000Y-140988304D01*
X128348000Y-140988304D01*
X128348000Y-150961696D01*
X125750000Y-150961696D01*
X125536177Y-151001930D01*
X125339793Y-151128299D01*
X125278503Y-151218000D01*
X124707200Y-151218000D01*
X124417508Y-151275623D01*
X124171920Y-151439720D01*
X122978040Y-152633600D01*
X122224800Y-152633600D01*
X121938744Y-152690500D01*
X121830512Y-152690500D01*
X121750000Y-152674196D01*
X121050000Y-152674196D01*
X120836177Y-152714430D01*
X120639793Y-152840799D01*
X120508046Y-153033617D01*
X120461696Y-153262500D01*
X120461696Y-153512500D01*
X120501930Y-153726323D01*
X120628299Y-153922707D01*
X120821117Y-154054454D01*
X121050000Y-154100804D01*
X121750000Y-154100804D01*
X121836647Y-154084500D01*
X121926912Y-154084500D01*
X121935109Y-154089977D01*
X122224800Y-154147600D01*
X123291600Y-154147600D01*
X123581292Y-154089977D01*
X123826880Y-153925880D01*
X125020760Y-152732000D01*
X125277974Y-152732000D01*
X125328299Y-152810207D01*
X125521117Y-152941954D01*
X125750000Y-152988304D01*
X128348000Y-152988304D01*
X128348000Y-155848000D01*
X97652000Y-155848000D01*
X97652000Y-135763304D01*
X100250000Y-135763304D01*
X100463823Y-135723070D01*
X100660207Y-135596701D01*
X100721497Y-135507000D01*
X103155726Y-135507000D01*
X103335000Y-135543304D01*
X103665000Y-135543304D01*
X103746696Y-135527932D01*
X103746696Y-135615000D01*
X103786930Y-135828823D01*
X103913299Y-136025207D01*
X104106117Y-136156954D01*
X104335000Y-136203304D01*
X104665000Y-136203304D01*
X104857937Y-136167000D01*
X105138241Y-136167000D01*
X105321117Y-136291954D01*
X105550000Y-136338304D01*
X105953442Y-136338304D01*
X106543615Y-136928477D01*
X106543615Y-140916357D01*
X105450335Y-142009637D01*
X105286238Y-142255225D01*
X105240974Y-142482785D01*
X105228615Y-142544917D01*
X105228615Y-146024917D01*
X105286238Y-146314609D01*
X105450335Y-146560197D01*
X105925335Y-147035197D01*
X106170924Y-147199294D01*
X106460615Y-147256917D01*
X106655316Y-147256917D01*
X106835000Y-147293304D01*
X107165000Y-147293304D01*
X107246696Y-147277932D01*
X107246696Y-147365000D01*
X107286930Y-147578823D01*
X107413299Y-147775207D01*
X107606117Y-147906954D01*
X107835000Y-147953304D01*
X108165000Y-147953304D01*
X108357937Y-147917000D01*
X109068194Y-147917000D01*
X109128299Y-148010407D01*
X109243000Y-148088779D01*
X109243000Y-149990600D01*
X109300623Y-150280292D01*
X109464720Y-150525880D01*
X109721564Y-150782724D01*
X109712250Y-150829548D01*
X109712250Y-150865605D01*
X109723853Y-150923940D01*
X109723772Y-150926840D01*
X109721464Y-150943186D01*
X109723132Y-150949652D01*
X109722944Y-150956339D01*
X109728842Y-150971791D01*
X109729562Y-150974584D01*
X109731232Y-151034064D01*
X109739256Y-151069217D01*
X109763549Y-151123505D01*
X109764118Y-151126364D01*
X109765506Y-151142817D01*
X109768571Y-151148749D01*
X109769873Y-151155296D01*
X109779043Y-151169020D01*
X109780381Y-151171609D01*
X109795233Y-151229192D01*
X109810877Y-151261679D01*
X109846657Y-151309225D01*
X109859901Y-151338821D01*
X109873321Y-151351508D01*
X109901076Y-151405232D01*
X109923558Y-151433423D01*
X109956306Y-151461075D01*
X109980120Y-151496716D01*
X110261518Y-151778114D01*
X110297159Y-151801928D01*
X110324811Y-151834676D01*
X110353002Y-151857158D01*
X110406726Y-151884913D01*
X110419416Y-151898336D01*
X110449009Y-151911578D01*
X110496546Y-151947353D01*
X110529033Y-151962997D01*
X110586622Y-151977852D01*
X110589214Y-151979191D01*
X110602938Y-151988361D01*
X110609485Y-151989663D01*
X110615417Y-151992728D01*
X110631870Y-151994116D01*
X110634728Y-151994685D01*
X110689020Y-152018979D01*
X110724174Y-152027003D01*
X110783644Y-152028672D01*
X110786461Y-152029399D01*
X110801895Y-152035290D01*
X110808573Y-152035103D01*
X110815038Y-152036770D01*
X110831383Y-152034462D01*
X110834294Y-152034381D01*
X110885355Y-152044537D01*
X110888494Y-152049236D01*
X110898083Y-152086404D01*
X110904850Y-152100455D01*
X110942161Y-152150030D01*
X110962723Y-152195984D01*
X110977419Y-152209879D01*
X110995039Y-152243983D01*
X111004763Y-152256176D01*
X111037509Y-152283826D01*
X111061320Y-152319462D01*
X111471945Y-152730087D01*
X111507598Y-152753909D01*
X111535261Y-152786667D01*
X111547454Y-152796390D01*
X111581539Y-152813997D01*
X111595423Y-152828683D01*
X111641377Y-152849245D01*
X111690952Y-152886556D01*
X111705004Y-152893323D01*
X111742171Y-152902911D01*
X111758982Y-152914144D01*
X111785687Y-152919456D01*
X111809875Y-152931951D01*
X111830007Y-152933649D01*
X111865031Y-152949320D01*
X111880235Y-152952790D01*
X111891959Y-152953119D01*
X112561696Y-153622856D01*
X112561696Y-153640600D01*
X112601930Y-153854423D01*
X112728299Y-154050807D01*
X112921117Y-154182554D01*
X113150000Y-154228904D01*
X113750000Y-154228904D01*
X113963823Y-154188670D01*
X113997939Y-154166717D01*
X114021117Y-154182554D01*
X114250000Y-154228904D01*
X114850000Y-154228904D01*
X115063823Y-154188670D01*
X115127648Y-154147600D01*
X115646200Y-154147600D01*
X115935891Y-154089977D01*
X115944088Y-154084500D01*
X116169488Y-154084500D01*
X116250000Y-154100804D01*
X116950000Y-154100804D01*
X117163823Y-154060570D01*
X117360207Y-153934201D01*
X117491954Y-153741383D01*
X117538304Y-153512500D01*
X117538304Y-153262500D01*
X117498070Y-153048677D01*
X117371701Y-152852293D01*
X117178883Y-152720546D01*
X116950000Y-152674196D01*
X116250000Y-152674196D01*
X116163353Y-152690500D01*
X115932256Y-152690500D01*
X115646200Y-152633600D01*
X115130040Y-152633600D01*
X115078883Y-152598646D01*
X114850000Y-152552296D01*
X114250000Y-152552296D01*
X114036177Y-152592530D01*
X114002061Y-152614483D01*
X113978883Y-152598646D01*
X113750000Y-152552296D01*
X113632256Y-152552296D01*
X112739487Y-151659527D01*
X112703851Y-151635716D01*
X112676201Y-151602970D01*
X112664008Y-151593246D01*
X112629904Y-151575626D01*
X112616009Y-151560930D01*
X112570055Y-151540368D01*
X112520480Y-151503057D01*
X112506429Y-151496290D01*
X112469261Y-151486701D01*
X112452450Y-151475469D01*
X112425766Y-151470161D01*
X112401594Y-151457673D01*
X112381445Y-151455973D01*
X112349653Y-151441748D01*
X112335435Y-151409971D01*
X112333735Y-151389819D01*
X112321245Y-151365644D01*
X112315937Y-151338957D01*
X112304705Y-151322147D01*
X112295116Y-151284978D01*
X112288349Y-151270926D01*
X112251041Y-151221355D01*
X112230482Y-151175406D01*
X112215784Y-151161509D01*
X112198164Y-151127404D01*
X112188442Y-151115212D01*
X112155693Y-151087558D01*
X112131880Y-151051920D01*
X111787514Y-150707554D01*
X111751873Y-150683740D01*
X111724221Y-150650992D01*
X111696030Y-150628510D01*
X111642306Y-150600755D01*
X111629619Y-150587335D01*
X111600023Y-150574091D01*
X111552477Y-150538311D01*
X111519990Y-150522667D01*
X111462407Y-150507815D01*
X111459818Y-150506477D01*
X111446094Y-150497307D01*
X111439547Y-150496005D01*
X111433615Y-150492940D01*
X111417162Y-150491552D01*
X111414303Y-150490983D01*
X111360015Y-150466690D01*
X111324862Y-150458666D01*
X111300258Y-150457975D01*
X111299567Y-150433370D01*
X111291543Y-150398218D01*
X111267250Y-150343930D01*
X111266684Y-150341085D01*
X111265295Y-150324622D01*
X111262228Y-150318686D01*
X111260926Y-150312139D01*
X111251756Y-150298415D01*
X111250419Y-150295827D01*
X111235566Y-150238242D01*
X111219922Y-150205756D01*
X111184142Y-150158210D01*
X111170898Y-150128614D01*
X111157479Y-150115928D01*
X111129725Y-150062206D01*
X111107244Y-150034015D01*
X111074494Y-150006361D01*
X111050680Y-149970720D01*
X110757000Y-149677040D01*
X110757000Y-148088313D01*
X110860207Y-148021901D01*
X110991954Y-147829083D01*
X111038304Y-147600200D01*
X111038304Y-147100200D01*
X110998070Y-146886377D01*
X110871701Y-146689993D01*
X110739432Y-146599617D01*
X110860207Y-146521901D01*
X110991954Y-146329083D01*
X111038304Y-146100200D01*
X111038304Y-145686798D01*
X111057858Y-145686798D01*
X111181977Y-145987189D01*
X111411602Y-146217215D01*
X111711776Y-146341858D01*
X111798114Y-146341933D01*
X111836899Y-146402207D01*
X112029717Y-146533954D01*
X112258600Y-146580304D01*
X112758600Y-146580304D01*
X112972423Y-146540070D01*
X113168807Y-146413701D01*
X113259183Y-146281432D01*
X113311600Y-146362891D01*
X113311600Y-146408385D01*
X113204646Y-146564917D01*
X113158296Y-146793800D01*
X113158296Y-147693800D01*
X113198530Y-147907623D01*
X113324899Y-148104007D01*
X113517717Y-148235754D01*
X113746600Y-148282104D01*
X114246600Y-148282104D01*
X114460423Y-148241870D01*
X114656807Y-148115501D01*
X114788554Y-147922683D01*
X114834904Y-147693800D01*
X114834904Y-146793800D01*
X114794670Y-146579977D01*
X114705600Y-146441558D01*
X114705600Y-146359853D01*
X114800554Y-146220883D01*
X114814248Y-146153258D01*
X114904380Y-146093034D01*
X114904380Y-147602638D01*
X114942433Y-147793944D01*
X114957436Y-147869369D01*
X115108527Y-148095491D01*
X116536696Y-149523661D01*
X116536696Y-150087500D01*
X116553009Y-150174196D01*
X116250000Y-150174196D01*
X116163353Y-150190500D01*
X115786101Y-150190500D01*
X115779398Y-150183785D01*
X115479224Y-150059142D01*
X115154202Y-150058858D01*
X114853811Y-150182977D01*
X114623785Y-150412602D01*
X114499142Y-150712776D01*
X114498858Y-151037798D01*
X114622977Y-151338189D01*
X114852602Y-151568215D01*
X115152776Y-151692858D01*
X115477798Y-151693142D01*
X115740732Y-151584500D01*
X116169488Y-151584500D01*
X116250000Y-151600804D01*
X116950000Y-151600804D01*
X117163823Y-151560570D01*
X117360207Y-151434201D01*
X117477525Y-151262500D01*
X120461696Y-151262500D01*
X120461696Y-151512500D01*
X120501930Y-151726323D01*
X120628299Y-151922707D01*
X120821117Y-152054454D01*
X121050000Y-152100804D01*
X121750000Y-152100804D01*
X121836647Y-152084500D01*
X122111555Y-152084500D01*
X122391776Y-152200858D01*
X122716798Y-152201142D01*
X123017189Y-152077023D01*
X123247215Y-151847398D01*
X123371858Y-151547224D01*
X123372142Y-151222202D01*
X123248023Y-150921811D01*
X123018398Y-150691785D01*
X122718224Y-150567142D01*
X122393202Y-150566858D01*
X122093965Y-150690500D01*
X121830512Y-150690500D01*
X121750000Y-150674196D01*
X121050000Y-150674196D01*
X120836177Y-150714430D01*
X120639793Y-150840799D01*
X120508046Y-151033617D01*
X120461696Y-151262500D01*
X117477525Y-151262500D01*
X117491954Y-151241383D01*
X117538304Y-151012500D01*
X117538304Y-150762500D01*
X117517910Y-150654118D01*
X117625000Y-150675804D01*
X117875000Y-150675804D01*
X118004588Y-150651420D01*
X118125000Y-150675804D01*
X118375000Y-150675804D01*
X118504588Y-150651420D01*
X118625000Y-150675804D01*
X118875000Y-150675804D01*
X119004588Y-150651420D01*
X119125000Y-150675804D01*
X119375000Y-150675804D01*
X119504588Y-150651420D01*
X119625000Y-150675804D01*
X119875000Y-150675804D01*
X120004588Y-150651420D01*
X120125000Y-150675804D01*
X120375000Y-150675804D01*
X120504588Y-150651420D01*
X120625000Y-150675804D01*
X120875000Y-150675804D01*
X121088823Y-150635570D01*
X121285207Y-150509201D01*
X121416954Y-150316383D01*
X121463304Y-150087500D01*
X121463304Y-149419903D01*
X121622464Y-149260743D01*
X121773554Y-149034620D01*
X121826610Y-148767890D01*
X121826610Y-147931856D01*
X122036602Y-148142215D01*
X122336776Y-148266858D01*
X122661798Y-148267142D01*
X122962189Y-148143023D01*
X123192215Y-147913398D01*
X123316858Y-147613224D01*
X123316958Y-147499032D01*
X123416954Y-147352683D01*
X123463304Y-147123800D01*
X123463304Y-146323800D01*
X123423070Y-146109977D01*
X123296701Y-145913593D01*
X123103883Y-145781846D01*
X122875000Y-145735496D01*
X122125000Y-145735496D01*
X121911177Y-145775730D01*
X121738973Y-145886540D01*
X121730126Y-145873299D01*
X121622464Y-145712171D01*
X121245303Y-145335011D01*
X121417215Y-145163398D01*
X121541858Y-144863224D01*
X121542142Y-144538202D01*
X121418023Y-144237811D01*
X121188398Y-144007785D01*
X120888224Y-143883142D01*
X120563202Y-143882858D01*
X120303969Y-143989971D01*
X120218651Y-143973000D01*
X119977000Y-143973000D01*
X119977000Y-143731349D01*
X119953233Y-143611864D01*
X120066858Y-143338224D01*
X120067142Y-143013202D01*
X119943023Y-142712811D01*
X119713398Y-142482785D01*
X119413224Y-142358142D01*
X119088202Y-142357858D01*
X118787811Y-142481977D01*
X118737636Y-142532065D01*
X118713398Y-142507785D01*
X118413224Y-142383142D01*
X118088202Y-142382858D01*
X117787811Y-142506977D01*
X117762380Y-142532363D01*
X117687523Y-142547254D01*
X117643269Y-142556056D01*
X117417146Y-142707147D01*
X117257147Y-142867147D01*
X117106056Y-143093269D01*
X117101599Y-143115678D01*
X117053000Y-143360000D01*
X117053000Y-143580530D01*
X117023000Y-143731349D01*
X117023000Y-143973000D01*
X116781349Y-143973000D01*
X116630530Y-144003000D01*
X115340600Y-144003000D01*
X115073870Y-144056056D01*
X114847747Y-144207146D01*
X114497799Y-144557095D01*
X114487483Y-144550046D01*
X114258600Y-144503696D01*
X113758600Y-144503696D01*
X113544777Y-144543930D01*
X113348393Y-144670299D01*
X113258017Y-144802568D01*
X113180301Y-144681793D01*
X112987483Y-144550046D01*
X112758600Y-144503696D01*
X112258600Y-144503696D01*
X112044777Y-144543930D01*
X111848393Y-144670299D01*
X111822665Y-144707954D01*
X111713202Y-144707858D01*
X111412811Y-144831977D01*
X111182785Y-145061602D01*
X111058142Y-145361776D01*
X111057858Y-145686798D01*
X111038304Y-145686798D01*
X111038304Y-145600200D01*
X110998070Y-145386377D01*
X110871701Y-145189993D01*
X110757000Y-145111621D01*
X110757000Y-143972360D01*
X110875868Y-143853492D01*
X110912586Y-143869923D01*
X110972245Y-143883540D01*
X111028546Y-143885120D01*
X111038599Y-143887713D01*
X111052254Y-143885785D01*
X111057272Y-143885926D01*
X111062208Y-143886908D01*
X111075090Y-143891825D01*
X111085465Y-143891534D01*
X111140696Y-143902520D01*
X111201889Y-143902520D01*
X111257120Y-143891534D01*
X111267495Y-143891825D01*
X111280377Y-143886908D01*
X111285313Y-143885926D01*
X111290331Y-143885785D01*
X111303986Y-143887713D01*
X111314039Y-143885120D01*
X111370340Y-143883540D01*
X111429999Y-143869923D01*
X111481401Y-143846922D01*
X111491580Y-143844897D01*
X111503044Y-143837237D01*
X111507633Y-143835184D01*
X111512502Y-143833928D01*
X111526241Y-143832769D01*
X111535462Y-143828005D01*
X111589991Y-143813940D01*
X111645125Y-143787389D01*
X111690129Y-143753521D01*
X111699604Y-143749281D01*
X111709077Y-143739262D01*
X111713086Y-143736244D01*
X111788659Y-143697203D01*
X111836502Y-143659050D01*
X111864161Y-143626296D01*
X111899806Y-143602478D01*
X112022460Y-143479822D01*
X112046274Y-143444182D01*
X112079028Y-143416523D01*
X112117180Y-143368680D01*
X112156218Y-143293115D01*
X112159242Y-143289097D01*
X112169260Y-143279625D01*
X112173499Y-143270152D01*
X112207363Y-143225155D01*
X112233914Y-143170023D01*
X112247983Y-143115484D01*
X112252747Y-143106262D01*
X112253906Y-143092523D01*
X112255161Y-143087658D01*
X112257216Y-143083065D01*
X112264876Y-143071601D01*
X112266901Y-143061422D01*
X112289902Y-143010020D01*
X112303519Y-142950361D01*
X112305099Y-142894069D01*
X112307691Y-142884019D01*
X112305764Y-142870367D01*
X112305905Y-142865334D01*
X112306887Y-142860398D01*
X112311804Y-142847516D01*
X112311513Y-142837141D01*
X112322499Y-142781910D01*
X112322499Y-142720717D01*
X112311513Y-142665486D01*
X112311804Y-142655111D01*
X112306887Y-142642229D01*
X112305905Y-142637293D01*
X112305764Y-142632260D01*
X112307691Y-142618608D01*
X112305099Y-142608558D01*
X112305090Y-142608235D01*
X112326615Y-142592035D01*
X112369832Y-142572698D01*
X112383525Y-142558215D01*
X112420910Y-142538901D01*
X112435778Y-142527044D01*
X112463432Y-142494295D01*
X112499073Y-142470480D01*
X112888092Y-142081459D01*
X112911907Y-142045818D01*
X112944659Y-142018161D01*
X112956515Y-142003294D01*
X112975818Y-141965930D01*
X112990286Y-141952252D01*
X113009636Y-141909012D01*
X113046706Y-141859753D01*
X113054957Y-141842619D01*
X113065462Y-141801893D01*
X113076528Y-141785331D01*
X113081168Y-141762004D01*
X113092083Y-141740876D01*
X113093757Y-141721035D01*
X113110934Y-141682650D01*
X113115166Y-141664111D01*
X113116348Y-141622040D01*
X113121921Y-141607438D01*
X113632256Y-141097104D01*
X113750000Y-141097104D01*
X113963823Y-141056870D01*
X113997939Y-141034917D01*
X114021117Y-141050754D01*
X114250000Y-141097104D01*
X114850000Y-141097104D01*
X115063823Y-141056870D01*
X115127648Y-141015800D01*
X115646200Y-141015800D01*
X115935891Y-140958177D01*
X115952619Y-140947000D01*
X116169488Y-140947000D01*
X116250000Y-140963304D01*
X116950000Y-140963304D01*
X117163823Y-140923070D01*
X117360207Y-140796701D01*
X117491954Y-140603883D01*
X117538304Y-140375000D01*
X117538304Y-140125000D01*
X117498070Y-139911177D01*
X117371701Y-139714793D01*
X117178883Y-139583046D01*
X116950000Y-139536696D01*
X116250000Y-139536696D01*
X116163353Y-139553000D01*
X115903600Y-139553000D01*
X115646200Y-139501800D01*
X115130040Y-139501800D01*
X115078883Y-139466846D01*
X114850000Y-139420496D01*
X114250000Y-139420496D01*
X114036177Y-139460730D01*
X114002061Y-139482683D01*
X113978883Y-139466846D01*
X113750000Y-139420496D01*
X113150000Y-139420496D01*
X112936177Y-139460730D01*
X112739793Y-139587099D01*
X112608046Y-139779917D01*
X112561696Y-140008800D01*
X112561696Y-140026544D01*
X112036849Y-140551390D01*
X111817534Y-140770704D01*
X111793720Y-140806344D01*
X111760968Y-140834000D01*
X111749111Y-140848868D01*
X111729797Y-140886253D01*
X111715314Y-140899946D01*
X111695977Y-140943163D01*
X111658923Y-140992398D01*
X111650672Y-141009531D01*
X111640163Y-141050271D01*
X111629095Y-141066835D01*
X111624456Y-141090156D01*
X111613541Y-141111284D01*
X111611866Y-141131143D01*
X111594679Y-141169554D01*
X111593282Y-141175673D01*
X111587175Y-141177067D01*
X111548747Y-141194261D01*
X111528872Y-141195938D01*
X111507753Y-141206849D01*
X111484448Y-141211485D01*
X111467883Y-141222554D01*
X111427143Y-141233063D01*
X111410010Y-141241313D01*
X111360780Y-141278363D01*
X111317565Y-141297699D01*
X111303862Y-141312192D01*
X111266461Y-141331516D01*
X111251594Y-141343373D01*
X111223950Y-141376113D01*
X111188320Y-141399920D01*
X110951896Y-141636344D01*
X110951892Y-141636346D01*
X110904842Y-141683397D01*
X110887060Y-141710011D01*
X110857180Y-141747478D01*
X110840662Y-141779452D01*
X110829041Y-141796844D01*
X110740752Y-141928978D01*
X110740751Y-141928982D01*
X110740748Y-141928987D01*
X110726879Y-141998714D01*
X110726373Y-142000676D01*
X110721611Y-142009894D01*
X110720452Y-142023630D01*
X110719193Y-142028511D01*
X110717140Y-142033100D01*
X110709480Y-142044564D01*
X110707455Y-142054743D01*
X110684454Y-142106145D01*
X110670837Y-142165804D01*
X110669257Y-142222105D01*
X110666664Y-142232158D01*
X110668592Y-142245813D01*
X110668515Y-142248537D01*
X110665792Y-142248614D01*
X110652137Y-142246686D01*
X110642084Y-142249279D01*
X110585783Y-142250859D01*
X110526124Y-142264476D01*
X110474722Y-142287477D01*
X110464543Y-142289502D01*
X110453079Y-142297162D01*
X110448490Y-142299215D01*
X110443603Y-142300476D01*
X110429865Y-142301635D01*
X110420647Y-142306397D01*
X110366132Y-142320459D01*
X110310999Y-142347009D01*
X110265994Y-142380878D01*
X110256519Y-142385118D01*
X110247047Y-142395137D01*
X110243028Y-142398161D01*
X110167451Y-142437207D01*
X110119609Y-142475361D01*
X110091958Y-142508107D01*
X110056320Y-142531920D01*
X109464720Y-143123520D01*
X109300623Y-143369108D01*
X109254203Y-143602478D01*
X109243000Y-143658800D01*
X109243000Y-145083000D01*
X108344274Y-145083000D01*
X108165000Y-145046696D01*
X107835000Y-145046696D01*
X107621177Y-145086930D01*
X107424793Y-145213299D01*
X107293046Y-145406117D01*
X107246696Y-145635000D01*
X107246696Y-145723240D01*
X107165000Y-145706696D01*
X106835000Y-145706696D01*
X106753323Y-145722065D01*
X106742615Y-145711357D01*
X106742615Y-142858477D01*
X107835895Y-141765197D01*
X107999992Y-141519609D01*
X108057615Y-141229917D01*
X108057615Y-136614917D01*
X108030960Y-136480914D01*
X107999992Y-136325225D01*
X107835895Y-136079637D01*
X107038304Y-135282046D01*
X107038304Y-135250000D01*
X106998070Y-135036177D01*
X106871701Y-134839793D01*
X106739432Y-134749417D01*
X106860207Y-134671701D01*
X106991954Y-134478883D01*
X107038304Y-134250000D01*
X107038304Y-134232256D01*
X107850280Y-133420280D01*
X108014377Y-133174692D01*
X108072000Y-132885000D01*
X108072000Y-130851400D01*
X110340696Y-130851400D01*
X110340696Y-131351400D01*
X110380930Y-131565223D01*
X110507299Y-131761607D01*
X110639568Y-131851983D01*
X110518793Y-131929699D01*
X110387046Y-132122517D01*
X110340696Y-132351400D01*
X110340696Y-132851400D01*
X110380930Y-133065223D01*
X110507299Y-133261607D01*
X110700117Y-133393354D01*
X110929000Y-133439704D01*
X111829000Y-133439704D01*
X112042823Y-133399470D01*
X112199891Y-133298400D01*
X112516947Y-133298400D01*
X112655917Y-133393354D01*
X112884800Y-133439704D01*
X113784800Y-133439704D01*
X113998623Y-133399470D01*
X114155691Y-133298400D01*
X114867902Y-133298400D01*
X114827250Y-133359240D01*
X114778000Y-133606836D01*
X114778000Y-134500000D01*
X114827250Y-134747596D01*
X114967502Y-134957498D01*
X115742502Y-135732498D01*
X115952404Y-135872750D01*
X116133845Y-135908841D01*
X116536696Y-136311692D01*
X116536696Y-136950000D01*
X116553009Y-137036696D01*
X116250000Y-137036696D01*
X116163353Y-137053000D01*
X115913502Y-137053000D01*
X115733224Y-136978142D01*
X115408202Y-136977858D01*
X115107811Y-137101977D01*
X114877785Y-137331602D01*
X114753142Y-137631776D01*
X114752858Y-137956798D01*
X114876977Y-138257189D01*
X115106602Y-138487215D01*
X115406776Y-138611858D01*
X115731798Y-138612142D01*
X116032189Y-138488023D01*
X116073284Y-138447000D01*
X116169488Y-138447000D01*
X116250000Y-138463304D01*
X116950000Y-138463304D01*
X117163823Y-138423070D01*
X117360207Y-138296701D01*
X117477525Y-138125000D01*
X120461696Y-138125000D01*
X120461696Y-138375000D01*
X120501930Y-138588823D01*
X120628299Y-138785207D01*
X120821117Y-138916954D01*
X121050000Y-138963304D01*
X121750000Y-138963304D01*
X121836647Y-138947000D01*
X122281338Y-138947000D01*
X122391776Y-138992858D01*
X122716798Y-138993142D01*
X123017189Y-138869023D01*
X123247215Y-138639398D01*
X123371858Y-138339224D01*
X123372142Y-138014202D01*
X123248023Y-137713811D01*
X123018398Y-137483785D01*
X122718224Y-137359142D01*
X122393202Y-137358858D01*
X122092811Y-137482977D01*
X122022666Y-137553000D01*
X121830512Y-137553000D01*
X121750000Y-137536696D01*
X121050000Y-137536696D01*
X120836177Y-137576930D01*
X120639793Y-137703299D01*
X120508046Y-137896117D01*
X120461696Y-138125000D01*
X117477525Y-138125000D01*
X117491954Y-138103883D01*
X117538304Y-137875000D01*
X117538304Y-137625000D01*
X117517910Y-137516618D01*
X117625000Y-137538304D01*
X117875000Y-137538304D01*
X118004588Y-137513920D01*
X118125000Y-137538304D01*
X118375000Y-137538304D01*
X118504588Y-137513920D01*
X118625000Y-137538304D01*
X118875000Y-137538304D01*
X119004588Y-137513920D01*
X119125000Y-137538304D01*
X119375000Y-137538304D01*
X119504588Y-137513920D01*
X119625000Y-137538304D01*
X119875000Y-137538304D01*
X120004588Y-137513920D01*
X120125000Y-137538304D01*
X120375000Y-137538304D01*
X120504588Y-137513920D01*
X120625000Y-137538304D01*
X120875000Y-137538304D01*
X121088823Y-137498070D01*
X121285207Y-137371701D01*
X121416954Y-137178883D01*
X121463304Y-136950000D01*
X121463304Y-136316989D01*
X121647864Y-136132429D01*
X121798954Y-135906306D01*
X121852010Y-135639576D01*
X121852010Y-135507301D01*
X122036602Y-135692215D01*
X122336776Y-135816858D01*
X122661798Y-135817142D01*
X122962189Y-135693023D01*
X123192215Y-135463398D01*
X123316858Y-135163224D01*
X123316979Y-135025202D01*
X123416954Y-134878883D01*
X123463304Y-134650000D01*
X123463304Y-133850000D01*
X123423070Y-133636177D01*
X123296701Y-133439793D01*
X123103883Y-133308046D01*
X122875000Y-133261696D01*
X122125000Y-133261696D01*
X121911177Y-133301930D01*
X121733746Y-133416103D01*
X121647864Y-133287571D01*
X121245303Y-132885011D01*
X121417215Y-132713398D01*
X121541858Y-132413224D01*
X121542142Y-132088202D01*
X121418023Y-131787811D01*
X121188398Y-131557785D01*
X120888224Y-131433142D01*
X120747254Y-131433019D01*
X120942215Y-131238398D01*
X121066858Y-130938224D01*
X121067142Y-130613202D01*
X120943023Y-130312811D01*
X120713398Y-130082785D01*
X120413224Y-129958142D01*
X120088202Y-129957858D01*
X119787811Y-130081977D01*
X119741708Y-130128000D01*
X118985000Y-130128000D01*
X118737404Y-130177250D01*
X118527502Y-130317502D01*
X118316955Y-130528049D01*
X118242853Y-130417146D01*
X118132853Y-130307147D01*
X117906731Y-130156056D01*
X117862477Y-130147254D01*
X117787903Y-130132420D01*
X117713398Y-130057785D01*
X117413224Y-129933142D01*
X117088202Y-129932858D01*
X116787811Y-130056977D01*
X116557785Y-130286602D01*
X116433142Y-130586776D01*
X116432858Y-130911798D01*
X116556977Y-131212189D01*
X116786602Y-131442215D01*
X116981154Y-131523000D01*
X116781349Y-131523000D01*
X116630530Y-131553000D01*
X116306242Y-131553000D01*
X116039512Y-131606056D01*
X115813389Y-131757146D01*
X115666135Y-131904400D01*
X114152653Y-131904400D01*
X114013683Y-131809446D01*
X113784800Y-131763096D01*
X112884800Y-131763096D01*
X112670977Y-131803330D01*
X112513909Y-131904400D01*
X112367636Y-131904400D01*
X112637189Y-131793023D01*
X112867215Y-131563398D01*
X112991858Y-131263224D01*
X112992142Y-130938202D01*
X112868023Y-130637811D01*
X112638398Y-130407785D01*
X112338224Y-130283142D01*
X112013202Y-130282858D01*
X111984714Y-130294629D01*
X111829000Y-130263096D01*
X110929000Y-130263096D01*
X110715177Y-130303330D01*
X110518793Y-130429699D01*
X110387046Y-130622517D01*
X110340696Y-130851400D01*
X108072000Y-130851400D01*
X108072000Y-128270000D01*
X108039154Y-128104870D01*
X108014377Y-127980308D01*
X107850280Y-127734720D01*
X106757000Y-126641440D01*
X106757000Y-123788560D01*
X106766190Y-123779370D01*
X106835000Y-123793304D01*
X107165000Y-123793304D01*
X107246696Y-123777932D01*
X107246696Y-123865000D01*
X107286930Y-124078823D01*
X107413299Y-124275207D01*
X107606117Y-124406954D01*
X107835000Y-124453304D01*
X108165000Y-124453304D01*
X108357937Y-124417000D01*
X109138241Y-124417000D01*
X109243000Y-124488579D01*
X109243000Y-124997000D01*
X109300623Y-125286692D01*
X109464720Y-125532280D01*
X109573033Y-125640593D01*
X109573002Y-125640656D01*
X109551758Y-125723014D01*
X109517019Y-125800649D01*
X109499399Y-125877847D01*
X109497013Y-125962871D01*
X109480419Y-126046296D01*
X109480419Y-126125480D01*
X109497012Y-126208901D01*
X109499397Y-126293920D01*
X109517016Y-126371118D01*
X109551758Y-126448763D01*
X109573008Y-126531136D01*
X109607366Y-126602479D01*
X109658513Y-126670440D01*
X109697550Y-126746003D01*
X109746919Y-126807911D01*
X109779671Y-126835568D01*
X109803486Y-126871209D01*
X109812522Y-126880245D01*
X109848168Y-126904063D01*
X109875826Y-126936816D01*
X109937734Y-126986185D01*
X110013296Y-127025221D01*
X110081252Y-127076364D01*
X110152595Y-127110722D01*
X110234964Y-127131970D01*
X110312604Y-127166712D01*
X110389802Y-127184332D01*
X110474825Y-127186718D01*
X110558251Y-127203312D01*
X110637435Y-127203312D01*
X110720860Y-127186718D01*
X110805884Y-127184332D01*
X110883082Y-127166712D01*
X110960729Y-127131967D01*
X111043098Y-127110718D01*
X111108161Y-127079384D01*
X111130194Y-127125137D01*
X111181343Y-127193103D01*
X111220384Y-127268674D01*
X111269755Y-127330583D01*
X111302504Y-127358237D01*
X111326320Y-127393880D01*
X112561696Y-128629256D01*
X112561696Y-128647000D01*
X112601930Y-128860823D01*
X112728299Y-129057207D01*
X112921117Y-129188954D01*
X113150000Y-129235304D01*
X113750000Y-129235304D01*
X113963823Y-129195070D01*
X113997939Y-129173117D01*
X114021117Y-129188954D01*
X114250000Y-129235304D01*
X114850000Y-129235304D01*
X115063823Y-129195070D01*
X115127648Y-129154000D01*
X115646200Y-129154000D01*
X115935891Y-129096377D01*
X115953666Y-129084500D01*
X116169488Y-129084500D01*
X116250000Y-129100804D01*
X116950000Y-129100804D01*
X117163823Y-129060570D01*
X117360207Y-128934201D01*
X117491954Y-128741383D01*
X117538304Y-128512500D01*
X117538304Y-128262500D01*
X117498070Y-128048677D01*
X117371701Y-127852293D01*
X117178883Y-127720546D01*
X116950000Y-127674196D01*
X116250000Y-127674196D01*
X116163353Y-127690500D01*
X115900081Y-127690500D01*
X115646200Y-127640000D01*
X115130040Y-127640000D01*
X115078883Y-127605046D01*
X114850000Y-127558696D01*
X114250000Y-127558696D01*
X114036177Y-127598930D01*
X114002061Y-127620883D01*
X113978883Y-127605046D01*
X113750000Y-127558696D01*
X113632256Y-127558696D01*
X112627333Y-126553773D01*
X112627361Y-126553714D01*
X112648606Y-126471353D01*
X112683346Y-126393716D01*
X112700966Y-126316518D01*
X112703352Y-126231495D01*
X112719946Y-126148069D01*
X112719946Y-126068885D01*
X112703352Y-125985463D01*
X112700967Y-125900438D01*
X112683347Y-125823239D01*
X112648605Y-125745598D01*
X112627361Y-125663239D01*
X112593005Y-125591898D01*
X112541857Y-125523933D01*
X112502816Y-125448362D01*
X112453446Y-125386454D01*
X112420696Y-125358799D01*
X112396880Y-125323156D01*
X112387844Y-125314120D01*
X112352203Y-125290305D01*
X112324546Y-125257553D01*
X112262638Y-125208184D01*
X112187070Y-125169144D01*
X112119110Y-125117999D01*
X112047768Y-125083641D01*
X111965402Y-125062394D01*
X111887761Y-125027652D01*
X111810562Y-125010032D01*
X111725537Y-125007647D01*
X111642115Y-124991053D01*
X111562931Y-124991053D01*
X111479505Y-125007647D01*
X111394482Y-125010033D01*
X111317284Y-125027653D01*
X111239645Y-125062394D01*
X111157279Y-125083641D01*
X111092204Y-125114980D01*
X111070170Y-125069227D01*
X111019022Y-125001262D01*
X110979981Y-124925691D01*
X110930611Y-124863783D01*
X110897861Y-124836128D01*
X110874045Y-124800485D01*
X110757000Y-124683440D01*
X110757000Y-124488113D01*
X110860207Y-124421701D01*
X110991954Y-124228883D01*
X111038304Y-124000000D01*
X111038304Y-123500000D01*
X110998070Y-123286177D01*
X110871701Y-123089793D01*
X110739432Y-122999417D01*
X110860207Y-122921701D01*
X110991954Y-122728883D01*
X111038304Y-122500000D01*
X111038304Y-122000000D01*
X111000709Y-121800200D01*
X111644896Y-121800200D01*
X111644896Y-122700200D01*
X111685130Y-122914023D01*
X111811499Y-123110407D01*
X112004317Y-123242154D01*
X112233200Y-123288504D01*
X112733200Y-123288504D01*
X112947023Y-123248270D01*
X113143407Y-123121901D01*
X113233783Y-122989632D01*
X113286200Y-123071091D01*
X113286200Y-123425321D01*
X113216646Y-123527117D01*
X113170296Y-123756000D01*
X113170296Y-124656000D01*
X113210530Y-124869823D01*
X113336899Y-125066207D01*
X113529717Y-125197954D01*
X113758600Y-125244304D01*
X114258600Y-125244304D01*
X114472423Y-125204070D01*
X114668807Y-125077701D01*
X114800554Y-124884883D01*
X114846904Y-124656000D01*
X114846904Y-123756000D01*
X114806670Y-123542177D01*
X114680301Y-123345793D01*
X114680200Y-123345724D01*
X114680200Y-123068053D01*
X114775154Y-122929083D01*
X114788848Y-122861458D01*
X114966053Y-122743053D01*
X115053000Y-122656106D01*
X115053000Y-122686330D01*
X115102250Y-122933926D01*
X115242502Y-123143828D01*
X116536696Y-124438022D01*
X116536696Y-125087500D01*
X116553009Y-125174196D01*
X116250000Y-125174196D01*
X116163353Y-125190500D01*
X115789476Y-125190500D01*
X115733224Y-125167142D01*
X115408202Y-125166858D01*
X115107811Y-125290977D01*
X114877785Y-125520602D01*
X114753142Y-125820776D01*
X114752858Y-126145798D01*
X114876977Y-126446189D01*
X115106602Y-126676215D01*
X115406776Y-126800858D01*
X115731798Y-126801142D01*
X116032189Y-126677023D01*
X116124874Y-126584500D01*
X116169488Y-126584500D01*
X116250000Y-126600804D01*
X116950000Y-126600804D01*
X117163823Y-126560570D01*
X117360207Y-126434201D01*
X117477525Y-126262500D01*
X120461696Y-126262500D01*
X120461696Y-126512500D01*
X120501930Y-126726323D01*
X120628299Y-126922707D01*
X120821117Y-127054454D01*
X121050000Y-127100804D01*
X121750000Y-127100804D01*
X121836647Y-127084500D01*
X122284312Y-127084500D01*
X122518776Y-127181858D01*
X122843798Y-127182142D01*
X123144189Y-127058023D01*
X123374215Y-126828398D01*
X123498858Y-126528224D01*
X123499142Y-126203202D01*
X123375023Y-125902811D01*
X123145398Y-125672785D01*
X122845224Y-125548142D01*
X122520202Y-125547858D01*
X122219811Y-125671977D01*
X122201256Y-125690500D01*
X121830512Y-125690500D01*
X121750000Y-125674196D01*
X121050000Y-125674196D01*
X120836177Y-125714430D01*
X120639793Y-125840799D01*
X120508046Y-126033617D01*
X120461696Y-126262500D01*
X117477525Y-126262500D01*
X117491954Y-126241383D01*
X117538304Y-126012500D01*
X117538304Y-125762500D01*
X117517910Y-125654118D01*
X117625000Y-125675804D01*
X117875000Y-125675804D01*
X118004588Y-125651420D01*
X118125000Y-125675804D01*
X118375000Y-125675804D01*
X118504588Y-125651420D01*
X118625000Y-125675804D01*
X118875000Y-125675804D01*
X119004588Y-125651420D01*
X119125000Y-125675804D01*
X119375000Y-125675804D01*
X119504588Y-125651420D01*
X119625000Y-125675804D01*
X119875000Y-125675804D01*
X120004588Y-125651420D01*
X120125000Y-125675804D01*
X120375000Y-125675804D01*
X120504588Y-125651420D01*
X120625000Y-125675804D01*
X120875000Y-125675804D01*
X121088823Y-125635570D01*
X121285207Y-125509201D01*
X121416954Y-125316383D01*
X121463304Y-125087500D01*
X121463304Y-124419903D01*
X121520864Y-124362343D01*
X121671954Y-124136220D01*
X121725010Y-123869490D01*
X121725010Y-122020442D01*
X121896117Y-122137354D01*
X122125000Y-122183704D01*
X122875000Y-122183704D01*
X123088823Y-122143470D01*
X123285207Y-122017101D01*
X123416954Y-121824283D01*
X123463304Y-121595400D01*
X123463304Y-120795400D01*
X123423070Y-120581577D01*
X123317030Y-120416785D01*
X123317142Y-120288202D01*
X123193023Y-119987811D01*
X122963398Y-119757785D01*
X122663224Y-119633142D01*
X122338202Y-119632858D01*
X122037811Y-119756977D01*
X121807785Y-119986602D01*
X121683142Y-120286776D01*
X121683025Y-120420192D01*
X121583046Y-120566517D01*
X121566895Y-120646275D01*
X121567142Y-120363202D01*
X121460741Y-120105693D01*
X121563215Y-120003398D01*
X121687858Y-119703224D01*
X121688142Y-119378202D01*
X121564023Y-119077811D01*
X121334398Y-118847785D01*
X121034224Y-118723142D01*
X120959426Y-118723077D01*
X120778596Y-118602250D01*
X120531000Y-118553000D01*
X119347000Y-118553000D01*
X119099404Y-118602250D01*
X119006086Y-118664603D01*
X118942386Y-118622040D01*
X118694790Y-118572790D01*
X117478377Y-118572790D01*
X117463398Y-118557785D01*
X117163224Y-118433142D01*
X116838202Y-118432858D01*
X116537811Y-118556977D01*
X116307785Y-118786602D01*
X116183142Y-119086776D01*
X116182858Y-119411798D01*
X116306977Y-119712189D01*
X116425381Y-119830800D01*
X116195600Y-119830800D01*
X115928870Y-119883856D01*
X115909199Y-119897000D01*
X115702746Y-120034947D01*
X114472399Y-121265295D01*
X114462083Y-121258246D01*
X114233200Y-121211896D01*
X113733200Y-121211896D01*
X113519377Y-121252130D01*
X113322993Y-121378499D01*
X113317034Y-121387221D01*
X113317142Y-121263202D01*
X113193023Y-120962811D01*
X112963398Y-120732785D01*
X112663224Y-120608142D01*
X112338202Y-120607858D01*
X112037811Y-120731977D01*
X111807785Y-120961602D01*
X111683142Y-121261776D01*
X111682858Y-121586798D01*
X111686383Y-121595330D01*
X111644896Y-121800200D01*
X111000709Y-121800200D01*
X110998070Y-121786177D01*
X110871701Y-121589793D01*
X110757000Y-121511421D01*
X110757000Y-120604360D01*
X111552825Y-119808535D01*
X111599321Y-119820528D01*
X111676952Y-119855267D01*
X111749284Y-119871777D01*
X111834313Y-119874164D01*
X111917739Y-119890758D01*
X111991931Y-119890758D01*
X112075357Y-119874164D01*
X112160386Y-119871777D01*
X112232718Y-119855267D01*
X112310349Y-119820528D01*
X112392706Y-119799285D01*
X112459551Y-119767095D01*
X112527517Y-119715947D01*
X112603088Y-119676906D01*
X112661094Y-119630648D01*
X112688755Y-119597891D01*
X112724400Y-119574073D01*
X112764960Y-119533513D01*
X112788773Y-119497873D01*
X112821521Y-119470220D01*
X112867778Y-119412215D01*
X112906817Y-119336647D01*
X112957964Y-119268685D01*
X112990155Y-119201841D01*
X113011402Y-119119474D01*
X113046143Y-119041834D01*
X113062652Y-118969502D01*
X113065037Y-118884480D01*
X113081631Y-118801057D01*
X113081631Y-118726865D01*
X113065037Y-118643442D01*
X113062652Y-118558420D01*
X113046143Y-118486088D01*
X113011402Y-118408448D01*
X112999408Y-118361951D01*
X113632255Y-117729104D01*
X113750000Y-117729104D01*
X113963823Y-117688870D01*
X113997939Y-117666917D01*
X114021117Y-117682754D01*
X114250000Y-117729104D01*
X114850000Y-117729104D01*
X115063823Y-117688870D01*
X115127648Y-117647800D01*
X115646200Y-117647800D01*
X115935891Y-117590177D01*
X115944387Y-117584500D01*
X116169488Y-117584500D01*
X116250000Y-117600804D01*
X116950000Y-117600804D01*
X117163823Y-117560570D01*
X117360207Y-117434201D01*
X117491954Y-117241383D01*
X117538304Y-117012500D01*
X117538304Y-116762500D01*
X117498070Y-116548677D01*
X117371701Y-116352293D01*
X117178883Y-116220546D01*
X116950000Y-116174196D01*
X116250000Y-116174196D01*
X116163353Y-116190500D01*
X115931251Y-116190500D01*
X115646200Y-116133800D01*
X115130040Y-116133800D01*
X115078883Y-116098846D01*
X114850000Y-116052496D01*
X114250000Y-116052496D01*
X114036177Y-116092730D01*
X114002061Y-116114683D01*
X113978883Y-116098846D01*
X113750000Y-116052496D01*
X113150000Y-116052496D01*
X112936177Y-116092730D01*
X112739793Y-116219099D01*
X112608046Y-116411917D01*
X112561696Y-116640800D01*
X112561696Y-116658544D01*
X111694394Y-117525845D01*
X111694391Y-117525847D01*
X111565246Y-117654993D01*
X111527359Y-117711696D01*
X111401151Y-117900579D01*
X111401151Y-117900581D01*
X111401150Y-117900582D01*
X111379577Y-118009041D01*
X111343528Y-118190271D01*
X111343528Y-118190274D01*
X111346255Y-118203983D01*
X111280727Y-118205822D01*
X111208395Y-118222332D01*
X111130764Y-118257071D01*
X111048407Y-118278314D01*
X110981562Y-118310504D01*
X110913592Y-118361656D01*
X110838013Y-118400702D01*
X110780009Y-118446961D01*
X110752358Y-118479708D01*
X110716720Y-118503520D01*
X109464720Y-119755520D01*
X109338304Y-119944715D01*
X109338304Y-119800000D01*
X109298070Y-119586177D01*
X109242978Y-119500561D01*
X109291954Y-119428883D01*
X109338304Y-119200000D01*
X109338304Y-118626692D01*
X110507498Y-117457498D01*
X110647750Y-117247596D01*
X110697000Y-117000000D01*
X110697000Y-116310000D01*
X110666921Y-116158785D01*
X113606707Y-113219000D01*
X116470794Y-113219000D01*
X116536696Y-113284903D01*
X116536696Y-113587500D01*
X116553009Y-113674196D01*
X116250000Y-113674196D01*
X116176227Y-113688078D01*
X115917210Y-113686604D01*
X115913398Y-113682785D01*
X115613224Y-113558142D01*
X115288202Y-113557858D01*
X114987811Y-113681977D01*
X114757785Y-113911602D01*
X114633142Y-114211776D01*
X114632858Y-114536798D01*
X114756977Y-114837189D01*
X114986602Y-115067215D01*
X115286776Y-115191858D01*
X115611798Y-115192142D01*
X115881791Y-115080583D01*
X115891808Y-115080583D01*
X115911500Y-115084500D01*
X115930588Y-115080703D01*
X116157103Y-115081992D01*
X116250000Y-115100804D01*
X116950000Y-115100804D01*
X117163823Y-115060570D01*
X117360207Y-114934201D01*
X117491954Y-114741383D01*
X117538304Y-114512500D01*
X117538304Y-114262500D01*
X117517910Y-114154118D01*
X117625000Y-114175804D01*
X117875000Y-114175804D01*
X118004588Y-114151420D01*
X118125000Y-114175804D01*
X118375000Y-114175804D01*
X118504588Y-114151420D01*
X118625000Y-114175804D01*
X118875000Y-114175804D01*
X119004588Y-114151420D01*
X119125000Y-114175804D01*
X119375000Y-114175804D01*
X119504588Y-114151420D01*
X119625000Y-114175804D01*
X119875000Y-114175804D01*
X120004588Y-114151420D01*
X120125000Y-114175804D01*
X120375000Y-114175804D01*
X120504588Y-114151420D01*
X120625000Y-114175804D01*
X120875000Y-114175804D01*
X121088823Y-114135570D01*
X121285207Y-114009201D01*
X121416954Y-113816383D01*
X121463304Y-113587500D01*
X121463304Y-112887500D01*
X121447000Y-112800853D01*
X121447000Y-112391170D01*
X121393944Y-112124440D01*
X121367571Y-112084970D01*
X121242854Y-111898317D01*
X119496536Y-110152000D01*
X128348000Y-110152000D01*
X128348000Y-114986696D01*
G36*
X119045105Y-144904895D02*
X119054077Y-144950000D01*
X119004349Y-145200000D01*
X119054077Y-145450000D01*
X119004349Y-145700000D01*
X119054077Y-145950000D01*
X119045105Y-145995105D01*
X119000000Y-146004077D01*
X118750000Y-145954349D01*
X118471789Y-146009689D01*
X118250000Y-146157883D01*
X118028211Y-146009689D01*
X117954895Y-145995105D01*
X117945923Y-145950000D01*
X117995651Y-145700000D01*
X117945923Y-145450000D01*
X117995651Y-145200000D01*
X117945923Y-144950000D01*
X117954895Y-144904895D01*
X118000000Y-144895923D01*
X118250000Y-144945651D01*
X118500000Y-144895923D01*
X118750000Y-144945651D01*
X119000000Y-144895923D01*
X119045105Y-144904895D01*
X119045105Y-144904895D01*
G37*
X119045105Y-144904895D02*
X119054077Y-144950000D01*
X119004349Y-145200000D01*
X119054077Y-145450000D01*
X119004349Y-145700000D01*
X119054077Y-145950000D01*
X119045105Y-145995105D01*
X119000000Y-146004077D01*
X118750000Y-145954349D01*
X118471789Y-146009689D01*
X118250000Y-146157883D01*
X118028211Y-146009689D01*
X117954895Y-145995105D01*
X117945923Y-145950000D01*
X117995651Y-145700000D01*
X117945923Y-145450000D01*
X117995651Y-145200000D01*
X117945923Y-144950000D01*
X117954895Y-144904895D01*
X118000000Y-144895923D01*
X118250000Y-144945651D01*
X118500000Y-144895923D01*
X118750000Y-144945651D01*
X119000000Y-144895923D01*
X119045105Y-144904895D01*
G36*
X118471789Y-132440311D02*
X118750000Y-132495651D01*
X119000000Y-132445923D01*
X119045105Y-132454895D01*
X119054077Y-132500000D01*
X119004349Y-132750000D01*
X119054077Y-133000000D01*
X119004349Y-133250000D01*
X119054077Y-133500000D01*
X119045105Y-133545105D01*
X119000000Y-133554077D01*
X118750000Y-133504349D01*
X118471789Y-133559689D01*
X118250000Y-133707883D01*
X118028211Y-133559689D01*
X117954895Y-133545105D01*
X117945923Y-133500000D01*
X117995651Y-133250000D01*
X117945923Y-133000000D01*
X117995651Y-132750000D01*
X117945923Y-132500000D01*
X117954895Y-132454895D01*
X118028211Y-132440311D01*
X118250000Y-132292117D01*
X118471789Y-132440311D01*
X118471789Y-132440311D01*
G37*
X118471789Y-132440311D02*
X118750000Y-132495651D01*
X119000000Y-132445923D01*
X119045105Y-132454895D01*
X119054077Y-132500000D01*
X119004349Y-132750000D01*
X119054077Y-133000000D01*
X119004349Y-133250000D01*
X119054077Y-133500000D01*
X119045105Y-133545105D01*
X119000000Y-133554077D01*
X118750000Y-133504349D01*
X118471789Y-133559689D01*
X118250000Y-133707883D01*
X118028211Y-133559689D01*
X117954895Y-133545105D01*
X117945923Y-133500000D01*
X117995651Y-133250000D01*
X117945923Y-133000000D01*
X117995651Y-132750000D01*
X117945923Y-132500000D01*
X117954895Y-132454895D01*
X118028211Y-132440311D01*
X118250000Y-132292117D01*
X118471789Y-132440311D01*
G36*
X117980989Y-120718111D02*
X118259200Y-120773451D01*
X118509200Y-120723723D01*
X118759200Y-120773451D01*
X119009200Y-120723723D01*
X119054305Y-120732695D01*
X119063277Y-120777800D01*
X119013549Y-121027800D01*
X119063277Y-121277800D01*
X119013549Y-121527800D01*
X119063277Y-121777800D01*
X119054305Y-121822905D01*
X119009200Y-121831877D01*
X118759200Y-121782149D01*
X118480989Y-121837489D01*
X118259200Y-121985683D01*
X118037411Y-121837489D01*
X117964095Y-121822905D01*
X117955123Y-121777800D01*
X118004851Y-121527800D01*
X117955123Y-121277800D01*
X118004851Y-121027800D01*
X117955123Y-120777800D01*
X117968637Y-120709858D01*
X117980989Y-120718111D01*
X117980989Y-120718111D01*
G37*
X117980989Y-120718111D02*
X118259200Y-120773451D01*
X118509200Y-120723723D01*
X118759200Y-120773451D01*
X119009200Y-120723723D01*
X119054305Y-120732695D01*
X119063277Y-120777800D01*
X119013549Y-121027800D01*
X119063277Y-121277800D01*
X119013549Y-121527800D01*
X119063277Y-121777800D01*
X119054305Y-121822905D01*
X119009200Y-121831877D01*
X118759200Y-121782149D01*
X118480989Y-121837489D01*
X118259200Y-121985683D01*
X118037411Y-121837489D01*
X117964095Y-121822905D01*
X117955123Y-121777800D01*
X118004851Y-121527800D01*
X117955123Y-121277800D01*
X118004851Y-121027800D01*
X117955123Y-120777800D01*
X117968637Y-120709858D01*
X117980989Y-120718111D01*
G36*
X104716937Y-113294971D02*
X104565846Y-113521093D01*
X104565846Y-113521094D01*
X104512790Y-113787824D01*
X104512790Y-114584376D01*
X104548221Y-114762500D01*
X104565846Y-114851107D01*
X104716937Y-115077229D01*
X105242208Y-115602501D01*
X105057785Y-115786602D01*
X104933142Y-116086776D01*
X104932858Y-116411798D01*
X105056977Y-116712189D01*
X105286602Y-116942215D01*
X105586776Y-117066858D01*
X105911798Y-117067142D01*
X106179155Y-116956672D01*
X106281349Y-116977000D01*
X106523000Y-116977000D01*
X106523000Y-117218651D01*
X106543405Y-117321233D01*
X106433142Y-117586776D01*
X106432940Y-117818361D01*
X106339793Y-117878299D01*
X106302357Y-117933089D01*
X106275266Y-117933065D01*
X106128883Y-117833046D01*
X105900000Y-117786696D01*
X105100000Y-117786696D01*
X104886177Y-117826930D01*
X104689793Y-117953299D01*
X104558046Y-118146117D01*
X104511696Y-118375000D01*
X104511696Y-119125000D01*
X104551930Y-119338823D01*
X104678299Y-119535207D01*
X104871117Y-119666954D01*
X105100000Y-119713304D01*
X105900000Y-119713304D01*
X106113823Y-119673070D01*
X106278554Y-119567069D01*
X106300553Y-119567088D01*
X106328299Y-119610207D01*
X106521117Y-119741954D01*
X106750000Y-119788304D01*
X107250000Y-119788304D01*
X107463823Y-119748070D01*
X107660207Y-119621701D01*
X107697613Y-119566955D01*
X107710882Y-119566966D01*
X107708046Y-119571117D01*
X107661696Y-119800000D01*
X107661696Y-120700000D01*
X107701930Y-120913823D01*
X107828299Y-121110207D01*
X108021117Y-121241954D01*
X108250000Y-121288304D01*
X108750000Y-121288304D01*
X108963823Y-121248070D01*
X109160207Y-121121701D01*
X109243000Y-121000530D01*
X109243000Y-121511887D01*
X109139793Y-121578299D01*
X109136581Y-121583000D01*
X108344274Y-121583000D01*
X108165000Y-121546696D01*
X107835000Y-121546696D01*
X107621177Y-121586930D01*
X107424793Y-121713299D01*
X107293046Y-121906117D01*
X107246696Y-122135000D01*
X107246696Y-122223240D01*
X107165000Y-122206696D01*
X106835000Y-122206696D01*
X106642063Y-122243000D01*
X106475000Y-122243000D01*
X106185309Y-122300623D01*
X106011436Y-122416801D01*
X105939720Y-122464720D01*
X105464720Y-122939720D01*
X105300623Y-123185308D01*
X105281137Y-123283270D01*
X105243000Y-123475000D01*
X105243000Y-126955000D01*
X105300623Y-127244692D01*
X105464720Y-127490280D01*
X106558000Y-128583560D01*
X106558000Y-132571440D01*
X105967744Y-133161696D01*
X105550000Y-133161696D01*
X105336177Y-133201930D01*
X105139793Y-133328299D01*
X105136581Y-133333000D01*
X104844274Y-133333000D01*
X104665000Y-133296696D01*
X104335000Y-133296696D01*
X104121177Y-133336930D01*
X103924793Y-133463299D01*
X103793046Y-133656117D01*
X103746696Y-133885000D01*
X103746696Y-133973240D01*
X103665000Y-133956696D01*
X103335000Y-133956696D01*
X103142063Y-133993000D01*
X100722026Y-133993000D01*
X100671701Y-133914793D01*
X100478883Y-133783046D01*
X100250000Y-133736696D01*
X97652000Y-133736696D01*
X97652000Y-120077708D01*
X97653667Y-120086089D01*
X97963002Y-120549041D01*
X98425954Y-120858376D01*
X98972043Y-120967000D01*
X99027957Y-120967000D01*
X99574046Y-120858376D01*
X100036998Y-120549041D01*
X100346333Y-120086089D01*
X100454957Y-119540000D01*
X100346333Y-118993911D01*
X100036998Y-118530959D01*
X99646446Y-118270000D01*
X100036998Y-118009041D01*
X100346333Y-117546089D01*
X100454957Y-117000000D01*
X100346333Y-116453911D01*
X100036998Y-115990959D01*
X99887711Y-115891208D01*
X100063823Y-115858070D01*
X100260207Y-115731701D01*
X100391954Y-115538883D01*
X100438304Y-115310000D01*
X100438304Y-113610000D01*
X100398070Y-113396177D01*
X100271701Y-113199793D01*
X100078883Y-113068046D01*
X99850000Y-113021696D01*
X98150000Y-113021696D01*
X97936177Y-113061930D01*
X97739793Y-113188299D01*
X97652000Y-113316788D01*
X97652000Y-110152000D01*
X107859907Y-110152000D01*
X104716937Y-113294971D01*
X104716937Y-113294971D01*
G37*
X104716937Y-113294971D02*
X104565846Y-113521093D01*
X104565846Y-113521094D01*
X104512790Y-113787824D01*
X104512790Y-114584376D01*
X104548221Y-114762500D01*
X104565846Y-114851107D01*
X104716937Y-115077229D01*
X105242208Y-115602501D01*
X105057785Y-115786602D01*
X104933142Y-116086776D01*
X104932858Y-116411798D01*
X105056977Y-116712189D01*
X105286602Y-116942215D01*
X105586776Y-117066858D01*
X105911798Y-117067142D01*
X106179155Y-116956672D01*
X106281349Y-116977000D01*
X106523000Y-116977000D01*
X106523000Y-117218651D01*
X106543405Y-117321233D01*
X106433142Y-117586776D01*
X106432940Y-117818361D01*
X106339793Y-117878299D01*
X106302357Y-117933089D01*
X106275266Y-117933065D01*
X106128883Y-117833046D01*
X105900000Y-117786696D01*
X105100000Y-117786696D01*
X104886177Y-117826930D01*
X104689793Y-117953299D01*
X104558046Y-118146117D01*
X104511696Y-118375000D01*
X104511696Y-119125000D01*
X104551930Y-119338823D01*
X104678299Y-119535207D01*
X104871117Y-119666954D01*
X105100000Y-119713304D01*
X105900000Y-119713304D01*
X106113823Y-119673070D01*
X106278554Y-119567069D01*
X106300553Y-119567088D01*
X106328299Y-119610207D01*
X106521117Y-119741954D01*
X106750000Y-119788304D01*
X107250000Y-119788304D01*
X107463823Y-119748070D01*
X107660207Y-119621701D01*
X107697613Y-119566955D01*
X107710882Y-119566966D01*
X107708046Y-119571117D01*
X107661696Y-119800000D01*
X107661696Y-120700000D01*
X107701930Y-120913823D01*
X107828299Y-121110207D01*
X108021117Y-121241954D01*
X108250000Y-121288304D01*
X108750000Y-121288304D01*
X108963823Y-121248070D01*
X109160207Y-121121701D01*
X109243000Y-121000530D01*
X109243000Y-121511887D01*
X109139793Y-121578299D01*
X109136581Y-121583000D01*
X108344274Y-121583000D01*
X108165000Y-121546696D01*
X107835000Y-121546696D01*
X107621177Y-121586930D01*
X107424793Y-121713299D01*
X107293046Y-121906117D01*
X107246696Y-122135000D01*
X107246696Y-122223240D01*
X107165000Y-122206696D01*
X106835000Y-122206696D01*
X106642063Y-122243000D01*
X106475000Y-122243000D01*
X106185309Y-122300623D01*
X106011436Y-122416801D01*
X105939720Y-122464720D01*
X105464720Y-122939720D01*
X105300623Y-123185308D01*
X105281137Y-123283270D01*
X105243000Y-123475000D01*
X105243000Y-126955000D01*
X105300623Y-127244692D01*
X105464720Y-127490280D01*
X106558000Y-128583560D01*
X106558000Y-132571440D01*
X105967744Y-133161696D01*
X105550000Y-133161696D01*
X105336177Y-133201930D01*
X105139793Y-133328299D01*
X105136581Y-133333000D01*
X104844274Y-133333000D01*
X104665000Y-133296696D01*
X104335000Y-133296696D01*
X104121177Y-133336930D01*
X103924793Y-133463299D01*
X103793046Y-133656117D01*
X103746696Y-133885000D01*
X103746696Y-133973240D01*
X103665000Y-133956696D01*
X103335000Y-133956696D01*
X103142063Y-133993000D01*
X100722026Y-133993000D01*
X100671701Y-133914793D01*
X100478883Y-133783046D01*
X100250000Y-133736696D01*
X97652000Y-133736696D01*
X97652000Y-120077708D01*
X97653667Y-120086089D01*
X97963002Y-120549041D01*
X98425954Y-120858376D01*
X98972043Y-120967000D01*
X99027957Y-120967000D01*
X99574046Y-120858376D01*
X100036998Y-120549041D01*
X100346333Y-120086089D01*
X100454957Y-119540000D01*
X100346333Y-118993911D01*
X100036998Y-118530959D01*
X99646446Y-118270000D01*
X100036998Y-118009041D01*
X100346333Y-117546089D01*
X100454957Y-117000000D01*
X100346333Y-116453911D01*
X100036998Y-115990959D01*
X99887711Y-115891208D01*
X100063823Y-115858070D01*
X100260207Y-115731701D01*
X100391954Y-115538883D01*
X100438304Y-115310000D01*
X100438304Y-113610000D01*
X100398070Y-113396177D01*
X100271701Y-113199793D01*
X100078883Y-113068046D01*
X99850000Y-113021696D01*
X98150000Y-113021696D01*
X97936177Y-113061930D01*
X97739793Y-113188299D01*
X97652000Y-113316788D01*
X97652000Y-110152000D01*
X107859907Y-110152000D01*
X104716937Y-113294971D01*
G36*
X108471789Y-114940311D02*
X108545105Y-114954895D01*
X108554077Y-115000000D01*
X108504349Y-115250000D01*
X108554077Y-115500000D01*
X108504349Y-115750000D01*
X108554077Y-116000000D01*
X108504349Y-116250000D01*
X108559689Y-116528211D01*
X108717282Y-116764067D01*
X108953138Y-116921660D01*
X109170173Y-116964831D01*
X108447000Y-117688004D01*
X108447000Y-117369470D01*
X108477000Y-117218651D01*
X108477000Y-116731349D01*
X108421660Y-116453138D01*
X108264067Y-116217282D01*
X108028211Y-116059689D01*
X107750000Y-116004349D01*
X107500000Y-116054077D01*
X107454895Y-116045105D01*
X107445923Y-116000000D01*
X107495651Y-115750000D01*
X107445923Y-115500000D01*
X107495651Y-115250000D01*
X107445923Y-115000000D01*
X107454895Y-114954895D01*
X107500000Y-114945923D01*
X107750000Y-114995651D01*
X108028211Y-114940311D01*
X108250000Y-114792117D01*
X108471789Y-114940311D01*
X108471789Y-114940311D01*
G37*
X108471789Y-114940311D02*
X108545105Y-114954895D01*
X108554077Y-115000000D01*
X108504349Y-115250000D01*
X108554077Y-115500000D01*
X108504349Y-115750000D01*
X108554077Y-116000000D01*
X108504349Y-116250000D01*
X108559689Y-116528211D01*
X108717282Y-116764067D01*
X108953138Y-116921660D01*
X109170173Y-116964831D01*
X108447000Y-117688004D01*
X108447000Y-117369470D01*
X108477000Y-117218651D01*
X108477000Y-116731349D01*
X108421660Y-116453138D01*
X108264067Y-116217282D01*
X108028211Y-116059689D01*
X107750000Y-116004349D01*
X107500000Y-116054077D01*
X107454895Y-116045105D01*
X107445923Y-116000000D01*
X107495651Y-115750000D01*
X107445923Y-115500000D01*
X107495651Y-115250000D01*
X107445923Y-115000000D01*
X107454895Y-114954895D01*
X107500000Y-114945923D01*
X107750000Y-114995651D01*
X108028211Y-114940311D01*
X108250000Y-114792117D01*
X108471789Y-114940311D01*
M02*
