G04 #@! TF.FileFunction,Legend,Top*
%FSLAX46Y46*%
G04 Gerber Fmt 4.6, Leading zero omitted, Abs format (unit mm)*
G04 Created by KiCad (PCBNEW 4.0.6-e0-6349~53~ubuntu14.04.1) date Thu Apr 13 01:04:39 2017*
%MOMM*%
%LPD*%
G01*
G04 APERTURE LIST*
%ADD10C,0.100000*%
%ADD11C,0.200000*%
%ADD12C,0.300000*%
%ADD13C,0.120000*%
%ADD14C,0.150000*%
G04 APERTURE END LIST*
D10*
D11*
X98976189Y-154861905D02*
X98976189Y-154061905D01*
X99280951Y-154061905D01*
X99357142Y-154100000D01*
X99395237Y-154138095D01*
X99433332Y-154214286D01*
X99433332Y-154328571D01*
X99395237Y-154404762D01*
X99357142Y-154442857D01*
X99280951Y-154480952D01*
X98976189Y-154480952D01*
X99776189Y-154861905D02*
X99776189Y-154061905D01*
X100119046Y-154861905D02*
X100119046Y-154442857D01*
X100080951Y-154366667D01*
X100004761Y-154328571D01*
X99890475Y-154328571D01*
X99814284Y-154366667D01*
X99776189Y-154404762D01*
X100842856Y-154861905D02*
X100842856Y-154442857D01*
X100804761Y-154366667D01*
X100728571Y-154328571D01*
X100576190Y-154328571D01*
X100499999Y-154366667D01*
X100842856Y-154823810D02*
X100766666Y-154861905D01*
X100576190Y-154861905D01*
X100499999Y-154823810D01*
X100461904Y-154747619D01*
X100461904Y-154671429D01*
X100499999Y-154595238D01*
X100576190Y-154557143D01*
X100766666Y-154557143D01*
X100842856Y-154519048D01*
X101185714Y-154823810D02*
X101261904Y-154861905D01*
X101414285Y-154861905D01*
X101490476Y-154823810D01*
X101528571Y-154747619D01*
X101528571Y-154709524D01*
X101490476Y-154633333D01*
X101414285Y-154595238D01*
X101300000Y-154595238D01*
X101223809Y-154557143D01*
X101185714Y-154480952D01*
X101185714Y-154442857D01*
X101223809Y-154366667D01*
X101300000Y-154328571D01*
X101414285Y-154328571D01*
X101490476Y-154366667D01*
X102176190Y-154823810D02*
X102100000Y-154861905D01*
X101947619Y-154861905D01*
X101871428Y-154823810D01*
X101833333Y-154747619D01*
X101833333Y-154442857D01*
X101871428Y-154366667D01*
X101947619Y-154328571D01*
X102100000Y-154328571D01*
X102176190Y-154366667D01*
X102214285Y-154442857D01*
X102214285Y-154519048D01*
X101833333Y-154595238D01*
X103128571Y-154823810D02*
X103242857Y-154861905D01*
X103433333Y-154861905D01*
X103509523Y-154823810D01*
X103547619Y-154785714D01*
X103585714Y-154709524D01*
X103585714Y-154633333D01*
X103547619Y-154557143D01*
X103509523Y-154519048D01*
X103433333Y-154480952D01*
X103280952Y-154442857D01*
X103204761Y-154404762D01*
X103166666Y-154366667D01*
X103128571Y-154290476D01*
X103128571Y-154214286D01*
X103166666Y-154138095D01*
X103204761Y-154100000D01*
X103280952Y-154061905D01*
X103471428Y-154061905D01*
X103585714Y-154100000D01*
X103928571Y-154861905D02*
X103928571Y-154061905D01*
X104271428Y-154861905D02*
X104271428Y-154442857D01*
X104233333Y-154366667D01*
X104157143Y-154328571D01*
X104042857Y-154328571D01*
X103966666Y-154366667D01*
X103928571Y-154404762D01*
X104652381Y-154861905D02*
X104652381Y-154328571D01*
X104652381Y-154061905D02*
X104614286Y-154100000D01*
X104652381Y-154138095D01*
X104690476Y-154100000D01*
X104652381Y-154061905D01*
X104652381Y-154138095D01*
X104919047Y-154328571D02*
X105223809Y-154328571D01*
X105033333Y-154861905D02*
X105033333Y-154176190D01*
X105071428Y-154100000D01*
X105147619Y-154061905D01*
X105223809Y-154061905D01*
X105376190Y-154328571D02*
X105680952Y-154328571D01*
X105490476Y-154061905D02*
X105490476Y-154747619D01*
X105528571Y-154823810D01*
X105604762Y-154861905D01*
X105680952Y-154861905D01*
X106252381Y-154823810D02*
X106176191Y-154861905D01*
X106023810Y-154861905D01*
X105947619Y-154823810D01*
X105909524Y-154747619D01*
X105909524Y-154442857D01*
X105947619Y-154366667D01*
X106023810Y-154328571D01*
X106176191Y-154328571D01*
X106252381Y-154366667D01*
X106290476Y-154442857D01*
X106290476Y-154519048D01*
X105909524Y-154595238D01*
X106633333Y-154861905D02*
X106633333Y-154328571D01*
X106633333Y-154480952D02*
X106671428Y-154404762D01*
X106709524Y-154366667D01*
X106785714Y-154328571D01*
X106861905Y-154328571D01*
X108004762Y-154442857D02*
X108119048Y-154480952D01*
X108157143Y-154519048D01*
X108195238Y-154595238D01*
X108195238Y-154709524D01*
X108157143Y-154785714D01*
X108119048Y-154823810D01*
X108042857Y-154861905D01*
X107738095Y-154861905D01*
X107738095Y-154061905D01*
X108004762Y-154061905D01*
X108080952Y-154100000D01*
X108119048Y-154138095D01*
X108157143Y-154214286D01*
X108157143Y-154290476D01*
X108119048Y-154366667D01*
X108080952Y-154404762D01*
X108004762Y-154442857D01*
X107738095Y-154442857D01*
X108652381Y-154861905D02*
X108576190Y-154823810D01*
X108538095Y-154785714D01*
X108500000Y-154709524D01*
X108500000Y-154480952D01*
X108538095Y-154404762D01*
X108576190Y-154366667D01*
X108652381Y-154328571D01*
X108766667Y-154328571D01*
X108842857Y-154366667D01*
X108880952Y-154404762D01*
X108919048Y-154480952D01*
X108919048Y-154709524D01*
X108880952Y-154785714D01*
X108842857Y-154823810D01*
X108766667Y-154861905D01*
X108652381Y-154861905D01*
X109604762Y-154861905D02*
X109604762Y-154442857D01*
X109566667Y-154366667D01*
X109490477Y-154328571D01*
X109338096Y-154328571D01*
X109261905Y-154366667D01*
X109604762Y-154823810D02*
X109528572Y-154861905D01*
X109338096Y-154861905D01*
X109261905Y-154823810D01*
X109223810Y-154747619D01*
X109223810Y-154671429D01*
X109261905Y-154595238D01*
X109338096Y-154557143D01*
X109528572Y-154557143D01*
X109604762Y-154519048D01*
X109985715Y-154861905D02*
X109985715Y-154328571D01*
X109985715Y-154480952D02*
X110023810Y-154404762D01*
X110061906Y-154366667D01*
X110138096Y-154328571D01*
X110214287Y-154328571D01*
X110823810Y-154861905D02*
X110823810Y-154061905D01*
X110823810Y-154823810D02*
X110747620Y-154861905D01*
X110595239Y-154861905D01*
X110519048Y-154823810D01*
X110480953Y-154785714D01*
X110442858Y-154709524D01*
X110442858Y-154480952D01*
X110480953Y-154404762D01*
X110519048Y-154366667D01*
X110595239Y-154328571D01*
X110747620Y-154328571D01*
X110823810Y-154366667D01*
X111700001Y-154061905D02*
X111966668Y-154861905D01*
X112233335Y-154061905D01*
X112919049Y-154861905D02*
X112461906Y-154861905D01*
X112690477Y-154861905D02*
X112690477Y-154061905D01*
X112614287Y-154176190D01*
X112538096Y-154252381D01*
X112461906Y-154290476D01*
X113261906Y-154785714D02*
X113300001Y-154823810D01*
X113261906Y-154861905D01*
X113223811Y-154823810D01*
X113261906Y-154785714D01*
X113261906Y-154861905D01*
X113795239Y-154061905D02*
X113871430Y-154061905D01*
X113947620Y-154100000D01*
X113985715Y-154138095D01*
X114023811Y-154214286D01*
X114061906Y-154366667D01*
X114061906Y-154557143D01*
X114023811Y-154709524D01*
X113985715Y-154785714D01*
X113947620Y-154823810D01*
X113871430Y-154861905D01*
X113795239Y-154861905D01*
X113719049Y-154823810D01*
X113680953Y-154785714D01*
X113642858Y-154709524D01*
X113604763Y-154557143D01*
X113604763Y-154366667D01*
X113642858Y-154214286D01*
X113680953Y-154138095D01*
X113719049Y-154100000D01*
X113795239Y-154061905D01*
D12*
X128750000Y-138975000D02*
X128750000Y-137225000D01*
X128750000Y-142725000D02*
X128750000Y-140975000D01*
X97250000Y-135750000D02*
X97250000Y-137500000D01*
X97250000Y-132000000D02*
X97250000Y-133750000D01*
X128750000Y-150975000D02*
X128750000Y-149225000D01*
X128750000Y-154725000D02*
X128750000Y-152975000D01*
D13*
X113750000Y-140728800D02*
X114250000Y-140728800D01*
X114250000Y-139788800D02*
X113750000Y-139788800D01*
X123100000Y-121595400D02*
X123100000Y-122295400D01*
X121900000Y-122295400D02*
X121900000Y-121595400D01*
X113750000Y-117360800D02*
X114250000Y-117360800D01*
X114250000Y-116420800D02*
X113750000Y-116420800D01*
X121900000Y-146323800D02*
X121900000Y-145623800D01*
X123100000Y-145623800D02*
X123100000Y-146323800D01*
X113750000Y-128867000D02*
X114250000Y-128867000D01*
X114250000Y-127927000D02*
X113750000Y-127927000D01*
X105100000Y-119350000D02*
X104400000Y-119350000D01*
X104400000Y-118150000D02*
X105100000Y-118150000D01*
X121900000Y-133850000D02*
X121900000Y-133150000D01*
X123100000Y-133150000D02*
X123100000Y-133850000D01*
X113750000Y-153860600D02*
X114250000Y-153860600D01*
X114250000Y-152920600D02*
X113750000Y-152920600D01*
D12*
X128750000Y-115000000D02*
X128750000Y-113250000D01*
X128750000Y-118750000D02*
X128750000Y-117000000D01*
X128750000Y-127000000D02*
X128750000Y-125250000D01*
X128750000Y-130750000D02*
X128750000Y-129000000D01*
D13*
X97670000Y-115730000D02*
X97670000Y-123410000D01*
X97670000Y-123410000D02*
X100330000Y-123410000D01*
X100330000Y-123410000D02*
X100330000Y-115730000D01*
X100330000Y-115730000D02*
X97670000Y-115730000D01*
X97670000Y-114460000D02*
X97670000Y-113130000D01*
X97670000Y-113130000D02*
X99000000Y-113130000D01*
X108250000Y-119430000D02*
X107250000Y-119430000D01*
X107250000Y-118070000D02*
X108250000Y-118070000D01*
X107250000Y-119570000D02*
X108250000Y-119570000D01*
X108250000Y-120930000D02*
X107250000Y-120930000D01*
X113733200Y-122930200D02*
X112733200Y-122930200D01*
X112733200Y-121570200D02*
X113733200Y-121570200D01*
X112758600Y-123526000D02*
X113758600Y-123526000D01*
X113758600Y-124886000D02*
X112758600Y-124886000D01*
X106680000Y-134250000D02*
X106680000Y-135250000D01*
X105320000Y-135250000D02*
X105320000Y-134250000D01*
X110680000Y-146100200D02*
X110680000Y-147100200D01*
X109320000Y-147100200D02*
X109320000Y-146100200D01*
X110680000Y-122500000D02*
X110680000Y-123500000D01*
X109320000Y-123500000D02*
X109320000Y-122500000D01*
X110699000Y-132351400D02*
X110699000Y-131351400D01*
X112059000Y-131351400D02*
X112059000Y-132351400D01*
X114014800Y-131351400D02*
X114014800Y-132351400D01*
X112654800Y-132351400D02*
X112654800Y-131351400D01*
X113758600Y-146222000D02*
X112758600Y-146222000D01*
X112758600Y-144862000D02*
X113758600Y-144862000D01*
X112746600Y-146563800D02*
X113746600Y-146563800D01*
X113746600Y-147923800D02*
X112746600Y-147923800D01*
D14*
X106375000Y-117125000D02*
X106375000Y-116625000D01*
X109625000Y-113875000D02*
X109625000Y-114375000D01*
X106375000Y-113875000D02*
X106375000Y-114375000D01*
X109625000Y-117125000D02*
X109125000Y-117125000D01*
X109625000Y-113875000D02*
X109125000Y-113875000D01*
X106375000Y-113875000D02*
X106875000Y-113875000D01*
X106375000Y-117125000D02*
X106875000Y-117125000D01*
X121625000Y-113012500D02*
X121625000Y-113537500D01*
X116375000Y-118262500D02*
X116375000Y-117737500D01*
X121625000Y-118262500D02*
X121625000Y-117737500D01*
X116375000Y-113012500D02*
X116900000Y-113012500D01*
X116375000Y-118262500D02*
X116900000Y-118262500D01*
X121625000Y-118262500D02*
X121100000Y-118262500D01*
X121625000Y-113012500D02*
X121100000Y-113012500D01*
X120134200Y-119652800D02*
X120134200Y-120152800D01*
X116884200Y-122902800D02*
X116884200Y-122402800D01*
X120134200Y-122902800D02*
X120134200Y-122402800D01*
X116884200Y-119652800D02*
X117384200Y-119652800D01*
X116884200Y-122902800D02*
X117384200Y-122902800D01*
X120134200Y-122902800D02*
X119634200Y-122902800D01*
X120134200Y-119652800D02*
X119634200Y-119652800D01*
X121625000Y-124512500D02*
X121625000Y-125037500D01*
X116375000Y-129762500D02*
X116375000Y-129237500D01*
X121625000Y-129762500D02*
X121625000Y-129237500D01*
X116375000Y-124512500D02*
X116900000Y-124512500D01*
X116375000Y-129762500D02*
X116900000Y-129762500D01*
X121625000Y-129762500D02*
X121100000Y-129762500D01*
X121625000Y-124512500D02*
X121100000Y-124512500D01*
D12*
X104250000Y-133250000D02*
G75*
G03X104250000Y-133250000I-250000J0D01*
G01*
X104750000Y-136000000D02*
X103250000Y-136000000D01*
X104750000Y-133500000D02*
X103250000Y-133500000D01*
X107750000Y-145000000D02*
G75*
G03X107750000Y-145000000I-250000J0D01*
G01*
X108250000Y-147750000D02*
X106750000Y-147750000D01*
X108250000Y-145250000D02*
X106750000Y-145250000D01*
X107750000Y-121500000D02*
G75*
G03X107750000Y-121500000I-250000J0D01*
G01*
X108250000Y-124250000D02*
X106750000Y-124250000D01*
X108250000Y-121750000D02*
X106750000Y-121750000D01*
D14*
X120125000Y-131375000D02*
X120125000Y-131875000D01*
X116875000Y-134625000D02*
X116875000Y-134125000D01*
X120125000Y-134625000D02*
X120125000Y-134125000D01*
X116875000Y-131375000D02*
X117375000Y-131375000D01*
X116875000Y-134625000D02*
X117375000Y-134625000D01*
X120125000Y-134625000D02*
X119625000Y-134625000D01*
X120125000Y-131375000D02*
X119625000Y-131375000D01*
X121625000Y-136375000D02*
X121625000Y-136900000D01*
X116375000Y-141625000D02*
X116375000Y-141100000D01*
X121625000Y-141625000D02*
X121625000Y-141100000D01*
X116375000Y-136375000D02*
X116900000Y-136375000D01*
X116375000Y-141625000D02*
X116900000Y-141625000D01*
X121625000Y-141625000D02*
X121100000Y-141625000D01*
X121625000Y-136375000D02*
X121100000Y-136375000D01*
X120125000Y-143825000D02*
X120125000Y-144325000D01*
X116875000Y-147075000D02*
X116875000Y-146575000D01*
X120125000Y-147075000D02*
X120125000Y-146575000D01*
X116875000Y-143825000D02*
X117375000Y-143825000D01*
X116875000Y-147075000D02*
X117375000Y-147075000D01*
X120125000Y-147075000D02*
X119625000Y-147075000D01*
X120125000Y-143825000D02*
X119625000Y-143825000D01*
X121625000Y-149512500D02*
X121625000Y-150037500D01*
X116375000Y-154762500D02*
X116375000Y-154237500D01*
X121625000Y-154762500D02*
X121625000Y-154237500D01*
X116375000Y-149512500D02*
X116900000Y-149512500D01*
X116375000Y-154762500D02*
X116900000Y-154762500D01*
X121625000Y-154762500D02*
X121100000Y-154762500D01*
X121625000Y-149512500D02*
X121100000Y-149512500D01*
M02*
