G04 #@! TF.FileFunction,Soldermask,Top*
%FSLAX46Y46*%
G04 Gerber Fmt 4.6, Leading zero omitted, Abs format (unit mm)*
G04 Created by KiCad (PCBNEW 4.0.6-e0-6349~53~ubuntu14.04.1) date Thu Apr 13 01:04:39 2017*
%MOMM*%
%LPD*%
G01*
G04 APERTURE LIST*
%ADD10C,0.100000*%
G04 APERTURE END LIST*
D10*
G36*
X128813500Y-156013500D02*
X124186500Y-156013500D01*
X124186500Y-153886500D01*
X128813500Y-153886500D01*
X128813500Y-156013500D01*
X128813500Y-156013500D01*
G37*
G36*
X119938500Y-154951000D02*
X119561500Y-154951000D01*
X119561500Y-154124000D01*
X119938500Y-154124000D01*
X119938500Y-154951000D01*
X119938500Y-154951000D01*
G37*
G36*
X117068500Y-154124000D02*
X117438500Y-154124000D01*
X117438500Y-154951000D01*
X117061500Y-154951000D01*
X117061500Y-154131000D01*
X117060414Y-154123355D01*
X117068500Y-154124000D01*
X117068500Y-154124000D01*
G37*
G36*
X117938500Y-154951000D02*
X117561500Y-154951000D01*
X117561500Y-154124000D01*
X117938500Y-154124000D01*
X117938500Y-154951000D01*
X117938500Y-154951000D01*
G37*
G36*
X118438500Y-154951000D02*
X118061500Y-154951000D01*
X118061500Y-154124000D01*
X118438500Y-154124000D01*
X118438500Y-154951000D01*
X118438500Y-154951000D01*
G37*
G36*
X119438500Y-154951000D02*
X119061500Y-154951000D01*
X119061500Y-154124000D01*
X119438500Y-154124000D01*
X119438500Y-154951000D01*
X119438500Y-154951000D01*
G37*
G36*
X120438500Y-154951000D02*
X120061500Y-154951000D01*
X120061500Y-154124000D01*
X120438500Y-154124000D01*
X120438500Y-154951000D01*
X120438500Y-154951000D01*
G37*
G36*
X120938500Y-154131000D02*
X120938500Y-154951000D01*
X120561500Y-154951000D01*
X120561500Y-154124000D01*
X120931500Y-154124000D01*
X120939145Y-154122914D01*
X120938500Y-154131000D01*
X120938500Y-154131000D01*
G37*
G36*
X118938500Y-154951000D02*
X118561500Y-154951000D01*
X118561500Y-154124000D01*
X118938500Y-154124000D01*
X118938500Y-154951000D01*
X118938500Y-154951000D01*
G37*
G36*
X121813500Y-154076000D02*
X120993500Y-154076000D01*
X120985855Y-154077086D01*
X120986500Y-154069000D01*
X120986500Y-153699000D01*
X121813500Y-153699000D01*
X121813500Y-154076000D01*
X121813500Y-154076000D01*
G37*
G36*
X117013500Y-154069000D02*
X117014586Y-154076645D01*
X117006500Y-154076000D01*
X116186500Y-154076000D01*
X116186500Y-153699000D01*
X117013500Y-153699000D01*
X117013500Y-154069000D01*
X117013500Y-154069000D01*
G37*
G36*
X120788500Y-153926000D02*
X117211500Y-153926000D01*
X117211500Y-150349000D01*
X120788500Y-150349000D01*
X120788500Y-153926000D01*
X120788500Y-153926000D01*
G37*
G36*
X114913500Y-153704100D02*
X114186500Y-153704100D01*
X114186500Y-153077100D01*
X114913500Y-153077100D01*
X114913500Y-153704100D01*
X114913500Y-153704100D01*
G37*
G36*
X113813500Y-153704100D02*
X113086500Y-153704100D01*
X113086500Y-153077100D01*
X113813500Y-153077100D01*
X113813500Y-153704100D01*
X113813500Y-153704100D01*
G37*
G36*
X121813500Y-153576000D02*
X120986500Y-153576000D01*
X120986500Y-153199000D01*
X121813500Y-153199000D01*
X121813500Y-153576000D01*
X121813500Y-153576000D01*
G37*
G36*
X117013500Y-153576000D02*
X116186500Y-153576000D01*
X116186500Y-153199000D01*
X117013500Y-153199000D01*
X117013500Y-153576000D01*
X117013500Y-153576000D01*
G37*
G36*
X121813500Y-153076000D02*
X120986500Y-153076000D01*
X120986500Y-152699000D01*
X121813500Y-152699000D01*
X121813500Y-153076000D01*
X121813500Y-153076000D01*
G37*
G36*
X117013500Y-153076000D02*
X116186500Y-153076000D01*
X116186500Y-152699000D01*
X117013500Y-152699000D01*
X117013500Y-153076000D01*
X117013500Y-153076000D01*
G37*
G36*
X121813500Y-152576000D02*
X120986500Y-152576000D01*
X120986500Y-152199000D01*
X121813500Y-152199000D01*
X121813500Y-152576000D01*
X121813500Y-152576000D01*
G37*
G36*
X117013500Y-152576000D02*
X116186500Y-152576000D01*
X116186500Y-152199000D01*
X117013500Y-152199000D01*
X117013500Y-152576000D01*
X117013500Y-152576000D01*
G37*
G36*
X128813500Y-152463500D02*
X125686500Y-152463500D01*
X125686500Y-151486500D01*
X128813500Y-151486500D01*
X128813500Y-152463500D01*
X128813500Y-152463500D01*
G37*
G36*
X121813500Y-152076000D02*
X120986500Y-152076000D01*
X120986500Y-151699000D01*
X121813500Y-151699000D01*
X121813500Y-152076000D01*
X121813500Y-152076000D01*
G37*
G36*
X117013500Y-152076000D02*
X116186500Y-152076000D01*
X116186500Y-151699000D01*
X117013500Y-151699000D01*
X117013500Y-152076000D01*
X117013500Y-152076000D01*
G37*
G36*
X121813500Y-151576000D02*
X120986500Y-151576000D01*
X120986500Y-151199000D01*
X121813500Y-151199000D01*
X121813500Y-151576000D01*
X121813500Y-151576000D01*
G37*
G36*
X117013500Y-151576000D02*
X116186500Y-151576000D01*
X116186500Y-151199000D01*
X117013500Y-151199000D01*
X117013500Y-151576000D01*
X117013500Y-151576000D01*
G37*
G36*
X121813500Y-151076000D02*
X120986500Y-151076000D01*
X120986500Y-150699000D01*
X121813500Y-150699000D01*
X121813500Y-151076000D01*
X121813500Y-151076000D01*
G37*
G36*
X117013500Y-151076000D02*
X116186500Y-151076000D01*
X116186500Y-150699000D01*
X117013500Y-150699000D01*
X117013500Y-151076000D01*
X117013500Y-151076000D01*
G37*
G36*
X120993500Y-150199000D02*
X121813500Y-150199000D01*
X121813500Y-150576000D01*
X120986500Y-150576000D01*
X120986500Y-150206000D01*
X120985414Y-150198355D01*
X120993500Y-150199000D01*
X120993500Y-150199000D01*
G37*
G36*
X117013500Y-150206000D02*
X117013500Y-150576000D01*
X116186500Y-150576000D01*
X116186500Y-150199000D01*
X117006500Y-150199000D01*
X117014145Y-150197914D01*
X117013500Y-150206000D01*
X117013500Y-150206000D01*
G37*
G36*
X117438500Y-150151000D02*
X117068500Y-150151000D01*
X117060855Y-150152086D01*
X117061500Y-150144000D01*
X117061500Y-149324000D01*
X117438500Y-149324000D01*
X117438500Y-150151000D01*
X117438500Y-150151000D01*
G37*
G36*
X120938500Y-150144000D02*
X120939586Y-150151645D01*
X120931500Y-150151000D01*
X120561500Y-150151000D01*
X120561500Y-149324000D01*
X120938500Y-149324000D01*
X120938500Y-150144000D01*
X120938500Y-150144000D01*
G37*
G36*
X119938500Y-150151000D02*
X119561500Y-150151000D01*
X119561500Y-149324000D01*
X119938500Y-149324000D01*
X119938500Y-150151000D01*
X119938500Y-150151000D01*
G37*
G36*
X119438500Y-150151000D02*
X119061500Y-150151000D01*
X119061500Y-149324000D01*
X119438500Y-149324000D01*
X119438500Y-150151000D01*
X119438500Y-150151000D01*
G37*
G36*
X118938500Y-150151000D02*
X118561500Y-150151000D01*
X118561500Y-149324000D01*
X118938500Y-149324000D01*
X118938500Y-150151000D01*
X118938500Y-150151000D01*
G37*
G36*
X118438500Y-150151000D02*
X118061500Y-150151000D01*
X118061500Y-149324000D01*
X118438500Y-149324000D01*
X118438500Y-150151000D01*
X118438500Y-150151000D01*
G37*
G36*
X117938500Y-150151000D02*
X117561500Y-150151000D01*
X117561500Y-149324000D01*
X117938500Y-149324000D01*
X117938500Y-150151000D01*
X117938500Y-150151000D01*
G37*
G36*
X120438500Y-150151000D02*
X120061500Y-150151000D01*
X120061500Y-149324000D01*
X120438500Y-149324000D01*
X120438500Y-150151000D01*
X120438500Y-150151000D01*
G37*
G36*
X128813500Y-150063500D02*
X124186500Y-150063500D01*
X124186500Y-147936500D01*
X128813500Y-147936500D01*
X128813500Y-150063500D01*
X128813500Y-150063500D01*
G37*
G36*
X112810100Y-147757300D02*
X112183100Y-147757300D01*
X112183100Y-146730300D01*
X112810100Y-146730300D01*
X112810100Y-147757300D01*
X112810100Y-147757300D01*
G37*
G36*
X114310100Y-147757300D02*
X113683100Y-147757300D01*
X113683100Y-146730300D01*
X114310100Y-146730300D01*
X114310100Y-147757300D01*
X114310100Y-147757300D01*
G37*
G36*
X110513500Y-147663700D02*
X109486500Y-147663700D01*
X109486500Y-147036700D01*
X110513500Y-147036700D01*
X110513500Y-147663700D01*
X110513500Y-147663700D01*
G37*
G36*
X107228500Y-147428500D02*
X106771500Y-147428500D01*
X106771500Y-146891500D01*
X107228500Y-146891500D01*
X107228500Y-147428500D01*
X107228500Y-147428500D01*
G37*
G36*
X108228500Y-147428500D02*
X107771500Y-147428500D01*
X107771500Y-146891500D01*
X108228500Y-146891500D01*
X108228500Y-147428500D01*
X108228500Y-147428500D01*
G37*
G36*
X119292880Y-143538732D02*
X119292889Y-143538735D01*
X119292930Y-143538739D01*
X119332735Y-143551060D01*
X119369388Y-143570878D01*
X119401493Y-143597439D01*
X119427829Y-143629729D01*
X119447391Y-143666519D01*
X119459434Y-143706409D01*
X119463500Y-143747878D01*
X119463500Y-144202122D01*
X119463479Y-144205103D01*
X119458835Y-144246511D01*
X119446235Y-144286229D01*
X119426162Y-144322742D01*
X119399378Y-144354662D01*
X119366905Y-144380771D01*
X119362891Y-144382869D01*
X119350475Y-144391787D01*
X119340918Y-144403960D01*
X119335130Y-144418314D01*
X119333570Y-144433712D01*
X119336362Y-144448934D01*
X119343285Y-144462777D01*
X119353789Y-144474142D01*
X119367044Y-144482131D01*
X119388526Y-144486500D01*
X119463500Y-144486500D01*
X119463500Y-144561906D01*
X119465677Y-144577229D01*
X119472038Y-144591338D01*
X119482077Y-144603117D01*
X119495000Y-144611633D01*
X119509784Y-144616211D01*
X119525258Y-144616489D01*
X119540197Y-144612446D01*
X119553418Y-144604400D01*
X119566786Y-144588180D01*
X119570878Y-144580612D01*
X119597439Y-144548507D01*
X119629729Y-144522171D01*
X119666519Y-144502609D01*
X119706409Y-144490566D01*
X119747878Y-144486500D01*
X120202151Y-144486500D01*
X120202877Y-144486505D01*
X120202880Y-144486505D01*
X120205103Y-144486521D01*
X120246511Y-144491165D01*
X120286229Y-144503765D01*
X120322742Y-144523838D01*
X120354662Y-144550622D01*
X120380771Y-144583095D01*
X120400076Y-144620021D01*
X120411840Y-144659994D01*
X120411843Y-144660028D01*
X120411847Y-144660041D01*
X120415618Y-144701488D01*
X120411268Y-144742880D01*
X120411265Y-144742889D01*
X120411261Y-144742930D01*
X120398940Y-144782735D01*
X120379122Y-144819388D01*
X120352561Y-144851493D01*
X120320271Y-144877829D01*
X120283481Y-144897391D01*
X120281348Y-144898035D01*
X120268514Y-144903989D01*
X120256844Y-144914155D01*
X120248469Y-144927169D01*
X120244051Y-144942002D01*
X120243940Y-144957478D01*
X120248145Y-144972373D01*
X120256333Y-144985506D01*
X120267856Y-144995838D01*
X120280652Y-145001996D01*
X120286229Y-145003765D01*
X120322742Y-145023838D01*
X120354662Y-145050622D01*
X120380771Y-145083095D01*
X120400076Y-145120021D01*
X120411840Y-145159994D01*
X120411843Y-145160028D01*
X120411847Y-145160041D01*
X120415618Y-145201488D01*
X120411268Y-145242880D01*
X120411265Y-145242889D01*
X120411261Y-145242930D01*
X120398940Y-145282735D01*
X120379122Y-145319388D01*
X120352561Y-145351493D01*
X120320271Y-145377829D01*
X120283481Y-145397391D01*
X120281348Y-145398035D01*
X120268514Y-145403989D01*
X120256844Y-145414155D01*
X120248469Y-145427169D01*
X120244051Y-145442002D01*
X120243940Y-145457478D01*
X120248145Y-145472373D01*
X120256333Y-145485506D01*
X120267856Y-145495838D01*
X120280652Y-145501996D01*
X120286229Y-145503765D01*
X120322742Y-145523838D01*
X120354662Y-145550622D01*
X120380771Y-145583095D01*
X120400076Y-145620021D01*
X120411840Y-145659994D01*
X120411843Y-145660028D01*
X120411847Y-145660041D01*
X120415618Y-145701488D01*
X120411268Y-145742880D01*
X120411265Y-145742889D01*
X120411261Y-145742930D01*
X120398940Y-145782735D01*
X120379122Y-145819388D01*
X120352561Y-145851493D01*
X120320271Y-145877829D01*
X120283481Y-145897391D01*
X120281348Y-145898035D01*
X120268514Y-145903989D01*
X120256844Y-145914155D01*
X120248469Y-145927169D01*
X120244051Y-145942002D01*
X120243940Y-145957478D01*
X120248145Y-145972373D01*
X120256333Y-145985506D01*
X120267856Y-145995838D01*
X120280652Y-146001996D01*
X120286229Y-146003765D01*
X120322742Y-146023838D01*
X120354662Y-146050622D01*
X120380771Y-146083095D01*
X120400076Y-146120021D01*
X120411840Y-146159994D01*
X120411843Y-146160028D01*
X120411847Y-146160041D01*
X120415618Y-146201488D01*
X120411268Y-146242880D01*
X120411265Y-146242889D01*
X120411261Y-146242930D01*
X120398940Y-146282735D01*
X120379122Y-146319388D01*
X120352561Y-146351493D01*
X120320271Y-146377829D01*
X120283481Y-146397391D01*
X120243591Y-146409434D01*
X120202122Y-146413500D01*
X119747849Y-146413500D01*
X119747123Y-146413495D01*
X119747120Y-146413495D01*
X119744897Y-146413479D01*
X119703489Y-146408835D01*
X119663771Y-146396235D01*
X119627258Y-146376162D01*
X119595338Y-146349378D01*
X119569229Y-146316905D01*
X119567131Y-146312891D01*
X119558213Y-146300475D01*
X119546040Y-146290918D01*
X119531686Y-146285130D01*
X119516288Y-146283570D01*
X119501066Y-146286362D01*
X119487223Y-146293285D01*
X119475858Y-146303789D01*
X119467869Y-146317044D01*
X119463500Y-146338526D01*
X119463500Y-146413500D01*
X119388094Y-146413500D01*
X119372771Y-146415677D01*
X119358662Y-146422038D01*
X119346883Y-146432077D01*
X119338367Y-146445000D01*
X119333789Y-146459784D01*
X119333511Y-146475258D01*
X119337554Y-146490197D01*
X119345600Y-146503418D01*
X119361820Y-146516786D01*
X119369388Y-146520878D01*
X119401493Y-146547439D01*
X119427829Y-146579729D01*
X119447391Y-146616519D01*
X119459434Y-146656409D01*
X119463500Y-146697878D01*
X119463500Y-147152122D01*
X119463479Y-147155103D01*
X119458835Y-147196511D01*
X119446235Y-147236229D01*
X119426162Y-147272742D01*
X119399378Y-147304662D01*
X119366905Y-147330771D01*
X119329979Y-147350076D01*
X119290006Y-147361840D01*
X119289972Y-147361843D01*
X119289959Y-147361847D01*
X119248512Y-147365618D01*
X119207120Y-147361268D01*
X119207111Y-147361265D01*
X119207070Y-147361261D01*
X119167265Y-147348940D01*
X119130612Y-147329122D01*
X119098507Y-147302561D01*
X119072171Y-147270271D01*
X119052609Y-147233481D01*
X119051965Y-147231348D01*
X119046011Y-147218514D01*
X119035845Y-147206844D01*
X119022831Y-147198469D01*
X119007998Y-147194051D01*
X118992522Y-147193940D01*
X118977627Y-147198145D01*
X118964494Y-147206333D01*
X118954162Y-147217856D01*
X118948004Y-147230652D01*
X118946235Y-147236229D01*
X118926162Y-147272742D01*
X118899378Y-147304662D01*
X118866905Y-147330771D01*
X118829979Y-147350076D01*
X118790006Y-147361840D01*
X118789972Y-147361843D01*
X118789959Y-147361847D01*
X118748512Y-147365618D01*
X118707120Y-147361268D01*
X118707111Y-147361265D01*
X118707070Y-147361261D01*
X118667265Y-147348940D01*
X118630612Y-147329122D01*
X118598507Y-147302561D01*
X118572171Y-147270271D01*
X118552609Y-147233481D01*
X118551965Y-147231348D01*
X118546011Y-147218514D01*
X118535845Y-147206844D01*
X118522831Y-147198469D01*
X118507998Y-147194051D01*
X118492522Y-147193940D01*
X118477627Y-147198145D01*
X118464494Y-147206333D01*
X118454162Y-147217856D01*
X118448004Y-147230652D01*
X118446235Y-147236229D01*
X118426162Y-147272742D01*
X118399378Y-147304662D01*
X118366905Y-147330771D01*
X118329979Y-147350076D01*
X118290006Y-147361840D01*
X118289972Y-147361843D01*
X118289959Y-147361847D01*
X118248512Y-147365618D01*
X118207120Y-147361268D01*
X118207111Y-147361265D01*
X118207070Y-147361261D01*
X118167265Y-147348940D01*
X118130612Y-147329122D01*
X118098507Y-147302561D01*
X118072171Y-147270271D01*
X118052609Y-147233481D01*
X118051965Y-147231348D01*
X118046011Y-147218514D01*
X118035845Y-147206844D01*
X118022831Y-147198469D01*
X118007998Y-147194051D01*
X117992522Y-147193940D01*
X117977627Y-147198145D01*
X117964494Y-147206333D01*
X117954162Y-147217856D01*
X117948004Y-147230652D01*
X117946235Y-147236229D01*
X117926162Y-147272742D01*
X117899378Y-147304662D01*
X117866905Y-147330771D01*
X117829979Y-147350076D01*
X117790006Y-147361840D01*
X117789972Y-147361843D01*
X117789959Y-147361847D01*
X117748512Y-147365618D01*
X117707120Y-147361268D01*
X117707111Y-147361265D01*
X117707070Y-147361261D01*
X117667265Y-147348940D01*
X117630612Y-147329122D01*
X117598507Y-147302561D01*
X117572171Y-147270271D01*
X117552609Y-147233481D01*
X117540566Y-147193591D01*
X117536500Y-147152122D01*
X117536500Y-146697878D01*
X117536521Y-146694897D01*
X117541165Y-146653489D01*
X117553765Y-146613771D01*
X117573838Y-146577258D01*
X117600622Y-146545338D01*
X117633095Y-146519229D01*
X117637109Y-146517131D01*
X117649525Y-146508213D01*
X117659082Y-146496040D01*
X117664870Y-146481686D01*
X117665521Y-146475258D01*
X117833511Y-146475258D01*
X117837554Y-146490197D01*
X117845600Y-146503418D01*
X117861820Y-146516786D01*
X117869388Y-146520878D01*
X117901493Y-146547439D01*
X117927829Y-146579729D01*
X117947391Y-146616519D01*
X117948035Y-146618652D01*
X117953989Y-146631486D01*
X117964155Y-146643156D01*
X117977169Y-146651531D01*
X117992002Y-146655949D01*
X118007478Y-146656060D01*
X118022373Y-146651855D01*
X118035506Y-146643667D01*
X118045838Y-146632144D01*
X118051996Y-146619348D01*
X118053765Y-146613771D01*
X118073838Y-146577258D01*
X118100622Y-146545338D01*
X118133095Y-146519229D01*
X118137109Y-146517131D01*
X118149525Y-146508213D01*
X118159082Y-146496040D01*
X118164870Y-146481686D01*
X118165521Y-146475258D01*
X118333511Y-146475258D01*
X118337554Y-146490197D01*
X118345600Y-146503418D01*
X118361820Y-146516786D01*
X118369388Y-146520878D01*
X118401493Y-146547439D01*
X118427829Y-146579729D01*
X118447391Y-146616519D01*
X118448035Y-146618652D01*
X118453989Y-146631486D01*
X118464155Y-146643156D01*
X118477169Y-146651531D01*
X118492002Y-146655949D01*
X118507478Y-146656060D01*
X118522373Y-146651855D01*
X118535506Y-146643667D01*
X118545838Y-146632144D01*
X118551996Y-146619348D01*
X118553765Y-146613771D01*
X118573838Y-146577258D01*
X118600622Y-146545338D01*
X118633095Y-146519229D01*
X118637109Y-146517131D01*
X118649525Y-146508213D01*
X118659082Y-146496040D01*
X118664870Y-146481686D01*
X118665521Y-146475258D01*
X118833511Y-146475258D01*
X118837554Y-146490197D01*
X118845600Y-146503418D01*
X118861820Y-146516786D01*
X118869388Y-146520878D01*
X118901493Y-146547439D01*
X118927829Y-146579729D01*
X118947391Y-146616519D01*
X118948035Y-146618652D01*
X118953989Y-146631486D01*
X118964155Y-146643156D01*
X118977169Y-146651531D01*
X118992002Y-146655949D01*
X119007478Y-146656060D01*
X119022373Y-146651855D01*
X119035506Y-146643667D01*
X119045838Y-146632144D01*
X119051996Y-146619348D01*
X119053765Y-146613771D01*
X119073838Y-146577258D01*
X119100622Y-146545338D01*
X119133095Y-146519229D01*
X119137109Y-146517131D01*
X119149525Y-146508213D01*
X119159082Y-146496040D01*
X119164870Y-146481686D01*
X119166430Y-146466288D01*
X119163638Y-146451066D01*
X119156715Y-146437223D01*
X119146211Y-146425858D01*
X119132956Y-146417869D01*
X119111474Y-146413500D01*
X118888094Y-146413500D01*
X118872771Y-146415677D01*
X118858662Y-146422038D01*
X118846883Y-146432077D01*
X118838367Y-146445000D01*
X118833789Y-146459784D01*
X118833511Y-146475258D01*
X118665521Y-146475258D01*
X118666430Y-146466288D01*
X118663638Y-146451066D01*
X118656715Y-146437223D01*
X118646211Y-146425858D01*
X118632956Y-146417869D01*
X118611474Y-146413500D01*
X118388094Y-146413500D01*
X118372771Y-146415677D01*
X118358662Y-146422038D01*
X118346883Y-146432077D01*
X118338367Y-146445000D01*
X118333789Y-146459784D01*
X118333511Y-146475258D01*
X118165521Y-146475258D01*
X118166430Y-146466288D01*
X118163638Y-146451066D01*
X118156715Y-146437223D01*
X118146211Y-146425858D01*
X118132956Y-146417869D01*
X118111474Y-146413500D01*
X117888094Y-146413500D01*
X117872771Y-146415677D01*
X117858662Y-146422038D01*
X117846883Y-146432077D01*
X117838367Y-146445000D01*
X117833789Y-146459784D01*
X117833511Y-146475258D01*
X117665521Y-146475258D01*
X117666430Y-146466288D01*
X117663638Y-146451066D01*
X117656715Y-146437223D01*
X117646211Y-146425858D01*
X117632956Y-146417869D01*
X117611474Y-146413500D01*
X117536500Y-146413500D01*
X117536500Y-146338094D01*
X117534323Y-146322771D01*
X117527962Y-146308662D01*
X117517923Y-146296883D01*
X117505000Y-146288367D01*
X117490216Y-146283789D01*
X117474742Y-146283511D01*
X117459803Y-146287554D01*
X117446582Y-146295600D01*
X117433214Y-146311820D01*
X117429122Y-146319388D01*
X117402561Y-146351493D01*
X117370271Y-146377829D01*
X117333481Y-146397391D01*
X117293591Y-146409434D01*
X117252122Y-146413500D01*
X116797849Y-146413500D01*
X116797123Y-146413495D01*
X116797120Y-146413495D01*
X116794897Y-146413479D01*
X116753489Y-146408835D01*
X116713771Y-146396235D01*
X116677258Y-146376162D01*
X116645338Y-146349378D01*
X116619229Y-146316905D01*
X116599924Y-146279979D01*
X116588160Y-146240006D01*
X116588157Y-146239972D01*
X116588153Y-146239959D01*
X116584382Y-146198512D01*
X116588732Y-146157120D01*
X116588735Y-146157111D01*
X116588739Y-146157070D01*
X116601060Y-146117265D01*
X116620878Y-146080612D01*
X116647439Y-146048507D01*
X116679729Y-146022171D01*
X116716519Y-146002609D01*
X116718652Y-146001965D01*
X116731486Y-145996011D01*
X116743156Y-145985845D01*
X116751531Y-145972831D01*
X116755949Y-145957998D01*
X116755952Y-145957478D01*
X117293940Y-145957478D01*
X117298145Y-145972373D01*
X117306333Y-145985506D01*
X117317856Y-145995838D01*
X117330652Y-146001996D01*
X117336229Y-146003765D01*
X117372742Y-146023838D01*
X117404662Y-146050622D01*
X117430771Y-146083095D01*
X117432869Y-146087109D01*
X117441787Y-146099525D01*
X117453960Y-146109082D01*
X117468314Y-146114870D01*
X117483712Y-146116430D01*
X117498934Y-146113638D01*
X117512777Y-146106715D01*
X117524142Y-146096211D01*
X117532131Y-146082956D01*
X117536500Y-146061474D01*
X117536500Y-145838526D01*
X119463500Y-145838526D01*
X119463500Y-146061906D01*
X119465677Y-146077229D01*
X119472038Y-146091338D01*
X119482077Y-146103117D01*
X119495000Y-146111633D01*
X119509784Y-146116211D01*
X119525258Y-146116489D01*
X119540197Y-146112446D01*
X119553418Y-146104400D01*
X119566786Y-146088180D01*
X119570878Y-146080612D01*
X119597439Y-146048507D01*
X119629729Y-146022171D01*
X119666519Y-146002609D01*
X119668652Y-146001965D01*
X119681486Y-145996011D01*
X119693156Y-145985845D01*
X119701531Y-145972831D01*
X119705949Y-145957998D01*
X119706060Y-145942522D01*
X119701855Y-145927627D01*
X119693667Y-145914494D01*
X119682144Y-145904162D01*
X119669348Y-145898004D01*
X119663771Y-145896235D01*
X119627258Y-145876162D01*
X119595338Y-145849378D01*
X119569229Y-145816905D01*
X119567131Y-145812891D01*
X119558213Y-145800475D01*
X119546040Y-145790918D01*
X119531686Y-145785130D01*
X119516288Y-145783570D01*
X119501066Y-145786362D01*
X119487223Y-145793285D01*
X119475858Y-145803789D01*
X119467869Y-145817044D01*
X119463500Y-145838526D01*
X117536500Y-145838526D01*
X117536500Y-145838094D01*
X117534323Y-145822771D01*
X117527962Y-145808662D01*
X117517923Y-145796883D01*
X117505000Y-145788367D01*
X117490216Y-145783789D01*
X117474742Y-145783511D01*
X117459803Y-145787554D01*
X117446582Y-145795600D01*
X117433214Y-145811820D01*
X117429122Y-145819388D01*
X117402561Y-145851493D01*
X117370271Y-145877829D01*
X117333481Y-145897391D01*
X117331348Y-145898035D01*
X117318514Y-145903989D01*
X117306844Y-145914155D01*
X117298469Y-145927169D01*
X117294051Y-145942002D01*
X117293940Y-145957478D01*
X116755952Y-145957478D01*
X116756060Y-145942522D01*
X116751855Y-145927627D01*
X116743667Y-145914494D01*
X116732144Y-145904162D01*
X116719348Y-145898004D01*
X116713771Y-145896235D01*
X116677258Y-145876162D01*
X116645338Y-145849378D01*
X116619229Y-145816905D01*
X116599924Y-145779979D01*
X116588160Y-145740006D01*
X116588157Y-145739972D01*
X116588153Y-145739959D01*
X116584382Y-145698512D01*
X116588732Y-145657120D01*
X116588735Y-145657111D01*
X116588739Y-145657070D01*
X116601060Y-145617265D01*
X116620878Y-145580612D01*
X116647439Y-145548507D01*
X116679729Y-145522171D01*
X116716519Y-145502609D01*
X116718652Y-145501965D01*
X116731486Y-145496011D01*
X116743156Y-145485845D01*
X116751531Y-145472831D01*
X116755949Y-145457998D01*
X116755952Y-145457478D01*
X117293940Y-145457478D01*
X117298145Y-145472373D01*
X117306333Y-145485506D01*
X117317856Y-145495838D01*
X117330652Y-145501996D01*
X117336229Y-145503765D01*
X117372742Y-145523838D01*
X117404662Y-145550622D01*
X117430771Y-145583095D01*
X117432869Y-145587109D01*
X117441787Y-145599525D01*
X117453960Y-145609082D01*
X117468314Y-145614870D01*
X117483712Y-145616430D01*
X117498934Y-145613638D01*
X117512777Y-145606715D01*
X117524142Y-145596211D01*
X117532131Y-145582956D01*
X117536500Y-145561474D01*
X117536500Y-145338526D01*
X119463500Y-145338526D01*
X119463500Y-145561906D01*
X119465677Y-145577229D01*
X119472038Y-145591338D01*
X119482077Y-145603117D01*
X119495000Y-145611633D01*
X119509784Y-145616211D01*
X119525258Y-145616489D01*
X119540197Y-145612446D01*
X119553418Y-145604400D01*
X119566786Y-145588180D01*
X119570878Y-145580612D01*
X119597439Y-145548507D01*
X119629729Y-145522171D01*
X119666519Y-145502609D01*
X119668652Y-145501965D01*
X119681486Y-145496011D01*
X119693156Y-145485845D01*
X119701531Y-145472831D01*
X119705949Y-145457998D01*
X119706060Y-145442522D01*
X119701855Y-145427627D01*
X119693667Y-145414494D01*
X119682144Y-145404162D01*
X119669348Y-145398004D01*
X119663771Y-145396235D01*
X119627258Y-145376162D01*
X119595338Y-145349378D01*
X119569229Y-145316905D01*
X119567131Y-145312891D01*
X119558213Y-145300475D01*
X119546040Y-145290918D01*
X119531686Y-145285130D01*
X119516288Y-145283570D01*
X119501066Y-145286362D01*
X119487223Y-145293285D01*
X119475858Y-145303789D01*
X119467869Y-145317044D01*
X119463500Y-145338526D01*
X117536500Y-145338526D01*
X117536500Y-145338094D01*
X117534323Y-145322771D01*
X117527962Y-145308662D01*
X117517923Y-145296883D01*
X117505000Y-145288367D01*
X117490216Y-145283789D01*
X117474742Y-145283511D01*
X117459803Y-145287554D01*
X117446582Y-145295600D01*
X117433214Y-145311820D01*
X117429122Y-145319388D01*
X117402561Y-145351493D01*
X117370271Y-145377829D01*
X117333481Y-145397391D01*
X117331348Y-145398035D01*
X117318514Y-145403989D01*
X117306844Y-145414155D01*
X117298469Y-145427169D01*
X117294051Y-145442002D01*
X117293940Y-145457478D01*
X116755952Y-145457478D01*
X116756060Y-145442522D01*
X116751855Y-145427627D01*
X116743667Y-145414494D01*
X116732144Y-145404162D01*
X116719348Y-145398004D01*
X116713771Y-145396235D01*
X116677258Y-145376162D01*
X116645338Y-145349378D01*
X116619229Y-145316905D01*
X116599924Y-145279979D01*
X116588160Y-145240006D01*
X116588157Y-145239972D01*
X116588153Y-145239959D01*
X116584382Y-145198512D01*
X116588732Y-145157120D01*
X116588735Y-145157111D01*
X116588739Y-145157070D01*
X116601060Y-145117265D01*
X116620878Y-145080612D01*
X116647439Y-145048507D01*
X116679729Y-145022171D01*
X116716519Y-145002609D01*
X116718652Y-145001965D01*
X116731486Y-144996011D01*
X116743156Y-144985845D01*
X116751531Y-144972831D01*
X116755949Y-144957998D01*
X116755952Y-144957478D01*
X117293940Y-144957478D01*
X117298145Y-144972373D01*
X117306333Y-144985506D01*
X117317856Y-144995838D01*
X117330652Y-145001996D01*
X117336229Y-145003765D01*
X117372742Y-145023838D01*
X117404662Y-145050622D01*
X117430771Y-145083095D01*
X117432869Y-145087109D01*
X117441787Y-145099525D01*
X117453960Y-145109082D01*
X117468314Y-145114870D01*
X117483712Y-145116430D01*
X117498934Y-145113638D01*
X117512777Y-145106715D01*
X117524142Y-145096211D01*
X117532131Y-145082956D01*
X117536500Y-145061474D01*
X117536500Y-144838526D01*
X119463500Y-144838526D01*
X119463500Y-145061906D01*
X119465677Y-145077229D01*
X119472038Y-145091338D01*
X119482077Y-145103117D01*
X119495000Y-145111633D01*
X119509784Y-145116211D01*
X119525258Y-145116489D01*
X119540197Y-145112446D01*
X119553418Y-145104400D01*
X119566786Y-145088180D01*
X119570878Y-145080612D01*
X119597439Y-145048507D01*
X119629729Y-145022171D01*
X119666519Y-145002609D01*
X119668652Y-145001965D01*
X119681486Y-144996011D01*
X119693156Y-144985845D01*
X119701531Y-144972831D01*
X119705949Y-144957998D01*
X119706060Y-144942522D01*
X119701855Y-144927627D01*
X119693667Y-144914494D01*
X119682144Y-144904162D01*
X119669348Y-144898004D01*
X119663771Y-144896235D01*
X119627258Y-144876162D01*
X119595338Y-144849378D01*
X119569229Y-144816905D01*
X119567131Y-144812891D01*
X119558213Y-144800475D01*
X119546040Y-144790918D01*
X119531686Y-144785130D01*
X119516288Y-144783570D01*
X119501066Y-144786362D01*
X119487223Y-144793285D01*
X119475858Y-144803789D01*
X119467869Y-144817044D01*
X119463500Y-144838526D01*
X117536500Y-144838526D01*
X117536500Y-144838094D01*
X117534323Y-144822771D01*
X117527962Y-144808662D01*
X117517923Y-144796883D01*
X117505000Y-144788367D01*
X117490216Y-144783789D01*
X117474742Y-144783511D01*
X117459803Y-144787554D01*
X117446582Y-144795600D01*
X117433214Y-144811820D01*
X117429122Y-144819388D01*
X117402561Y-144851493D01*
X117370271Y-144877829D01*
X117333481Y-144897391D01*
X117331348Y-144898035D01*
X117318514Y-144903989D01*
X117306844Y-144914155D01*
X117298469Y-144927169D01*
X117294051Y-144942002D01*
X117293940Y-144957478D01*
X116755952Y-144957478D01*
X116756060Y-144942522D01*
X116751855Y-144927627D01*
X116743667Y-144914494D01*
X116732144Y-144904162D01*
X116719348Y-144898004D01*
X116713771Y-144896235D01*
X116677258Y-144876162D01*
X116645338Y-144849378D01*
X116619229Y-144816905D01*
X116599924Y-144779979D01*
X116588160Y-144740006D01*
X116588157Y-144739972D01*
X116588153Y-144739959D01*
X116584382Y-144698512D01*
X116588732Y-144657120D01*
X116588735Y-144657111D01*
X116588739Y-144657070D01*
X116601060Y-144617265D01*
X116620878Y-144580612D01*
X116647439Y-144548507D01*
X116679729Y-144522171D01*
X116716519Y-144502609D01*
X116756409Y-144490566D01*
X116797878Y-144486500D01*
X117252151Y-144486500D01*
X117252877Y-144486505D01*
X117252880Y-144486505D01*
X117255103Y-144486521D01*
X117296511Y-144491165D01*
X117336229Y-144503765D01*
X117372742Y-144523838D01*
X117404662Y-144550622D01*
X117430771Y-144583095D01*
X117432869Y-144587109D01*
X117441787Y-144599525D01*
X117453960Y-144609082D01*
X117468314Y-144614870D01*
X117483712Y-144616430D01*
X117498934Y-144613638D01*
X117512777Y-144606715D01*
X117524142Y-144596211D01*
X117532131Y-144582956D01*
X117536500Y-144561474D01*
X117536500Y-144486500D01*
X117611906Y-144486500D01*
X117627229Y-144484323D01*
X117641338Y-144477962D01*
X117653117Y-144467923D01*
X117661633Y-144455000D01*
X117666211Y-144440216D01*
X117666327Y-144433712D01*
X117833570Y-144433712D01*
X117836362Y-144448934D01*
X117843285Y-144462777D01*
X117853789Y-144474142D01*
X117867044Y-144482131D01*
X117888526Y-144486500D01*
X118111906Y-144486500D01*
X118127229Y-144484323D01*
X118141338Y-144477962D01*
X118153117Y-144467923D01*
X118161633Y-144455000D01*
X118166211Y-144440216D01*
X118166327Y-144433712D01*
X118333570Y-144433712D01*
X118336362Y-144448934D01*
X118343285Y-144462777D01*
X118353789Y-144474142D01*
X118367044Y-144482131D01*
X118388526Y-144486500D01*
X118611906Y-144486500D01*
X118627229Y-144484323D01*
X118641338Y-144477962D01*
X118653117Y-144467923D01*
X118661633Y-144455000D01*
X118666211Y-144440216D01*
X118666327Y-144433712D01*
X118833570Y-144433712D01*
X118836362Y-144448934D01*
X118843285Y-144462777D01*
X118853789Y-144474142D01*
X118867044Y-144482131D01*
X118888526Y-144486500D01*
X119111906Y-144486500D01*
X119127229Y-144484323D01*
X119141338Y-144477962D01*
X119153117Y-144467923D01*
X119161633Y-144455000D01*
X119166211Y-144440216D01*
X119166489Y-144424742D01*
X119162446Y-144409803D01*
X119154400Y-144396582D01*
X119138180Y-144383214D01*
X119130612Y-144379122D01*
X119098507Y-144352561D01*
X119072171Y-144320271D01*
X119052609Y-144283481D01*
X119051965Y-144281348D01*
X119046011Y-144268514D01*
X119035845Y-144256844D01*
X119022831Y-144248469D01*
X119007998Y-144244051D01*
X118992522Y-144243940D01*
X118977627Y-144248145D01*
X118964494Y-144256333D01*
X118954162Y-144267856D01*
X118948004Y-144280652D01*
X118946235Y-144286229D01*
X118926162Y-144322742D01*
X118899378Y-144354662D01*
X118866905Y-144380771D01*
X118862891Y-144382869D01*
X118850475Y-144391787D01*
X118840918Y-144403960D01*
X118835130Y-144418314D01*
X118833570Y-144433712D01*
X118666327Y-144433712D01*
X118666489Y-144424742D01*
X118662446Y-144409803D01*
X118654400Y-144396582D01*
X118638180Y-144383214D01*
X118630612Y-144379122D01*
X118598507Y-144352561D01*
X118572171Y-144320271D01*
X118552609Y-144283481D01*
X118551965Y-144281348D01*
X118546011Y-144268514D01*
X118535845Y-144256844D01*
X118522831Y-144248469D01*
X118507998Y-144244051D01*
X118492522Y-144243940D01*
X118477627Y-144248145D01*
X118464494Y-144256333D01*
X118454162Y-144267856D01*
X118448004Y-144280652D01*
X118446235Y-144286229D01*
X118426162Y-144322742D01*
X118399378Y-144354662D01*
X118366905Y-144380771D01*
X118362891Y-144382869D01*
X118350475Y-144391787D01*
X118340918Y-144403960D01*
X118335130Y-144418314D01*
X118333570Y-144433712D01*
X118166327Y-144433712D01*
X118166489Y-144424742D01*
X118162446Y-144409803D01*
X118154400Y-144396582D01*
X118138180Y-144383214D01*
X118130612Y-144379122D01*
X118098507Y-144352561D01*
X118072171Y-144320271D01*
X118052609Y-144283481D01*
X118051965Y-144281348D01*
X118046011Y-144268514D01*
X118035845Y-144256844D01*
X118022831Y-144248469D01*
X118007998Y-144244051D01*
X117992522Y-144243940D01*
X117977627Y-144248145D01*
X117964494Y-144256333D01*
X117954162Y-144267856D01*
X117948004Y-144280652D01*
X117946235Y-144286229D01*
X117926162Y-144322742D01*
X117899378Y-144354662D01*
X117866905Y-144380771D01*
X117862891Y-144382869D01*
X117850475Y-144391787D01*
X117840918Y-144403960D01*
X117835130Y-144418314D01*
X117833570Y-144433712D01*
X117666327Y-144433712D01*
X117666489Y-144424742D01*
X117662446Y-144409803D01*
X117654400Y-144396582D01*
X117638180Y-144383214D01*
X117630612Y-144379122D01*
X117598507Y-144352561D01*
X117572171Y-144320271D01*
X117552609Y-144283481D01*
X117540566Y-144243591D01*
X117536500Y-144202122D01*
X117536500Y-143747878D01*
X117536521Y-143744897D01*
X117541165Y-143703489D01*
X117553765Y-143663771D01*
X117573838Y-143627258D01*
X117600622Y-143595338D01*
X117633095Y-143569229D01*
X117670021Y-143549924D01*
X117709994Y-143538160D01*
X117710028Y-143538157D01*
X117710041Y-143538153D01*
X117751488Y-143534382D01*
X117792880Y-143538732D01*
X117792889Y-143538735D01*
X117792930Y-143538739D01*
X117832735Y-143551060D01*
X117869388Y-143570878D01*
X117901493Y-143597439D01*
X117927829Y-143629729D01*
X117947391Y-143666519D01*
X117948035Y-143668652D01*
X117953989Y-143681486D01*
X117964155Y-143693156D01*
X117977169Y-143701531D01*
X117992002Y-143705949D01*
X118007478Y-143706060D01*
X118022373Y-143701855D01*
X118035506Y-143693667D01*
X118045838Y-143682144D01*
X118051996Y-143669348D01*
X118053765Y-143663771D01*
X118073838Y-143627258D01*
X118100622Y-143595338D01*
X118133095Y-143569229D01*
X118170021Y-143549924D01*
X118209994Y-143538160D01*
X118210028Y-143538157D01*
X118210041Y-143538153D01*
X118251488Y-143534382D01*
X118292880Y-143538732D01*
X118292889Y-143538735D01*
X118292930Y-143538739D01*
X118332735Y-143551060D01*
X118369388Y-143570878D01*
X118401493Y-143597439D01*
X118427829Y-143629729D01*
X118447391Y-143666519D01*
X118448035Y-143668652D01*
X118453989Y-143681486D01*
X118464155Y-143693156D01*
X118477169Y-143701531D01*
X118492002Y-143705949D01*
X118507478Y-143706060D01*
X118522373Y-143701855D01*
X118535506Y-143693667D01*
X118545838Y-143682144D01*
X118551996Y-143669348D01*
X118553765Y-143663771D01*
X118573838Y-143627258D01*
X118600622Y-143595338D01*
X118633095Y-143569229D01*
X118670021Y-143549924D01*
X118709994Y-143538160D01*
X118710028Y-143538157D01*
X118710041Y-143538153D01*
X118751488Y-143534382D01*
X118792880Y-143538732D01*
X118792889Y-143538735D01*
X118792930Y-143538739D01*
X118832735Y-143551060D01*
X118869388Y-143570878D01*
X118901493Y-143597439D01*
X118927829Y-143629729D01*
X118947391Y-143666519D01*
X118948035Y-143668652D01*
X118953989Y-143681486D01*
X118964155Y-143693156D01*
X118977169Y-143701531D01*
X118992002Y-143705949D01*
X119007478Y-143706060D01*
X119022373Y-143701855D01*
X119035506Y-143693667D01*
X119045838Y-143682144D01*
X119051996Y-143669348D01*
X119053765Y-143663771D01*
X119073838Y-143627258D01*
X119100622Y-143595338D01*
X119133095Y-143569229D01*
X119170021Y-143549924D01*
X119209994Y-143538160D01*
X119210028Y-143538157D01*
X119210041Y-143538153D01*
X119251488Y-143534382D01*
X119292880Y-143538732D01*
X119292880Y-143538732D01*
G37*
G36*
X122938500Y-147187300D02*
X122061500Y-147187300D01*
X122061500Y-146260300D01*
X122938500Y-146260300D01*
X122938500Y-147187300D01*
X122938500Y-147187300D01*
G37*
G36*
X108228500Y-146768500D02*
X107771500Y-146768500D01*
X107771500Y-146231500D01*
X108228500Y-146231500D01*
X108228500Y-146768500D01*
X108228500Y-146768500D01*
G37*
G36*
X107228500Y-146768500D02*
X106771500Y-146768500D01*
X106771500Y-146231500D01*
X107228500Y-146231500D01*
X107228500Y-146768500D01*
X107228500Y-146768500D01*
G37*
G36*
X110513500Y-146163700D02*
X109486500Y-146163700D01*
X109486500Y-145536700D01*
X110513500Y-145536700D01*
X110513500Y-146163700D01*
X110513500Y-146163700D01*
G37*
G36*
X108228500Y-146108500D02*
X107771500Y-146108500D01*
X107771500Y-145571500D01*
X108228500Y-145571500D01*
X108228500Y-146108500D01*
X108228500Y-146108500D01*
G37*
G36*
X107228500Y-146108500D02*
X106771500Y-146108500D01*
X106771500Y-145571500D01*
X107228500Y-145571500D01*
X107228500Y-146108500D01*
X107228500Y-146108500D01*
G37*
G36*
X114322100Y-146055500D02*
X113695100Y-146055500D01*
X113695100Y-145028500D01*
X114322100Y-145028500D01*
X114322100Y-146055500D01*
X114322100Y-146055500D01*
G37*
G36*
X112822100Y-146055500D02*
X112195100Y-146055500D01*
X112195100Y-145028500D01*
X112822100Y-145028500D01*
X112822100Y-146055500D01*
X112822100Y-146055500D01*
G37*
G36*
X122938500Y-145687300D02*
X122061500Y-145687300D01*
X122061500Y-144760300D01*
X122938500Y-144760300D01*
X122938500Y-145687300D01*
X122938500Y-145687300D01*
G37*
G36*
X128813500Y-144013500D02*
X124186500Y-144013500D01*
X124186500Y-141886500D01*
X128813500Y-141886500D01*
X128813500Y-144013500D01*
X128813500Y-144013500D01*
G37*
G36*
X117938500Y-141813500D02*
X117561500Y-141813500D01*
X117561500Y-140986500D01*
X117938500Y-140986500D01*
X117938500Y-141813500D01*
X117938500Y-141813500D01*
G37*
G36*
X118438500Y-141813500D02*
X118061500Y-141813500D01*
X118061500Y-140986500D01*
X118438500Y-140986500D01*
X118438500Y-141813500D01*
X118438500Y-141813500D01*
G37*
G36*
X117068500Y-140986500D02*
X117438500Y-140986500D01*
X117438500Y-141813500D01*
X117061500Y-141813500D01*
X117061500Y-140993500D01*
X117060414Y-140985855D01*
X117068500Y-140986500D01*
X117068500Y-140986500D01*
G37*
G36*
X118938500Y-141813500D02*
X118561500Y-141813500D01*
X118561500Y-140986500D01*
X118938500Y-140986500D01*
X118938500Y-141813500D01*
X118938500Y-141813500D01*
G37*
G36*
X119938500Y-141813500D02*
X119561500Y-141813500D01*
X119561500Y-140986500D01*
X119938500Y-140986500D01*
X119938500Y-141813500D01*
X119938500Y-141813500D01*
G37*
G36*
X120438500Y-141813500D02*
X120061500Y-141813500D01*
X120061500Y-140986500D01*
X120438500Y-140986500D01*
X120438500Y-141813500D01*
X120438500Y-141813500D01*
G37*
G36*
X120938500Y-140993500D02*
X120938500Y-141813500D01*
X120561500Y-141813500D01*
X120561500Y-140986500D01*
X120931500Y-140986500D01*
X120939145Y-140985414D01*
X120938500Y-140993500D01*
X120938500Y-140993500D01*
G37*
G36*
X119438500Y-141813500D02*
X119061500Y-141813500D01*
X119061500Y-140986500D01*
X119438500Y-140986500D01*
X119438500Y-141813500D01*
X119438500Y-141813500D01*
G37*
G36*
X121813500Y-140938500D02*
X120993500Y-140938500D01*
X120985855Y-140939586D01*
X120986500Y-140931500D01*
X120986500Y-140561500D01*
X121813500Y-140561500D01*
X121813500Y-140938500D01*
X121813500Y-140938500D01*
G37*
G36*
X117013500Y-140931500D02*
X117014586Y-140939145D01*
X117006500Y-140938500D01*
X116186500Y-140938500D01*
X116186500Y-140561500D01*
X117013500Y-140561500D01*
X117013500Y-140931500D01*
X117013500Y-140931500D01*
G37*
G36*
X120788500Y-140788500D02*
X117211500Y-140788500D01*
X117211500Y-137211500D01*
X120788500Y-137211500D01*
X120788500Y-140788500D01*
X120788500Y-140788500D01*
G37*
G36*
X113813500Y-140572300D02*
X113086500Y-140572300D01*
X113086500Y-139945300D01*
X113813500Y-139945300D01*
X113813500Y-140572300D01*
X113813500Y-140572300D01*
G37*
G36*
X114913500Y-140572300D02*
X114186500Y-140572300D01*
X114186500Y-139945300D01*
X114913500Y-139945300D01*
X114913500Y-140572300D01*
X114913500Y-140572300D01*
G37*
G36*
X128813500Y-140463500D02*
X125686500Y-140463500D01*
X125686500Y-139486500D01*
X128813500Y-139486500D01*
X128813500Y-140463500D01*
X128813500Y-140463500D01*
G37*
G36*
X117013500Y-140438500D02*
X116186500Y-140438500D01*
X116186500Y-140061500D01*
X117013500Y-140061500D01*
X117013500Y-140438500D01*
X117013500Y-140438500D01*
G37*
G36*
X121813500Y-140438500D02*
X120986500Y-140438500D01*
X120986500Y-140061500D01*
X121813500Y-140061500D01*
X121813500Y-140438500D01*
X121813500Y-140438500D01*
G37*
G36*
X117013500Y-139938500D02*
X116186500Y-139938500D01*
X116186500Y-139561500D01*
X117013500Y-139561500D01*
X117013500Y-139938500D01*
X117013500Y-139938500D01*
G37*
G36*
X121813500Y-139938500D02*
X120986500Y-139938500D01*
X120986500Y-139561500D01*
X121813500Y-139561500D01*
X121813500Y-139938500D01*
X121813500Y-139938500D01*
G37*
G36*
X117013500Y-139438500D02*
X116186500Y-139438500D01*
X116186500Y-139061500D01*
X117013500Y-139061500D01*
X117013500Y-139438500D01*
X117013500Y-139438500D01*
G37*
G36*
X121813500Y-139438500D02*
X120986500Y-139438500D01*
X120986500Y-139061500D01*
X121813500Y-139061500D01*
X121813500Y-139438500D01*
X121813500Y-139438500D01*
G37*
G36*
X121813500Y-138938500D02*
X120986500Y-138938500D01*
X120986500Y-138561500D01*
X121813500Y-138561500D01*
X121813500Y-138938500D01*
X121813500Y-138938500D01*
G37*
G36*
X117013500Y-138938500D02*
X116186500Y-138938500D01*
X116186500Y-138561500D01*
X117013500Y-138561500D01*
X117013500Y-138938500D01*
X117013500Y-138938500D01*
G37*
G36*
X101813500Y-138788500D02*
X97186500Y-138788500D01*
X97186500Y-136661500D01*
X101813500Y-136661500D01*
X101813500Y-138788500D01*
X101813500Y-138788500D01*
G37*
G36*
X117013500Y-138438500D02*
X116186500Y-138438500D01*
X116186500Y-138061500D01*
X117013500Y-138061500D01*
X117013500Y-138438500D01*
X117013500Y-138438500D01*
G37*
G36*
X121813500Y-138438500D02*
X120986500Y-138438500D01*
X120986500Y-138061500D01*
X121813500Y-138061500D01*
X121813500Y-138438500D01*
X121813500Y-138438500D01*
G37*
G36*
X128813500Y-138063500D02*
X124186500Y-138063500D01*
X124186500Y-135936500D01*
X128813500Y-135936500D01*
X128813500Y-138063500D01*
X128813500Y-138063500D01*
G37*
G36*
X117013500Y-137938500D02*
X116186500Y-137938500D01*
X116186500Y-137561500D01*
X117013500Y-137561500D01*
X117013500Y-137938500D01*
X117013500Y-137938500D01*
G37*
G36*
X121813500Y-137938500D02*
X120986500Y-137938500D01*
X120986500Y-137561500D01*
X121813500Y-137561500D01*
X121813500Y-137938500D01*
X121813500Y-137938500D01*
G37*
G36*
X120993500Y-137061500D02*
X121813500Y-137061500D01*
X121813500Y-137438500D01*
X120986500Y-137438500D01*
X120986500Y-137068500D01*
X120985414Y-137060855D01*
X120993500Y-137061500D01*
X120993500Y-137061500D01*
G37*
G36*
X117013500Y-137068500D02*
X117013500Y-137438500D01*
X116186500Y-137438500D01*
X116186500Y-137061500D01*
X117006500Y-137061500D01*
X117014145Y-137060414D01*
X117013500Y-137068500D01*
X117013500Y-137068500D01*
G37*
G36*
X117438500Y-137013500D02*
X117068500Y-137013500D01*
X117060855Y-137014586D01*
X117061500Y-137006500D01*
X117061500Y-136186500D01*
X117438500Y-136186500D01*
X117438500Y-137013500D01*
X117438500Y-137013500D01*
G37*
G36*
X120938500Y-137006500D02*
X120939586Y-137014145D01*
X120931500Y-137013500D01*
X120561500Y-137013500D01*
X120561500Y-136186500D01*
X120938500Y-136186500D01*
X120938500Y-137006500D01*
X120938500Y-137006500D01*
G37*
G36*
X118438500Y-137013500D02*
X118061500Y-137013500D01*
X118061500Y-136186500D01*
X118438500Y-136186500D01*
X118438500Y-137013500D01*
X118438500Y-137013500D01*
G37*
G36*
X117938500Y-137013500D02*
X117561500Y-137013500D01*
X117561500Y-136186500D01*
X117938500Y-136186500D01*
X117938500Y-137013500D01*
X117938500Y-137013500D01*
G37*
G36*
X118938500Y-137013500D02*
X118561500Y-137013500D01*
X118561500Y-136186500D01*
X118938500Y-136186500D01*
X118938500Y-137013500D01*
X118938500Y-137013500D01*
G37*
G36*
X119438500Y-137013500D02*
X119061500Y-137013500D01*
X119061500Y-136186500D01*
X119438500Y-136186500D01*
X119438500Y-137013500D01*
X119438500Y-137013500D01*
G37*
G36*
X119938500Y-137013500D02*
X119561500Y-137013500D01*
X119561500Y-136186500D01*
X119938500Y-136186500D01*
X119938500Y-137013500D01*
X119938500Y-137013500D01*
G37*
G36*
X120438500Y-137013500D02*
X120061500Y-137013500D01*
X120061500Y-136186500D01*
X120438500Y-136186500D01*
X120438500Y-137013500D01*
X120438500Y-137013500D01*
G37*
G36*
X106513500Y-135813500D02*
X105486500Y-135813500D01*
X105486500Y-135186500D01*
X106513500Y-135186500D01*
X106513500Y-135813500D01*
X106513500Y-135813500D01*
G37*
G36*
X104728500Y-135678500D02*
X104271500Y-135678500D01*
X104271500Y-135141500D01*
X104728500Y-135141500D01*
X104728500Y-135678500D01*
X104728500Y-135678500D01*
G37*
G36*
X103728500Y-135678500D02*
X103271500Y-135678500D01*
X103271500Y-135141500D01*
X103728500Y-135141500D01*
X103728500Y-135678500D01*
X103728500Y-135678500D01*
G37*
G36*
X100313500Y-135238500D02*
X97186500Y-135238500D01*
X97186500Y-134261500D01*
X100313500Y-134261500D01*
X100313500Y-135238500D01*
X100313500Y-135238500D01*
G37*
G36*
X104728500Y-135018500D02*
X104271500Y-135018500D01*
X104271500Y-134481500D01*
X104728500Y-134481500D01*
X104728500Y-135018500D01*
X104728500Y-135018500D01*
G37*
G36*
X103728500Y-135018500D02*
X103271500Y-135018500D01*
X103271500Y-134481500D01*
X103728500Y-134481500D01*
X103728500Y-135018500D01*
X103728500Y-135018500D01*
G37*
G36*
X119292880Y-131088732D02*
X119292889Y-131088735D01*
X119292930Y-131088739D01*
X119332735Y-131101060D01*
X119369388Y-131120878D01*
X119401493Y-131147439D01*
X119427829Y-131179729D01*
X119447391Y-131216519D01*
X119459434Y-131256409D01*
X119463500Y-131297878D01*
X119463500Y-131752122D01*
X119463479Y-131755103D01*
X119458835Y-131796511D01*
X119446235Y-131836229D01*
X119426162Y-131872742D01*
X119399378Y-131904662D01*
X119366905Y-131930771D01*
X119362891Y-131932869D01*
X119350475Y-131941787D01*
X119340918Y-131953960D01*
X119335130Y-131968314D01*
X119333570Y-131983712D01*
X119336362Y-131998934D01*
X119343285Y-132012777D01*
X119353789Y-132024142D01*
X119367044Y-132032131D01*
X119388526Y-132036500D01*
X119463500Y-132036500D01*
X119463500Y-132111906D01*
X119465677Y-132127229D01*
X119472038Y-132141338D01*
X119482077Y-132153117D01*
X119495000Y-132161633D01*
X119509784Y-132166211D01*
X119525258Y-132166489D01*
X119540197Y-132162446D01*
X119553418Y-132154400D01*
X119566786Y-132138180D01*
X119570878Y-132130612D01*
X119597439Y-132098507D01*
X119629729Y-132072171D01*
X119666519Y-132052609D01*
X119706409Y-132040566D01*
X119747878Y-132036500D01*
X120202151Y-132036500D01*
X120202877Y-132036505D01*
X120202880Y-132036505D01*
X120205103Y-132036521D01*
X120246511Y-132041165D01*
X120286229Y-132053765D01*
X120322742Y-132073838D01*
X120354662Y-132100622D01*
X120380771Y-132133095D01*
X120400076Y-132170021D01*
X120411840Y-132209994D01*
X120411843Y-132210028D01*
X120411847Y-132210041D01*
X120415618Y-132251488D01*
X120411268Y-132292880D01*
X120411265Y-132292889D01*
X120411261Y-132292930D01*
X120398940Y-132332735D01*
X120379122Y-132369388D01*
X120352561Y-132401493D01*
X120320271Y-132427829D01*
X120283481Y-132447391D01*
X120281348Y-132448035D01*
X120268514Y-132453989D01*
X120256844Y-132464155D01*
X120248469Y-132477169D01*
X120244051Y-132492002D01*
X120243940Y-132507478D01*
X120248145Y-132522373D01*
X120256333Y-132535506D01*
X120267856Y-132545838D01*
X120280652Y-132551996D01*
X120286229Y-132553765D01*
X120322742Y-132573838D01*
X120354662Y-132600622D01*
X120380771Y-132633095D01*
X120400076Y-132670021D01*
X120411840Y-132709994D01*
X120411843Y-132710028D01*
X120411847Y-132710041D01*
X120415618Y-132751488D01*
X120411268Y-132792880D01*
X120411265Y-132792889D01*
X120411261Y-132792930D01*
X120398940Y-132832735D01*
X120379122Y-132869388D01*
X120352561Y-132901493D01*
X120320271Y-132927829D01*
X120283481Y-132947391D01*
X120281348Y-132948035D01*
X120268514Y-132953989D01*
X120256844Y-132964155D01*
X120248469Y-132977169D01*
X120244051Y-132992002D01*
X120243940Y-133007478D01*
X120248145Y-133022373D01*
X120256333Y-133035506D01*
X120267856Y-133045838D01*
X120280652Y-133051996D01*
X120286229Y-133053765D01*
X120322742Y-133073838D01*
X120354662Y-133100622D01*
X120380771Y-133133095D01*
X120400076Y-133170021D01*
X120411840Y-133209994D01*
X120411843Y-133210028D01*
X120411847Y-133210041D01*
X120415618Y-133251488D01*
X120411268Y-133292880D01*
X120411265Y-133292889D01*
X120411261Y-133292930D01*
X120398940Y-133332735D01*
X120379122Y-133369388D01*
X120352561Y-133401493D01*
X120320271Y-133427829D01*
X120283481Y-133447391D01*
X120281348Y-133448035D01*
X120268514Y-133453989D01*
X120256844Y-133464155D01*
X120248469Y-133477169D01*
X120244051Y-133492002D01*
X120243940Y-133507478D01*
X120248145Y-133522373D01*
X120256333Y-133535506D01*
X120267856Y-133545838D01*
X120280652Y-133551996D01*
X120286229Y-133553765D01*
X120322742Y-133573838D01*
X120354662Y-133600622D01*
X120380771Y-133633095D01*
X120400076Y-133670021D01*
X120411840Y-133709994D01*
X120411843Y-133710028D01*
X120411847Y-133710041D01*
X120415618Y-133751488D01*
X120411268Y-133792880D01*
X120411265Y-133792889D01*
X120411261Y-133792930D01*
X120398940Y-133832735D01*
X120379122Y-133869388D01*
X120352561Y-133901493D01*
X120320271Y-133927829D01*
X120283481Y-133947391D01*
X120243591Y-133959434D01*
X120202122Y-133963500D01*
X119747849Y-133963500D01*
X119747123Y-133963495D01*
X119747120Y-133963495D01*
X119744897Y-133963479D01*
X119703489Y-133958835D01*
X119663771Y-133946235D01*
X119627258Y-133926162D01*
X119595338Y-133899378D01*
X119569229Y-133866905D01*
X119567131Y-133862891D01*
X119558213Y-133850475D01*
X119546040Y-133840918D01*
X119531686Y-133835130D01*
X119516288Y-133833570D01*
X119501066Y-133836362D01*
X119487223Y-133843285D01*
X119475858Y-133853789D01*
X119467869Y-133867044D01*
X119463500Y-133888526D01*
X119463500Y-133963500D01*
X119388094Y-133963500D01*
X119372771Y-133965677D01*
X119358662Y-133972038D01*
X119346883Y-133982077D01*
X119338367Y-133995000D01*
X119333789Y-134009784D01*
X119333511Y-134025258D01*
X119337554Y-134040197D01*
X119345600Y-134053418D01*
X119361820Y-134066786D01*
X119369388Y-134070878D01*
X119401493Y-134097439D01*
X119427829Y-134129729D01*
X119447391Y-134166519D01*
X119459434Y-134206409D01*
X119463500Y-134247878D01*
X119463500Y-134702122D01*
X119463479Y-134705103D01*
X119458835Y-134746511D01*
X119446235Y-134786229D01*
X119426162Y-134822742D01*
X119399378Y-134854662D01*
X119366905Y-134880771D01*
X119329979Y-134900076D01*
X119290006Y-134911840D01*
X119289972Y-134911843D01*
X119289959Y-134911847D01*
X119248512Y-134915618D01*
X119207120Y-134911268D01*
X119207111Y-134911265D01*
X119207070Y-134911261D01*
X119167265Y-134898940D01*
X119130612Y-134879122D01*
X119098507Y-134852561D01*
X119072171Y-134820271D01*
X119052609Y-134783481D01*
X119051965Y-134781348D01*
X119046011Y-134768514D01*
X119035845Y-134756844D01*
X119022831Y-134748469D01*
X119007998Y-134744051D01*
X118992522Y-134743940D01*
X118977627Y-134748145D01*
X118964494Y-134756333D01*
X118954162Y-134767856D01*
X118948004Y-134780652D01*
X118946235Y-134786229D01*
X118926162Y-134822742D01*
X118899378Y-134854662D01*
X118866905Y-134880771D01*
X118829979Y-134900076D01*
X118790006Y-134911840D01*
X118789972Y-134911843D01*
X118789959Y-134911847D01*
X118748512Y-134915618D01*
X118707120Y-134911268D01*
X118707111Y-134911265D01*
X118707070Y-134911261D01*
X118667265Y-134898940D01*
X118630612Y-134879122D01*
X118598507Y-134852561D01*
X118572171Y-134820271D01*
X118552609Y-134783481D01*
X118551965Y-134781348D01*
X118546011Y-134768514D01*
X118535845Y-134756844D01*
X118522831Y-134748469D01*
X118507998Y-134744051D01*
X118492522Y-134743940D01*
X118477627Y-134748145D01*
X118464494Y-134756333D01*
X118454162Y-134767856D01*
X118448004Y-134780652D01*
X118446235Y-134786229D01*
X118426162Y-134822742D01*
X118399378Y-134854662D01*
X118366905Y-134880771D01*
X118329979Y-134900076D01*
X118290006Y-134911840D01*
X118289972Y-134911843D01*
X118289959Y-134911847D01*
X118248512Y-134915618D01*
X118207120Y-134911268D01*
X118207111Y-134911265D01*
X118207070Y-134911261D01*
X118167265Y-134898940D01*
X118130612Y-134879122D01*
X118098507Y-134852561D01*
X118072171Y-134820271D01*
X118052609Y-134783481D01*
X118051965Y-134781348D01*
X118046011Y-134768514D01*
X118035845Y-134756844D01*
X118022831Y-134748469D01*
X118007998Y-134744051D01*
X117992522Y-134743940D01*
X117977627Y-134748145D01*
X117964494Y-134756333D01*
X117954162Y-134767856D01*
X117948004Y-134780652D01*
X117946235Y-134786229D01*
X117926162Y-134822742D01*
X117899378Y-134854662D01*
X117866905Y-134880771D01*
X117829979Y-134900076D01*
X117790006Y-134911840D01*
X117789972Y-134911843D01*
X117789959Y-134911847D01*
X117748512Y-134915618D01*
X117707120Y-134911268D01*
X117707111Y-134911265D01*
X117707070Y-134911261D01*
X117667265Y-134898940D01*
X117630612Y-134879122D01*
X117598507Y-134852561D01*
X117572171Y-134820271D01*
X117552609Y-134783481D01*
X117540566Y-134743591D01*
X117536500Y-134702122D01*
X117536500Y-134247878D01*
X117536521Y-134244897D01*
X117541165Y-134203489D01*
X117553765Y-134163771D01*
X117573838Y-134127258D01*
X117600622Y-134095338D01*
X117633095Y-134069229D01*
X117637109Y-134067131D01*
X117649525Y-134058213D01*
X117659082Y-134046040D01*
X117664870Y-134031686D01*
X117665521Y-134025258D01*
X117833511Y-134025258D01*
X117837554Y-134040197D01*
X117845600Y-134053418D01*
X117861820Y-134066786D01*
X117869388Y-134070878D01*
X117901493Y-134097439D01*
X117927829Y-134129729D01*
X117947391Y-134166519D01*
X117948035Y-134168652D01*
X117953989Y-134181486D01*
X117964155Y-134193156D01*
X117977169Y-134201531D01*
X117992002Y-134205949D01*
X118007478Y-134206060D01*
X118022373Y-134201855D01*
X118035506Y-134193667D01*
X118045838Y-134182144D01*
X118051996Y-134169348D01*
X118053765Y-134163771D01*
X118073838Y-134127258D01*
X118100622Y-134095338D01*
X118133095Y-134069229D01*
X118137109Y-134067131D01*
X118149525Y-134058213D01*
X118159082Y-134046040D01*
X118164870Y-134031686D01*
X118165521Y-134025258D01*
X118333511Y-134025258D01*
X118337554Y-134040197D01*
X118345600Y-134053418D01*
X118361820Y-134066786D01*
X118369388Y-134070878D01*
X118401493Y-134097439D01*
X118427829Y-134129729D01*
X118447391Y-134166519D01*
X118448035Y-134168652D01*
X118453989Y-134181486D01*
X118464155Y-134193156D01*
X118477169Y-134201531D01*
X118492002Y-134205949D01*
X118507478Y-134206060D01*
X118522373Y-134201855D01*
X118535506Y-134193667D01*
X118545838Y-134182144D01*
X118551996Y-134169348D01*
X118553765Y-134163771D01*
X118573838Y-134127258D01*
X118600622Y-134095338D01*
X118633095Y-134069229D01*
X118637109Y-134067131D01*
X118649525Y-134058213D01*
X118659082Y-134046040D01*
X118664870Y-134031686D01*
X118665521Y-134025258D01*
X118833511Y-134025258D01*
X118837554Y-134040197D01*
X118845600Y-134053418D01*
X118861820Y-134066786D01*
X118869388Y-134070878D01*
X118901493Y-134097439D01*
X118927829Y-134129729D01*
X118947391Y-134166519D01*
X118948035Y-134168652D01*
X118953989Y-134181486D01*
X118964155Y-134193156D01*
X118977169Y-134201531D01*
X118992002Y-134205949D01*
X119007478Y-134206060D01*
X119022373Y-134201855D01*
X119035506Y-134193667D01*
X119045838Y-134182144D01*
X119051996Y-134169348D01*
X119053765Y-134163771D01*
X119073838Y-134127258D01*
X119100622Y-134095338D01*
X119133095Y-134069229D01*
X119137109Y-134067131D01*
X119149525Y-134058213D01*
X119159082Y-134046040D01*
X119164870Y-134031686D01*
X119166430Y-134016288D01*
X119163638Y-134001066D01*
X119156715Y-133987223D01*
X119146211Y-133975858D01*
X119132956Y-133967869D01*
X119111474Y-133963500D01*
X118888094Y-133963500D01*
X118872771Y-133965677D01*
X118858662Y-133972038D01*
X118846883Y-133982077D01*
X118838367Y-133995000D01*
X118833789Y-134009784D01*
X118833511Y-134025258D01*
X118665521Y-134025258D01*
X118666430Y-134016288D01*
X118663638Y-134001066D01*
X118656715Y-133987223D01*
X118646211Y-133975858D01*
X118632956Y-133967869D01*
X118611474Y-133963500D01*
X118388094Y-133963500D01*
X118372771Y-133965677D01*
X118358662Y-133972038D01*
X118346883Y-133982077D01*
X118338367Y-133995000D01*
X118333789Y-134009784D01*
X118333511Y-134025258D01*
X118165521Y-134025258D01*
X118166430Y-134016288D01*
X118163638Y-134001066D01*
X118156715Y-133987223D01*
X118146211Y-133975858D01*
X118132956Y-133967869D01*
X118111474Y-133963500D01*
X117888094Y-133963500D01*
X117872771Y-133965677D01*
X117858662Y-133972038D01*
X117846883Y-133982077D01*
X117838367Y-133995000D01*
X117833789Y-134009784D01*
X117833511Y-134025258D01*
X117665521Y-134025258D01*
X117666430Y-134016288D01*
X117663638Y-134001066D01*
X117656715Y-133987223D01*
X117646211Y-133975858D01*
X117632956Y-133967869D01*
X117611474Y-133963500D01*
X117536500Y-133963500D01*
X117536500Y-133888094D01*
X117534323Y-133872771D01*
X117527962Y-133858662D01*
X117517923Y-133846883D01*
X117505000Y-133838367D01*
X117490216Y-133833789D01*
X117474742Y-133833511D01*
X117459803Y-133837554D01*
X117446582Y-133845600D01*
X117433214Y-133861820D01*
X117429122Y-133869388D01*
X117402561Y-133901493D01*
X117370271Y-133927829D01*
X117333481Y-133947391D01*
X117293591Y-133959434D01*
X117252122Y-133963500D01*
X116797849Y-133963500D01*
X116797123Y-133963495D01*
X116797120Y-133963495D01*
X116794897Y-133963479D01*
X116753489Y-133958835D01*
X116713771Y-133946235D01*
X116677258Y-133926162D01*
X116645338Y-133899378D01*
X116619229Y-133866905D01*
X116599924Y-133829979D01*
X116588160Y-133790006D01*
X116588157Y-133789972D01*
X116588153Y-133789959D01*
X116584382Y-133748512D01*
X116588732Y-133707120D01*
X116588735Y-133707111D01*
X116588739Y-133707070D01*
X116601060Y-133667265D01*
X116620878Y-133630612D01*
X116647439Y-133598507D01*
X116679729Y-133572171D01*
X116716519Y-133552609D01*
X116718652Y-133551965D01*
X116731486Y-133546011D01*
X116743156Y-133535845D01*
X116751531Y-133522831D01*
X116755949Y-133507998D01*
X116755952Y-133507478D01*
X117293940Y-133507478D01*
X117298145Y-133522373D01*
X117306333Y-133535506D01*
X117317856Y-133545838D01*
X117330652Y-133551996D01*
X117336229Y-133553765D01*
X117372742Y-133573838D01*
X117404662Y-133600622D01*
X117430771Y-133633095D01*
X117432869Y-133637109D01*
X117441787Y-133649525D01*
X117453960Y-133659082D01*
X117468314Y-133664870D01*
X117483712Y-133666430D01*
X117498934Y-133663638D01*
X117512777Y-133656715D01*
X117524142Y-133646211D01*
X117532131Y-133632956D01*
X117536500Y-133611474D01*
X117536500Y-133388526D01*
X119463500Y-133388526D01*
X119463500Y-133611906D01*
X119465677Y-133627229D01*
X119472038Y-133641338D01*
X119482077Y-133653117D01*
X119495000Y-133661633D01*
X119509784Y-133666211D01*
X119525258Y-133666489D01*
X119540197Y-133662446D01*
X119553418Y-133654400D01*
X119566786Y-133638180D01*
X119570878Y-133630612D01*
X119597439Y-133598507D01*
X119629729Y-133572171D01*
X119666519Y-133552609D01*
X119668652Y-133551965D01*
X119681486Y-133546011D01*
X119693156Y-133535845D01*
X119701531Y-133522831D01*
X119705949Y-133507998D01*
X119706060Y-133492522D01*
X119701855Y-133477627D01*
X119693667Y-133464494D01*
X119682144Y-133454162D01*
X119669348Y-133448004D01*
X119663771Y-133446235D01*
X119627258Y-133426162D01*
X119595338Y-133399378D01*
X119569229Y-133366905D01*
X119567131Y-133362891D01*
X119558213Y-133350475D01*
X119546040Y-133340918D01*
X119531686Y-133335130D01*
X119516288Y-133333570D01*
X119501066Y-133336362D01*
X119487223Y-133343285D01*
X119475858Y-133353789D01*
X119467869Y-133367044D01*
X119463500Y-133388526D01*
X117536500Y-133388526D01*
X117536500Y-133388094D01*
X117534323Y-133372771D01*
X117527962Y-133358662D01*
X117517923Y-133346883D01*
X117505000Y-133338367D01*
X117490216Y-133333789D01*
X117474742Y-133333511D01*
X117459803Y-133337554D01*
X117446582Y-133345600D01*
X117433214Y-133361820D01*
X117429122Y-133369388D01*
X117402561Y-133401493D01*
X117370271Y-133427829D01*
X117333481Y-133447391D01*
X117331348Y-133448035D01*
X117318514Y-133453989D01*
X117306844Y-133464155D01*
X117298469Y-133477169D01*
X117294051Y-133492002D01*
X117293940Y-133507478D01*
X116755952Y-133507478D01*
X116756060Y-133492522D01*
X116751855Y-133477627D01*
X116743667Y-133464494D01*
X116732144Y-133454162D01*
X116719348Y-133448004D01*
X116713771Y-133446235D01*
X116677258Y-133426162D01*
X116645338Y-133399378D01*
X116619229Y-133366905D01*
X116599924Y-133329979D01*
X116588160Y-133290006D01*
X116588157Y-133289972D01*
X116588153Y-133289959D01*
X116584382Y-133248512D01*
X116588732Y-133207120D01*
X116588735Y-133207111D01*
X116588739Y-133207070D01*
X116601060Y-133167265D01*
X116620878Y-133130612D01*
X116647439Y-133098507D01*
X116679729Y-133072171D01*
X116716519Y-133052609D01*
X116718652Y-133051965D01*
X116731486Y-133046011D01*
X116743156Y-133035845D01*
X116751531Y-133022831D01*
X116755949Y-133007998D01*
X116755952Y-133007478D01*
X117293940Y-133007478D01*
X117298145Y-133022373D01*
X117306333Y-133035506D01*
X117317856Y-133045838D01*
X117330652Y-133051996D01*
X117336229Y-133053765D01*
X117372742Y-133073838D01*
X117404662Y-133100622D01*
X117430771Y-133133095D01*
X117432869Y-133137109D01*
X117441787Y-133149525D01*
X117453960Y-133159082D01*
X117468314Y-133164870D01*
X117483712Y-133166430D01*
X117498934Y-133163638D01*
X117512777Y-133156715D01*
X117524142Y-133146211D01*
X117532131Y-133132956D01*
X117536500Y-133111474D01*
X117536500Y-132888526D01*
X119463500Y-132888526D01*
X119463500Y-133111906D01*
X119465677Y-133127229D01*
X119472038Y-133141338D01*
X119482077Y-133153117D01*
X119495000Y-133161633D01*
X119509784Y-133166211D01*
X119525258Y-133166489D01*
X119540197Y-133162446D01*
X119553418Y-133154400D01*
X119566786Y-133138180D01*
X119570878Y-133130612D01*
X119597439Y-133098507D01*
X119629729Y-133072171D01*
X119666519Y-133052609D01*
X119668652Y-133051965D01*
X119681486Y-133046011D01*
X119693156Y-133035845D01*
X119701531Y-133022831D01*
X119705949Y-133007998D01*
X119706060Y-132992522D01*
X119701855Y-132977627D01*
X119693667Y-132964494D01*
X119682144Y-132954162D01*
X119669348Y-132948004D01*
X119663771Y-132946235D01*
X119627258Y-132926162D01*
X119595338Y-132899378D01*
X119569229Y-132866905D01*
X119567131Y-132862891D01*
X119558213Y-132850475D01*
X119546040Y-132840918D01*
X119531686Y-132835130D01*
X119516288Y-132833570D01*
X119501066Y-132836362D01*
X119487223Y-132843285D01*
X119475858Y-132853789D01*
X119467869Y-132867044D01*
X119463500Y-132888526D01*
X117536500Y-132888526D01*
X117536500Y-132888094D01*
X117534323Y-132872771D01*
X117527962Y-132858662D01*
X117517923Y-132846883D01*
X117505000Y-132838367D01*
X117490216Y-132833789D01*
X117474742Y-132833511D01*
X117459803Y-132837554D01*
X117446582Y-132845600D01*
X117433214Y-132861820D01*
X117429122Y-132869388D01*
X117402561Y-132901493D01*
X117370271Y-132927829D01*
X117333481Y-132947391D01*
X117331348Y-132948035D01*
X117318514Y-132953989D01*
X117306844Y-132964155D01*
X117298469Y-132977169D01*
X117294051Y-132992002D01*
X117293940Y-133007478D01*
X116755952Y-133007478D01*
X116756060Y-132992522D01*
X116751855Y-132977627D01*
X116743667Y-132964494D01*
X116732144Y-132954162D01*
X116719348Y-132948004D01*
X116713771Y-132946235D01*
X116677258Y-132926162D01*
X116645338Y-132899378D01*
X116619229Y-132866905D01*
X116599924Y-132829979D01*
X116588160Y-132790006D01*
X116588157Y-132789972D01*
X116588153Y-132789959D01*
X116584382Y-132748512D01*
X116588732Y-132707120D01*
X116588735Y-132707111D01*
X116588739Y-132707070D01*
X116601060Y-132667265D01*
X116620878Y-132630612D01*
X116647439Y-132598507D01*
X116679729Y-132572171D01*
X116716519Y-132552609D01*
X116718652Y-132551965D01*
X116731486Y-132546011D01*
X116743156Y-132535845D01*
X116751531Y-132522831D01*
X116755949Y-132507998D01*
X116755952Y-132507478D01*
X117293940Y-132507478D01*
X117298145Y-132522373D01*
X117306333Y-132535506D01*
X117317856Y-132545838D01*
X117330652Y-132551996D01*
X117336229Y-132553765D01*
X117372742Y-132573838D01*
X117404662Y-132600622D01*
X117430771Y-132633095D01*
X117432869Y-132637109D01*
X117441787Y-132649525D01*
X117453960Y-132659082D01*
X117468314Y-132664870D01*
X117483712Y-132666430D01*
X117498934Y-132663638D01*
X117512777Y-132656715D01*
X117524142Y-132646211D01*
X117532131Y-132632956D01*
X117536500Y-132611474D01*
X117536500Y-132388526D01*
X119463500Y-132388526D01*
X119463500Y-132611906D01*
X119465677Y-132627229D01*
X119472038Y-132641338D01*
X119482077Y-132653117D01*
X119495000Y-132661633D01*
X119509784Y-132666211D01*
X119525258Y-132666489D01*
X119540197Y-132662446D01*
X119553418Y-132654400D01*
X119566786Y-132638180D01*
X119570878Y-132630612D01*
X119597439Y-132598507D01*
X119629729Y-132572171D01*
X119666519Y-132552609D01*
X119668652Y-132551965D01*
X119681486Y-132546011D01*
X119693156Y-132535845D01*
X119701531Y-132522831D01*
X119705949Y-132507998D01*
X119706060Y-132492522D01*
X119701855Y-132477627D01*
X119693667Y-132464494D01*
X119682144Y-132454162D01*
X119669348Y-132448004D01*
X119663771Y-132446235D01*
X119627258Y-132426162D01*
X119595338Y-132399378D01*
X119569229Y-132366905D01*
X119567131Y-132362891D01*
X119558213Y-132350475D01*
X119546040Y-132340918D01*
X119531686Y-132335130D01*
X119516288Y-132333570D01*
X119501066Y-132336362D01*
X119487223Y-132343285D01*
X119475858Y-132353789D01*
X119467869Y-132367044D01*
X119463500Y-132388526D01*
X117536500Y-132388526D01*
X117536500Y-132388094D01*
X117534323Y-132372771D01*
X117527962Y-132358662D01*
X117517923Y-132346883D01*
X117505000Y-132338367D01*
X117490216Y-132333789D01*
X117474742Y-132333511D01*
X117459803Y-132337554D01*
X117446582Y-132345600D01*
X117433214Y-132361820D01*
X117429122Y-132369388D01*
X117402561Y-132401493D01*
X117370271Y-132427829D01*
X117333481Y-132447391D01*
X117331348Y-132448035D01*
X117318514Y-132453989D01*
X117306844Y-132464155D01*
X117298469Y-132477169D01*
X117294051Y-132492002D01*
X117293940Y-132507478D01*
X116755952Y-132507478D01*
X116756060Y-132492522D01*
X116751855Y-132477627D01*
X116743667Y-132464494D01*
X116732144Y-132454162D01*
X116719348Y-132448004D01*
X116713771Y-132446235D01*
X116677258Y-132426162D01*
X116645338Y-132399378D01*
X116619229Y-132366905D01*
X116599924Y-132329979D01*
X116588160Y-132290006D01*
X116588157Y-132289972D01*
X116588153Y-132289959D01*
X116584382Y-132248512D01*
X116588732Y-132207120D01*
X116588735Y-132207111D01*
X116588739Y-132207070D01*
X116601060Y-132167265D01*
X116620878Y-132130612D01*
X116647439Y-132098507D01*
X116679729Y-132072171D01*
X116716519Y-132052609D01*
X116756409Y-132040566D01*
X116797878Y-132036500D01*
X117252151Y-132036500D01*
X117252877Y-132036505D01*
X117252880Y-132036505D01*
X117255103Y-132036521D01*
X117296511Y-132041165D01*
X117336229Y-132053765D01*
X117372742Y-132073838D01*
X117404662Y-132100622D01*
X117430771Y-132133095D01*
X117432869Y-132137109D01*
X117441787Y-132149525D01*
X117453960Y-132159082D01*
X117468314Y-132164870D01*
X117483712Y-132166430D01*
X117498934Y-132163638D01*
X117512777Y-132156715D01*
X117524142Y-132146211D01*
X117532131Y-132132956D01*
X117536500Y-132111474D01*
X117536500Y-132036500D01*
X117611906Y-132036500D01*
X117627229Y-132034323D01*
X117641338Y-132027962D01*
X117653117Y-132017923D01*
X117661633Y-132005000D01*
X117666211Y-131990216D01*
X117666327Y-131983712D01*
X117833570Y-131983712D01*
X117836362Y-131998934D01*
X117843285Y-132012777D01*
X117853789Y-132024142D01*
X117867044Y-132032131D01*
X117888526Y-132036500D01*
X118111906Y-132036500D01*
X118127229Y-132034323D01*
X118141338Y-132027962D01*
X118153117Y-132017923D01*
X118161633Y-132005000D01*
X118166211Y-131990216D01*
X118166327Y-131983712D01*
X118333570Y-131983712D01*
X118336362Y-131998934D01*
X118343285Y-132012777D01*
X118353789Y-132024142D01*
X118367044Y-132032131D01*
X118388526Y-132036500D01*
X118611906Y-132036500D01*
X118627229Y-132034323D01*
X118641338Y-132027962D01*
X118653117Y-132017923D01*
X118661633Y-132005000D01*
X118666211Y-131990216D01*
X118666327Y-131983712D01*
X118833570Y-131983712D01*
X118836362Y-131998934D01*
X118843285Y-132012777D01*
X118853789Y-132024142D01*
X118867044Y-132032131D01*
X118888526Y-132036500D01*
X119111906Y-132036500D01*
X119127229Y-132034323D01*
X119141338Y-132027962D01*
X119153117Y-132017923D01*
X119161633Y-132005000D01*
X119166211Y-131990216D01*
X119166489Y-131974742D01*
X119162446Y-131959803D01*
X119154400Y-131946582D01*
X119138180Y-131933214D01*
X119130612Y-131929122D01*
X119098507Y-131902561D01*
X119072171Y-131870271D01*
X119052609Y-131833481D01*
X119051965Y-131831348D01*
X119046011Y-131818514D01*
X119035845Y-131806844D01*
X119022831Y-131798469D01*
X119007998Y-131794051D01*
X118992522Y-131793940D01*
X118977627Y-131798145D01*
X118964494Y-131806333D01*
X118954162Y-131817856D01*
X118948004Y-131830652D01*
X118946235Y-131836229D01*
X118926162Y-131872742D01*
X118899378Y-131904662D01*
X118866905Y-131930771D01*
X118862891Y-131932869D01*
X118850475Y-131941787D01*
X118840918Y-131953960D01*
X118835130Y-131968314D01*
X118833570Y-131983712D01*
X118666327Y-131983712D01*
X118666489Y-131974742D01*
X118662446Y-131959803D01*
X118654400Y-131946582D01*
X118638180Y-131933214D01*
X118630612Y-131929122D01*
X118598507Y-131902561D01*
X118572171Y-131870271D01*
X118552609Y-131833481D01*
X118551965Y-131831348D01*
X118546011Y-131818514D01*
X118535845Y-131806844D01*
X118522831Y-131798469D01*
X118507998Y-131794051D01*
X118492522Y-131793940D01*
X118477627Y-131798145D01*
X118464494Y-131806333D01*
X118454162Y-131817856D01*
X118448004Y-131830652D01*
X118446235Y-131836229D01*
X118426162Y-131872742D01*
X118399378Y-131904662D01*
X118366905Y-131930771D01*
X118362891Y-131932869D01*
X118350475Y-131941787D01*
X118340918Y-131953960D01*
X118335130Y-131968314D01*
X118333570Y-131983712D01*
X118166327Y-131983712D01*
X118166489Y-131974742D01*
X118162446Y-131959803D01*
X118154400Y-131946582D01*
X118138180Y-131933214D01*
X118130612Y-131929122D01*
X118098507Y-131902561D01*
X118072171Y-131870271D01*
X118052609Y-131833481D01*
X118051965Y-131831348D01*
X118046011Y-131818514D01*
X118035845Y-131806844D01*
X118022831Y-131798469D01*
X118007998Y-131794051D01*
X117992522Y-131793940D01*
X117977627Y-131798145D01*
X117964494Y-131806333D01*
X117954162Y-131817856D01*
X117948004Y-131830652D01*
X117946235Y-131836229D01*
X117926162Y-131872742D01*
X117899378Y-131904662D01*
X117866905Y-131930771D01*
X117862891Y-131932869D01*
X117850475Y-131941787D01*
X117840918Y-131953960D01*
X117835130Y-131968314D01*
X117833570Y-131983712D01*
X117666327Y-131983712D01*
X117666489Y-131974742D01*
X117662446Y-131959803D01*
X117654400Y-131946582D01*
X117638180Y-131933214D01*
X117630612Y-131929122D01*
X117598507Y-131902561D01*
X117572171Y-131870271D01*
X117552609Y-131833481D01*
X117540566Y-131793591D01*
X117536500Y-131752122D01*
X117536500Y-131297878D01*
X117536521Y-131294897D01*
X117541165Y-131253489D01*
X117553765Y-131213771D01*
X117573838Y-131177258D01*
X117600622Y-131145338D01*
X117633095Y-131119229D01*
X117670021Y-131099924D01*
X117709994Y-131088160D01*
X117710028Y-131088157D01*
X117710041Y-131088153D01*
X117751488Y-131084382D01*
X117792880Y-131088732D01*
X117792889Y-131088735D01*
X117792930Y-131088739D01*
X117832735Y-131101060D01*
X117869388Y-131120878D01*
X117901493Y-131147439D01*
X117927829Y-131179729D01*
X117947391Y-131216519D01*
X117948035Y-131218652D01*
X117953989Y-131231486D01*
X117964155Y-131243156D01*
X117977169Y-131251531D01*
X117992002Y-131255949D01*
X118007478Y-131256060D01*
X118022373Y-131251855D01*
X118035506Y-131243667D01*
X118045838Y-131232144D01*
X118051996Y-131219348D01*
X118053765Y-131213771D01*
X118073838Y-131177258D01*
X118100622Y-131145338D01*
X118133095Y-131119229D01*
X118170021Y-131099924D01*
X118209994Y-131088160D01*
X118210028Y-131088157D01*
X118210041Y-131088153D01*
X118251488Y-131084382D01*
X118292880Y-131088732D01*
X118292889Y-131088735D01*
X118292930Y-131088739D01*
X118332735Y-131101060D01*
X118369388Y-131120878D01*
X118401493Y-131147439D01*
X118427829Y-131179729D01*
X118447391Y-131216519D01*
X118448035Y-131218652D01*
X118453989Y-131231486D01*
X118464155Y-131243156D01*
X118477169Y-131251531D01*
X118492002Y-131255949D01*
X118507478Y-131256060D01*
X118522373Y-131251855D01*
X118535506Y-131243667D01*
X118545838Y-131232144D01*
X118551996Y-131219348D01*
X118553765Y-131213771D01*
X118573838Y-131177258D01*
X118600622Y-131145338D01*
X118633095Y-131119229D01*
X118670021Y-131099924D01*
X118709994Y-131088160D01*
X118710028Y-131088157D01*
X118710041Y-131088153D01*
X118751488Y-131084382D01*
X118792880Y-131088732D01*
X118792889Y-131088735D01*
X118792930Y-131088739D01*
X118832735Y-131101060D01*
X118869388Y-131120878D01*
X118901493Y-131147439D01*
X118927829Y-131179729D01*
X118947391Y-131216519D01*
X118948035Y-131218652D01*
X118953989Y-131231486D01*
X118964155Y-131243156D01*
X118977169Y-131251531D01*
X118992002Y-131255949D01*
X119007478Y-131256060D01*
X119022373Y-131251855D01*
X119035506Y-131243667D01*
X119045838Y-131232144D01*
X119051996Y-131219348D01*
X119053765Y-131213771D01*
X119073838Y-131177258D01*
X119100622Y-131145338D01*
X119133095Y-131119229D01*
X119170021Y-131099924D01*
X119209994Y-131088160D01*
X119210028Y-131088157D01*
X119210041Y-131088153D01*
X119251488Y-131084382D01*
X119292880Y-131088732D01*
X119292880Y-131088732D01*
G37*
G36*
X122938500Y-134713500D02*
X122061500Y-134713500D01*
X122061500Y-133786500D01*
X122938500Y-133786500D01*
X122938500Y-134713500D01*
X122938500Y-134713500D01*
G37*
G36*
X104728500Y-134358500D02*
X104271500Y-134358500D01*
X104271500Y-133821500D01*
X104728500Y-133821500D01*
X104728500Y-134358500D01*
X104728500Y-134358500D01*
G37*
G36*
X103728500Y-134358500D02*
X103271500Y-134358500D01*
X103271500Y-133821500D01*
X103728500Y-133821500D01*
X103728500Y-134358500D01*
X103728500Y-134358500D01*
G37*
G36*
X106513500Y-134313500D02*
X105486500Y-134313500D01*
X105486500Y-133686500D01*
X106513500Y-133686500D01*
X106513500Y-134313500D01*
X106513500Y-134313500D01*
G37*
G36*
X122938500Y-133213500D02*
X122061500Y-133213500D01*
X122061500Y-132286500D01*
X122938500Y-132286500D01*
X122938500Y-133213500D01*
X122938500Y-133213500D01*
G37*
G36*
X111892500Y-132914900D02*
X110865500Y-132914900D01*
X110865500Y-132287900D01*
X111892500Y-132287900D01*
X111892500Y-132914900D01*
X111892500Y-132914900D01*
G37*
G36*
X113848300Y-132914900D02*
X112821300Y-132914900D01*
X112821300Y-132287900D01*
X113848300Y-132287900D01*
X113848300Y-132914900D01*
X113848300Y-132914900D01*
G37*
G36*
X101813500Y-132838500D02*
X97186500Y-132838500D01*
X97186500Y-130711500D01*
X101813500Y-130711500D01*
X101813500Y-132838500D01*
X101813500Y-132838500D01*
G37*
G36*
X128813500Y-132038500D02*
X124186500Y-132038500D01*
X124186500Y-129911500D01*
X128813500Y-129911500D01*
X128813500Y-132038500D01*
X128813500Y-132038500D01*
G37*
G36*
X113848300Y-131414900D02*
X112821300Y-131414900D01*
X112821300Y-130787900D01*
X113848300Y-130787900D01*
X113848300Y-131414900D01*
X113848300Y-131414900D01*
G37*
G36*
X111892500Y-131414900D02*
X110865500Y-131414900D01*
X110865500Y-130787900D01*
X111892500Y-130787900D01*
X111892500Y-131414900D01*
X111892500Y-131414900D01*
G37*
G36*
X118938500Y-129951000D02*
X118561500Y-129951000D01*
X118561500Y-129124000D01*
X118938500Y-129124000D01*
X118938500Y-129951000D01*
X118938500Y-129951000D01*
G37*
G36*
X119438500Y-129951000D02*
X119061500Y-129951000D01*
X119061500Y-129124000D01*
X119438500Y-129124000D01*
X119438500Y-129951000D01*
X119438500Y-129951000D01*
G37*
G36*
X119938500Y-129951000D02*
X119561500Y-129951000D01*
X119561500Y-129124000D01*
X119938500Y-129124000D01*
X119938500Y-129951000D01*
X119938500Y-129951000D01*
G37*
G36*
X120438500Y-129951000D02*
X120061500Y-129951000D01*
X120061500Y-129124000D01*
X120438500Y-129124000D01*
X120438500Y-129951000D01*
X120438500Y-129951000D01*
G37*
G36*
X120938500Y-129131000D02*
X120938500Y-129951000D01*
X120561500Y-129951000D01*
X120561500Y-129124000D01*
X120931500Y-129124000D01*
X120939145Y-129122914D01*
X120938500Y-129131000D01*
X120938500Y-129131000D01*
G37*
G36*
X118438500Y-129951000D02*
X118061500Y-129951000D01*
X118061500Y-129124000D01*
X118438500Y-129124000D01*
X118438500Y-129951000D01*
X118438500Y-129951000D01*
G37*
G36*
X117938500Y-129951000D02*
X117561500Y-129951000D01*
X117561500Y-129124000D01*
X117938500Y-129124000D01*
X117938500Y-129951000D01*
X117938500Y-129951000D01*
G37*
G36*
X117068500Y-129124000D02*
X117438500Y-129124000D01*
X117438500Y-129951000D01*
X117061500Y-129951000D01*
X117061500Y-129131000D01*
X117060414Y-129123355D01*
X117068500Y-129124000D01*
X117068500Y-129124000D01*
G37*
G36*
X121813500Y-129076000D02*
X120993500Y-129076000D01*
X120985855Y-129077086D01*
X120986500Y-129069000D01*
X120986500Y-128699000D01*
X121813500Y-128699000D01*
X121813500Y-129076000D01*
X121813500Y-129076000D01*
G37*
G36*
X117013500Y-129069000D02*
X117014586Y-129076645D01*
X117006500Y-129076000D01*
X116186500Y-129076000D01*
X116186500Y-128699000D01*
X117013500Y-128699000D01*
X117013500Y-129069000D01*
X117013500Y-129069000D01*
G37*
G36*
X120788500Y-128926000D02*
X117211500Y-128926000D01*
X117211500Y-125349000D01*
X120788500Y-125349000D01*
X120788500Y-128926000D01*
X120788500Y-128926000D01*
G37*
G36*
X113813500Y-128710500D02*
X113086500Y-128710500D01*
X113086500Y-128083500D01*
X113813500Y-128083500D01*
X113813500Y-128710500D01*
X113813500Y-128710500D01*
G37*
G36*
X114913500Y-128710500D02*
X114186500Y-128710500D01*
X114186500Y-128083500D01*
X114913500Y-128083500D01*
X114913500Y-128710500D01*
X114913500Y-128710500D01*
G37*
G36*
X117013500Y-128576000D02*
X116186500Y-128576000D01*
X116186500Y-128199000D01*
X117013500Y-128199000D01*
X117013500Y-128576000D01*
X117013500Y-128576000D01*
G37*
G36*
X121813500Y-128576000D02*
X120986500Y-128576000D01*
X120986500Y-128199000D01*
X121813500Y-128199000D01*
X121813500Y-128576000D01*
X121813500Y-128576000D01*
G37*
G36*
X128813500Y-128488500D02*
X125686500Y-128488500D01*
X125686500Y-127511500D01*
X128813500Y-127511500D01*
X128813500Y-128488500D01*
X128813500Y-128488500D01*
G37*
G36*
X121813500Y-128076000D02*
X120986500Y-128076000D01*
X120986500Y-127699000D01*
X121813500Y-127699000D01*
X121813500Y-128076000D01*
X121813500Y-128076000D01*
G37*
G36*
X117013500Y-128076000D02*
X116186500Y-128076000D01*
X116186500Y-127699000D01*
X117013500Y-127699000D01*
X117013500Y-128076000D01*
X117013500Y-128076000D01*
G37*
G36*
X121813500Y-127576000D02*
X120986500Y-127576000D01*
X120986500Y-127199000D01*
X121813500Y-127199000D01*
X121813500Y-127576000D01*
X121813500Y-127576000D01*
G37*
G36*
X117013500Y-127576000D02*
X116186500Y-127576000D01*
X116186500Y-127199000D01*
X117013500Y-127199000D01*
X117013500Y-127576000D01*
X117013500Y-127576000D01*
G37*
G36*
X121813500Y-127076000D02*
X120986500Y-127076000D01*
X120986500Y-126699000D01*
X121813500Y-126699000D01*
X121813500Y-127076000D01*
X121813500Y-127076000D01*
G37*
G36*
X117013500Y-127076000D02*
X116186500Y-127076000D01*
X116186500Y-126699000D01*
X117013500Y-126699000D01*
X117013500Y-127076000D01*
X117013500Y-127076000D01*
G37*
G36*
X121813500Y-126576000D02*
X120986500Y-126576000D01*
X120986500Y-126199000D01*
X121813500Y-126199000D01*
X121813500Y-126576000D01*
X121813500Y-126576000D01*
G37*
G36*
X117013500Y-126576000D02*
X116186500Y-126576000D01*
X116186500Y-126199000D01*
X117013500Y-126199000D01*
X117013500Y-126576000D01*
X117013500Y-126576000D01*
G37*
G36*
X128813500Y-126088500D02*
X124186500Y-126088500D01*
X124186500Y-123961500D01*
X128813500Y-123961500D01*
X128813500Y-126088500D01*
X128813500Y-126088500D01*
G37*
G36*
X121813500Y-126076000D02*
X120986500Y-126076000D01*
X120986500Y-125699000D01*
X121813500Y-125699000D01*
X121813500Y-126076000D01*
X121813500Y-126076000D01*
G37*
G36*
X117013500Y-126076000D02*
X116186500Y-126076000D01*
X116186500Y-125699000D01*
X117013500Y-125699000D01*
X117013500Y-126076000D01*
X117013500Y-126076000D01*
G37*
G36*
X120993500Y-125199000D02*
X121813500Y-125199000D01*
X121813500Y-125576000D01*
X120986500Y-125576000D01*
X120986500Y-125206000D01*
X120985414Y-125198355D01*
X120993500Y-125199000D01*
X120993500Y-125199000D01*
G37*
G36*
X117013500Y-125206000D02*
X117013500Y-125576000D01*
X116186500Y-125576000D01*
X116186500Y-125199000D01*
X117006500Y-125199000D01*
X117014145Y-125197914D01*
X117013500Y-125206000D01*
X117013500Y-125206000D01*
G37*
G36*
X117438500Y-125151000D02*
X117068500Y-125151000D01*
X117060855Y-125152086D01*
X117061500Y-125144000D01*
X117061500Y-124324000D01*
X117438500Y-124324000D01*
X117438500Y-125151000D01*
X117438500Y-125151000D01*
G37*
G36*
X120938500Y-125144000D02*
X120939586Y-125151645D01*
X120931500Y-125151000D01*
X120561500Y-125151000D01*
X120561500Y-124324000D01*
X120938500Y-124324000D01*
X120938500Y-125144000D01*
X120938500Y-125144000D01*
G37*
G36*
X119938500Y-125151000D02*
X119561500Y-125151000D01*
X119561500Y-124324000D01*
X119938500Y-124324000D01*
X119938500Y-125151000D01*
X119938500Y-125151000D01*
G37*
G36*
X120438500Y-125151000D02*
X120061500Y-125151000D01*
X120061500Y-124324000D01*
X120438500Y-124324000D01*
X120438500Y-125151000D01*
X120438500Y-125151000D01*
G37*
G36*
X119438500Y-125151000D02*
X119061500Y-125151000D01*
X119061500Y-124324000D01*
X119438500Y-124324000D01*
X119438500Y-125151000D01*
X119438500Y-125151000D01*
G37*
G36*
X118938500Y-125151000D02*
X118561500Y-125151000D01*
X118561500Y-124324000D01*
X118938500Y-124324000D01*
X118938500Y-125151000D01*
X118938500Y-125151000D01*
G37*
G36*
X117938500Y-125151000D02*
X117561500Y-125151000D01*
X117561500Y-124324000D01*
X117938500Y-124324000D01*
X117938500Y-125151000D01*
X117938500Y-125151000D01*
G37*
G36*
X118438500Y-125151000D02*
X118061500Y-125151000D01*
X118061500Y-124324000D01*
X118438500Y-124324000D01*
X118438500Y-125151000D01*
X118438500Y-125151000D01*
G37*
G36*
X114322100Y-124719500D02*
X113695100Y-124719500D01*
X113695100Y-123692500D01*
X114322100Y-123692500D01*
X114322100Y-124719500D01*
X114322100Y-124719500D01*
G37*
G36*
X112822100Y-124719500D02*
X112195100Y-124719500D01*
X112195100Y-123692500D01*
X112822100Y-123692500D01*
X112822100Y-124719500D01*
X112822100Y-124719500D01*
G37*
G36*
X110513500Y-124063500D02*
X109486500Y-124063500D01*
X109486500Y-123436500D01*
X110513500Y-123436500D01*
X110513500Y-124063500D01*
X110513500Y-124063500D01*
G37*
G36*
X108228500Y-123928500D02*
X107771500Y-123928500D01*
X107771500Y-123391500D01*
X108228500Y-123391500D01*
X108228500Y-123928500D01*
X108228500Y-123928500D01*
G37*
G36*
X107228500Y-123928500D02*
X106771500Y-123928500D01*
X106771500Y-123391500D01*
X107228500Y-123391500D01*
X107228500Y-123928500D01*
X107228500Y-123928500D01*
G37*
G36*
X107228500Y-123268500D02*
X106771500Y-123268500D01*
X106771500Y-122731500D01*
X107228500Y-122731500D01*
X107228500Y-123268500D01*
X107228500Y-123268500D01*
G37*
G36*
X108228500Y-123268500D02*
X107771500Y-123268500D01*
X107771500Y-122731500D01*
X108228500Y-122731500D01*
X108228500Y-123268500D01*
X108228500Y-123268500D01*
G37*
G36*
X119302080Y-119366532D02*
X119302089Y-119366535D01*
X119302130Y-119366539D01*
X119341935Y-119378860D01*
X119378588Y-119398678D01*
X119410693Y-119425239D01*
X119437029Y-119457529D01*
X119456591Y-119494319D01*
X119468634Y-119534209D01*
X119472700Y-119575678D01*
X119472700Y-120029922D01*
X119472679Y-120032903D01*
X119468035Y-120074311D01*
X119455435Y-120114029D01*
X119435362Y-120150542D01*
X119408578Y-120182462D01*
X119376105Y-120208571D01*
X119372091Y-120210669D01*
X119359675Y-120219587D01*
X119350118Y-120231760D01*
X119344330Y-120246114D01*
X119342770Y-120261512D01*
X119345562Y-120276734D01*
X119352485Y-120290577D01*
X119362989Y-120301942D01*
X119376244Y-120309931D01*
X119397726Y-120314300D01*
X119472700Y-120314300D01*
X119472700Y-120389706D01*
X119474877Y-120405029D01*
X119481238Y-120419138D01*
X119491277Y-120430917D01*
X119504200Y-120439433D01*
X119518984Y-120444011D01*
X119534458Y-120444289D01*
X119549397Y-120440246D01*
X119562618Y-120432200D01*
X119575986Y-120415980D01*
X119580078Y-120408412D01*
X119606639Y-120376307D01*
X119638929Y-120349971D01*
X119675719Y-120330409D01*
X119715609Y-120318366D01*
X119757078Y-120314300D01*
X120211351Y-120314300D01*
X120212077Y-120314305D01*
X120212080Y-120314305D01*
X120214303Y-120314321D01*
X120255711Y-120318965D01*
X120295429Y-120331565D01*
X120331942Y-120351638D01*
X120363862Y-120378422D01*
X120389971Y-120410895D01*
X120409276Y-120447821D01*
X120421040Y-120487794D01*
X120421043Y-120487828D01*
X120421047Y-120487841D01*
X120424818Y-120529288D01*
X120420468Y-120570680D01*
X120420465Y-120570689D01*
X120420461Y-120570730D01*
X120408140Y-120610535D01*
X120388322Y-120647188D01*
X120361761Y-120679293D01*
X120329471Y-120705629D01*
X120292681Y-120725191D01*
X120290548Y-120725835D01*
X120277714Y-120731789D01*
X120266044Y-120741955D01*
X120257669Y-120754969D01*
X120253251Y-120769802D01*
X120253140Y-120785278D01*
X120257345Y-120800173D01*
X120265533Y-120813306D01*
X120277056Y-120823638D01*
X120289852Y-120829796D01*
X120295429Y-120831565D01*
X120331942Y-120851638D01*
X120363862Y-120878422D01*
X120389971Y-120910895D01*
X120409276Y-120947821D01*
X120421040Y-120987794D01*
X120421043Y-120987828D01*
X120421047Y-120987841D01*
X120424818Y-121029288D01*
X120420468Y-121070680D01*
X120420465Y-121070689D01*
X120420461Y-121070730D01*
X120408140Y-121110535D01*
X120388322Y-121147188D01*
X120361761Y-121179293D01*
X120329471Y-121205629D01*
X120292681Y-121225191D01*
X120290548Y-121225835D01*
X120277714Y-121231789D01*
X120266044Y-121241955D01*
X120257669Y-121254969D01*
X120253251Y-121269802D01*
X120253140Y-121285278D01*
X120257345Y-121300173D01*
X120265533Y-121313306D01*
X120277056Y-121323638D01*
X120289852Y-121329796D01*
X120295429Y-121331565D01*
X120331942Y-121351638D01*
X120363862Y-121378422D01*
X120389971Y-121410895D01*
X120409276Y-121447821D01*
X120421040Y-121487794D01*
X120421043Y-121487828D01*
X120421047Y-121487841D01*
X120424818Y-121529288D01*
X120420468Y-121570680D01*
X120420465Y-121570689D01*
X120420461Y-121570730D01*
X120408140Y-121610535D01*
X120388322Y-121647188D01*
X120361761Y-121679293D01*
X120329471Y-121705629D01*
X120292681Y-121725191D01*
X120290548Y-121725835D01*
X120277714Y-121731789D01*
X120266044Y-121741955D01*
X120257669Y-121754969D01*
X120253251Y-121769802D01*
X120253140Y-121785278D01*
X120257345Y-121800173D01*
X120265533Y-121813306D01*
X120277056Y-121823638D01*
X120289852Y-121829796D01*
X120295429Y-121831565D01*
X120331942Y-121851638D01*
X120363862Y-121878422D01*
X120389971Y-121910895D01*
X120409276Y-121947821D01*
X120421040Y-121987794D01*
X120421043Y-121987828D01*
X120421047Y-121987841D01*
X120424818Y-122029288D01*
X120420468Y-122070680D01*
X120420465Y-122070689D01*
X120420461Y-122070730D01*
X120408140Y-122110535D01*
X120388322Y-122147188D01*
X120361761Y-122179293D01*
X120329471Y-122205629D01*
X120292681Y-122225191D01*
X120252791Y-122237234D01*
X120211322Y-122241300D01*
X119757049Y-122241300D01*
X119756323Y-122241295D01*
X119756320Y-122241295D01*
X119754097Y-122241279D01*
X119712689Y-122236635D01*
X119672971Y-122224035D01*
X119636458Y-122203962D01*
X119604538Y-122177178D01*
X119578429Y-122144705D01*
X119576331Y-122140691D01*
X119567413Y-122128275D01*
X119555240Y-122118718D01*
X119540886Y-122112930D01*
X119525488Y-122111370D01*
X119510266Y-122114162D01*
X119496423Y-122121085D01*
X119485058Y-122131589D01*
X119477069Y-122144844D01*
X119472700Y-122166326D01*
X119472700Y-122241300D01*
X119397294Y-122241300D01*
X119381971Y-122243477D01*
X119367862Y-122249838D01*
X119356083Y-122259877D01*
X119347567Y-122272800D01*
X119342989Y-122287584D01*
X119342711Y-122303058D01*
X119346754Y-122317997D01*
X119354800Y-122331218D01*
X119371020Y-122344586D01*
X119378588Y-122348678D01*
X119410693Y-122375239D01*
X119437029Y-122407529D01*
X119456591Y-122444319D01*
X119468634Y-122484209D01*
X119472700Y-122525678D01*
X119472700Y-122979922D01*
X119472679Y-122982903D01*
X119468035Y-123024311D01*
X119455435Y-123064029D01*
X119435362Y-123100542D01*
X119408578Y-123132462D01*
X119376105Y-123158571D01*
X119339179Y-123177876D01*
X119299206Y-123189640D01*
X119299172Y-123189643D01*
X119299159Y-123189647D01*
X119257712Y-123193418D01*
X119216320Y-123189068D01*
X119216311Y-123189065D01*
X119216270Y-123189061D01*
X119176465Y-123176740D01*
X119139812Y-123156922D01*
X119107707Y-123130361D01*
X119081371Y-123098071D01*
X119061809Y-123061281D01*
X119061165Y-123059148D01*
X119055211Y-123046314D01*
X119045045Y-123034644D01*
X119032031Y-123026269D01*
X119017198Y-123021851D01*
X119001722Y-123021740D01*
X118986827Y-123025945D01*
X118973694Y-123034133D01*
X118963362Y-123045656D01*
X118957204Y-123058452D01*
X118955435Y-123064029D01*
X118935362Y-123100542D01*
X118908578Y-123132462D01*
X118876105Y-123158571D01*
X118839179Y-123177876D01*
X118799206Y-123189640D01*
X118799172Y-123189643D01*
X118799159Y-123189647D01*
X118757712Y-123193418D01*
X118716320Y-123189068D01*
X118716311Y-123189065D01*
X118716270Y-123189061D01*
X118676465Y-123176740D01*
X118639812Y-123156922D01*
X118607707Y-123130361D01*
X118581371Y-123098071D01*
X118561809Y-123061281D01*
X118561165Y-123059148D01*
X118555211Y-123046314D01*
X118545045Y-123034644D01*
X118532031Y-123026269D01*
X118517198Y-123021851D01*
X118501722Y-123021740D01*
X118486827Y-123025945D01*
X118473694Y-123034133D01*
X118463362Y-123045656D01*
X118457204Y-123058452D01*
X118455435Y-123064029D01*
X118435362Y-123100542D01*
X118408578Y-123132462D01*
X118376105Y-123158571D01*
X118339179Y-123177876D01*
X118299206Y-123189640D01*
X118299172Y-123189643D01*
X118299159Y-123189647D01*
X118257712Y-123193418D01*
X118216320Y-123189068D01*
X118216311Y-123189065D01*
X118216270Y-123189061D01*
X118176465Y-123176740D01*
X118139812Y-123156922D01*
X118107707Y-123130361D01*
X118081371Y-123098071D01*
X118061809Y-123061281D01*
X118061165Y-123059148D01*
X118055211Y-123046314D01*
X118045045Y-123034644D01*
X118032031Y-123026269D01*
X118017198Y-123021851D01*
X118001722Y-123021740D01*
X117986827Y-123025945D01*
X117973694Y-123034133D01*
X117963362Y-123045656D01*
X117957204Y-123058452D01*
X117955435Y-123064029D01*
X117935362Y-123100542D01*
X117908578Y-123132462D01*
X117876105Y-123158571D01*
X117839179Y-123177876D01*
X117799206Y-123189640D01*
X117799172Y-123189643D01*
X117799159Y-123189647D01*
X117757712Y-123193418D01*
X117716320Y-123189068D01*
X117716311Y-123189065D01*
X117716270Y-123189061D01*
X117676465Y-123176740D01*
X117639812Y-123156922D01*
X117607707Y-123130361D01*
X117581371Y-123098071D01*
X117561809Y-123061281D01*
X117549766Y-123021391D01*
X117545700Y-122979922D01*
X117545700Y-122525678D01*
X117545721Y-122522697D01*
X117550365Y-122481289D01*
X117562965Y-122441571D01*
X117583038Y-122405058D01*
X117609822Y-122373138D01*
X117642295Y-122347029D01*
X117646309Y-122344931D01*
X117658725Y-122336013D01*
X117668282Y-122323840D01*
X117674070Y-122309486D01*
X117674721Y-122303058D01*
X117842711Y-122303058D01*
X117846754Y-122317997D01*
X117854800Y-122331218D01*
X117871020Y-122344586D01*
X117878588Y-122348678D01*
X117910693Y-122375239D01*
X117937029Y-122407529D01*
X117956591Y-122444319D01*
X117957235Y-122446452D01*
X117963189Y-122459286D01*
X117973355Y-122470956D01*
X117986369Y-122479331D01*
X118001202Y-122483749D01*
X118016678Y-122483860D01*
X118031573Y-122479655D01*
X118044706Y-122471467D01*
X118055038Y-122459944D01*
X118061196Y-122447148D01*
X118062965Y-122441571D01*
X118083038Y-122405058D01*
X118109822Y-122373138D01*
X118142295Y-122347029D01*
X118146309Y-122344931D01*
X118158725Y-122336013D01*
X118168282Y-122323840D01*
X118174070Y-122309486D01*
X118174721Y-122303058D01*
X118342711Y-122303058D01*
X118346754Y-122317997D01*
X118354800Y-122331218D01*
X118371020Y-122344586D01*
X118378588Y-122348678D01*
X118410693Y-122375239D01*
X118437029Y-122407529D01*
X118456591Y-122444319D01*
X118457235Y-122446452D01*
X118463189Y-122459286D01*
X118473355Y-122470956D01*
X118486369Y-122479331D01*
X118501202Y-122483749D01*
X118516678Y-122483860D01*
X118531573Y-122479655D01*
X118544706Y-122471467D01*
X118555038Y-122459944D01*
X118561196Y-122447148D01*
X118562965Y-122441571D01*
X118583038Y-122405058D01*
X118609822Y-122373138D01*
X118642295Y-122347029D01*
X118646309Y-122344931D01*
X118658725Y-122336013D01*
X118668282Y-122323840D01*
X118674070Y-122309486D01*
X118674721Y-122303058D01*
X118842711Y-122303058D01*
X118846754Y-122317997D01*
X118854800Y-122331218D01*
X118871020Y-122344586D01*
X118878588Y-122348678D01*
X118910693Y-122375239D01*
X118937029Y-122407529D01*
X118956591Y-122444319D01*
X118957235Y-122446452D01*
X118963189Y-122459286D01*
X118973355Y-122470956D01*
X118986369Y-122479331D01*
X119001202Y-122483749D01*
X119016678Y-122483860D01*
X119031573Y-122479655D01*
X119044706Y-122471467D01*
X119055038Y-122459944D01*
X119061196Y-122447148D01*
X119062965Y-122441571D01*
X119083038Y-122405058D01*
X119109822Y-122373138D01*
X119142295Y-122347029D01*
X119146309Y-122344931D01*
X119158725Y-122336013D01*
X119168282Y-122323840D01*
X119174070Y-122309486D01*
X119175630Y-122294088D01*
X119172838Y-122278866D01*
X119165915Y-122265023D01*
X119155411Y-122253658D01*
X119142156Y-122245669D01*
X119120674Y-122241300D01*
X118897294Y-122241300D01*
X118881971Y-122243477D01*
X118867862Y-122249838D01*
X118856083Y-122259877D01*
X118847567Y-122272800D01*
X118842989Y-122287584D01*
X118842711Y-122303058D01*
X118674721Y-122303058D01*
X118675630Y-122294088D01*
X118672838Y-122278866D01*
X118665915Y-122265023D01*
X118655411Y-122253658D01*
X118642156Y-122245669D01*
X118620674Y-122241300D01*
X118397294Y-122241300D01*
X118381971Y-122243477D01*
X118367862Y-122249838D01*
X118356083Y-122259877D01*
X118347567Y-122272800D01*
X118342989Y-122287584D01*
X118342711Y-122303058D01*
X118174721Y-122303058D01*
X118175630Y-122294088D01*
X118172838Y-122278866D01*
X118165915Y-122265023D01*
X118155411Y-122253658D01*
X118142156Y-122245669D01*
X118120674Y-122241300D01*
X117897294Y-122241300D01*
X117881971Y-122243477D01*
X117867862Y-122249838D01*
X117856083Y-122259877D01*
X117847567Y-122272800D01*
X117842989Y-122287584D01*
X117842711Y-122303058D01*
X117674721Y-122303058D01*
X117675630Y-122294088D01*
X117672838Y-122278866D01*
X117665915Y-122265023D01*
X117655411Y-122253658D01*
X117642156Y-122245669D01*
X117620674Y-122241300D01*
X117545700Y-122241300D01*
X117545700Y-122165894D01*
X117543523Y-122150571D01*
X117537162Y-122136462D01*
X117527123Y-122124683D01*
X117514200Y-122116167D01*
X117499416Y-122111589D01*
X117483942Y-122111311D01*
X117469003Y-122115354D01*
X117455782Y-122123400D01*
X117442414Y-122139620D01*
X117438322Y-122147188D01*
X117411761Y-122179293D01*
X117379471Y-122205629D01*
X117342681Y-122225191D01*
X117302791Y-122237234D01*
X117261322Y-122241300D01*
X116807049Y-122241300D01*
X116806323Y-122241295D01*
X116806320Y-122241295D01*
X116804097Y-122241279D01*
X116762689Y-122236635D01*
X116722971Y-122224035D01*
X116686458Y-122203962D01*
X116654538Y-122177178D01*
X116628429Y-122144705D01*
X116609124Y-122107779D01*
X116597360Y-122067806D01*
X116597357Y-122067772D01*
X116597353Y-122067759D01*
X116593582Y-122026312D01*
X116597932Y-121984920D01*
X116597935Y-121984911D01*
X116597939Y-121984870D01*
X116610260Y-121945065D01*
X116630078Y-121908412D01*
X116656639Y-121876307D01*
X116688929Y-121849971D01*
X116725719Y-121830409D01*
X116727852Y-121829765D01*
X116740686Y-121823811D01*
X116752356Y-121813645D01*
X116760731Y-121800631D01*
X116765149Y-121785798D01*
X116765152Y-121785278D01*
X117303140Y-121785278D01*
X117307345Y-121800173D01*
X117315533Y-121813306D01*
X117327056Y-121823638D01*
X117339852Y-121829796D01*
X117345429Y-121831565D01*
X117381942Y-121851638D01*
X117413862Y-121878422D01*
X117439971Y-121910895D01*
X117442069Y-121914909D01*
X117450987Y-121927325D01*
X117463160Y-121936882D01*
X117477514Y-121942670D01*
X117492912Y-121944230D01*
X117508134Y-121941438D01*
X117521977Y-121934515D01*
X117533342Y-121924011D01*
X117541331Y-121910756D01*
X117545700Y-121889274D01*
X117545700Y-121666326D01*
X119472700Y-121666326D01*
X119472700Y-121889706D01*
X119474877Y-121905029D01*
X119481238Y-121919138D01*
X119491277Y-121930917D01*
X119504200Y-121939433D01*
X119518984Y-121944011D01*
X119534458Y-121944289D01*
X119549397Y-121940246D01*
X119562618Y-121932200D01*
X119575986Y-121915980D01*
X119580078Y-121908412D01*
X119606639Y-121876307D01*
X119638929Y-121849971D01*
X119675719Y-121830409D01*
X119677852Y-121829765D01*
X119690686Y-121823811D01*
X119702356Y-121813645D01*
X119710731Y-121800631D01*
X119715149Y-121785798D01*
X119715260Y-121770322D01*
X119711055Y-121755427D01*
X119702867Y-121742294D01*
X119691344Y-121731962D01*
X119678548Y-121725804D01*
X119672971Y-121724035D01*
X119636458Y-121703962D01*
X119604538Y-121677178D01*
X119578429Y-121644705D01*
X119576331Y-121640691D01*
X119567413Y-121628275D01*
X119555240Y-121618718D01*
X119540886Y-121612930D01*
X119525488Y-121611370D01*
X119510266Y-121614162D01*
X119496423Y-121621085D01*
X119485058Y-121631589D01*
X119477069Y-121644844D01*
X119472700Y-121666326D01*
X117545700Y-121666326D01*
X117545700Y-121665894D01*
X117543523Y-121650571D01*
X117537162Y-121636462D01*
X117527123Y-121624683D01*
X117514200Y-121616167D01*
X117499416Y-121611589D01*
X117483942Y-121611311D01*
X117469003Y-121615354D01*
X117455782Y-121623400D01*
X117442414Y-121639620D01*
X117438322Y-121647188D01*
X117411761Y-121679293D01*
X117379471Y-121705629D01*
X117342681Y-121725191D01*
X117340548Y-121725835D01*
X117327714Y-121731789D01*
X117316044Y-121741955D01*
X117307669Y-121754969D01*
X117303251Y-121769802D01*
X117303140Y-121785278D01*
X116765152Y-121785278D01*
X116765260Y-121770322D01*
X116761055Y-121755427D01*
X116752867Y-121742294D01*
X116741344Y-121731962D01*
X116728548Y-121725804D01*
X116722971Y-121724035D01*
X116686458Y-121703962D01*
X116654538Y-121677178D01*
X116628429Y-121644705D01*
X116609124Y-121607779D01*
X116597360Y-121567806D01*
X116597357Y-121567772D01*
X116597353Y-121567759D01*
X116593582Y-121526312D01*
X116597932Y-121484920D01*
X116597935Y-121484911D01*
X116597939Y-121484870D01*
X116610260Y-121445065D01*
X116630078Y-121408412D01*
X116656639Y-121376307D01*
X116688929Y-121349971D01*
X116725719Y-121330409D01*
X116727852Y-121329765D01*
X116740686Y-121323811D01*
X116752356Y-121313645D01*
X116760731Y-121300631D01*
X116765149Y-121285798D01*
X116765152Y-121285278D01*
X117303140Y-121285278D01*
X117307345Y-121300173D01*
X117315533Y-121313306D01*
X117327056Y-121323638D01*
X117339852Y-121329796D01*
X117345429Y-121331565D01*
X117381942Y-121351638D01*
X117413862Y-121378422D01*
X117439971Y-121410895D01*
X117442069Y-121414909D01*
X117450987Y-121427325D01*
X117463160Y-121436882D01*
X117477514Y-121442670D01*
X117492912Y-121444230D01*
X117508134Y-121441438D01*
X117521977Y-121434515D01*
X117533342Y-121424011D01*
X117541331Y-121410756D01*
X117545700Y-121389274D01*
X117545700Y-121166326D01*
X119472700Y-121166326D01*
X119472700Y-121389706D01*
X119474877Y-121405029D01*
X119481238Y-121419138D01*
X119491277Y-121430917D01*
X119504200Y-121439433D01*
X119518984Y-121444011D01*
X119534458Y-121444289D01*
X119549397Y-121440246D01*
X119562618Y-121432200D01*
X119575986Y-121415980D01*
X119580078Y-121408412D01*
X119606639Y-121376307D01*
X119638929Y-121349971D01*
X119675719Y-121330409D01*
X119677852Y-121329765D01*
X119690686Y-121323811D01*
X119702356Y-121313645D01*
X119710731Y-121300631D01*
X119715149Y-121285798D01*
X119715260Y-121270322D01*
X119711055Y-121255427D01*
X119702867Y-121242294D01*
X119691344Y-121231962D01*
X119678548Y-121225804D01*
X119672971Y-121224035D01*
X119636458Y-121203962D01*
X119604538Y-121177178D01*
X119578429Y-121144705D01*
X119576331Y-121140691D01*
X119567413Y-121128275D01*
X119555240Y-121118718D01*
X119540886Y-121112930D01*
X119525488Y-121111370D01*
X119510266Y-121114162D01*
X119496423Y-121121085D01*
X119485058Y-121131589D01*
X119477069Y-121144844D01*
X119472700Y-121166326D01*
X117545700Y-121166326D01*
X117545700Y-121165894D01*
X117543523Y-121150571D01*
X117537162Y-121136462D01*
X117527123Y-121124683D01*
X117514200Y-121116167D01*
X117499416Y-121111589D01*
X117483942Y-121111311D01*
X117469003Y-121115354D01*
X117455782Y-121123400D01*
X117442414Y-121139620D01*
X117438322Y-121147188D01*
X117411761Y-121179293D01*
X117379471Y-121205629D01*
X117342681Y-121225191D01*
X117340548Y-121225835D01*
X117327714Y-121231789D01*
X117316044Y-121241955D01*
X117307669Y-121254969D01*
X117303251Y-121269802D01*
X117303140Y-121285278D01*
X116765152Y-121285278D01*
X116765260Y-121270322D01*
X116761055Y-121255427D01*
X116752867Y-121242294D01*
X116741344Y-121231962D01*
X116728548Y-121225804D01*
X116722971Y-121224035D01*
X116686458Y-121203962D01*
X116654538Y-121177178D01*
X116628429Y-121144705D01*
X116609124Y-121107779D01*
X116597360Y-121067806D01*
X116597357Y-121067772D01*
X116597353Y-121067759D01*
X116593582Y-121026312D01*
X116597932Y-120984920D01*
X116597935Y-120984911D01*
X116597939Y-120984870D01*
X116610260Y-120945065D01*
X116630078Y-120908412D01*
X116656639Y-120876307D01*
X116688929Y-120849971D01*
X116725719Y-120830409D01*
X116727852Y-120829765D01*
X116740686Y-120823811D01*
X116752356Y-120813645D01*
X116760731Y-120800631D01*
X116765149Y-120785798D01*
X116765152Y-120785278D01*
X117303140Y-120785278D01*
X117307345Y-120800173D01*
X117315533Y-120813306D01*
X117327056Y-120823638D01*
X117339852Y-120829796D01*
X117345429Y-120831565D01*
X117381942Y-120851638D01*
X117413862Y-120878422D01*
X117439971Y-120910895D01*
X117442069Y-120914909D01*
X117450987Y-120927325D01*
X117463160Y-120936882D01*
X117477514Y-120942670D01*
X117492912Y-120944230D01*
X117508134Y-120941438D01*
X117521977Y-120934515D01*
X117533342Y-120924011D01*
X117541331Y-120910756D01*
X117545700Y-120889274D01*
X117545700Y-120666326D01*
X119472700Y-120666326D01*
X119472700Y-120889706D01*
X119474877Y-120905029D01*
X119481238Y-120919138D01*
X119491277Y-120930917D01*
X119504200Y-120939433D01*
X119518984Y-120944011D01*
X119534458Y-120944289D01*
X119549397Y-120940246D01*
X119562618Y-120932200D01*
X119575986Y-120915980D01*
X119580078Y-120908412D01*
X119606639Y-120876307D01*
X119638929Y-120849971D01*
X119675719Y-120830409D01*
X119677852Y-120829765D01*
X119690686Y-120823811D01*
X119702356Y-120813645D01*
X119710731Y-120800631D01*
X119715149Y-120785798D01*
X119715260Y-120770322D01*
X119711055Y-120755427D01*
X119702867Y-120742294D01*
X119691344Y-120731962D01*
X119678548Y-120725804D01*
X119672971Y-120724035D01*
X119636458Y-120703962D01*
X119604538Y-120677178D01*
X119578429Y-120644705D01*
X119576331Y-120640691D01*
X119567413Y-120628275D01*
X119555240Y-120618718D01*
X119540886Y-120612930D01*
X119525488Y-120611370D01*
X119510266Y-120614162D01*
X119496423Y-120621085D01*
X119485058Y-120631589D01*
X119477069Y-120644844D01*
X119472700Y-120666326D01*
X117545700Y-120666326D01*
X117545700Y-120665894D01*
X117543523Y-120650571D01*
X117537162Y-120636462D01*
X117527123Y-120624683D01*
X117514200Y-120616167D01*
X117499416Y-120611589D01*
X117483942Y-120611311D01*
X117469003Y-120615354D01*
X117455782Y-120623400D01*
X117442414Y-120639620D01*
X117438322Y-120647188D01*
X117411761Y-120679293D01*
X117379471Y-120705629D01*
X117342681Y-120725191D01*
X117340548Y-120725835D01*
X117327714Y-120731789D01*
X117316044Y-120741955D01*
X117307669Y-120754969D01*
X117303251Y-120769802D01*
X117303140Y-120785278D01*
X116765152Y-120785278D01*
X116765260Y-120770322D01*
X116761055Y-120755427D01*
X116752867Y-120742294D01*
X116741344Y-120731962D01*
X116728548Y-120725804D01*
X116722971Y-120724035D01*
X116686458Y-120703962D01*
X116654538Y-120677178D01*
X116628429Y-120644705D01*
X116609124Y-120607779D01*
X116597360Y-120567806D01*
X116597357Y-120567772D01*
X116597353Y-120567759D01*
X116593582Y-120526312D01*
X116597932Y-120484920D01*
X116597935Y-120484911D01*
X116597939Y-120484870D01*
X116610260Y-120445065D01*
X116630078Y-120408412D01*
X116656639Y-120376307D01*
X116688929Y-120349971D01*
X116725719Y-120330409D01*
X116765609Y-120318366D01*
X116807078Y-120314300D01*
X117261351Y-120314300D01*
X117262077Y-120314305D01*
X117262080Y-120314305D01*
X117264303Y-120314321D01*
X117305711Y-120318965D01*
X117345429Y-120331565D01*
X117381942Y-120351638D01*
X117413862Y-120378422D01*
X117439971Y-120410895D01*
X117442069Y-120414909D01*
X117450987Y-120427325D01*
X117463160Y-120436882D01*
X117477514Y-120442670D01*
X117492912Y-120444230D01*
X117508134Y-120441438D01*
X117521977Y-120434515D01*
X117533342Y-120424011D01*
X117541331Y-120410756D01*
X117545700Y-120389274D01*
X117545700Y-120314300D01*
X117621106Y-120314300D01*
X117636429Y-120312123D01*
X117650538Y-120305762D01*
X117662317Y-120295723D01*
X117670833Y-120282800D01*
X117675411Y-120268016D01*
X117675527Y-120261512D01*
X117842770Y-120261512D01*
X117845562Y-120276734D01*
X117852485Y-120290577D01*
X117862989Y-120301942D01*
X117876244Y-120309931D01*
X117897726Y-120314300D01*
X118121106Y-120314300D01*
X118136429Y-120312123D01*
X118150538Y-120305762D01*
X118162317Y-120295723D01*
X118170833Y-120282800D01*
X118175411Y-120268016D01*
X118175527Y-120261512D01*
X118342770Y-120261512D01*
X118345562Y-120276734D01*
X118352485Y-120290577D01*
X118362989Y-120301942D01*
X118376244Y-120309931D01*
X118397726Y-120314300D01*
X118621106Y-120314300D01*
X118636429Y-120312123D01*
X118650538Y-120305762D01*
X118662317Y-120295723D01*
X118670833Y-120282800D01*
X118675411Y-120268016D01*
X118675527Y-120261512D01*
X118842770Y-120261512D01*
X118845562Y-120276734D01*
X118852485Y-120290577D01*
X118862989Y-120301942D01*
X118876244Y-120309931D01*
X118897726Y-120314300D01*
X119121106Y-120314300D01*
X119136429Y-120312123D01*
X119150538Y-120305762D01*
X119162317Y-120295723D01*
X119170833Y-120282800D01*
X119175411Y-120268016D01*
X119175689Y-120252542D01*
X119171646Y-120237603D01*
X119163600Y-120224382D01*
X119147380Y-120211014D01*
X119139812Y-120206922D01*
X119107707Y-120180361D01*
X119081371Y-120148071D01*
X119061809Y-120111281D01*
X119061165Y-120109148D01*
X119055211Y-120096314D01*
X119045045Y-120084644D01*
X119032031Y-120076269D01*
X119017198Y-120071851D01*
X119001722Y-120071740D01*
X118986827Y-120075945D01*
X118973694Y-120084133D01*
X118963362Y-120095656D01*
X118957204Y-120108452D01*
X118955435Y-120114029D01*
X118935362Y-120150542D01*
X118908578Y-120182462D01*
X118876105Y-120208571D01*
X118872091Y-120210669D01*
X118859675Y-120219587D01*
X118850118Y-120231760D01*
X118844330Y-120246114D01*
X118842770Y-120261512D01*
X118675527Y-120261512D01*
X118675689Y-120252542D01*
X118671646Y-120237603D01*
X118663600Y-120224382D01*
X118647380Y-120211014D01*
X118639812Y-120206922D01*
X118607707Y-120180361D01*
X118581371Y-120148071D01*
X118561809Y-120111281D01*
X118561165Y-120109148D01*
X118555211Y-120096314D01*
X118545045Y-120084644D01*
X118532031Y-120076269D01*
X118517198Y-120071851D01*
X118501722Y-120071740D01*
X118486827Y-120075945D01*
X118473694Y-120084133D01*
X118463362Y-120095656D01*
X118457204Y-120108452D01*
X118455435Y-120114029D01*
X118435362Y-120150542D01*
X118408578Y-120182462D01*
X118376105Y-120208571D01*
X118372091Y-120210669D01*
X118359675Y-120219587D01*
X118350118Y-120231760D01*
X118344330Y-120246114D01*
X118342770Y-120261512D01*
X118175527Y-120261512D01*
X118175689Y-120252542D01*
X118171646Y-120237603D01*
X118163600Y-120224382D01*
X118147380Y-120211014D01*
X118139812Y-120206922D01*
X118107707Y-120180361D01*
X118081371Y-120148071D01*
X118061809Y-120111281D01*
X118061165Y-120109148D01*
X118055211Y-120096314D01*
X118045045Y-120084644D01*
X118032031Y-120076269D01*
X118017198Y-120071851D01*
X118001722Y-120071740D01*
X117986827Y-120075945D01*
X117973694Y-120084133D01*
X117963362Y-120095656D01*
X117957204Y-120108452D01*
X117955435Y-120114029D01*
X117935362Y-120150542D01*
X117908578Y-120182462D01*
X117876105Y-120208571D01*
X117872091Y-120210669D01*
X117859675Y-120219587D01*
X117850118Y-120231760D01*
X117844330Y-120246114D01*
X117842770Y-120261512D01*
X117675527Y-120261512D01*
X117675689Y-120252542D01*
X117671646Y-120237603D01*
X117663600Y-120224382D01*
X117647380Y-120211014D01*
X117639812Y-120206922D01*
X117607707Y-120180361D01*
X117581371Y-120148071D01*
X117561809Y-120111281D01*
X117549766Y-120071391D01*
X117545700Y-120029922D01*
X117545700Y-119575678D01*
X117545721Y-119572697D01*
X117550365Y-119531289D01*
X117562965Y-119491571D01*
X117583038Y-119455058D01*
X117609822Y-119423138D01*
X117642295Y-119397029D01*
X117679221Y-119377724D01*
X117719194Y-119365960D01*
X117719228Y-119365957D01*
X117719241Y-119365953D01*
X117760688Y-119362182D01*
X117802080Y-119366532D01*
X117802089Y-119366535D01*
X117802130Y-119366539D01*
X117841935Y-119378860D01*
X117878588Y-119398678D01*
X117910693Y-119425239D01*
X117937029Y-119457529D01*
X117956591Y-119494319D01*
X117957235Y-119496452D01*
X117963189Y-119509286D01*
X117973355Y-119520956D01*
X117986369Y-119529331D01*
X118001202Y-119533749D01*
X118016678Y-119533860D01*
X118031573Y-119529655D01*
X118044706Y-119521467D01*
X118055038Y-119509944D01*
X118061196Y-119497148D01*
X118062965Y-119491571D01*
X118083038Y-119455058D01*
X118109822Y-119423138D01*
X118142295Y-119397029D01*
X118179221Y-119377724D01*
X118219194Y-119365960D01*
X118219228Y-119365957D01*
X118219241Y-119365953D01*
X118260688Y-119362182D01*
X118302080Y-119366532D01*
X118302089Y-119366535D01*
X118302130Y-119366539D01*
X118341935Y-119378860D01*
X118378588Y-119398678D01*
X118410693Y-119425239D01*
X118437029Y-119457529D01*
X118456591Y-119494319D01*
X118457235Y-119496452D01*
X118463189Y-119509286D01*
X118473355Y-119520956D01*
X118486369Y-119529331D01*
X118501202Y-119533749D01*
X118516678Y-119533860D01*
X118531573Y-119529655D01*
X118544706Y-119521467D01*
X118555038Y-119509944D01*
X118561196Y-119497148D01*
X118562965Y-119491571D01*
X118583038Y-119455058D01*
X118609822Y-119423138D01*
X118642295Y-119397029D01*
X118679221Y-119377724D01*
X118719194Y-119365960D01*
X118719228Y-119365957D01*
X118719241Y-119365953D01*
X118760688Y-119362182D01*
X118802080Y-119366532D01*
X118802089Y-119366535D01*
X118802130Y-119366539D01*
X118841935Y-119378860D01*
X118878588Y-119398678D01*
X118910693Y-119425239D01*
X118937029Y-119457529D01*
X118956591Y-119494319D01*
X118957235Y-119496452D01*
X118963189Y-119509286D01*
X118973355Y-119520956D01*
X118986369Y-119529331D01*
X119001202Y-119533749D01*
X119016678Y-119533860D01*
X119031573Y-119529655D01*
X119044706Y-119521467D01*
X119055038Y-119509944D01*
X119061196Y-119497148D01*
X119062965Y-119491571D01*
X119083038Y-119455058D01*
X119109822Y-119423138D01*
X119142295Y-119397029D01*
X119179221Y-119377724D01*
X119219194Y-119365960D01*
X119219228Y-119365957D01*
X119219241Y-119365953D01*
X119260688Y-119362182D01*
X119302080Y-119366532D01*
X119302080Y-119366532D01*
G37*
G36*
X122938500Y-123158900D02*
X122061500Y-123158900D01*
X122061500Y-122231900D01*
X122938500Y-122231900D01*
X122938500Y-123158900D01*
X122938500Y-123158900D01*
G37*
G36*
X99014948Y-121166573D02*
X99014952Y-121166573D01*
X99017174Y-121166589D01*
X99194347Y-121186462D01*
X99364286Y-121240370D01*
X99520517Y-121326259D01*
X99657091Y-121440858D01*
X99768804Y-121579801D01*
X99851402Y-121737797D01*
X99901739Y-121908827D01*
X99901742Y-121908864D01*
X99901745Y-121908873D01*
X99917899Y-122086376D01*
X99899269Y-122263635D01*
X99899266Y-122263644D01*
X99899262Y-122263685D01*
X99846542Y-122433995D01*
X99761746Y-122590823D01*
X99648103Y-122728193D01*
X99509943Y-122840874D01*
X99352528Y-122924573D01*
X99181853Y-122976103D01*
X99004420Y-122993500D01*
X98995552Y-122993500D01*
X98985052Y-122993427D01*
X98985048Y-122993427D01*
X98982826Y-122993411D01*
X98805653Y-122973538D01*
X98635714Y-122919630D01*
X98479483Y-122833741D01*
X98342909Y-122719142D01*
X98231196Y-122580199D01*
X98148598Y-122422203D01*
X98098261Y-122251173D01*
X98098258Y-122251136D01*
X98098255Y-122251127D01*
X98082101Y-122073624D01*
X98100731Y-121896365D01*
X98100734Y-121896356D01*
X98100738Y-121896315D01*
X98153458Y-121726005D01*
X98238254Y-121569177D01*
X98351897Y-121431807D01*
X98490057Y-121319126D01*
X98647472Y-121235427D01*
X98818147Y-121183897D01*
X98995580Y-121166500D01*
X99004448Y-121166500D01*
X99014948Y-121166573D01*
X99014948Y-121166573D01*
G37*
G36*
X114296700Y-122763700D02*
X113669700Y-122763700D01*
X113669700Y-121736700D01*
X114296700Y-121736700D01*
X114296700Y-122763700D01*
X114296700Y-122763700D01*
G37*
G36*
X112796700Y-122763700D02*
X112169700Y-122763700D01*
X112169700Y-121736700D01*
X112796700Y-121736700D01*
X112796700Y-122763700D01*
X112796700Y-122763700D01*
G37*
G36*
X107228500Y-122608500D02*
X106771500Y-122608500D01*
X106771500Y-122071500D01*
X107228500Y-122071500D01*
X107228500Y-122608500D01*
X107228500Y-122608500D01*
G37*
G36*
X108228500Y-122608500D02*
X107771500Y-122608500D01*
X107771500Y-122071500D01*
X108228500Y-122071500D01*
X108228500Y-122608500D01*
X108228500Y-122608500D01*
G37*
G36*
X110513500Y-122563500D02*
X109486500Y-122563500D01*
X109486500Y-121936500D01*
X110513500Y-121936500D01*
X110513500Y-122563500D01*
X110513500Y-122563500D01*
G37*
G36*
X122938500Y-121658900D02*
X122061500Y-121658900D01*
X122061500Y-120731900D01*
X122938500Y-120731900D01*
X122938500Y-121658900D01*
X122938500Y-121658900D01*
G37*
G36*
X107313500Y-120763500D02*
X106686500Y-120763500D01*
X106686500Y-119736500D01*
X107313500Y-119736500D01*
X107313500Y-120763500D01*
X107313500Y-120763500D01*
G37*
G36*
X108813500Y-120763500D02*
X108186500Y-120763500D01*
X108186500Y-119736500D01*
X108813500Y-119736500D01*
X108813500Y-120763500D01*
X108813500Y-120763500D01*
G37*
G36*
X99014948Y-118626573D02*
X99014952Y-118626573D01*
X99017174Y-118626589D01*
X99194347Y-118646462D01*
X99364286Y-118700370D01*
X99520517Y-118786259D01*
X99657091Y-118900858D01*
X99768804Y-119039801D01*
X99851402Y-119197797D01*
X99901739Y-119368827D01*
X99901742Y-119368864D01*
X99901745Y-119368873D01*
X99917899Y-119546376D01*
X99899269Y-119723635D01*
X99899266Y-119723644D01*
X99899262Y-119723685D01*
X99846542Y-119893995D01*
X99761746Y-120050823D01*
X99648103Y-120188193D01*
X99509943Y-120300874D01*
X99352528Y-120384573D01*
X99181853Y-120436103D01*
X99004420Y-120453500D01*
X98995552Y-120453500D01*
X98985052Y-120453427D01*
X98985048Y-120453427D01*
X98982826Y-120453411D01*
X98805653Y-120433538D01*
X98635714Y-120379630D01*
X98479483Y-120293741D01*
X98342909Y-120179142D01*
X98231196Y-120040199D01*
X98148598Y-119882203D01*
X98098261Y-119711173D01*
X98098258Y-119711136D01*
X98098255Y-119711127D01*
X98082101Y-119533624D01*
X98100731Y-119356365D01*
X98100734Y-119356356D01*
X98100738Y-119356315D01*
X98153458Y-119186005D01*
X98238254Y-119029177D01*
X98351897Y-118891807D01*
X98490057Y-118779126D01*
X98647472Y-118695427D01*
X98818147Y-118643897D01*
X98995580Y-118626500D01*
X99004448Y-118626500D01*
X99014948Y-118626573D01*
X99014948Y-118626573D01*
G37*
G36*
X128813500Y-120038500D02*
X124186500Y-120038500D01*
X124186500Y-117911500D01*
X128813500Y-117911500D01*
X128813500Y-120038500D01*
X128813500Y-120038500D01*
G37*
G36*
X108813500Y-119263500D02*
X108186500Y-119263500D01*
X108186500Y-118236500D01*
X108813500Y-118236500D01*
X108813500Y-119263500D01*
X108813500Y-119263500D01*
G37*
G36*
X107313500Y-119263500D02*
X106686500Y-119263500D01*
X106686500Y-118236500D01*
X107313500Y-118236500D01*
X107313500Y-119263500D01*
X107313500Y-119263500D01*
G37*
G36*
X105963500Y-119188500D02*
X105036500Y-119188500D01*
X105036500Y-118311500D01*
X105963500Y-118311500D01*
X105963500Y-119188500D01*
X105963500Y-119188500D01*
G37*
G36*
X104463500Y-119188500D02*
X103536500Y-119188500D01*
X103536500Y-118311500D01*
X104463500Y-118311500D01*
X104463500Y-119188500D01*
X104463500Y-119188500D01*
G37*
G36*
X118938500Y-118451000D02*
X118561500Y-118451000D01*
X118561500Y-117624000D01*
X118938500Y-117624000D01*
X118938500Y-118451000D01*
X118938500Y-118451000D01*
G37*
G36*
X117068500Y-117624000D02*
X117438500Y-117624000D01*
X117438500Y-118451000D01*
X117061500Y-118451000D01*
X117061500Y-117631000D01*
X117060414Y-117623355D01*
X117068500Y-117624000D01*
X117068500Y-117624000D01*
G37*
G36*
X117938500Y-118451000D02*
X117561500Y-118451000D01*
X117561500Y-117624000D01*
X117938500Y-117624000D01*
X117938500Y-118451000D01*
X117938500Y-118451000D01*
G37*
G36*
X120938500Y-117631000D02*
X120938500Y-118451000D01*
X120561500Y-118451000D01*
X120561500Y-117624000D01*
X120931500Y-117624000D01*
X120939145Y-117622914D01*
X120938500Y-117631000D01*
X120938500Y-117631000D01*
G37*
G36*
X120438500Y-118451000D02*
X120061500Y-118451000D01*
X120061500Y-117624000D01*
X120438500Y-117624000D01*
X120438500Y-118451000D01*
X120438500Y-118451000D01*
G37*
G36*
X119938500Y-118451000D02*
X119561500Y-118451000D01*
X119561500Y-117624000D01*
X119938500Y-117624000D01*
X119938500Y-118451000D01*
X119938500Y-118451000D01*
G37*
G36*
X118438500Y-118451000D02*
X118061500Y-118451000D01*
X118061500Y-117624000D01*
X118438500Y-117624000D01*
X118438500Y-118451000D01*
X118438500Y-118451000D01*
G37*
G36*
X119438500Y-118451000D02*
X119061500Y-118451000D01*
X119061500Y-117624000D01*
X119438500Y-117624000D01*
X119438500Y-118451000D01*
X119438500Y-118451000D01*
G37*
G36*
X99014948Y-116086573D02*
X99014952Y-116086573D01*
X99017174Y-116086589D01*
X99194347Y-116106462D01*
X99364286Y-116160370D01*
X99520517Y-116246259D01*
X99657091Y-116360858D01*
X99768804Y-116499801D01*
X99851402Y-116657797D01*
X99901739Y-116828827D01*
X99901742Y-116828864D01*
X99901745Y-116828873D01*
X99917899Y-117006376D01*
X99899269Y-117183635D01*
X99899266Y-117183644D01*
X99899262Y-117183685D01*
X99846542Y-117353995D01*
X99761746Y-117510823D01*
X99648103Y-117648193D01*
X99509943Y-117760874D01*
X99352528Y-117844573D01*
X99181853Y-117896103D01*
X99004420Y-117913500D01*
X98995552Y-117913500D01*
X98985052Y-117913427D01*
X98985048Y-117913427D01*
X98982826Y-117913411D01*
X98805653Y-117893538D01*
X98635714Y-117839630D01*
X98479483Y-117753741D01*
X98342909Y-117639142D01*
X98231196Y-117500199D01*
X98148598Y-117342203D01*
X98098261Y-117171173D01*
X98098258Y-117171136D01*
X98098255Y-117171127D01*
X98082101Y-116993624D01*
X98100731Y-116816365D01*
X98100734Y-116816356D01*
X98100738Y-116816315D01*
X98153458Y-116646005D01*
X98238254Y-116489177D01*
X98351897Y-116351807D01*
X98490057Y-116239126D01*
X98647472Y-116155427D01*
X98818147Y-116103897D01*
X98995580Y-116086500D01*
X99004448Y-116086500D01*
X99014948Y-116086573D01*
X99014948Y-116086573D01*
G37*
G36*
X121813500Y-117576000D02*
X120993500Y-117576000D01*
X120985855Y-117577086D01*
X120986500Y-117569000D01*
X120986500Y-117199000D01*
X121813500Y-117199000D01*
X121813500Y-117576000D01*
X121813500Y-117576000D01*
G37*
G36*
X117013500Y-117569000D02*
X117014586Y-117576645D01*
X117006500Y-117576000D01*
X116186500Y-117576000D01*
X116186500Y-117199000D01*
X117013500Y-117199000D01*
X117013500Y-117569000D01*
X117013500Y-117569000D01*
G37*
G36*
X120788500Y-117426000D02*
X117211500Y-117426000D01*
X117211500Y-113849000D01*
X120788500Y-113849000D01*
X120788500Y-117426000D01*
X120788500Y-117426000D01*
G37*
G36*
X108792880Y-113588732D02*
X108792889Y-113588735D01*
X108792930Y-113588739D01*
X108832735Y-113601060D01*
X108869388Y-113620878D01*
X108901493Y-113647439D01*
X108927829Y-113679729D01*
X108947391Y-113716519D01*
X108959434Y-113756409D01*
X108963500Y-113797878D01*
X108963500Y-114252122D01*
X108963479Y-114255103D01*
X108958835Y-114296511D01*
X108946235Y-114336229D01*
X108926162Y-114372742D01*
X108899378Y-114404662D01*
X108866905Y-114430771D01*
X108862891Y-114432869D01*
X108850475Y-114441787D01*
X108840918Y-114453960D01*
X108835130Y-114468314D01*
X108833570Y-114483712D01*
X108836362Y-114498934D01*
X108843285Y-114512777D01*
X108853789Y-114524142D01*
X108867044Y-114532131D01*
X108888526Y-114536500D01*
X108963500Y-114536500D01*
X108963500Y-114611906D01*
X108965677Y-114627229D01*
X108972038Y-114641338D01*
X108982077Y-114653117D01*
X108995000Y-114661633D01*
X109009784Y-114666211D01*
X109025258Y-114666489D01*
X109040197Y-114662446D01*
X109053418Y-114654400D01*
X109066786Y-114638180D01*
X109070878Y-114630612D01*
X109097439Y-114598507D01*
X109129729Y-114572171D01*
X109166519Y-114552609D01*
X109206409Y-114540566D01*
X109247878Y-114536500D01*
X109702151Y-114536500D01*
X109702877Y-114536505D01*
X109702880Y-114536505D01*
X109705103Y-114536521D01*
X109746511Y-114541165D01*
X109786229Y-114553765D01*
X109822742Y-114573838D01*
X109854662Y-114600622D01*
X109880771Y-114633095D01*
X109900076Y-114670021D01*
X109911840Y-114709994D01*
X109911843Y-114710028D01*
X109911847Y-114710041D01*
X109915618Y-114751488D01*
X109911268Y-114792880D01*
X109911265Y-114792889D01*
X109911261Y-114792930D01*
X109898940Y-114832735D01*
X109879122Y-114869388D01*
X109852561Y-114901493D01*
X109820271Y-114927829D01*
X109783481Y-114947391D01*
X109781348Y-114948035D01*
X109768514Y-114953989D01*
X109756844Y-114964155D01*
X109748469Y-114977169D01*
X109744051Y-114992002D01*
X109743940Y-115007478D01*
X109748145Y-115022373D01*
X109756333Y-115035506D01*
X109767856Y-115045838D01*
X109780652Y-115051996D01*
X109786229Y-115053765D01*
X109822742Y-115073838D01*
X109854662Y-115100622D01*
X109880771Y-115133095D01*
X109900076Y-115170021D01*
X109911840Y-115209994D01*
X109911843Y-115210028D01*
X109911847Y-115210041D01*
X109915618Y-115251488D01*
X109911268Y-115292880D01*
X109911265Y-115292889D01*
X109911261Y-115292930D01*
X109898940Y-115332735D01*
X109879122Y-115369388D01*
X109852561Y-115401493D01*
X109820271Y-115427829D01*
X109783481Y-115447391D01*
X109781348Y-115448035D01*
X109768514Y-115453989D01*
X109756844Y-115464155D01*
X109748469Y-115477169D01*
X109744051Y-115492002D01*
X109743940Y-115507478D01*
X109748145Y-115522373D01*
X109756333Y-115535506D01*
X109767856Y-115545838D01*
X109780652Y-115551996D01*
X109786229Y-115553765D01*
X109822742Y-115573838D01*
X109854662Y-115600622D01*
X109880771Y-115633095D01*
X109900076Y-115670021D01*
X109911840Y-115709994D01*
X109911843Y-115710028D01*
X109911847Y-115710041D01*
X109915618Y-115751488D01*
X109911268Y-115792880D01*
X109911265Y-115792889D01*
X109911261Y-115792930D01*
X109898940Y-115832735D01*
X109879122Y-115869388D01*
X109852561Y-115901493D01*
X109820271Y-115927829D01*
X109783481Y-115947391D01*
X109781348Y-115948035D01*
X109768514Y-115953989D01*
X109756844Y-115964155D01*
X109748469Y-115977169D01*
X109744051Y-115992002D01*
X109743940Y-116007478D01*
X109748145Y-116022373D01*
X109756333Y-116035506D01*
X109767856Y-116045838D01*
X109780652Y-116051996D01*
X109786229Y-116053765D01*
X109822742Y-116073838D01*
X109854662Y-116100622D01*
X109880771Y-116133095D01*
X109900076Y-116170021D01*
X109911840Y-116209994D01*
X109911843Y-116210028D01*
X109911847Y-116210041D01*
X109915618Y-116251488D01*
X109911268Y-116292880D01*
X109911265Y-116292889D01*
X109911261Y-116292930D01*
X109898940Y-116332735D01*
X109879122Y-116369388D01*
X109852561Y-116401493D01*
X109820271Y-116427829D01*
X109783481Y-116447391D01*
X109743591Y-116459434D01*
X109702122Y-116463500D01*
X109247849Y-116463500D01*
X109247123Y-116463495D01*
X109247120Y-116463495D01*
X109244897Y-116463479D01*
X109203489Y-116458835D01*
X109163771Y-116446235D01*
X109127258Y-116426162D01*
X109095338Y-116399378D01*
X109069229Y-116366905D01*
X109067131Y-116362891D01*
X109058213Y-116350475D01*
X109046040Y-116340918D01*
X109031686Y-116335130D01*
X109016288Y-116333570D01*
X109001066Y-116336362D01*
X108987223Y-116343285D01*
X108975858Y-116353789D01*
X108967869Y-116367044D01*
X108963500Y-116388526D01*
X108963500Y-116463500D01*
X108888094Y-116463500D01*
X108872771Y-116465677D01*
X108858662Y-116472038D01*
X108846883Y-116482077D01*
X108838367Y-116495000D01*
X108833789Y-116509784D01*
X108833511Y-116525258D01*
X108837554Y-116540197D01*
X108845600Y-116553418D01*
X108861820Y-116566786D01*
X108869388Y-116570878D01*
X108901493Y-116597439D01*
X108927829Y-116629729D01*
X108947391Y-116666519D01*
X108959434Y-116706409D01*
X108963500Y-116747878D01*
X108963500Y-117202122D01*
X108963479Y-117205103D01*
X108958835Y-117246511D01*
X108946235Y-117286229D01*
X108926162Y-117322742D01*
X108899378Y-117354662D01*
X108866905Y-117380771D01*
X108829979Y-117400076D01*
X108790006Y-117411840D01*
X108789972Y-117411843D01*
X108789959Y-117411847D01*
X108748512Y-117415618D01*
X108707120Y-117411268D01*
X108707111Y-117411265D01*
X108707070Y-117411261D01*
X108667265Y-117398940D01*
X108630612Y-117379122D01*
X108598507Y-117352561D01*
X108572171Y-117320271D01*
X108552609Y-117283481D01*
X108551965Y-117281348D01*
X108546011Y-117268514D01*
X108535845Y-117256844D01*
X108522831Y-117248469D01*
X108507998Y-117244051D01*
X108492522Y-117243940D01*
X108477627Y-117248145D01*
X108464494Y-117256333D01*
X108454162Y-117267856D01*
X108448004Y-117280652D01*
X108446235Y-117286229D01*
X108426162Y-117322742D01*
X108399378Y-117354662D01*
X108366905Y-117380771D01*
X108329979Y-117400076D01*
X108290006Y-117411840D01*
X108289972Y-117411843D01*
X108289959Y-117411847D01*
X108248512Y-117415618D01*
X108207120Y-117411268D01*
X108207111Y-117411265D01*
X108207070Y-117411261D01*
X108167265Y-117398940D01*
X108130612Y-117379122D01*
X108098507Y-117352561D01*
X108072171Y-117320271D01*
X108052609Y-117283481D01*
X108051965Y-117281348D01*
X108046011Y-117268514D01*
X108035845Y-117256844D01*
X108022831Y-117248469D01*
X108007998Y-117244051D01*
X107992522Y-117243940D01*
X107977627Y-117248145D01*
X107964494Y-117256333D01*
X107954162Y-117267856D01*
X107948004Y-117280652D01*
X107946235Y-117286229D01*
X107926162Y-117322742D01*
X107899378Y-117354662D01*
X107866905Y-117380771D01*
X107829979Y-117400076D01*
X107790006Y-117411840D01*
X107789972Y-117411843D01*
X107789959Y-117411847D01*
X107748512Y-117415618D01*
X107707120Y-117411268D01*
X107707111Y-117411265D01*
X107707070Y-117411261D01*
X107667265Y-117398940D01*
X107630612Y-117379122D01*
X107598507Y-117352561D01*
X107572171Y-117320271D01*
X107552609Y-117283481D01*
X107551965Y-117281348D01*
X107546011Y-117268514D01*
X107535845Y-117256844D01*
X107522831Y-117248469D01*
X107507998Y-117244051D01*
X107492522Y-117243940D01*
X107477627Y-117248145D01*
X107464494Y-117256333D01*
X107454162Y-117267856D01*
X107448004Y-117280652D01*
X107446235Y-117286229D01*
X107426162Y-117322742D01*
X107399378Y-117354662D01*
X107366905Y-117380771D01*
X107329979Y-117400076D01*
X107290006Y-117411840D01*
X107289972Y-117411843D01*
X107289959Y-117411847D01*
X107248512Y-117415618D01*
X107207120Y-117411268D01*
X107207111Y-117411265D01*
X107207070Y-117411261D01*
X107167265Y-117398940D01*
X107130612Y-117379122D01*
X107098507Y-117352561D01*
X107072171Y-117320271D01*
X107052609Y-117283481D01*
X107040566Y-117243591D01*
X107036500Y-117202122D01*
X107036500Y-116747878D01*
X107036521Y-116744897D01*
X107041165Y-116703489D01*
X107053765Y-116663771D01*
X107073838Y-116627258D01*
X107100622Y-116595338D01*
X107133095Y-116569229D01*
X107137109Y-116567131D01*
X107149525Y-116558213D01*
X107159082Y-116546040D01*
X107164870Y-116531686D01*
X107165521Y-116525258D01*
X107333511Y-116525258D01*
X107337554Y-116540197D01*
X107345600Y-116553418D01*
X107361820Y-116566786D01*
X107369388Y-116570878D01*
X107401493Y-116597439D01*
X107427829Y-116629729D01*
X107447391Y-116666519D01*
X107448035Y-116668652D01*
X107453989Y-116681486D01*
X107464155Y-116693156D01*
X107477169Y-116701531D01*
X107492002Y-116705949D01*
X107507478Y-116706060D01*
X107522373Y-116701855D01*
X107535506Y-116693667D01*
X107545838Y-116682144D01*
X107551996Y-116669348D01*
X107553765Y-116663771D01*
X107573838Y-116627258D01*
X107600622Y-116595338D01*
X107633095Y-116569229D01*
X107637109Y-116567131D01*
X107649525Y-116558213D01*
X107659082Y-116546040D01*
X107664870Y-116531686D01*
X107665521Y-116525258D01*
X107833511Y-116525258D01*
X107837554Y-116540197D01*
X107845600Y-116553418D01*
X107861820Y-116566786D01*
X107869388Y-116570878D01*
X107901493Y-116597439D01*
X107927829Y-116629729D01*
X107947391Y-116666519D01*
X107948035Y-116668652D01*
X107953989Y-116681486D01*
X107964155Y-116693156D01*
X107977169Y-116701531D01*
X107992002Y-116705949D01*
X108007478Y-116706060D01*
X108022373Y-116701855D01*
X108035506Y-116693667D01*
X108045838Y-116682144D01*
X108051996Y-116669348D01*
X108053765Y-116663771D01*
X108073838Y-116627258D01*
X108100622Y-116595338D01*
X108133095Y-116569229D01*
X108137109Y-116567131D01*
X108149525Y-116558213D01*
X108159082Y-116546040D01*
X108164870Y-116531686D01*
X108165521Y-116525258D01*
X108333511Y-116525258D01*
X108337554Y-116540197D01*
X108345600Y-116553418D01*
X108361820Y-116566786D01*
X108369388Y-116570878D01*
X108401493Y-116597439D01*
X108427829Y-116629729D01*
X108447391Y-116666519D01*
X108448035Y-116668652D01*
X108453989Y-116681486D01*
X108464155Y-116693156D01*
X108477169Y-116701531D01*
X108492002Y-116705949D01*
X108507478Y-116706060D01*
X108522373Y-116701855D01*
X108535506Y-116693667D01*
X108545838Y-116682144D01*
X108551996Y-116669348D01*
X108553765Y-116663771D01*
X108573838Y-116627258D01*
X108600622Y-116595338D01*
X108633095Y-116569229D01*
X108637109Y-116567131D01*
X108649525Y-116558213D01*
X108659082Y-116546040D01*
X108664870Y-116531686D01*
X108666430Y-116516288D01*
X108663638Y-116501066D01*
X108656715Y-116487223D01*
X108646211Y-116475858D01*
X108632956Y-116467869D01*
X108611474Y-116463500D01*
X108388094Y-116463500D01*
X108372771Y-116465677D01*
X108358662Y-116472038D01*
X108346883Y-116482077D01*
X108338367Y-116495000D01*
X108333789Y-116509784D01*
X108333511Y-116525258D01*
X108165521Y-116525258D01*
X108166430Y-116516288D01*
X108163638Y-116501066D01*
X108156715Y-116487223D01*
X108146211Y-116475858D01*
X108132956Y-116467869D01*
X108111474Y-116463500D01*
X107888094Y-116463500D01*
X107872771Y-116465677D01*
X107858662Y-116472038D01*
X107846883Y-116482077D01*
X107838367Y-116495000D01*
X107833789Y-116509784D01*
X107833511Y-116525258D01*
X107665521Y-116525258D01*
X107666430Y-116516288D01*
X107663638Y-116501066D01*
X107656715Y-116487223D01*
X107646211Y-116475858D01*
X107632956Y-116467869D01*
X107611474Y-116463500D01*
X107388094Y-116463500D01*
X107372771Y-116465677D01*
X107358662Y-116472038D01*
X107346883Y-116482077D01*
X107338367Y-116495000D01*
X107333789Y-116509784D01*
X107333511Y-116525258D01*
X107165521Y-116525258D01*
X107166430Y-116516288D01*
X107163638Y-116501066D01*
X107156715Y-116487223D01*
X107146211Y-116475858D01*
X107132956Y-116467869D01*
X107111474Y-116463500D01*
X107036500Y-116463500D01*
X107036500Y-116388094D01*
X107034323Y-116372771D01*
X107027962Y-116358662D01*
X107017923Y-116346883D01*
X107005000Y-116338367D01*
X106990216Y-116333789D01*
X106974742Y-116333511D01*
X106959803Y-116337554D01*
X106946582Y-116345600D01*
X106933214Y-116361820D01*
X106929122Y-116369388D01*
X106902561Y-116401493D01*
X106870271Y-116427829D01*
X106833481Y-116447391D01*
X106793591Y-116459434D01*
X106752122Y-116463500D01*
X106297849Y-116463500D01*
X106297123Y-116463495D01*
X106297120Y-116463495D01*
X106294897Y-116463479D01*
X106253489Y-116458835D01*
X106213771Y-116446235D01*
X106177258Y-116426162D01*
X106145338Y-116399378D01*
X106119229Y-116366905D01*
X106099924Y-116329979D01*
X106088160Y-116290006D01*
X106088157Y-116289972D01*
X106088153Y-116289959D01*
X106084382Y-116248512D01*
X106088732Y-116207120D01*
X106088735Y-116207111D01*
X106088739Y-116207070D01*
X106101060Y-116167265D01*
X106120878Y-116130612D01*
X106147439Y-116098507D01*
X106179729Y-116072171D01*
X106216519Y-116052609D01*
X106218652Y-116051965D01*
X106231486Y-116046011D01*
X106243156Y-116035845D01*
X106251531Y-116022831D01*
X106255949Y-116007998D01*
X106255952Y-116007478D01*
X106793940Y-116007478D01*
X106798145Y-116022373D01*
X106806333Y-116035506D01*
X106817856Y-116045838D01*
X106830652Y-116051996D01*
X106836229Y-116053765D01*
X106872742Y-116073838D01*
X106904662Y-116100622D01*
X106930771Y-116133095D01*
X106932869Y-116137109D01*
X106941787Y-116149525D01*
X106953960Y-116159082D01*
X106968314Y-116164870D01*
X106983712Y-116166430D01*
X106998934Y-116163638D01*
X107012777Y-116156715D01*
X107024142Y-116146211D01*
X107032131Y-116132956D01*
X107036500Y-116111474D01*
X107036500Y-115888526D01*
X108963500Y-115888526D01*
X108963500Y-116111906D01*
X108965677Y-116127229D01*
X108972038Y-116141338D01*
X108982077Y-116153117D01*
X108995000Y-116161633D01*
X109009784Y-116166211D01*
X109025258Y-116166489D01*
X109040197Y-116162446D01*
X109053418Y-116154400D01*
X109066786Y-116138180D01*
X109070878Y-116130612D01*
X109097439Y-116098507D01*
X109129729Y-116072171D01*
X109166519Y-116052609D01*
X109168652Y-116051965D01*
X109181486Y-116046011D01*
X109193156Y-116035845D01*
X109201531Y-116022831D01*
X109205949Y-116007998D01*
X109206060Y-115992522D01*
X109201855Y-115977627D01*
X109193667Y-115964494D01*
X109182144Y-115954162D01*
X109169348Y-115948004D01*
X109163771Y-115946235D01*
X109127258Y-115926162D01*
X109095338Y-115899378D01*
X109069229Y-115866905D01*
X109067131Y-115862891D01*
X109058213Y-115850475D01*
X109046040Y-115840918D01*
X109031686Y-115835130D01*
X109016288Y-115833570D01*
X109001066Y-115836362D01*
X108987223Y-115843285D01*
X108975858Y-115853789D01*
X108967869Y-115867044D01*
X108963500Y-115888526D01*
X107036500Y-115888526D01*
X107036500Y-115888094D01*
X107034323Y-115872771D01*
X107027962Y-115858662D01*
X107017923Y-115846883D01*
X107005000Y-115838367D01*
X106990216Y-115833789D01*
X106974742Y-115833511D01*
X106959803Y-115837554D01*
X106946582Y-115845600D01*
X106933214Y-115861820D01*
X106929122Y-115869388D01*
X106902561Y-115901493D01*
X106870271Y-115927829D01*
X106833481Y-115947391D01*
X106831348Y-115948035D01*
X106818514Y-115953989D01*
X106806844Y-115964155D01*
X106798469Y-115977169D01*
X106794051Y-115992002D01*
X106793940Y-116007478D01*
X106255952Y-116007478D01*
X106256060Y-115992522D01*
X106251855Y-115977627D01*
X106243667Y-115964494D01*
X106232144Y-115954162D01*
X106219348Y-115948004D01*
X106213771Y-115946235D01*
X106177258Y-115926162D01*
X106145338Y-115899378D01*
X106119229Y-115866905D01*
X106099924Y-115829979D01*
X106088160Y-115790006D01*
X106088157Y-115789972D01*
X106088153Y-115789959D01*
X106084382Y-115748512D01*
X106088732Y-115707120D01*
X106088735Y-115707111D01*
X106088739Y-115707070D01*
X106101060Y-115667265D01*
X106120878Y-115630612D01*
X106147439Y-115598507D01*
X106179729Y-115572171D01*
X106216519Y-115552609D01*
X106218652Y-115551965D01*
X106231486Y-115546011D01*
X106243156Y-115535845D01*
X106251531Y-115522831D01*
X106255949Y-115507998D01*
X106255952Y-115507478D01*
X106793940Y-115507478D01*
X106798145Y-115522373D01*
X106806333Y-115535506D01*
X106817856Y-115545838D01*
X106830652Y-115551996D01*
X106836229Y-115553765D01*
X106872742Y-115573838D01*
X106904662Y-115600622D01*
X106930771Y-115633095D01*
X106932869Y-115637109D01*
X106941787Y-115649525D01*
X106953960Y-115659082D01*
X106968314Y-115664870D01*
X106983712Y-115666430D01*
X106998934Y-115663638D01*
X107012777Y-115656715D01*
X107024142Y-115646211D01*
X107032131Y-115632956D01*
X107036500Y-115611474D01*
X107036500Y-115388526D01*
X108963500Y-115388526D01*
X108963500Y-115611906D01*
X108965677Y-115627229D01*
X108972038Y-115641338D01*
X108982077Y-115653117D01*
X108995000Y-115661633D01*
X109009784Y-115666211D01*
X109025258Y-115666489D01*
X109040197Y-115662446D01*
X109053418Y-115654400D01*
X109066786Y-115638180D01*
X109070878Y-115630612D01*
X109097439Y-115598507D01*
X109129729Y-115572171D01*
X109166519Y-115552609D01*
X109168652Y-115551965D01*
X109181486Y-115546011D01*
X109193156Y-115535845D01*
X109201531Y-115522831D01*
X109205949Y-115507998D01*
X109206060Y-115492522D01*
X109201855Y-115477627D01*
X109193667Y-115464494D01*
X109182144Y-115454162D01*
X109169348Y-115448004D01*
X109163771Y-115446235D01*
X109127258Y-115426162D01*
X109095338Y-115399378D01*
X109069229Y-115366905D01*
X109067131Y-115362891D01*
X109058213Y-115350475D01*
X109046040Y-115340918D01*
X109031686Y-115335130D01*
X109016288Y-115333570D01*
X109001066Y-115336362D01*
X108987223Y-115343285D01*
X108975858Y-115353789D01*
X108967869Y-115367044D01*
X108963500Y-115388526D01*
X107036500Y-115388526D01*
X107036500Y-115388094D01*
X107034323Y-115372771D01*
X107027962Y-115358662D01*
X107017923Y-115346883D01*
X107005000Y-115338367D01*
X106990216Y-115333789D01*
X106974742Y-115333511D01*
X106959803Y-115337554D01*
X106946582Y-115345600D01*
X106933214Y-115361820D01*
X106929122Y-115369388D01*
X106902561Y-115401493D01*
X106870271Y-115427829D01*
X106833481Y-115447391D01*
X106831348Y-115448035D01*
X106818514Y-115453989D01*
X106806844Y-115464155D01*
X106798469Y-115477169D01*
X106794051Y-115492002D01*
X106793940Y-115507478D01*
X106255952Y-115507478D01*
X106256060Y-115492522D01*
X106251855Y-115477627D01*
X106243667Y-115464494D01*
X106232144Y-115454162D01*
X106219348Y-115448004D01*
X106213771Y-115446235D01*
X106177258Y-115426162D01*
X106145338Y-115399378D01*
X106119229Y-115366905D01*
X106099924Y-115329979D01*
X106088160Y-115290006D01*
X106088157Y-115289972D01*
X106088153Y-115289959D01*
X106084382Y-115248512D01*
X106088732Y-115207120D01*
X106088735Y-115207111D01*
X106088739Y-115207070D01*
X106101060Y-115167265D01*
X106120878Y-115130612D01*
X106147439Y-115098507D01*
X106179729Y-115072171D01*
X106216519Y-115052609D01*
X106218652Y-115051965D01*
X106231486Y-115046011D01*
X106243156Y-115035845D01*
X106251531Y-115022831D01*
X106255949Y-115007998D01*
X106255952Y-115007478D01*
X106793940Y-115007478D01*
X106798145Y-115022373D01*
X106806333Y-115035506D01*
X106817856Y-115045838D01*
X106830652Y-115051996D01*
X106836229Y-115053765D01*
X106872742Y-115073838D01*
X106904662Y-115100622D01*
X106930771Y-115133095D01*
X106932869Y-115137109D01*
X106941787Y-115149525D01*
X106953960Y-115159082D01*
X106968314Y-115164870D01*
X106983712Y-115166430D01*
X106998934Y-115163638D01*
X107012777Y-115156715D01*
X107024142Y-115146211D01*
X107032131Y-115132956D01*
X107036500Y-115111474D01*
X107036500Y-114888526D01*
X108963500Y-114888526D01*
X108963500Y-115111906D01*
X108965677Y-115127229D01*
X108972038Y-115141338D01*
X108982077Y-115153117D01*
X108995000Y-115161633D01*
X109009784Y-115166211D01*
X109025258Y-115166489D01*
X109040197Y-115162446D01*
X109053418Y-115154400D01*
X109066786Y-115138180D01*
X109070878Y-115130612D01*
X109097439Y-115098507D01*
X109129729Y-115072171D01*
X109166519Y-115052609D01*
X109168652Y-115051965D01*
X109181486Y-115046011D01*
X109193156Y-115035845D01*
X109201531Y-115022831D01*
X109205949Y-115007998D01*
X109206060Y-114992522D01*
X109201855Y-114977627D01*
X109193667Y-114964494D01*
X109182144Y-114954162D01*
X109169348Y-114948004D01*
X109163771Y-114946235D01*
X109127258Y-114926162D01*
X109095338Y-114899378D01*
X109069229Y-114866905D01*
X109067131Y-114862891D01*
X109058213Y-114850475D01*
X109046040Y-114840918D01*
X109031686Y-114835130D01*
X109016288Y-114833570D01*
X109001066Y-114836362D01*
X108987223Y-114843285D01*
X108975858Y-114853789D01*
X108967869Y-114867044D01*
X108963500Y-114888526D01*
X107036500Y-114888526D01*
X107036500Y-114888094D01*
X107034323Y-114872771D01*
X107027962Y-114858662D01*
X107017923Y-114846883D01*
X107005000Y-114838367D01*
X106990216Y-114833789D01*
X106974742Y-114833511D01*
X106959803Y-114837554D01*
X106946582Y-114845600D01*
X106933214Y-114861820D01*
X106929122Y-114869388D01*
X106902561Y-114901493D01*
X106870271Y-114927829D01*
X106833481Y-114947391D01*
X106831348Y-114948035D01*
X106818514Y-114953989D01*
X106806844Y-114964155D01*
X106798469Y-114977169D01*
X106794051Y-114992002D01*
X106793940Y-115007478D01*
X106255952Y-115007478D01*
X106256060Y-114992522D01*
X106251855Y-114977627D01*
X106243667Y-114964494D01*
X106232144Y-114954162D01*
X106219348Y-114948004D01*
X106213771Y-114946235D01*
X106177258Y-114926162D01*
X106145338Y-114899378D01*
X106119229Y-114866905D01*
X106099924Y-114829979D01*
X106088160Y-114790006D01*
X106088157Y-114789972D01*
X106088153Y-114789959D01*
X106084382Y-114748512D01*
X106088732Y-114707120D01*
X106088735Y-114707111D01*
X106088739Y-114707070D01*
X106101060Y-114667265D01*
X106120878Y-114630612D01*
X106147439Y-114598507D01*
X106179729Y-114572171D01*
X106216519Y-114552609D01*
X106256409Y-114540566D01*
X106297878Y-114536500D01*
X106752151Y-114536500D01*
X106752877Y-114536505D01*
X106752880Y-114536505D01*
X106755103Y-114536521D01*
X106796511Y-114541165D01*
X106836229Y-114553765D01*
X106872742Y-114573838D01*
X106904662Y-114600622D01*
X106930771Y-114633095D01*
X106932869Y-114637109D01*
X106941787Y-114649525D01*
X106953960Y-114659082D01*
X106968314Y-114664870D01*
X106983712Y-114666430D01*
X106998934Y-114663638D01*
X107012777Y-114656715D01*
X107024142Y-114646211D01*
X107032131Y-114632956D01*
X107036500Y-114611474D01*
X107036500Y-114536500D01*
X107111906Y-114536500D01*
X107127229Y-114534323D01*
X107141338Y-114527962D01*
X107153117Y-114517923D01*
X107161633Y-114505000D01*
X107166211Y-114490216D01*
X107166327Y-114483712D01*
X107333570Y-114483712D01*
X107336362Y-114498934D01*
X107343285Y-114512777D01*
X107353789Y-114524142D01*
X107367044Y-114532131D01*
X107388526Y-114536500D01*
X107611906Y-114536500D01*
X107627229Y-114534323D01*
X107641338Y-114527962D01*
X107653117Y-114517923D01*
X107661633Y-114505000D01*
X107666211Y-114490216D01*
X107666327Y-114483712D01*
X107833570Y-114483712D01*
X107836362Y-114498934D01*
X107843285Y-114512777D01*
X107853789Y-114524142D01*
X107867044Y-114532131D01*
X107888526Y-114536500D01*
X108111906Y-114536500D01*
X108127229Y-114534323D01*
X108141338Y-114527962D01*
X108153117Y-114517923D01*
X108161633Y-114505000D01*
X108166211Y-114490216D01*
X108166327Y-114483712D01*
X108333570Y-114483712D01*
X108336362Y-114498934D01*
X108343285Y-114512777D01*
X108353789Y-114524142D01*
X108367044Y-114532131D01*
X108388526Y-114536500D01*
X108611906Y-114536500D01*
X108627229Y-114534323D01*
X108641338Y-114527962D01*
X108653117Y-114517923D01*
X108661633Y-114505000D01*
X108666211Y-114490216D01*
X108666489Y-114474742D01*
X108662446Y-114459803D01*
X108654400Y-114446582D01*
X108638180Y-114433214D01*
X108630612Y-114429122D01*
X108598507Y-114402561D01*
X108572171Y-114370271D01*
X108552609Y-114333481D01*
X108551965Y-114331348D01*
X108546011Y-114318514D01*
X108535845Y-114306844D01*
X108522831Y-114298469D01*
X108507998Y-114294051D01*
X108492522Y-114293940D01*
X108477627Y-114298145D01*
X108464494Y-114306333D01*
X108454162Y-114317856D01*
X108448004Y-114330652D01*
X108446235Y-114336229D01*
X108426162Y-114372742D01*
X108399378Y-114404662D01*
X108366905Y-114430771D01*
X108362891Y-114432869D01*
X108350475Y-114441787D01*
X108340918Y-114453960D01*
X108335130Y-114468314D01*
X108333570Y-114483712D01*
X108166327Y-114483712D01*
X108166489Y-114474742D01*
X108162446Y-114459803D01*
X108154400Y-114446582D01*
X108138180Y-114433214D01*
X108130612Y-114429122D01*
X108098507Y-114402561D01*
X108072171Y-114370271D01*
X108052609Y-114333481D01*
X108051965Y-114331348D01*
X108046011Y-114318514D01*
X108035845Y-114306844D01*
X108022831Y-114298469D01*
X108007998Y-114294051D01*
X107992522Y-114293940D01*
X107977627Y-114298145D01*
X107964494Y-114306333D01*
X107954162Y-114317856D01*
X107948004Y-114330652D01*
X107946235Y-114336229D01*
X107926162Y-114372742D01*
X107899378Y-114404662D01*
X107866905Y-114430771D01*
X107862891Y-114432869D01*
X107850475Y-114441787D01*
X107840918Y-114453960D01*
X107835130Y-114468314D01*
X107833570Y-114483712D01*
X107666327Y-114483712D01*
X107666489Y-114474742D01*
X107662446Y-114459803D01*
X107654400Y-114446582D01*
X107638180Y-114433214D01*
X107630612Y-114429122D01*
X107598507Y-114402561D01*
X107572171Y-114370271D01*
X107552609Y-114333481D01*
X107551965Y-114331348D01*
X107546011Y-114318514D01*
X107535845Y-114306844D01*
X107522831Y-114298469D01*
X107507998Y-114294051D01*
X107492522Y-114293940D01*
X107477627Y-114298145D01*
X107464494Y-114306333D01*
X107454162Y-114317856D01*
X107448004Y-114330652D01*
X107446235Y-114336229D01*
X107426162Y-114372742D01*
X107399378Y-114404662D01*
X107366905Y-114430771D01*
X107362891Y-114432869D01*
X107350475Y-114441787D01*
X107340918Y-114453960D01*
X107335130Y-114468314D01*
X107333570Y-114483712D01*
X107166327Y-114483712D01*
X107166489Y-114474742D01*
X107162446Y-114459803D01*
X107154400Y-114446582D01*
X107138180Y-114433214D01*
X107130612Y-114429122D01*
X107098507Y-114402561D01*
X107072171Y-114370271D01*
X107052609Y-114333481D01*
X107040566Y-114293591D01*
X107036500Y-114252122D01*
X107036500Y-113797878D01*
X107036521Y-113794897D01*
X107041165Y-113753489D01*
X107053765Y-113713771D01*
X107073838Y-113677258D01*
X107100622Y-113645338D01*
X107133095Y-113619229D01*
X107170021Y-113599924D01*
X107209994Y-113588160D01*
X107210028Y-113588157D01*
X107210041Y-113588153D01*
X107251488Y-113584382D01*
X107292880Y-113588732D01*
X107292889Y-113588735D01*
X107292930Y-113588739D01*
X107332735Y-113601060D01*
X107369388Y-113620878D01*
X107401493Y-113647439D01*
X107427829Y-113679729D01*
X107447391Y-113716519D01*
X107448035Y-113718652D01*
X107453989Y-113731486D01*
X107464155Y-113743156D01*
X107477169Y-113751531D01*
X107492002Y-113755949D01*
X107507478Y-113756060D01*
X107522373Y-113751855D01*
X107535506Y-113743667D01*
X107545838Y-113732144D01*
X107551996Y-113719348D01*
X107553765Y-113713771D01*
X107573838Y-113677258D01*
X107600622Y-113645338D01*
X107633095Y-113619229D01*
X107670021Y-113599924D01*
X107709994Y-113588160D01*
X107710028Y-113588157D01*
X107710041Y-113588153D01*
X107751488Y-113584382D01*
X107792880Y-113588732D01*
X107792889Y-113588735D01*
X107792930Y-113588739D01*
X107832735Y-113601060D01*
X107869388Y-113620878D01*
X107901493Y-113647439D01*
X107927829Y-113679729D01*
X107947391Y-113716519D01*
X107948035Y-113718652D01*
X107953989Y-113731486D01*
X107964155Y-113743156D01*
X107977169Y-113751531D01*
X107992002Y-113755949D01*
X108007478Y-113756060D01*
X108022373Y-113751855D01*
X108035506Y-113743667D01*
X108045838Y-113732144D01*
X108051996Y-113719348D01*
X108053765Y-113713771D01*
X108073838Y-113677258D01*
X108100622Y-113645338D01*
X108133095Y-113619229D01*
X108170021Y-113599924D01*
X108209994Y-113588160D01*
X108210028Y-113588157D01*
X108210041Y-113588153D01*
X108251488Y-113584382D01*
X108292880Y-113588732D01*
X108292889Y-113588735D01*
X108292930Y-113588739D01*
X108332735Y-113601060D01*
X108369388Y-113620878D01*
X108401493Y-113647439D01*
X108427829Y-113679729D01*
X108447391Y-113716519D01*
X108448035Y-113718652D01*
X108453989Y-113731486D01*
X108464155Y-113743156D01*
X108477169Y-113751531D01*
X108492002Y-113755949D01*
X108507478Y-113756060D01*
X108522373Y-113751855D01*
X108535506Y-113743667D01*
X108545838Y-113732144D01*
X108551996Y-113719348D01*
X108553765Y-113713771D01*
X108573838Y-113677258D01*
X108600622Y-113645338D01*
X108633095Y-113619229D01*
X108670021Y-113599924D01*
X108709994Y-113588160D01*
X108710028Y-113588157D01*
X108710041Y-113588153D01*
X108751488Y-113584382D01*
X108792880Y-113588732D01*
X108792880Y-113588732D01*
G37*
G36*
X113813500Y-117204300D02*
X113086500Y-117204300D01*
X113086500Y-116577300D01*
X113813500Y-116577300D01*
X113813500Y-117204300D01*
X113813500Y-117204300D01*
G37*
G36*
X114913500Y-117204300D02*
X114186500Y-117204300D01*
X114186500Y-116577300D01*
X114913500Y-116577300D01*
X114913500Y-117204300D01*
X114913500Y-117204300D01*
G37*
G36*
X117013500Y-117076000D02*
X116186500Y-117076000D01*
X116186500Y-116699000D01*
X117013500Y-116699000D01*
X117013500Y-117076000D01*
X117013500Y-117076000D01*
G37*
G36*
X121813500Y-117076000D02*
X120986500Y-117076000D01*
X120986500Y-116699000D01*
X121813500Y-116699000D01*
X121813500Y-117076000D01*
X121813500Y-117076000D01*
G37*
G36*
X117013500Y-116576000D02*
X116186500Y-116576000D01*
X116186500Y-116199000D01*
X117013500Y-116199000D01*
X117013500Y-116576000D01*
X117013500Y-116576000D01*
G37*
G36*
X121813500Y-116576000D02*
X120986500Y-116576000D01*
X120986500Y-116199000D01*
X121813500Y-116199000D01*
X121813500Y-116576000D01*
X121813500Y-116576000D01*
G37*
G36*
X128813500Y-116488500D02*
X125686500Y-116488500D01*
X125686500Y-115511500D01*
X128813500Y-115511500D01*
X128813500Y-116488500D01*
X128813500Y-116488500D01*
G37*
G36*
X121813500Y-116076000D02*
X120986500Y-116076000D01*
X120986500Y-115699000D01*
X121813500Y-115699000D01*
X121813500Y-116076000D01*
X121813500Y-116076000D01*
G37*
G36*
X117013500Y-116076000D02*
X116186500Y-116076000D01*
X116186500Y-115699000D01*
X117013500Y-115699000D01*
X117013500Y-116076000D01*
X117013500Y-116076000D01*
G37*
G36*
X117013500Y-115576000D02*
X116186500Y-115576000D01*
X116186500Y-115199000D01*
X117013500Y-115199000D01*
X117013500Y-115576000D01*
X117013500Y-115576000D01*
G37*
G36*
X121813500Y-115576000D02*
X120986500Y-115576000D01*
X120986500Y-115199000D01*
X121813500Y-115199000D01*
X121813500Y-115576000D01*
X121813500Y-115576000D01*
G37*
G36*
X99913500Y-115373500D02*
X98086500Y-115373500D01*
X98086500Y-113546500D01*
X99913500Y-113546500D01*
X99913500Y-115373500D01*
X99913500Y-115373500D01*
G37*
G36*
X121813500Y-115076000D02*
X120986500Y-115076000D01*
X120986500Y-114699000D01*
X121813500Y-114699000D01*
X121813500Y-115076000D01*
X121813500Y-115076000D01*
G37*
G36*
X117013500Y-115076000D02*
X116186500Y-115076000D01*
X116186500Y-114699000D01*
X117013500Y-114699000D01*
X117013500Y-115076000D01*
X117013500Y-115076000D01*
G37*
G36*
X121813500Y-114576000D02*
X120986500Y-114576000D01*
X120986500Y-114199000D01*
X121813500Y-114199000D01*
X121813500Y-114576000D01*
X121813500Y-114576000D01*
G37*
G36*
X117013500Y-114576000D02*
X116186500Y-114576000D01*
X116186500Y-114199000D01*
X117013500Y-114199000D01*
X117013500Y-114576000D01*
X117013500Y-114576000D01*
G37*
G36*
X128813500Y-114088500D02*
X124186500Y-114088500D01*
X124186500Y-111961500D01*
X128813500Y-111961500D01*
X128813500Y-114088500D01*
X128813500Y-114088500D01*
G37*
G36*
X117013500Y-113706000D02*
X117013500Y-114076000D01*
X116186500Y-114076000D01*
X116186500Y-113699000D01*
X117006500Y-113699000D01*
X117014145Y-113697914D01*
X117013500Y-113706000D01*
X117013500Y-113706000D01*
G37*
G36*
X120993500Y-113699000D02*
X121813500Y-113699000D01*
X121813500Y-114076000D01*
X120986500Y-114076000D01*
X120986500Y-113706000D01*
X120985414Y-113698355D01*
X120993500Y-113699000D01*
X120993500Y-113699000D01*
G37*
G36*
X117438500Y-113651000D02*
X117068500Y-113651000D01*
X117060855Y-113652086D01*
X117061500Y-113644000D01*
X117061500Y-112824000D01*
X117438500Y-112824000D01*
X117438500Y-113651000D01*
X117438500Y-113651000D01*
G37*
G36*
X120938500Y-113644000D02*
X120939586Y-113651645D01*
X120931500Y-113651000D01*
X120561500Y-113651000D01*
X120561500Y-112824000D01*
X120938500Y-112824000D01*
X120938500Y-113644000D01*
X120938500Y-113644000D01*
G37*
G36*
X119438500Y-113651000D02*
X119061500Y-113651000D01*
X119061500Y-112824000D01*
X119438500Y-112824000D01*
X119438500Y-113651000D01*
X119438500Y-113651000D01*
G37*
G36*
X120438500Y-113651000D02*
X120061500Y-113651000D01*
X120061500Y-112824000D01*
X120438500Y-112824000D01*
X120438500Y-113651000D01*
X120438500Y-113651000D01*
G37*
G36*
X119938500Y-113651000D02*
X119561500Y-113651000D01*
X119561500Y-112824000D01*
X119938500Y-112824000D01*
X119938500Y-113651000D01*
X119938500Y-113651000D01*
G37*
G36*
X118938500Y-113651000D02*
X118561500Y-113651000D01*
X118561500Y-112824000D01*
X118938500Y-112824000D01*
X118938500Y-113651000D01*
X118938500Y-113651000D01*
G37*
G36*
X118438500Y-113651000D02*
X118061500Y-113651000D01*
X118061500Y-112824000D01*
X118438500Y-112824000D01*
X118438500Y-113651000D01*
X118438500Y-113651000D01*
G37*
G36*
X117938500Y-113651000D02*
X117561500Y-113651000D01*
X117561500Y-112824000D01*
X117938500Y-112824000D01*
X117938500Y-113651000D01*
X117938500Y-113651000D01*
G37*
M02*
