M48
;DRILL file {KiCad 4.0.6-e0-6349~53~ubuntu14.04.1} date Thu Apr 13 01:04:42 2017
;FORMAT={-:-/ absolute / inch / decimal}
FMAT,2
INCH,TZ
T1C0.010
T2C0.039
%
G90
G05
M72
T1
X3.8612Y-4.874
X3.8622Y-4.9409
X3.8622Y-5.4783
X3.8632Y-4.999
X3.8642Y-5.065
X3.8642Y-5.1329
X3.8642Y-5.2451
X3.8642Y-5.5236
X3.8642Y-5.5846
X3.8652Y-5.6506
X3.8652Y-5.7402
X3.8661Y-5.8022
X3.8661Y-5.8829
X3.8661Y-5.9498
X3.8671Y-6.0197
X3.8671Y-6.0787
X3.8681Y-6.1171
X3.8701Y-4.4085
X3.8711Y-4.3553
X3.8789Y-5.3642
X3.9134Y-5.4774
X3.9203Y-5.1339
X3.9252Y-6.1181
X3.9272Y-5.2461
X3.9478Y-5.3661
X3.9528Y-4.3543
X3.9724Y-5.4813
X3.9764Y-5.1339
X3.9892Y-5.2569
X3.9921Y-6.1181
X4.0118Y-5.3553
X4.0177Y-4.3543
X4.0217Y-5.4045
X4.0236Y-5.2313
X4.0246Y-5.1368
X4.0246Y-5.1762
X4.0246Y-5.4528
X4.0512Y-6.1191
X4.0551Y-5.2785
X4.0551Y-5.3307
X4.0748Y-5.2579
X4.0748Y-5.3524
X4.0886Y-4.3543
X4.0945Y-4.6467
X4.1073Y-6.1191
X4.1201Y-5.3839
X4.122Y-5.685
X4.123Y-5.7589
X4.124Y-4.878
X4.124Y-4.935
X4.124Y-4.9951
X4.124Y-5.622
X4.128Y-5.2283
X4.1348Y-5.3051
X4.1437Y-4.8179
X4.1526Y-5.0502
X4.1535Y-5.5591
X4.1535Y-5.8051
X4.1634Y-4.5768
X4.1654Y-6.1201
X4.1693Y-5.4006
X4.1722Y-4.3543
X4.1752Y-5.1033
X4.1752Y-5.1555
X4.1752Y-5.2096
X4.1762Y-5.4518
X4.1762Y-5.5049
X4.1811Y-4.6752
X4.189Y-4.7343
X4.1929Y-5.7933
X4.2126Y-4.7953
X4.2126Y-4.8898
X4.2126Y-5.7205
X4.2126Y-5.815
X4.2195Y-4.9734
X4.2215Y-5.6732
X4.2224Y-4.6358
X4.2244Y-6.1201
X4.2254Y-5.6309
X4.2264Y-5.3071
X4.2343Y-4.5295
X4.2343Y-4.565
X4.2421Y-4.6752
X4.249Y-5.3376
X4.2539Y-5.687
X4.2598Y-5.0167
X4.2618Y-4.4596
X4.2618Y-5.2638
X4.2697Y-4.5295
X4.2697Y-4.565
X4.2707Y-4.8425
X4.2707Y-4.9193
X4.2707Y-5.5787
X4.2717Y-4.6358
X4.2717Y-5.1929
X4.2717Y-5.5167
X4.2726Y-5.1368
X4.2726Y-5.4577
X4.2726Y-5.7677
X4.2736Y-5.3947
X4.2746Y-5.0787
X4.2776Y-5.8642
X4.2785Y-5.6693
X4.2795Y-5.9272
X4.2874Y-6.1201
X4.2923Y-4.9567
X4.2923Y-5.6211
X4.3189Y-5.0138
X4.3219Y-4.6751
X4.3258Y-5.9902
X4.3268Y-5.1319
X4.3268Y-5.247
X4.3278Y-5.186
X4.3317Y-5.5856
X4.3435Y-6.1201
X4.3573Y-4.6359
X4.3612Y-5.2766
X4.3661Y-5.0285
X4.372Y-5.5443
X4.3799Y-5.686
X4.3809Y-5.8583
X4.3819Y-4.9035
X4.3819Y-5.1112
X4.3829Y-4.814
X4.3888Y-4.7461
X4.3888Y-4.8642
X4.3917Y-5.8986
X4.3947Y-6.0472
X4.3986Y-4.5807
X4.4035Y-6.1211
X4.4045Y-5.7293
X4.4045Y-5.7972
X4.4055Y-5.063
X4.4134Y-5.4951
X4.4163Y-5.1614
X4.4203Y-5.2766
X4.4252Y-4.56
X4.4291Y-4.7805
X4.4291Y-4.8583
X4.4301Y-5.6722
X4.4301Y-5.9331
X4.4311Y-4.5207
X4.4311Y-4.7333
X4.4439Y-5.6289
X4.4488Y-4.936
X4.4498Y-5.1043
X4.4518Y-5.4685
X4.4518Y-5.8514
X4.4577Y-4.9764
X4.4587Y-4.5
X4.4636Y-5.6043
X4.4646Y-5.9665
X4.4646Y-6.0965
X4.4695Y-4.5522
X4.4724Y-4.6654
X4.4754Y-4.7549
X4.4803Y-5.6732
X4.4833Y-5.2746
X4.4843Y-4.4764
X4.4852Y-5.0059
X4.4931Y-5.1614
X4.4961Y-5.4035
X4.4961Y-5.5758
X4.501Y-4.9665
X4.5069Y-6.1201
X4.5089Y-5.4636
X4.5108Y-5.3278
X4.5118Y-4.5512
X4.5118Y-5.1063
X4.5118Y-5.8573
X4.5157Y-4.6555
X4.5157Y-5.9862
X4.5217Y-4.7362
X4.5226Y-5.6565
X4.5246Y-4.9252
X4.5256Y-5.0049
X4.5374Y-4.8681
X4.5394Y-5.3612
X4.54Y-5.94
X4.5433Y-5.8701
X4.5453Y-4.503
X4.55Y-4.96
X4.55Y-5.425
X4.5551Y-4.4783
X4.5551Y-6.0984
X4.5581Y-5.9124
X4.5591Y-5.1624
X4.56Y-4.627
X4.56Y-4.9961
X4.56Y-5.0295
X4.56Y-5.0787
X4.561Y-4.5229
X4.561Y-4.562
X4.561Y-4.936
X4.561Y-5.5719
X4.561Y-6.0167
X4.5611Y-5.9784
X4.5611Y-5.4034
X4.562Y-5.1102
X4.562Y-6.062
X4.563Y-5.4626
X4.563Y-5.5
X4.563Y-5.5453
X4.565Y-4.6535
X4.5689Y-4.9045
X4.5728Y-5.6506
X4.5768Y-4.6949
X4.5955Y-5.5876
X4.5984Y-5.626
X4.6063Y-4.6949
X4.6161Y-5.1476
X4.6358Y-5.128
X4.6358Y-5.5955
X4.6358Y-6.1132
X4.6368Y-4.6752
X4.6476Y-5.2185
X4.6476Y-5.2539
X4.6476Y-5.7087
X4.6476Y-5.7441
X4.648Y-4.757
X4.648Y-4.7924
X4.6511Y-4.5187
X4.6511Y-4.5866
X4.6511Y-4.9715
X4.6511Y-5.0394
X4.6511Y-5.4385
X4.6511Y-5.5064
X4.6511Y-5.9557
X4.6511Y-6.0236
X4.6555Y-5.6378
X4.665Y-5.83
X4.6752Y-4.6752
X4.6752Y-5.128
X4.6752Y-5.5955
X4.6752Y-6.1132
X4.6831Y-5.2185
X4.6831Y-5.2539
X4.6831Y-5.7087
X4.6831Y-5.7441
X4.6834Y-4.757
X4.6834Y-4.7924
X4.6949Y-5.6368
X4.7146Y-4.6752
X4.7146Y-5.128
X4.7146Y-5.5955
X4.7146Y-6.1132
X4.7165Y-5.1781
X4.719Y-4.5187
X4.719Y-4.5866
X4.719Y-4.9715
X4.719Y-5.0394
X4.719Y-5.4385
X4.719Y-5.5064
X4.719Y-5.9557
X4.719Y-6.0236
X4.7343Y-5.1486
X4.753Y-5.2067
X4.753Y-5.6969
X4.7539Y-4.6752
X4.7539Y-4.7451
X4.7539Y-5.128
X4.7539Y-5.5955
X4.7539Y-6.1132
X4.7587Y-4.7063
X4.7608Y-4.3514
X4.7894Y-4.4045
X4.8081Y-5.4035
X4.8081Y-5.9803
X4.8089Y-5.5001
X4.8091Y-5.4626
X4.8091Y-5.5463
X4.8091Y-6.062
X4.811Y-4.4843
X4.811Y-4.624
X4.811Y-4.9321
X4.811Y-5.0778
X4.811Y-5.9301
X4.813Y-4.5679
X4.813Y-4.9961
X4.813Y-5.0246
X4.813Y-6.0128
X4.816Y-4.523
X4.8228Y-4.7421
X4.8228Y-4.8602
X4.8228Y-5.1969
X4.8228Y-5.315
X4.8228Y-5.688
X4.8228Y-5.8051
X4.8248Y-6.1161
X4.825Y-5.44
X4.825Y-5.96
X4.83Y-4.975
X4.8386Y-4.6378
X4.8465Y-5.5709
X4.8543Y-4.3524
X4.8583Y-4.4961
X4.8642Y-4.6152
X4.872Y-5.1368
X4.874Y-5.1732
X4.874Y-5.6102
X4.876Y-5.6545
X4.877Y-4.4183
X4.877Y-5.4035
X4.877Y-5.8819
X4.878Y-4.4646
X4.878Y-4.9006
X4.878Y-4.94
X4.878Y-5.3632
X4.878Y-5.8415
X4.878Y-6.0797
X4.878Y-6.1152
X4.8789Y-4.6663
X4.8799Y-4.7116
X4.8799Y-5.1053
X4.8809Y-4.5207
X4.8917Y-5.5699
X4.8937Y-4.9902
X4.8957Y-5.2146
X4.8967Y-4.8691
X4.8967Y-5.4478
X4.8996Y-4.6142
X4.8996Y-4.7362
X4.8996Y-5.687
X4.8996Y-5.811
X4.9006Y-5.3396
X4.9016Y-5.9203
X4.9035Y-4.3967
X4.9124Y-6.0463
X4.9252Y-4.5177
X4.94Y-4.9793
X4.9419Y-5.1014
X4.9429Y-4.624
X4.9429Y-4.8691
X4.9429Y-5.4478
X4.9429Y-5.5709
X4.9459Y-5.2116
X4.9459Y-5.812
X4.9469Y-5.3396
X4.9478Y-4.7362
X4.9478Y-6.0404
X4.9488Y-5.9213
X4.9528Y-4.3514
X4.9577Y-5.685
X4.9646Y-4.3957
X4.9665Y-4.5098
X4.9833Y-5.5738
X4.9852Y-5.4498
X4.9862Y-4.9793
X4.9882Y-4.8691
X4.9892Y-5.0974
X4.9892Y-5.2136
X4.9902Y-4.623
X4.9902Y-5.3396
X4.9902Y-5.9222
X4.9911Y-4.7362
X4.9931Y-5.811
X4.9931Y-6.0404
X4.997Y-5.6831
X5.0069Y-4.3967
X5.0079Y-4.5108
X5.0305Y-5.9222
X5.0325Y-5.4498
X5.0335Y-5.5699
X5.0344Y-4.9793
X5.0344Y-5.0984
X5.0344Y-5.2126
X5.0344Y-5.3376
X5.0344Y-5.685
X5.0354Y-4.623
X5.0354Y-4.7372
X5.0354Y-4.8681
X5.0354Y-6.0413
X5.0364Y-5.7451
X5.0364Y-5.8051
X5.0374Y-4.3514
X5.0394Y-4.3967
X5.0394Y-4.5108
T2
X3.8976Y-4.5063
X3.8976Y-4.6063
X3.8976Y-4.7063
X3.8976Y-4.8063
T0
M30
