G04 #@! TF.FileFunction,Soldermask,Top*
%FSLAX46Y46*%
G04 Gerber Fmt 4.6, Leading zero omitted, Abs format (unit mm)*
G04 Created by KiCad (PCBNEW 4.0.6-e0-6349~53~ubuntu14.04.1) date Thu Apr 13 01:16:21 2017*
%MOMM*%
%LPD*%
G01*
G04 APERTURE LIST*
%ADD10C,0.100000*%
G04 APERTURE END LIST*
D10*
G36*
X148238600Y-90863600D02*
X144861400Y-90863600D01*
X144861400Y-88836400D01*
X148238600Y-88836400D01*
X148238600Y-90863600D01*
X148238600Y-90863600D01*
G37*
G36*
X155393653Y-88350631D02*
X155393665Y-88350635D01*
X155393705Y-88350639D01*
X155564034Y-88403365D01*
X155720879Y-88488170D01*
X155858264Y-88601825D01*
X155970957Y-88740000D01*
X156054665Y-88897433D01*
X156106201Y-89068126D01*
X156123600Y-89245579D01*
X156123600Y-89254455D01*
X156123526Y-89265117D01*
X156123525Y-89265123D01*
X156123511Y-89267177D01*
X156103636Y-89444369D01*
X156049722Y-89614326D01*
X155963824Y-89770575D01*
X155849212Y-89907163D01*
X155710254Y-90018889D01*
X155552241Y-90101496D01*
X155381192Y-90151839D01*
X155381158Y-90151842D01*
X155381148Y-90151845D01*
X155203620Y-90168000D01*
X155026347Y-90149369D01*
X155026335Y-90149365D01*
X155026295Y-90149361D01*
X154855966Y-90096635D01*
X154699121Y-90011830D01*
X154561736Y-89898175D01*
X154449043Y-89760000D01*
X154365335Y-89602567D01*
X154313799Y-89431874D01*
X154296400Y-89254421D01*
X154296400Y-89245545D01*
X154296474Y-89234883D01*
X154296475Y-89234877D01*
X154296489Y-89232823D01*
X154316364Y-89055631D01*
X154370278Y-88885674D01*
X154456176Y-88729425D01*
X154570788Y-88592837D01*
X154709746Y-88481111D01*
X154867759Y-88398504D01*
X155038808Y-88348161D01*
X155038842Y-88348158D01*
X155038852Y-88348155D01*
X155216380Y-88332000D01*
X155393653Y-88350631D01*
X155393653Y-88350631D01*
G37*
G36*
X157933653Y-88350631D02*
X157933665Y-88350635D01*
X157933705Y-88350639D01*
X158104034Y-88403365D01*
X158260879Y-88488170D01*
X158398264Y-88601825D01*
X158510957Y-88740000D01*
X158594665Y-88897433D01*
X158646201Y-89068126D01*
X158663600Y-89245579D01*
X158663600Y-89254455D01*
X158663526Y-89265117D01*
X158663525Y-89265123D01*
X158663511Y-89267177D01*
X158643636Y-89444369D01*
X158589722Y-89614326D01*
X158503824Y-89770575D01*
X158389212Y-89907163D01*
X158250254Y-90018889D01*
X158092241Y-90101496D01*
X157921192Y-90151839D01*
X157921158Y-90151842D01*
X157921148Y-90151845D01*
X157743620Y-90168000D01*
X157566347Y-90149369D01*
X157566335Y-90149365D01*
X157566295Y-90149361D01*
X157395966Y-90096635D01*
X157239121Y-90011830D01*
X157101736Y-89898175D01*
X156989043Y-89760000D01*
X156905335Y-89602567D01*
X156853799Y-89431874D01*
X156836400Y-89254421D01*
X156836400Y-89245545D01*
X156836474Y-89234883D01*
X156836475Y-89234877D01*
X156836489Y-89232823D01*
X156856364Y-89055631D01*
X156910278Y-88885674D01*
X156996176Y-88729425D01*
X157110788Y-88592837D01*
X157249746Y-88481111D01*
X157407759Y-88398504D01*
X157578808Y-88348161D01*
X157578842Y-88348158D01*
X157578852Y-88348155D01*
X157756380Y-88332000D01*
X157933653Y-88350631D01*
X157933653Y-88350631D01*
G37*
G36*
X160473653Y-88350631D02*
X160473665Y-88350635D01*
X160473705Y-88350639D01*
X160644034Y-88403365D01*
X160800879Y-88488170D01*
X160938264Y-88601825D01*
X161050957Y-88740000D01*
X161134665Y-88897433D01*
X161186201Y-89068126D01*
X161203600Y-89245579D01*
X161203600Y-89254455D01*
X161203526Y-89265117D01*
X161203525Y-89265123D01*
X161203511Y-89267177D01*
X161183636Y-89444369D01*
X161129722Y-89614326D01*
X161043824Y-89770575D01*
X160929212Y-89907163D01*
X160790254Y-90018889D01*
X160632241Y-90101496D01*
X160461192Y-90151839D01*
X160461158Y-90151842D01*
X160461148Y-90151845D01*
X160283620Y-90168000D01*
X160106347Y-90149369D01*
X160106335Y-90149365D01*
X160106295Y-90149361D01*
X159935966Y-90096635D01*
X159779121Y-90011830D01*
X159641736Y-89898175D01*
X159529043Y-89760000D01*
X159445335Y-89602567D01*
X159393799Y-89431874D01*
X159376400Y-89254421D01*
X159376400Y-89245545D01*
X159376474Y-89234883D01*
X159376475Y-89234877D01*
X159376489Y-89232823D01*
X159396364Y-89055631D01*
X159450278Y-88885674D01*
X159536176Y-88729425D01*
X159650788Y-88592837D01*
X159789746Y-88481111D01*
X159947759Y-88398504D01*
X160118808Y-88348161D01*
X160118842Y-88348158D01*
X160118852Y-88348155D01*
X160296380Y-88332000D01*
X160473653Y-88350631D01*
X160473653Y-88350631D01*
G37*
G36*
X153583600Y-90163600D02*
X151756400Y-90163600D01*
X151756400Y-88336400D01*
X153583600Y-88336400D01*
X153583600Y-90163600D01*
X153583600Y-90163600D01*
G37*
G36*
X211813600Y-89788600D02*
X207186400Y-89788600D01*
X207186400Y-87661400D01*
X211813600Y-87661400D01*
X211813600Y-89788600D01*
X211813600Y-89788600D01*
G37*
G36*
X176813600Y-89613600D02*
X176186400Y-89613600D01*
X176186400Y-88586400D01*
X176813600Y-88586400D01*
X176813600Y-89613600D01*
X176813600Y-89613600D01*
G37*
G36*
X175313600Y-89613600D02*
X174686400Y-89613600D01*
X174686400Y-88586400D01*
X175313600Y-88586400D01*
X175313600Y-89613600D01*
X175313600Y-89613600D01*
G37*
G36*
X180163600Y-89223600D02*
X179436400Y-89223600D01*
X179436400Y-88596400D01*
X180163600Y-88596400D01*
X180163600Y-89223600D01*
X180163600Y-89223600D01*
G37*
G36*
X181263600Y-89223600D02*
X180536400Y-89223600D01*
X180536400Y-88596400D01*
X181263600Y-88596400D01*
X181263600Y-89223600D01*
X181263600Y-89223600D01*
G37*
G36*
X167063600Y-88763600D02*
X166436400Y-88763600D01*
X166436400Y-87736400D01*
X167063600Y-87736400D01*
X167063600Y-88763600D01*
X167063600Y-88763600D01*
G37*
G36*
X168563600Y-88763600D02*
X167936400Y-88763600D01*
X167936400Y-87736400D01*
X168563600Y-87736400D01*
X168563600Y-88763600D01*
X168563600Y-88763600D01*
G37*
G36*
X170713600Y-88688600D02*
X169786400Y-88688600D01*
X169786400Y-87811400D01*
X170713600Y-87811400D01*
X170713600Y-88688600D01*
X170713600Y-88688600D01*
G37*
G36*
X172213600Y-88688600D02*
X171286400Y-88688600D01*
X171286400Y-87811400D01*
X172213600Y-87811400D01*
X172213600Y-88688600D01*
X172213600Y-88688600D01*
G37*
G36*
X182933600Y-88663600D02*
X182306400Y-88663600D01*
X182306400Y-87936400D01*
X182933600Y-87936400D01*
X182933600Y-88663600D01*
X182933600Y-88663600D01*
G37*
G36*
X181688600Y-87613600D02*
X180111400Y-87613600D01*
X180111400Y-87086400D01*
X181688600Y-87086400D01*
X181688600Y-87613600D01*
X181688600Y-87613600D01*
G37*
G36*
X177288600Y-87613600D02*
X175711400Y-87613600D01*
X175711400Y-87086400D01*
X177288600Y-87086400D01*
X177288600Y-87613600D01*
X177288600Y-87613600D01*
G37*
G36*
X182933600Y-87563600D02*
X182306400Y-87563600D01*
X182306400Y-86836400D01*
X182933600Y-86836400D01*
X182933600Y-87563600D01*
X182933600Y-87563600D01*
G37*
G36*
X175008600Y-87263600D02*
X174131400Y-87263600D01*
X174131400Y-86336400D01*
X175008600Y-86336400D01*
X175008600Y-87263600D01*
X175008600Y-87263600D01*
G37*
G36*
X167063600Y-87263600D02*
X166436400Y-87263600D01*
X166436400Y-86236400D01*
X167063600Y-86236400D01*
X167063600Y-87263600D01*
X167063600Y-87263600D01*
G37*
G36*
X168563600Y-87263600D02*
X167936400Y-87263600D01*
X167936400Y-86236400D01*
X168563600Y-86236400D01*
X168563600Y-87263600D01*
X168563600Y-87263600D01*
G37*
G36*
X190523600Y-87248600D02*
X189946400Y-87248600D01*
X189946400Y-86871400D01*
X190523600Y-86871400D01*
X190523600Y-87248600D01*
X190523600Y-87248600D01*
G37*
G36*
X188773600Y-87248600D02*
X188196400Y-87248600D01*
X188196400Y-86871400D01*
X188773600Y-86871400D01*
X188773600Y-87248600D01*
X188773600Y-87248600D01*
G37*
G36*
X170713600Y-87188600D02*
X169786400Y-87188600D01*
X169786400Y-86311400D01*
X170713600Y-86311400D01*
X170713600Y-87188600D01*
X170713600Y-87188600D01*
G37*
G36*
X172213600Y-87188600D02*
X171286400Y-87188600D01*
X171286400Y-86311400D01*
X172213600Y-86311400D01*
X172213600Y-87188600D01*
X172213600Y-87188600D01*
G37*
G36*
X199673600Y-87143600D02*
X198646400Y-87143600D01*
X198646400Y-86516400D01*
X199673600Y-86516400D01*
X199673600Y-87143600D01*
X199673600Y-87143600D01*
G37*
G36*
X197798600Y-86998600D02*
X197341400Y-86998600D01*
X197341400Y-86461400D01*
X197798600Y-86461400D01*
X197798600Y-86998600D01*
X197798600Y-86998600D01*
G37*
G36*
X196798600Y-86998600D02*
X196341400Y-86998600D01*
X196341400Y-86461400D01*
X196798600Y-86461400D01*
X196798600Y-86998600D01*
X196798600Y-86998600D01*
G37*
G36*
X177288600Y-86963600D02*
X175711400Y-86963600D01*
X175711400Y-86436400D01*
X177288600Y-86436400D01*
X177288600Y-86963600D01*
X177288600Y-86963600D01*
G37*
G36*
X181688600Y-86963600D02*
X180111400Y-86963600D01*
X180111400Y-86436400D01*
X181688600Y-86436400D01*
X181688600Y-86963600D01*
X181688600Y-86963600D01*
G37*
G36*
X189760100Y-86960100D02*
X188959900Y-86960100D01*
X188959900Y-86659900D01*
X189760100Y-86659900D01*
X189760100Y-86960100D01*
X189760100Y-86960100D01*
G37*
G36*
X188773600Y-86748600D02*
X188196400Y-86748600D01*
X188196400Y-86371400D01*
X188773600Y-86371400D01*
X188773600Y-86748600D01*
X188773600Y-86748600D01*
G37*
G36*
X190523600Y-86748600D02*
X189946400Y-86748600D01*
X189946400Y-86371400D01*
X190523600Y-86371400D01*
X190523600Y-86748600D01*
X190523600Y-86748600D01*
G37*
G36*
X189760100Y-86460100D02*
X188959900Y-86460100D01*
X188959900Y-86159900D01*
X189760100Y-86159900D01*
X189760100Y-86460100D01*
X189760100Y-86460100D01*
G37*
G36*
X187223600Y-86423600D02*
X186596400Y-86423600D01*
X186596400Y-85696400D01*
X187223600Y-85696400D01*
X187223600Y-86423600D01*
X187223600Y-86423600D01*
G37*
G36*
X192123600Y-86423600D02*
X191496400Y-86423600D01*
X191496400Y-85696400D01*
X192123600Y-85696400D01*
X192123600Y-86423600D01*
X192123600Y-86423600D01*
G37*
G36*
X184623600Y-86373600D02*
X183896400Y-86373600D01*
X183896400Y-85746400D01*
X184623600Y-85746400D01*
X184623600Y-86373600D01*
X184623600Y-86373600D01*
G37*
G36*
X195073600Y-86373600D02*
X194346400Y-86373600D01*
X194346400Y-85746400D01*
X195073600Y-85746400D01*
X195073600Y-86373600D01*
X195073600Y-86373600D01*
G37*
G36*
X193973600Y-86373600D02*
X193246400Y-86373600D01*
X193246400Y-85746400D01*
X193973600Y-85746400D01*
X193973600Y-86373600D01*
X193973600Y-86373600D01*
G37*
G36*
X185723600Y-86373600D02*
X184996400Y-86373600D01*
X184996400Y-85746400D01*
X185723600Y-85746400D01*
X185723600Y-86373600D01*
X185723600Y-86373600D01*
G37*
G36*
X197798600Y-86338600D02*
X197341400Y-86338600D01*
X197341400Y-85801400D01*
X197798600Y-85801400D01*
X197798600Y-86338600D01*
X197798600Y-86338600D01*
G37*
G36*
X196798600Y-86338600D02*
X196341400Y-86338600D01*
X196341400Y-85801400D01*
X196798600Y-85801400D01*
X196798600Y-86338600D01*
X196798600Y-86338600D01*
G37*
G36*
X177288600Y-86313600D02*
X175711400Y-86313600D01*
X175711400Y-85786400D01*
X177288600Y-85786400D01*
X177288600Y-86313600D01*
X177288600Y-86313600D01*
G37*
G36*
X181688600Y-86313600D02*
X180111400Y-86313600D01*
X180111400Y-85786400D01*
X181688600Y-85786400D01*
X181688600Y-86313600D01*
X181688600Y-86313600D01*
G37*
G36*
X188773600Y-86248600D02*
X188196400Y-86248600D01*
X188196400Y-85871400D01*
X188773600Y-85871400D01*
X188773600Y-86248600D01*
X188773600Y-86248600D01*
G37*
G36*
X190523600Y-86248600D02*
X189946400Y-86248600D01*
X189946400Y-85871400D01*
X190523600Y-85871400D01*
X190523600Y-86248600D01*
X190523600Y-86248600D01*
G37*
G36*
X211813600Y-86238600D02*
X208686400Y-86238600D01*
X208686400Y-85261400D01*
X211813600Y-85261400D01*
X211813600Y-86238600D01*
X211813600Y-86238600D01*
G37*
G36*
X157933653Y-84350631D02*
X157933665Y-84350635D01*
X157933705Y-84350639D01*
X158104034Y-84403365D01*
X158260879Y-84488170D01*
X158398264Y-84601825D01*
X158510957Y-84740000D01*
X158594665Y-84897433D01*
X158646201Y-85068126D01*
X158663600Y-85245579D01*
X158663600Y-85254455D01*
X158663526Y-85265117D01*
X158663525Y-85265123D01*
X158663511Y-85267177D01*
X158643636Y-85444369D01*
X158589722Y-85614326D01*
X158503824Y-85770575D01*
X158389212Y-85907163D01*
X158250254Y-86018889D01*
X158092241Y-86101496D01*
X157921192Y-86151839D01*
X157921158Y-86151842D01*
X157921148Y-86151845D01*
X157743620Y-86168000D01*
X157566347Y-86149369D01*
X157566335Y-86149365D01*
X157566295Y-86149361D01*
X157395966Y-86096635D01*
X157239121Y-86011830D01*
X157101736Y-85898175D01*
X156989043Y-85760000D01*
X156905335Y-85602567D01*
X156853799Y-85431874D01*
X156836400Y-85254421D01*
X156836400Y-85245545D01*
X156836474Y-85234883D01*
X156836475Y-85234877D01*
X156836489Y-85232823D01*
X156856364Y-85055631D01*
X156910278Y-84885674D01*
X156996176Y-84729425D01*
X157110788Y-84592837D01*
X157249746Y-84481111D01*
X157407759Y-84398504D01*
X157578808Y-84348161D01*
X157578842Y-84348158D01*
X157578852Y-84348155D01*
X157756380Y-84332000D01*
X157933653Y-84350631D01*
X157933653Y-84350631D01*
G37*
G36*
X155393653Y-84350631D02*
X155393665Y-84350635D01*
X155393705Y-84350639D01*
X155564034Y-84403365D01*
X155720879Y-84488170D01*
X155858264Y-84601825D01*
X155970957Y-84740000D01*
X156054665Y-84897433D01*
X156106201Y-85068126D01*
X156123600Y-85245579D01*
X156123600Y-85254455D01*
X156123526Y-85265117D01*
X156123525Y-85265123D01*
X156123511Y-85267177D01*
X156103636Y-85444369D01*
X156049722Y-85614326D01*
X155963824Y-85770575D01*
X155849212Y-85907163D01*
X155710254Y-86018889D01*
X155552241Y-86101496D01*
X155381192Y-86151839D01*
X155381158Y-86151842D01*
X155381148Y-86151845D01*
X155203620Y-86168000D01*
X155026347Y-86149369D01*
X155026335Y-86149365D01*
X155026295Y-86149361D01*
X154855966Y-86096635D01*
X154699121Y-86011830D01*
X154561736Y-85898175D01*
X154449043Y-85760000D01*
X154365335Y-85602567D01*
X154313799Y-85431874D01*
X154296400Y-85254421D01*
X154296400Y-85245545D01*
X154296474Y-85234883D01*
X154296475Y-85234877D01*
X154296489Y-85232823D01*
X154316364Y-85055631D01*
X154370278Y-84885674D01*
X154456176Y-84729425D01*
X154570788Y-84592837D01*
X154709746Y-84481111D01*
X154867759Y-84398504D01*
X155038808Y-84348161D01*
X155038842Y-84348158D01*
X155038852Y-84348155D01*
X155216380Y-84332000D01*
X155393653Y-84350631D01*
X155393653Y-84350631D01*
G37*
G36*
X160473653Y-84350631D02*
X160473665Y-84350635D01*
X160473705Y-84350639D01*
X160644034Y-84403365D01*
X160800879Y-84488170D01*
X160938264Y-84601825D01*
X161050957Y-84740000D01*
X161134665Y-84897433D01*
X161186201Y-85068126D01*
X161203600Y-85245579D01*
X161203600Y-85254455D01*
X161203526Y-85265117D01*
X161203525Y-85265123D01*
X161203511Y-85267177D01*
X161183636Y-85444369D01*
X161129722Y-85614326D01*
X161043824Y-85770575D01*
X160929212Y-85907163D01*
X160790254Y-86018889D01*
X160632241Y-86101496D01*
X160461192Y-86151839D01*
X160461158Y-86151842D01*
X160461148Y-86151845D01*
X160283620Y-86168000D01*
X160106347Y-86149369D01*
X160106335Y-86149365D01*
X160106295Y-86149361D01*
X159935966Y-86096635D01*
X159779121Y-86011830D01*
X159641736Y-85898175D01*
X159529043Y-85760000D01*
X159445335Y-85602567D01*
X159393799Y-85431874D01*
X159376400Y-85254421D01*
X159376400Y-85245545D01*
X159376474Y-85234883D01*
X159376475Y-85234877D01*
X159376489Y-85232823D01*
X159396364Y-85055631D01*
X159450278Y-84885674D01*
X159536176Y-84729425D01*
X159650788Y-84592837D01*
X159789746Y-84481111D01*
X159947759Y-84398504D01*
X160118808Y-84348161D01*
X160118842Y-84348158D01*
X160118852Y-84348155D01*
X160296380Y-84332000D01*
X160473653Y-84350631D01*
X160473653Y-84350631D01*
G37*
G36*
X153583600Y-86163600D02*
X151756400Y-86163600D01*
X151756400Y-84336400D01*
X153583600Y-84336400D01*
X153583600Y-86163600D01*
X153583600Y-86163600D01*
G37*
G36*
X204313600Y-86063600D02*
X203586400Y-86063600D01*
X203586400Y-85436400D01*
X204313600Y-85436400D01*
X204313600Y-86063600D01*
X204313600Y-86063600D01*
G37*
G36*
X205413600Y-86063600D02*
X204686400Y-86063600D01*
X204686400Y-85436400D01*
X205413600Y-85436400D01*
X205413600Y-86063600D01*
X205413600Y-86063600D01*
G37*
G36*
X189760100Y-85960100D02*
X188959900Y-85960100D01*
X188959900Y-85659900D01*
X189760100Y-85659900D01*
X189760100Y-85960100D01*
X189760100Y-85960100D01*
G37*
G36*
X165213600Y-85938600D02*
X164286400Y-85938600D01*
X164286400Y-85061400D01*
X165213600Y-85061400D01*
X165213600Y-85938600D01*
X165213600Y-85938600D01*
G37*
G36*
X163713600Y-85938600D02*
X162786400Y-85938600D01*
X162786400Y-85061400D01*
X163713600Y-85061400D01*
X163713600Y-85938600D01*
X163713600Y-85938600D01*
G37*
G36*
X175008600Y-85763600D02*
X174131400Y-85763600D01*
X174131400Y-84836400D01*
X175008600Y-84836400D01*
X175008600Y-85763600D01*
X175008600Y-85763600D01*
G37*
G36*
X170563600Y-85763600D02*
X169936400Y-85763600D01*
X169936400Y-84736400D01*
X170563600Y-84736400D01*
X170563600Y-85763600D01*
X170563600Y-85763600D01*
G37*
G36*
X172063600Y-85763600D02*
X171436400Y-85763600D01*
X171436400Y-84736400D01*
X172063600Y-84736400D01*
X172063600Y-85763600D01*
X172063600Y-85763600D01*
G37*
G36*
X188773600Y-85748600D02*
X188196400Y-85748600D01*
X188196400Y-85371400D01*
X188773600Y-85371400D01*
X188773600Y-85748600D01*
X188773600Y-85748600D01*
G37*
G36*
X190523600Y-85748600D02*
X189946400Y-85748600D01*
X189946400Y-85371400D01*
X190523600Y-85371400D01*
X190523600Y-85748600D01*
X190523600Y-85748600D01*
G37*
G36*
X197798600Y-85678600D02*
X197341400Y-85678600D01*
X197341400Y-85141400D01*
X197798600Y-85141400D01*
X197798600Y-85678600D01*
X197798600Y-85678600D01*
G37*
G36*
X196798600Y-85678600D02*
X196341400Y-85678600D01*
X196341400Y-85141400D01*
X196798600Y-85141400D01*
X196798600Y-85678600D01*
X196798600Y-85678600D01*
G37*
G36*
X181688600Y-85663600D02*
X180111400Y-85663600D01*
X180111400Y-85136400D01*
X181688600Y-85136400D01*
X181688600Y-85663600D01*
X181688600Y-85663600D01*
G37*
G36*
X177288600Y-85663600D02*
X175711400Y-85663600D01*
X175711400Y-85136400D01*
X177288600Y-85136400D01*
X177288600Y-85663600D01*
X177288600Y-85663600D01*
G37*
G36*
X199673600Y-85643600D02*
X198646400Y-85643600D01*
X198646400Y-85016400D01*
X199673600Y-85016400D01*
X199673600Y-85643600D01*
X199673600Y-85643600D01*
G37*
G36*
X166913600Y-85438600D02*
X166336400Y-85438600D01*
X166336400Y-85061400D01*
X166913600Y-85061400D01*
X166913600Y-85438600D01*
X166913600Y-85438600D01*
G37*
G36*
X168663600Y-85438600D02*
X168086400Y-85438600D01*
X168086400Y-85061400D01*
X168663600Y-85061400D01*
X168663600Y-85438600D01*
X168663600Y-85438600D01*
G37*
G36*
X187223600Y-85323600D02*
X186596400Y-85323600D01*
X186596400Y-84596400D01*
X187223600Y-84596400D01*
X187223600Y-85323600D01*
X187223600Y-85323600D01*
G37*
G36*
X192123600Y-85323600D02*
X191496400Y-85323600D01*
X191496400Y-84596400D01*
X192123600Y-84596400D01*
X192123600Y-85323600D01*
X192123600Y-85323600D01*
G37*
G36*
X167900100Y-85150100D02*
X167099900Y-85150100D01*
X167099900Y-84849900D01*
X167900100Y-84849900D01*
X167900100Y-85150100D01*
X167900100Y-85150100D01*
G37*
G36*
X168663600Y-84938600D02*
X168086400Y-84938600D01*
X168086400Y-84561400D01*
X168663600Y-84561400D01*
X168663600Y-84938600D01*
X168663600Y-84938600D01*
G37*
G36*
X166913600Y-84938600D02*
X166336400Y-84938600D01*
X166336400Y-84561400D01*
X166913600Y-84561400D01*
X166913600Y-84938600D01*
X166913600Y-84938600D01*
G37*
G36*
X144788600Y-84763600D02*
X143711400Y-84763600D01*
X143711400Y-82736400D01*
X144788600Y-82736400D01*
X144788600Y-84763600D01*
X144788600Y-84763600D01*
G37*
G36*
X147088600Y-84763600D02*
X146011400Y-84763600D01*
X146011400Y-82736400D01*
X147088600Y-82736400D01*
X147088600Y-84763600D01*
X147088600Y-84763600D01*
G37*
G36*
X149388600Y-84763600D02*
X148311400Y-84763600D01*
X148311400Y-82736400D01*
X149388600Y-82736400D01*
X149388600Y-84763600D01*
X149388600Y-84763600D01*
G37*
G36*
X167900100Y-84650100D02*
X167099900Y-84650100D01*
X167099900Y-84349900D01*
X167900100Y-84349900D01*
X167900100Y-84650100D01*
X167900100Y-84650100D01*
G37*
G36*
X163713600Y-84438600D02*
X162786400Y-84438600D01*
X162786400Y-83561400D01*
X163713600Y-83561400D01*
X163713600Y-84438600D01*
X163713600Y-84438600D01*
G37*
G36*
X165213600Y-84438600D02*
X164286400Y-84438600D01*
X164286400Y-83561400D01*
X165213600Y-83561400D01*
X165213600Y-84438600D01*
X165213600Y-84438600D01*
G37*
G36*
X168663600Y-84438600D02*
X168086400Y-84438600D01*
X168086400Y-84061400D01*
X168663600Y-84061400D01*
X168663600Y-84438600D01*
X168663600Y-84438600D01*
G37*
G36*
X166913600Y-84438600D02*
X166336400Y-84438600D01*
X166336400Y-84061400D01*
X166913600Y-84061400D01*
X166913600Y-84438600D01*
X166913600Y-84438600D01*
G37*
G36*
X200513600Y-84288600D02*
X199886400Y-84288600D01*
X199886400Y-83761400D01*
X200513600Y-83761400D01*
X200513600Y-84288600D01*
X200513600Y-84288600D01*
G37*
G36*
X199513600Y-84288600D02*
X198886400Y-84288600D01*
X198886400Y-83761400D01*
X199513600Y-83761400D01*
X199513600Y-84288600D01*
X199513600Y-84288600D01*
G37*
G36*
X167900100Y-84150100D02*
X167099900Y-84150100D01*
X167099900Y-83849900D01*
X167900100Y-83849900D01*
X167900100Y-84150100D01*
X167900100Y-84150100D01*
G37*
G36*
X172063600Y-84013600D02*
X171436400Y-84013600D01*
X171436400Y-82986400D01*
X172063600Y-82986400D01*
X172063600Y-84013600D01*
X172063600Y-84013600D01*
G37*
G36*
X170563600Y-84013600D02*
X169936400Y-84013600D01*
X169936400Y-82986400D01*
X170563600Y-82986400D01*
X170563600Y-84013600D01*
X170563600Y-84013600D01*
G37*
G36*
X188373600Y-83973600D02*
X187646400Y-83973600D01*
X187646400Y-83346400D01*
X188373600Y-83346400D01*
X188373600Y-83973600D01*
X188373600Y-83973600D01*
G37*
G36*
X192173600Y-83973600D02*
X191446400Y-83973600D01*
X191446400Y-83346400D01*
X192173600Y-83346400D01*
X192173600Y-83973600D01*
X192173600Y-83973600D01*
G37*
G36*
X191073600Y-83973600D02*
X190346400Y-83973600D01*
X190346400Y-83346400D01*
X191073600Y-83346400D01*
X191073600Y-83973600D01*
X191073600Y-83973600D01*
G37*
G36*
X187273600Y-83973600D02*
X186546400Y-83973600D01*
X186546400Y-83346400D01*
X187273600Y-83346400D01*
X187273600Y-83973600D01*
X187273600Y-83973600D01*
G37*
G36*
X181713600Y-83938600D02*
X180786400Y-83938600D01*
X180786400Y-83061400D01*
X181713600Y-83061400D01*
X181713600Y-83938600D01*
X181713600Y-83938600D01*
G37*
G36*
X168663600Y-83938600D02*
X168086400Y-83938600D01*
X168086400Y-83561400D01*
X168663600Y-83561400D01*
X168663600Y-83938600D01*
X168663600Y-83938600D01*
G37*
G36*
X166913600Y-83938600D02*
X166336400Y-83938600D01*
X166336400Y-83561400D01*
X166913600Y-83561400D01*
X166913600Y-83938600D01*
X166913600Y-83938600D01*
G37*
G36*
X180213600Y-83938600D02*
X179286400Y-83938600D01*
X179286400Y-83061400D01*
X180213600Y-83061400D01*
X180213600Y-83938600D01*
X180213600Y-83938600D01*
G37*
G36*
X211813600Y-83838600D02*
X207186400Y-83838600D01*
X207186400Y-81711400D01*
X211813600Y-81711400D01*
X211813600Y-83838600D01*
X211813600Y-83838600D01*
G37*
G36*
X200513600Y-83638600D02*
X199886400Y-83638600D01*
X199886400Y-83111400D01*
X200513600Y-83111400D01*
X200513600Y-83638600D01*
X200513600Y-83638600D01*
G37*
G36*
X199513600Y-83638600D02*
X198886400Y-83638600D01*
X198886400Y-83111400D01*
X199513600Y-83111400D01*
X199513600Y-83638600D01*
X199513600Y-83638600D01*
G37*
G36*
X165313600Y-82688600D02*
X164186400Y-82688600D01*
X164186400Y-81311400D01*
X165313600Y-81311400D01*
X165313600Y-82688600D01*
X165313600Y-82688600D01*
G37*
G36*
X163313600Y-82688600D02*
X162186400Y-82688600D01*
X162186400Y-81311400D01*
X163313600Y-81311400D01*
X163313600Y-82688600D01*
X163313600Y-82688600D01*
G37*
G36*
X190073600Y-82573600D02*
X189546400Y-82573600D01*
X189546400Y-81846400D01*
X190073600Y-81846400D01*
X190073600Y-82573600D01*
X190073600Y-82573600D01*
G37*
G36*
X188073600Y-82573600D02*
X187546400Y-82573600D01*
X187546400Y-81846400D01*
X188073600Y-81846400D01*
X188073600Y-82573600D01*
X188073600Y-82573600D01*
G37*
G36*
X187173600Y-82573600D02*
X186646400Y-82573600D01*
X186646400Y-81846400D01*
X187173600Y-81846400D01*
X187173600Y-82573600D01*
X187173600Y-82573600D01*
G37*
G36*
X189173600Y-82573600D02*
X188646400Y-82573600D01*
X188646400Y-81846400D01*
X189173600Y-81846400D01*
X189173600Y-82573600D01*
X189173600Y-82573600D01*
G37*
G36*
X192073600Y-82573600D02*
X191546400Y-82573600D01*
X191546400Y-81846400D01*
X192073600Y-81846400D01*
X192073600Y-82573600D01*
X192073600Y-82573600D01*
G37*
G36*
X191173600Y-82573600D02*
X190646400Y-82573600D01*
X190646400Y-81846400D01*
X191173600Y-81846400D01*
X191173600Y-82573600D01*
X191173600Y-82573600D01*
G37*
G36*
X167213600Y-82438600D02*
X166286400Y-82438600D01*
X166286400Y-81561400D01*
X167213600Y-81561400D01*
X167213600Y-82438600D01*
X167213600Y-82438600D01*
G37*
G36*
X168713600Y-82438600D02*
X167786400Y-82438600D01*
X167786400Y-81561400D01*
X168713600Y-81561400D01*
X168713600Y-82438600D01*
X168713600Y-82438600D01*
G37*
G36*
X149313600Y-82388600D02*
X148386400Y-82388600D01*
X148386400Y-81511400D01*
X149313600Y-81511400D01*
X149313600Y-82388600D01*
X149313600Y-82388600D01*
G37*
G36*
X146113600Y-82388600D02*
X145186400Y-82388600D01*
X145186400Y-81511400D01*
X146113600Y-81511400D01*
X146113600Y-82388600D01*
X146113600Y-82388600D01*
G37*
G36*
X147813600Y-82388600D02*
X146886400Y-82388600D01*
X146886400Y-81511400D01*
X147813600Y-81511400D01*
X147813600Y-82388600D01*
X147813600Y-82388600D01*
G37*
G36*
X144613600Y-82388600D02*
X143686400Y-82388600D01*
X143686400Y-81511400D01*
X144613600Y-81511400D01*
X144613600Y-82388600D01*
X144613600Y-82388600D01*
G37*
G36*
X154313600Y-82013600D02*
X153686400Y-82013600D01*
X153686400Y-80986400D01*
X154313600Y-80986400D01*
X154313600Y-82013600D01*
X154313600Y-82013600D01*
G37*
G36*
X156063600Y-82013600D02*
X155436400Y-82013600D01*
X155436400Y-80986400D01*
X156063600Y-80986400D01*
X156063600Y-82013600D01*
X156063600Y-82013600D01*
G37*
G36*
X152813600Y-82013600D02*
X152186400Y-82013600D01*
X152186400Y-80986400D01*
X152813600Y-80986400D01*
X152813600Y-82013600D01*
X152813600Y-82013600D01*
G37*
G36*
X157563600Y-82013600D02*
X156936400Y-82013600D01*
X156936400Y-80986400D01*
X157563600Y-80986400D01*
X157563600Y-82013600D01*
X157563600Y-82013600D01*
G37*
G36*
X190313600Y-80988600D02*
X189386400Y-80988600D01*
X189386400Y-80111400D01*
X190313600Y-80111400D01*
X190313600Y-80988600D01*
X190313600Y-80988600D01*
G37*
G36*
X191813600Y-80988600D02*
X190886400Y-80988600D01*
X190886400Y-80111400D01*
X191813600Y-80111400D01*
X191813600Y-80988600D01*
X191813600Y-80988600D01*
G37*
G36*
X188273600Y-80948600D02*
X187346400Y-80948600D01*
X187346400Y-80071400D01*
X188273600Y-80071400D01*
X188273600Y-80948600D01*
X188273600Y-80948600D01*
G37*
G36*
X186773600Y-80948600D02*
X185846400Y-80948600D01*
X185846400Y-80071400D01*
X186773600Y-80071400D01*
X186773600Y-80948600D01*
X186773600Y-80948600D01*
G37*
G36*
X167463600Y-80838600D02*
X166536400Y-80838600D01*
X166536400Y-79961400D01*
X167463600Y-79961400D01*
X167463600Y-80838600D01*
X167463600Y-80838600D01*
G37*
G36*
X165963600Y-80838600D02*
X165036400Y-80838600D01*
X165036400Y-79961400D01*
X165963600Y-79961400D01*
X165963600Y-80838600D01*
X165963600Y-80838600D01*
G37*
G36*
X157713600Y-80188600D02*
X156786400Y-80188600D01*
X156786400Y-79311400D01*
X157713600Y-79311400D01*
X157713600Y-80188600D01*
X157713600Y-80188600D01*
G37*
G36*
X159213600Y-80188600D02*
X158286400Y-80188600D01*
X158286400Y-79311400D01*
X159213600Y-79311400D01*
X159213600Y-80188600D01*
X159213600Y-80188600D01*
G37*
G36*
X156213600Y-80188600D02*
X155286400Y-80188600D01*
X155286400Y-79311400D01*
X156213600Y-79311400D01*
X156213600Y-80188600D01*
X156213600Y-80188600D01*
G37*
G36*
X160713600Y-80188600D02*
X159786400Y-80188600D01*
X159786400Y-79311400D01*
X160713600Y-79311400D01*
X160713600Y-80188600D01*
X160713600Y-80188600D01*
G37*
G36*
X144381625Y-78816450D02*
X144381630Y-78816451D01*
X144383686Y-78816465D01*
X144512391Y-78830901D01*
X144635841Y-78870062D01*
X144749333Y-78932455D01*
X144848545Y-79015703D01*
X144929698Y-79116637D01*
X144989700Y-79231411D01*
X145026267Y-79355654D01*
X145026270Y-79355687D01*
X145026273Y-79355697D01*
X145038007Y-79484635D01*
X145024476Y-79613383D01*
X145024471Y-79613400D01*
X145024467Y-79613435D01*
X144986169Y-79737155D01*
X144924570Y-79851080D01*
X144842016Y-79950871D01*
X144741652Y-80032727D01*
X144627299Y-80093529D01*
X144503315Y-80130962D01*
X144374421Y-80143600D01*
X143865547Y-80143600D01*
X143858375Y-80143550D01*
X143858370Y-80143549D01*
X143856314Y-80143535D01*
X143727609Y-80129099D01*
X143604159Y-80089938D01*
X143490667Y-80027545D01*
X143391455Y-79944297D01*
X143310302Y-79843363D01*
X143250300Y-79728589D01*
X143213733Y-79604346D01*
X143213730Y-79604313D01*
X143213727Y-79604303D01*
X143201993Y-79475365D01*
X143215524Y-79346617D01*
X143215529Y-79346600D01*
X143215533Y-79346565D01*
X143253831Y-79222845D01*
X143315430Y-79108920D01*
X143397984Y-79009129D01*
X143498348Y-78927273D01*
X143612701Y-78866471D01*
X143736685Y-78829038D01*
X143865579Y-78816400D01*
X144374452Y-78816400D01*
X144381625Y-78816450D01*
X144381625Y-78816450D01*
G37*
G36*
X150513600Y-80063600D02*
X149486400Y-80063600D01*
X149486400Y-79436400D01*
X150513600Y-79436400D01*
X150513600Y-80063600D01*
X150513600Y-80063600D01*
G37*
G36*
X147330443Y-78556445D02*
X147330448Y-78556446D01*
X147332504Y-78556460D01*
X147451512Y-78569809D01*
X147565660Y-78606019D01*
X147670601Y-78663710D01*
X147762337Y-78740687D01*
X147837376Y-78834015D01*
X147892857Y-78940141D01*
X147926668Y-79055023D01*
X147926671Y-79055051D01*
X147926675Y-79055066D01*
X147937524Y-79174286D01*
X147925013Y-79293329D01*
X147925008Y-79293346D01*
X147925004Y-79293381D01*
X147889592Y-79407780D01*
X147832634Y-79513121D01*
X147756301Y-79605393D01*
X147663498Y-79681080D01*
X147557762Y-79737301D01*
X147443119Y-79771914D01*
X147323937Y-79783600D01*
X146916030Y-79783600D01*
X146909557Y-79783555D01*
X146909552Y-79783554D01*
X146907496Y-79783540D01*
X146788488Y-79770191D01*
X146674340Y-79733981D01*
X146569399Y-79676290D01*
X146477663Y-79599313D01*
X146402624Y-79505985D01*
X146347143Y-79399859D01*
X146313332Y-79284977D01*
X146313329Y-79284949D01*
X146313325Y-79284934D01*
X146302476Y-79165714D01*
X146314987Y-79046671D01*
X146314992Y-79046654D01*
X146314996Y-79046619D01*
X146350408Y-78932220D01*
X146407366Y-78826879D01*
X146483699Y-78734607D01*
X146576502Y-78658920D01*
X146682238Y-78602699D01*
X146796881Y-78568086D01*
X146916063Y-78556400D01*
X147323970Y-78556400D01*
X147330443Y-78556445D01*
X147330443Y-78556445D01*
G37*
G36*
X170063600Y-79763600D02*
X169436400Y-79763600D01*
X169436400Y-78736400D01*
X170063600Y-78736400D01*
X170063600Y-79763600D01*
X170063600Y-79763600D01*
G37*
G36*
X171563600Y-79763600D02*
X170936400Y-79763600D01*
X170936400Y-78736400D01*
X171563600Y-78736400D01*
X171563600Y-79763600D01*
X171563600Y-79763600D01*
G37*
G36*
X163813600Y-79513600D02*
X163186400Y-79513600D01*
X163186400Y-78486400D01*
X163813600Y-78486400D01*
X163813600Y-79513600D01*
X163813600Y-79513600D01*
G37*
G36*
X162313600Y-79513600D02*
X161686400Y-79513600D01*
X161686400Y-78486400D01*
X162313600Y-78486400D01*
X162313600Y-79513600D01*
X162313600Y-79513600D01*
G37*
G36*
X167463600Y-79438600D02*
X166536400Y-79438600D01*
X166536400Y-78561400D01*
X167463600Y-78561400D01*
X167463600Y-79438600D01*
X167463600Y-79438600D01*
G37*
G36*
X165963600Y-79438600D02*
X165036400Y-79438600D01*
X165036400Y-78561400D01*
X165963600Y-78561400D01*
X165963600Y-79438600D01*
X165963600Y-79438600D01*
G37*
G36*
X153076100Y-78563600D02*
X152698900Y-78563600D01*
X152698900Y-77736400D01*
X153076100Y-77736400D01*
X153076100Y-78563600D01*
X153076100Y-78563600D01*
G37*
G36*
X160938600Y-78563600D02*
X159561400Y-78563600D01*
X159561400Y-77436400D01*
X160938600Y-77436400D01*
X160938600Y-78563600D01*
X160938600Y-78563600D01*
G37*
G36*
X150513600Y-78563600D02*
X149486400Y-78563600D01*
X149486400Y-77936400D01*
X150513600Y-77936400D01*
X150513600Y-78563600D01*
X150513600Y-78563600D01*
G37*
G36*
X152201950Y-77736400D02*
X152576100Y-77736400D01*
X152576100Y-78563600D01*
X152198900Y-78563600D01*
X152198900Y-77739450D01*
X152198427Y-77736119D01*
X152201950Y-77736400D01*
X152201950Y-77736400D01*
G37*
G36*
X153576100Y-78563600D02*
X153198900Y-78563600D01*
X153198900Y-77736400D01*
X153576100Y-77736400D01*
X153576100Y-78563600D01*
X153576100Y-78563600D01*
G37*
G36*
X154576100Y-78563600D02*
X154198900Y-78563600D01*
X154198900Y-77736400D01*
X154576100Y-77736400D01*
X154576100Y-78563600D01*
X154576100Y-78563600D01*
G37*
G36*
X155076100Y-78563600D02*
X154698900Y-78563600D01*
X154698900Y-77736400D01*
X155076100Y-77736400D01*
X155076100Y-78563600D01*
X155076100Y-78563600D01*
G37*
G36*
X155576100Y-78563600D02*
X155198900Y-78563600D01*
X155198900Y-77736400D01*
X155576100Y-77736400D01*
X155576100Y-78563600D01*
X155576100Y-78563600D01*
G37*
G36*
X156076100Y-77739450D02*
X156076100Y-78563600D01*
X155698900Y-78563600D01*
X155698900Y-77736400D01*
X156073050Y-77736400D01*
X156076381Y-77735927D01*
X156076100Y-77739450D01*
X156076100Y-77739450D01*
G37*
G36*
X154076100Y-78563600D02*
X153698900Y-78563600D01*
X153698900Y-77736400D01*
X154076100Y-77736400D01*
X154076100Y-78563600D01*
X154076100Y-78563600D01*
G37*
G36*
X145193600Y-78488600D02*
X142566400Y-78488600D01*
X142566400Y-76931400D01*
X145193600Y-76931400D01*
X145193600Y-78488600D01*
X145193600Y-78488600D01*
G37*
G36*
X147888600Y-78313600D02*
X146111400Y-78313600D01*
X146111400Y-77786400D01*
X147888600Y-77786400D01*
X147888600Y-78313600D01*
X147888600Y-78313600D01*
G37*
G36*
X171713600Y-78188600D02*
X170786400Y-78188600D01*
X170786400Y-77311400D01*
X171713600Y-77311400D01*
X171713600Y-78188600D01*
X171713600Y-78188600D01*
G37*
G36*
X170213600Y-78188600D02*
X169286400Y-78188600D01*
X169286400Y-77311400D01*
X170213600Y-77311400D01*
X170213600Y-78188600D01*
X170213600Y-78188600D01*
G37*
G36*
X158938600Y-77963600D02*
X158061400Y-77963600D01*
X158061400Y-77036400D01*
X158938600Y-77036400D01*
X158938600Y-77963600D01*
X158938600Y-77963600D01*
G37*
G36*
X162463600Y-77938600D02*
X161536400Y-77938600D01*
X161536400Y-77061400D01*
X162463600Y-77061400D01*
X162463600Y-77938600D01*
X162463600Y-77938600D01*
G37*
G36*
X163963600Y-77938600D02*
X163036400Y-77938600D01*
X163036400Y-77061400D01*
X163963600Y-77061400D01*
X163963600Y-77938600D01*
X163963600Y-77938600D01*
G37*
G36*
X156951100Y-77688600D02*
X156126950Y-77688600D01*
X156123619Y-77689073D01*
X156123900Y-77685550D01*
X156123900Y-77311400D01*
X156951100Y-77311400D01*
X156951100Y-77688600D01*
X156951100Y-77688600D01*
G37*
G36*
X152151100Y-77685550D02*
X152151573Y-77688881D01*
X152148050Y-77688600D01*
X151323900Y-77688600D01*
X151323900Y-77311400D01*
X152151100Y-77311400D01*
X152151100Y-77685550D01*
X152151100Y-77685550D01*
G37*
G36*
X166443600Y-77663600D02*
X166056400Y-77663600D01*
X166056400Y-76786400D01*
X166443600Y-76786400D01*
X166443600Y-77663600D01*
X166443600Y-77663600D01*
G37*
G36*
X167443600Y-77663600D02*
X167056400Y-77663600D01*
X167056400Y-76786400D01*
X167443600Y-76786400D01*
X167443600Y-77663600D01*
X167443600Y-77663600D01*
G37*
G36*
X147888600Y-77663600D02*
X146111400Y-77663600D01*
X146111400Y-77136400D01*
X147888600Y-77136400D01*
X147888600Y-77663600D01*
X147888600Y-77663600D01*
G37*
G36*
X166943600Y-77663600D02*
X166556400Y-77663600D01*
X166556400Y-76786400D01*
X166943600Y-76786400D01*
X166943600Y-77663600D01*
X166943600Y-77663600D01*
G37*
G36*
X165943600Y-77663600D02*
X165556400Y-77663600D01*
X165556400Y-76786400D01*
X165943600Y-76786400D01*
X165943600Y-77663600D01*
X165943600Y-77663600D01*
G37*
G36*
X155926100Y-77538600D02*
X152348900Y-77538600D01*
X152348900Y-73961400D01*
X155926100Y-73961400D01*
X155926100Y-77538600D01*
X155926100Y-77538600D01*
G37*
G36*
X152151100Y-77188600D02*
X151323900Y-77188600D01*
X151323900Y-76811400D01*
X152151100Y-76811400D01*
X152151100Y-77188600D01*
X152151100Y-77188600D01*
G37*
G36*
X156951100Y-77188600D02*
X156123900Y-77188600D01*
X156123900Y-76811400D01*
X156951100Y-76811400D01*
X156951100Y-77188600D01*
X156951100Y-77188600D01*
G37*
G36*
X147888600Y-77013600D02*
X146111400Y-77013600D01*
X146111400Y-76486400D01*
X147888600Y-76486400D01*
X147888600Y-77013600D01*
X147888600Y-77013600D01*
G37*
G36*
X165463600Y-76693600D02*
X164586400Y-76693600D01*
X164586400Y-76306400D01*
X165463600Y-76306400D01*
X165463600Y-76693600D01*
X165463600Y-76693600D01*
G37*
G36*
X168413600Y-76693600D02*
X167536400Y-76693600D01*
X167536400Y-76306400D01*
X168413600Y-76306400D01*
X168413600Y-76693600D01*
X168413600Y-76693600D01*
G37*
G36*
X152151100Y-76688600D02*
X151323900Y-76688600D01*
X151323900Y-76311400D01*
X152151100Y-76311400D01*
X152151100Y-76688600D01*
X152151100Y-76688600D01*
G37*
G36*
X156951100Y-76688600D02*
X156123900Y-76688600D01*
X156123900Y-76311400D01*
X156951100Y-76311400D01*
X156951100Y-76688600D01*
X156951100Y-76688600D01*
G37*
G36*
X167388600Y-76638600D02*
X165611400Y-76638600D01*
X165611400Y-74861400D01*
X167388600Y-74861400D01*
X167388600Y-76638600D01*
X167388600Y-76638600D01*
G37*
G36*
X145193600Y-76568600D02*
X142566400Y-76568600D01*
X142566400Y-75011400D01*
X145193600Y-75011400D01*
X145193600Y-76568600D01*
X145193600Y-76568600D01*
G37*
G36*
X160938600Y-76563600D02*
X159561400Y-76563600D01*
X159561400Y-75436400D01*
X160938600Y-75436400D01*
X160938600Y-76563600D01*
X160938600Y-76563600D01*
G37*
G36*
X158938600Y-76463600D02*
X158061400Y-76463600D01*
X158061400Y-75536400D01*
X158938600Y-75536400D01*
X158938600Y-76463600D01*
X158938600Y-76463600D01*
G37*
G36*
X163963600Y-76438600D02*
X163036400Y-76438600D01*
X163036400Y-75561400D01*
X163963600Y-75561400D01*
X163963600Y-76438600D01*
X163963600Y-76438600D01*
G37*
G36*
X162463600Y-76438600D02*
X161536400Y-76438600D01*
X161536400Y-75561400D01*
X162463600Y-75561400D01*
X162463600Y-76438600D01*
X162463600Y-76438600D01*
G37*
G36*
X147888600Y-76363600D02*
X146111400Y-76363600D01*
X146111400Y-75836400D01*
X147888600Y-75836400D01*
X147888600Y-76363600D01*
X147888600Y-76363600D01*
G37*
G36*
X168413600Y-76193600D02*
X167536400Y-76193600D01*
X167536400Y-75806400D01*
X168413600Y-75806400D01*
X168413600Y-76193600D01*
X168413600Y-76193600D01*
G37*
G36*
X165463600Y-76193600D02*
X164586400Y-76193600D01*
X164586400Y-75806400D01*
X165463600Y-75806400D01*
X165463600Y-76193600D01*
X165463600Y-76193600D01*
G37*
G36*
X152151100Y-76188600D02*
X151323900Y-76188600D01*
X151323900Y-75811400D01*
X152151100Y-75811400D01*
X152151100Y-76188600D01*
X152151100Y-76188600D01*
G37*
G36*
X156951100Y-76188600D02*
X156123900Y-76188600D01*
X156123900Y-75811400D01*
X156951100Y-75811400D01*
X156951100Y-76188600D01*
X156951100Y-76188600D01*
G37*
G36*
X147888600Y-75713600D02*
X146111400Y-75713600D01*
X146111400Y-75186400D01*
X147888600Y-75186400D01*
X147888600Y-75713600D01*
X147888600Y-75713600D01*
G37*
G36*
X165463600Y-75693600D02*
X164586400Y-75693600D01*
X164586400Y-75306400D01*
X165463600Y-75306400D01*
X165463600Y-75693600D01*
X165463600Y-75693600D01*
G37*
G36*
X168413600Y-75693600D02*
X167536400Y-75693600D01*
X167536400Y-75306400D01*
X168413600Y-75306400D01*
X168413600Y-75693600D01*
X168413600Y-75693600D01*
G37*
G36*
X156951100Y-75688600D02*
X156123900Y-75688600D01*
X156123900Y-75311400D01*
X156951100Y-75311400D01*
X156951100Y-75688600D01*
X156951100Y-75688600D01*
G37*
G36*
X152151100Y-75688600D02*
X151323900Y-75688600D01*
X151323900Y-75311400D01*
X152151100Y-75311400D01*
X152151100Y-75688600D01*
X152151100Y-75688600D01*
G37*
G36*
X200133379Y-75650467D02*
X199206179Y-75650467D01*
X199206179Y-74773267D01*
X200133379Y-74773267D01*
X200133379Y-75650467D01*
X200133379Y-75650467D01*
G37*
G36*
X201633379Y-75650467D02*
X200706179Y-75650467D01*
X200706179Y-74773267D01*
X201633379Y-74773267D01*
X201633379Y-75650467D01*
X201633379Y-75650467D01*
G37*
G36*
X198533379Y-75650467D02*
X197606179Y-75650467D01*
X197606179Y-74773267D01*
X198533379Y-74773267D01*
X198533379Y-75650467D01*
X198533379Y-75650467D01*
G37*
G36*
X197033379Y-75650467D02*
X196106179Y-75650467D01*
X196106179Y-74773267D01*
X197033379Y-74773267D01*
X197033379Y-75650467D01*
X197033379Y-75650467D01*
G37*
G36*
X165463600Y-75193600D02*
X164586400Y-75193600D01*
X164586400Y-74806400D01*
X165463600Y-74806400D01*
X165463600Y-75193600D01*
X165463600Y-75193600D01*
G37*
G36*
X168413600Y-75193600D02*
X167536400Y-75193600D01*
X167536400Y-74806400D01*
X168413600Y-74806400D01*
X168413600Y-75193600D01*
X168413600Y-75193600D01*
G37*
G36*
X156951100Y-75188600D02*
X156123900Y-75188600D01*
X156123900Y-74811400D01*
X156951100Y-74811400D01*
X156951100Y-75188600D01*
X156951100Y-75188600D01*
G37*
G36*
X152151100Y-75188600D02*
X151323900Y-75188600D01*
X151323900Y-74811400D01*
X152151100Y-74811400D01*
X152151100Y-75188600D01*
X152151100Y-75188600D01*
G37*
G36*
X147330443Y-73716445D02*
X147330448Y-73716446D01*
X147332504Y-73716460D01*
X147451512Y-73729809D01*
X147565660Y-73766019D01*
X147670601Y-73823710D01*
X147762337Y-73900687D01*
X147837376Y-73994015D01*
X147892857Y-74100141D01*
X147926668Y-74215023D01*
X147926671Y-74215051D01*
X147926675Y-74215066D01*
X147937524Y-74334286D01*
X147925013Y-74453329D01*
X147925008Y-74453346D01*
X147925004Y-74453381D01*
X147889592Y-74567780D01*
X147832634Y-74673121D01*
X147756301Y-74765393D01*
X147663498Y-74841080D01*
X147557762Y-74897301D01*
X147443119Y-74931914D01*
X147323937Y-74943600D01*
X146916030Y-74943600D01*
X146909557Y-74943555D01*
X146909552Y-74943554D01*
X146907496Y-74943540D01*
X146788488Y-74930191D01*
X146674340Y-74893981D01*
X146569399Y-74836290D01*
X146477663Y-74759313D01*
X146402624Y-74665985D01*
X146347143Y-74559859D01*
X146313332Y-74444977D01*
X146313329Y-74444949D01*
X146313325Y-74444934D01*
X146302476Y-74325714D01*
X146314987Y-74206671D01*
X146314992Y-74206654D01*
X146314996Y-74206619D01*
X146350408Y-74092220D01*
X146407366Y-73986879D01*
X146483699Y-73894607D01*
X146576502Y-73818920D01*
X146682238Y-73762699D01*
X146796881Y-73728086D01*
X146916063Y-73716400D01*
X147323970Y-73716400D01*
X147330443Y-73716445D01*
X147330443Y-73716445D01*
G37*
G36*
X159413600Y-74938600D02*
X158486400Y-74938600D01*
X158486400Y-74061400D01*
X159413600Y-74061400D01*
X159413600Y-74938600D01*
X159413600Y-74938600D01*
G37*
G36*
X160913600Y-74938600D02*
X159986400Y-74938600D01*
X159986400Y-74061400D01*
X160913600Y-74061400D01*
X160913600Y-74938600D01*
X160913600Y-74938600D01*
G37*
G36*
X165943600Y-74713600D02*
X165556400Y-74713600D01*
X165556400Y-73836400D01*
X165943600Y-73836400D01*
X165943600Y-74713600D01*
X165943600Y-74713600D01*
G37*
G36*
X167443600Y-74713600D02*
X167056400Y-74713600D01*
X167056400Y-73836400D01*
X167443600Y-73836400D01*
X167443600Y-74713600D01*
X167443600Y-74713600D01*
G37*
G36*
X166943600Y-74713600D02*
X166556400Y-74713600D01*
X166556400Y-73836400D01*
X166943600Y-73836400D01*
X166943600Y-74713600D01*
X166943600Y-74713600D01*
G37*
G36*
X166443600Y-74713600D02*
X166056400Y-74713600D01*
X166056400Y-73836400D01*
X166443600Y-73836400D01*
X166443600Y-74713600D01*
X166443600Y-74713600D01*
G37*
G36*
X156951100Y-74688600D02*
X156123900Y-74688600D01*
X156123900Y-74311400D01*
X156951100Y-74311400D01*
X156951100Y-74688600D01*
X156951100Y-74688600D01*
G37*
G36*
X152151100Y-74688600D02*
X151323900Y-74688600D01*
X151323900Y-74311400D01*
X152151100Y-74311400D01*
X152151100Y-74688600D01*
X152151100Y-74688600D01*
G37*
G36*
X144381625Y-73356450D02*
X144381630Y-73356451D01*
X144383686Y-73356465D01*
X144512391Y-73370901D01*
X144635841Y-73410062D01*
X144749333Y-73472455D01*
X144848545Y-73555703D01*
X144929698Y-73656637D01*
X144989700Y-73771411D01*
X145026267Y-73895654D01*
X145026270Y-73895687D01*
X145026273Y-73895697D01*
X145038007Y-74024635D01*
X145024476Y-74153383D01*
X145024471Y-74153400D01*
X145024467Y-74153435D01*
X144986169Y-74277155D01*
X144924570Y-74391080D01*
X144842016Y-74490871D01*
X144741652Y-74572727D01*
X144627299Y-74633529D01*
X144503315Y-74670962D01*
X144374421Y-74683600D01*
X143865547Y-74683600D01*
X143858375Y-74683550D01*
X143858370Y-74683549D01*
X143856314Y-74683535D01*
X143727609Y-74669099D01*
X143604159Y-74629938D01*
X143490667Y-74567545D01*
X143391455Y-74484297D01*
X143310302Y-74383363D01*
X143250300Y-74268589D01*
X143213733Y-74144346D01*
X143213730Y-74144313D01*
X143213727Y-74144303D01*
X143201993Y-74015365D01*
X143215524Y-73886617D01*
X143215529Y-73886600D01*
X143215533Y-73886565D01*
X143253831Y-73762845D01*
X143315430Y-73648920D01*
X143397984Y-73549129D01*
X143498348Y-73467273D01*
X143612701Y-73406471D01*
X143736685Y-73369038D01*
X143865579Y-73356400D01*
X144374452Y-73356400D01*
X144381625Y-73356450D01*
X144381625Y-73356450D01*
G37*
G36*
X184401016Y-74524446D02*
X183773816Y-74524446D01*
X183773816Y-73797246D01*
X184401016Y-73797246D01*
X184401016Y-74524446D01*
X184401016Y-74524446D01*
G37*
G36*
X188341016Y-74513600D02*
X187713816Y-74513600D01*
X187713816Y-73786400D01*
X188341016Y-73786400D01*
X188341016Y-74513600D01*
X188341016Y-74513600D01*
G37*
G36*
X156126950Y-73811400D02*
X156951100Y-73811400D01*
X156951100Y-74188600D01*
X156123900Y-74188600D01*
X156123900Y-73814450D01*
X156123427Y-73811119D01*
X156126950Y-73811400D01*
X156126950Y-73811400D01*
G37*
G36*
X152151100Y-73814450D02*
X152151100Y-74188600D01*
X151323900Y-74188600D01*
X151323900Y-73811400D01*
X152148050Y-73811400D01*
X152151381Y-73810927D01*
X152151100Y-73814450D01*
X152151100Y-73814450D01*
G37*
G36*
X180061016Y-74164446D02*
X179333816Y-74164446D01*
X179333816Y-73537246D01*
X180061016Y-73537246D01*
X180061016Y-74164446D01*
X180061016Y-74164446D01*
G37*
G36*
X181161016Y-74164446D02*
X180433816Y-74164446D01*
X180433816Y-73537246D01*
X181161016Y-73537246D01*
X181161016Y-74164446D01*
X181161016Y-74164446D01*
G37*
G36*
X196833379Y-73875467D02*
X196306179Y-73875467D01*
X196306179Y-73148267D01*
X196833379Y-73148267D01*
X196833379Y-73875467D01*
X196833379Y-73875467D01*
G37*
G36*
X199933379Y-73875467D02*
X199406179Y-73875467D01*
X199406179Y-73148267D01*
X199933379Y-73148267D01*
X199933379Y-73875467D01*
X199933379Y-73875467D01*
G37*
G36*
X200833379Y-73875467D02*
X200306179Y-73875467D01*
X200306179Y-73148267D01*
X200833379Y-73148267D01*
X200833379Y-73875467D01*
X200833379Y-73875467D01*
G37*
G36*
X197933379Y-73875467D02*
X197406179Y-73875467D01*
X197406179Y-73148267D01*
X197933379Y-73148267D01*
X197933379Y-73875467D01*
X197933379Y-73875467D01*
G37*
G36*
X198833379Y-73875467D02*
X198306179Y-73875467D01*
X198306179Y-73148267D01*
X198833379Y-73148267D01*
X198833379Y-73875467D01*
X198833379Y-73875467D01*
G37*
G36*
X195933379Y-73875467D02*
X195406179Y-73875467D01*
X195406179Y-73148267D01*
X195933379Y-73148267D01*
X195933379Y-73875467D01*
X195933379Y-73875467D01*
G37*
G36*
X211813600Y-73788600D02*
X207186400Y-73788600D01*
X207186400Y-71661400D01*
X211813600Y-71661400D01*
X211813600Y-73788600D01*
X211813600Y-73788600D01*
G37*
G36*
X152576100Y-73763600D02*
X152201950Y-73763600D01*
X152198619Y-73764073D01*
X152198900Y-73760550D01*
X152198900Y-72936400D01*
X152576100Y-72936400D01*
X152576100Y-73763600D01*
X152576100Y-73763600D01*
G37*
G36*
X156076100Y-73760550D02*
X156076573Y-73763881D01*
X156073050Y-73763600D01*
X155698900Y-73763600D01*
X155698900Y-72936400D01*
X156076100Y-72936400D01*
X156076100Y-73760550D01*
X156076100Y-73760550D01*
G37*
G36*
X154076100Y-73763600D02*
X153698900Y-73763600D01*
X153698900Y-72936400D01*
X154076100Y-72936400D01*
X154076100Y-73763600D01*
X154076100Y-73763600D01*
G37*
G36*
X153576100Y-73763600D02*
X153198900Y-73763600D01*
X153198900Y-72936400D01*
X153576100Y-72936400D01*
X153576100Y-73763600D01*
X153576100Y-73763600D01*
G37*
G36*
X154576100Y-73763600D02*
X154198900Y-73763600D01*
X154198900Y-72936400D01*
X154576100Y-72936400D01*
X154576100Y-73763600D01*
X154576100Y-73763600D01*
G37*
G36*
X155576100Y-73763600D02*
X155198900Y-73763600D01*
X155198900Y-72936400D01*
X155576100Y-72936400D01*
X155576100Y-73763600D01*
X155576100Y-73763600D01*
G37*
G36*
X153076100Y-73763600D02*
X152698900Y-73763600D01*
X152698900Y-72936400D01*
X153076100Y-72936400D01*
X153076100Y-73763600D01*
X153076100Y-73763600D01*
G37*
G36*
X155076100Y-73763600D02*
X154698900Y-73763600D01*
X154698900Y-72936400D01*
X155076100Y-72936400D01*
X155076100Y-73763600D01*
X155076100Y-73763600D01*
G37*
G36*
X170213600Y-73688600D02*
X169286400Y-73688600D01*
X169286400Y-72811400D01*
X170213600Y-72811400D01*
X170213600Y-73688600D01*
X170213600Y-73688600D01*
G37*
G36*
X171713600Y-73688600D02*
X170786400Y-73688600D01*
X170786400Y-72811400D01*
X171713600Y-72811400D01*
X171713600Y-73688600D01*
X171713600Y-73688600D01*
G37*
G36*
X176946016Y-73494446D02*
X176068816Y-73494446D01*
X176068816Y-72567246D01*
X176946016Y-72567246D01*
X176946016Y-73494446D01*
X176946016Y-73494446D01*
G37*
G36*
X184401016Y-73424446D02*
X183773816Y-73424446D01*
X183773816Y-72697246D01*
X184401016Y-72697246D01*
X184401016Y-73424446D01*
X184401016Y-73424446D01*
G37*
G36*
X188341016Y-73413600D02*
X187713816Y-73413600D01*
X187713816Y-72686400D01*
X188341016Y-72686400D01*
X188341016Y-73413600D01*
X188341016Y-73413600D01*
G37*
G36*
X191091016Y-73384446D02*
X190363816Y-73384446D01*
X190363816Y-72757246D01*
X191091016Y-72757246D01*
X191091016Y-73384446D01*
X191091016Y-73384446D01*
G37*
G36*
X189991016Y-73384446D02*
X189263816Y-73384446D01*
X189263816Y-72757246D01*
X189991016Y-72757246D01*
X189991016Y-73384446D01*
X189991016Y-73384446D01*
G37*
G36*
X187081016Y-73374446D02*
X186353816Y-73374446D01*
X186353816Y-72747246D01*
X187081016Y-72747246D01*
X187081016Y-73374446D01*
X187081016Y-73374446D01*
G37*
G36*
X185981016Y-73374446D02*
X185253816Y-73374446D01*
X185253816Y-72747246D01*
X185981016Y-72747246D01*
X185981016Y-73374446D01*
X185981016Y-73374446D01*
G37*
G36*
X167563600Y-73263600D02*
X166936400Y-73263600D01*
X166936400Y-72236400D01*
X167563600Y-72236400D01*
X167563600Y-73263600D01*
X167563600Y-73263600D01*
G37*
G36*
X166063600Y-73263600D02*
X165436400Y-73263600D01*
X165436400Y-72236400D01*
X166063600Y-72236400D01*
X166063600Y-73263600D01*
X166063600Y-73263600D01*
G37*
G36*
X162313600Y-73263600D02*
X161686400Y-73263600D01*
X161686400Y-72236400D01*
X162313600Y-72236400D01*
X162313600Y-73263600D01*
X162313600Y-73263600D01*
G37*
G36*
X163813600Y-73263600D02*
X163186400Y-73263600D01*
X163186400Y-72236400D01*
X163813600Y-72236400D01*
X163813600Y-73263600D01*
X163813600Y-73263600D01*
G37*
G36*
X178441016Y-72994446D02*
X177813816Y-72994446D01*
X177813816Y-72267246D01*
X178441016Y-72267246D01*
X178441016Y-72994446D01*
X178441016Y-72994446D01*
G37*
G36*
X181981016Y-72519446D02*
X180203816Y-72519446D01*
X180203816Y-70012246D01*
X181981016Y-70012246D01*
X181981016Y-72519446D01*
X181981016Y-72519446D01*
G37*
G36*
X197133379Y-72425467D02*
X196406179Y-72425467D01*
X196406179Y-71798267D01*
X197133379Y-71798267D01*
X197133379Y-72425467D01*
X197133379Y-72425467D01*
G37*
G36*
X196033379Y-72425467D02*
X195306179Y-72425467D01*
X195306179Y-71798267D01*
X196033379Y-71798267D01*
X196033379Y-72425467D01*
X196033379Y-72425467D01*
G37*
G36*
X199833379Y-72425467D02*
X199106179Y-72425467D01*
X199106179Y-71798267D01*
X199833379Y-71798267D01*
X199833379Y-72425467D01*
X199833379Y-72425467D01*
G37*
G36*
X200933379Y-72425467D02*
X200206179Y-72425467D01*
X200206179Y-71798267D01*
X200933379Y-71798267D01*
X200933379Y-72425467D01*
X200933379Y-72425467D01*
G37*
G36*
X171563600Y-72263600D02*
X170936400Y-72263600D01*
X170936400Y-71236400D01*
X171563600Y-71236400D01*
X171563600Y-72263600D01*
X171563600Y-72263600D01*
G37*
G36*
X170063600Y-72263600D02*
X169436400Y-72263600D01*
X169436400Y-71236400D01*
X170063600Y-71236400D01*
X170063600Y-72263600D01*
X170063600Y-72263600D01*
G37*
G36*
X180093516Y-72204446D02*
X179291316Y-72204446D01*
X179291316Y-71827246D01*
X180093516Y-71827246D01*
X180093516Y-72204446D01*
X180093516Y-72204446D01*
G37*
G36*
X182893516Y-72204446D02*
X182091316Y-72204446D01*
X182091316Y-71827246D01*
X182893516Y-71827246D01*
X182893516Y-72204446D01*
X182893516Y-72204446D01*
G37*
G36*
X154563600Y-72013600D02*
X153936400Y-72013600D01*
X153936400Y-70986400D01*
X154563600Y-70986400D01*
X154563600Y-72013600D01*
X154563600Y-72013600D01*
G37*
G36*
X156063600Y-72013600D02*
X155436400Y-72013600D01*
X155436400Y-70986400D01*
X156063600Y-70986400D01*
X156063600Y-72013600D01*
X156063600Y-72013600D01*
G37*
G36*
X176946016Y-71994446D02*
X176068816Y-71994446D01*
X176068816Y-71067246D01*
X176946016Y-71067246D01*
X176946016Y-71994446D01*
X176946016Y-71994446D01*
G37*
G36*
X147863600Y-71988600D02*
X146736400Y-71988600D01*
X146736400Y-70611400D01*
X147863600Y-70611400D01*
X147863600Y-71988600D01*
X147863600Y-71988600D01*
G37*
G36*
X145863600Y-71988600D02*
X144736400Y-71988600D01*
X144736400Y-70611400D01*
X145863600Y-70611400D01*
X145863600Y-71988600D01*
X145863600Y-71988600D01*
G37*
G36*
X153213600Y-71938600D02*
X152286400Y-71938600D01*
X152286400Y-71061400D01*
X153213600Y-71061400D01*
X153213600Y-71938600D01*
X153213600Y-71938600D01*
G37*
G36*
X151713600Y-71938600D02*
X150786400Y-71938600D01*
X150786400Y-71061400D01*
X151713600Y-71061400D01*
X151713600Y-71938600D01*
X151713600Y-71938600D01*
G37*
G36*
X178441016Y-71894446D02*
X177813816Y-71894446D01*
X177813816Y-71167246D01*
X178441016Y-71167246D01*
X178441016Y-71894446D01*
X178441016Y-71894446D01*
G37*
G36*
X182893516Y-71704446D02*
X182091316Y-71704446D01*
X182091316Y-71327246D01*
X182893516Y-71327246D01*
X182893516Y-71704446D01*
X182893516Y-71704446D01*
G37*
G36*
X180093516Y-71704446D02*
X179291316Y-71704446D01*
X179291316Y-71327246D01*
X180093516Y-71327246D01*
X180093516Y-71704446D01*
X180093516Y-71704446D01*
G37*
G36*
X189341016Y-71514446D02*
X188913816Y-71514446D01*
X188913816Y-70587246D01*
X189341016Y-70587246D01*
X189341016Y-71514446D01*
X189341016Y-71514446D01*
G37*
G36*
X188691016Y-71514446D02*
X188263816Y-71514446D01*
X188263816Y-70587246D01*
X188691016Y-70587246D01*
X188691016Y-71514446D01*
X188691016Y-71514446D01*
G37*
G36*
X188041016Y-71514446D02*
X187613816Y-71514446D01*
X187613816Y-70587246D01*
X188041016Y-70587246D01*
X188041016Y-71514446D01*
X188041016Y-71514446D01*
G37*
G36*
X185571016Y-71444446D02*
X184843816Y-71444446D01*
X184843816Y-70817246D01*
X185571016Y-70817246D01*
X185571016Y-71444446D01*
X185571016Y-71444446D01*
G37*
G36*
X184471016Y-71444446D02*
X183743816Y-71444446D01*
X183743816Y-70817246D01*
X184471016Y-70817246D01*
X184471016Y-71444446D01*
X184471016Y-71444446D01*
G37*
G36*
X186841016Y-71414446D02*
X186213816Y-71414446D01*
X186213816Y-70687246D01*
X186841016Y-70687246D01*
X186841016Y-71414446D01*
X186841016Y-71414446D01*
G37*
G36*
X162513600Y-71313600D02*
X161486400Y-71313600D01*
X161486400Y-70686400D01*
X162513600Y-70686400D01*
X162513600Y-71313600D01*
X162513600Y-71313600D01*
G37*
G36*
X160013600Y-71313600D02*
X158986400Y-71313600D01*
X158986400Y-70686400D01*
X160013600Y-70686400D01*
X160013600Y-71313600D01*
X160013600Y-71313600D01*
G37*
G36*
X157513600Y-71313600D02*
X156486400Y-71313600D01*
X156486400Y-70686400D01*
X157513600Y-70686400D01*
X157513600Y-71313600D01*
X157513600Y-71313600D01*
G37*
G36*
X182893516Y-71204446D02*
X182091316Y-71204446D01*
X182091316Y-70827246D01*
X182893516Y-70827246D01*
X182893516Y-71204446D01*
X182893516Y-71204446D01*
G37*
G36*
X180093516Y-71204446D02*
X179291316Y-71204446D01*
X179291316Y-70827246D01*
X180093516Y-70827246D01*
X180093516Y-71204446D01*
X180093516Y-71204446D01*
G37*
G36*
X195983379Y-71125467D02*
X195356179Y-71125467D01*
X195356179Y-70398267D01*
X195983379Y-70398267D01*
X195983379Y-71125467D01*
X195983379Y-71125467D01*
G37*
G36*
X200883379Y-71125467D02*
X200256179Y-71125467D01*
X200256179Y-70398267D01*
X200883379Y-70398267D01*
X200883379Y-71125467D01*
X200883379Y-71125467D01*
G37*
G36*
X182893516Y-70704446D02*
X182091316Y-70704446D01*
X182091316Y-70327246D01*
X182893516Y-70327246D01*
X182893516Y-70704446D01*
X182893516Y-70704446D01*
G37*
G36*
X180093516Y-70704446D02*
X179291316Y-70704446D01*
X179291316Y-70327246D01*
X180093516Y-70327246D01*
X180093516Y-70704446D01*
X180093516Y-70704446D01*
G37*
G36*
X199333379Y-70350467D02*
X198756179Y-70350467D01*
X198756179Y-69973267D01*
X199333379Y-69973267D01*
X199333379Y-70350467D01*
X199333379Y-70350467D01*
G37*
G36*
X197583379Y-70350467D02*
X197006179Y-70350467D01*
X197006179Y-69973267D01*
X197583379Y-69973267D01*
X197583379Y-70350467D01*
X197583379Y-70350467D01*
G37*
G36*
X186841016Y-70314446D02*
X186213816Y-70314446D01*
X186213816Y-69587246D01*
X186841016Y-69587246D01*
X186841016Y-70314446D01*
X186841016Y-70314446D01*
G37*
G36*
X211813600Y-70238600D02*
X208686400Y-70238600D01*
X208686400Y-69261400D01*
X211813600Y-69261400D01*
X211813600Y-70238600D01*
X211813600Y-70238600D01*
G37*
G36*
X189341016Y-70214446D02*
X188913816Y-70214446D01*
X188913816Y-69287246D01*
X189341016Y-69287246D01*
X189341016Y-70214446D01*
X189341016Y-70214446D01*
G37*
G36*
X188691016Y-70214446D02*
X188263816Y-70214446D01*
X188263816Y-69287246D01*
X188691016Y-69287246D01*
X188691016Y-70214446D01*
X188691016Y-70214446D01*
G37*
G36*
X188041016Y-70214446D02*
X187613816Y-70214446D01*
X187613816Y-69287246D01*
X188041016Y-69287246D01*
X188041016Y-70214446D01*
X188041016Y-70214446D01*
G37*
G36*
X184471016Y-70184446D02*
X183743816Y-70184446D01*
X183743816Y-69557246D01*
X184471016Y-69557246D01*
X184471016Y-70184446D01*
X184471016Y-70184446D01*
G37*
G36*
X185571016Y-70184446D02*
X184843816Y-70184446D01*
X184843816Y-69557246D01*
X185571016Y-69557246D01*
X185571016Y-70184446D01*
X185571016Y-70184446D01*
G37*
G36*
X146013600Y-70088600D02*
X145086400Y-70088600D01*
X145086400Y-69211400D01*
X146013600Y-69211400D01*
X146013600Y-70088600D01*
X146013600Y-70088600D01*
G37*
G36*
X147513600Y-70088600D02*
X146586400Y-70088600D01*
X146586400Y-69211400D01*
X147513600Y-69211400D01*
X147513600Y-70088600D01*
X147513600Y-70088600D01*
G37*
G36*
X198569879Y-70061967D02*
X197769679Y-70061967D01*
X197769679Y-69761767D01*
X198569879Y-69761767D01*
X198569879Y-70061967D01*
X198569879Y-70061967D01*
G37*
G36*
X195983379Y-70025467D02*
X195356179Y-70025467D01*
X195356179Y-69298267D01*
X195983379Y-69298267D01*
X195983379Y-70025467D01*
X195983379Y-70025467D01*
G37*
G36*
X200883379Y-70025467D02*
X200256179Y-70025467D01*
X200256179Y-69298267D01*
X200883379Y-69298267D01*
X200883379Y-70025467D01*
X200883379Y-70025467D01*
G37*
G36*
X204063600Y-69975467D02*
X203336400Y-69975467D01*
X203336400Y-69348267D01*
X204063600Y-69348267D01*
X204063600Y-69975467D01*
X204063600Y-69975467D01*
G37*
G36*
X194433379Y-69975467D02*
X193706179Y-69975467D01*
X193706179Y-69348267D01*
X194433379Y-69348267D01*
X194433379Y-69975467D01*
X194433379Y-69975467D01*
G37*
G36*
X193333379Y-69975467D02*
X192606179Y-69975467D01*
X192606179Y-69348267D01*
X193333379Y-69348267D01*
X193333379Y-69975467D01*
X193333379Y-69975467D01*
G37*
G36*
X205163600Y-69975467D02*
X204436400Y-69975467D01*
X204436400Y-69348267D01*
X205163600Y-69348267D01*
X205163600Y-69975467D01*
X205163600Y-69975467D01*
G37*
G36*
X178613600Y-69963600D02*
X177886400Y-69963600D01*
X177886400Y-69436400D01*
X178613600Y-69436400D01*
X178613600Y-69963600D01*
X178613600Y-69963600D01*
G37*
G36*
X176863600Y-69963600D02*
X176136400Y-69963600D01*
X176136400Y-69436400D01*
X176863600Y-69436400D01*
X176863600Y-69963600D01*
X176863600Y-69963600D01*
G37*
G36*
X199333379Y-69850467D02*
X198756179Y-69850467D01*
X198756179Y-69473267D01*
X199333379Y-69473267D01*
X199333379Y-69850467D01*
X199333379Y-69850467D01*
G37*
G36*
X197583379Y-69850467D02*
X197006179Y-69850467D01*
X197006179Y-69473267D01*
X197583379Y-69473267D01*
X197583379Y-69850467D01*
X197583379Y-69850467D01*
G37*
G36*
X171563600Y-69838600D02*
X169936400Y-69838600D01*
X169936400Y-68861400D01*
X171563600Y-68861400D01*
X171563600Y-69838600D01*
X171563600Y-69838600D01*
G37*
G36*
X166063600Y-69838600D02*
X164436400Y-69838600D01*
X164436400Y-68861400D01*
X166063600Y-68861400D01*
X166063600Y-69838600D01*
X166063600Y-69838600D01*
G37*
G36*
X149813600Y-69838600D02*
X148186400Y-69838600D01*
X148186400Y-68861400D01*
X149813600Y-68861400D01*
X149813600Y-69838600D01*
X149813600Y-69838600D01*
G37*
G36*
X155313600Y-69838600D02*
X153686400Y-69838600D01*
X153686400Y-68861400D01*
X155313600Y-68861400D01*
X155313600Y-69838600D01*
X155313600Y-69838600D01*
G37*
G36*
X157513600Y-69813600D02*
X156486400Y-69813600D01*
X156486400Y-69186400D01*
X157513600Y-69186400D01*
X157513600Y-69813600D01*
X157513600Y-69813600D01*
G37*
G36*
X162513600Y-69813600D02*
X161486400Y-69813600D01*
X161486400Y-69186400D01*
X162513600Y-69186400D01*
X162513600Y-69813600D01*
X162513600Y-69813600D01*
G37*
G36*
X160013600Y-69813600D02*
X158986400Y-69813600D01*
X158986400Y-69186400D01*
X160013600Y-69186400D01*
X160013600Y-69813600D01*
X160013600Y-69813600D01*
G37*
G36*
X198569879Y-69561967D02*
X197769679Y-69561967D01*
X197769679Y-69261767D01*
X198569879Y-69261767D01*
X198569879Y-69561967D01*
X198569879Y-69561967D01*
G37*
G36*
X197583379Y-69350467D02*
X197006179Y-69350467D01*
X197006179Y-68973267D01*
X197583379Y-68973267D01*
X197583379Y-69350467D01*
X197583379Y-69350467D01*
G37*
G36*
X199333379Y-69350467D02*
X198756179Y-69350467D01*
X198756179Y-68973267D01*
X199333379Y-68973267D01*
X199333379Y-69350467D01*
X199333379Y-69350467D01*
G37*
G36*
X176863600Y-69063600D02*
X176136400Y-69063600D01*
X176136400Y-68536400D01*
X176863600Y-68536400D01*
X176863600Y-69063600D01*
X176863600Y-69063600D01*
G37*
G36*
X178613600Y-69063600D02*
X177886400Y-69063600D01*
X177886400Y-68536400D01*
X178613600Y-68536400D01*
X178613600Y-69063600D01*
X178613600Y-69063600D01*
G37*
G36*
X198569879Y-69061967D02*
X197769679Y-69061967D01*
X197769679Y-68761767D01*
X198569879Y-68761767D01*
X198569879Y-69061967D01*
X198569879Y-69061967D01*
G37*
G36*
X199333379Y-68850467D02*
X198756179Y-68850467D01*
X198756179Y-68473267D01*
X199333379Y-68473267D01*
X199333379Y-68850467D01*
X199333379Y-68850467D01*
G37*
G36*
X197583379Y-68850467D02*
X197006179Y-68850467D01*
X197006179Y-68473267D01*
X197583379Y-68473267D01*
X197583379Y-68850467D01*
X197583379Y-68850467D01*
G37*
G36*
X187813600Y-68563600D02*
X187286400Y-68563600D01*
X187286400Y-67836400D01*
X187813600Y-67836400D01*
X187813600Y-68563600D01*
X187813600Y-68563600D01*
G37*
G36*
X188713600Y-68563600D02*
X188186400Y-68563600D01*
X188186400Y-67836400D01*
X188713600Y-67836400D01*
X188713600Y-68563600D01*
X188713600Y-68563600D01*
G37*
G36*
X159963600Y-68513600D02*
X159036400Y-68513600D01*
X159036400Y-67586400D01*
X159963600Y-67586400D01*
X159963600Y-68513600D01*
X159963600Y-68513600D01*
G37*
G36*
X157463600Y-68513600D02*
X156536400Y-68513600D01*
X156536400Y-67586400D01*
X157463600Y-67586400D01*
X157463600Y-68513600D01*
X157463600Y-68513600D01*
G37*
G36*
X162463600Y-68513600D02*
X161536400Y-68513600D01*
X161536400Y-67586400D01*
X162463600Y-67586400D01*
X162463600Y-68513600D01*
X162463600Y-68513600D01*
G37*
G36*
X211813600Y-67838600D02*
X207186400Y-67838600D01*
X207186400Y-65711400D01*
X211813600Y-65711400D01*
X211813600Y-67838600D01*
X211813600Y-67838600D01*
G37*
G36*
X157463600Y-66913600D02*
X156536400Y-66913600D01*
X156536400Y-65986400D01*
X157463600Y-65986400D01*
X157463600Y-66913600D01*
X157463600Y-66913600D01*
G37*
G36*
X159963600Y-66913600D02*
X159036400Y-66913600D01*
X159036400Y-65986400D01*
X159963600Y-65986400D01*
X159963600Y-66913600D01*
X159963600Y-66913600D01*
G37*
G36*
X162463600Y-66913600D02*
X161536400Y-66913600D01*
X161536400Y-65986400D01*
X162463600Y-65986400D01*
X162463600Y-66913600D01*
X162463600Y-66913600D01*
G37*
G36*
X155313600Y-66138600D02*
X153686400Y-66138600D01*
X153686400Y-65161400D01*
X155313600Y-65161400D01*
X155313600Y-66138600D01*
X155313600Y-66138600D01*
G37*
G36*
X166063600Y-66138600D02*
X164436400Y-66138600D01*
X164436400Y-65161400D01*
X166063600Y-65161400D01*
X166063600Y-66138600D01*
X166063600Y-66138600D01*
G37*
G36*
X171563600Y-66138600D02*
X169936400Y-66138600D01*
X169936400Y-65161400D01*
X171563600Y-65161400D01*
X171563600Y-66138600D01*
X171563600Y-66138600D01*
G37*
G36*
X149813600Y-66138600D02*
X148186400Y-66138600D01*
X148186400Y-65161400D01*
X149813600Y-65161400D01*
X149813600Y-66138600D01*
X149813600Y-66138600D01*
G37*
M02*
