G04 #@! TF.FileFunction,Soldermask,Bot*
%FSLAX46Y46*%
G04 Gerber Fmt 4.6, Leading zero omitted, Abs format (unit mm)*
G04 Created by KiCad (PCBNEW 4.0.5-e0-6337~49~ubuntu14.04.1) date Tue Feb 21 17:31:46 2017*
%MOMM*%
%LPD*%
G01*
G04 APERTURE LIST*
%ADD10C,0.100000*%
G04 APERTURE END LIST*
D10*
G36*
X211844000Y-91064000D02*
X207156000Y-91064000D01*
X207156000Y-88936000D01*
X211844000Y-88936000D01*
X211844000Y-91064000D01*
X211844000Y-91064000D01*
G37*
G36*
X123183735Y-88100238D02*
X123183748Y-88100242D01*
X123183785Y-88100246D01*
X123354189Y-88152995D01*
X123511102Y-88237838D01*
X123648548Y-88351542D01*
X123761290Y-88489778D01*
X123845035Y-88647280D01*
X123896593Y-88818048D01*
X123914000Y-88995578D01*
X123914000Y-89004422D01*
X123913911Y-89017183D01*
X123894027Y-89194453D01*
X123840090Y-89364485D01*
X123754154Y-89520802D01*
X123639492Y-89657450D01*
X123500473Y-89769225D01*
X123342390Y-89851868D01*
X123171267Y-89902233D01*
X123171233Y-89902236D01*
X123171220Y-89902240D01*
X122993621Y-89918403D01*
X122816265Y-89899762D01*
X122816252Y-89899758D01*
X122816215Y-89899754D01*
X122645811Y-89847005D01*
X122488898Y-89762162D01*
X122351452Y-89648458D01*
X122238710Y-89510222D01*
X122154965Y-89352720D01*
X122103407Y-89181952D01*
X122086000Y-89004422D01*
X122086000Y-88995578D01*
X122086089Y-88982817D01*
X122105973Y-88805547D01*
X122159910Y-88635515D01*
X122245846Y-88479198D01*
X122360508Y-88342550D01*
X122499527Y-88230775D01*
X122657610Y-88148132D01*
X122828733Y-88097767D01*
X122828767Y-88097764D01*
X122828780Y-88097760D01*
X123006379Y-88081597D01*
X123183735Y-88100238D01*
X123183735Y-88100238D01*
G37*
G36*
X142723735Y-88100238D02*
X142723748Y-88100242D01*
X142723785Y-88100246D01*
X142894189Y-88152995D01*
X143051102Y-88237838D01*
X143188548Y-88351542D01*
X143301290Y-88489778D01*
X143385035Y-88647280D01*
X143436593Y-88818048D01*
X143454000Y-88995578D01*
X143454000Y-89004422D01*
X143453911Y-89017183D01*
X143434027Y-89194453D01*
X143380090Y-89364485D01*
X143294154Y-89520802D01*
X143179492Y-89657450D01*
X143040473Y-89769225D01*
X142882390Y-89851868D01*
X142711267Y-89902233D01*
X142711233Y-89902236D01*
X142711220Y-89902240D01*
X142533621Y-89918403D01*
X142356265Y-89899762D01*
X142356252Y-89899758D01*
X142356215Y-89899754D01*
X142185811Y-89847005D01*
X142028898Y-89762162D01*
X141891452Y-89648458D01*
X141778710Y-89510222D01*
X141694965Y-89352720D01*
X141643407Y-89181952D01*
X141626000Y-89004422D01*
X141626000Y-88995578D01*
X141626089Y-88982817D01*
X141645973Y-88805547D01*
X141699910Y-88635515D01*
X141785846Y-88479198D01*
X141900508Y-88342550D01*
X142039527Y-88230775D01*
X142197610Y-88148132D01*
X142368733Y-88097767D01*
X142368767Y-88097764D01*
X142368780Y-88097760D01*
X142546379Y-88081597D01*
X142723735Y-88100238D01*
X142723735Y-88100238D01*
G37*
G36*
X140183735Y-88100238D02*
X140183748Y-88100242D01*
X140183785Y-88100246D01*
X140354189Y-88152995D01*
X140511102Y-88237838D01*
X140648548Y-88351542D01*
X140761290Y-88489778D01*
X140845035Y-88647280D01*
X140896593Y-88818048D01*
X140914000Y-88995578D01*
X140914000Y-89004422D01*
X140913911Y-89017183D01*
X140894027Y-89194453D01*
X140840090Y-89364485D01*
X140754154Y-89520802D01*
X140639492Y-89657450D01*
X140500473Y-89769225D01*
X140342390Y-89851868D01*
X140171267Y-89902233D01*
X140171233Y-89902236D01*
X140171220Y-89902240D01*
X139993621Y-89918403D01*
X139816265Y-89899762D01*
X139816252Y-89899758D01*
X139816215Y-89899754D01*
X139645811Y-89847005D01*
X139488898Y-89762162D01*
X139351452Y-89648458D01*
X139238710Y-89510222D01*
X139154965Y-89352720D01*
X139103407Y-89181952D01*
X139086000Y-89004422D01*
X139086000Y-88995578D01*
X139086089Y-88982817D01*
X139105973Y-88805547D01*
X139159910Y-88635515D01*
X139245846Y-88479198D01*
X139360508Y-88342550D01*
X139499527Y-88230775D01*
X139657610Y-88148132D01*
X139828733Y-88097767D01*
X139828767Y-88097764D01*
X139828780Y-88097760D01*
X140006379Y-88081597D01*
X140183735Y-88100238D01*
X140183735Y-88100238D01*
G37*
G36*
X128263735Y-88100238D02*
X128263748Y-88100242D01*
X128263785Y-88100246D01*
X128434189Y-88152995D01*
X128591102Y-88237838D01*
X128728548Y-88351542D01*
X128841290Y-88489778D01*
X128925035Y-88647280D01*
X128976593Y-88818048D01*
X128994000Y-88995578D01*
X128994000Y-89004422D01*
X128993911Y-89017183D01*
X128974027Y-89194453D01*
X128920090Y-89364485D01*
X128834154Y-89520802D01*
X128719492Y-89657450D01*
X128580473Y-89769225D01*
X128422390Y-89851868D01*
X128251267Y-89902233D01*
X128251233Y-89902236D01*
X128251220Y-89902240D01*
X128073621Y-89918403D01*
X127896265Y-89899762D01*
X127896252Y-89899758D01*
X127896215Y-89899754D01*
X127725811Y-89847005D01*
X127568898Y-89762162D01*
X127431452Y-89648458D01*
X127318710Y-89510222D01*
X127234965Y-89352720D01*
X127183407Y-89181952D01*
X127166000Y-89004422D01*
X127166000Y-88995578D01*
X127166089Y-88982817D01*
X127185973Y-88805547D01*
X127239910Y-88635515D01*
X127325846Y-88479198D01*
X127440508Y-88342550D01*
X127579527Y-88230775D01*
X127737610Y-88148132D01*
X127908733Y-88097767D01*
X127908767Y-88097764D01*
X127908780Y-88097760D01*
X128086379Y-88081597D01*
X128263735Y-88100238D01*
X128263735Y-88100238D01*
G37*
G36*
X137643735Y-88100238D02*
X137643748Y-88100242D01*
X137643785Y-88100246D01*
X137814189Y-88152995D01*
X137971102Y-88237838D01*
X138108548Y-88351542D01*
X138221290Y-88489778D01*
X138305035Y-88647280D01*
X138356593Y-88818048D01*
X138374000Y-88995578D01*
X138374000Y-89004422D01*
X138373911Y-89017183D01*
X138354027Y-89194453D01*
X138300090Y-89364485D01*
X138214154Y-89520802D01*
X138099492Y-89657450D01*
X137960473Y-89769225D01*
X137802390Y-89851868D01*
X137631267Y-89902233D01*
X137631233Y-89902236D01*
X137631220Y-89902240D01*
X137453621Y-89918403D01*
X137276265Y-89899762D01*
X137276252Y-89899758D01*
X137276215Y-89899754D01*
X137105811Y-89847005D01*
X136948898Y-89762162D01*
X136811452Y-89648458D01*
X136698710Y-89510222D01*
X136614965Y-89352720D01*
X136563407Y-89181952D01*
X136546000Y-89004422D01*
X136546000Y-88995578D01*
X136546089Y-88982817D01*
X136565973Y-88805547D01*
X136619910Y-88635515D01*
X136705846Y-88479198D01*
X136820508Y-88342550D01*
X136959527Y-88230775D01*
X137117610Y-88148132D01*
X137288733Y-88097767D01*
X137288767Y-88097764D01*
X137288780Y-88097760D01*
X137466379Y-88081597D01*
X137643735Y-88100238D01*
X137643735Y-88100238D01*
G37*
G36*
X125723735Y-88100238D02*
X125723748Y-88100242D01*
X125723785Y-88100246D01*
X125894189Y-88152995D01*
X126051102Y-88237838D01*
X126188548Y-88351542D01*
X126301290Y-88489778D01*
X126385035Y-88647280D01*
X126436593Y-88818048D01*
X126454000Y-88995578D01*
X126454000Y-89004422D01*
X126453911Y-89017183D01*
X126434027Y-89194453D01*
X126380090Y-89364485D01*
X126294154Y-89520802D01*
X126179492Y-89657450D01*
X126040473Y-89769225D01*
X125882390Y-89851868D01*
X125711267Y-89902233D01*
X125711233Y-89902236D01*
X125711220Y-89902240D01*
X125533621Y-89918403D01*
X125356265Y-89899762D01*
X125356252Y-89899758D01*
X125356215Y-89899754D01*
X125185811Y-89847005D01*
X125028898Y-89762162D01*
X124891452Y-89648458D01*
X124778710Y-89510222D01*
X124694965Y-89352720D01*
X124643407Y-89181952D01*
X124626000Y-89004422D01*
X124626000Y-88995578D01*
X124626089Y-88982817D01*
X124645973Y-88805547D01*
X124699910Y-88635515D01*
X124785846Y-88479198D01*
X124900508Y-88342550D01*
X125039527Y-88230775D01*
X125197610Y-88148132D01*
X125368733Y-88097767D01*
X125368767Y-88097764D01*
X125368780Y-88097760D01*
X125546379Y-88081597D01*
X125723735Y-88100238D01*
X125723735Y-88100238D01*
G37*
G36*
X135834000Y-89914000D02*
X134006000Y-89914000D01*
X134006000Y-88086000D01*
X135834000Y-88086000D01*
X135834000Y-89914000D01*
X135834000Y-89914000D01*
G37*
G36*
X121374000Y-89914000D02*
X119546000Y-89914000D01*
X119546000Y-88086000D01*
X121374000Y-88086000D01*
X121374000Y-89914000D01*
X121374000Y-89914000D01*
G37*
G36*
X211844000Y-82564000D02*
X207156000Y-82564000D01*
X207156000Y-80436000D01*
X211844000Y-80436000D01*
X211844000Y-82564000D01*
X211844000Y-82564000D01*
G37*
G36*
X120128412Y-80066028D02*
X120133693Y-80066065D01*
X120262475Y-80080510D01*
X120385999Y-80119694D01*
X120499560Y-80182125D01*
X120598832Y-80265424D01*
X120680034Y-80366418D01*
X120740072Y-80481261D01*
X120776661Y-80605579D01*
X120776664Y-80605613D01*
X120776668Y-80605626D01*
X120788409Y-80734634D01*
X120774868Y-80863466D01*
X120774864Y-80863479D01*
X120774860Y-80863516D01*
X120736539Y-80987310D01*
X120674903Y-81101304D01*
X120592299Y-81201155D01*
X120491874Y-81283060D01*
X120377453Y-81343899D01*
X120253394Y-81381354D01*
X120124422Y-81394000D01*
X119615545Y-81394000D01*
X119611588Y-81393972D01*
X119606307Y-81393935D01*
X119477525Y-81379490D01*
X119354001Y-81340306D01*
X119240440Y-81277875D01*
X119141168Y-81194576D01*
X119059966Y-81093582D01*
X118999928Y-80978739D01*
X118963339Y-80854421D01*
X118963336Y-80854387D01*
X118963332Y-80854374D01*
X118951591Y-80725366D01*
X118965132Y-80596534D01*
X118965136Y-80596521D01*
X118965140Y-80596484D01*
X119003461Y-80472690D01*
X119065097Y-80358696D01*
X119147701Y-80258845D01*
X119248126Y-80176940D01*
X119362547Y-80116101D01*
X119486606Y-80078646D01*
X119615578Y-80066000D01*
X120124455Y-80066000D01*
X120128412Y-80066028D01*
X120128412Y-80066028D01*
G37*
G36*
X123077816Y-79806027D02*
X123082512Y-79806060D01*
X123201597Y-79819417D01*
X123315819Y-79855651D01*
X123420829Y-79913380D01*
X123512625Y-79990407D01*
X123587712Y-80083796D01*
X123643230Y-80189992D01*
X123677063Y-80304948D01*
X123677066Y-80304977D01*
X123677071Y-80304995D01*
X123687927Y-80424285D01*
X123675406Y-80543412D01*
X123675402Y-80543425D01*
X123675398Y-80543462D01*
X123639963Y-80657935D01*
X123582968Y-80763344D01*
X123506584Y-80855676D01*
X123413721Y-80931414D01*
X123307916Y-80987671D01*
X123193199Y-81022306D01*
X123073939Y-81034000D01*
X122666027Y-81034000D01*
X122662184Y-81033973D01*
X122657488Y-81033940D01*
X122538403Y-81020583D01*
X122424181Y-80984349D01*
X122319171Y-80926620D01*
X122227375Y-80849593D01*
X122152288Y-80756204D01*
X122096770Y-80650008D01*
X122062937Y-80535052D01*
X122062934Y-80535023D01*
X122062929Y-80535005D01*
X122052073Y-80415715D01*
X122064594Y-80296588D01*
X122064598Y-80296575D01*
X122064602Y-80296538D01*
X122100037Y-80182065D01*
X122157032Y-80076656D01*
X122233416Y-79984324D01*
X122326279Y-79908586D01*
X122432084Y-79852329D01*
X122546801Y-79817694D01*
X122666061Y-79806000D01*
X123073973Y-79806000D01*
X123077816Y-79806027D01*
X123077816Y-79806027D01*
G37*
G36*
X123077816Y-74966027D02*
X123082512Y-74966060D01*
X123201597Y-74979417D01*
X123315819Y-75015651D01*
X123420829Y-75073380D01*
X123512625Y-75150407D01*
X123587712Y-75243796D01*
X123643230Y-75349992D01*
X123677063Y-75464948D01*
X123677066Y-75464977D01*
X123677071Y-75464995D01*
X123687927Y-75584285D01*
X123675406Y-75703412D01*
X123675402Y-75703425D01*
X123675398Y-75703462D01*
X123639963Y-75817935D01*
X123582968Y-75923344D01*
X123506584Y-76015676D01*
X123413721Y-76091414D01*
X123307916Y-76147671D01*
X123193199Y-76182306D01*
X123073939Y-76194000D01*
X122666027Y-76194000D01*
X122662184Y-76193973D01*
X122657488Y-76193940D01*
X122538403Y-76180583D01*
X122424181Y-76144349D01*
X122319171Y-76086620D01*
X122227375Y-76009593D01*
X122152288Y-75916204D01*
X122096770Y-75810008D01*
X122062937Y-75695052D01*
X122062934Y-75695023D01*
X122062929Y-75695005D01*
X122052073Y-75575715D01*
X122064594Y-75456588D01*
X122064598Y-75456575D01*
X122064602Y-75456538D01*
X122100037Y-75342065D01*
X122157032Y-75236656D01*
X122233416Y-75144324D01*
X122326279Y-75068586D01*
X122432084Y-75012329D01*
X122546801Y-74977694D01*
X122666061Y-74966000D01*
X123073973Y-74966000D01*
X123077816Y-74966027D01*
X123077816Y-74966027D01*
G37*
G36*
X120128412Y-74606028D02*
X120133693Y-74606065D01*
X120262475Y-74620510D01*
X120385999Y-74659694D01*
X120499560Y-74722125D01*
X120598832Y-74805424D01*
X120680034Y-74906418D01*
X120740072Y-75021261D01*
X120776661Y-75145579D01*
X120776664Y-75145613D01*
X120776668Y-75145626D01*
X120788409Y-75274634D01*
X120774868Y-75403466D01*
X120774864Y-75403479D01*
X120774860Y-75403516D01*
X120736539Y-75527310D01*
X120674903Y-75641304D01*
X120592299Y-75741155D01*
X120491874Y-75823060D01*
X120377453Y-75883899D01*
X120253394Y-75921354D01*
X120124422Y-75934000D01*
X119615545Y-75934000D01*
X119611588Y-75933972D01*
X119606307Y-75933935D01*
X119477525Y-75919490D01*
X119354001Y-75880306D01*
X119240440Y-75817875D01*
X119141168Y-75734576D01*
X119059966Y-75633582D01*
X118999928Y-75518739D01*
X118963339Y-75394421D01*
X118963336Y-75394387D01*
X118963332Y-75394374D01*
X118951591Y-75265366D01*
X118965132Y-75136534D01*
X118965136Y-75136521D01*
X118965140Y-75136484D01*
X119003461Y-75012690D01*
X119065097Y-74898696D01*
X119147701Y-74798845D01*
X119248126Y-74716940D01*
X119362547Y-74656101D01*
X119486606Y-74618646D01*
X119615578Y-74606000D01*
X120124455Y-74606000D01*
X120128412Y-74606028D01*
X120128412Y-74606028D01*
G37*
G36*
X211844000Y-75064000D02*
X207156000Y-75064000D01*
X207156000Y-72936000D01*
X211844000Y-72936000D01*
X211844000Y-75064000D01*
X211844000Y-75064000D01*
G37*
G36*
X211844000Y-66564000D02*
X207156000Y-66564000D01*
X207156000Y-64436000D01*
X211844000Y-64436000D01*
X211844000Y-66564000D01*
X211844000Y-66564000D01*
G37*
M02*
