M48
;DRILL file {KiCad 4.0.5-e0-6337~49~ubuntu14.04.1} date Tue Feb 21 17:31:48 2017
;FORMAT={-:-/ absolute / inch / decimal}
FMAT,2
INCH,TZ
T1C0.010
T2C0.015
T3C0.026
T4C0.028
T5C0.039
%
G90
G05
M72
T1
X4.7098Y-3.0331
X4.7098Y-3.1087
X4.9311Y-3.1398
X5.1083Y-3.1161
X5.2815Y-2.5866
X5.3701Y-2.5866
X5.4685Y-2.5866
X5.4823Y-3.0177
X6.8209Y-3.0807
X6.8209Y-3.1496
X6.8209Y-3.2087
X6.8307Y-2.5689
X6.8406Y-3.2874
X6.8465Y-3.4173
X6.8701Y-3.0315
X6.9035Y-3.4134
X6.9193Y-2.8169
X6.9193Y-2.9724
X6.9232Y-2.876
X6.939Y-3.3071
X6.9488Y-2.5689
X6.9488Y-2.9016
X6.9744Y-2.876
X6.9823Y-2.8162
X6.9921Y-2.8622
X6.9921Y-3.4134
X7.0079Y-3.3169
X7.0138Y-2.8819
X7.0413Y-2.8156
X7.0551Y-3.5
X7.0669Y-2.5689
X7.0669Y-2.9626
X7.0768Y-3.2598
X7.0787Y-3.4803
X7.0807Y-3.3602
X7.0827Y-3.4134
X7.0827Y-3.439
X7.1063Y-2.6378
X7.1133Y-2.7823
X7.1133Y-2.8292
X7.1161Y-2.7165
X7.1181Y-2.8878
X7.1181Y-2.9272
X7.122Y-3.3425
X7.1398Y-2.9075
X7.1457Y-3.2283
X7.1457Y-3.5
X7.146Y-2.7823
X7.146Y-2.8292
X7.185Y-2.5689
X7.1909Y-3.498
X7.1949Y-2.7165
X7.2106Y-3.4331
X7.2106Y-3.4764
X7.2146Y-3.2382
X7.2205Y-2.8248
X7.2283Y-2.9193
X7.2343Y-3.3268
X7.248Y-2.9409
X7.2539Y-2.6969
X7.2638Y-3.5531
X7.2677Y-2.9193
X7.2736Y-3.4449
X7.3031Y-2.5689
X7.3031Y-3.2283
X7.3031Y-3.3268
X7.3051Y-3.1693
X7.3228Y-2.6969
X7.3346Y-3.1398
X7.3524Y-3.5531
X7.3622Y-3.4547
X7.3661Y-2.685
X7.3819Y-2.9193
X7.3839Y-2.6634
X7.3839Y-2.7067
X7.4016Y-3.2717
X7.4035Y-2.9409
X7.4213Y-2.5689
X7.4213Y-2.8228
X7.4213Y-2.8406
X7.4213Y-3.1102
X7.4232Y-2.9193
X7.4252Y-3.2953
X7.4449Y-3.1713
X7.4508Y-2.628
X7.4547Y-3.3632
X7.4551Y-3.3882
X7.4551Y-3.4079
X7.4557Y-3.4331
X7.4606Y-3.4744
X7.4606Y-3.5531
X7.4744Y-3.1417
X7.4803Y-2.687
X7.4843Y-3.2953
X7.5Y-2.7953
X7.5079Y-3.2717
X7.5157Y-3.2126
X7.5197Y-2.9331
X7.5335Y-3.1437
X7.5394Y-2.5689
X7.5394Y-2.6969
X7.5492Y-3.4449
X7.5492Y-3.5531
X7.5591Y-2.9724
X7.5669Y-3.1713
X7.5787Y-2.7953
X7.5886Y-2.8445
X7.6083Y-3.0217
X7.6083Y-3.248
X7.6083Y-3.3268
X7.6181Y-2.687
X7.6378Y-2.9035
X7.6378Y-3.4449
X7.6378Y-3.5531
X7.6476Y-2.8051
X7.6575Y-2.5689
X7.6673Y-3.0807
X7.687Y-2.687
X7.7106Y-2.9606
X7.7165Y-3.1398
X7.7224Y-3.3622
X7.7224Y-3.4154
X7.7264Y-3.5531
X7.7362Y-2.6575
X7.739Y-2.9252
X7.7402Y-3.3445
X7.7402Y-3.4331
X7.7461Y-2.8583
X7.7618Y-3.3878
X7.7657Y-3.189
X7.7677Y-2.8386
X7.7756Y-2.5689
X7.7854Y-3.0512
X7.7854Y-3.2382
X7.7854Y-3.3071
X7.7953Y-3.3878
X7.7953Y-3.5531
X7.7992Y-2.937
X7.7992Y-2.9862
X7.802Y-2.7229
X7.802Y-2.7426
X7.8022Y-2.6978
X7.8022Y-2.7677
X7.8051Y-2.6575
X7.8051Y-3.4744
X7.8307Y-2.8386
X7.8346Y-3.1004
X7.8524Y-2.8583
X7.8642Y-2.6476
X7.8642Y-3.0217
X7.8642Y-3.5531
X7.8819Y-3.2657
X7.8819Y-3.3268
X7.8839Y-3.1496
X7.8937Y-2.5689
X7.9016Y-3.2815
X7.9016Y-3.3071
X7.9035Y-3.4744
X7.9193Y-2.9291
X7.9213Y-2.9862
X7.9232Y-2.687
X7.9429Y-3.5531
X7.9449Y-2.9606
X7.9528Y-2.7953
X7.9528Y-2.8543
X7.9626Y-3.3268
X7.9921Y-2.687
X7.9921Y-3.435
X8.0118Y-2.5689
X8.0118Y-2.8051
X8.0118Y-3.5531
X8.0413Y-3.3169
X8.061Y-2.6772
X8.0709Y-2.8051
X8.0709Y-3.435
X8.0807Y-3.5531
X8.1102Y-3.3169
X8.1299Y-2.5689
X8.1398Y-2.8051
X8.1398Y-2.8937
X8.1398Y-2.9331
X8.1398Y-3.1496
X8.1398Y-3.189
X8.1398Y-3.2185
X8.1398Y-3.2677
X8.1398Y-3.4941
X8.1398Y-3.5531
X8.1496Y-2.8543
X8.1496Y-2.9724
X8.1791Y-3.3071
X8.1791Y-3.4449
X8.1791Y-3.4843
X8.189Y-2.6673
X8.1988Y-2.8543
X8.1988Y-2.9724
X8.1988Y-3.1496
X8.1988Y-3.2677
X8.2087Y-2.815
X8.2382Y-2.6378
X8.2382Y-2.8543
X8.2382Y-2.9724
X8.2382Y-3.3071
X8.2382Y-3.4449
X8.2382Y-3.4843
X8.248Y-3.1496
X8.248Y-3.2677
X8.2874Y-2.6673
X8.2874Y-2.815
X8.2874Y-2.8543
X8.2874Y-2.9724
X8.2874Y-3.3071
X8.2972Y-3.0118
X8.2972Y-3.061
X8.2972Y-3.1102
X8.2972Y-3.1496
X8.2972Y-3.2677
X8.2972Y-3.4449
X8.2972Y-3.4843
T2
X4.9528Y-2.8484
X4.9803Y-2.8976
X4.9902Y-3.2264
X5.0157Y-2.626
X5.0591Y-2.7283
X5.0591Y-2.9016
X5.0591Y-3.0256
X5.0906Y-2.8248
X5.1122Y-2.7657
X5.1417Y-3.1378
X5.1535Y-3.1915
X5.1575Y-2.815
X5.1614Y-3.3268
X5.2205Y-2.876
X5.2205Y-3.2677
X5.25Y-2.8445
X5.315Y-2.7913
X5.3406Y-3.2146
X5.3898Y-3.3268
X5.3996Y-3.2146
X5.4114Y-2.8327
X5.4508Y-3.1969
X5.4803Y-3.1535
X5.5315Y-3.1614
X5.5571Y-2.8504
X5.561Y-2.9528
X5.6102Y-3.1969
X5.6398Y-2.9528
X5.7106Y-2.8937
X5.7146Y-2.9626
X5.7874Y-3.3169
X5.8327Y-2.687
X5.878Y-3.189
X5.8799Y-3.3169
X5.8878Y-2.8937
X5.9114Y-2.9843
X5.9154Y-3.4094
X5.9449Y-3.248
X5.9941Y-3.1713
X5.9941Y-3.2854
X5.9941Y-3.4035
X6.0138Y-2.8248
X6.0728Y-3.1575
X6.0728Y-3.2854
X6.0728Y-3.4173
X6.1555Y-2.687
X6.1693Y-3.2087
X6.2461Y-2.7343
X6.2461Y-2.937
X6.3051Y-2.7362
X6.3051Y-2.937
X6.3307Y-3.1713
X6.378Y-2.7756
X6.3878Y-2.6772
X6.4016Y-2.9528
X6.4685Y-3.3858
X6.4744Y-3.2283
X6.6142Y-3.1988
X6.7362Y-3.1319
X6.8622Y-3.5079
X6.9488Y-2.685
X7.0177Y-2.685
X7.1673Y-3.2874
T5
X4.7425Y-3.5039
X4.8425Y-3.5039
X4.9425Y-3.5039
X5.0425Y-3.5039
X5.3118Y-3.5039
X5.4118Y-3.5039
X5.5118Y-3.5039
X5.6118Y-3.5039
T3
X4.8295Y-2.9756G85X4.8453Y-2.9756
G05
X4.8295Y-3.1661G85X4.8453Y-3.1661
G05
T4
X4.7094Y-2.9634G85X4.7291Y-2.9634
G05
X4.7094Y-3.1783G85X4.7291Y-3.1783
G05
T0
M30
