G04 #@! TF.FileFunction,Legend,Bot*
%FSLAX46Y46*%
G04 Gerber Fmt 4.6, Leading zero omitted, Abs format (unit mm)*
G04 Created by KiCad (PCBNEW 4.0.5-e0-6337~49~ubuntu14.04.1) date Sun Feb 26 21:45:19 2017*
%MOMM*%
%LPD*%
G01*
G04 APERTURE LIST*
%ADD10C,0.100000*%
%ADD11C,0.300000*%
G04 APERTURE END LIST*
D10*
D11*
X200928571Y-86153571D02*
X200928571Y-87653571D01*
X200214285Y-86939286D02*
X200142857Y-87082143D01*
X200000000Y-87153571D01*
X200928571Y-86939286D02*
X200857143Y-87082143D01*
X200714285Y-87153571D01*
X200428571Y-87153571D01*
X200285714Y-87082143D01*
X200214285Y-86939286D01*
X200214285Y-86153571D01*
X198499999Y-87153571D02*
X198999999Y-86439286D01*
X199357142Y-87153571D02*
X199357142Y-85653571D01*
X198785714Y-85653571D01*
X198642856Y-85725000D01*
X198571428Y-85796429D01*
X198499999Y-85939286D01*
X198499999Y-86153571D01*
X198571428Y-86296429D01*
X198642856Y-86367857D01*
X198785714Y-86439286D01*
X199357142Y-86439286D01*
X197214285Y-87153571D02*
X197214285Y-86367857D01*
X197285714Y-86225000D01*
X197428571Y-86153571D01*
X197714285Y-86153571D01*
X197857142Y-86225000D01*
X197214285Y-87082143D02*
X197357142Y-87153571D01*
X197714285Y-87153571D01*
X197857142Y-87082143D01*
X197928571Y-86939286D01*
X197928571Y-86796429D01*
X197857142Y-86653571D01*
X197714285Y-86582143D01*
X197357142Y-86582143D01*
X197214285Y-86510714D01*
X195857142Y-87153571D02*
X195857142Y-85653571D01*
X195857142Y-87082143D02*
X195999999Y-87153571D01*
X196285713Y-87153571D01*
X196428571Y-87082143D01*
X196499999Y-87010714D01*
X196571428Y-86867857D01*
X196571428Y-86439286D01*
X196499999Y-86296429D01*
X196428571Y-86225000D01*
X196285713Y-86153571D01*
X195999999Y-86153571D01*
X195857142Y-86225000D01*
X194499999Y-87153571D02*
X194499999Y-86367857D01*
X194571428Y-86225000D01*
X194714285Y-86153571D01*
X194999999Y-86153571D01*
X195142856Y-86225000D01*
X194499999Y-87082143D02*
X194642856Y-87153571D01*
X194999999Y-87153571D01*
X195142856Y-87082143D01*
X195214285Y-86939286D01*
X195214285Y-86796429D01*
X195142856Y-86653571D01*
X194999999Y-86582143D01*
X194642856Y-86582143D01*
X194499999Y-86510714D01*
X193785713Y-87153571D02*
X193785713Y-86153571D01*
X193785713Y-86439286D02*
X193714285Y-86296429D01*
X193642856Y-86225000D01*
X193499999Y-86153571D01*
X193357142Y-86153571D01*
X191928571Y-85653571D02*
X191428571Y-87153571D01*
X190928571Y-85653571D01*
X189642857Y-87153571D02*
X190500000Y-87153571D01*
X190071428Y-87153571D02*
X190071428Y-85653571D01*
X190214285Y-85867857D01*
X190357143Y-86010714D01*
X190500000Y-86082143D01*
X189000000Y-87010714D02*
X188928572Y-87082143D01*
X189000000Y-87153571D01*
X189071429Y-87082143D01*
X189000000Y-87010714D01*
X189000000Y-87153571D01*
X188000000Y-85653571D02*
X187857143Y-85653571D01*
X187714286Y-85725000D01*
X187642857Y-85796429D01*
X187571428Y-85939286D01*
X187500000Y-86225000D01*
X187500000Y-86582143D01*
X187571428Y-86867857D01*
X187642857Y-87010714D01*
X187714286Y-87082143D01*
X187857143Y-87153571D01*
X188000000Y-87153571D01*
X188142857Y-87082143D01*
X188214286Y-87010714D01*
X188285714Y-86867857D01*
X188357143Y-86582143D01*
X188357143Y-86225000D01*
X188285714Y-85939286D01*
X188214286Y-85796429D01*
X188142857Y-85725000D01*
X188000000Y-85653571D01*
X203107143Y-88703571D02*
X202821429Y-89703571D01*
X202535715Y-88989286D01*
X202250000Y-89703571D01*
X201964286Y-88703571D01*
X201392857Y-89703571D02*
X201392857Y-88203571D01*
X201392857Y-88775000D02*
X201250000Y-88703571D01*
X200964286Y-88703571D01*
X200821429Y-88775000D01*
X200750000Y-88846429D01*
X200678571Y-88989286D01*
X200678571Y-89417857D01*
X200750000Y-89560714D01*
X200821429Y-89632143D01*
X200964286Y-89703571D01*
X201250000Y-89703571D01*
X201392857Y-89632143D01*
X200035714Y-89703571D02*
X200035714Y-88703571D01*
X200035714Y-88989286D02*
X199964286Y-88846429D01*
X199892857Y-88775000D01*
X199750000Y-88703571D01*
X199607143Y-88703571D01*
X198464286Y-89703571D02*
X198464286Y-88917857D01*
X198535715Y-88775000D01*
X198678572Y-88703571D01*
X198964286Y-88703571D01*
X199107143Y-88775000D01*
X198464286Y-89632143D02*
X198607143Y-89703571D01*
X198964286Y-89703571D01*
X199107143Y-89632143D01*
X199178572Y-89489286D01*
X199178572Y-89346429D01*
X199107143Y-89203571D01*
X198964286Y-89132143D01*
X198607143Y-89132143D01*
X198464286Y-89060714D01*
X197107143Y-88703571D02*
X197107143Y-89703571D01*
X197750000Y-88703571D02*
X197750000Y-89489286D01*
X197678572Y-89632143D01*
X197535714Y-89703571D01*
X197321429Y-89703571D01*
X197178572Y-89632143D01*
X197107143Y-89560714D01*
X196392857Y-88703571D02*
X196392857Y-89703571D01*
X196392857Y-88846429D02*
X196321429Y-88775000D01*
X196178571Y-88703571D01*
X195964286Y-88703571D01*
X195821429Y-88775000D01*
X195750000Y-88917857D01*
X195750000Y-89703571D01*
X194107143Y-88989286D02*
X194178571Y-88917857D01*
X194321428Y-88846429D01*
X194464286Y-88846429D01*
X194607143Y-88917857D01*
X194678571Y-88989286D01*
X194750000Y-89132143D01*
X194750000Y-89275000D01*
X194678571Y-89417857D01*
X194607143Y-89489286D01*
X194464286Y-89560714D01*
X194321428Y-89560714D01*
X194178571Y-89489286D01*
X194107143Y-89417857D01*
X194107143Y-88846429D02*
X194107143Y-89417857D01*
X194035714Y-89489286D01*
X193964286Y-89489286D01*
X193821428Y-89417857D01*
X193750000Y-89275000D01*
X193750000Y-88917857D01*
X193892857Y-88703571D01*
X194107143Y-88560714D01*
X194392857Y-88489286D01*
X194678571Y-88560714D01*
X194892857Y-88703571D01*
X195035714Y-88917857D01*
X195107143Y-89203571D01*
X195035714Y-89489286D01*
X194892857Y-89703571D01*
X194678571Y-89846429D01*
X194392857Y-89917857D01*
X194107143Y-89846429D01*
X193892857Y-89703571D01*
X193107143Y-89703571D02*
X193107143Y-88703571D01*
X193107143Y-88846429D02*
X193035715Y-88775000D01*
X192892857Y-88703571D01*
X192678572Y-88703571D01*
X192535715Y-88775000D01*
X192464286Y-88917857D01*
X192464286Y-89703571D01*
X192464286Y-88917857D02*
X192392857Y-88775000D01*
X192250000Y-88703571D01*
X192035715Y-88703571D01*
X191892857Y-88775000D01*
X191821429Y-88917857D01*
X191821429Y-89703571D01*
X191107143Y-89703571D02*
X191107143Y-88703571D01*
X191107143Y-88203571D02*
X191178572Y-88275000D01*
X191107143Y-88346429D01*
X191035715Y-88275000D01*
X191107143Y-88203571D01*
X191107143Y-88346429D01*
X190607143Y-88703571D02*
X190035714Y-88703571D01*
X190392857Y-88203571D02*
X190392857Y-89489286D01*
X190321429Y-89632143D01*
X190178571Y-89703571D01*
X190035714Y-89703571D01*
X189535714Y-89560714D02*
X189464286Y-89632143D01*
X189535714Y-89703571D01*
X189607143Y-89632143D01*
X189535714Y-89560714D01*
X189535714Y-89703571D01*
X188250000Y-89632143D02*
X188392857Y-89703571D01*
X188678571Y-89703571D01*
X188821428Y-89632143D01*
X188892857Y-89489286D01*
X188892857Y-88917857D01*
X188821428Y-88775000D01*
X188678571Y-88703571D01*
X188392857Y-88703571D01*
X188250000Y-88775000D01*
X188178571Y-88917857D01*
X188178571Y-89060714D01*
X188892857Y-89203571D01*
X186892857Y-89703571D02*
X186892857Y-88203571D01*
X186892857Y-89632143D02*
X187035714Y-89703571D01*
X187321428Y-89703571D01*
X187464286Y-89632143D01*
X187535714Y-89560714D01*
X187607143Y-89417857D01*
X187607143Y-88989286D01*
X187535714Y-88846429D01*
X187464286Y-88775000D01*
X187321428Y-88703571D01*
X187035714Y-88703571D01*
X186892857Y-88775000D01*
X185535714Y-88703571D02*
X185535714Y-89703571D01*
X186178571Y-88703571D02*
X186178571Y-89489286D01*
X186107143Y-89632143D01*
X185964285Y-89703571D01*
X185750000Y-89703571D01*
X185607143Y-89632143D01*
X185535714Y-89560714D01*
M02*
