M48
;DRILL file {KiCad 4.0.6-e0-6349~53~ubuntu14.04.1} date Thu Apr 13 01:16:23 2017
;FORMAT={-:-/ absolute / inch / decimal}
FMAT,2
INCH,TZ
T1C0.010
T2C0.015
T3C0.026
T4C0.028
T5C0.039
%
G90
G05
M72
T1
X5.6646Y-2.9839
X5.6646Y-3.0594
X5.6791Y-3.3465
X5.6791Y-3.3661
X5.689Y-2.8071
X5.7205Y-2.8445
X5.7264Y-2.7697
X5.7343Y-3.2539
X5.7894Y-2.7146
X5.8228Y-2.5827
X5.8346Y-3.0728
X5.8465Y-3.5374
X5.8543Y-3.0728
X5.8602Y-3.3465
X5.8661Y-3.5374
X5.9055Y-3.1614
X5.9252Y-2.7323
X5.9409Y-2.9036
X5.9409Y-3.0315
X5.9409Y-3.061
X5.998Y-2.8583
X6.0039Y-3.1791
X6.0138Y-2.7874
X6.0344Y-2.9483
X6.0344Y-3.0162
X6.0531Y-3.1201
X6.0827Y-2.7618
X6.0984Y-2.8622
X6.1024Y-2.9483
X6.1024Y-3.0162
X6.1181Y-3.1043
X6.124Y-2.5846
X6.1378Y-3.1043
X6.1535Y-2.815
X6.1594Y-3.1398
X6.1673Y-2.8425
X6.1811Y-2.5866
X6.1811Y-2.8169
X6.189Y-2.9134
X6.1909Y-3.1673
X6.1969Y-3.0619
X6.2126Y-3.2087
X6.2303Y-3.1791
X6.2402Y-3.0787
X6.2579Y-2.9606
X6.2795Y-2.5866
X6.2795Y-3.248
X6.3091Y-3.1043
X6.3366Y-3.1398
X6.3504Y-3.0512
X6.3563Y-2.8642
X6.378Y-2.5866
X6.4075Y-3.1102
X6.4272Y-3.2795
X6.4272Y-3.3937
X6.4646Y-2.5846
X6.4665Y-2.9429
X6.4862Y-3.2795
X6.4862Y-3.3366
X6.498Y-2.8642
X6.5335Y-3.3642
X6.5374Y-2.9646
X6.5374Y-3.
X6.5374Y-3.2283
X6.5374Y-3.3366
X6.5453Y-2.8976
X6.5453Y-3.0689
X6.565Y-2.8976
X6.5728Y-2.9646
X6.5728Y-3.
X6.5915Y-3.0699
X6.5945Y-3.3169
X6.5945Y-3.3366
X6.6024Y-3.1654
X6.6033Y-3.1102
X6.6398Y-2.9528
X6.6516Y-3.2283
X6.6535Y-3.2854
X6.6555Y-2.8839
X6.7638Y-2.5846
X6.7638Y-2.8248
X6.7638Y-3.1201
X6.7697Y-2.8839
X6.7697Y-3.061
X6.7835Y-3.2874
X6.7894Y-3.4744
X6.8209Y-3.0807
X6.8209Y-3.1496
X6.8209Y-3.2087
X6.8307Y-2.5689
X6.8406Y-3.2874
X6.8465Y-3.4173
X6.8701Y-3.0315
X6.9035Y-3.4134
X6.9193Y-2.8169
X6.9193Y-2.9724
X6.9232Y-2.876
X6.9242Y-2.7087
X6.939Y-3.3071
X6.9488Y-2.5689
X6.9488Y-2.9016
X6.9488Y-3.5531
X6.9744Y-2.876
X6.9823Y-2.8162
X6.9921Y-2.8622
X6.9921Y-3.4134
X7.0079Y-3.3169
X7.0138Y-2.8819
X7.0413Y-2.8156
X7.0423Y-2.7087
X7.0551Y-3.5
X7.0669Y-2.5689
X7.0669Y-2.9626
X7.0768Y-3.2598
X7.0787Y-3.4803
X7.0807Y-3.3602
X7.0827Y-3.4134
X7.0827Y-3.439
X7.1063Y-2.6378
X7.1133Y-2.7823
X7.1133Y-2.8292
X7.1161Y-2.7165
X7.1181Y-2.8878
X7.1181Y-2.9272
X7.122Y-3.3425
X7.1398Y-2.9075
X7.1457Y-3.2283
X7.1457Y-3.5
X7.146Y-2.7823
X7.146Y-2.8292
X7.185Y-2.5689
X7.1909Y-3.498
X7.1949Y-2.7165
X7.2106Y-3.4331
X7.2106Y-3.4764
X7.2146Y-3.2382
X7.2156Y-2.8199
X7.2283Y-2.9193
X7.2343Y-3.3268
X7.248Y-2.9409
X7.2539Y-2.6969
X7.2638Y-3.5531
X7.2677Y-2.9193
X7.2736Y-3.4449
X7.3031Y-2.5689
X7.3031Y-3.2283
X7.3031Y-3.3268
X7.3051Y-3.1693
X7.3228Y-2.6969
X7.3346Y-3.1398
X7.3524Y-3.5531
X7.3622Y-3.4547
X7.3661Y-2.685
X7.3819Y-2.9193
X7.3839Y-2.6634
X7.3839Y-2.7067
X7.4016Y-3.2717
X7.4035Y-2.9409
X7.4213Y-2.5689
X7.4213Y-2.8228
X7.4213Y-2.8406
X7.4213Y-3.1102
X7.4232Y-2.9193
X7.4252Y-3.2953
X7.4449Y-3.1713
X7.4508Y-2.628
X7.4547Y-3.3632
X7.4551Y-3.3882
X7.4551Y-3.4079
X7.4557Y-3.4331
X7.4606Y-3.4744
X7.4606Y-3.5531
X7.4744Y-3.1417
X7.4803Y-2.687
X7.4803Y-2.9705
X7.4843Y-3.2953
X7.5Y-2.7953
X7.5079Y-3.2717
X7.5157Y-3.2126
X7.5315Y-3.0217
X7.5335Y-3.1437
X7.5394Y-2.5689
X7.5394Y-2.6969
X7.5492Y-3.4449
X7.5492Y-3.5531
X7.561Y-2.8465
X7.563Y-2.9055
X7.5669Y-3.1713
X7.5728Y-3.065
X7.5787Y-2.7953
X7.6004Y-2.9429
X7.6083Y-3.248
X7.6083Y-3.3268
X7.6181Y-2.687
X7.6181Y-3.1102
X7.6378Y-2.9803
X7.6378Y-3.4449
X7.6378Y-3.5531
X7.6476Y-2.8051
X7.6575Y-2.5689
X7.6713Y-3.1634
X7.6831Y-3.0256
X7.687Y-2.687
X7.7106Y-2.9606
X7.7224Y-3.2146
X7.7224Y-3.3622
X7.7224Y-3.4154
X7.7264Y-3.5531
X7.7283Y-3.0709
X7.7362Y-2.6575
X7.739Y-2.9252
X7.7402Y-3.3445
X7.7402Y-3.4331
X7.7461Y-2.8583
X7.7618Y-3.3878
X7.7677Y-2.8386
X7.7717Y-3.1142
X7.7756Y-2.5689
X7.7854Y-3.2795
X7.7953Y-3.3878
X7.7953Y-3.5531
X7.7992Y-2.937
X7.7992Y-2.9862
X7.802Y-2.7229
X7.802Y-2.7426
X7.8022Y-2.6978
X7.8022Y-2.7677
X7.8051Y-2.6575
X7.8051Y-3.4744
X7.8169Y-3.1575
X7.8307Y-2.8386
X7.8524Y-2.8583
X7.8602Y-3.1988
X7.8642Y-2.6476
X7.8642Y-3.0217
X7.8642Y-3.5531
X7.8819Y-3.2657
X7.8819Y-3.3268
X7.8937Y-2.5689
X7.9016Y-3.2815
X7.9016Y-3.3071
X7.9035Y-3.4744
X7.9193Y-2.9291
X7.9213Y-2.9862
X7.9232Y-2.687
X7.9429Y-3.5531
X7.9449Y-2.9606
X7.9528Y-2.7953
X7.9528Y-2.8543
X7.9626Y-3.3268
X7.9921Y-2.687
X7.9921Y-3.435
X8.0118Y-2.5689
X8.0118Y-2.8051
X8.0118Y-3.5531
X8.0413Y-3.3169
X8.061Y-2.6772
X8.0709Y-2.8051
X8.0709Y-3.435
X8.0807Y-3.5531
X8.1102Y-3.3169
X8.1142Y-2.685
X8.1299Y-2.5689
X8.1398Y-3.2077
X8.1398Y-3.2352
X8.1398Y-3.2677
X8.1398Y-3.5118
X8.1457Y-3.4665
X8.1467Y-2.6398
X8.1486Y-2.6083
X8.1624Y-2.6841
X8.1663Y-3.5463
X8.1673Y-2.9183
X8.1772Y-2.7982
X8.1791Y-3.3219
X8.1791Y-3.437
X8.1939Y-3.2067
X8.2047Y-3.5463
X8.2106Y-2.5689
X8.2116Y-2.9203
X8.2165Y-3.315
X8.2205Y-2.6841
X8.2224Y-3.437
X8.2333Y-2.815
X8.2392Y-3.2067
X8.2411Y-3.5472
X8.2539Y-2.6841
X8.2549Y-2.9203
X8.2549Y-3.315
X8.2579Y-2.5689
X8.2746Y-3.436
X8.2835Y-3.2077
X8.2874Y-2.8061
X8.2933Y-3.314
X8.2972Y-2.6831
X8.2972Y-3.0246
X8.2972Y-3.0728
X8.2972Y-3.1211
X8.2982Y-3.1772
X8.3002Y-2.9705
X8.3002Y-3.5463
X8.3022Y-2.9193
X8.3081Y-2.5699
T2
X6.8622Y-3.5079
X7.1673Y-3.2874
T5
X6.0106Y-3.3563
X6.0106Y-3.5138
X6.1106Y-3.3563
X6.1106Y-3.5138
X6.2106Y-3.3563
X6.2106Y-3.5138
X6.3106Y-3.3563
X6.3106Y-3.5138
T3
X5.7843Y-2.9264G85X5.8Y-2.9264
G05
X5.7843Y-3.1169G85X5.8Y-3.1169
G05
T4
X5.6642Y-2.9142G85X5.6839Y-2.9142
G05
X5.6642Y-3.1291G85X5.6839Y-3.1291
G05
T0
M30
