G04 #@! TF.FileFunction,Soldermask,Bot*
%FSLAX46Y46*%
G04 Gerber Fmt 4.6, Leading zero omitted, Abs format (unit mm)*
G04 Created by KiCad (PCBNEW 4.0.6-e0-6349~53~ubuntu14.04.1) date Thu Apr 13 01:16:21 2017*
%MOMM*%
%LPD*%
G01*
G04 APERTURE LIST*
%ADD10C,0.100000*%
G04 APERTURE END LIST*
D10*
G36*
X157933653Y-88350631D02*
X157933665Y-88350635D01*
X157933705Y-88350639D01*
X158104034Y-88403365D01*
X158260879Y-88488170D01*
X158398264Y-88601825D01*
X158510957Y-88740000D01*
X158594665Y-88897433D01*
X158646201Y-89068126D01*
X158663600Y-89245579D01*
X158663600Y-89254455D01*
X158663526Y-89265117D01*
X158663525Y-89265123D01*
X158663511Y-89267177D01*
X158643636Y-89444369D01*
X158589722Y-89614326D01*
X158503824Y-89770575D01*
X158389212Y-89907163D01*
X158250254Y-90018889D01*
X158092241Y-90101496D01*
X157921192Y-90151839D01*
X157921158Y-90151842D01*
X157921148Y-90151845D01*
X157743620Y-90168000D01*
X157566347Y-90149369D01*
X157566335Y-90149365D01*
X157566295Y-90149361D01*
X157395966Y-90096635D01*
X157239121Y-90011830D01*
X157101736Y-89898175D01*
X156989043Y-89760000D01*
X156905335Y-89602567D01*
X156853799Y-89431874D01*
X156836400Y-89254421D01*
X156836400Y-89245545D01*
X156836474Y-89234883D01*
X156836475Y-89234877D01*
X156836489Y-89232823D01*
X156856364Y-89055631D01*
X156910278Y-88885674D01*
X156996176Y-88729425D01*
X157110788Y-88592837D01*
X157249746Y-88481111D01*
X157407759Y-88398504D01*
X157578808Y-88348161D01*
X157578842Y-88348158D01*
X157578852Y-88348155D01*
X157756380Y-88332000D01*
X157933653Y-88350631D01*
X157933653Y-88350631D01*
G37*
G36*
X160473653Y-88350631D02*
X160473665Y-88350635D01*
X160473705Y-88350639D01*
X160644034Y-88403365D01*
X160800879Y-88488170D01*
X160938264Y-88601825D01*
X161050957Y-88740000D01*
X161134665Y-88897433D01*
X161186201Y-89068126D01*
X161203600Y-89245579D01*
X161203600Y-89254455D01*
X161203526Y-89265117D01*
X161203525Y-89265123D01*
X161203511Y-89267177D01*
X161183636Y-89444369D01*
X161129722Y-89614326D01*
X161043824Y-89770575D01*
X160929212Y-89907163D01*
X160790254Y-90018889D01*
X160632241Y-90101496D01*
X160461192Y-90151839D01*
X160461158Y-90151842D01*
X160461148Y-90151845D01*
X160283620Y-90168000D01*
X160106347Y-90149369D01*
X160106335Y-90149365D01*
X160106295Y-90149361D01*
X159935966Y-90096635D01*
X159779121Y-90011830D01*
X159641736Y-89898175D01*
X159529043Y-89760000D01*
X159445335Y-89602567D01*
X159393799Y-89431874D01*
X159376400Y-89254421D01*
X159376400Y-89245545D01*
X159376474Y-89234883D01*
X159376475Y-89234877D01*
X159376489Y-89232823D01*
X159396364Y-89055631D01*
X159450278Y-88885674D01*
X159536176Y-88729425D01*
X159650788Y-88592837D01*
X159789746Y-88481111D01*
X159947759Y-88398504D01*
X160118808Y-88348161D01*
X160118842Y-88348158D01*
X160118852Y-88348155D01*
X160296380Y-88332000D01*
X160473653Y-88350631D01*
X160473653Y-88350631D01*
G37*
G36*
X155393653Y-88350631D02*
X155393665Y-88350635D01*
X155393705Y-88350639D01*
X155564034Y-88403365D01*
X155720879Y-88488170D01*
X155858264Y-88601825D01*
X155970957Y-88740000D01*
X156054665Y-88897433D01*
X156106201Y-89068126D01*
X156123600Y-89245579D01*
X156123600Y-89254455D01*
X156123526Y-89265117D01*
X156123525Y-89265123D01*
X156123511Y-89267177D01*
X156103636Y-89444369D01*
X156049722Y-89614326D01*
X155963824Y-89770575D01*
X155849212Y-89907163D01*
X155710254Y-90018889D01*
X155552241Y-90101496D01*
X155381192Y-90151839D01*
X155381158Y-90151842D01*
X155381148Y-90151845D01*
X155203620Y-90168000D01*
X155026347Y-90149369D01*
X155026335Y-90149365D01*
X155026295Y-90149361D01*
X154855966Y-90096635D01*
X154699121Y-90011830D01*
X154561736Y-89898175D01*
X154449043Y-89760000D01*
X154365335Y-89602567D01*
X154313799Y-89431874D01*
X154296400Y-89254421D01*
X154296400Y-89245545D01*
X154296474Y-89234883D01*
X154296475Y-89234877D01*
X154296489Y-89232823D01*
X154316364Y-89055631D01*
X154370278Y-88885674D01*
X154456176Y-88729425D01*
X154570788Y-88592837D01*
X154709746Y-88481111D01*
X154867759Y-88398504D01*
X155038808Y-88348161D01*
X155038842Y-88348158D01*
X155038852Y-88348155D01*
X155216380Y-88332000D01*
X155393653Y-88350631D01*
X155393653Y-88350631D01*
G37*
G36*
X153583600Y-90163600D02*
X151756400Y-90163600D01*
X151756400Y-88336400D01*
X153583600Y-88336400D01*
X153583600Y-90163600D01*
X153583600Y-90163600D01*
G37*
G36*
X211813600Y-89788600D02*
X207186400Y-89788600D01*
X207186400Y-87661400D01*
X211813600Y-87661400D01*
X211813600Y-89788600D01*
X211813600Y-89788600D01*
G37*
G36*
X160473653Y-84350631D02*
X160473665Y-84350635D01*
X160473705Y-84350639D01*
X160644034Y-84403365D01*
X160800879Y-84488170D01*
X160938264Y-84601825D01*
X161050957Y-84740000D01*
X161134665Y-84897433D01*
X161186201Y-85068126D01*
X161203600Y-85245579D01*
X161203600Y-85254455D01*
X161203526Y-85265117D01*
X161203525Y-85265123D01*
X161203511Y-85267177D01*
X161183636Y-85444369D01*
X161129722Y-85614326D01*
X161043824Y-85770575D01*
X160929212Y-85907163D01*
X160790254Y-86018889D01*
X160632241Y-86101496D01*
X160461192Y-86151839D01*
X160461158Y-86151842D01*
X160461148Y-86151845D01*
X160283620Y-86168000D01*
X160106347Y-86149369D01*
X160106335Y-86149365D01*
X160106295Y-86149361D01*
X159935966Y-86096635D01*
X159779121Y-86011830D01*
X159641736Y-85898175D01*
X159529043Y-85760000D01*
X159445335Y-85602567D01*
X159393799Y-85431874D01*
X159376400Y-85254421D01*
X159376400Y-85245545D01*
X159376474Y-85234883D01*
X159376475Y-85234877D01*
X159376489Y-85232823D01*
X159396364Y-85055631D01*
X159450278Y-84885674D01*
X159536176Y-84729425D01*
X159650788Y-84592837D01*
X159789746Y-84481111D01*
X159947759Y-84398504D01*
X160118808Y-84348161D01*
X160118842Y-84348158D01*
X160118852Y-84348155D01*
X160296380Y-84332000D01*
X160473653Y-84350631D01*
X160473653Y-84350631D01*
G37*
G36*
X157933653Y-84350631D02*
X157933665Y-84350635D01*
X157933705Y-84350639D01*
X158104034Y-84403365D01*
X158260879Y-84488170D01*
X158398264Y-84601825D01*
X158510957Y-84740000D01*
X158594665Y-84897433D01*
X158646201Y-85068126D01*
X158663600Y-85245579D01*
X158663600Y-85254455D01*
X158663526Y-85265117D01*
X158663525Y-85265123D01*
X158663511Y-85267177D01*
X158643636Y-85444369D01*
X158589722Y-85614326D01*
X158503824Y-85770575D01*
X158389212Y-85907163D01*
X158250254Y-86018889D01*
X158092241Y-86101496D01*
X157921192Y-86151839D01*
X157921158Y-86151842D01*
X157921148Y-86151845D01*
X157743620Y-86168000D01*
X157566347Y-86149369D01*
X157566335Y-86149365D01*
X157566295Y-86149361D01*
X157395966Y-86096635D01*
X157239121Y-86011830D01*
X157101736Y-85898175D01*
X156989043Y-85760000D01*
X156905335Y-85602567D01*
X156853799Y-85431874D01*
X156836400Y-85254421D01*
X156836400Y-85245545D01*
X156836474Y-85234883D01*
X156836475Y-85234877D01*
X156836489Y-85232823D01*
X156856364Y-85055631D01*
X156910278Y-84885674D01*
X156996176Y-84729425D01*
X157110788Y-84592837D01*
X157249746Y-84481111D01*
X157407759Y-84398504D01*
X157578808Y-84348161D01*
X157578842Y-84348158D01*
X157578852Y-84348155D01*
X157756380Y-84332000D01*
X157933653Y-84350631D01*
X157933653Y-84350631D01*
G37*
G36*
X155393653Y-84350631D02*
X155393665Y-84350635D01*
X155393705Y-84350639D01*
X155564034Y-84403365D01*
X155720879Y-84488170D01*
X155858264Y-84601825D01*
X155970957Y-84740000D01*
X156054665Y-84897433D01*
X156106201Y-85068126D01*
X156123600Y-85245579D01*
X156123600Y-85254455D01*
X156123526Y-85265117D01*
X156123525Y-85265123D01*
X156123511Y-85267177D01*
X156103636Y-85444369D01*
X156049722Y-85614326D01*
X155963824Y-85770575D01*
X155849212Y-85907163D01*
X155710254Y-86018889D01*
X155552241Y-86101496D01*
X155381192Y-86151839D01*
X155381158Y-86151842D01*
X155381148Y-86151845D01*
X155203620Y-86168000D01*
X155026347Y-86149369D01*
X155026335Y-86149365D01*
X155026295Y-86149361D01*
X154855966Y-86096635D01*
X154699121Y-86011830D01*
X154561736Y-85898175D01*
X154449043Y-85760000D01*
X154365335Y-85602567D01*
X154313799Y-85431874D01*
X154296400Y-85254421D01*
X154296400Y-85245545D01*
X154296474Y-85234883D01*
X154296475Y-85234877D01*
X154296489Y-85232823D01*
X154316364Y-85055631D01*
X154370278Y-84885674D01*
X154456176Y-84729425D01*
X154570788Y-84592837D01*
X154709746Y-84481111D01*
X154867759Y-84398504D01*
X155038808Y-84348161D01*
X155038842Y-84348158D01*
X155038852Y-84348155D01*
X155216380Y-84332000D01*
X155393653Y-84350631D01*
X155393653Y-84350631D01*
G37*
G36*
X153583600Y-86163600D02*
X151756400Y-86163600D01*
X151756400Y-84336400D01*
X153583600Y-84336400D01*
X153583600Y-86163600D01*
X153583600Y-86163600D01*
G37*
G36*
X211813600Y-83838600D02*
X207186400Y-83838600D01*
X207186400Y-81711400D01*
X211813600Y-81711400D01*
X211813600Y-83838600D01*
X211813600Y-83838600D01*
G37*
G36*
X144381625Y-78816450D02*
X144381630Y-78816451D01*
X144383686Y-78816465D01*
X144512391Y-78830901D01*
X144635841Y-78870062D01*
X144749333Y-78932455D01*
X144848545Y-79015703D01*
X144929698Y-79116637D01*
X144989700Y-79231411D01*
X145026267Y-79355654D01*
X145026270Y-79355687D01*
X145026273Y-79355697D01*
X145038007Y-79484635D01*
X145024476Y-79613383D01*
X145024471Y-79613400D01*
X145024467Y-79613435D01*
X144986169Y-79737155D01*
X144924570Y-79851080D01*
X144842016Y-79950871D01*
X144741652Y-80032727D01*
X144627299Y-80093529D01*
X144503315Y-80130962D01*
X144374421Y-80143600D01*
X143865547Y-80143600D01*
X143858375Y-80143550D01*
X143858370Y-80143549D01*
X143856314Y-80143535D01*
X143727609Y-80129099D01*
X143604159Y-80089938D01*
X143490667Y-80027545D01*
X143391455Y-79944297D01*
X143310302Y-79843363D01*
X143250300Y-79728589D01*
X143213733Y-79604346D01*
X143213730Y-79604313D01*
X143213727Y-79604303D01*
X143201993Y-79475365D01*
X143215524Y-79346617D01*
X143215529Y-79346600D01*
X143215533Y-79346565D01*
X143253831Y-79222845D01*
X143315430Y-79108920D01*
X143397984Y-79009129D01*
X143498348Y-78927273D01*
X143612701Y-78866471D01*
X143736685Y-78829038D01*
X143865579Y-78816400D01*
X144374452Y-78816400D01*
X144381625Y-78816450D01*
X144381625Y-78816450D01*
G37*
G36*
X147330443Y-78556445D02*
X147330448Y-78556446D01*
X147332504Y-78556460D01*
X147451512Y-78569809D01*
X147565660Y-78606019D01*
X147670601Y-78663710D01*
X147762337Y-78740687D01*
X147837376Y-78834015D01*
X147892857Y-78940141D01*
X147926668Y-79055023D01*
X147926671Y-79055051D01*
X147926675Y-79055066D01*
X147937524Y-79174286D01*
X147925013Y-79293329D01*
X147925008Y-79293346D01*
X147925004Y-79293381D01*
X147889592Y-79407780D01*
X147832634Y-79513121D01*
X147756301Y-79605393D01*
X147663498Y-79681080D01*
X147557762Y-79737301D01*
X147443119Y-79771914D01*
X147323937Y-79783600D01*
X146916030Y-79783600D01*
X146909557Y-79783555D01*
X146909552Y-79783554D01*
X146907496Y-79783540D01*
X146788488Y-79770191D01*
X146674340Y-79733981D01*
X146569399Y-79676290D01*
X146477663Y-79599313D01*
X146402624Y-79505985D01*
X146347143Y-79399859D01*
X146313332Y-79284977D01*
X146313329Y-79284949D01*
X146313325Y-79284934D01*
X146302476Y-79165714D01*
X146314987Y-79046671D01*
X146314992Y-79046654D01*
X146314996Y-79046619D01*
X146350408Y-78932220D01*
X146407366Y-78826879D01*
X146483699Y-78734607D01*
X146576502Y-78658920D01*
X146682238Y-78602699D01*
X146796881Y-78568086D01*
X146916063Y-78556400D01*
X147323970Y-78556400D01*
X147330443Y-78556445D01*
X147330443Y-78556445D01*
G37*
G36*
X147330443Y-73716445D02*
X147330448Y-73716446D01*
X147332504Y-73716460D01*
X147451512Y-73729809D01*
X147565660Y-73766019D01*
X147670601Y-73823710D01*
X147762337Y-73900687D01*
X147837376Y-73994015D01*
X147892857Y-74100141D01*
X147926668Y-74215023D01*
X147926671Y-74215051D01*
X147926675Y-74215066D01*
X147937524Y-74334286D01*
X147925013Y-74453329D01*
X147925008Y-74453346D01*
X147925004Y-74453381D01*
X147889592Y-74567780D01*
X147832634Y-74673121D01*
X147756301Y-74765393D01*
X147663498Y-74841080D01*
X147557762Y-74897301D01*
X147443119Y-74931914D01*
X147323937Y-74943600D01*
X146916030Y-74943600D01*
X146909557Y-74943555D01*
X146909552Y-74943554D01*
X146907496Y-74943540D01*
X146788488Y-74930191D01*
X146674340Y-74893981D01*
X146569399Y-74836290D01*
X146477663Y-74759313D01*
X146402624Y-74665985D01*
X146347143Y-74559859D01*
X146313332Y-74444977D01*
X146313329Y-74444949D01*
X146313325Y-74444934D01*
X146302476Y-74325714D01*
X146314987Y-74206671D01*
X146314992Y-74206654D01*
X146314996Y-74206619D01*
X146350408Y-74092220D01*
X146407366Y-73986879D01*
X146483699Y-73894607D01*
X146576502Y-73818920D01*
X146682238Y-73762699D01*
X146796881Y-73728086D01*
X146916063Y-73716400D01*
X147323970Y-73716400D01*
X147330443Y-73716445D01*
X147330443Y-73716445D01*
G37*
G36*
X144381625Y-73356450D02*
X144381630Y-73356451D01*
X144383686Y-73356465D01*
X144512391Y-73370901D01*
X144635841Y-73410062D01*
X144749333Y-73472455D01*
X144848545Y-73555703D01*
X144929698Y-73656637D01*
X144989700Y-73771411D01*
X145026267Y-73895654D01*
X145026270Y-73895687D01*
X145026273Y-73895697D01*
X145038007Y-74024635D01*
X145024476Y-74153383D01*
X145024471Y-74153400D01*
X145024467Y-74153435D01*
X144986169Y-74277155D01*
X144924570Y-74391080D01*
X144842016Y-74490871D01*
X144741652Y-74572727D01*
X144627299Y-74633529D01*
X144503315Y-74670962D01*
X144374421Y-74683600D01*
X143865547Y-74683600D01*
X143858375Y-74683550D01*
X143858370Y-74683549D01*
X143856314Y-74683535D01*
X143727609Y-74669099D01*
X143604159Y-74629938D01*
X143490667Y-74567545D01*
X143391455Y-74484297D01*
X143310302Y-74383363D01*
X143250300Y-74268589D01*
X143213733Y-74144346D01*
X143213730Y-74144313D01*
X143213727Y-74144303D01*
X143201993Y-74015365D01*
X143215524Y-73886617D01*
X143215529Y-73886600D01*
X143215533Y-73886565D01*
X143253831Y-73762845D01*
X143315430Y-73648920D01*
X143397984Y-73549129D01*
X143498348Y-73467273D01*
X143612701Y-73406471D01*
X143736685Y-73369038D01*
X143865579Y-73356400D01*
X144374452Y-73356400D01*
X144381625Y-73356450D01*
X144381625Y-73356450D01*
G37*
G36*
X211813600Y-73788600D02*
X207186400Y-73788600D01*
X207186400Y-71661400D01*
X211813600Y-71661400D01*
X211813600Y-73788600D01*
X211813600Y-73788600D01*
G37*
G36*
X211813600Y-67838600D02*
X207186400Y-67838600D01*
X207186400Y-65711400D01*
X211813600Y-65711400D01*
X211813600Y-67838600D01*
X211813600Y-67838600D01*
G37*
M02*
