G04 #@! TF.FileFunction,Paste,Top*
%FSLAX46Y46*%
G04 Gerber Fmt 4.6, Leading zero omitted, Abs format (unit mm)*
G04 Created by KiCad (PCBNEW 4.0.6-e0-6349~53~ubuntu14.04.1) date Thu Apr 13 01:16:21 2017*
%MOMM*%
%LPD*%
G01*
G04 APERTURE LIST*
%ADD10C,0.100000*%
%ADD11R,1.450000X0.400000*%
%ADD12R,0.450000X0.250000*%
%ADD13R,0.560000X0.170000*%
%ADD14R,0.560000X0.210000*%
%ADD15R,0.750000X0.260000*%
%ADD16R,0.260000X0.750000*%
%ADD17R,0.650000X0.650000*%
%ADD18R,0.700000X0.250000*%
%ADD19R,0.250000X0.700000*%
%ADD20R,1.035000X1.035000*%
%ADD21R,1.500000X0.850000*%
%ADD22R,0.500000X0.900000*%
%ADD23R,0.800000X0.750000*%
%ADD24R,0.750000X0.800000*%
%ADD25R,0.600000X0.500000*%
%ADD26R,0.500000X0.600000*%
%ADD27R,0.800000X0.800000*%
%ADD28R,1.250000X1.000000*%
%ADD29R,1.000000X1.250000*%
%ADD30R,1.650000X0.400000*%
%ADD31R,2.500000X1.430000*%
%ADD32R,0.900000X0.500000*%
%ADD33R,0.400000X0.600000*%
%ADD34R,0.600000X0.400000*%
%ADD35R,3.250000X1.900000*%
%ADD36R,0.950000X1.900000*%
%ADD37R,0.300000X0.800000*%
%ADD38R,0.330000X0.410000*%
%ADD39R,0.500000X0.400000*%
%ADD40R,0.675000X0.250000*%
%ADD41R,0.450000X0.800000*%
G04 APERTURE END LIST*
D10*
D11*
X176500000Y-85400000D03*
X176500000Y-86050000D03*
X176500000Y-86700000D03*
X176500000Y-87350000D03*
X180900000Y-87350000D03*
X180900000Y-86700000D03*
X180900000Y-86050000D03*
X180900000Y-85400000D03*
D12*
X166625000Y-83750000D03*
X166625000Y-84250000D03*
X166625000Y-84750000D03*
X166625000Y-85250000D03*
X168375000Y-85250000D03*
X168375000Y-84750000D03*
X168375000Y-84250000D03*
X168375000Y-83750000D03*
D13*
X167500000Y-84020000D03*
D14*
X167500000Y-84500000D03*
D13*
X167500000Y-85000000D03*
D15*
X167975000Y-76500000D03*
X167975000Y-76000000D03*
X167975000Y-75500000D03*
X167975000Y-75000000D03*
D16*
X167250000Y-74275000D03*
X166750000Y-74275000D03*
X166250000Y-74275000D03*
X165750000Y-74275000D03*
D15*
X165025000Y-75000000D03*
X165025000Y-75500000D03*
X165025000Y-76000000D03*
X165025000Y-76500000D03*
D16*
X165750000Y-77225000D03*
X166250000Y-77225000D03*
X166750000Y-77225000D03*
X167250000Y-77225000D03*
D17*
X166912500Y-76162500D03*
X166087500Y-75337500D03*
X166912500Y-75337500D03*
X166087500Y-76162500D03*
D18*
X156537500Y-77500000D03*
X156537500Y-77000000D03*
X156537500Y-76500000D03*
X156537500Y-76000000D03*
X156537500Y-75500000D03*
X156537500Y-75000000D03*
X156537500Y-74500000D03*
X156537500Y-74000000D03*
D19*
X155887500Y-73350000D03*
X155387500Y-73350000D03*
X154887500Y-73350000D03*
X154387500Y-73350000D03*
X153887500Y-73350000D03*
X153387500Y-73350000D03*
X152887500Y-73350000D03*
X152387500Y-73350000D03*
D18*
X151737500Y-74000000D03*
X151737500Y-74500000D03*
X151737500Y-75000000D03*
X151737500Y-75500000D03*
X151737500Y-76000000D03*
X151737500Y-76500000D03*
X151737500Y-77000000D03*
X151737500Y-77500000D03*
D19*
X152387500Y-78150000D03*
X152887500Y-78150000D03*
X153387500Y-78150000D03*
X153887500Y-78150000D03*
X154387500Y-78150000D03*
X154887500Y-78150000D03*
X155387500Y-78150000D03*
X155887500Y-78150000D03*
D20*
X153275000Y-74887500D03*
X153275000Y-76612500D03*
X155000000Y-74887500D03*
X155000000Y-76612500D03*
D21*
X170750000Y-65650000D03*
X165250000Y-65650000D03*
X165250000Y-69350000D03*
X170750000Y-69350000D03*
X154500000Y-65650000D03*
X149000000Y-65650000D03*
X149000000Y-69350000D03*
X154500000Y-69350000D03*
D22*
X163500000Y-72750000D03*
X162000000Y-72750000D03*
X154250000Y-71500000D03*
X155750000Y-71500000D03*
D23*
X144150000Y-81950000D03*
X145650000Y-81950000D03*
X151250000Y-71500000D03*
X152750000Y-71500000D03*
X157250000Y-79750000D03*
X155750000Y-79750000D03*
X160450000Y-74500000D03*
X158950000Y-74500000D03*
X147350000Y-81950000D03*
X148850000Y-81950000D03*
X145550000Y-69650000D03*
X147050000Y-69650000D03*
D24*
X158500000Y-76000000D03*
X158500000Y-77500000D03*
D23*
X160250000Y-79750000D03*
X158750000Y-79750000D03*
X164750000Y-84000000D03*
X163250000Y-84000000D03*
X169750000Y-73250000D03*
X171250000Y-73250000D03*
X168250000Y-82000000D03*
X166750000Y-82000000D03*
X164750000Y-85500000D03*
X163250000Y-85500000D03*
X169750000Y-77750000D03*
X171250000Y-77750000D03*
X163500000Y-77500000D03*
X162000000Y-77500000D03*
X165500000Y-79000000D03*
X167000000Y-79000000D03*
X163500000Y-76000000D03*
X162000000Y-76000000D03*
X171750000Y-88250000D03*
X170250000Y-88250000D03*
X171750000Y-86750000D03*
X170250000Y-86750000D03*
D25*
X180900000Y-88910000D03*
X179800000Y-88910000D03*
D24*
X174570000Y-85300000D03*
X174570000Y-86800000D03*
D26*
X182620000Y-87200000D03*
X182620000Y-88300000D03*
D25*
X200569779Y-72111867D03*
X199469779Y-72111867D03*
X203700000Y-69661867D03*
X204800000Y-69661867D03*
D23*
X181250000Y-83500000D03*
X179750000Y-83500000D03*
D26*
X178127416Y-71530846D03*
X178127416Y-72630846D03*
D23*
X199669779Y-75211867D03*
X201169779Y-75211867D03*
D24*
X176507416Y-71530846D03*
X176507416Y-73030846D03*
D25*
X189627416Y-73070846D03*
X190727416Y-73070846D03*
D23*
X198069779Y-75211867D03*
X196569779Y-75211867D03*
D25*
X196769779Y-72111867D03*
X195669779Y-72111867D03*
X192969779Y-69661867D03*
X194069779Y-69661867D03*
D26*
X188027416Y-73050000D03*
X188027416Y-74150000D03*
D25*
X186910000Y-83660000D03*
X188010000Y-83660000D03*
X179697416Y-73850846D03*
X180797416Y-73850846D03*
X185360000Y-86060000D03*
X184260000Y-86060000D03*
D26*
X186527416Y-69950846D03*
X186527416Y-71050846D03*
X184087416Y-74160846D03*
X184087416Y-73060846D03*
D23*
X187810000Y-80510000D03*
X186310000Y-80510000D03*
X191350000Y-80550000D03*
X189850000Y-80550000D03*
D25*
X190710000Y-83660000D03*
X191810000Y-83660000D03*
X194710000Y-86060000D03*
X193610000Y-86060000D03*
D27*
X157000000Y-68050000D03*
X157000000Y-66450000D03*
X159500000Y-68050000D03*
X159500000Y-66450000D03*
X162000000Y-68050000D03*
X162000000Y-66450000D03*
D28*
X160250000Y-78000000D03*
X160250000Y-76000000D03*
D29*
X147300000Y-71300000D03*
X145300000Y-71300000D03*
X162750000Y-82000000D03*
X164750000Y-82000000D03*
D26*
X200569779Y-70761867D03*
X200569779Y-69661867D03*
X195669779Y-70761867D03*
X195669779Y-69661867D03*
D25*
X186717416Y-73060846D03*
X185617416Y-73060846D03*
D26*
X186910000Y-84960000D03*
X186910000Y-86060000D03*
D25*
X185207416Y-69870846D03*
X184107416Y-69870846D03*
X185207416Y-71130846D03*
X184107416Y-71130846D03*
D26*
X191810000Y-84960000D03*
X191810000Y-86060000D03*
D30*
X147000000Y-75450000D03*
X147000000Y-76100000D03*
X147000000Y-76750000D03*
X147000000Y-77400000D03*
X147000000Y-78050000D03*
D31*
X143880000Y-75790000D03*
X143880000Y-77710000D03*
D32*
X150000000Y-79750000D03*
X150000000Y-78250000D03*
X157000000Y-71000000D03*
X157000000Y-69500000D03*
X159500000Y-71000000D03*
X159500000Y-69500000D03*
X162000000Y-71000000D03*
X162000000Y-69500000D03*
D22*
X169750000Y-79250000D03*
X171250000Y-79250000D03*
X163500000Y-79000000D03*
X162000000Y-79000000D03*
X165750000Y-72750000D03*
X167250000Y-72750000D03*
X169750000Y-71750000D03*
X171250000Y-71750000D03*
X168250000Y-88250000D03*
X166750000Y-88250000D03*
X166750000Y-86750000D03*
X168250000Y-86750000D03*
X170250000Y-83500000D03*
X171750000Y-83500000D03*
X171750000Y-85250000D03*
X170250000Y-85250000D03*
D33*
X199669779Y-73511867D03*
X200569779Y-73511867D03*
X197669779Y-73511867D03*
X198569779Y-73511867D03*
X196569779Y-73511867D03*
X195669779Y-73511867D03*
X187550000Y-68200000D03*
X188450000Y-68200000D03*
X187810000Y-82210000D03*
X186910000Y-82210000D03*
X189810000Y-82210000D03*
X188910000Y-82210000D03*
X190910000Y-82210000D03*
X191810000Y-82210000D03*
D34*
X176500000Y-68800000D03*
X176500000Y-69700000D03*
X178250000Y-69700000D03*
X178250000Y-68800000D03*
D32*
X199160000Y-86830000D03*
X199160000Y-85330000D03*
D35*
X146550000Y-89850000D03*
D36*
X148850000Y-83750000D03*
X146550000Y-83750000D03*
X144250000Y-83750000D03*
D37*
X189127416Y-69750846D03*
X188477416Y-69750846D03*
X187827416Y-69750846D03*
X187827416Y-71050846D03*
X188477416Y-71050846D03*
X189127416Y-71050846D03*
D38*
X197570000Y-86070000D03*
X197570000Y-85410000D03*
X197570000Y-86730000D03*
X196570000Y-86070000D03*
X196570000Y-85410000D03*
X196570000Y-86730000D03*
D39*
X200200000Y-83375000D03*
X200200000Y-84025000D03*
X199200000Y-83375000D03*
X199200000Y-84025000D03*
D22*
X157250000Y-81500000D03*
X155750000Y-81500000D03*
X152500000Y-81500000D03*
X154000000Y-81500000D03*
X176500000Y-89100000D03*
X175000000Y-89100000D03*
D25*
X205050000Y-85750000D03*
X203950000Y-85750000D03*
D12*
X199044779Y-70161867D03*
X199044779Y-69661867D03*
X199044779Y-69161867D03*
X199044779Y-68661867D03*
X197294779Y-68661867D03*
X197294779Y-69161867D03*
X197294779Y-69661867D03*
X197294779Y-70161867D03*
D13*
X198169779Y-69891867D03*
D14*
X198169779Y-69411867D03*
D13*
X198169779Y-68911867D03*
D12*
X188485000Y-85560000D03*
X188485000Y-86060000D03*
X188485000Y-86560000D03*
X188485000Y-87060000D03*
X190235000Y-87060000D03*
X190235000Y-86560000D03*
X190235000Y-86060000D03*
X190235000Y-85560000D03*
D13*
X189360000Y-85830000D03*
D14*
X189360000Y-86310000D03*
D13*
X189360000Y-86810000D03*
D40*
X182492416Y-72015846D03*
X182492416Y-71515846D03*
X182492416Y-71015846D03*
X182492416Y-70515846D03*
X179692416Y-70515846D03*
X179692416Y-71015846D03*
X179692416Y-71515846D03*
X179692416Y-72015846D03*
D41*
X181504916Y-71860846D03*
X180679916Y-70670846D03*
X181504916Y-70670846D03*
X180679916Y-71860846D03*
D23*
X165500000Y-80400000D03*
X167000000Y-80400000D03*
M02*
