G04 #@! TF.FileFunction,Copper,L2,Inr,Signal*
%FSLAX46Y46*%
G04 Gerber Fmt 4.6, Leading zero omitted, Abs format (unit mm)*
G04 Created by KiCad (PCBNEW 4.0.5-e0-6337~49~ubuntu14.04.1) date Tue Feb 21 17:31:46 2017*
%MOMM*%
%LPD*%
G01*
G04 APERTURE LIST*
%ADD10C,0.100000*%
%ADD11R,1.700000X1.700000*%
%ADD12O,1.700000X1.700000*%
%ADD13O,1.500000X1.100000*%
%ADD14O,1.700000X1.200000*%
%ADD15C,0.600000*%
%ADD16C,0.460000*%
%ADD17C,0.380000*%
%ADD18C,0.254000*%
G04 APERTURE END LIST*
D10*
D11*
X120460000Y-89000000D03*
D12*
X123000000Y-89000000D03*
X125540000Y-89000000D03*
X128080000Y-89000000D03*
D11*
X134920000Y-89000000D03*
D12*
X137460000Y-89000000D03*
X140000000Y-89000000D03*
X142540000Y-89000000D03*
D13*
X122870000Y-75580000D03*
X122870000Y-80420000D03*
D14*
X119870000Y-75270000D03*
X119870000Y-80730000D03*
D15*
X147000000Y-84250000D03*
X176500000Y-68200000D03*
X127400000Y-66700000D03*
X126500000Y-73600000D03*
X128500000Y-73700000D03*
D16*
X195850000Y-75200000D03*
X196569779Y-74300000D03*
X190900000Y-81600000D03*
X189100000Y-80550000D03*
X189850000Y-79800000D03*
X183400000Y-71750000D03*
X175750000Y-71550000D03*
X177350000Y-71530846D03*
X178850000Y-71515846D03*
D15*
X178250000Y-68200000D03*
D16*
X125250000Y-79750000D03*
X192750000Y-72250000D03*
X192500000Y-71000000D03*
X190500000Y-71000000D03*
X194250000Y-71250000D03*
X194000000Y-73750000D03*
X179500000Y-75250000D03*
X175750000Y-75500000D03*
X174500000Y-77000000D03*
X173250000Y-78250000D03*
X173250000Y-80000000D03*
X173250000Y-81500000D03*
X173750000Y-83500000D03*
X176250000Y-84000000D03*
X178000000Y-84250000D03*
X181500000Y-82000000D03*
X183250000Y-82250000D03*
X183750000Y-84500000D03*
X185500000Y-84500000D03*
X185500000Y-82000000D03*
X188500000Y-79000000D03*
X193250000Y-82500000D03*
X193250000Y-84500000D03*
X197750000Y-84000000D03*
X191000000Y-74500000D03*
X192000000Y-75500000D03*
X193250000Y-76750000D03*
X194750000Y-78250000D03*
X196000000Y-79750000D03*
X197250000Y-81000000D03*
X197750000Y-82250000D03*
X206750000Y-88750000D03*
X207750000Y-88500000D03*
X209250000Y-88500000D03*
X210750000Y-88500000D03*
X209250000Y-67000000D03*
X210750000Y-83000000D03*
X209500000Y-83000000D03*
X208250000Y-83000000D03*
X206750000Y-83000000D03*
X206750000Y-81750000D03*
X206750000Y-81000000D03*
X206750000Y-80000000D03*
X208250000Y-80000000D03*
X209500000Y-80000000D03*
X210750000Y-80000000D03*
X210750000Y-79000000D03*
X210750000Y-77750000D03*
X210750000Y-76500000D03*
X210500000Y-75500000D03*
X209250000Y-75500000D03*
X208250000Y-75500000D03*
X207000000Y-75500000D03*
X206750000Y-74500000D03*
X206750000Y-73500000D03*
X207000000Y-72500000D03*
X208250000Y-72500000D03*
X209250000Y-72500000D03*
X210500000Y-72500000D03*
X205000000Y-87250000D03*
X203000000Y-87250000D03*
X200750000Y-88250000D03*
X198250000Y-88250000D03*
X194000000Y-87500000D03*
X191750000Y-87500000D03*
X189500000Y-88250000D03*
X187000000Y-87750000D03*
X184750000Y-87500000D03*
X184500000Y-90250000D03*
X186750000Y-90250000D03*
X189500000Y-90250000D03*
X191750000Y-90250000D03*
X194000000Y-90250000D03*
X196250000Y-90250000D03*
X198000000Y-90250000D03*
X199750000Y-90250000D03*
X201750000Y-90250000D03*
X203500000Y-90250000D03*
X205250000Y-90250000D03*
X206750000Y-90250000D03*
X210750000Y-87500000D03*
X209250000Y-87500000D03*
X207750000Y-87500000D03*
X210500000Y-84000000D03*
X209250000Y-84000000D03*
X207750000Y-84000000D03*
X206000000Y-84250000D03*
X204250000Y-84250000D03*
X202250000Y-84500000D03*
X200250000Y-80000000D03*
X199000000Y-78750000D03*
X197750000Y-77500000D03*
X199750000Y-76750000D03*
X202000000Y-72500000D03*
X202000000Y-71000000D03*
X203500000Y-71250000D03*
X205000000Y-71250000D03*
X206750000Y-71250000D03*
X208500000Y-71500000D03*
X210500000Y-71500000D03*
X180500000Y-67000000D03*
X180750000Y-69000000D03*
X182750000Y-69000000D03*
X184250000Y-68500000D03*
X186000000Y-68500000D03*
X189250000Y-66750000D03*
X190000000Y-68250000D03*
X191500000Y-68500000D03*
X193500000Y-68250000D03*
X195250000Y-68250000D03*
X196500000Y-67500000D03*
X198250000Y-67500000D03*
X199750000Y-67250000D03*
X201250000Y-68250000D03*
X203000000Y-68250000D03*
X204750000Y-68000000D03*
X208000000Y-67750000D03*
X210500000Y-67750000D03*
X173500000Y-65250000D03*
X176500000Y-65250000D03*
X179500000Y-65250000D03*
X182500000Y-65250000D03*
X185500000Y-65250000D03*
X188500000Y-65250000D03*
X191500000Y-65250000D03*
X194500000Y-65250000D03*
X197500000Y-65250000D03*
X200500000Y-65250000D03*
X203500000Y-65250000D03*
X206500000Y-65250000D03*
X119630000Y-78960000D03*
X119630000Y-77040000D03*
X189375000Y-87200000D03*
X189350000Y-85425000D03*
X189360000Y-86560000D03*
X189360000Y-86060000D03*
X198175000Y-70300000D03*
X198175000Y-68525000D03*
X198169779Y-69661867D03*
X198169779Y-69161867D03*
D15*
X126750000Y-81950000D03*
X128500000Y-69300000D03*
X129300000Y-71750000D03*
X125800000Y-72350000D03*
X128500000Y-76850000D03*
X130600000Y-79700000D03*
X135650000Y-81650000D03*
X137150000Y-81650000D03*
X140500000Y-80300000D03*
X143250000Y-75000000D03*
X141250000Y-75000000D03*
D16*
X139250000Y-76650000D03*
D15*
X132600000Y-73050000D03*
X133350000Y-72250000D03*
X174300000Y-89100000D03*
X150250000Y-86600000D03*
X154250000Y-86800000D03*
X152250000Y-86450000D03*
X151000000Y-82500000D03*
X164300000Y-86000000D03*
X156700000Y-81500000D03*
X168000000Y-81250000D03*
D16*
X173900000Y-86800000D03*
X175350000Y-86700000D03*
X177600000Y-86700000D03*
X180900000Y-84900000D03*
X179850000Y-85350000D03*
X179200000Y-88900000D03*
X183150000Y-88300000D03*
X182650000Y-88850000D03*
X179800000Y-88400000D03*
X179750000Y-82800000D03*
X185550000Y-80500000D03*
X186300000Y-79750000D03*
X191350000Y-79850000D03*
X192200000Y-80550000D03*
D15*
X160150000Y-69500000D03*
X152750000Y-71750000D03*
X148150000Y-68250000D03*
X145050000Y-73500000D03*
X162000000Y-70500000D03*
D16*
X138900000Y-65700000D03*
X136400000Y-65700000D03*
X134150000Y-65700000D03*
X175850000Y-73050000D03*
X176500000Y-73700000D03*
X177150000Y-73050000D03*
X177600000Y-72700000D03*
X178150000Y-73200000D03*
X180677416Y-71860846D03*
X181507416Y-71860846D03*
X181507416Y-70670846D03*
X180677416Y-70670846D03*
X180800000Y-74350000D03*
X180800000Y-73350000D03*
X181350000Y-73850000D03*
X188050000Y-74700000D03*
X188550000Y-74150000D03*
X187500000Y-74150000D03*
X183600000Y-74150000D03*
X184100000Y-74700000D03*
X184600000Y-74150000D03*
X188500000Y-72150000D03*
X188500000Y-71700000D03*
X187550000Y-68750000D03*
X187550000Y-67650000D03*
X187100000Y-68200000D03*
X201200000Y-75850000D03*
X201800000Y-75200000D03*
X201150000Y-74400000D03*
X198100000Y-75850000D03*
X198100000Y-74600000D03*
X199450000Y-72600000D03*
X198900000Y-72100000D03*
X197300000Y-72100000D03*
X196750000Y-72600000D03*
X200200000Y-84500000D03*
X200700000Y-84000000D03*
X200700000Y-83350000D03*
X200200000Y-82950000D03*
X197150000Y-86050000D03*
X196600000Y-87200000D03*
X196600000Y-84950000D03*
X196150000Y-86750000D03*
X196150000Y-85400000D03*
X198000000Y-86050000D03*
X188000000Y-83100000D03*
X188600000Y-83700000D03*
X190700000Y-83100000D03*
X190100000Y-83700000D03*
D15*
X129850000Y-70250000D03*
X131100000Y-84500000D03*
X136900000Y-84500000D03*
X130900000Y-81065000D03*
X138450000Y-81200000D03*
X139200000Y-80100000D03*
X142500000Y-81200000D03*
X131000000Y-71500000D03*
X135000000Y-70900000D03*
D16*
X181500000Y-88900000D03*
X183150000Y-87200000D03*
X179900000Y-87350000D03*
X179900000Y-86700000D03*
D15*
X145150000Y-75250000D03*
X182050000Y-83500000D03*
X154250000Y-80200000D03*
X152250000Y-80550000D03*
X149350000Y-84250000D03*
X149300000Y-81000000D03*
X160800000Y-80550000D03*
X149550000Y-73500000D03*
X160150000Y-74600000D03*
X171100000Y-79550000D03*
X164450000Y-82000000D03*
X152250000Y-83450000D03*
X154250000Y-83450000D03*
X162600000Y-75000000D03*
X162250000Y-68000000D03*
X158650000Y-69450000D03*
X158650000Y-74600000D03*
X150150000Y-75800000D03*
X156350000Y-68250000D03*
X132600000Y-83000000D03*
D16*
X129750000Y-79150000D03*
D15*
X141150000Y-72400000D03*
X137450000Y-71950000D03*
D17*
X191000000Y-74000000D02*
X192750000Y-72250000D01*
X192750000Y-72250000D02*
X193000000Y-72000000D01*
X192500000Y-71000000D02*
X192500000Y-72000000D01*
X192500000Y-72000000D02*
X192750000Y-72250000D01*
X194000000Y-71000000D02*
X192500000Y-71000000D01*
X192500000Y-71000000D02*
X190500000Y-71000000D01*
X191250000Y-71750000D02*
X191750000Y-71750000D01*
X191750000Y-71750000D02*
X192500000Y-71000000D01*
X190500000Y-71000000D02*
X191250000Y-71750000D01*
X194250000Y-71250000D02*
X194000000Y-71000000D01*
X194000000Y-73750000D02*
X194000000Y-71500000D01*
X194000000Y-71500000D02*
X194250000Y-71250000D01*
X193000000Y-72000000D02*
X193000000Y-72750000D01*
X193000000Y-72750000D02*
X194000000Y-73750000D01*
X191000000Y-74500000D02*
X191000000Y-74000000D01*
X175750000Y-75500000D02*
X179250000Y-75500000D01*
X179250000Y-75500000D02*
X179500000Y-75250000D01*
X174500000Y-77000000D02*
X174500000Y-76750000D01*
X174500000Y-76750000D02*
X175750000Y-75500000D01*
X173250000Y-78250000D02*
X174500000Y-77000000D01*
X173250000Y-80000000D02*
X173250000Y-78250000D01*
X173250000Y-81500000D02*
X173250000Y-80000000D01*
X173750000Y-83500000D02*
X173750000Y-82000000D01*
X173750000Y-82000000D02*
X173250000Y-81500000D01*
X176250000Y-84000000D02*
X174250000Y-84000000D01*
X174250000Y-84000000D02*
X173750000Y-83500000D01*
X178000000Y-84250000D02*
X176500000Y-84250000D01*
X176500000Y-84250000D02*
X176250000Y-84000000D01*
X181250000Y-82250000D02*
X180000000Y-82250000D01*
X180000000Y-82250000D02*
X178000000Y-84250000D01*
X181500000Y-82000000D02*
X181250000Y-82250000D01*
X183250000Y-82250000D02*
X181750000Y-82250000D01*
X181750000Y-82250000D02*
X181500000Y-82000000D01*
X183750000Y-84500000D02*
X183750000Y-82750000D01*
X183750000Y-82750000D02*
X183250000Y-82250000D01*
X185500000Y-84500000D02*
X183750000Y-84500000D01*
X185500000Y-82000000D02*
X185500000Y-84500000D01*
X184500000Y-79500000D02*
X184500000Y-81000000D01*
X184500000Y-81000000D02*
X185500000Y-82000000D01*
X185250000Y-78750000D02*
X184500000Y-79500000D01*
X188250000Y-78750000D02*
X185250000Y-78750000D01*
X188500000Y-79000000D02*
X188250000Y-78750000D01*
X190750000Y-78000000D02*
X189500000Y-78000000D01*
X189500000Y-78000000D02*
X188500000Y-79000000D01*
X192500000Y-79750000D02*
X190750000Y-78000000D01*
X193250000Y-79750000D02*
X192500000Y-79750000D01*
X193250000Y-82500000D02*
X193250000Y-79750000D01*
X193250000Y-84500000D02*
X193250000Y-82500000D01*
X197750000Y-84000000D02*
X193750000Y-84000000D01*
X193750000Y-84000000D02*
X193250000Y-84500000D01*
X197750000Y-82250000D02*
X197750000Y-84000000D01*
X192000000Y-75500000D02*
X191000000Y-74500000D01*
X193250000Y-76750000D02*
X192000000Y-75500000D01*
X194750000Y-78250000D02*
X193250000Y-76750000D01*
X196000000Y-79750000D02*
X196000000Y-79500000D01*
X196000000Y-79500000D02*
X194750000Y-78250000D01*
X197250000Y-81000000D02*
X196000000Y-79750000D01*
X197750000Y-82250000D02*
X197750000Y-81500000D01*
X197750000Y-81500000D02*
X197250000Y-81000000D01*
X202250000Y-82500000D02*
X202000000Y-82250000D01*
X202000000Y-82250000D02*
X197750000Y-82250000D01*
X202250000Y-84500000D02*
X202250000Y-82500000D01*
X207750000Y-88500000D02*
X207000000Y-88500000D01*
X207000000Y-88500000D02*
X206750000Y-88750000D01*
X209250000Y-88500000D02*
X207750000Y-88500000D01*
X209750000Y-88500000D02*
X209250000Y-88500000D01*
X210750000Y-88500000D02*
X209250000Y-88500000D01*
X210750000Y-87500000D02*
X210750000Y-88500000D01*
X208000000Y-67750000D02*
X208500000Y-67750000D01*
X208500000Y-67750000D02*
X209250000Y-67000000D01*
X209500000Y-83000000D02*
X210750000Y-83000000D01*
X208250000Y-83000000D02*
X209500000Y-83000000D01*
X206750000Y-83000000D02*
X208250000Y-83000000D01*
X206750000Y-81750000D02*
X206750000Y-83000000D01*
X206750000Y-81000000D02*
X206750000Y-81750000D01*
X206750000Y-80000000D02*
X206750000Y-81000000D01*
X208250000Y-80000000D02*
X206750000Y-80000000D01*
X209500000Y-80000000D02*
X208250000Y-80000000D01*
X210750000Y-80000000D02*
X209500000Y-80000000D01*
X210750000Y-79000000D02*
X210750000Y-80000000D01*
X210750000Y-77750000D02*
X210750000Y-79000000D01*
X210750000Y-76500000D02*
X210750000Y-77750000D01*
X210500000Y-75500000D02*
X210500000Y-76250000D01*
X210500000Y-76250000D02*
X210750000Y-76500000D01*
X209250000Y-75500000D02*
X210500000Y-75500000D01*
X208250000Y-75500000D02*
X209250000Y-75500000D01*
X207000000Y-75500000D02*
X208250000Y-75500000D01*
X206750000Y-74500000D02*
X206750000Y-75250000D01*
X206750000Y-75250000D02*
X207000000Y-75500000D01*
X206750000Y-73500000D02*
X206750000Y-74500000D01*
X207000000Y-72500000D02*
X207000000Y-73250000D01*
X207000000Y-73250000D02*
X206750000Y-73500000D01*
X208250000Y-72500000D02*
X207000000Y-72500000D01*
X209250000Y-72500000D02*
X208250000Y-72500000D01*
X210500000Y-72500000D02*
X209250000Y-72500000D01*
X210500000Y-71500000D02*
X210500000Y-72500000D01*
X203000000Y-87250000D02*
X205000000Y-87250000D01*
X200750000Y-88250000D02*
X202000000Y-88250000D01*
X202000000Y-88250000D02*
X203000000Y-87250000D01*
X198250000Y-88250000D02*
X200750000Y-88250000D01*
X195000000Y-87500000D02*
X195750000Y-88250000D01*
X195750000Y-88250000D02*
X198250000Y-88250000D01*
X194000000Y-87500000D02*
X195000000Y-87500000D01*
X191750000Y-87500000D02*
X194000000Y-87500000D01*
X189750000Y-88500000D02*
X190750000Y-88500000D01*
X190750000Y-88500000D02*
X191750000Y-87500000D01*
X189500000Y-88250000D02*
X189750000Y-88500000D01*
X187000000Y-87750000D02*
X189000000Y-87750000D01*
X189000000Y-87750000D02*
X189500000Y-88250000D01*
X184750000Y-87500000D02*
X186750000Y-87500000D01*
X186750000Y-87500000D02*
X187000000Y-87750000D01*
X184500000Y-90250000D02*
X184500000Y-87750000D01*
X184500000Y-87750000D02*
X184750000Y-87500000D01*
X186750000Y-90250000D02*
X184500000Y-90250000D01*
X189500000Y-90250000D02*
X186750000Y-90250000D01*
X191750000Y-90250000D02*
X189500000Y-90250000D01*
X194000000Y-90250000D02*
X191750000Y-90250000D01*
X196250000Y-90250000D02*
X194000000Y-90250000D01*
X198000000Y-90250000D02*
X196250000Y-90250000D01*
X199750000Y-90250000D02*
X198000000Y-90250000D01*
X201750000Y-90250000D02*
X199750000Y-90250000D01*
X203500000Y-90250000D02*
X201750000Y-90250000D01*
X205250000Y-90250000D02*
X203500000Y-90250000D01*
X206750000Y-90250000D02*
X205250000Y-90250000D01*
X206750000Y-88750000D02*
X206750000Y-90250000D01*
X210750000Y-87500000D02*
X209750000Y-88500000D01*
X209250000Y-87500000D02*
X210750000Y-87500000D01*
X207750000Y-87500000D02*
X209250000Y-87500000D01*
X207750000Y-84000000D02*
X207750000Y-87500000D01*
X209250000Y-84000000D02*
X210500000Y-84000000D01*
X207750000Y-84000000D02*
X209250000Y-84000000D01*
X206500000Y-84250000D02*
X206750000Y-84000000D01*
X206750000Y-84000000D02*
X207750000Y-84000000D01*
X206000000Y-84250000D02*
X206500000Y-84250000D01*
X204250000Y-84250000D02*
X206000000Y-84250000D01*
X203000000Y-84500000D02*
X203250000Y-84250000D01*
X203250000Y-84250000D02*
X204250000Y-84250000D01*
X202250000Y-84500000D02*
X203000000Y-84500000D01*
X200250000Y-80000000D02*
X202250000Y-82000000D01*
X202250000Y-82000000D02*
X202250000Y-84500000D01*
X199000000Y-78750000D02*
X200250000Y-80000000D01*
X197750000Y-77500000D02*
X199000000Y-78750000D01*
X199750000Y-76750000D02*
X198500000Y-76750000D01*
X198500000Y-76750000D02*
X197750000Y-77500000D01*
X202500000Y-76750000D02*
X199750000Y-76750000D01*
X202500000Y-74500000D02*
X202500000Y-76750000D01*
X202000000Y-74000000D02*
X202500000Y-74500000D01*
X202000000Y-72500000D02*
X202000000Y-74000000D01*
X202000000Y-71000000D02*
X202000000Y-72500000D01*
X203500000Y-71250000D02*
X202250000Y-71250000D01*
X202250000Y-71250000D02*
X202000000Y-71000000D01*
X205000000Y-71250000D02*
X203500000Y-71250000D01*
X206750000Y-71250000D02*
X205000000Y-71250000D01*
X208500000Y-71500000D02*
X207000000Y-71500000D01*
X207000000Y-71500000D02*
X206750000Y-71250000D01*
X210500000Y-71500000D02*
X208500000Y-71500000D01*
X210500000Y-67750000D02*
X210500000Y-71500000D01*
X180750000Y-69000000D02*
X180750000Y-67250000D01*
X180750000Y-67250000D02*
X180500000Y-67000000D01*
X182750000Y-69000000D02*
X180750000Y-69000000D01*
X184250000Y-68500000D02*
X183250000Y-68500000D01*
X183250000Y-68500000D02*
X182750000Y-69000000D01*
X186000000Y-68500000D02*
X184250000Y-68500000D01*
X189000000Y-66500000D02*
X188000000Y-66500000D01*
X188000000Y-66500000D02*
X186000000Y-68500000D01*
X189250000Y-66750000D02*
X189000000Y-66500000D01*
X190000000Y-68250000D02*
X190000000Y-67500000D01*
X190000000Y-67500000D02*
X189250000Y-66750000D01*
X191500000Y-68500000D02*
X190250000Y-68500000D01*
X190250000Y-68500000D02*
X190000000Y-68250000D01*
X193500000Y-68250000D02*
X191750000Y-68250000D01*
X191750000Y-68250000D02*
X191500000Y-68500000D01*
X195250000Y-68250000D02*
X193500000Y-68250000D01*
X196500000Y-67500000D02*
X196000000Y-67500000D01*
X196000000Y-67500000D02*
X195250000Y-68250000D01*
X198250000Y-67500000D02*
X196500000Y-67500000D01*
X199750000Y-67250000D02*
X198500000Y-67250000D01*
X198500000Y-67250000D02*
X198250000Y-67500000D01*
X201250000Y-68250000D02*
X200750000Y-68250000D01*
X200750000Y-68250000D02*
X199750000Y-67250000D01*
X203000000Y-68250000D02*
X201250000Y-68250000D01*
X204750000Y-68000000D02*
X203250000Y-68000000D01*
X203250000Y-68000000D02*
X203000000Y-68250000D01*
X204500000Y-66250000D02*
X204500000Y-67750000D01*
X204500000Y-67750000D02*
X204750000Y-68000000D01*
X208000000Y-66250000D02*
X204500000Y-66250000D01*
X208000000Y-67750000D02*
X208000000Y-66250000D01*
X210500000Y-67750000D02*
X208000000Y-67750000D01*
X206500000Y-65250000D02*
X208000000Y-65250000D01*
X208000000Y-65250000D02*
X210500000Y-67750000D01*
X206500000Y-65250000D02*
X206500000Y-67500000D01*
X173500000Y-65250000D02*
X173500000Y-66250000D01*
X173500000Y-66500000D02*
X173500000Y-66250000D01*
X175000000Y-65250000D02*
X173500000Y-65250000D01*
X176500000Y-65250000D02*
X175000000Y-65250000D01*
X178000000Y-65250000D02*
X176500000Y-65250000D01*
X179500000Y-65250000D02*
X178000000Y-65250000D01*
X181000000Y-65250000D02*
X179500000Y-65250000D01*
X182500000Y-65250000D02*
X181000000Y-65250000D01*
X184000000Y-65250000D02*
X182500000Y-65250000D01*
X185500000Y-65250000D02*
X184000000Y-65250000D01*
X187000000Y-65250000D02*
X185500000Y-65250000D01*
X188500000Y-65250000D02*
X187000000Y-65250000D01*
X190000000Y-65250000D02*
X188500000Y-65250000D01*
X191500000Y-65250000D02*
X190000000Y-65250000D01*
X193000000Y-65250000D02*
X191500000Y-65250000D01*
X194500000Y-65250000D02*
X193000000Y-65250000D01*
X196000000Y-65250000D02*
X194500000Y-65250000D01*
X197500000Y-65250000D02*
X196000000Y-65250000D01*
X199000000Y-65250000D02*
X197500000Y-65250000D01*
X200500000Y-65250000D02*
X199000000Y-65250000D01*
X202000000Y-65250000D02*
X200500000Y-65250000D01*
X203500000Y-65250000D02*
X202000000Y-65250000D01*
X205000000Y-65250000D02*
X203500000Y-65250000D01*
X206500000Y-65250000D02*
X205000000Y-65250000D01*
D18*
G36*
X211398000Y-90898000D02*
X118102000Y-90898000D01*
X118102000Y-88150000D01*
X119072676Y-88150000D01*
X119072676Y-89850000D01*
X119109423Y-90045294D01*
X119224842Y-90224660D01*
X119400951Y-90344990D01*
X119610000Y-90387324D01*
X121310000Y-90387324D01*
X121505294Y-90350577D01*
X121684660Y-90235158D01*
X121804990Y-90059049D01*
X121847324Y-89850000D01*
X121847324Y-89732785D01*
X122026314Y-90000663D01*
X122473045Y-90299159D01*
X123000000Y-90403977D01*
X123526955Y-90299159D01*
X123973686Y-90000663D01*
X124270000Y-89557198D01*
X124566314Y-90000663D01*
X125013045Y-90299159D01*
X125540000Y-90403977D01*
X126066955Y-90299159D01*
X126513686Y-90000663D01*
X126812182Y-89553932D01*
X126917000Y-89026977D01*
X126917000Y-88973023D01*
X126812182Y-88446068D01*
X126614356Y-88150000D01*
X133532676Y-88150000D01*
X133532676Y-89850000D01*
X133569423Y-90045294D01*
X133684842Y-90224660D01*
X133860951Y-90344990D01*
X134070000Y-90387324D01*
X135770000Y-90387324D01*
X135965294Y-90350577D01*
X136144660Y-90235158D01*
X136264990Y-90059049D01*
X136307324Y-89850000D01*
X136307324Y-89732785D01*
X136486314Y-90000663D01*
X136933045Y-90299159D01*
X137460000Y-90403977D01*
X137986955Y-90299159D01*
X138433686Y-90000663D01*
X138732182Y-89553932D01*
X138837000Y-89026977D01*
X138837000Y-88973023D01*
X141163000Y-88973023D01*
X141163000Y-89026977D01*
X141267818Y-89553932D01*
X141566314Y-90000663D01*
X142013045Y-90299159D01*
X142540000Y-90403977D01*
X143066955Y-90299159D01*
X143513686Y-90000663D01*
X143812182Y-89553932D01*
X143912437Y-89049916D01*
X180742868Y-89049916D01*
X180857872Y-89328246D01*
X181070634Y-89541380D01*
X181348763Y-89656869D01*
X181649916Y-89657132D01*
X181928246Y-89542128D01*
X182141380Y-89329366D01*
X182256869Y-89051237D01*
X182257132Y-88750084D01*
X182142128Y-88471754D01*
X181929366Y-88258620D01*
X181651237Y-88143131D01*
X181350084Y-88142868D01*
X181071754Y-88257872D01*
X180858620Y-88470634D01*
X180743131Y-88748763D01*
X180742868Y-89049916D01*
X143912437Y-89049916D01*
X143917000Y-89026977D01*
X143917000Y-88973023D01*
X143812182Y-88446068D01*
X143513686Y-87999337D01*
X143066955Y-87700841D01*
X142540000Y-87596023D01*
X142013045Y-87700841D01*
X141566314Y-87999337D01*
X141267818Y-88446068D01*
X141163000Y-88973023D01*
X138837000Y-88973023D01*
X138732182Y-88446068D01*
X138433686Y-87999337D01*
X137986955Y-87700841D01*
X137460000Y-87596023D01*
X136933045Y-87700841D01*
X136486314Y-87999337D01*
X136307324Y-88267215D01*
X136307324Y-88150000D01*
X136270577Y-87954706D01*
X136155158Y-87775340D01*
X135979049Y-87655010D01*
X135770000Y-87612676D01*
X134070000Y-87612676D01*
X133874706Y-87649423D01*
X133695340Y-87764842D01*
X133575010Y-87940951D01*
X133532676Y-88150000D01*
X126614356Y-88150000D01*
X126513686Y-87999337D01*
X126066955Y-87700841D01*
X125540000Y-87596023D01*
X125013045Y-87700841D01*
X124566314Y-87999337D01*
X124270000Y-88442802D01*
X123973686Y-87999337D01*
X123526955Y-87700841D01*
X123000000Y-87596023D01*
X122473045Y-87700841D01*
X122026314Y-87999337D01*
X121847324Y-88267215D01*
X121847324Y-88150000D01*
X121810577Y-87954706D01*
X121695158Y-87775340D01*
X121519049Y-87655010D01*
X121310000Y-87612676D01*
X119610000Y-87612676D01*
X119414706Y-87649423D01*
X119235340Y-87764842D01*
X119115010Y-87940951D01*
X119072676Y-88150000D01*
X118102000Y-88150000D01*
X118102000Y-86849916D01*
X179142868Y-86849916D01*
X179215247Y-87025087D01*
X179143131Y-87198763D01*
X179142868Y-87499916D01*
X179257872Y-87778246D01*
X179470634Y-87991380D01*
X179748763Y-88106869D01*
X180049916Y-88107132D01*
X180328246Y-87992128D01*
X180541380Y-87779366D01*
X180656869Y-87501237D01*
X180657001Y-87349916D01*
X182392868Y-87349916D01*
X182507872Y-87628246D01*
X182720634Y-87841380D01*
X182998763Y-87956869D01*
X183299916Y-87957132D01*
X183578246Y-87842128D01*
X183791380Y-87629366D01*
X183906869Y-87351237D01*
X183907132Y-87050084D01*
X183792128Y-86771754D01*
X183579366Y-86558620D01*
X183301237Y-86443131D01*
X183000084Y-86442868D01*
X182721754Y-86557872D01*
X182508620Y-86770634D01*
X182393131Y-87048763D01*
X182392868Y-87349916D01*
X180657001Y-87349916D01*
X180657132Y-87200084D01*
X180584753Y-87024913D01*
X180656869Y-86851237D01*
X180657132Y-86550084D01*
X180542128Y-86271754D01*
X180329366Y-86058620D01*
X180051237Y-85943131D01*
X179750084Y-85942868D01*
X179471754Y-86057872D01*
X179258620Y-86270634D01*
X179143131Y-86548763D01*
X179142868Y-86849916D01*
X118102000Y-86849916D01*
X118102000Y-84663779D01*
X130272857Y-84663779D01*
X130398495Y-84967846D01*
X130630930Y-85200688D01*
X130934778Y-85326856D01*
X131263779Y-85327143D01*
X131567846Y-85201505D01*
X131800688Y-84969070D01*
X131926856Y-84665222D01*
X131926857Y-84663779D01*
X136072857Y-84663779D01*
X136198495Y-84967846D01*
X136430930Y-85200688D01*
X136734778Y-85326856D01*
X137063779Y-85327143D01*
X137367846Y-85201505D01*
X137600688Y-84969070D01*
X137726856Y-84665222D01*
X137727075Y-84413779D01*
X146172857Y-84413779D01*
X146298495Y-84717846D01*
X146530930Y-84950688D01*
X146834778Y-85076856D01*
X147163779Y-85077143D01*
X147467846Y-84951505D01*
X147700688Y-84719070D01*
X147826856Y-84415222D01*
X147826857Y-84413779D01*
X148522857Y-84413779D01*
X148648495Y-84717846D01*
X148880930Y-84950688D01*
X149184778Y-85076856D01*
X149513779Y-85077143D01*
X149817846Y-84951505D01*
X150050688Y-84719070D01*
X150176856Y-84415222D01*
X150177143Y-84086221D01*
X150051505Y-83782154D01*
X149883425Y-83613779D01*
X151422857Y-83613779D01*
X151548495Y-83917846D01*
X151780930Y-84150688D01*
X152084778Y-84276856D01*
X152413779Y-84277143D01*
X152717846Y-84151505D01*
X152950688Y-83919070D01*
X153076856Y-83615222D01*
X153076857Y-83613779D01*
X153422857Y-83613779D01*
X153548495Y-83917846D01*
X153780930Y-84150688D01*
X154084778Y-84276856D01*
X154413779Y-84277143D01*
X154717846Y-84151505D01*
X154950688Y-83919070D01*
X155056693Y-83663779D01*
X181222857Y-83663779D01*
X181348495Y-83967846D01*
X181580930Y-84200688D01*
X181884778Y-84326856D01*
X182213779Y-84327143D01*
X182517846Y-84201505D01*
X182750688Y-83969070D01*
X182876856Y-83665222D01*
X182877143Y-83336221D01*
X182751505Y-83032154D01*
X182519070Y-82799312D01*
X182215222Y-82673144D01*
X181886221Y-82672857D01*
X181582154Y-82798495D01*
X181349312Y-83030930D01*
X181223144Y-83334778D01*
X181222857Y-83663779D01*
X155056693Y-83663779D01*
X155076856Y-83615222D01*
X155077143Y-83286221D01*
X154951505Y-82982154D01*
X154719070Y-82749312D01*
X154415222Y-82623144D01*
X154086221Y-82622857D01*
X153782154Y-82748495D01*
X153549312Y-82980930D01*
X153423144Y-83284778D01*
X153422857Y-83613779D01*
X153076857Y-83613779D01*
X153077143Y-83286221D01*
X152951505Y-82982154D01*
X152719070Y-82749312D01*
X152415222Y-82623144D01*
X152086221Y-82622857D01*
X151782154Y-82748495D01*
X151549312Y-82980930D01*
X151423144Y-83284778D01*
X151422857Y-83613779D01*
X149883425Y-83613779D01*
X149819070Y-83549312D01*
X149515222Y-83423144D01*
X149186221Y-83422857D01*
X148882154Y-83548495D01*
X148649312Y-83780930D01*
X148523144Y-84084778D01*
X148522857Y-84413779D01*
X147826857Y-84413779D01*
X147827143Y-84086221D01*
X147701505Y-83782154D01*
X147469070Y-83549312D01*
X147165222Y-83423144D01*
X146836221Y-83422857D01*
X146532154Y-83548495D01*
X146299312Y-83780930D01*
X146173144Y-84084778D01*
X146172857Y-84413779D01*
X137727075Y-84413779D01*
X137727143Y-84336221D01*
X137601505Y-84032154D01*
X137369070Y-83799312D01*
X137065222Y-83673144D01*
X136736221Y-83672857D01*
X136432154Y-83798495D01*
X136199312Y-84030930D01*
X136073144Y-84334778D01*
X136072857Y-84663779D01*
X131926857Y-84663779D01*
X131927143Y-84336221D01*
X131801505Y-84032154D01*
X131569070Y-83799312D01*
X131265222Y-83673144D01*
X130936221Y-83672857D01*
X130632154Y-83798495D01*
X130399312Y-84030930D01*
X130273144Y-84334778D01*
X130272857Y-84663779D01*
X118102000Y-84663779D01*
X118102000Y-83163779D01*
X131772857Y-83163779D01*
X131898495Y-83467846D01*
X132130930Y-83700688D01*
X132434778Y-83826856D01*
X132763779Y-83827143D01*
X133067846Y-83701505D01*
X133300688Y-83469070D01*
X133426856Y-83165222D01*
X133427143Y-82836221D01*
X133301505Y-82532154D01*
X133069070Y-82299312D01*
X132765222Y-82173144D01*
X132436221Y-82172857D01*
X132132154Y-82298495D01*
X131899312Y-82530930D01*
X131773144Y-82834778D01*
X131772857Y-83163779D01*
X118102000Y-83163779D01*
X118102000Y-82163779D01*
X163622857Y-82163779D01*
X163748495Y-82467846D01*
X163980930Y-82700688D01*
X164284778Y-82826856D01*
X164613779Y-82827143D01*
X164917846Y-82701505D01*
X165150688Y-82469070D01*
X165276856Y-82165222D01*
X165277143Y-81836221D01*
X165241483Y-81749916D01*
X190142868Y-81749916D01*
X190257872Y-82028246D01*
X190470634Y-82241380D01*
X190748763Y-82356869D01*
X191049916Y-82357132D01*
X191328246Y-82242128D01*
X191541380Y-82029366D01*
X191656869Y-81751237D01*
X191657132Y-81450084D01*
X191542128Y-81171754D01*
X191329366Y-80958620D01*
X191051237Y-80843131D01*
X190750084Y-80842868D01*
X190471754Y-80957872D01*
X190258620Y-81170634D01*
X190143131Y-81448763D01*
X190142868Y-81749916D01*
X165241483Y-81749916D01*
X165151505Y-81532154D01*
X164919070Y-81299312D01*
X164615222Y-81173144D01*
X164286221Y-81172857D01*
X163982154Y-81298495D01*
X163749312Y-81530930D01*
X163623144Y-81834778D01*
X163622857Y-82163779D01*
X118102000Y-82163779D01*
X118102000Y-81228779D01*
X130072857Y-81228779D01*
X130198495Y-81532846D01*
X130430930Y-81765688D01*
X130734778Y-81891856D01*
X131063779Y-81892143D01*
X131367846Y-81766505D01*
X131600688Y-81534070D01*
X131671398Y-81363779D01*
X137622857Y-81363779D01*
X137748495Y-81667846D01*
X137980930Y-81900688D01*
X138284778Y-82026856D01*
X138613779Y-82027143D01*
X138917846Y-81901505D01*
X139150688Y-81669070D01*
X139276856Y-81365222D01*
X139276857Y-81363779D01*
X141672857Y-81363779D01*
X141798495Y-81667846D01*
X142030930Y-81900688D01*
X142334778Y-82026856D01*
X142663779Y-82027143D01*
X142967846Y-81901505D01*
X143200688Y-81669070D01*
X143326856Y-81365222D01*
X143327031Y-81163779D01*
X148472857Y-81163779D01*
X148598495Y-81467846D01*
X148830930Y-81700688D01*
X149134778Y-81826856D01*
X149463779Y-81827143D01*
X149767846Y-81701505D01*
X150000688Y-81469070D01*
X150126856Y-81165222D01*
X150127143Y-80836221D01*
X150076551Y-80713779D01*
X151422857Y-80713779D01*
X151548495Y-81017846D01*
X151780930Y-81250688D01*
X152084778Y-81376856D01*
X152413779Y-81377143D01*
X152717846Y-81251505D01*
X152950688Y-81019070D01*
X153076856Y-80715222D01*
X153077143Y-80386221D01*
X153067871Y-80363779D01*
X153422857Y-80363779D01*
X153548495Y-80667846D01*
X153780930Y-80900688D01*
X154084778Y-81026856D01*
X154413779Y-81027143D01*
X154717846Y-80901505D01*
X154905900Y-80713779D01*
X159972857Y-80713779D01*
X160098495Y-81017846D01*
X160330930Y-81250688D01*
X160634778Y-81376856D01*
X160963779Y-81377143D01*
X161267846Y-81251505D01*
X161500688Y-81019070D01*
X161626856Y-80715222D01*
X161626869Y-80699916D01*
X188342868Y-80699916D01*
X188457872Y-80978246D01*
X188670634Y-81191380D01*
X188948763Y-81306869D01*
X189249916Y-81307132D01*
X189528246Y-81192128D01*
X189741380Y-80979366D01*
X189856869Y-80701237D01*
X189856995Y-80557007D01*
X189999916Y-80557132D01*
X190278246Y-80442128D01*
X190491380Y-80229366D01*
X190606869Y-79951237D01*
X190607132Y-79650084D01*
X190492128Y-79371754D01*
X190279366Y-79158620D01*
X190001237Y-79043131D01*
X189700084Y-79042868D01*
X189421754Y-79157872D01*
X189208620Y-79370634D01*
X189093131Y-79648763D01*
X189093005Y-79792993D01*
X188950084Y-79792868D01*
X188671754Y-79907872D01*
X188458620Y-80120634D01*
X188343131Y-80398763D01*
X188342868Y-80699916D01*
X161626869Y-80699916D01*
X161627143Y-80386221D01*
X161501505Y-80082154D01*
X161269070Y-79849312D01*
X160965222Y-79723144D01*
X160636221Y-79722857D01*
X160332154Y-79848495D01*
X160099312Y-80080930D01*
X159973144Y-80384778D01*
X159972857Y-80713779D01*
X154905900Y-80713779D01*
X154950688Y-80669070D01*
X155076856Y-80365222D01*
X155077143Y-80036221D01*
X154951505Y-79732154D01*
X154933163Y-79713779D01*
X170272857Y-79713779D01*
X170398495Y-80017846D01*
X170630930Y-80250688D01*
X170934778Y-80376856D01*
X171263779Y-80377143D01*
X171567846Y-80251505D01*
X171800688Y-80019070D01*
X171926856Y-79715222D01*
X171927143Y-79386221D01*
X171801505Y-79082154D01*
X171569070Y-78849312D01*
X171265222Y-78723144D01*
X170936221Y-78722857D01*
X170632154Y-78848495D01*
X170399312Y-79080930D01*
X170273144Y-79384778D01*
X170272857Y-79713779D01*
X154933163Y-79713779D01*
X154719070Y-79499312D01*
X154415222Y-79373144D01*
X154086221Y-79372857D01*
X153782154Y-79498495D01*
X153549312Y-79730930D01*
X153423144Y-80034778D01*
X153422857Y-80363779D01*
X153067871Y-80363779D01*
X152951505Y-80082154D01*
X152719070Y-79849312D01*
X152415222Y-79723144D01*
X152086221Y-79722857D01*
X151782154Y-79848495D01*
X151549312Y-80080930D01*
X151423144Y-80384778D01*
X151422857Y-80713779D01*
X150076551Y-80713779D01*
X150001505Y-80532154D01*
X149769070Y-80299312D01*
X149465222Y-80173144D01*
X149136221Y-80172857D01*
X148832154Y-80298495D01*
X148599312Y-80530930D01*
X148473144Y-80834778D01*
X148472857Y-81163779D01*
X143327031Y-81163779D01*
X143327143Y-81036221D01*
X143201505Y-80732154D01*
X142969070Y-80499312D01*
X142665222Y-80373144D01*
X142336221Y-80372857D01*
X142032154Y-80498495D01*
X141799312Y-80730930D01*
X141673144Y-81034778D01*
X141672857Y-81363779D01*
X139276857Y-81363779D01*
X139277143Y-81036221D01*
X139232025Y-80927028D01*
X139363779Y-80927143D01*
X139667846Y-80801505D01*
X139900688Y-80569070D01*
X140026856Y-80265222D01*
X140027143Y-79936221D01*
X139901505Y-79632154D01*
X139669070Y-79399312D01*
X139365222Y-79273144D01*
X139036221Y-79272857D01*
X138732154Y-79398495D01*
X138499312Y-79630930D01*
X138373144Y-79934778D01*
X138372857Y-80263779D01*
X138417975Y-80372972D01*
X138286221Y-80372857D01*
X137982154Y-80498495D01*
X137749312Y-80730930D01*
X137623144Y-81034778D01*
X137622857Y-81363779D01*
X131671398Y-81363779D01*
X131726856Y-81230222D01*
X131727143Y-80901221D01*
X131601505Y-80597154D01*
X131369070Y-80364312D01*
X131065222Y-80238144D01*
X130736221Y-80237857D01*
X130432154Y-80363495D01*
X130199312Y-80595930D01*
X130073144Y-80899778D01*
X130072857Y-81228779D01*
X118102000Y-81228779D01*
X118102000Y-79299916D01*
X128992868Y-79299916D01*
X129107872Y-79578246D01*
X129320634Y-79791380D01*
X129598763Y-79906869D01*
X129899916Y-79907132D01*
X130178246Y-79792128D01*
X130391380Y-79579366D01*
X130506869Y-79301237D01*
X130507132Y-79000084D01*
X130392128Y-78721754D01*
X130179366Y-78508620D01*
X129901237Y-78393131D01*
X129600084Y-78392868D01*
X129321754Y-78507872D01*
X129108620Y-78720634D01*
X128993131Y-78998763D01*
X128992868Y-79299916D01*
X118102000Y-79299916D01*
X118102000Y-75413779D01*
X144322857Y-75413779D01*
X144448495Y-75717846D01*
X144680930Y-75950688D01*
X144984778Y-76076856D01*
X145313779Y-76077143D01*
X145588140Y-75963779D01*
X149322857Y-75963779D01*
X149448495Y-76267846D01*
X149680930Y-76500688D01*
X149984778Y-76626856D01*
X150313779Y-76627143D01*
X150617846Y-76501505D01*
X150850688Y-76269070D01*
X150976856Y-75965222D01*
X150977143Y-75636221D01*
X150851505Y-75332154D01*
X150619070Y-75099312D01*
X150315222Y-74973144D01*
X149986221Y-74972857D01*
X149682154Y-75098495D01*
X149449312Y-75330930D01*
X149323144Y-75634778D01*
X149322857Y-75963779D01*
X145588140Y-75963779D01*
X145617846Y-75951505D01*
X145850688Y-75719070D01*
X145976856Y-75415222D01*
X145977143Y-75086221D01*
X145851505Y-74782154D01*
X145833163Y-74763779D01*
X157822857Y-74763779D01*
X157948495Y-75067846D01*
X158180930Y-75300688D01*
X158484778Y-75426856D01*
X158813779Y-75427143D01*
X159117846Y-75301505D01*
X159350688Y-75069070D01*
X159399966Y-74950396D01*
X159448495Y-75067846D01*
X159680930Y-75300688D01*
X159984778Y-75426856D01*
X160313779Y-75427143D01*
X160617846Y-75301505D01*
X160755813Y-75163779D01*
X161772857Y-75163779D01*
X161898495Y-75467846D01*
X162130930Y-75700688D01*
X162434778Y-75826856D01*
X162763779Y-75827143D01*
X163067846Y-75701505D01*
X163300688Y-75469070D01*
X163350164Y-75349916D01*
X195092868Y-75349916D01*
X195207872Y-75628246D01*
X195420634Y-75841380D01*
X195698763Y-75956869D01*
X195999916Y-75957132D01*
X196278246Y-75842128D01*
X196491380Y-75629366D01*
X196606869Y-75351237D01*
X196607126Y-75057034D01*
X196719695Y-75057132D01*
X196998025Y-74942128D01*
X197211159Y-74729366D01*
X197326648Y-74451237D01*
X197326911Y-74150084D01*
X197211907Y-73871754D01*
X196999145Y-73658620D01*
X196721016Y-73543131D01*
X196419863Y-73542868D01*
X196141533Y-73657872D01*
X195928399Y-73870634D01*
X195812910Y-74148763D01*
X195812653Y-74442966D01*
X195700084Y-74442868D01*
X195421754Y-74557872D01*
X195208620Y-74770634D01*
X195093131Y-75048763D01*
X195092868Y-75349916D01*
X163350164Y-75349916D01*
X163426856Y-75165222D01*
X163427143Y-74836221D01*
X163301505Y-74532154D01*
X163069070Y-74299312D01*
X162765222Y-74173144D01*
X162436221Y-74172857D01*
X162132154Y-74298495D01*
X161899312Y-74530930D01*
X161773144Y-74834778D01*
X161772857Y-75163779D01*
X160755813Y-75163779D01*
X160850688Y-75069070D01*
X160976856Y-74765222D01*
X160977143Y-74436221D01*
X160851505Y-74132154D01*
X160619070Y-73899312D01*
X160315222Y-73773144D01*
X159986221Y-73772857D01*
X159682154Y-73898495D01*
X159449312Y-74130930D01*
X159400034Y-74249604D01*
X159351505Y-74132154D01*
X159119070Y-73899312D01*
X158815222Y-73773144D01*
X158486221Y-73772857D01*
X158182154Y-73898495D01*
X157949312Y-74130930D01*
X157823144Y-74434778D01*
X157822857Y-74763779D01*
X145833163Y-74763779D01*
X145619070Y-74549312D01*
X145315222Y-74423144D01*
X144986221Y-74422857D01*
X144682154Y-74548495D01*
X144449312Y-74780930D01*
X144323144Y-75084778D01*
X144322857Y-75413779D01*
X118102000Y-75413779D01*
X118102000Y-73763779D01*
X125672857Y-73763779D01*
X125798495Y-74067846D01*
X126030930Y-74300688D01*
X126334778Y-74426856D01*
X126663779Y-74427143D01*
X126967846Y-74301505D01*
X127200688Y-74069070D01*
X127285931Y-73863779D01*
X127672857Y-73863779D01*
X127798495Y-74167846D01*
X128030930Y-74400688D01*
X128334778Y-74526856D01*
X128663779Y-74527143D01*
X128967846Y-74401505D01*
X129200688Y-74169070D01*
X129326856Y-73865222D01*
X129327031Y-73663779D01*
X148722857Y-73663779D01*
X148848495Y-73967846D01*
X149080930Y-74200688D01*
X149384778Y-74326856D01*
X149713779Y-74327143D01*
X150017846Y-74201505D01*
X150250688Y-73969070D01*
X150376856Y-73665222D01*
X150377143Y-73336221D01*
X150251505Y-73032154D01*
X150019070Y-72799312D01*
X149715222Y-72673144D01*
X149386221Y-72672857D01*
X149082154Y-72798495D01*
X148849312Y-73030930D01*
X148723144Y-73334778D01*
X148722857Y-73663779D01*
X129327031Y-73663779D01*
X129327143Y-73536221D01*
X129201505Y-73232154D01*
X128969070Y-72999312D01*
X128665222Y-72873144D01*
X128336221Y-72872857D01*
X128032154Y-72998495D01*
X127799312Y-73230930D01*
X127673144Y-73534778D01*
X127672857Y-73863779D01*
X127285931Y-73863779D01*
X127326856Y-73765222D01*
X127327143Y-73436221D01*
X127201505Y-73132154D01*
X126969070Y-72899312D01*
X126665222Y-72773144D01*
X126336221Y-72772857D01*
X126032154Y-72898495D01*
X125799312Y-73130930D01*
X125673144Y-73434778D01*
X125672857Y-73763779D01*
X118102000Y-73763779D01*
X118102000Y-71663779D01*
X130172857Y-71663779D01*
X130298495Y-71967846D01*
X130530930Y-72200688D01*
X130834778Y-72326856D01*
X131163779Y-72327143D01*
X131467846Y-72201505D01*
X131555725Y-72113779D01*
X136622857Y-72113779D01*
X136748495Y-72417846D01*
X136980930Y-72650688D01*
X137284778Y-72776856D01*
X137613779Y-72777143D01*
X137917846Y-72651505D01*
X138005725Y-72563779D01*
X140322857Y-72563779D01*
X140448495Y-72867846D01*
X140680930Y-73100688D01*
X140984778Y-73226856D01*
X141313779Y-73227143D01*
X141617846Y-73101505D01*
X141850688Y-72869070D01*
X141976856Y-72565222D01*
X141977143Y-72236221D01*
X141851505Y-71932154D01*
X141619673Y-71699916D01*
X174992868Y-71699916D01*
X175107872Y-71978246D01*
X175320634Y-72191380D01*
X175598763Y-72306869D01*
X175899916Y-72307132D01*
X176178246Y-72192128D01*
X176391380Y-71979366D01*
X176506869Y-71701237D01*
X176506886Y-71680762D01*
X176592868Y-71680762D01*
X176707872Y-71959092D01*
X176920634Y-72172226D01*
X177198763Y-72287715D01*
X177499916Y-72287978D01*
X177778246Y-72172974D01*
X177991380Y-71960212D01*
X178103231Y-71690843D01*
X178207872Y-71944092D01*
X178420634Y-72157226D01*
X178698763Y-72272715D01*
X178999916Y-72272978D01*
X179278246Y-72157974D01*
X179491380Y-71945212D01*
X179510188Y-71899916D01*
X182642868Y-71899916D01*
X182757872Y-72178246D01*
X182970634Y-72391380D01*
X183248763Y-72506869D01*
X183549916Y-72507132D01*
X183828246Y-72392128D01*
X184041380Y-72179366D01*
X184156869Y-71901237D01*
X184157132Y-71600084D01*
X184042128Y-71321754D01*
X183829366Y-71108620D01*
X183551237Y-70993131D01*
X183250084Y-70992868D01*
X182971754Y-71107872D01*
X182758620Y-71320634D01*
X182643131Y-71598763D01*
X182642868Y-71899916D01*
X179510188Y-71899916D01*
X179606869Y-71667083D01*
X179607132Y-71365930D01*
X179492128Y-71087600D01*
X179279366Y-70874466D01*
X179001237Y-70758977D01*
X178700084Y-70758714D01*
X178421754Y-70873718D01*
X178208620Y-71086480D01*
X178096769Y-71355849D01*
X177992128Y-71102600D01*
X177779366Y-70889466D01*
X177501237Y-70773977D01*
X177200084Y-70773714D01*
X176921754Y-70888718D01*
X176708620Y-71101480D01*
X176593131Y-71379609D01*
X176592868Y-71680762D01*
X176506886Y-71680762D01*
X176507132Y-71400084D01*
X176392128Y-71121754D01*
X176179366Y-70908620D01*
X175901237Y-70793131D01*
X175600084Y-70792868D01*
X175321754Y-70907872D01*
X175108620Y-71120634D01*
X174993131Y-71398763D01*
X174992868Y-71699916D01*
X141619673Y-71699916D01*
X141619070Y-71699312D01*
X141315222Y-71573144D01*
X140986221Y-71572857D01*
X140682154Y-71698495D01*
X140449312Y-71930930D01*
X140323144Y-72234778D01*
X140322857Y-72563779D01*
X138005725Y-72563779D01*
X138150688Y-72419070D01*
X138276856Y-72115222D01*
X138277143Y-71786221D01*
X138151505Y-71482154D01*
X137919070Y-71249312D01*
X137615222Y-71123144D01*
X137286221Y-71122857D01*
X136982154Y-71248495D01*
X136749312Y-71480930D01*
X136623144Y-71784778D01*
X136622857Y-72113779D01*
X131555725Y-72113779D01*
X131700688Y-71969070D01*
X131826856Y-71665222D01*
X131827143Y-71336221D01*
X131714573Y-71063779D01*
X134172857Y-71063779D01*
X134298495Y-71367846D01*
X134530930Y-71600688D01*
X134834778Y-71726856D01*
X135163779Y-71727143D01*
X135467846Y-71601505D01*
X135700688Y-71369070D01*
X135826856Y-71065222D01*
X135827143Y-70736221D01*
X135701505Y-70432154D01*
X135469070Y-70199312D01*
X135165222Y-70073144D01*
X134836221Y-70072857D01*
X134532154Y-70198495D01*
X134299312Y-70430930D01*
X134173144Y-70734778D01*
X134172857Y-71063779D01*
X131714573Y-71063779D01*
X131701505Y-71032154D01*
X131469070Y-70799312D01*
X131165222Y-70673144D01*
X130836221Y-70672857D01*
X130532154Y-70798495D01*
X130299312Y-71030930D01*
X130173144Y-71334778D01*
X130172857Y-71663779D01*
X118102000Y-71663779D01*
X118102000Y-70413779D01*
X129022857Y-70413779D01*
X129148495Y-70717846D01*
X129380930Y-70950688D01*
X129684778Y-71076856D01*
X130013779Y-71077143D01*
X130317846Y-70951505D01*
X130550688Y-70719070D01*
X130676856Y-70415222D01*
X130677143Y-70086221D01*
X130551505Y-69782154D01*
X130383425Y-69613779D01*
X157822857Y-69613779D01*
X157948495Y-69917846D01*
X158180930Y-70150688D01*
X158484778Y-70276856D01*
X158813779Y-70277143D01*
X159117846Y-70151505D01*
X159350688Y-69919070D01*
X159476856Y-69615222D01*
X159477143Y-69286221D01*
X159351505Y-68982154D01*
X159119070Y-68749312D01*
X158815222Y-68623144D01*
X158486221Y-68622857D01*
X158182154Y-68748495D01*
X157949312Y-68980930D01*
X157823144Y-69284778D01*
X157822857Y-69613779D01*
X130383425Y-69613779D01*
X130319070Y-69549312D01*
X130015222Y-69423144D01*
X129686221Y-69422857D01*
X129382154Y-69548495D01*
X129149312Y-69780930D01*
X129023144Y-70084778D01*
X129022857Y-70413779D01*
X118102000Y-70413779D01*
X118102000Y-68413779D01*
X155522857Y-68413779D01*
X155648495Y-68717846D01*
X155880930Y-68950688D01*
X156184778Y-69076856D01*
X156513779Y-69077143D01*
X156817846Y-68951505D01*
X157050688Y-68719070D01*
X157176856Y-68415222D01*
X157177075Y-68163779D01*
X161422857Y-68163779D01*
X161548495Y-68467846D01*
X161780930Y-68700688D01*
X162084778Y-68826856D01*
X162413779Y-68827143D01*
X162717846Y-68701505D01*
X162950688Y-68469070D01*
X162994408Y-68363779D01*
X175672857Y-68363779D01*
X175798495Y-68667846D01*
X176030930Y-68900688D01*
X176334778Y-69026856D01*
X176663779Y-69027143D01*
X176967846Y-68901505D01*
X177200688Y-68669070D01*
X177326856Y-68365222D01*
X177326857Y-68363779D01*
X177422857Y-68363779D01*
X177548495Y-68667846D01*
X177780930Y-68900688D01*
X178084778Y-69026856D01*
X178413779Y-69027143D01*
X178717846Y-68901505D01*
X178950688Y-68669070D01*
X179076856Y-68365222D01*
X179077143Y-68036221D01*
X178951505Y-67732154D01*
X178719070Y-67499312D01*
X178415222Y-67373144D01*
X178086221Y-67372857D01*
X177782154Y-67498495D01*
X177549312Y-67730930D01*
X177423144Y-68034778D01*
X177422857Y-68363779D01*
X177326857Y-68363779D01*
X177327143Y-68036221D01*
X177201505Y-67732154D01*
X176969070Y-67499312D01*
X176665222Y-67373144D01*
X176336221Y-67372857D01*
X176032154Y-67498495D01*
X175799312Y-67730930D01*
X175673144Y-68034778D01*
X175672857Y-68363779D01*
X162994408Y-68363779D01*
X163076856Y-68165222D01*
X163077143Y-67836221D01*
X162951505Y-67532154D01*
X162719070Y-67299312D01*
X162415222Y-67173144D01*
X162086221Y-67172857D01*
X161782154Y-67298495D01*
X161549312Y-67530930D01*
X161423144Y-67834778D01*
X161422857Y-68163779D01*
X157177075Y-68163779D01*
X157177143Y-68086221D01*
X157051505Y-67782154D01*
X156819070Y-67549312D01*
X156515222Y-67423144D01*
X156186221Y-67422857D01*
X155882154Y-67548495D01*
X155649312Y-67780930D01*
X155523144Y-68084778D01*
X155522857Y-68413779D01*
X118102000Y-68413779D01*
X118102000Y-66863779D01*
X126572857Y-66863779D01*
X126698495Y-67167846D01*
X126930930Y-67400688D01*
X127234778Y-67526856D01*
X127563779Y-67527143D01*
X127867846Y-67401505D01*
X128100688Y-67169070D01*
X128226856Y-66865222D01*
X128227143Y-66536221D01*
X128101505Y-66232154D01*
X127869070Y-65999312D01*
X127565222Y-65873144D01*
X127236221Y-65872857D01*
X126932154Y-65998495D01*
X126699312Y-66230930D01*
X126573144Y-66534778D01*
X126572857Y-66863779D01*
X118102000Y-66863779D01*
X118102000Y-64602000D01*
X211398000Y-64602000D01*
X211398000Y-90898000D01*
X211398000Y-90898000D01*
G37*
X211398000Y-90898000D02*
X118102000Y-90898000D01*
X118102000Y-88150000D01*
X119072676Y-88150000D01*
X119072676Y-89850000D01*
X119109423Y-90045294D01*
X119224842Y-90224660D01*
X119400951Y-90344990D01*
X119610000Y-90387324D01*
X121310000Y-90387324D01*
X121505294Y-90350577D01*
X121684660Y-90235158D01*
X121804990Y-90059049D01*
X121847324Y-89850000D01*
X121847324Y-89732785D01*
X122026314Y-90000663D01*
X122473045Y-90299159D01*
X123000000Y-90403977D01*
X123526955Y-90299159D01*
X123973686Y-90000663D01*
X124270000Y-89557198D01*
X124566314Y-90000663D01*
X125013045Y-90299159D01*
X125540000Y-90403977D01*
X126066955Y-90299159D01*
X126513686Y-90000663D01*
X126812182Y-89553932D01*
X126917000Y-89026977D01*
X126917000Y-88973023D01*
X126812182Y-88446068D01*
X126614356Y-88150000D01*
X133532676Y-88150000D01*
X133532676Y-89850000D01*
X133569423Y-90045294D01*
X133684842Y-90224660D01*
X133860951Y-90344990D01*
X134070000Y-90387324D01*
X135770000Y-90387324D01*
X135965294Y-90350577D01*
X136144660Y-90235158D01*
X136264990Y-90059049D01*
X136307324Y-89850000D01*
X136307324Y-89732785D01*
X136486314Y-90000663D01*
X136933045Y-90299159D01*
X137460000Y-90403977D01*
X137986955Y-90299159D01*
X138433686Y-90000663D01*
X138732182Y-89553932D01*
X138837000Y-89026977D01*
X138837000Y-88973023D01*
X141163000Y-88973023D01*
X141163000Y-89026977D01*
X141267818Y-89553932D01*
X141566314Y-90000663D01*
X142013045Y-90299159D01*
X142540000Y-90403977D01*
X143066955Y-90299159D01*
X143513686Y-90000663D01*
X143812182Y-89553932D01*
X143912437Y-89049916D01*
X180742868Y-89049916D01*
X180857872Y-89328246D01*
X181070634Y-89541380D01*
X181348763Y-89656869D01*
X181649916Y-89657132D01*
X181928246Y-89542128D01*
X182141380Y-89329366D01*
X182256869Y-89051237D01*
X182257132Y-88750084D01*
X182142128Y-88471754D01*
X181929366Y-88258620D01*
X181651237Y-88143131D01*
X181350084Y-88142868D01*
X181071754Y-88257872D01*
X180858620Y-88470634D01*
X180743131Y-88748763D01*
X180742868Y-89049916D01*
X143912437Y-89049916D01*
X143917000Y-89026977D01*
X143917000Y-88973023D01*
X143812182Y-88446068D01*
X143513686Y-87999337D01*
X143066955Y-87700841D01*
X142540000Y-87596023D01*
X142013045Y-87700841D01*
X141566314Y-87999337D01*
X141267818Y-88446068D01*
X141163000Y-88973023D01*
X138837000Y-88973023D01*
X138732182Y-88446068D01*
X138433686Y-87999337D01*
X137986955Y-87700841D01*
X137460000Y-87596023D01*
X136933045Y-87700841D01*
X136486314Y-87999337D01*
X136307324Y-88267215D01*
X136307324Y-88150000D01*
X136270577Y-87954706D01*
X136155158Y-87775340D01*
X135979049Y-87655010D01*
X135770000Y-87612676D01*
X134070000Y-87612676D01*
X133874706Y-87649423D01*
X133695340Y-87764842D01*
X133575010Y-87940951D01*
X133532676Y-88150000D01*
X126614356Y-88150000D01*
X126513686Y-87999337D01*
X126066955Y-87700841D01*
X125540000Y-87596023D01*
X125013045Y-87700841D01*
X124566314Y-87999337D01*
X124270000Y-88442802D01*
X123973686Y-87999337D01*
X123526955Y-87700841D01*
X123000000Y-87596023D01*
X122473045Y-87700841D01*
X122026314Y-87999337D01*
X121847324Y-88267215D01*
X121847324Y-88150000D01*
X121810577Y-87954706D01*
X121695158Y-87775340D01*
X121519049Y-87655010D01*
X121310000Y-87612676D01*
X119610000Y-87612676D01*
X119414706Y-87649423D01*
X119235340Y-87764842D01*
X119115010Y-87940951D01*
X119072676Y-88150000D01*
X118102000Y-88150000D01*
X118102000Y-86849916D01*
X179142868Y-86849916D01*
X179215247Y-87025087D01*
X179143131Y-87198763D01*
X179142868Y-87499916D01*
X179257872Y-87778246D01*
X179470634Y-87991380D01*
X179748763Y-88106869D01*
X180049916Y-88107132D01*
X180328246Y-87992128D01*
X180541380Y-87779366D01*
X180656869Y-87501237D01*
X180657001Y-87349916D01*
X182392868Y-87349916D01*
X182507872Y-87628246D01*
X182720634Y-87841380D01*
X182998763Y-87956869D01*
X183299916Y-87957132D01*
X183578246Y-87842128D01*
X183791380Y-87629366D01*
X183906869Y-87351237D01*
X183907132Y-87050084D01*
X183792128Y-86771754D01*
X183579366Y-86558620D01*
X183301237Y-86443131D01*
X183000084Y-86442868D01*
X182721754Y-86557872D01*
X182508620Y-86770634D01*
X182393131Y-87048763D01*
X182392868Y-87349916D01*
X180657001Y-87349916D01*
X180657132Y-87200084D01*
X180584753Y-87024913D01*
X180656869Y-86851237D01*
X180657132Y-86550084D01*
X180542128Y-86271754D01*
X180329366Y-86058620D01*
X180051237Y-85943131D01*
X179750084Y-85942868D01*
X179471754Y-86057872D01*
X179258620Y-86270634D01*
X179143131Y-86548763D01*
X179142868Y-86849916D01*
X118102000Y-86849916D01*
X118102000Y-84663779D01*
X130272857Y-84663779D01*
X130398495Y-84967846D01*
X130630930Y-85200688D01*
X130934778Y-85326856D01*
X131263779Y-85327143D01*
X131567846Y-85201505D01*
X131800688Y-84969070D01*
X131926856Y-84665222D01*
X131926857Y-84663779D01*
X136072857Y-84663779D01*
X136198495Y-84967846D01*
X136430930Y-85200688D01*
X136734778Y-85326856D01*
X137063779Y-85327143D01*
X137367846Y-85201505D01*
X137600688Y-84969070D01*
X137726856Y-84665222D01*
X137727075Y-84413779D01*
X146172857Y-84413779D01*
X146298495Y-84717846D01*
X146530930Y-84950688D01*
X146834778Y-85076856D01*
X147163779Y-85077143D01*
X147467846Y-84951505D01*
X147700688Y-84719070D01*
X147826856Y-84415222D01*
X147826857Y-84413779D01*
X148522857Y-84413779D01*
X148648495Y-84717846D01*
X148880930Y-84950688D01*
X149184778Y-85076856D01*
X149513779Y-85077143D01*
X149817846Y-84951505D01*
X150050688Y-84719070D01*
X150176856Y-84415222D01*
X150177143Y-84086221D01*
X150051505Y-83782154D01*
X149883425Y-83613779D01*
X151422857Y-83613779D01*
X151548495Y-83917846D01*
X151780930Y-84150688D01*
X152084778Y-84276856D01*
X152413779Y-84277143D01*
X152717846Y-84151505D01*
X152950688Y-83919070D01*
X153076856Y-83615222D01*
X153076857Y-83613779D01*
X153422857Y-83613779D01*
X153548495Y-83917846D01*
X153780930Y-84150688D01*
X154084778Y-84276856D01*
X154413779Y-84277143D01*
X154717846Y-84151505D01*
X154950688Y-83919070D01*
X155056693Y-83663779D01*
X181222857Y-83663779D01*
X181348495Y-83967846D01*
X181580930Y-84200688D01*
X181884778Y-84326856D01*
X182213779Y-84327143D01*
X182517846Y-84201505D01*
X182750688Y-83969070D01*
X182876856Y-83665222D01*
X182877143Y-83336221D01*
X182751505Y-83032154D01*
X182519070Y-82799312D01*
X182215222Y-82673144D01*
X181886221Y-82672857D01*
X181582154Y-82798495D01*
X181349312Y-83030930D01*
X181223144Y-83334778D01*
X181222857Y-83663779D01*
X155056693Y-83663779D01*
X155076856Y-83615222D01*
X155077143Y-83286221D01*
X154951505Y-82982154D01*
X154719070Y-82749312D01*
X154415222Y-82623144D01*
X154086221Y-82622857D01*
X153782154Y-82748495D01*
X153549312Y-82980930D01*
X153423144Y-83284778D01*
X153422857Y-83613779D01*
X153076857Y-83613779D01*
X153077143Y-83286221D01*
X152951505Y-82982154D01*
X152719070Y-82749312D01*
X152415222Y-82623144D01*
X152086221Y-82622857D01*
X151782154Y-82748495D01*
X151549312Y-82980930D01*
X151423144Y-83284778D01*
X151422857Y-83613779D01*
X149883425Y-83613779D01*
X149819070Y-83549312D01*
X149515222Y-83423144D01*
X149186221Y-83422857D01*
X148882154Y-83548495D01*
X148649312Y-83780930D01*
X148523144Y-84084778D01*
X148522857Y-84413779D01*
X147826857Y-84413779D01*
X147827143Y-84086221D01*
X147701505Y-83782154D01*
X147469070Y-83549312D01*
X147165222Y-83423144D01*
X146836221Y-83422857D01*
X146532154Y-83548495D01*
X146299312Y-83780930D01*
X146173144Y-84084778D01*
X146172857Y-84413779D01*
X137727075Y-84413779D01*
X137727143Y-84336221D01*
X137601505Y-84032154D01*
X137369070Y-83799312D01*
X137065222Y-83673144D01*
X136736221Y-83672857D01*
X136432154Y-83798495D01*
X136199312Y-84030930D01*
X136073144Y-84334778D01*
X136072857Y-84663779D01*
X131926857Y-84663779D01*
X131927143Y-84336221D01*
X131801505Y-84032154D01*
X131569070Y-83799312D01*
X131265222Y-83673144D01*
X130936221Y-83672857D01*
X130632154Y-83798495D01*
X130399312Y-84030930D01*
X130273144Y-84334778D01*
X130272857Y-84663779D01*
X118102000Y-84663779D01*
X118102000Y-83163779D01*
X131772857Y-83163779D01*
X131898495Y-83467846D01*
X132130930Y-83700688D01*
X132434778Y-83826856D01*
X132763779Y-83827143D01*
X133067846Y-83701505D01*
X133300688Y-83469070D01*
X133426856Y-83165222D01*
X133427143Y-82836221D01*
X133301505Y-82532154D01*
X133069070Y-82299312D01*
X132765222Y-82173144D01*
X132436221Y-82172857D01*
X132132154Y-82298495D01*
X131899312Y-82530930D01*
X131773144Y-82834778D01*
X131772857Y-83163779D01*
X118102000Y-83163779D01*
X118102000Y-82163779D01*
X163622857Y-82163779D01*
X163748495Y-82467846D01*
X163980930Y-82700688D01*
X164284778Y-82826856D01*
X164613779Y-82827143D01*
X164917846Y-82701505D01*
X165150688Y-82469070D01*
X165276856Y-82165222D01*
X165277143Y-81836221D01*
X165241483Y-81749916D01*
X190142868Y-81749916D01*
X190257872Y-82028246D01*
X190470634Y-82241380D01*
X190748763Y-82356869D01*
X191049916Y-82357132D01*
X191328246Y-82242128D01*
X191541380Y-82029366D01*
X191656869Y-81751237D01*
X191657132Y-81450084D01*
X191542128Y-81171754D01*
X191329366Y-80958620D01*
X191051237Y-80843131D01*
X190750084Y-80842868D01*
X190471754Y-80957872D01*
X190258620Y-81170634D01*
X190143131Y-81448763D01*
X190142868Y-81749916D01*
X165241483Y-81749916D01*
X165151505Y-81532154D01*
X164919070Y-81299312D01*
X164615222Y-81173144D01*
X164286221Y-81172857D01*
X163982154Y-81298495D01*
X163749312Y-81530930D01*
X163623144Y-81834778D01*
X163622857Y-82163779D01*
X118102000Y-82163779D01*
X118102000Y-81228779D01*
X130072857Y-81228779D01*
X130198495Y-81532846D01*
X130430930Y-81765688D01*
X130734778Y-81891856D01*
X131063779Y-81892143D01*
X131367846Y-81766505D01*
X131600688Y-81534070D01*
X131671398Y-81363779D01*
X137622857Y-81363779D01*
X137748495Y-81667846D01*
X137980930Y-81900688D01*
X138284778Y-82026856D01*
X138613779Y-82027143D01*
X138917846Y-81901505D01*
X139150688Y-81669070D01*
X139276856Y-81365222D01*
X139276857Y-81363779D01*
X141672857Y-81363779D01*
X141798495Y-81667846D01*
X142030930Y-81900688D01*
X142334778Y-82026856D01*
X142663779Y-82027143D01*
X142967846Y-81901505D01*
X143200688Y-81669070D01*
X143326856Y-81365222D01*
X143327031Y-81163779D01*
X148472857Y-81163779D01*
X148598495Y-81467846D01*
X148830930Y-81700688D01*
X149134778Y-81826856D01*
X149463779Y-81827143D01*
X149767846Y-81701505D01*
X150000688Y-81469070D01*
X150126856Y-81165222D01*
X150127143Y-80836221D01*
X150076551Y-80713779D01*
X151422857Y-80713779D01*
X151548495Y-81017846D01*
X151780930Y-81250688D01*
X152084778Y-81376856D01*
X152413779Y-81377143D01*
X152717846Y-81251505D01*
X152950688Y-81019070D01*
X153076856Y-80715222D01*
X153077143Y-80386221D01*
X153067871Y-80363779D01*
X153422857Y-80363779D01*
X153548495Y-80667846D01*
X153780930Y-80900688D01*
X154084778Y-81026856D01*
X154413779Y-81027143D01*
X154717846Y-80901505D01*
X154905900Y-80713779D01*
X159972857Y-80713779D01*
X160098495Y-81017846D01*
X160330930Y-81250688D01*
X160634778Y-81376856D01*
X160963779Y-81377143D01*
X161267846Y-81251505D01*
X161500688Y-81019070D01*
X161626856Y-80715222D01*
X161626869Y-80699916D01*
X188342868Y-80699916D01*
X188457872Y-80978246D01*
X188670634Y-81191380D01*
X188948763Y-81306869D01*
X189249916Y-81307132D01*
X189528246Y-81192128D01*
X189741380Y-80979366D01*
X189856869Y-80701237D01*
X189856995Y-80557007D01*
X189999916Y-80557132D01*
X190278246Y-80442128D01*
X190491380Y-80229366D01*
X190606869Y-79951237D01*
X190607132Y-79650084D01*
X190492128Y-79371754D01*
X190279366Y-79158620D01*
X190001237Y-79043131D01*
X189700084Y-79042868D01*
X189421754Y-79157872D01*
X189208620Y-79370634D01*
X189093131Y-79648763D01*
X189093005Y-79792993D01*
X188950084Y-79792868D01*
X188671754Y-79907872D01*
X188458620Y-80120634D01*
X188343131Y-80398763D01*
X188342868Y-80699916D01*
X161626869Y-80699916D01*
X161627143Y-80386221D01*
X161501505Y-80082154D01*
X161269070Y-79849312D01*
X160965222Y-79723144D01*
X160636221Y-79722857D01*
X160332154Y-79848495D01*
X160099312Y-80080930D01*
X159973144Y-80384778D01*
X159972857Y-80713779D01*
X154905900Y-80713779D01*
X154950688Y-80669070D01*
X155076856Y-80365222D01*
X155077143Y-80036221D01*
X154951505Y-79732154D01*
X154933163Y-79713779D01*
X170272857Y-79713779D01*
X170398495Y-80017846D01*
X170630930Y-80250688D01*
X170934778Y-80376856D01*
X171263779Y-80377143D01*
X171567846Y-80251505D01*
X171800688Y-80019070D01*
X171926856Y-79715222D01*
X171927143Y-79386221D01*
X171801505Y-79082154D01*
X171569070Y-78849312D01*
X171265222Y-78723144D01*
X170936221Y-78722857D01*
X170632154Y-78848495D01*
X170399312Y-79080930D01*
X170273144Y-79384778D01*
X170272857Y-79713779D01*
X154933163Y-79713779D01*
X154719070Y-79499312D01*
X154415222Y-79373144D01*
X154086221Y-79372857D01*
X153782154Y-79498495D01*
X153549312Y-79730930D01*
X153423144Y-80034778D01*
X153422857Y-80363779D01*
X153067871Y-80363779D01*
X152951505Y-80082154D01*
X152719070Y-79849312D01*
X152415222Y-79723144D01*
X152086221Y-79722857D01*
X151782154Y-79848495D01*
X151549312Y-80080930D01*
X151423144Y-80384778D01*
X151422857Y-80713779D01*
X150076551Y-80713779D01*
X150001505Y-80532154D01*
X149769070Y-80299312D01*
X149465222Y-80173144D01*
X149136221Y-80172857D01*
X148832154Y-80298495D01*
X148599312Y-80530930D01*
X148473144Y-80834778D01*
X148472857Y-81163779D01*
X143327031Y-81163779D01*
X143327143Y-81036221D01*
X143201505Y-80732154D01*
X142969070Y-80499312D01*
X142665222Y-80373144D01*
X142336221Y-80372857D01*
X142032154Y-80498495D01*
X141799312Y-80730930D01*
X141673144Y-81034778D01*
X141672857Y-81363779D01*
X139276857Y-81363779D01*
X139277143Y-81036221D01*
X139232025Y-80927028D01*
X139363779Y-80927143D01*
X139667846Y-80801505D01*
X139900688Y-80569070D01*
X140026856Y-80265222D01*
X140027143Y-79936221D01*
X139901505Y-79632154D01*
X139669070Y-79399312D01*
X139365222Y-79273144D01*
X139036221Y-79272857D01*
X138732154Y-79398495D01*
X138499312Y-79630930D01*
X138373144Y-79934778D01*
X138372857Y-80263779D01*
X138417975Y-80372972D01*
X138286221Y-80372857D01*
X137982154Y-80498495D01*
X137749312Y-80730930D01*
X137623144Y-81034778D01*
X137622857Y-81363779D01*
X131671398Y-81363779D01*
X131726856Y-81230222D01*
X131727143Y-80901221D01*
X131601505Y-80597154D01*
X131369070Y-80364312D01*
X131065222Y-80238144D01*
X130736221Y-80237857D01*
X130432154Y-80363495D01*
X130199312Y-80595930D01*
X130073144Y-80899778D01*
X130072857Y-81228779D01*
X118102000Y-81228779D01*
X118102000Y-79299916D01*
X128992868Y-79299916D01*
X129107872Y-79578246D01*
X129320634Y-79791380D01*
X129598763Y-79906869D01*
X129899916Y-79907132D01*
X130178246Y-79792128D01*
X130391380Y-79579366D01*
X130506869Y-79301237D01*
X130507132Y-79000084D01*
X130392128Y-78721754D01*
X130179366Y-78508620D01*
X129901237Y-78393131D01*
X129600084Y-78392868D01*
X129321754Y-78507872D01*
X129108620Y-78720634D01*
X128993131Y-78998763D01*
X128992868Y-79299916D01*
X118102000Y-79299916D01*
X118102000Y-75413779D01*
X144322857Y-75413779D01*
X144448495Y-75717846D01*
X144680930Y-75950688D01*
X144984778Y-76076856D01*
X145313779Y-76077143D01*
X145588140Y-75963779D01*
X149322857Y-75963779D01*
X149448495Y-76267846D01*
X149680930Y-76500688D01*
X149984778Y-76626856D01*
X150313779Y-76627143D01*
X150617846Y-76501505D01*
X150850688Y-76269070D01*
X150976856Y-75965222D01*
X150977143Y-75636221D01*
X150851505Y-75332154D01*
X150619070Y-75099312D01*
X150315222Y-74973144D01*
X149986221Y-74972857D01*
X149682154Y-75098495D01*
X149449312Y-75330930D01*
X149323144Y-75634778D01*
X149322857Y-75963779D01*
X145588140Y-75963779D01*
X145617846Y-75951505D01*
X145850688Y-75719070D01*
X145976856Y-75415222D01*
X145977143Y-75086221D01*
X145851505Y-74782154D01*
X145833163Y-74763779D01*
X157822857Y-74763779D01*
X157948495Y-75067846D01*
X158180930Y-75300688D01*
X158484778Y-75426856D01*
X158813779Y-75427143D01*
X159117846Y-75301505D01*
X159350688Y-75069070D01*
X159399966Y-74950396D01*
X159448495Y-75067846D01*
X159680930Y-75300688D01*
X159984778Y-75426856D01*
X160313779Y-75427143D01*
X160617846Y-75301505D01*
X160755813Y-75163779D01*
X161772857Y-75163779D01*
X161898495Y-75467846D01*
X162130930Y-75700688D01*
X162434778Y-75826856D01*
X162763779Y-75827143D01*
X163067846Y-75701505D01*
X163300688Y-75469070D01*
X163350164Y-75349916D01*
X195092868Y-75349916D01*
X195207872Y-75628246D01*
X195420634Y-75841380D01*
X195698763Y-75956869D01*
X195999916Y-75957132D01*
X196278246Y-75842128D01*
X196491380Y-75629366D01*
X196606869Y-75351237D01*
X196607126Y-75057034D01*
X196719695Y-75057132D01*
X196998025Y-74942128D01*
X197211159Y-74729366D01*
X197326648Y-74451237D01*
X197326911Y-74150084D01*
X197211907Y-73871754D01*
X196999145Y-73658620D01*
X196721016Y-73543131D01*
X196419863Y-73542868D01*
X196141533Y-73657872D01*
X195928399Y-73870634D01*
X195812910Y-74148763D01*
X195812653Y-74442966D01*
X195700084Y-74442868D01*
X195421754Y-74557872D01*
X195208620Y-74770634D01*
X195093131Y-75048763D01*
X195092868Y-75349916D01*
X163350164Y-75349916D01*
X163426856Y-75165222D01*
X163427143Y-74836221D01*
X163301505Y-74532154D01*
X163069070Y-74299312D01*
X162765222Y-74173144D01*
X162436221Y-74172857D01*
X162132154Y-74298495D01*
X161899312Y-74530930D01*
X161773144Y-74834778D01*
X161772857Y-75163779D01*
X160755813Y-75163779D01*
X160850688Y-75069070D01*
X160976856Y-74765222D01*
X160977143Y-74436221D01*
X160851505Y-74132154D01*
X160619070Y-73899312D01*
X160315222Y-73773144D01*
X159986221Y-73772857D01*
X159682154Y-73898495D01*
X159449312Y-74130930D01*
X159400034Y-74249604D01*
X159351505Y-74132154D01*
X159119070Y-73899312D01*
X158815222Y-73773144D01*
X158486221Y-73772857D01*
X158182154Y-73898495D01*
X157949312Y-74130930D01*
X157823144Y-74434778D01*
X157822857Y-74763779D01*
X145833163Y-74763779D01*
X145619070Y-74549312D01*
X145315222Y-74423144D01*
X144986221Y-74422857D01*
X144682154Y-74548495D01*
X144449312Y-74780930D01*
X144323144Y-75084778D01*
X144322857Y-75413779D01*
X118102000Y-75413779D01*
X118102000Y-73763779D01*
X125672857Y-73763779D01*
X125798495Y-74067846D01*
X126030930Y-74300688D01*
X126334778Y-74426856D01*
X126663779Y-74427143D01*
X126967846Y-74301505D01*
X127200688Y-74069070D01*
X127285931Y-73863779D01*
X127672857Y-73863779D01*
X127798495Y-74167846D01*
X128030930Y-74400688D01*
X128334778Y-74526856D01*
X128663779Y-74527143D01*
X128967846Y-74401505D01*
X129200688Y-74169070D01*
X129326856Y-73865222D01*
X129327031Y-73663779D01*
X148722857Y-73663779D01*
X148848495Y-73967846D01*
X149080930Y-74200688D01*
X149384778Y-74326856D01*
X149713779Y-74327143D01*
X150017846Y-74201505D01*
X150250688Y-73969070D01*
X150376856Y-73665222D01*
X150377143Y-73336221D01*
X150251505Y-73032154D01*
X150019070Y-72799312D01*
X149715222Y-72673144D01*
X149386221Y-72672857D01*
X149082154Y-72798495D01*
X148849312Y-73030930D01*
X148723144Y-73334778D01*
X148722857Y-73663779D01*
X129327031Y-73663779D01*
X129327143Y-73536221D01*
X129201505Y-73232154D01*
X128969070Y-72999312D01*
X128665222Y-72873144D01*
X128336221Y-72872857D01*
X128032154Y-72998495D01*
X127799312Y-73230930D01*
X127673144Y-73534778D01*
X127672857Y-73863779D01*
X127285931Y-73863779D01*
X127326856Y-73765222D01*
X127327143Y-73436221D01*
X127201505Y-73132154D01*
X126969070Y-72899312D01*
X126665222Y-72773144D01*
X126336221Y-72772857D01*
X126032154Y-72898495D01*
X125799312Y-73130930D01*
X125673144Y-73434778D01*
X125672857Y-73763779D01*
X118102000Y-73763779D01*
X118102000Y-71663779D01*
X130172857Y-71663779D01*
X130298495Y-71967846D01*
X130530930Y-72200688D01*
X130834778Y-72326856D01*
X131163779Y-72327143D01*
X131467846Y-72201505D01*
X131555725Y-72113779D01*
X136622857Y-72113779D01*
X136748495Y-72417846D01*
X136980930Y-72650688D01*
X137284778Y-72776856D01*
X137613779Y-72777143D01*
X137917846Y-72651505D01*
X138005725Y-72563779D01*
X140322857Y-72563779D01*
X140448495Y-72867846D01*
X140680930Y-73100688D01*
X140984778Y-73226856D01*
X141313779Y-73227143D01*
X141617846Y-73101505D01*
X141850688Y-72869070D01*
X141976856Y-72565222D01*
X141977143Y-72236221D01*
X141851505Y-71932154D01*
X141619673Y-71699916D01*
X174992868Y-71699916D01*
X175107872Y-71978246D01*
X175320634Y-72191380D01*
X175598763Y-72306869D01*
X175899916Y-72307132D01*
X176178246Y-72192128D01*
X176391380Y-71979366D01*
X176506869Y-71701237D01*
X176506886Y-71680762D01*
X176592868Y-71680762D01*
X176707872Y-71959092D01*
X176920634Y-72172226D01*
X177198763Y-72287715D01*
X177499916Y-72287978D01*
X177778246Y-72172974D01*
X177991380Y-71960212D01*
X178103231Y-71690843D01*
X178207872Y-71944092D01*
X178420634Y-72157226D01*
X178698763Y-72272715D01*
X178999916Y-72272978D01*
X179278246Y-72157974D01*
X179491380Y-71945212D01*
X179510188Y-71899916D01*
X182642868Y-71899916D01*
X182757872Y-72178246D01*
X182970634Y-72391380D01*
X183248763Y-72506869D01*
X183549916Y-72507132D01*
X183828246Y-72392128D01*
X184041380Y-72179366D01*
X184156869Y-71901237D01*
X184157132Y-71600084D01*
X184042128Y-71321754D01*
X183829366Y-71108620D01*
X183551237Y-70993131D01*
X183250084Y-70992868D01*
X182971754Y-71107872D01*
X182758620Y-71320634D01*
X182643131Y-71598763D01*
X182642868Y-71899916D01*
X179510188Y-71899916D01*
X179606869Y-71667083D01*
X179607132Y-71365930D01*
X179492128Y-71087600D01*
X179279366Y-70874466D01*
X179001237Y-70758977D01*
X178700084Y-70758714D01*
X178421754Y-70873718D01*
X178208620Y-71086480D01*
X178096769Y-71355849D01*
X177992128Y-71102600D01*
X177779366Y-70889466D01*
X177501237Y-70773977D01*
X177200084Y-70773714D01*
X176921754Y-70888718D01*
X176708620Y-71101480D01*
X176593131Y-71379609D01*
X176592868Y-71680762D01*
X176506886Y-71680762D01*
X176507132Y-71400084D01*
X176392128Y-71121754D01*
X176179366Y-70908620D01*
X175901237Y-70793131D01*
X175600084Y-70792868D01*
X175321754Y-70907872D01*
X175108620Y-71120634D01*
X174993131Y-71398763D01*
X174992868Y-71699916D01*
X141619673Y-71699916D01*
X141619070Y-71699312D01*
X141315222Y-71573144D01*
X140986221Y-71572857D01*
X140682154Y-71698495D01*
X140449312Y-71930930D01*
X140323144Y-72234778D01*
X140322857Y-72563779D01*
X138005725Y-72563779D01*
X138150688Y-72419070D01*
X138276856Y-72115222D01*
X138277143Y-71786221D01*
X138151505Y-71482154D01*
X137919070Y-71249312D01*
X137615222Y-71123144D01*
X137286221Y-71122857D01*
X136982154Y-71248495D01*
X136749312Y-71480930D01*
X136623144Y-71784778D01*
X136622857Y-72113779D01*
X131555725Y-72113779D01*
X131700688Y-71969070D01*
X131826856Y-71665222D01*
X131827143Y-71336221D01*
X131714573Y-71063779D01*
X134172857Y-71063779D01*
X134298495Y-71367846D01*
X134530930Y-71600688D01*
X134834778Y-71726856D01*
X135163779Y-71727143D01*
X135467846Y-71601505D01*
X135700688Y-71369070D01*
X135826856Y-71065222D01*
X135827143Y-70736221D01*
X135701505Y-70432154D01*
X135469070Y-70199312D01*
X135165222Y-70073144D01*
X134836221Y-70072857D01*
X134532154Y-70198495D01*
X134299312Y-70430930D01*
X134173144Y-70734778D01*
X134172857Y-71063779D01*
X131714573Y-71063779D01*
X131701505Y-71032154D01*
X131469070Y-70799312D01*
X131165222Y-70673144D01*
X130836221Y-70672857D01*
X130532154Y-70798495D01*
X130299312Y-71030930D01*
X130173144Y-71334778D01*
X130172857Y-71663779D01*
X118102000Y-71663779D01*
X118102000Y-70413779D01*
X129022857Y-70413779D01*
X129148495Y-70717846D01*
X129380930Y-70950688D01*
X129684778Y-71076856D01*
X130013779Y-71077143D01*
X130317846Y-70951505D01*
X130550688Y-70719070D01*
X130676856Y-70415222D01*
X130677143Y-70086221D01*
X130551505Y-69782154D01*
X130383425Y-69613779D01*
X157822857Y-69613779D01*
X157948495Y-69917846D01*
X158180930Y-70150688D01*
X158484778Y-70276856D01*
X158813779Y-70277143D01*
X159117846Y-70151505D01*
X159350688Y-69919070D01*
X159476856Y-69615222D01*
X159477143Y-69286221D01*
X159351505Y-68982154D01*
X159119070Y-68749312D01*
X158815222Y-68623144D01*
X158486221Y-68622857D01*
X158182154Y-68748495D01*
X157949312Y-68980930D01*
X157823144Y-69284778D01*
X157822857Y-69613779D01*
X130383425Y-69613779D01*
X130319070Y-69549312D01*
X130015222Y-69423144D01*
X129686221Y-69422857D01*
X129382154Y-69548495D01*
X129149312Y-69780930D01*
X129023144Y-70084778D01*
X129022857Y-70413779D01*
X118102000Y-70413779D01*
X118102000Y-68413779D01*
X155522857Y-68413779D01*
X155648495Y-68717846D01*
X155880930Y-68950688D01*
X156184778Y-69076856D01*
X156513779Y-69077143D01*
X156817846Y-68951505D01*
X157050688Y-68719070D01*
X157176856Y-68415222D01*
X157177075Y-68163779D01*
X161422857Y-68163779D01*
X161548495Y-68467846D01*
X161780930Y-68700688D01*
X162084778Y-68826856D01*
X162413779Y-68827143D01*
X162717846Y-68701505D01*
X162950688Y-68469070D01*
X162994408Y-68363779D01*
X175672857Y-68363779D01*
X175798495Y-68667846D01*
X176030930Y-68900688D01*
X176334778Y-69026856D01*
X176663779Y-69027143D01*
X176967846Y-68901505D01*
X177200688Y-68669070D01*
X177326856Y-68365222D01*
X177326857Y-68363779D01*
X177422857Y-68363779D01*
X177548495Y-68667846D01*
X177780930Y-68900688D01*
X178084778Y-69026856D01*
X178413779Y-69027143D01*
X178717846Y-68901505D01*
X178950688Y-68669070D01*
X179076856Y-68365222D01*
X179077143Y-68036221D01*
X178951505Y-67732154D01*
X178719070Y-67499312D01*
X178415222Y-67373144D01*
X178086221Y-67372857D01*
X177782154Y-67498495D01*
X177549312Y-67730930D01*
X177423144Y-68034778D01*
X177422857Y-68363779D01*
X177326857Y-68363779D01*
X177327143Y-68036221D01*
X177201505Y-67732154D01*
X176969070Y-67499312D01*
X176665222Y-67373144D01*
X176336221Y-67372857D01*
X176032154Y-67498495D01*
X175799312Y-67730930D01*
X175673144Y-68034778D01*
X175672857Y-68363779D01*
X162994408Y-68363779D01*
X163076856Y-68165222D01*
X163077143Y-67836221D01*
X162951505Y-67532154D01*
X162719070Y-67299312D01*
X162415222Y-67173144D01*
X162086221Y-67172857D01*
X161782154Y-67298495D01*
X161549312Y-67530930D01*
X161423144Y-67834778D01*
X161422857Y-68163779D01*
X157177075Y-68163779D01*
X157177143Y-68086221D01*
X157051505Y-67782154D01*
X156819070Y-67549312D01*
X156515222Y-67423144D01*
X156186221Y-67422857D01*
X155882154Y-67548495D01*
X155649312Y-67780930D01*
X155523144Y-68084778D01*
X155522857Y-68413779D01*
X118102000Y-68413779D01*
X118102000Y-66863779D01*
X126572857Y-66863779D01*
X126698495Y-67167846D01*
X126930930Y-67400688D01*
X127234778Y-67526856D01*
X127563779Y-67527143D01*
X127867846Y-67401505D01*
X128100688Y-67169070D01*
X128226856Y-66865222D01*
X128227143Y-66536221D01*
X128101505Y-66232154D01*
X127869070Y-65999312D01*
X127565222Y-65873144D01*
X127236221Y-65872857D01*
X126932154Y-65998495D01*
X126699312Y-66230930D01*
X126573144Y-66534778D01*
X126572857Y-66863779D01*
X118102000Y-66863779D01*
X118102000Y-64602000D01*
X211398000Y-64602000D01*
X211398000Y-90898000D01*
M02*
