G04 #@! TF.FileFunction,Soldermask,Top*
%FSLAX46Y46*%
G04 Gerber Fmt 4.6, Leading zero omitted, Abs format (unit mm)*
G04 Created by KiCad (PCBNEW 4.0.5-e0-6337~49~ubuntu14.04.1) date Tue Feb 21 17:31:46 2017*
%MOMM*%
%LPD*%
G01*
G04 APERTURE LIST*
%ADD10C,0.100000*%
G04 APERTURE END LIST*
D10*
G36*
X211844000Y-91064000D02*
X207156000Y-91064000D01*
X207156000Y-88936000D01*
X211844000Y-88936000D01*
X211844000Y-91064000D01*
X211844000Y-91064000D01*
G37*
G36*
X123183735Y-88100238D02*
X123183748Y-88100242D01*
X123183785Y-88100246D01*
X123354189Y-88152995D01*
X123511102Y-88237838D01*
X123648548Y-88351542D01*
X123761290Y-88489778D01*
X123845035Y-88647280D01*
X123896593Y-88818048D01*
X123914000Y-88995578D01*
X123914000Y-89004422D01*
X123913911Y-89017183D01*
X123894027Y-89194453D01*
X123840090Y-89364485D01*
X123754154Y-89520802D01*
X123639492Y-89657450D01*
X123500473Y-89769225D01*
X123342390Y-89851868D01*
X123171267Y-89902233D01*
X123171233Y-89902236D01*
X123171220Y-89902240D01*
X122993621Y-89918403D01*
X122816265Y-89899762D01*
X122816252Y-89899758D01*
X122816215Y-89899754D01*
X122645811Y-89847005D01*
X122488898Y-89762162D01*
X122351452Y-89648458D01*
X122238710Y-89510222D01*
X122154965Y-89352720D01*
X122103407Y-89181952D01*
X122086000Y-89004422D01*
X122086000Y-88995578D01*
X122086089Y-88982817D01*
X122105973Y-88805547D01*
X122159910Y-88635515D01*
X122245846Y-88479198D01*
X122360508Y-88342550D01*
X122499527Y-88230775D01*
X122657610Y-88148132D01*
X122828733Y-88097767D01*
X122828767Y-88097764D01*
X122828780Y-88097760D01*
X123006379Y-88081597D01*
X123183735Y-88100238D01*
X123183735Y-88100238D01*
G37*
G36*
X125723735Y-88100238D02*
X125723748Y-88100242D01*
X125723785Y-88100246D01*
X125894189Y-88152995D01*
X126051102Y-88237838D01*
X126188548Y-88351542D01*
X126301290Y-88489778D01*
X126385035Y-88647280D01*
X126436593Y-88818048D01*
X126454000Y-88995578D01*
X126454000Y-89004422D01*
X126453911Y-89017183D01*
X126434027Y-89194453D01*
X126380090Y-89364485D01*
X126294154Y-89520802D01*
X126179492Y-89657450D01*
X126040473Y-89769225D01*
X125882390Y-89851868D01*
X125711267Y-89902233D01*
X125711233Y-89902236D01*
X125711220Y-89902240D01*
X125533621Y-89918403D01*
X125356265Y-89899762D01*
X125356252Y-89899758D01*
X125356215Y-89899754D01*
X125185811Y-89847005D01*
X125028898Y-89762162D01*
X124891452Y-89648458D01*
X124778710Y-89510222D01*
X124694965Y-89352720D01*
X124643407Y-89181952D01*
X124626000Y-89004422D01*
X124626000Y-88995578D01*
X124626089Y-88982817D01*
X124645973Y-88805547D01*
X124699910Y-88635515D01*
X124785846Y-88479198D01*
X124900508Y-88342550D01*
X125039527Y-88230775D01*
X125197610Y-88148132D01*
X125368733Y-88097767D01*
X125368767Y-88097764D01*
X125368780Y-88097760D01*
X125546379Y-88081597D01*
X125723735Y-88100238D01*
X125723735Y-88100238D01*
G37*
G36*
X137643735Y-88100238D02*
X137643748Y-88100242D01*
X137643785Y-88100246D01*
X137814189Y-88152995D01*
X137971102Y-88237838D01*
X138108548Y-88351542D01*
X138221290Y-88489778D01*
X138305035Y-88647280D01*
X138356593Y-88818048D01*
X138374000Y-88995578D01*
X138374000Y-89004422D01*
X138373911Y-89017183D01*
X138354027Y-89194453D01*
X138300090Y-89364485D01*
X138214154Y-89520802D01*
X138099492Y-89657450D01*
X137960473Y-89769225D01*
X137802390Y-89851868D01*
X137631267Y-89902233D01*
X137631233Y-89902236D01*
X137631220Y-89902240D01*
X137453621Y-89918403D01*
X137276265Y-89899762D01*
X137276252Y-89899758D01*
X137276215Y-89899754D01*
X137105811Y-89847005D01*
X136948898Y-89762162D01*
X136811452Y-89648458D01*
X136698710Y-89510222D01*
X136614965Y-89352720D01*
X136563407Y-89181952D01*
X136546000Y-89004422D01*
X136546000Y-88995578D01*
X136546089Y-88982817D01*
X136565973Y-88805547D01*
X136619910Y-88635515D01*
X136705846Y-88479198D01*
X136820508Y-88342550D01*
X136959527Y-88230775D01*
X137117610Y-88148132D01*
X137288733Y-88097767D01*
X137288767Y-88097764D01*
X137288780Y-88097760D01*
X137466379Y-88081597D01*
X137643735Y-88100238D01*
X137643735Y-88100238D01*
G37*
G36*
X140183735Y-88100238D02*
X140183748Y-88100242D01*
X140183785Y-88100246D01*
X140354189Y-88152995D01*
X140511102Y-88237838D01*
X140648548Y-88351542D01*
X140761290Y-88489778D01*
X140845035Y-88647280D01*
X140896593Y-88818048D01*
X140914000Y-88995578D01*
X140914000Y-89004422D01*
X140913911Y-89017183D01*
X140894027Y-89194453D01*
X140840090Y-89364485D01*
X140754154Y-89520802D01*
X140639492Y-89657450D01*
X140500473Y-89769225D01*
X140342390Y-89851868D01*
X140171267Y-89902233D01*
X140171233Y-89902236D01*
X140171220Y-89902240D01*
X139993621Y-89918403D01*
X139816265Y-89899762D01*
X139816252Y-89899758D01*
X139816215Y-89899754D01*
X139645811Y-89847005D01*
X139488898Y-89762162D01*
X139351452Y-89648458D01*
X139238710Y-89510222D01*
X139154965Y-89352720D01*
X139103407Y-89181952D01*
X139086000Y-89004422D01*
X139086000Y-88995578D01*
X139086089Y-88982817D01*
X139105973Y-88805547D01*
X139159910Y-88635515D01*
X139245846Y-88479198D01*
X139360508Y-88342550D01*
X139499527Y-88230775D01*
X139657610Y-88148132D01*
X139828733Y-88097767D01*
X139828767Y-88097764D01*
X139828780Y-88097760D01*
X140006379Y-88081597D01*
X140183735Y-88100238D01*
X140183735Y-88100238D01*
G37*
G36*
X128263735Y-88100238D02*
X128263748Y-88100242D01*
X128263785Y-88100246D01*
X128434189Y-88152995D01*
X128591102Y-88237838D01*
X128728548Y-88351542D01*
X128841290Y-88489778D01*
X128925035Y-88647280D01*
X128976593Y-88818048D01*
X128994000Y-88995578D01*
X128994000Y-89004422D01*
X128993911Y-89017183D01*
X128974027Y-89194453D01*
X128920090Y-89364485D01*
X128834154Y-89520802D01*
X128719492Y-89657450D01*
X128580473Y-89769225D01*
X128422390Y-89851868D01*
X128251267Y-89902233D01*
X128251233Y-89902236D01*
X128251220Y-89902240D01*
X128073621Y-89918403D01*
X127896265Y-89899762D01*
X127896252Y-89899758D01*
X127896215Y-89899754D01*
X127725811Y-89847005D01*
X127568898Y-89762162D01*
X127431452Y-89648458D01*
X127318710Y-89510222D01*
X127234965Y-89352720D01*
X127183407Y-89181952D01*
X127166000Y-89004422D01*
X127166000Y-88995578D01*
X127166089Y-88982817D01*
X127185973Y-88805547D01*
X127239910Y-88635515D01*
X127325846Y-88479198D01*
X127440508Y-88342550D01*
X127579527Y-88230775D01*
X127737610Y-88148132D01*
X127908733Y-88097767D01*
X127908767Y-88097764D01*
X127908780Y-88097760D01*
X128086379Y-88081597D01*
X128263735Y-88100238D01*
X128263735Y-88100238D01*
G37*
G36*
X142723735Y-88100238D02*
X142723748Y-88100242D01*
X142723785Y-88100246D01*
X142894189Y-88152995D01*
X143051102Y-88237838D01*
X143188548Y-88351542D01*
X143301290Y-88489778D01*
X143385035Y-88647280D01*
X143436593Y-88818048D01*
X143454000Y-88995578D01*
X143454000Y-89004422D01*
X143453911Y-89017183D01*
X143434027Y-89194453D01*
X143380090Y-89364485D01*
X143294154Y-89520802D01*
X143179492Y-89657450D01*
X143040473Y-89769225D01*
X142882390Y-89851868D01*
X142711267Y-89902233D01*
X142711233Y-89902236D01*
X142711220Y-89902240D01*
X142533621Y-89918403D01*
X142356265Y-89899762D01*
X142356252Y-89899758D01*
X142356215Y-89899754D01*
X142185811Y-89847005D01*
X142028898Y-89762162D01*
X141891452Y-89648458D01*
X141778710Y-89510222D01*
X141694965Y-89352720D01*
X141643407Y-89181952D01*
X141626000Y-89004422D01*
X141626000Y-88995578D01*
X141626089Y-88982817D01*
X141645973Y-88805547D01*
X141699910Y-88635515D01*
X141785846Y-88479198D01*
X141900508Y-88342550D01*
X142039527Y-88230775D01*
X142197610Y-88148132D01*
X142368733Y-88097767D01*
X142368767Y-88097764D01*
X142368780Y-88097760D01*
X142546379Y-88081597D01*
X142723735Y-88100238D01*
X142723735Y-88100238D01*
G37*
G36*
X121374000Y-89914000D02*
X119546000Y-89914000D01*
X119546000Y-88086000D01*
X121374000Y-88086000D01*
X121374000Y-89914000D01*
X121374000Y-89914000D01*
G37*
G36*
X135834000Y-89914000D02*
X134006000Y-89914000D01*
X134006000Y-88086000D01*
X135834000Y-88086000D01*
X135834000Y-89914000D01*
X135834000Y-89914000D01*
G37*
G36*
X176814000Y-89614000D02*
X176186000Y-89614000D01*
X176186000Y-88586000D01*
X176814000Y-88586000D01*
X176814000Y-89614000D01*
X176814000Y-89614000D01*
G37*
G36*
X175314000Y-89614000D02*
X174686000Y-89614000D01*
X174686000Y-88586000D01*
X175314000Y-88586000D01*
X175314000Y-89614000D01*
X175314000Y-89614000D01*
G37*
G36*
X181264000Y-89224000D02*
X180536000Y-89224000D01*
X180536000Y-88596000D01*
X181264000Y-88596000D01*
X181264000Y-89224000D01*
X181264000Y-89224000D01*
G37*
G36*
X180164000Y-89224000D02*
X179436000Y-89224000D01*
X179436000Y-88596000D01*
X180164000Y-88596000D01*
X180164000Y-89224000D01*
X180164000Y-89224000D01*
G37*
G36*
X182934000Y-88664000D02*
X182306000Y-88664000D01*
X182306000Y-87936000D01*
X182934000Y-87936000D01*
X182934000Y-88664000D01*
X182934000Y-88664000D01*
G37*
G36*
X181689000Y-87639000D02*
X180111000Y-87639000D01*
X180111000Y-85111000D01*
X181689000Y-85111000D01*
X181689000Y-87639000D01*
X181689000Y-87639000D01*
G37*
G36*
X177289000Y-87639000D02*
X175711000Y-87639000D01*
X175711000Y-85111000D01*
X177289000Y-85111000D01*
X177289000Y-87639000D01*
X177289000Y-87639000D01*
G37*
G36*
X182934000Y-87564000D02*
X182306000Y-87564000D01*
X182306000Y-86836000D01*
X182934000Y-86836000D01*
X182934000Y-87564000D01*
X182934000Y-87564000D01*
G37*
G36*
X175009000Y-87264000D02*
X174131000Y-87264000D01*
X174131000Y-86336000D01*
X175009000Y-86336000D01*
X175009000Y-87264000D01*
X175009000Y-87264000D01*
G37*
G36*
X188774000Y-87249000D02*
X188196000Y-87249000D01*
X188196000Y-86871000D01*
X188774000Y-86871000D01*
X188774000Y-87249000D01*
X188774000Y-87249000D01*
G37*
G36*
X190524000Y-87249000D02*
X189946000Y-87249000D01*
X189946000Y-86871000D01*
X190524000Y-86871000D01*
X190524000Y-87249000D01*
X190524000Y-87249000D01*
G37*
G36*
X199674000Y-87144000D02*
X198646000Y-87144000D01*
X198646000Y-86516000D01*
X199674000Y-86516000D01*
X199674000Y-87144000D01*
X199674000Y-87144000D01*
G37*
G36*
X196799000Y-86999000D02*
X196341000Y-86999000D01*
X196341000Y-86461000D01*
X196799000Y-86461000D01*
X196799000Y-86999000D01*
X196799000Y-86999000D01*
G37*
G36*
X197799000Y-86999000D02*
X197341000Y-86999000D01*
X197341000Y-86461000D01*
X197799000Y-86461000D01*
X197799000Y-86999000D01*
X197799000Y-86999000D01*
G37*
G36*
X189760100Y-86960100D02*
X188959900Y-86960100D01*
X188959900Y-86659900D01*
X189760100Y-86659900D01*
X189760100Y-86960100D01*
X189760100Y-86960100D01*
G37*
G36*
X190524000Y-86749000D02*
X189946000Y-86749000D01*
X189946000Y-86371000D01*
X190524000Y-86371000D01*
X190524000Y-86749000D01*
X190524000Y-86749000D01*
G37*
G36*
X188774000Y-86749000D02*
X188196000Y-86749000D01*
X188196000Y-86371000D01*
X188774000Y-86371000D01*
X188774000Y-86749000D01*
X188774000Y-86749000D01*
G37*
G36*
X165314000Y-86514000D02*
X164686000Y-86514000D01*
X164686000Y-85486000D01*
X165314000Y-85486000D01*
X165314000Y-86514000D01*
X165314000Y-86514000D01*
G37*
G36*
X168314000Y-86514000D02*
X167686000Y-86514000D01*
X167686000Y-85486000D01*
X168314000Y-85486000D01*
X168314000Y-86514000D01*
X168314000Y-86514000D01*
G37*
G36*
X169814000Y-86514000D02*
X169186000Y-86514000D01*
X169186000Y-85486000D01*
X169814000Y-85486000D01*
X169814000Y-86514000D01*
X169814000Y-86514000D01*
G37*
G36*
X166814000Y-86514000D02*
X166186000Y-86514000D01*
X166186000Y-85486000D01*
X166814000Y-85486000D01*
X166814000Y-86514000D01*
X166814000Y-86514000D01*
G37*
G36*
X154689000Y-86464000D02*
X153811000Y-86464000D01*
X153811000Y-85536000D01*
X154689000Y-85536000D01*
X154689000Y-86464000D01*
X154689000Y-86464000D01*
G37*
G36*
X189760100Y-86460100D02*
X188959900Y-86460100D01*
X188959900Y-86159900D01*
X189760100Y-86159900D01*
X189760100Y-86460100D01*
X189760100Y-86460100D01*
G37*
G36*
X187224000Y-86424000D02*
X186596000Y-86424000D01*
X186596000Y-85696000D01*
X187224000Y-85696000D01*
X187224000Y-86424000D01*
X187224000Y-86424000D01*
G37*
G36*
X192124000Y-86424000D02*
X191496000Y-86424000D01*
X191496000Y-85696000D01*
X192124000Y-85696000D01*
X192124000Y-86424000D01*
X192124000Y-86424000D01*
G37*
G36*
X185724000Y-86374000D02*
X184996000Y-86374000D01*
X184996000Y-85746000D01*
X185724000Y-85746000D01*
X185724000Y-86374000D01*
X185724000Y-86374000D01*
G37*
G36*
X195074000Y-86374000D02*
X194346000Y-86374000D01*
X194346000Y-85746000D01*
X195074000Y-85746000D01*
X195074000Y-86374000D01*
X195074000Y-86374000D01*
G37*
G36*
X184624000Y-86374000D02*
X183896000Y-86374000D01*
X183896000Y-85746000D01*
X184624000Y-85746000D01*
X184624000Y-86374000D01*
X184624000Y-86374000D01*
G37*
G36*
X193974000Y-86374000D02*
X193246000Y-86374000D01*
X193246000Y-85746000D01*
X193974000Y-85746000D01*
X193974000Y-86374000D01*
X193974000Y-86374000D01*
G37*
G36*
X197799000Y-86339000D02*
X197341000Y-86339000D01*
X197341000Y-85801000D01*
X197799000Y-85801000D01*
X197799000Y-86339000D01*
X197799000Y-86339000D01*
G37*
G36*
X196799000Y-86339000D02*
X196341000Y-86339000D01*
X196341000Y-85801000D01*
X196799000Y-85801000D01*
X196799000Y-86339000D01*
X196799000Y-86339000D01*
G37*
G36*
X190524000Y-86249000D02*
X189946000Y-86249000D01*
X189946000Y-85871000D01*
X190524000Y-85871000D01*
X190524000Y-86249000D01*
X190524000Y-86249000D01*
G37*
G36*
X188774000Y-86249000D02*
X188196000Y-86249000D01*
X188196000Y-85871000D01*
X188774000Y-85871000D01*
X188774000Y-86249000D01*
X188774000Y-86249000D01*
G37*
G36*
X211844000Y-86239000D02*
X207156000Y-86239000D01*
X207156000Y-85261000D01*
X211844000Y-85261000D01*
X211844000Y-86239000D01*
X211844000Y-86239000D01*
G37*
G36*
X150689000Y-86214000D02*
X149811000Y-86214000D01*
X149811000Y-85286000D01*
X150689000Y-85286000D01*
X150689000Y-86214000D01*
X150689000Y-86214000D01*
G37*
G36*
X205414000Y-86064000D02*
X204686000Y-86064000D01*
X204686000Y-85436000D01*
X205414000Y-85436000D01*
X205414000Y-86064000D01*
X205414000Y-86064000D01*
G37*
G36*
X204314000Y-86064000D02*
X203586000Y-86064000D01*
X203586000Y-85436000D01*
X204314000Y-85436000D01*
X204314000Y-86064000D01*
X204314000Y-86064000D01*
G37*
G36*
X152764000Y-86064000D02*
X151736000Y-86064000D01*
X151736000Y-85436000D01*
X152764000Y-85436000D01*
X152764000Y-86064000D01*
X152764000Y-86064000D01*
G37*
G36*
X189760100Y-85960100D02*
X188959900Y-85960100D01*
X188959900Y-85659900D01*
X189760100Y-85659900D01*
X189760100Y-85960100D01*
X189760100Y-85960100D01*
G37*
G36*
X175009000Y-85764000D02*
X174131000Y-85764000D01*
X174131000Y-84836000D01*
X175009000Y-84836000D01*
X175009000Y-85764000D01*
X175009000Y-85764000D01*
G37*
G36*
X190524000Y-85749000D02*
X189946000Y-85749000D01*
X189946000Y-85371000D01*
X190524000Y-85371000D01*
X190524000Y-85749000D01*
X190524000Y-85749000D01*
G37*
G36*
X188774000Y-85749000D02*
X188196000Y-85749000D01*
X188196000Y-85371000D01*
X188774000Y-85371000D01*
X188774000Y-85749000D01*
X188774000Y-85749000D01*
G37*
G36*
X196799000Y-85679000D02*
X196341000Y-85679000D01*
X196341000Y-85141000D01*
X196799000Y-85141000D01*
X196799000Y-85679000D01*
X196799000Y-85679000D01*
G37*
G36*
X197799000Y-85679000D02*
X197341000Y-85679000D01*
X197341000Y-85141000D01*
X197799000Y-85141000D01*
X197799000Y-85679000D01*
X197799000Y-85679000D01*
G37*
G36*
X199674000Y-85644000D02*
X198646000Y-85644000D01*
X198646000Y-85016000D01*
X199674000Y-85016000D01*
X199674000Y-85644000D01*
X199674000Y-85644000D01*
G37*
G36*
X187224000Y-85324000D02*
X186596000Y-85324000D01*
X186596000Y-84596000D01*
X187224000Y-84596000D01*
X187224000Y-85324000D01*
X187224000Y-85324000D01*
G37*
G36*
X192124000Y-85324000D02*
X191496000Y-85324000D01*
X191496000Y-84596000D01*
X192124000Y-84596000D01*
X192124000Y-85324000D01*
X192124000Y-85324000D01*
G37*
G36*
X133564000Y-85014000D02*
X132936000Y-85014000D01*
X132936000Y-83986000D01*
X133564000Y-83986000D01*
X133564000Y-85014000D01*
X133564000Y-85014000D01*
G37*
G36*
X135064000Y-85014000D02*
X134436000Y-85014000D01*
X134436000Y-83986000D01*
X135064000Y-83986000D01*
X135064000Y-85014000D01*
X135064000Y-85014000D01*
G37*
G36*
X136564000Y-85014000D02*
X135936000Y-85014000D01*
X135936000Y-83986000D01*
X136564000Y-83986000D01*
X136564000Y-85014000D01*
X136564000Y-85014000D01*
G37*
G36*
X132064000Y-85014000D02*
X131436000Y-85014000D01*
X131436000Y-83986000D01*
X132064000Y-83986000D01*
X132064000Y-85014000D01*
X132064000Y-85014000D01*
G37*
G36*
X154689000Y-84964000D02*
X153811000Y-84964000D01*
X153811000Y-84036000D01*
X154689000Y-84036000D01*
X154689000Y-84964000D01*
X154689000Y-84964000D01*
G37*
G36*
X148689000Y-84814000D02*
X147311000Y-84814000D01*
X147311000Y-83686000D01*
X148689000Y-83686000D01*
X148689000Y-84814000D01*
X148689000Y-84814000D01*
G37*
G36*
X150689000Y-84714000D02*
X149811000Y-84714000D01*
X149811000Y-83786000D01*
X150689000Y-83786000D01*
X150689000Y-84714000D01*
X150689000Y-84714000D01*
G37*
G36*
X152764000Y-84564000D02*
X151736000Y-84564000D01*
X151736000Y-83936000D01*
X152764000Y-83936000D01*
X152764000Y-84564000D01*
X152764000Y-84564000D01*
G37*
G36*
X168464000Y-84439000D02*
X167536000Y-84439000D01*
X167536000Y-83561000D01*
X168464000Y-83561000D01*
X168464000Y-84439000D01*
X168464000Y-84439000D01*
G37*
G36*
X169964000Y-84439000D02*
X169036000Y-84439000D01*
X169036000Y-83561000D01*
X169964000Y-83561000D01*
X169964000Y-84439000D01*
X169964000Y-84439000D01*
G37*
G36*
X199514000Y-84289000D02*
X198886000Y-84289000D01*
X198886000Y-83761000D01*
X199514000Y-83761000D01*
X199514000Y-84289000D01*
X199514000Y-84289000D01*
G37*
G36*
X200514000Y-84289000D02*
X199886000Y-84289000D01*
X199886000Y-83761000D01*
X200514000Y-83761000D01*
X200514000Y-84289000D01*
X200514000Y-84289000D01*
G37*
G36*
X188374000Y-83974000D02*
X187646000Y-83974000D01*
X187646000Y-83346000D01*
X188374000Y-83346000D01*
X188374000Y-83974000D01*
X188374000Y-83974000D01*
G37*
G36*
X187274000Y-83974000D02*
X186546000Y-83974000D01*
X186546000Y-83346000D01*
X187274000Y-83346000D01*
X187274000Y-83974000D01*
X187274000Y-83974000D01*
G37*
G36*
X192174000Y-83974000D02*
X191446000Y-83974000D01*
X191446000Y-83346000D01*
X192174000Y-83346000D01*
X192174000Y-83974000D01*
X192174000Y-83974000D01*
G37*
G36*
X191074000Y-83974000D02*
X190346000Y-83974000D01*
X190346000Y-83346000D01*
X191074000Y-83346000D01*
X191074000Y-83974000D01*
X191074000Y-83974000D01*
G37*
G36*
X181714000Y-83939000D02*
X180786000Y-83939000D01*
X180786000Y-83061000D01*
X181714000Y-83061000D01*
X181714000Y-83939000D01*
X181714000Y-83939000D01*
G37*
G36*
X180214000Y-83939000D02*
X179286000Y-83939000D01*
X179286000Y-83061000D01*
X180214000Y-83061000D01*
X180214000Y-83939000D01*
X180214000Y-83939000D01*
G37*
G36*
X200514000Y-83639000D02*
X199886000Y-83639000D01*
X199886000Y-83111000D01*
X200514000Y-83111000D01*
X200514000Y-83639000D01*
X200514000Y-83639000D01*
G37*
G36*
X199514000Y-83639000D02*
X198886000Y-83639000D01*
X198886000Y-83111000D01*
X199514000Y-83111000D01*
X199514000Y-83639000D01*
X199514000Y-83639000D01*
G37*
G36*
X152764000Y-83064000D02*
X151736000Y-83064000D01*
X151736000Y-82436000D01*
X152764000Y-82436000D01*
X152764000Y-83064000D01*
X152764000Y-83064000D01*
G37*
G36*
X150689000Y-82964000D02*
X149811000Y-82964000D01*
X149811000Y-82036000D01*
X150689000Y-82036000D01*
X150689000Y-82964000D01*
X150689000Y-82964000D01*
G37*
G36*
X154689000Y-82964000D02*
X153811000Y-82964000D01*
X153811000Y-82036000D01*
X154689000Y-82036000D01*
X154689000Y-82964000D01*
X154689000Y-82964000D01*
G37*
G36*
X138964000Y-82939000D02*
X138036000Y-82939000D01*
X138036000Y-82061000D01*
X138964000Y-82061000D01*
X138964000Y-82939000D01*
X138964000Y-82939000D01*
G37*
G36*
X137464000Y-82939000D02*
X136536000Y-82939000D01*
X136536000Y-82061000D01*
X137464000Y-82061000D01*
X137464000Y-82939000D01*
X137464000Y-82939000D01*
G37*
G36*
X160444000Y-82839000D02*
X159256000Y-82839000D01*
X159256000Y-82061000D01*
X160444000Y-82061000D01*
X160444000Y-82839000D01*
X160444000Y-82839000D01*
G37*
G36*
X158244000Y-82839000D02*
X157056000Y-82839000D01*
X157056000Y-82061000D01*
X158244000Y-82061000D01*
X158244000Y-82839000D01*
X158244000Y-82839000D01*
G37*
G36*
X148689000Y-82814000D02*
X147311000Y-82814000D01*
X147311000Y-81686000D01*
X148689000Y-81686000D01*
X148689000Y-82814000D01*
X148689000Y-82814000D01*
G37*
G36*
X169494000Y-82589000D02*
X168306000Y-82589000D01*
X168306000Y-81811000D01*
X169494000Y-81811000D01*
X169494000Y-82589000D01*
X169494000Y-82589000D01*
G37*
G36*
X171694000Y-82589000D02*
X170506000Y-82589000D01*
X170506000Y-81811000D01*
X171694000Y-81811000D01*
X171694000Y-82589000D01*
X171694000Y-82589000D01*
G37*
G36*
X191174000Y-82574000D02*
X190646000Y-82574000D01*
X190646000Y-81846000D01*
X191174000Y-81846000D01*
X191174000Y-82574000D01*
X191174000Y-82574000D01*
G37*
G36*
X187174000Y-82574000D02*
X186646000Y-82574000D01*
X186646000Y-81846000D01*
X187174000Y-81846000D01*
X187174000Y-82574000D01*
X187174000Y-82574000D01*
G37*
G36*
X188074000Y-82574000D02*
X187546000Y-82574000D01*
X187546000Y-81846000D01*
X188074000Y-81846000D01*
X188074000Y-82574000D01*
X188074000Y-82574000D01*
G37*
G36*
X189174000Y-82574000D02*
X188646000Y-82574000D01*
X188646000Y-81846000D01*
X189174000Y-81846000D01*
X189174000Y-82574000D01*
X189174000Y-82574000D01*
G37*
G36*
X190074000Y-82574000D02*
X189546000Y-82574000D01*
X189546000Y-81846000D01*
X190074000Y-81846000D01*
X190074000Y-82574000D01*
X190074000Y-82574000D01*
G37*
G36*
X192074000Y-82574000D02*
X191546000Y-82574000D01*
X191546000Y-81846000D01*
X192074000Y-81846000D01*
X192074000Y-82574000D01*
X192074000Y-82574000D01*
G37*
G36*
X211844000Y-82564000D02*
X207156000Y-82564000D01*
X207156000Y-80436000D01*
X211844000Y-80436000D01*
X211844000Y-82564000D01*
X211844000Y-82564000D01*
G37*
G36*
X165714000Y-82439000D02*
X164786000Y-82439000D01*
X164786000Y-81561000D01*
X165714000Y-81561000D01*
X165714000Y-82439000D01*
X165714000Y-82439000D01*
G37*
G36*
X167214000Y-82439000D02*
X166286000Y-82439000D01*
X166286000Y-81561000D01*
X167214000Y-81561000D01*
X167214000Y-82439000D01*
X167214000Y-82439000D01*
G37*
G36*
X130189000Y-81964000D02*
X129311000Y-81964000D01*
X129311000Y-81036000D01*
X130189000Y-81036000D01*
X130189000Y-81964000D01*
X130189000Y-81964000D01*
G37*
G36*
X158244000Y-81889000D02*
X157056000Y-81889000D01*
X157056000Y-81111000D01*
X158244000Y-81111000D01*
X158244000Y-81889000D01*
X158244000Y-81889000D01*
G37*
G36*
X169494000Y-81639000D02*
X168306000Y-81639000D01*
X168306000Y-80861000D01*
X169494000Y-80861000D01*
X169494000Y-81639000D01*
X169494000Y-81639000D01*
G37*
G36*
X127264000Y-81564000D02*
X126236000Y-81564000D01*
X126236000Y-80936000D01*
X127264000Y-80936000D01*
X127264000Y-81564000D01*
X127264000Y-81564000D01*
G37*
G36*
X152764000Y-81564000D02*
X151736000Y-81564000D01*
X151736000Y-80936000D01*
X152764000Y-80936000D01*
X152764000Y-81564000D01*
X152764000Y-81564000D01*
G37*
G36*
X154689000Y-81464000D02*
X153811000Y-81464000D01*
X153811000Y-80536000D01*
X154689000Y-80536000D01*
X154689000Y-81464000D01*
X154689000Y-81464000D01*
G37*
G36*
X150689000Y-81464000D02*
X149811000Y-81464000D01*
X149811000Y-80536000D01*
X150689000Y-80536000D01*
X150689000Y-81464000D01*
X150689000Y-81464000D01*
G37*
G36*
X120128412Y-80066028D02*
X120133693Y-80066065D01*
X120262475Y-80080510D01*
X120385999Y-80119694D01*
X120499560Y-80182125D01*
X120598832Y-80265424D01*
X120680034Y-80366418D01*
X120740072Y-80481261D01*
X120776661Y-80605579D01*
X120776664Y-80605613D01*
X120776668Y-80605626D01*
X120788409Y-80734634D01*
X120774868Y-80863466D01*
X120774864Y-80863479D01*
X120774860Y-80863516D01*
X120736539Y-80987310D01*
X120674903Y-81101304D01*
X120592299Y-81201155D01*
X120491874Y-81283060D01*
X120377453Y-81343899D01*
X120253394Y-81381354D01*
X120124422Y-81394000D01*
X119615545Y-81394000D01*
X119611588Y-81393972D01*
X119606307Y-81393935D01*
X119477525Y-81379490D01*
X119354001Y-81340306D01*
X119240440Y-81277875D01*
X119141168Y-81194576D01*
X119059966Y-81093582D01*
X118999928Y-80978739D01*
X118963339Y-80854421D01*
X118963336Y-80854387D01*
X118963332Y-80854374D01*
X118951591Y-80725366D01*
X118965132Y-80596534D01*
X118965136Y-80596521D01*
X118965140Y-80596484D01*
X119003461Y-80472690D01*
X119065097Y-80358696D01*
X119147701Y-80258845D01*
X119248126Y-80176940D01*
X119362547Y-80116101D01*
X119486606Y-80078646D01*
X119615578Y-80066000D01*
X120124455Y-80066000D01*
X120128412Y-80066028D01*
X120128412Y-80066028D01*
G37*
G36*
X132832750Y-81170250D02*
X132454750Y-81170250D01*
X132454750Y-80342250D01*
X132832750Y-80342250D01*
X132832750Y-81170250D01*
X132832750Y-81170250D01*
G37*
G36*
X136332750Y-81170250D02*
X135954750Y-81170250D01*
X135954750Y-80342250D01*
X136332750Y-80342250D01*
X136332750Y-81170250D01*
X136332750Y-81170250D01*
G37*
G36*
X133332750Y-81170250D02*
X132954750Y-81170250D01*
X132954750Y-80342250D01*
X133332750Y-80342250D01*
X133332750Y-81170250D01*
X133332750Y-81170250D01*
G37*
G36*
X133832750Y-81170250D02*
X133454750Y-81170250D01*
X133454750Y-80342250D01*
X133832750Y-80342250D01*
X133832750Y-81170250D01*
X133832750Y-81170250D01*
G37*
G36*
X134332750Y-81170250D02*
X133954750Y-81170250D01*
X133954750Y-80342250D01*
X134332750Y-80342250D01*
X134332750Y-81170250D01*
X134332750Y-81170250D01*
G37*
G36*
X134832750Y-81170250D02*
X134454750Y-81170250D01*
X134454750Y-80342250D01*
X134832750Y-80342250D01*
X134832750Y-81170250D01*
X134832750Y-81170250D01*
G37*
G36*
X135332750Y-81170250D02*
X134954750Y-81170250D01*
X134954750Y-80342250D01*
X135332750Y-80342250D01*
X135332750Y-81170250D01*
X135332750Y-81170250D01*
G37*
G36*
X135832750Y-81170250D02*
X135454750Y-81170250D01*
X135454750Y-80342250D01*
X135832750Y-80342250D01*
X135832750Y-81170250D01*
X135832750Y-81170250D01*
G37*
G36*
X136832750Y-81170250D02*
X136454750Y-81170250D01*
X136454750Y-80342250D01*
X136832750Y-80342250D01*
X136832750Y-81170250D01*
X136832750Y-81170250D01*
G37*
G36*
X137332750Y-81170250D02*
X136954750Y-81170250D01*
X136954750Y-80342250D01*
X137332750Y-80342250D01*
X137332750Y-81170250D01*
X137332750Y-81170250D01*
G37*
G36*
X137832750Y-80345250D02*
X137832750Y-81170250D01*
X137454750Y-81170250D01*
X137454750Y-80342250D01*
X137829750Y-80342250D01*
X137833026Y-80341784D01*
X137832750Y-80345250D01*
X137832750Y-80345250D01*
G37*
G36*
X131957750Y-80342250D02*
X132332750Y-80342250D01*
X132332750Y-81170250D01*
X131954750Y-81170250D01*
X131954750Y-80345250D01*
X131954284Y-80341974D01*
X131957750Y-80342250D01*
X131957750Y-80342250D01*
G37*
G36*
X123077816Y-79806027D02*
X123082512Y-79806060D01*
X123201597Y-79819417D01*
X123315819Y-79855651D01*
X123420829Y-79913380D01*
X123512625Y-79990407D01*
X123587712Y-80083796D01*
X123643230Y-80189992D01*
X123677063Y-80304948D01*
X123677066Y-80304977D01*
X123677071Y-80304995D01*
X123687927Y-80424285D01*
X123675406Y-80543412D01*
X123675402Y-80543425D01*
X123675398Y-80543462D01*
X123639963Y-80657935D01*
X123582968Y-80763344D01*
X123506584Y-80855676D01*
X123413721Y-80931414D01*
X123307916Y-80987671D01*
X123193199Y-81022306D01*
X123073939Y-81034000D01*
X122666027Y-81034000D01*
X122662184Y-81033973D01*
X122657488Y-81033940D01*
X122538403Y-81020583D01*
X122424181Y-80984349D01*
X122319171Y-80926620D01*
X122227375Y-80849593D01*
X122152288Y-80756204D01*
X122096770Y-80650008D01*
X122062937Y-80535052D01*
X122062934Y-80535023D01*
X122062929Y-80535005D01*
X122052073Y-80415715D01*
X122064594Y-80296588D01*
X122064598Y-80296575D01*
X122064602Y-80296538D01*
X122100037Y-80182065D01*
X122157032Y-80076656D01*
X122233416Y-79984324D01*
X122326279Y-79908586D01*
X122432084Y-79852329D01*
X122546801Y-79817694D01*
X122666061Y-79806000D01*
X123073973Y-79806000D01*
X123077816Y-79806027D01*
X123077816Y-79806027D01*
G37*
G36*
X190314000Y-80989000D02*
X189386000Y-80989000D01*
X189386000Y-80111000D01*
X190314000Y-80111000D01*
X190314000Y-80989000D01*
X190314000Y-80989000D01*
G37*
G36*
X191814000Y-80989000D02*
X190886000Y-80989000D01*
X190886000Y-80111000D01*
X191814000Y-80111000D01*
X191814000Y-80989000D01*
X191814000Y-80989000D01*
G37*
G36*
X186774000Y-80949000D02*
X185846000Y-80949000D01*
X185846000Y-80071000D01*
X186774000Y-80071000D01*
X186774000Y-80949000D01*
X186774000Y-80949000D01*
G37*
G36*
X188274000Y-80949000D02*
X187346000Y-80949000D01*
X187346000Y-80071000D01*
X188274000Y-80071000D01*
X188274000Y-80949000D01*
X188274000Y-80949000D01*
G37*
G36*
X158244000Y-80939000D02*
X157056000Y-80939000D01*
X157056000Y-80161000D01*
X158244000Y-80161000D01*
X158244000Y-80939000D01*
X158244000Y-80939000D01*
G37*
G36*
X160444000Y-80939000D02*
X159256000Y-80939000D01*
X159256000Y-80161000D01*
X160444000Y-80161000D01*
X160444000Y-80939000D01*
X160444000Y-80939000D01*
G37*
G36*
X143189000Y-80814000D02*
X141811000Y-80814000D01*
X141811000Y-79686000D01*
X143189000Y-79686000D01*
X143189000Y-80814000D01*
X143189000Y-80814000D01*
G37*
G36*
X167064000Y-80764000D02*
X166436000Y-80764000D01*
X166436000Y-79736000D01*
X167064000Y-79736000D01*
X167064000Y-80764000D01*
X167064000Y-80764000D01*
G37*
G36*
X162564000Y-80764000D02*
X161936000Y-80764000D01*
X161936000Y-79736000D01*
X162564000Y-79736000D01*
X162564000Y-80764000D01*
X162564000Y-80764000D01*
G37*
G36*
X165564000Y-80764000D02*
X164936000Y-80764000D01*
X164936000Y-79736000D01*
X165564000Y-79736000D01*
X165564000Y-80764000D01*
X165564000Y-80764000D01*
G37*
G36*
X164064000Y-80764000D02*
X163436000Y-80764000D01*
X163436000Y-79736000D01*
X164064000Y-79736000D01*
X164064000Y-80764000D01*
X164064000Y-80764000D01*
G37*
G36*
X169494000Y-80689000D02*
X168306000Y-80689000D01*
X168306000Y-79911000D01*
X169494000Y-79911000D01*
X169494000Y-80689000D01*
X169494000Y-80689000D01*
G37*
G36*
X171694000Y-80689000D02*
X170506000Y-80689000D01*
X170506000Y-79911000D01*
X171694000Y-79911000D01*
X171694000Y-80689000D01*
X171694000Y-80689000D01*
G37*
G36*
X130189000Y-80464000D02*
X129311000Y-80464000D01*
X129311000Y-79536000D01*
X130189000Y-79536000D01*
X130189000Y-80464000D01*
X130189000Y-80464000D01*
G37*
G36*
X138707750Y-80295250D02*
X137882750Y-80295250D01*
X137879474Y-80295716D01*
X137879750Y-80292250D01*
X137879750Y-79917250D01*
X138707750Y-79917250D01*
X138707750Y-80295250D01*
X138707750Y-80295250D01*
G37*
G36*
X131907750Y-80292250D02*
X131908216Y-80295526D01*
X131904750Y-80295250D01*
X131079750Y-80295250D01*
X131079750Y-79917250D01*
X131907750Y-79917250D01*
X131907750Y-80292250D01*
X131907750Y-80292250D01*
G37*
G36*
X127264000Y-80064000D02*
X126236000Y-80064000D01*
X126236000Y-79436000D01*
X127264000Y-79436000D01*
X127264000Y-80064000D01*
X127264000Y-80064000D01*
G37*
G36*
X137532750Y-79995250D02*
X132254750Y-79995250D01*
X132254750Y-74717250D01*
X137532750Y-74717250D01*
X137532750Y-79995250D01*
X137532750Y-79995250D01*
G37*
G36*
X140939000Y-79964000D02*
X140061000Y-79964000D01*
X140061000Y-79036000D01*
X140939000Y-79036000D01*
X140939000Y-79964000D01*
X140939000Y-79964000D01*
G37*
G36*
X138707750Y-79795250D02*
X137879750Y-79795250D01*
X137879750Y-79417250D01*
X138707750Y-79417250D01*
X138707750Y-79795250D01*
X138707750Y-79795250D01*
G37*
G36*
X131907750Y-79795250D02*
X131079750Y-79795250D01*
X131079750Y-79417250D01*
X131907750Y-79417250D01*
X131907750Y-79795250D01*
X131907750Y-79795250D01*
G37*
G36*
X120944000Y-79739000D02*
X118316000Y-79739000D01*
X118316000Y-78181000D01*
X120944000Y-78181000D01*
X120944000Y-79739000D01*
X120944000Y-79739000D01*
G37*
G36*
X123639000Y-79564000D02*
X121861000Y-79564000D01*
X121861000Y-79036000D01*
X123639000Y-79036000D01*
X123639000Y-79564000D01*
X123639000Y-79564000D01*
G37*
G36*
X138707750Y-79295250D02*
X137879750Y-79295250D01*
X137879750Y-78917250D01*
X138707750Y-78917250D01*
X138707750Y-79295250D01*
X138707750Y-79295250D01*
G37*
G36*
X131907750Y-79295250D02*
X131079750Y-79295250D01*
X131079750Y-78917250D01*
X131907750Y-78917250D01*
X131907750Y-79295250D01*
X131907750Y-79295250D01*
G37*
G36*
X123639000Y-78914000D02*
X121861000Y-78914000D01*
X121861000Y-78386000D01*
X123639000Y-78386000D01*
X123639000Y-78914000D01*
X123639000Y-78914000D01*
G37*
G36*
X143189000Y-78814000D02*
X141811000Y-78814000D01*
X141811000Y-77686000D01*
X143189000Y-77686000D01*
X143189000Y-78814000D01*
X143189000Y-78814000D01*
G37*
G36*
X138707750Y-78795250D02*
X137879750Y-78795250D01*
X137879750Y-78417250D01*
X138707750Y-78417250D01*
X138707750Y-78795250D01*
X138707750Y-78795250D01*
G37*
G36*
X131907750Y-78795250D02*
X131079750Y-78795250D01*
X131079750Y-78417250D01*
X131907750Y-78417250D01*
X131907750Y-78795250D01*
X131907750Y-78795250D01*
G37*
G36*
X140939000Y-78464000D02*
X140061000Y-78464000D01*
X140061000Y-77536000D01*
X140939000Y-77536000D01*
X140939000Y-78464000D01*
X140939000Y-78464000D01*
G37*
G36*
X138707750Y-78295250D02*
X137879750Y-78295250D01*
X137879750Y-77917250D01*
X138707750Y-77917250D01*
X138707750Y-78295250D01*
X138707750Y-78295250D01*
G37*
G36*
X131907750Y-78295250D02*
X131079750Y-78295250D01*
X131079750Y-77917250D01*
X131907750Y-77917250D01*
X131907750Y-78295250D01*
X131907750Y-78295250D01*
G37*
G36*
X123639000Y-78264000D02*
X121861000Y-78264000D01*
X121861000Y-77736000D01*
X123639000Y-77736000D01*
X123639000Y-78264000D01*
X123639000Y-78264000D01*
G37*
G36*
X120944000Y-77819000D02*
X118316000Y-77819000D01*
X118316000Y-76261000D01*
X120944000Y-76261000D01*
X120944000Y-77819000D01*
X120944000Y-77819000D01*
G37*
G36*
X138707750Y-77795250D02*
X137879750Y-77795250D01*
X137879750Y-77417250D01*
X138707750Y-77417250D01*
X138707750Y-77795250D01*
X138707750Y-77795250D01*
G37*
G36*
X131907750Y-77795250D02*
X131079750Y-77795250D01*
X131079750Y-77417250D01*
X131907750Y-77417250D01*
X131907750Y-77795250D01*
X131907750Y-77795250D01*
G37*
G36*
X123639000Y-77614000D02*
X121861000Y-77614000D01*
X121861000Y-77086000D01*
X123639000Y-77086000D01*
X123639000Y-77614000D01*
X123639000Y-77614000D01*
G37*
G36*
X131907750Y-77295250D02*
X131079750Y-77295250D01*
X131079750Y-76917250D01*
X131907750Y-76917250D01*
X131907750Y-77295250D01*
X131907750Y-77295250D01*
G37*
G36*
X138707750Y-77295250D02*
X137879750Y-77295250D01*
X137879750Y-76917250D01*
X138707750Y-76917250D01*
X138707750Y-77295250D01*
X138707750Y-77295250D01*
G37*
G36*
X127189000Y-77064000D02*
X125811000Y-77064000D01*
X125811000Y-75936000D01*
X127189000Y-75936000D01*
X127189000Y-77064000D01*
X127189000Y-77064000D01*
G37*
G36*
X142939000Y-76964000D02*
X142061000Y-76964000D01*
X142061000Y-76036000D01*
X142939000Y-76036000D01*
X142939000Y-76964000D01*
X142939000Y-76964000D01*
G37*
G36*
X123639000Y-76964000D02*
X121861000Y-76964000D01*
X121861000Y-76436000D01*
X123639000Y-76436000D01*
X123639000Y-76964000D01*
X123639000Y-76964000D01*
G37*
G36*
X140939000Y-76964000D02*
X140061000Y-76964000D01*
X140061000Y-76036000D01*
X140939000Y-76036000D01*
X140939000Y-76964000D01*
X140939000Y-76964000D01*
G37*
G36*
X138707750Y-76795250D02*
X137879750Y-76795250D01*
X137879750Y-76417250D01*
X138707750Y-76417250D01*
X138707750Y-76795250D01*
X138707750Y-76795250D01*
G37*
G36*
X131907750Y-76795250D02*
X131079750Y-76795250D01*
X131079750Y-76417250D01*
X131907750Y-76417250D01*
X131907750Y-76795250D01*
X131907750Y-76795250D01*
G37*
G36*
X128939000Y-76464000D02*
X128061000Y-76464000D01*
X128061000Y-75536000D01*
X128939000Y-75536000D01*
X128939000Y-76464000D01*
X128939000Y-76464000D01*
G37*
G36*
X138707750Y-76295250D02*
X137879750Y-76295250D01*
X137879750Y-75917250D01*
X138707750Y-75917250D01*
X138707750Y-76295250D01*
X138707750Y-76295250D01*
G37*
G36*
X131907750Y-76295250D02*
X131079750Y-76295250D01*
X131079750Y-75917250D01*
X131907750Y-75917250D01*
X131907750Y-76295250D01*
X131907750Y-76295250D01*
G37*
G36*
X123077816Y-74966027D02*
X123082512Y-74966060D01*
X123201597Y-74979417D01*
X123315819Y-75015651D01*
X123420829Y-75073380D01*
X123512625Y-75150407D01*
X123587712Y-75243796D01*
X123643230Y-75349992D01*
X123677063Y-75464948D01*
X123677066Y-75464977D01*
X123677071Y-75464995D01*
X123687927Y-75584285D01*
X123675406Y-75703412D01*
X123675402Y-75703425D01*
X123675398Y-75703462D01*
X123639963Y-75817935D01*
X123582968Y-75923344D01*
X123506584Y-76015676D01*
X123413721Y-76091414D01*
X123307916Y-76147671D01*
X123193199Y-76182306D01*
X123073939Y-76194000D01*
X122666027Y-76194000D01*
X122662184Y-76193973D01*
X122657488Y-76193940D01*
X122538403Y-76180583D01*
X122424181Y-76144349D01*
X122319171Y-76086620D01*
X122227375Y-76009593D01*
X122152288Y-75916204D01*
X122096770Y-75810008D01*
X122062937Y-75695052D01*
X122062934Y-75695023D01*
X122062929Y-75695005D01*
X122052073Y-75575715D01*
X122064594Y-75456588D01*
X122064598Y-75456575D01*
X122064602Y-75456538D01*
X122100037Y-75342065D01*
X122157032Y-75236656D01*
X122233416Y-75144324D01*
X122326279Y-75068586D01*
X122432084Y-75012329D01*
X122546801Y-74977694D01*
X122666061Y-74966000D01*
X123073973Y-74966000D01*
X123077816Y-74966027D01*
X123077816Y-74966027D01*
G37*
G36*
X120128412Y-74606028D02*
X120133693Y-74606065D01*
X120262475Y-74620510D01*
X120385999Y-74659694D01*
X120499560Y-74722125D01*
X120598832Y-74805424D01*
X120680034Y-74906418D01*
X120740072Y-75021261D01*
X120776661Y-75145579D01*
X120776664Y-75145613D01*
X120776668Y-75145626D01*
X120788409Y-75274634D01*
X120774868Y-75403466D01*
X120774864Y-75403479D01*
X120774860Y-75403516D01*
X120736539Y-75527310D01*
X120674903Y-75641304D01*
X120592299Y-75741155D01*
X120491874Y-75823060D01*
X120377453Y-75883899D01*
X120253394Y-75921354D01*
X120124422Y-75934000D01*
X119615545Y-75934000D01*
X119611588Y-75933972D01*
X119606307Y-75933935D01*
X119477525Y-75919490D01*
X119354001Y-75880306D01*
X119240440Y-75817875D01*
X119141168Y-75734576D01*
X119059966Y-75633582D01*
X118999928Y-75518739D01*
X118963339Y-75394421D01*
X118963336Y-75394387D01*
X118963332Y-75394374D01*
X118951591Y-75265366D01*
X118965132Y-75136534D01*
X118965136Y-75136521D01*
X118965140Y-75136484D01*
X119003461Y-75012690D01*
X119065097Y-74898696D01*
X119147701Y-74798845D01*
X119248126Y-74716940D01*
X119362547Y-74656101D01*
X119486606Y-74618646D01*
X119615578Y-74606000D01*
X120124455Y-74606000D01*
X120128412Y-74606028D01*
X120128412Y-74606028D01*
G37*
G36*
X138707750Y-75795250D02*
X137879750Y-75795250D01*
X137879750Y-75417250D01*
X138707750Y-75417250D01*
X138707750Y-75795250D01*
X138707750Y-75795250D01*
G37*
G36*
X131907750Y-75795250D02*
X131079750Y-75795250D01*
X131079750Y-75417250D01*
X131907750Y-75417250D01*
X131907750Y-75795250D01*
X131907750Y-75795250D01*
G37*
G36*
X146208730Y-75764000D02*
X145580730Y-75764000D01*
X145580730Y-74736000D01*
X146208730Y-74736000D01*
X146208730Y-75764000D01*
X146208730Y-75764000D01*
G37*
G36*
X147708730Y-75764000D02*
X147080730Y-75764000D01*
X147080730Y-74736000D01*
X147708730Y-74736000D01*
X147708730Y-75764000D01*
X147708730Y-75764000D01*
G37*
G36*
X197033779Y-75650867D02*
X196105779Y-75650867D01*
X196105779Y-74772867D01*
X197033779Y-74772867D01*
X197033779Y-75650867D01*
X197033779Y-75650867D01*
G37*
G36*
X198533779Y-75650867D02*
X197605779Y-75650867D01*
X197605779Y-74772867D01*
X198533779Y-74772867D01*
X198533779Y-75650867D01*
X198533779Y-75650867D01*
G37*
G36*
X200133779Y-75650867D02*
X199205779Y-75650867D01*
X199205779Y-74772867D01*
X200133779Y-74772867D01*
X200133779Y-75650867D01*
X200133779Y-75650867D01*
G37*
G36*
X201633779Y-75650867D02*
X200705779Y-75650867D01*
X200705779Y-74772867D01*
X201633779Y-74772867D01*
X201633779Y-75650867D01*
X201633779Y-75650867D01*
G37*
G36*
X163564000Y-75514000D02*
X162936000Y-75514000D01*
X162936000Y-74486000D01*
X163564000Y-74486000D01*
X163564000Y-75514000D01*
X163564000Y-75514000D01*
G37*
G36*
X165064000Y-75514000D02*
X164436000Y-75514000D01*
X164436000Y-74486000D01*
X165064000Y-74486000D01*
X165064000Y-75514000D01*
X165064000Y-75514000D01*
G37*
G36*
X142939000Y-75464000D02*
X142061000Y-75464000D01*
X142061000Y-74536000D01*
X142939000Y-74536000D01*
X142939000Y-75464000D01*
X142939000Y-75464000D01*
G37*
G36*
X140939000Y-75464000D02*
X140061000Y-75464000D01*
X140061000Y-74536000D01*
X140939000Y-74536000D01*
X140939000Y-75464000D01*
X140939000Y-75464000D01*
G37*
G36*
X150608730Y-75451828D02*
X149680730Y-75451828D01*
X149680730Y-74573828D01*
X150608730Y-74573828D01*
X150608730Y-75451828D01*
X150608730Y-75451828D01*
G37*
G36*
X152108730Y-75451828D02*
X151180730Y-75451828D01*
X151180730Y-74573828D01*
X152108730Y-74573828D01*
X152108730Y-75451828D01*
X152108730Y-75451828D01*
G37*
G36*
X131907750Y-75295250D02*
X131079750Y-75295250D01*
X131079750Y-74917250D01*
X131907750Y-74917250D01*
X131907750Y-75295250D01*
X131907750Y-75295250D01*
G37*
G36*
X138707750Y-75295250D02*
X137879750Y-75295250D01*
X137879750Y-74917250D01*
X138707750Y-74917250D01*
X138707750Y-75295250D01*
X138707750Y-75295250D01*
G37*
G36*
X127189000Y-75064000D02*
X125811000Y-75064000D01*
X125811000Y-73936000D01*
X127189000Y-73936000D01*
X127189000Y-75064000D01*
X127189000Y-75064000D01*
G37*
G36*
X211844000Y-75064000D02*
X207156000Y-75064000D01*
X207156000Y-72936000D01*
X211844000Y-72936000D01*
X211844000Y-75064000D01*
X211844000Y-75064000D01*
G37*
G36*
X170954000Y-75064000D02*
X169736000Y-75064000D01*
X169736000Y-73436000D01*
X170954000Y-73436000D01*
X170954000Y-75064000D01*
X170954000Y-75064000D01*
G37*
G36*
X173264000Y-75064000D02*
X172046000Y-75064000D01*
X172046000Y-73436000D01*
X173264000Y-73436000D01*
X173264000Y-75064000D01*
X173264000Y-75064000D01*
G37*
G36*
X128939000Y-74964000D02*
X128061000Y-74964000D01*
X128061000Y-74036000D01*
X128939000Y-74036000D01*
X128939000Y-74964000D01*
X128939000Y-74964000D01*
G37*
G36*
X131907750Y-74420250D02*
X131907750Y-74795250D01*
X131079750Y-74795250D01*
X131079750Y-74417250D01*
X131904750Y-74417250D01*
X131908026Y-74416784D01*
X131907750Y-74420250D01*
X131907750Y-74420250D01*
G37*
G36*
X137882750Y-74417250D02*
X138707750Y-74417250D01*
X138707750Y-74795250D01*
X137879750Y-74795250D01*
X137879750Y-74420250D01*
X137879284Y-74416974D01*
X137882750Y-74417250D01*
X137882750Y-74417250D01*
G37*
G36*
X168608730Y-74701828D02*
X167680730Y-74701828D01*
X167680730Y-73823828D01*
X168608730Y-73823828D01*
X168608730Y-74701828D01*
X168608730Y-74701828D01*
G37*
G36*
X167108730Y-74701828D02*
X166180730Y-74701828D01*
X166180730Y-73823828D01*
X167108730Y-73823828D01*
X167108730Y-74701828D01*
X167108730Y-74701828D01*
G37*
G36*
X184401416Y-74524846D02*
X183773416Y-74524846D01*
X183773416Y-73796846D01*
X184401416Y-73796846D01*
X184401416Y-74524846D01*
X184401416Y-74524846D01*
G37*
G36*
X188341416Y-74514000D02*
X187713416Y-74514000D01*
X187713416Y-73786000D01*
X188341416Y-73786000D01*
X188341416Y-74514000D01*
X188341416Y-74514000D01*
G37*
G36*
X132332750Y-74370250D02*
X131957750Y-74370250D01*
X131954474Y-74370716D01*
X131954750Y-74367250D01*
X131954750Y-73542250D01*
X132332750Y-73542250D01*
X132332750Y-74370250D01*
X132332750Y-74370250D01*
G37*
G36*
X137832750Y-74367250D02*
X137833216Y-74370526D01*
X137829750Y-74370250D01*
X137454750Y-74370250D01*
X137454750Y-73542250D01*
X137832750Y-73542250D01*
X137832750Y-74367250D01*
X137832750Y-74367250D01*
G37*
G36*
X133332750Y-74370250D02*
X132954750Y-74370250D01*
X132954750Y-73542250D01*
X133332750Y-73542250D01*
X133332750Y-74370250D01*
X133332750Y-74370250D01*
G37*
G36*
X137332750Y-74370250D02*
X136954750Y-74370250D01*
X136954750Y-73542250D01*
X137332750Y-73542250D01*
X137332750Y-74370250D01*
X137332750Y-74370250D01*
G37*
G36*
X136832750Y-74370250D02*
X136454750Y-74370250D01*
X136454750Y-73542250D01*
X136832750Y-73542250D01*
X136832750Y-74370250D01*
X136832750Y-74370250D01*
G37*
G36*
X136332750Y-74370250D02*
X135954750Y-74370250D01*
X135954750Y-73542250D01*
X136332750Y-73542250D01*
X136332750Y-74370250D01*
X136332750Y-74370250D01*
G37*
G36*
X135832750Y-74370250D02*
X135454750Y-74370250D01*
X135454750Y-73542250D01*
X135832750Y-73542250D01*
X135832750Y-74370250D01*
X135832750Y-74370250D01*
G37*
G36*
X134832750Y-74370250D02*
X134454750Y-74370250D01*
X134454750Y-73542250D01*
X134832750Y-73542250D01*
X134832750Y-74370250D01*
X134832750Y-74370250D01*
G37*
G36*
X135332750Y-74370250D02*
X134954750Y-74370250D01*
X134954750Y-73542250D01*
X135332750Y-73542250D01*
X135332750Y-74370250D01*
X135332750Y-74370250D01*
G37*
G36*
X133832750Y-74370250D02*
X133454750Y-74370250D01*
X133454750Y-73542250D01*
X133832750Y-73542250D01*
X133832750Y-74370250D01*
X133832750Y-74370250D01*
G37*
G36*
X132832750Y-74370250D02*
X132454750Y-74370250D01*
X132454750Y-73542250D01*
X132832750Y-73542250D01*
X132832750Y-74370250D01*
X132832750Y-74370250D01*
G37*
G36*
X134332750Y-74370250D02*
X133954750Y-74370250D01*
X133954750Y-73542250D01*
X134332750Y-73542250D01*
X134332750Y-74370250D01*
X134332750Y-74370250D01*
G37*
G36*
X160608730Y-74189000D02*
X159680730Y-74189000D01*
X159680730Y-73311000D01*
X160608730Y-73311000D01*
X160608730Y-74189000D01*
X160608730Y-74189000D01*
G37*
G36*
X159108730Y-74189000D02*
X158180730Y-74189000D01*
X158180730Y-73311000D01*
X159108730Y-73311000D01*
X159108730Y-74189000D01*
X159108730Y-74189000D01*
G37*
G36*
X181161416Y-74164846D02*
X180433416Y-74164846D01*
X180433416Y-73536846D01*
X181161416Y-73536846D01*
X181161416Y-74164846D01*
X181161416Y-74164846D01*
G37*
G36*
X180061416Y-74164846D02*
X179333416Y-74164846D01*
X179333416Y-73536846D01*
X180061416Y-73536846D01*
X180061416Y-74164846D01*
X180061416Y-74164846D01*
G37*
G36*
X146358730Y-73939000D02*
X145430730Y-73939000D01*
X145430730Y-73061000D01*
X146358730Y-73061000D01*
X146358730Y-73939000D01*
X146358730Y-73939000D01*
G37*
G36*
X147858730Y-73939000D02*
X146930730Y-73939000D01*
X146930730Y-73061000D01*
X147858730Y-73061000D01*
X147858730Y-73939000D01*
X147858730Y-73939000D01*
G37*
G36*
X199933779Y-73875867D02*
X199405779Y-73875867D01*
X199405779Y-73147867D01*
X199933779Y-73147867D01*
X199933779Y-73875867D01*
X199933779Y-73875867D01*
G37*
G36*
X196833779Y-73875867D02*
X196305779Y-73875867D01*
X196305779Y-73147867D01*
X196833779Y-73147867D01*
X196833779Y-73875867D01*
X196833779Y-73875867D01*
G37*
G36*
X195933779Y-73875867D02*
X195405779Y-73875867D01*
X195405779Y-73147867D01*
X195933779Y-73147867D01*
X195933779Y-73875867D01*
X195933779Y-73875867D01*
G37*
G36*
X197933779Y-73875867D02*
X197405779Y-73875867D01*
X197405779Y-73147867D01*
X197933779Y-73147867D01*
X197933779Y-73875867D01*
X197933779Y-73875867D01*
G37*
G36*
X200833779Y-73875867D02*
X200305779Y-73875867D01*
X200305779Y-73147867D01*
X200833779Y-73147867D01*
X200833779Y-73875867D01*
X200833779Y-73875867D01*
G37*
G36*
X198833779Y-73875867D02*
X198305779Y-73875867D01*
X198305779Y-73147867D01*
X198833779Y-73147867D01*
X198833779Y-73875867D01*
X198833779Y-73875867D01*
G37*
G36*
X176946416Y-73494846D02*
X176068416Y-73494846D01*
X176068416Y-72566846D01*
X176946416Y-72566846D01*
X176946416Y-73494846D01*
X176946416Y-73494846D01*
G37*
G36*
X184401416Y-73424846D02*
X183773416Y-73424846D01*
X183773416Y-72696846D01*
X184401416Y-72696846D01*
X184401416Y-73424846D01*
X184401416Y-73424846D01*
G37*
G36*
X188341416Y-73414000D02*
X187713416Y-73414000D01*
X187713416Y-72686000D01*
X188341416Y-72686000D01*
X188341416Y-73414000D01*
X188341416Y-73414000D01*
G37*
G36*
X191091416Y-73384846D02*
X190363416Y-73384846D01*
X190363416Y-72756846D01*
X191091416Y-72756846D01*
X191091416Y-73384846D01*
X191091416Y-73384846D01*
G37*
G36*
X189991416Y-73384846D02*
X189263416Y-73384846D01*
X189263416Y-72756846D01*
X189991416Y-72756846D01*
X189991416Y-73384846D01*
X189991416Y-73384846D01*
G37*
G36*
X187081416Y-73374846D02*
X186353416Y-73374846D01*
X186353416Y-72746846D01*
X187081416Y-72746846D01*
X187081416Y-73374846D01*
X187081416Y-73374846D01*
G37*
G36*
X185981416Y-73374846D02*
X185253416Y-73374846D01*
X185253416Y-72746846D01*
X185981416Y-72746846D01*
X185981416Y-73374846D01*
X185981416Y-73374846D01*
G37*
G36*
X154458730Y-73276828D02*
X153830730Y-73276828D01*
X153830730Y-72248828D01*
X154458730Y-72248828D01*
X154458730Y-73276828D01*
X154458730Y-73276828D01*
G37*
G36*
X155958730Y-73276828D02*
X155330730Y-73276828D01*
X155330730Y-72248828D01*
X155958730Y-72248828D01*
X155958730Y-73276828D01*
X155958730Y-73276828D01*
G37*
G36*
X164288730Y-71023828D02*
X164290710Y-71037758D01*
X164296491Y-71050584D01*
X164305618Y-71061292D01*
X164317366Y-71069034D01*
X164330806Y-71073196D01*
X164338730Y-71073828D01*
X165208730Y-71073828D01*
X165208730Y-71451828D01*
X164338730Y-71451828D01*
X164324800Y-71453808D01*
X164311974Y-71459589D01*
X164301266Y-71468716D01*
X164293524Y-71480464D01*
X164289362Y-71493904D01*
X164288730Y-71501828D01*
X164288730Y-71523828D01*
X164290710Y-71537758D01*
X164296491Y-71550584D01*
X164305618Y-71561292D01*
X164317366Y-71569034D01*
X164330806Y-71573196D01*
X164338730Y-71573828D01*
X165208730Y-71573828D01*
X165208730Y-71951828D01*
X164338730Y-71951828D01*
X164324800Y-71953808D01*
X164311974Y-71959589D01*
X164301266Y-71968716D01*
X164293524Y-71980464D01*
X164289362Y-71993904D01*
X164288730Y-72001828D01*
X164288730Y-72023828D01*
X164290710Y-72037758D01*
X164296491Y-72050584D01*
X164305618Y-72061292D01*
X164317366Y-72069034D01*
X164330806Y-72073196D01*
X164338730Y-72073828D01*
X165208730Y-72073828D01*
X165208730Y-72451828D01*
X164338730Y-72451828D01*
X164324800Y-72453808D01*
X164311974Y-72459589D01*
X164301266Y-72468716D01*
X164293524Y-72480464D01*
X164289362Y-72493904D01*
X164288730Y-72501828D01*
X164288730Y-72523828D01*
X164290710Y-72537758D01*
X164296491Y-72550584D01*
X164305618Y-72561292D01*
X164317366Y-72569034D01*
X164330806Y-72573196D01*
X164338730Y-72573828D01*
X165208730Y-72573828D01*
X165208730Y-72951828D01*
X164338730Y-72951828D01*
X164324800Y-72953808D01*
X164311974Y-72959589D01*
X164301266Y-72968716D01*
X164293524Y-72980464D01*
X164289362Y-72993904D01*
X164288730Y-73001828D01*
X164288730Y-73266828D01*
X162500730Y-73266828D01*
X162500730Y-73001828D01*
X162498750Y-72987898D01*
X162492969Y-72975072D01*
X162483842Y-72964364D01*
X162472094Y-72956622D01*
X162458654Y-72952460D01*
X162450730Y-72951828D01*
X161580730Y-72951828D01*
X161580730Y-72573828D01*
X162450730Y-72573828D01*
X162464660Y-72571848D01*
X162477486Y-72566067D01*
X162488194Y-72556940D01*
X162495936Y-72545192D01*
X162500098Y-72531752D01*
X162500730Y-72523828D01*
X162500730Y-72501828D01*
X162498750Y-72487898D01*
X162492969Y-72475072D01*
X162483842Y-72464364D01*
X162472094Y-72456622D01*
X162458654Y-72452460D01*
X162450730Y-72451828D01*
X161580730Y-72451828D01*
X161580730Y-72073828D01*
X162450730Y-72073828D01*
X162464660Y-72071848D01*
X162477486Y-72066067D01*
X162488194Y-72056940D01*
X162495936Y-72045192D01*
X162500098Y-72031752D01*
X162500730Y-72023828D01*
X162500730Y-72001828D01*
X162498750Y-71987898D01*
X162492969Y-71975072D01*
X162483842Y-71964364D01*
X162472094Y-71956622D01*
X162458654Y-71952460D01*
X162450730Y-71951828D01*
X161580730Y-71951828D01*
X161580730Y-71573828D01*
X162450730Y-71573828D01*
X162464660Y-71571848D01*
X162477486Y-71566067D01*
X162488194Y-71556940D01*
X162495936Y-71545192D01*
X162500098Y-71531752D01*
X162500730Y-71523828D01*
X162500730Y-71501828D01*
X162498750Y-71487898D01*
X162492969Y-71475072D01*
X162483842Y-71464364D01*
X162472094Y-71456622D01*
X162458654Y-71452460D01*
X162450730Y-71451828D01*
X161580730Y-71451828D01*
X161580730Y-71073828D01*
X162450730Y-71073828D01*
X162464660Y-71071848D01*
X162477486Y-71066067D01*
X162488194Y-71056940D01*
X162495936Y-71045192D01*
X162500098Y-71031752D01*
X162500730Y-71023828D01*
X162500730Y-70758828D01*
X164288730Y-70758828D01*
X164288730Y-71023828D01*
X164288730Y-71023828D01*
G37*
G36*
X152338730Y-73101828D02*
X151150730Y-73101828D01*
X151150730Y-72323828D01*
X152338730Y-72323828D01*
X152338730Y-73101828D01*
X152338730Y-73101828D01*
G37*
G36*
X150138730Y-73101828D02*
X148950730Y-73101828D01*
X148950730Y-72323828D01*
X150138730Y-72323828D01*
X150138730Y-73101828D01*
X150138730Y-73101828D01*
G37*
G36*
X178441416Y-72994846D02*
X177813416Y-72994846D01*
X177813416Y-72266846D01*
X178441416Y-72266846D01*
X178441416Y-72994846D01*
X178441416Y-72994846D01*
G37*
G36*
X132964000Y-72689000D02*
X132036000Y-72689000D01*
X132036000Y-71811000D01*
X132964000Y-71811000D01*
X132964000Y-72689000D01*
X132964000Y-72689000D01*
G37*
G36*
X131464000Y-72689000D02*
X130536000Y-72689000D01*
X130536000Y-71811000D01*
X131464000Y-71811000D01*
X131464000Y-72689000D01*
X131464000Y-72689000D01*
G37*
G36*
X166958730Y-72526828D02*
X166330730Y-72526828D01*
X166330730Y-71498828D01*
X166958730Y-71498828D01*
X166958730Y-72526828D01*
X166958730Y-72526828D01*
G37*
G36*
X168458730Y-72526828D02*
X167830730Y-72526828D01*
X167830730Y-71498828D01*
X168458730Y-71498828D01*
X168458730Y-72526828D01*
X168458730Y-72526828D01*
G37*
G36*
X181986416Y-70276846D02*
X181988396Y-70290776D01*
X181994177Y-70303602D01*
X182003304Y-70314310D01*
X182015052Y-70322052D01*
X182028492Y-70326214D01*
X182036416Y-70326846D01*
X182906416Y-70326846D01*
X182906416Y-70704846D01*
X182036416Y-70704846D01*
X182022486Y-70706826D01*
X182009660Y-70712607D01*
X181998952Y-70721734D01*
X181991210Y-70733482D01*
X181987048Y-70746922D01*
X181986416Y-70754846D01*
X181986416Y-70776846D01*
X181988396Y-70790776D01*
X181994177Y-70803602D01*
X182003304Y-70814310D01*
X182015052Y-70822052D01*
X182028492Y-70826214D01*
X182036416Y-70826846D01*
X182906416Y-70826846D01*
X182906416Y-71204846D01*
X182036416Y-71204846D01*
X182022486Y-71206826D01*
X182009660Y-71212607D01*
X181998952Y-71221734D01*
X181991210Y-71233482D01*
X181987048Y-71246922D01*
X181986416Y-71254846D01*
X181986416Y-71276846D01*
X181988396Y-71290776D01*
X181994177Y-71303602D01*
X182003304Y-71314310D01*
X182015052Y-71322052D01*
X182028492Y-71326214D01*
X182036416Y-71326846D01*
X182906416Y-71326846D01*
X182906416Y-71704846D01*
X182036416Y-71704846D01*
X182022486Y-71706826D01*
X182009660Y-71712607D01*
X181998952Y-71721734D01*
X181991210Y-71733482D01*
X181987048Y-71746922D01*
X181986416Y-71754846D01*
X181986416Y-71776846D01*
X181988396Y-71790776D01*
X181994177Y-71803602D01*
X182003304Y-71814310D01*
X182015052Y-71822052D01*
X182028492Y-71826214D01*
X182036416Y-71826846D01*
X182906416Y-71826846D01*
X182906416Y-72204846D01*
X182036416Y-72204846D01*
X182022486Y-72206826D01*
X182009660Y-72212607D01*
X181998952Y-72221734D01*
X181991210Y-72233482D01*
X181987048Y-72246922D01*
X181986416Y-72254846D01*
X181986416Y-72519846D01*
X180198416Y-72519846D01*
X180198416Y-72254846D01*
X180196436Y-72240916D01*
X180190655Y-72228090D01*
X180181528Y-72217382D01*
X180169780Y-72209640D01*
X180156340Y-72205478D01*
X180148416Y-72204846D01*
X179278416Y-72204846D01*
X179278416Y-71826846D01*
X180148416Y-71826846D01*
X180162346Y-71824866D01*
X180175172Y-71819085D01*
X180185880Y-71809958D01*
X180193622Y-71798210D01*
X180197784Y-71784770D01*
X180198416Y-71776846D01*
X180198416Y-71754846D01*
X180196436Y-71740916D01*
X180190655Y-71728090D01*
X180181528Y-71717382D01*
X180169780Y-71709640D01*
X180156340Y-71705478D01*
X180148416Y-71704846D01*
X179278416Y-71704846D01*
X179278416Y-71326846D01*
X180148416Y-71326846D01*
X180162346Y-71324866D01*
X180175172Y-71319085D01*
X180185880Y-71309958D01*
X180193622Y-71298210D01*
X180197784Y-71284770D01*
X180198416Y-71276846D01*
X180198416Y-71254846D01*
X180196436Y-71240916D01*
X180190655Y-71228090D01*
X180181528Y-71217382D01*
X180169780Y-71209640D01*
X180156340Y-71205478D01*
X180148416Y-71204846D01*
X179278416Y-71204846D01*
X179278416Y-70826846D01*
X180148416Y-70826846D01*
X180162346Y-70824866D01*
X180175172Y-70819085D01*
X180185880Y-70809958D01*
X180193622Y-70798210D01*
X180197784Y-70784770D01*
X180198416Y-70776846D01*
X180198416Y-70754846D01*
X180196436Y-70740916D01*
X180190655Y-70728090D01*
X180181528Y-70717382D01*
X180169780Y-70709640D01*
X180156340Y-70705478D01*
X180148416Y-70704846D01*
X179278416Y-70704846D01*
X179278416Y-70326846D01*
X180148416Y-70326846D01*
X180162346Y-70324866D01*
X180175172Y-70319085D01*
X180185880Y-70309958D01*
X180193622Y-70298210D01*
X180197784Y-70284770D01*
X180198416Y-70276846D01*
X180198416Y-70011846D01*
X181986416Y-70011846D01*
X181986416Y-70276846D01*
X181986416Y-70276846D01*
G37*
G36*
X160564000Y-72514000D02*
X159936000Y-72514000D01*
X159936000Y-71486000D01*
X160564000Y-71486000D01*
X160564000Y-72514000D01*
X160564000Y-72514000D01*
G37*
G36*
X159064000Y-72514000D02*
X158436000Y-72514000D01*
X158436000Y-71486000D01*
X159064000Y-71486000D01*
X159064000Y-72514000D01*
X159064000Y-72514000D01*
G37*
G36*
X199833779Y-72425867D02*
X199105779Y-72425867D01*
X199105779Y-71797867D01*
X199833779Y-71797867D01*
X199833779Y-72425867D01*
X199833779Y-72425867D01*
G37*
G36*
X196033779Y-72425867D02*
X195305779Y-72425867D01*
X195305779Y-71797867D01*
X196033779Y-71797867D01*
X196033779Y-72425867D01*
X196033779Y-72425867D01*
G37*
G36*
X197133779Y-72425867D02*
X196405779Y-72425867D01*
X196405779Y-71797867D01*
X197133779Y-71797867D01*
X197133779Y-72425867D01*
X197133779Y-72425867D01*
G37*
G36*
X200933779Y-72425867D02*
X200205779Y-72425867D01*
X200205779Y-71797867D01*
X200933779Y-71797867D01*
X200933779Y-72425867D01*
X200933779Y-72425867D01*
G37*
G36*
X147708730Y-72264000D02*
X147080730Y-72264000D01*
X147080730Y-71236000D01*
X147708730Y-71236000D01*
X147708730Y-72264000D01*
X147708730Y-72264000D01*
G37*
G36*
X146208730Y-72264000D02*
X145580730Y-72264000D01*
X145580730Y-71236000D01*
X146208730Y-71236000D01*
X146208730Y-72264000D01*
X146208730Y-72264000D01*
G37*
G36*
X128939000Y-72214000D02*
X128061000Y-72214000D01*
X128061000Y-71286000D01*
X128939000Y-71286000D01*
X128939000Y-72214000D01*
X128939000Y-72214000D01*
G37*
G36*
X152338730Y-72151828D02*
X151150730Y-72151828D01*
X151150730Y-71373828D01*
X152338730Y-71373828D01*
X152338730Y-72151828D01*
X152338730Y-72151828D01*
G37*
G36*
X172314000Y-72064000D02*
X170686000Y-72064000D01*
X170686000Y-70436000D01*
X172314000Y-70436000D01*
X172314000Y-72064000D01*
X172314000Y-72064000D01*
G37*
G36*
X176946416Y-71994846D02*
X176068416Y-71994846D01*
X176068416Y-71066846D01*
X176946416Y-71066846D01*
X176946416Y-71994846D01*
X176946416Y-71994846D01*
G37*
G36*
X178441416Y-71894846D02*
X177813416Y-71894846D01*
X177813416Y-71166846D01*
X178441416Y-71166846D01*
X178441416Y-71894846D01*
X178441416Y-71894846D01*
G37*
G36*
X126814000Y-71839000D02*
X124786000Y-71839000D01*
X124786000Y-70761000D01*
X126814000Y-70761000D01*
X126814000Y-71839000D01*
X126814000Y-71839000D01*
G37*
G36*
X188041416Y-71514846D02*
X187613416Y-71514846D01*
X187613416Y-70586846D01*
X188041416Y-70586846D01*
X188041416Y-71514846D01*
X188041416Y-71514846D01*
G37*
G36*
X188691416Y-71514846D02*
X188263416Y-71514846D01*
X188263416Y-70586846D01*
X188691416Y-70586846D01*
X188691416Y-71514846D01*
X188691416Y-71514846D01*
G37*
G36*
X189341416Y-71514846D02*
X188913416Y-71514846D01*
X188913416Y-70586846D01*
X189341416Y-70586846D01*
X189341416Y-71514846D01*
X189341416Y-71514846D01*
G37*
G36*
X184471416Y-71444846D02*
X183743416Y-71444846D01*
X183743416Y-70816846D01*
X184471416Y-70816846D01*
X184471416Y-71444846D01*
X184471416Y-71444846D01*
G37*
G36*
X185571416Y-71444846D02*
X184843416Y-71444846D01*
X184843416Y-70816846D01*
X185571416Y-70816846D01*
X185571416Y-71444846D01*
X185571416Y-71444846D01*
G37*
G36*
X186841416Y-71414846D02*
X186213416Y-71414846D01*
X186213416Y-70686846D01*
X186841416Y-70686846D01*
X186841416Y-71414846D01*
X186841416Y-71414846D01*
G37*
G36*
X156108730Y-71201828D02*
X155180730Y-71201828D01*
X155180730Y-70323828D01*
X156108730Y-70323828D01*
X156108730Y-71201828D01*
X156108730Y-71201828D01*
G37*
G36*
X154608730Y-71201828D02*
X153680730Y-71201828D01*
X153680730Y-70323828D01*
X154608730Y-70323828D01*
X154608730Y-71201828D01*
X154608730Y-71201828D01*
G37*
G36*
X152338730Y-71201828D02*
X151150730Y-71201828D01*
X151150730Y-70423828D01*
X152338730Y-70423828D01*
X152338730Y-71201828D01*
X152338730Y-71201828D01*
G37*
G36*
X150138730Y-71201828D02*
X148950730Y-71201828D01*
X148950730Y-70423828D01*
X150138730Y-70423828D01*
X150138730Y-71201828D01*
X150138730Y-71201828D01*
G37*
G36*
X200883779Y-71125867D02*
X200255779Y-71125867D01*
X200255779Y-70397867D01*
X200883779Y-70397867D01*
X200883779Y-71125867D01*
X200883779Y-71125867D01*
G37*
G36*
X195983779Y-71125867D02*
X195355779Y-71125867D01*
X195355779Y-70397867D01*
X195983779Y-70397867D01*
X195983779Y-71125867D01*
X195983779Y-71125867D01*
G37*
G36*
X128939000Y-70714000D02*
X128061000Y-70714000D01*
X128061000Y-69786000D01*
X128939000Y-69786000D01*
X128939000Y-70714000D01*
X128939000Y-70714000D01*
G37*
G36*
X160608730Y-70689000D02*
X159680730Y-70689000D01*
X159680730Y-69811000D01*
X160608730Y-69811000D01*
X160608730Y-70689000D01*
X160608730Y-70689000D01*
G37*
G36*
X159108730Y-70689000D02*
X158180730Y-70689000D01*
X158180730Y-69811000D01*
X159108730Y-69811000D01*
X159108730Y-70689000D01*
X159108730Y-70689000D01*
G37*
G36*
X120714000Y-70689000D02*
X118686000Y-70689000D01*
X118686000Y-67311000D01*
X120714000Y-67311000D01*
X120714000Y-70689000D01*
X120714000Y-70689000D01*
G37*
G36*
X140264000Y-70564000D02*
X139236000Y-70564000D01*
X139236000Y-69936000D01*
X140264000Y-69936000D01*
X140264000Y-70564000D01*
X140264000Y-70564000D01*
G37*
G36*
X135514000Y-70564000D02*
X134486000Y-70564000D01*
X134486000Y-69936000D01*
X135514000Y-69936000D01*
X135514000Y-70564000D01*
X135514000Y-70564000D01*
G37*
G36*
X137764000Y-70564000D02*
X136736000Y-70564000D01*
X136736000Y-69936000D01*
X137764000Y-69936000D01*
X137764000Y-70564000D01*
X137764000Y-70564000D01*
G37*
G36*
X167108730Y-70451828D02*
X166180730Y-70451828D01*
X166180730Y-69573828D01*
X167108730Y-69573828D01*
X167108730Y-70451828D01*
X167108730Y-70451828D01*
G37*
G36*
X168608730Y-70451828D02*
X167680730Y-70451828D01*
X167680730Y-69573828D01*
X168608730Y-69573828D01*
X168608730Y-70451828D01*
X168608730Y-70451828D01*
G37*
G36*
X146358730Y-70439000D02*
X145430730Y-70439000D01*
X145430730Y-69561000D01*
X146358730Y-69561000D01*
X146358730Y-70439000D01*
X146358730Y-70439000D01*
G37*
G36*
X147858730Y-70439000D02*
X146930730Y-70439000D01*
X146930730Y-69561000D01*
X147858730Y-69561000D01*
X147858730Y-70439000D01*
X147858730Y-70439000D01*
G37*
G36*
X197583779Y-70350867D02*
X197005779Y-70350867D01*
X197005779Y-69972867D01*
X197583779Y-69972867D01*
X197583779Y-70350867D01*
X197583779Y-70350867D01*
G37*
G36*
X199333779Y-70350867D02*
X198755779Y-70350867D01*
X198755779Y-69972867D01*
X199333779Y-69972867D01*
X199333779Y-70350867D01*
X199333779Y-70350867D01*
G37*
G36*
X186841416Y-70314846D02*
X186213416Y-70314846D01*
X186213416Y-69586846D01*
X186841416Y-69586846D01*
X186841416Y-70314846D01*
X186841416Y-70314846D01*
G37*
G36*
X211844000Y-70239000D02*
X207156000Y-70239000D01*
X207156000Y-69261000D01*
X211844000Y-69261000D01*
X211844000Y-70239000D01*
X211844000Y-70239000D01*
G37*
G36*
X189341416Y-70214846D02*
X188913416Y-70214846D01*
X188913416Y-69286846D01*
X189341416Y-69286846D01*
X189341416Y-70214846D01*
X189341416Y-70214846D01*
G37*
G36*
X188041416Y-70214846D02*
X187613416Y-70214846D01*
X187613416Y-69286846D01*
X188041416Y-69286846D01*
X188041416Y-70214846D01*
X188041416Y-70214846D01*
G37*
G36*
X188691416Y-70214846D02*
X188263416Y-70214846D01*
X188263416Y-69286846D01*
X188691416Y-69286846D01*
X188691416Y-70214846D01*
X188691416Y-70214846D01*
G37*
G36*
X185571416Y-70184846D02*
X184843416Y-70184846D01*
X184843416Y-69556846D01*
X185571416Y-69556846D01*
X185571416Y-70184846D01*
X185571416Y-70184846D01*
G37*
G36*
X184471416Y-70184846D02*
X183743416Y-70184846D01*
X183743416Y-69556846D01*
X184471416Y-69556846D01*
X184471416Y-70184846D01*
X184471416Y-70184846D01*
G37*
G36*
X198569879Y-70061967D02*
X197769679Y-70061967D01*
X197769679Y-69761767D01*
X198569879Y-69761767D01*
X198569879Y-70061967D01*
X198569879Y-70061967D01*
G37*
G36*
X200883779Y-70025867D02*
X200255779Y-70025867D01*
X200255779Y-69297867D01*
X200883779Y-69297867D01*
X200883779Y-70025867D01*
X200883779Y-70025867D01*
G37*
G36*
X195983779Y-70025867D02*
X195355779Y-70025867D01*
X195355779Y-69297867D01*
X195983779Y-69297867D01*
X195983779Y-70025867D01*
X195983779Y-70025867D01*
G37*
G36*
X205164000Y-69975867D02*
X204436000Y-69975867D01*
X204436000Y-69347867D01*
X205164000Y-69347867D01*
X205164000Y-69975867D01*
X205164000Y-69975867D01*
G37*
G36*
X204064000Y-69975867D02*
X203336000Y-69975867D01*
X203336000Y-69347867D01*
X204064000Y-69347867D01*
X204064000Y-69975867D01*
X204064000Y-69975867D01*
G37*
G36*
X194433779Y-69975867D02*
X193705779Y-69975867D01*
X193705779Y-69347867D01*
X194433779Y-69347867D01*
X194433779Y-69975867D01*
X194433779Y-69975867D01*
G37*
G36*
X193333779Y-69975867D02*
X192605779Y-69975867D01*
X192605779Y-69347867D01*
X193333779Y-69347867D01*
X193333779Y-69975867D01*
X193333779Y-69975867D01*
G37*
G36*
X178614000Y-69964000D02*
X177886000Y-69964000D01*
X177886000Y-69436000D01*
X178614000Y-69436000D01*
X178614000Y-69964000D01*
X178614000Y-69964000D01*
G37*
G36*
X176864000Y-69964000D02*
X176136000Y-69964000D01*
X176136000Y-69436000D01*
X176864000Y-69436000D01*
X176864000Y-69964000D01*
X176864000Y-69964000D01*
G37*
G36*
X199333779Y-69850867D02*
X198755779Y-69850867D01*
X198755779Y-69472867D01*
X199333779Y-69472867D01*
X199333779Y-69850867D01*
X199333779Y-69850867D01*
G37*
G36*
X197583779Y-69850867D02*
X197005779Y-69850867D01*
X197005779Y-69472867D01*
X197583779Y-69472867D01*
X197583779Y-69850867D01*
X197583779Y-69850867D01*
G37*
G36*
X198569879Y-69561967D02*
X197769679Y-69561967D01*
X197769679Y-69261767D01*
X198569879Y-69261767D01*
X198569879Y-69561967D01*
X198569879Y-69561967D01*
G37*
G36*
X126814000Y-69539000D02*
X124786000Y-69539000D01*
X124786000Y-68461000D01*
X126814000Y-68461000D01*
X126814000Y-69539000D01*
X126814000Y-69539000D01*
G37*
G36*
X197583779Y-69350867D02*
X197005779Y-69350867D01*
X197005779Y-68972867D01*
X197583779Y-68972867D01*
X197583779Y-69350867D01*
X197583779Y-69350867D01*
G37*
G36*
X199333779Y-69350867D02*
X198755779Y-69350867D01*
X198755779Y-68972867D01*
X199333779Y-68972867D01*
X199333779Y-69350867D01*
X199333779Y-69350867D01*
G37*
G36*
X137764000Y-69064000D02*
X136736000Y-69064000D01*
X136736000Y-68436000D01*
X137764000Y-68436000D01*
X137764000Y-69064000D01*
X137764000Y-69064000D01*
G37*
G36*
X178614000Y-69064000D02*
X177886000Y-69064000D01*
X177886000Y-68536000D01*
X178614000Y-68536000D01*
X178614000Y-69064000D01*
X178614000Y-69064000D01*
G37*
G36*
X140264000Y-69064000D02*
X139236000Y-69064000D01*
X139236000Y-68436000D01*
X140264000Y-68436000D01*
X140264000Y-69064000D01*
X140264000Y-69064000D01*
G37*
G36*
X135514000Y-69064000D02*
X134486000Y-69064000D01*
X134486000Y-68436000D01*
X135514000Y-68436000D01*
X135514000Y-69064000D01*
X135514000Y-69064000D01*
G37*
G36*
X176864000Y-69064000D02*
X176136000Y-69064000D01*
X176136000Y-68536000D01*
X176864000Y-68536000D01*
X176864000Y-69064000D01*
X176864000Y-69064000D01*
G37*
G36*
X198569879Y-69061967D02*
X197769679Y-69061967D01*
X197769679Y-68761767D01*
X198569879Y-68761767D01*
X198569879Y-69061967D01*
X198569879Y-69061967D01*
G37*
G36*
X128939000Y-68964000D02*
X128061000Y-68964000D01*
X128061000Y-68036000D01*
X128939000Y-68036000D01*
X128939000Y-68964000D01*
X128939000Y-68964000D01*
G37*
G36*
X199333779Y-68850867D02*
X198755779Y-68850867D01*
X198755779Y-68472867D01*
X199333779Y-68472867D01*
X199333779Y-68850867D01*
X199333779Y-68850867D01*
G37*
G36*
X197583779Y-68850867D02*
X197005779Y-68850867D01*
X197005779Y-68472867D01*
X197583779Y-68472867D01*
X197583779Y-68850867D01*
X197583779Y-68850867D01*
G37*
G36*
X154458730Y-68776828D02*
X153830730Y-68776828D01*
X153830730Y-67748828D01*
X154458730Y-67748828D01*
X154458730Y-68776828D01*
X154458730Y-68776828D01*
G37*
G36*
X155958730Y-68776828D02*
X155330730Y-68776828D01*
X155330730Y-67748828D01*
X155958730Y-67748828D01*
X155958730Y-68776828D01*
X155958730Y-68776828D01*
G37*
G36*
X151958730Y-68776828D02*
X151330730Y-68776828D01*
X151330730Y-67748828D01*
X151958730Y-67748828D01*
X151958730Y-68776828D01*
X151958730Y-68776828D01*
G37*
G36*
X150458730Y-68776828D02*
X149830730Y-68776828D01*
X149830730Y-67748828D01*
X150458730Y-67748828D01*
X150458730Y-68776828D01*
X150458730Y-68776828D01*
G37*
G36*
X147708730Y-68764000D02*
X147080730Y-68764000D01*
X147080730Y-67736000D01*
X147708730Y-67736000D01*
X147708730Y-68764000D01*
X147708730Y-68764000D01*
G37*
G36*
X146208730Y-68764000D02*
X145580730Y-68764000D01*
X145580730Y-67736000D01*
X146208730Y-67736000D01*
X146208730Y-68764000D01*
X146208730Y-68764000D01*
G37*
G36*
X187814000Y-68564000D02*
X187286000Y-68564000D01*
X187286000Y-67836000D01*
X187814000Y-67836000D01*
X187814000Y-68564000D01*
X187814000Y-68564000D01*
G37*
G36*
X188714000Y-68564000D02*
X188186000Y-68564000D01*
X188186000Y-67836000D01*
X188714000Y-67836000D01*
X188714000Y-68564000D01*
X188714000Y-68564000D01*
G37*
G36*
X163208730Y-68526828D02*
X162580730Y-68526828D01*
X162580730Y-67498828D01*
X163208730Y-67498828D01*
X163208730Y-68526828D01*
X163208730Y-68526828D01*
G37*
G36*
X164708730Y-68526828D02*
X164080730Y-68526828D01*
X164080730Y-67498828D01*
X164708730Y-67498828D01*
X164708730Y-68526828D01*
X164708730Y-68526828D01*
G37*
G36*
X135464000Y-67764000D02*
X134536000Y-67764000D01*
X134536000Y-66836000D01*
X135464000Y-66836000D01*
X135464000Y-67764000D01*
X135464000Y-67764000D01*
G37*
G36*
X140214000Y-67764000D02*
X139286000Y-67764000D01*
X139286000Y-66836000D01*
X140214000Y-66836000D01*
X140214000Y-67764000D01*
X140214000Y-67764000D01*
G37*
G36*
X137714000Y-67764000D02*
X136786000Y-67764000D01*
X136786000Y-66836000D01*
X137714000Y-66836000D01*
X137714000Y-67764000D01*
X137714000Y-67764000D01*
G37*
G36*
X128939000Y-67464000D02*
X128061000Y-67464000D01*
X128061000Y-66536000D01*
X128939000Y-66536000D01*
X128939000Y-67464000D01*
X128939000Y-67464000D01*
G37*
G36*
X126814000Y-67239000D02*
X124786000Y-67239000D01*
X124786000Y-66161000D01*
X126814000Y-66161000D01*
X126814000Y-67239000D01*
X126814000Y-67239000D01*
G37*
G36*
X211844000Y-66564000D02*
X207156000Y-66564000D01*
X207156000Y-64436000D01*
X211844000Y-64436000D01*
X211844000Y-66564000D01*
X211844000Y-66564000D01*
G37*
G36*
X135464000Y-66164000D02*
X134536000Y-66164000D01*
X134536000Y-65236000D01*
X135464000Y-65236000D01*
X135464000Y-66164000D01*
X135464000Y-66164000D01*
G37*
G36*
X137714000Y-66164000D02*
X136786000Y-66164000D01*
X136786000Y-65236000D01*
X137714000Y-65236000D01*
X137714000Y-66164000D01*
X137714000Y-66164000D01*
G37*
G36*
X140214000Y-66164000D02*
X139286000Y-66164000D01*
X139286000Y-65236000D01*
X140214000Y-65236000D01*
X140214000Y-66164000D01*
X140214000Y-66164000D01*
G37*
M02*
