G04 #@! TF.FileFunction,Copper,L1,Top,Signal*
%FSLAX46Y46*%
G04 Gerber Fmt 4.6, Leading zero omitted, Abs format (unit mm)*
G04 Created by KiCad (PCBNEW 4.0.5-e0-6337~49~ubuntu14.04.1) date Tue Feb 21 17:31:46 2017*
%MOMM*%
%LPD*%
G01*
G04 APERTURE LIST*
%ADD10C,0.100000*%
%ADD11R,0.800000X1.200000*%
%ADD12R,0.450000X0.250000*%
%ADD13R,0.800000X0.300000*%
%ADD14R,0.600000X0.500000*%
%ADD15R,0.500000X0.900000*%
%ADD16R,0.500000X0.400000*%
%ADD17R,0.330000X0.410000*%
%ADD18R,0.700000X0.250000*%
%ADD19R,0.830000X1.190000*%
%ADD20R,0.300000X0.800000*%
%ADD21R,1.450000X0.450000*%
%ADD22R,1.060000X0.650000*%
%ADD23R,0.250000X0.700000*%
%ADD24R,1.287500X1.287500*%
%ADD25R,1.900000X3.250000*%
%ADD26R,1.900000X0.950000*%
%ADD27R,1.500000X1.500000*%
%ADD28R,1.090000X1.500000*%
%ADD29R,0.900000X0.500000*%
%ADD30R,0.600000X0.400000*%
%ADD31R,0.400000X0.600000*%
%ADD32R,4.560000X0.850000*%
%ADD33R,4.560000X2.000000*%
%ADD34R,1.700000X1.700000*%
%ADD35O,1.700000X1.700000*%
%ADD36R,1.650000X0.400000*%
%ADD37O,1.500000X1.100000*%
%ADD38O,1.700000X1.200000*%
%ADD39R,2.500000X1.430000*%
%ADD40R,0.500000X0.600000*%
%ADD41R,1.250000X1.000000*%
%ADD42R,0.800000X0.800000*%
%ADD43R,0.800000X0.750000*%
%ADD44R,0.750000X0.800000*%
%ADD45C,0.600000*%
%ADD46C,0.460000*%
%ADD47C,0.380000*%
%ADD48C,0.240000*%
%ADD49C,0.480000*%
%ADD50C,0.360000*%
%ADD51C,0.300000*%
%ADD52C,0.150000*%
%ADD53C,0.254000*%
%ADD54C,0.800000*%
G04 APERTURE END LIST*
D10*
D11*
X189360000Y-86310000D03*
D12*
X188485000Y-85560000D03*
X188485000Y-86060000D03*
X188485000Y-86560000D03*
X188485000Y-87060000D03*
X190235000Y-87060000D03*
X190235000Y-86560000D03*
X190235000Y-86060000D03*
X190235000Y-85560000D03*
D13*
X189360000Y-86060000D03*
X189360000Y-86560000D03*
D11*
X198169779Y-69411867D03*
D12*
X199044779Y-70161867D03*
X199044779Y-69661867D03*
X199044779Y-69161867D03*
X199044779Y-68661867D03*
X197294779Y-68661867D03*
X197294779Y-69161867D03*
X197294779Y-69661867D03*
X197294779Y-70161867D03*
D13*
X198169779Y-69661867D03*
X198169779Y-69161867D03*
D14*
X205050000Y-85750000D03*
X203950000Y-85750000D03*
D15*
X176500000Y-89100000D03*
X175000000Y-89100000D03*
X131750000Y-84500000D03*
X133250000Y-84500000D03*
X136250000Y-84500000D03*
X134750000Y-84500000D03*
D16*
X200200000Y-83375000D03*
X200200000Y-84025000D03*
X199200000Y-83375000D03*
X199200000Y-84025000D03*
D17*
X197570000Y-86070000D03*
X197570000Y-85410000D03*
X197570000Y-86730000D03*
X196570000Y-86070000D03*
X196570000Y-85410000D03*
X196570000Y-86730000D03*
D18*
X182492416Y-72015846D03*
X182492416Y-71515846D03*
X182492416Y-71015846D03*
X182492416Y-70515846D03*
X179692416Y-70515846D03*
X179692416Y-71015846D03*
X179692416Y-71515846D03*
X179692416Y-72015846D03*
D19*
X180677416Y-70670846D03*
X180677416Y-71860846D03*
X181507416Y-70670846D03*
X181507416Y-71860846D03*
D20*
X189127416Y-69750846D03*
X188477416Y-69750846D03*
X187827416Y-69750846D03*
X187827416Y-71050846D03*
X188477416Y-71050846D03*
X189127416Y-71050846D03*
D21*
X176500000Y-85400000D03*
X176500000Y-86050000D03*
X176500000Y-86700000D03*
X176500000Y-87350000D03*
X180900000Y-87350000D03*
X180900000Y-86700000D03*
X180900000Y-86050000D03*
X180900000Y-85400000D03*
D22*
X168900000Y-80300000D03*
X168900000Y-81250000D03*
X168900000Y-82200000D03*
X171100000Y-82200000D03*
X171100000Y-80300000D03*
X151744730Y-72712828D03*
X151744730Y-71762828D03*
X151744730Y-70812828D03*
X149544730Y-70812828D03*
X149544730Y-72712828D03*
X157650000Y-80550000D03*
X157650000Y-81500000D03*
X157650000Y-82450000D03*
X159850000Y-82450000D03*
X159850000Y-80550000D03*
D18*
X164794730Y-72762828D03*
X164794730Y-72262828D03*
X164794730Y-71762828D03*
X164794730Y-71262828D03*
X161994730Y-71262828D03*
X161994730Y-71762828D03*
X161994730Y-72262828D03*
X161994730Y-72762828D03*
D19*
X162979730Y-71417828D03*
X162979730Y-72607828D03*
X163809730Y-71417828D03*
X163809730Y-72607828D03*
D18*
X138293750Y-80106250D03*
X138293750Y-79606250D03*
X138293750Y-79106250D03*
X138293750Y-78606250D03*
X138293750Y-78106250D03*
X138293750Y-77606250D03*
X138293750Y-77106250D03*
X138293750Y-76606250D03*
X138293750Y-76106250D03*
X138293750Y-75606250D03*
X138293750Y-75106250D03*
X138293750Y-74606250D03*
D23*
X137643750Y-73956250D03*
X137143750Y-73956250D03*
X136643750Y-73956250D03*
X136143750Y-73956250D03*
X135643750Y-73956250D03*
X135143750Y-73956250D03*
X134643750Y-73956250D03*
X134143750Y-73956250D03*
X133643750Y-73956250D03*
X133143750Y-73956250D03*
X132643750Y-73956250D03*
X132143750Y-73956250D03*
D18*
X131493750Y-74606250D03*
X131493750Y-75106250D03*
X131493750Y-75606250D03*
X131493750Y-76106250D03*
X131493750Y-76606250D03*
X131493750Y-77106250D03*
X131493750Y-77606250D03*
X131493750Y-78106250D03*
X131493750Y-78606250D03*
X131493750Y-79106250D03*
X131493750Y-79606250D03*
X131493750Y-80106250D03*
D23*
X132143750Y-80756250D03*
X132643750Y-80756250D03*
X133143750Y-80756250D03*
X133643750Y-80756250D03*
X134143750Y-80756250D03*
X134643750Y-80756250D03*
X135143750Y-80756250D03*
X135643750Y-80756250D03*
X136143750Y-80756250D03*
X136643750Y-80756250D03*
X137143750Y-80756250D03*
X137643750Y-80756250D03*
D24*
X132962500Y-75425000D03*
X132962500Y-76712500D03*
X132962500Y-78000000D03*
X132962500Y-79287500D03*
X134250000Y-75425000D03*
X134250000Y-76712500D03*
X134250000Y-78000000D03*
X134250000Y-79287500D03*
X135537500Y-75425000D03*
X135537500Y-76712500D03*
X135537500Y-78000000D03*
X135537500Y-79287500D03*
X136825000Y-75425000D03*
X136825000Y-76712500D03*
X136825000Y-78000000D03*
X136825000Y-79287500D03*
D25*
X119700000Y-69000000D03*
D26*
X125800000Y-71300000D03*
X125800000Y-69000000D03*
X125800000Y-66700000D03*
D27*
X171500000Y-71250000D03*
D28*
X170345000Y-74250000D03*
X172655000Y-74250000D03*
D29*
X199160000Y-86830000D03*
X199160000Y-85330000D03*
D30*
X178250000Y-69700000D03*
X178250000Y-68800000D03*
X176500000Y-68800000D03*
X176500000Y-69700000D03*
D31*
X190910000Y-82210000D03*
X191810000Y-82210000D03*
X189810000Y-82210000D03*
X188910000Y-82210000D03*
X187810000Y-82210000D03*
X186910000Y-82210000D03*
X187550000Y-68200000D03*
X188450000Y-68200000D03*
X196569779Y-73511867D03*
X195669779Y-73511867D03*
X197669779Y-73511867D03*
X198569779Y-73511867D03*
X199669779Y-73511867D03*
X200569779Y-73511867D03*
D15*
X145894730Y-68250000D03*
X147394730Y-68250000D03*
X147394730Y-71750000D03*
X145894730Y-71750000D03*
X147394730Y-75250000D03*
X145894730Y-75250000D03*
X169500000Y-86000000D03*
X168000000Y-86000000D03*
X150144730Y-68262828D03*
X151644730Y-68262828D03*
X166500000Y-86000000D03*
X165000000Y-86000000D03*
X166750000Y-80250000D03*
X165250000Y-80250000D03*
X154144730Y-68262828D03*
X155644730Y-68262828D03*
X154144730Y-72762828D03*
X155644730Y-72762828D03*
X163750000Y-80250000D03*
X162250000Y-80250000D03*
X158750000Y-72000000D03*
X160250000Y-72000000D03*
X164750000Y-75000000D03*
X163250000Y-75000000D03*
X162894730Y-68012828D03*
X164394730Y-68012828D03*
X168144730Y-72012828D03*
X166644730Y-72012828D03*
D29*
X152250000Y-84250000D03*
X152250000Y-85750000D03*
X152250000Y-81250000D03*
X152250000Y-82750000D03*
X139750000Y-70250000D03*
X139750000Y-68750000D03*
X137250000Y-70250000D03*
X137250000Y-68750000D03*
X135000000Y-70250000D03*
X135000000Y-68750000D03*
X126750000Y-81250000D03*
X126750000Y-79750000D03*
D32*
X209500000Y-85750000D03*
D33*
X209500000Y-90000000D03*
X209500000Y-81500000D03*
D32*
X209500000Y-69750000D03*
D33*
X209500000Y-74000000D03*
X209500000Y-65500000D03*
D34*
X120460000Y-89000000D03*
D35*
X123000000Y-89000000D03*
X125540000Y-89000000D03*
X128080000Y-89000000D03*
D34*
X134920000Y-89000000D03*
D35*
X137460000Y-89000000D03*
X140000000Y-89000000D03*
X142540000Y-89000000D03*
D36*
X122750000Y-76700000D03*
X122750000Y-77350000D03*
X122750000Y-78000000D03*
X122750000Y-78650000D03*
X122750000Y-79300000D03*
D37*
X122870000Y-75580000D03*
X122870000Y-80420000D03*
D38*
X119870000Y-75270000D03*
X119870000Y-80730000D03*
D39*
X119630000Y-77040000D03*
X119630000Y-78960000D03*
D40*
X191810000Y-84960000D03*
X191810000Y-86060000D03*
D14*
X185207416Y-71130846D03*
X184107416Y-71130846D03*
X185207416Y-69870846D03*
X184107416Y-69870846D03*
D40*
X186910000Y-84960000D03*
X186910000Y-86060000D03*
D14*
X186717416Y-73060846D03*
X185617416Y-73060846D03*
D40*
X195669779Y-70761867D03*
X195669779Y-69661867D03*
X200569779Y-70761867D03*
X200569779Y-69661867D03*
D41*
X148000000Y-84250000D03*
X148000000Y-82250000D03*
X126500000Y-76500000D03*
X126500000Y-74500000D03*
X142500000Y-80250000D03*
X142500000Y-78250000D03*
D42*
X139750000Y-67300000D03*
X139750000Y-65700000D03*
X137250000Y-67300000D03*
X137250000Y-65700000D03*
X135000000Y-67300000D03*
X135000000Y-65700000D03*
D14*
X194710000Y-86060000D03*
X193610000Y-86060000D03*
X190710000Y-83660000D03*
X191810000Y-83660000D03*
D43*
X191350000Y-80550000D03*
X189850000Y-80550000D03*
X187810000Y-80510000D03*
X186310000Y-80510000D03*
D40*
X184087416Y-74160846D03*
X184087416Y-73060846D03*
X186527416Y-69950846D03*
X186527416Y-71050846D03*
D14*
X185360000Y-86060000D03*
X184260000Y-86060000D03*
X179697416Y-73850846D03*
X180797416Y-73850846D03*
X186910000Y-83660000D03*
X188010000Y-83660000D03*
D40*
X188027416Y-73050000D03*
X188027416Y-74150000D03*
D14*
X192969779Y-69661867D03*
X194069779Y-69661867D03*
X196769779Y-72111867D03*
X195669779Y-72111867D03*
D43*
X198069779Y-75211867D03*
X196569779Y-75211867D03*
D14*
X189627416Y-73070846D03*
X190727416Y-73070846D03*
D44*
X176507416Y-71530846D03*
X176507416Y-73030846D03*
D43*
X199669779Y-75211867D03*
X201169779Y-75211867D03*
D40*
X178127416Y-71530846D03*
X178127416Y-72630846D03*
D43*
X181250000Y-83500000D03*
X179750000Y-83500000D03*
D14*
X203700000Y-69661867D03*
X204800000Y-69661867D03*
X200569779Y-72111867D03*
X199469779Y-72111867D03*
D40*
X182620000Y-87200000D03*
X182620000Y-88300000D03*
D44*
X174570000Y-85300000D03*
X174570000Y-86800000D03*
D14*
X180900000Y-88910000D03*
X179800000Y-88910000D03*
D43*
X145894730Y-73500000D03*
X147394730Y-73500000D03*
X145894730Y-70000000D03*
X147394730Y-70000000D03*
X169500000Y-84000000D03*
X168000000Y-84000000D03*
X154144730Y-70762828D03*
X155644730Y-70762828D03*
X165250000Y-82000000D03*
X166750000Y-82000000D03*
X150144730Y-75012828D03*
X151644730Y-75012828D03*
X166644730Y-74262828D03*
X168144730Y-74262828D03*
X168144730Y-70012828D03*
X166644730Y-70012828D03*
X158644730Y-70250000D03*
X160144730Y-70250000D03*
X160144730Y-73750000D03*
X158644730Y-73750000D03*
D44*
X150250000Y-81000000D03*
X150250000Y-82500000D03*
X154250000Y-84500000D03*
X154250000Y-86000000D03*
X154250000Y-81000000D03*
X154250000Y-82500000D03*
X150250000Y-84250000D03*
X150250000Y-85750000D03*
X140500000Y-79500000D03*
X140500000Y-78000000D03*
X140500000Y-76500000D03*
X140500000Y-75000000D03*
X128500000Y-74500000D03*
X128500000Y-76000000D03*
X128500000Y-70250000D03*
X128500000Y-71750000D03*
X142500000Y-76500000D03*
X142500000Y-75000000D03*
D43*
X138500000Y-82500000D03*
X137000000Y-82500000D03*
D44*
X129750000Y-81500000D03*
X129750000Y-80000000D03*
D43*
X131000000Y-72250000D03*
X132500000Y-72250000D03*
D44*
X128500000Y-67000000D03*
X128500000Y-68500000D03*
D45*
X147000000Y-84250000D03*
X176500000Y-68200000D03*
X127400000Y-66700000D03*
X126500000Y-73600000D03*
X128500000Y-73700000D03*
D46*
X195850000Y-75200000D03*
X196569779Y-74300000D03*
X190900000Y-81600000D03*
X189100000Y-80550000D03*
X189850000Y-79800000D03*
X183400000Y-71750000D03*
X175750000Y-71550000D03*
X177350000Y-71530846D03*
X178850000Y-71515846D03*
D45*
X178250000Y-68200000D03*
D46*
X125250000Y-79750000D03*
X192750000Y-72250000D03*
X192500000Y-71000000D03*
X190500000Y-71000000D03*
X194250000Y-71250000D03*
X194000000Y-73750000D03*
X179500000Y-75250000D03*
X175750000Y-75500000D03*
X174500000Y-77000000D03*
X173250000Y-78250000D03*
X173250000Y-80000000D03*
X173250000Y-81500000D03*
X173750000Y-83500000D03*
X176250000Y-84000000D03*
X178000000Y-84250000D03*
X181500000Y-82000000D03*
X183250000Y-82250000D03*
X183750000Y-84500000D03*
X185500000Y-84500000D03*
X185500000Y-82000000D03*
X188500000Y-79000000D03*
X193250000Y-82500000D03*
X193250000Y-84500000D03*
X197750000Y-84000000D03*
X191000000Y-74500000D03*
X192000000Y-75500000D03*
X193250000Y-76750000D03*
X194750000Y-78250000D03*
X196000000Y-79750000D03*
X197250000Y-81000000D03*
X197750000Y-82250000D03*
X206750000Y-88750000D03*
X207750000Y-88500000D03*
X209250000Y-88500000D03*
X210750000Y-88500000D03*
X209250000Y-67000000D03*
X210750000Y-83000000D03*
X209500000Y-83000000D03*
X208250000Y-83000000D03*
X206750000Y-83000000D03*
X206750000Y-81750000D03*
X206750000Y-81000000D03*
X206750000Y-80000000D03*
X208250000Y-80000000D03*
X209500000Y-80000000D03*
X210750000Y-80000000D03*
X210750000Y-79000000D03*
X210750000Y-77750000D03*
X210750000Y-76500000D03*
X210500000Y-75500000D03*
X209250000Y-75500000D03*
X208250000Y-75500000D03*
X207000000Y-75500000D03*
X206750000Y-74500000D03*
X206750000Y-73500000D03*
X207000000Y-72500000D03*
X208250000Y-72500000D03*
X209250000Y-72500000D03*
X210500000Y-72500000D03*
X205000000Y-87250000D03*
X203000000Y-87250000D03*
X200750000Y-88250000D03*
X198250000Y-88250000D03*
X194000000Y-87500000D03*
X191750000Y-87500000D03*
X189500000Y-88250000D03*
X187000000Y-87750000D03*
X184750000Y-87500000D03*
X184500000Y-90250000D03*
X186750000Y-90250000D03*
X189500000Y-90250000D03*
X191750000Y-90250000D03*
X194000000Y-90250000D03*
X196250000Y-90250000D03*
X198000000Y-90250000D03*
X199750000Y-90250000D03*
X201750000Y-90250000D03*
X203500000Y-90250000D03*
X205250000Y-90250000D03*
X206750000Y-90250000D03*
X210750000Y-87500000D03*
X209250000Y-87500000D03*
X207750000Y-87500000D03*
X210500000Y-84000000D03*
X209250000Y-84000000D03*
X207750000Y-84000000D03*
X206000000Y-84250000D03*
X204250000Y-84250000D03*
X202250000Y-84500000D03*
X200250000Y-80000000D03*
X199000000Y-78750000D03*
X197750000Y-77500000D03*
X199750000Y-76750000D03*
X202000000Y-72500000D03*
X202000000Y-71000000D03*
X203500000Y-71250000D03*
X205000000Y-71250000D03*
X206750000Y-71250000D03*
X208500000Y-71500000D03*
X210500000Y-71500000D03*
X180500000Y-67000000D03*
X180750000Y-69000000D03*
X182750000Y-69000000D03*
X184250000Y-68500000D03*
X186000000Y-68500000D03*
X189250000Y-66750000D03*
X190000000Y-68250000D03*
X191500000Y-68500000D03*
X193500000Y-68250000D03*
X195250000Y-68250000D03*
X196500000Y-67500000D03*
X198250000Y-67500000D03*
X199750000Y-67250000D03*
X201250000Y-68250000D03*
X203000000Y-68250000D03*
X204750000Y-68000000D03*
X208000000Y-67750000D03*
X210500000Y-67750000D03*
X173500000Y-65250000D03*
X176500000Y-65250000D03*
X179500000Y-65250000D03*
X182500000Y-65250000D03*
X185500000Y-65250000D03*
X188500000Y-65250000D03*
X191500000Y-65250000D03*
X194500000Y-65250000D03*
X197500000Y-65250000D03*
X200500000Y-65250000D03*
X203500000Y-65250000D03*
X206500000Y-65250000D03*
X119630000Y-78960000D03*
X119630000Y-77040000D03*
X189375000Y-87200000D03*
X189350000Y-85425000D03*
X189360000Y-86560000D03*
X189360000Y-86060000D03*
X198175000Y-70300000D03*
X198175000Y-68525000D03*
X198169779Y-69661867D03*
X198169779Y-69161867D03*
D45*
X126750000Y-81950000D03*
X128500000Y-69300000D03*
X129300000Y-71750000D03*
X125800000Y-72350000D03*
X128500000Y-76850000D03*
X130600000Y-79700000D03*
X135650000Y-81650000D03*
X137150000Y-81650000D03*
X140500000Y-80300000D03*
X143250000Y-75000000D03*
X141250000Y-75000000D03*
D46*
X139250000Y-76650000D03*
D45*
X132600000Y-73050000D03*
X133350000Y-72250000D03*
X174300000Y-89100000D03*
X150250000Y-86600000D03*
X154250000Y-86800000D03*
X152250000Y-86450000D03*
X151000000Y-82500000D03*
X164300000Y-86000000D03*
X156700000Y-81500000D03*
X168000000Y-81250000D03*
D46*
X173900000Y-86800000D03*
X175350000Y-86700000D03*
X177600000Y-86700000D03*
X180900000Y-84900000D03*
X179850000Y-85350000D03*
X179200000Y-88900000D03*
X183150000Y-88300000D03*
X182650000Y-88850000D03*
X179800000Y-88400000D03*
X179750000Y-82800000D03*
X185550000Y-80500000D03*
X186300000Y-79750000D03*
X191350000Y-79850000D03*
X192200000Y-80550000D03*
D45*
X160150000Y-69500000D03*
X152750000Y-71750000D03*
X148150000Y-68250000D03*
X145050000Y-73500000D03*
X162000000Y-70500000D03*
D46*
X138900000Y-65700000D03*
X136400000Y-65700000D03*
X134150000Y-65700000D03*
X175850000Y-73050000D03*
X176500000Y-73700000D03*
X177150000Y-73050000D03*
X177600000Y-72700000D03*
X178150000Y-73200000D03*
X180677416Y-71860846D03*
X181507416Y-71860846D03*
X181507416Y-70670846D03*
X180677416Y-70670846D03*
X180800000Y-74350000D03*
X180800000Y-73350000D03*
X181350000Y-73850000D03*
X188050000Y-74700000D03*
X188550000Y-74150000D03*
X187500000Y-74150000D03*
X183600000Y-74150000D03*
X184100000Y-74700000D03*
X184600000Y-74150000D03*
X188500000Y-72150000D03*
X188500000Y-71700000D03*
X187550000Y-68750000D03*
X187550000Y-67650000D03*
X187100000Y-68200000D03*
X201200000Y-75850000D03*
X201800000Y-75200000D03*
X201150000Y-74400000D03*
X198100000Y-75850000D03*
X198100000Y-74600000D03*
X199450000Y-72600000D03*
X198900000Y-72100000D03*
X197300000Y-72100000D03*
X196750000Y-72600000D03*
X200200000Y-84500000D03*
X200700000Y-84000000D03*
X200700000Y-83350000D03*
X200200000Y-82950000D03*
X197150000Y-86050000D03*
X196600000Y-87200000D03*
X196600000Y-84950000D03*
X196150000Y-86750000D03*
X196150000Y-85400000D03*
X198000000Y-86050000D03*
X188000000Y-83100000D03*
X188600000Y-83700000D03*
X190700000Y-83100000D03*
X190100000Y-83700000D03*
D45*
X129850000Y-70250000D03*
X131100000Y-84500000D03*
X136900000Y-84500000D03*
X130900000Y-81065000D03*
X138450000Y-81200000D03*
X139200000Y-80100000D03*
X142500000Y-81200000D03*
X131000000Y-71500000D03*
X135000000Y-70900000D03*
D46*
X181500000Y-88900000D03*
X183150000Y-87200000D03*
X179900000Y-87350000D03*
X179900000Y-86700000D03*
D45*
X145150000Y-75250000D03*
X182050000Y-83500000D03*
X154250000Y-80200000D03*
X152250000Y-80550000D03*
X149350000Y-84250000D03*
X149300000Y-81000000D03*
X160800000Y-80550000D03*
X149550000Y-73500000D03*
X160150000Y-74600000D03*
X171100000Y-79550000D03*
X164450000Y-82000000D03*
X152250000Y-83450000D03*
X154250000Y-83450000D03*
X162600000Y-75000000D03*
X162250000Y-68000000D03*
X158650000Y-69450000D03*
X158650000Y-74600000D03*
X150150000Y-75800000D03*
X156350000Y-68250000D03*
X132600000Y-83000000D03*
D46*
X129750000Y-79150000D03*
D45*
X141150000Y-72400000D03*
X137450000Y-71950000D03*
D47*
X206500000Y-67500000D02*
X206500000Y-68250000D01*
D48*
X176500000Y-68800000D02*
X176500000Y-68200000D01*
D49*
X148000000Y-84250000D02*
X147000000Y-84250000D01*
D47*
X126500000Y-74500000D02*
X128500000Y-74500000D01*
X127400000Y-66700000D02*
X128200000Y-66700000D01*
X125800000Y-66700000D02*
X127400000Y-66700000D01*
X128200000Y-66700000D02*
X128500000Y-67000000D01*
D48*
X126500000Y-74500000D02*
X126500000Y-73600000D01*
X128500000Y-74500000D02*
X128500000Y-73700000D01*
D50*
X196569779Y-75211867D02*
X195861867Y-75211867D01*
X195861867Y-75211867D02*
X195850000Y-75200000D01*
D47*
X196569779Y-74300000D02*
X196569779Y-75211867D01*
X196569779Y-73511867D02*
X196569779Y-74300000D01*
D48*
X190910000Y-82210000D02*
X190910000Y-81610000D01*
X190910000Y-81610000D02*
X190900000Y-81600000D01*
X189850000Y-80550000D02*
X189100000Y-80550000D01*
X189850000Y-80550000D02*
X189850000Y-79800000D01*
X182492416Y-71515846D02*
X183165846Y-71515846D01*
X183165846Y-71515846D02*
X183400000Y-71750000D01*
X176507416Y-71530846D02*
X175769154Y-71530846D01*
X175769154Y-71530846D02*
X175750000Y-71550000D01*
D47*
X177350000Y-71530846D02*
X176507416Y-71530846D01*
X178127416Y-71530846D02*
X177350000Y-71530846D01*
D48*
X178850000Y-71515846D02*
X178142416Y-71515846D01*
X179692416Y-71515846D02*
X178850000Y-71515846D01*
X178250000Y-68800000D02*
X178250000Y-68200000D01*
X178142416Y-71515846D02*
X178127416Y-71530846D01*
D47*
X197669779Y-73511867D02*
X196569779Y-73511867D01*
X189810000Y-82210000D02*
X189810000Y-80590000D01*
X189810000Y-80590000D02*
X189850000Y-80550000D01*
X190910000Y-82210000D02*
X189810000Y-82210000D01*
D48*
X122750000Y-79300000D02*
X124800000Y-79300000D01*
X124800000Y-79300000D02*
X125250000Y-79750000D01*
D47*
X193250000Y-71750000D02*
X193250000Y-72000000D01*
X192500000Y-71000000D02*
X193250000Y-71750000D01*
D48*
X189360000Y-86560000D02*
X189360000Y-87185000D01*
X189360000Y-87185000D02*
X189375000Y-87200000D01*
X189360000Y-86060000D02*
X189360000Y-85435000D01*
X189360000Y-85435000D02*
X189350000Y-85425000D01*
X198169779Y-69661867D02*
X198169779Y-70294779D01*
X198169779Y-70294779D02*
X198175000Y-70300000D01*
X198169779Y-69161867D02*
X198169779Y-68530221D01*
X198169779Y-68530221D02*
X198175000Y-68525000D01*
X126750000Y-81250000D02*
X126750000Y-81950000D01*
D47*
X128500000Y-68500000D02*
X128500000Y-69300000D01*
X128500000Y-71750000D02*
X129300000Y-71750000D01*
X127200000Y-71300000D02*
X127650000Y-71750000D01*
X127650000Y-71750000D02*
X128500000Y-71750000D01*
X125800000Y-71300000D02*
X127200000Y-71300000D01*
X125800000Y-71300000D02*
X125800000Y-72350000D01*
D48*
X128500000Y-76000000D02*
X128500000Y-76850000D01*
X129750000Y-80000000D02*
X130300000Y-80000000D01*
X130300000Y-80000000D02*
X130600000Y-79700000D01*
X131493750Y-79606250D02*
X130693750Y-79606250D01*
X130693750Y-79606250D02*
X130600000Y-79700000D01*
X135643750Y-80756250D02*
X135643750Y-81643750D01*
X135643750Y-81643750D02*
X135650000Y-81650000D01*
X137150000Y-81650000D02*
X137150000Y-80762500D01*
X137150000Y-80762500D02*
X137143750Y-80756250D01*
X137000000Y-82500000D02*
X137000000Y-81800000D01*
X137000000Y-81800000D02*
X137150000Y-81650000D01*
X140500000Y-79500000D02*
X140500000Y-80300000D01*
X142500000Y-75000000D02*
X143250000Y-75000000D01*
X140500000Y-75000000D02*
X141250000Y-75000000D01*
X138293750Y-76606250D02*
X139206250Y-76606250D01*
X139206250Y-76606250D02*
X139250000Y-76650000D01*
X132600000Y-73050000D02*
X132600000Y-72350000D01*
X132600000Y-72350000D02*
X132500000Y-72250000D01*
X132643750Y-73956250D02*
X132643750Y-73093750D01*
X132643750Y-73093750D02*
X132600000Y-73050000D01*
X132500000Y-72250000D02*
X133350000Y-72250000D01*
D47*
X175000000Y-89100000D02*
X174300000Y-89100000D01*
D50*
X150250000Y-85750000D02*
X150250000Y-86600000D01*
X154250000Y-86000000D02*
X154250000Y-86800000D01*
X152250000Y-85750000D02*
X152250000Y-86450000D01*
X150250000Y-82500000D02*
X151000000Y-82500000D01*
X165000000Y-86000000D02*
X164300000Y-86000000D01*
X157650000Y-81500000D02*
X156700000Y-81500000D01*
X168900000Y-81250000D02*
X168000000Y-81250000D01*
X174570000Y-86800000D02*
X173900000Y-86800000D01*
X174570000Y-86800000D02*
X175250000Y-86800000D01*
X175250000Y-86800000D02*
X175350000Y-86700000D01*
X176500000Y-86700000D02*
X175350000Y-86700000D01*
X176500000Y-86700000D02*
X177600000Y-86700000D01*
X180900000Y-85400000D02*
X180900000Y-84900000D01*
X180900000Y-85400000D02*
X179900000Y-85400000D01*
X179900000Y-85400000D02*
X179850000Y-85350000D01*
X179800000Y-88910000D02*
X179210000Y-88910000D01*
X179210000Y-88910000D02*
X179200000Y-88900000D01*
X182620000Y-88300000D02*
X183150000Y-88300000D01*
X182620000Y-88300000D02*
X182620000Y-88820000D01*
X182620000Y-88820000D02*
X182650000Y-88850000D01*
X179800000Y-88910000D02*
X179800000Y-88400000D01*
X179750000Y-83500000D02*
X179750000Y-82800000D01*
D48*
X186310000Y-80510000D02*
X185560000Y-80510000D01*
X185560000Y-80510000D02*
X185550000Y-80500000D01*
X186310000Y-80510000D02*
X186310000Y-79760000D01*
X186310000Y-79760000D02*
X186300000Y-79750000D01*
X191350000Y-80550000D02*
X191350000Y-79850000D01*
X191350000Y-80550000D02*
X192200000Y-80550000D01*
X160144730Y-70250000D02*
X160144730Y-69505270D01*
X160144730Y-69505270D02*
X160150000Y-69500000D01*
X151744730Y-71762828D02*
X152737172Y-71762828D01*
X152737172Y-71762828D02*
X152750000Y-71750000D01*
X147394730Y-68250000D02*
X148150000Y-68250000D01*
X145894730Y-73500000D02*
X145050000Y-73500000D01*
X161994730Y-71262828D02*
X161994730Y-70505270D01*
X161994730Y-70505270D02*
X162000000Y-70500000D01*
X139750000Y-65700000D02*
X138900000Y-65700000D01*
X137250000Y-65700000D02*
X136400000Y-65700000D01*
X135000000Y-65700000D02*
X134150000Y-65700000D01*
D50*
X176507416Y-73030846D02*
X175869154Y-73030846D01*
X175869154Y-73030846D02*
X175850000Y-73050000D01*
X176507416Y-73030846D02*
X176507416Y-73692584D01*
X176507416Y-73692584D02*
X176500000Y-73700000D01*
X176507416Y-73030846D02*
X177130846Y-73030846D01*
X177130846Y-73030846D02*
X177150000Y-73050000D01*
X178127416Y-72630846D02*
X177669154Y-72630846D01*
X177669154Y-72630846D02*
X177600000Y-72700000D01*
X178127416Y-72630846D02*
X178127416Y-73177416D01*
X178127416Y-73177416D02*
X178150000Y-73200000D01*
X180797416Y-73850846D02*
X180797416Y-74347416D01*
X180797416Y-74347416D02*
X180800000Y-74350000D01*
X180797416Y-73850846D02*
X180797416Y-73352584D01*
X180797416Y-73352584D02*
X180800000Y-73350000D01*
X180797416Y-73850846D02*
X181349154Y-73850846D01*
X181349154Y-73850846D02*
X181350000Y-73850000D01*
X188027416Y-74150000D02*
X188027416Y-74677416D01*
X188027416Y-74677416D02*
X188050000Y-74700000D01*
X188027416Y-74150000D02*
X188550000Y-74150000D01*
X188027416Y-74150000D02*
X187500000Y-74150000D01*
X184087416Y-74160846D02*
X183610846Y-74160846D01*
X183610846Y-74160846D02*
X183600000Y-74150000D01*
X184087416Y-74160846D02*
X184087416Y-74687416D01*
X184087416Y-74687416D02*
X184100000Y-74700000D01*
X184087416Y-74160846D02*
X184589154Y-74160846D01*
X184589154Y-74160846D02*
X184600000Y-74150000D01*
X188500000Y-71700000D02*
X188500000Y-72150000D01*
X188477416Y-71527416D02*
X188477416Y-71677416D01*
X188477416Y-71677416D02*
X188500000Y-71700000D01*
X187550000Y-68200000D02*
X187550000Y-68750000D01*
X187550000Y-68200000D02*
X187550000Y-67650000D01*
X187550000Y-68200000D02*
X187100000Y-68200000D01*
X201169779Y-75211867D02*
X201169779Y-75819779D01*
X201169779Y-75819779D02*
X201200000Y-75850000D01*
X201169779Y-75211867D02*
X201788133Y-75211867D01*
X201788133Y-75211867D02*
X201800000Y-75200000D01*
X201169779Y-75211867D02*
X201169779Y-74419779D01*
X201169779Y-74419779D02*
X201150000Y-74400000D01*
X198069779Y-75211867D02*
X198069779Y-75819779D01*
X198069779Y-75819779D02*
X198100000Y-75850000D01*
X198069779Y-75211867D02*
X198069779Y-74630221D01*
X198069779Y-74630221D02*
X198100000Y-74600000D01*
X199469779Y-72111867D02*
X199469779Y-72580221D01*
X199469779Y-72580221D02*
X199450000Y-72600000D01*
X199469779Y-72111867D02*
X198911867Y-72111867D01*
X198911867Y-72111867D02*
X198900000Y-72100000D01*
X196769779Y-72111867D02*
X197288133Y-72111867D01*
X197288133Y-72111867D02*
X197300000Y-72100000D01*
X196769779Y-72111867D02*
X196769779Y-72580221D01*
X196769779Y-72580221D02*
X196750000Y-72600000D01*
D51*
X200200000Y-84025000D02*
X200200000Y-84500000D01*
X200200000Y-84025000D02*
X200675000Y-84025000D01*
X200675000Y-84025000D02*
X200700000Y-84000000D01*
X200200000Y-83375000D02*
X200675000Y-83375000D01*
X200675000Y-83375000D02*
X200700000Y-83350000D01*
X200200000Y-83375000D02*
X200200000Y-82950000D01*
X197570000Y-86070000D02*
X197170000Y-86070000D01*
X197170000Y-86070000D02*
X197150000Y-86050000D01*
X196570000Y-86730000D02*
X196570000Y-87170000D01*
X196570000Y-87170000D02*
X196600000Y-87200000D01*
X196570000Y-85410000D02*
X196570000Y-84980000D01*
X196570000Y-84980000D02*
X196600000Y-84950000D01*
X196570000Y-86730000D02*
X196170000Y-86730000D01*
X196170000Y-86730000D02*
X196150000Y-86750000D01*
X196570000Y-85410000D02*
X196160000Y-85410000D01*
X196160000Y-85410000D02*
X196150000Y-85400000D01*
X197570000Y-86070000D02*
X197980000Y-86070000D01*
X197980000Y-86070000D02*
X198000000Y-86050000D01*
X188477416Y-71050846D02*
X188477416Y-71527416D01*
D47*
X188010000Y-83660000D02*
X188010000Y-83110000D01*
X188010000Y-83110000D02*
X188000000Y-83100000D01*
X188010000Y-83660000D02*
X188560000Y-83660000D01*
X188560000Y-83660000D02*
X188600000Y-83700000D01*
X190710000Y-83660000D02*
X190710000Y-83110000D01*
X190710000Y-83110000D02*
X190700000Y-83100000D01*
X190710000Y-83660000D02*
X190140000Y-83660000D01*
X190140000Y-83660000D02*
X190100000Y-83700000D01*
D49*
X119700000Y-69000000D02*
X125800000Y-69000000D01*
D47*
X128500000Y-70250000D02*
X129850000Y-70250000D01*
X126900000Y-69200000D02*
X126000000Y-69200000D01*
X126000000Y-69200000D02*
X125800000Y-69000000D01*
X127950000Y-70250000D02*
X126900000Y-69200000D01*
X128500000Y-70250000D02*
X127950000Y-70250000D01*
D48*
X131750000Y-84500000D02*
X131100000Y-84500000D01*
X136250000Y-84500000D02*
X136900000Y-84500000D01*
X131493750Y-80471250D02*
X130900000Y-81065000D01*
X129750000Y-81500000D02*
X130465000Y-81500000D01*
X130465000Y-81500000D02*
X130900000Y-81065000D01*
X131493750Y-80106250D02*
X131493750Y-80471250D01*
X138450000Y-81200000D02*
X138450000Y-82450000D01*
X138450000Y-82450000D02*
X138500000Y-82500000D01*
X137643750Y-80756250D02*
X138006250Y-80756250D01*
X138006250Y-80756250D02*
X138450000Y-81200000D01*
X138293750Y-80106250D02*
X139193750Y-80106250D01*
X139193750Y-80106250D02*
X139200000Y-80100000D01*
D47*
X142500000Y-80250000D02*
X142500000Y-81200000D01*
D48*
X131000000Y-73250000D02*
X131706250Y-73956250D01*
X131706250Y-73956250D02*
X132143750Y-73956250D01*
X131000000Y-72250000D02*
X131000000Y-73250000D01*
X131000000Y-72250000D02*
X131000000Y-71500000D01*
X135000000Y-70250000D02*
X135000000Y-70900000D01*
D50*
X180900000Y-88910000D02*
X181490000Y-88910000D01*
X181490000Y-88910000D02*
X181500000Y-88900000D01*
X182620000Y-87200000D02*
X183150000Y-87200000D01*
X180900000Y-87350000D02*
X179900000Y-87350000D01*
X180900000Y-86700000D02*
X179900000Y-86700000D01*
X180900000Y-86700000D02*
X182120000Y-86700000D01*
X182120000Y-86700000D02*
X182620000Y-87200000D01*
X180900000Y-87350000D02*
X180900000Y-86700000D01*
X180900000Y-88910000D02*
X180900000Y-87350000D01*
D48*
X145894730Y-75250000D02*
X145150000Y-75250000D01*
D51*
X181250000Y-83500000D02*
X182050000Y-83500000D01*
D48*
X140500000Y-78000000D02*
X139885000Y-78000000D01*
X139885000Y-78000000D02*
X138991250Y-77106250D01*
X138991250Y-77106250D02*
X138883750Y-77106250D01*
X138883750Y-77106250D02*
X138293750Y-77106250D01*
D50*
X154250000Y-81000000D02*
X154250000Y-80200000D01*
X152250000Y-81250000D02*
X152250000Y-80550000D01*
X150250000Y-84250000D02*
X149350000Y-84250000D01*
X149300000Y-81000000D02*
X148300000Y-81000000D01*
X150250000Y-81000000D02*
X149300000Y-81000000D01*
X148300000Y-81000000D02*
X148000000Y-81300000D01*
X148000000Y-82250000D02*
X148000000Y-81300000D01*
X159850000Y-80550000D02*
X160800000Y-80550000D01*
D48*
X149544730Y-72712828D02*
X149544730Y-73494730D01*
X149544730Y-73494730D02*
X149550000Y-73500000D01*
X160144730Y-73750000D02*
X160144730Y-74594730D01*
X160144730Y-74594730D02*
X160150000Y-74600000D01*
D51*
X171100000Y-80300000D02*
X171100000Y-79550000D01*
D48*
X161994730Y-72762828D02*
X161994730Y-73127828D01*
X161994730Y-73127828D02*
X161372558Y-73750000D01*
X161372558Y-73750000D02*
X160784730Y-73750000D01*
X160784730Y-73750000D02*
X160144730Y-73750000D01*
X165250000Y-82000000D02*
X164450000Y-82000000D01*
X163250000Y-75000000D02*
X162600000Y-75000000D01*
X162894730Y-68012828D02*
X162262828Y-68012828D01*
X162262828Y-68012828D02*
X162250000Y-68000000D01*
X158644730Y-70250000D02*
X158644730Y-70865000D01*
X158644730Y-70865000D02*
X158829730Y-71050000D01*
X158829730Y-71050000D02*
X160600000Y-71050000D01*
X160600000Y-71050000D02*
X161312828Y-71762828D01*
X161312828Y-71762828D02*
X161994730Y-71762828D01*
X158644730Y-70250000D02*
X158644730Y-69455270D01*
X158644730Y-69455270D02*
X158650000Y-69450000D01*
X158644730Y-73750000D02*
X158644730Y-74594730D01*
X158644730Y-74594730D02*
X158650000Y-74600000D01*
D50*
X152250000Y-83450000D02*
X152250000Y-84250000D01*
X152250000Y-82750000D02*
X152250000Y-83450000D01*
X152250000Y-83450000D02*
X154250000Y-83450000D01*
X154250000Y-82500000D02*
X154250000Y-83450000D01*
X154250000Y-83450000D02*
X154250000Y-84500000D01*
D48*
X161994730Y-71762828D02*
X161762828Y-71762828D01*
D50*
X150144730Y-75012828D02*
X150144730Y-75794730D01*
X150144730Y-75794730D02*
X150150000Y-75800000D01*
D48*
X155644730Y-68262828D02*
X156337172Y-68262828D01*
X156337172Y-68262828D02*
X156350000Y-68250000D01*
X168144730Y-74262828D02*
X168144730Y-75144730D01*
X168144730Y-75144730D02*
X168750000Y-75750000D01*
X168750000Y-75750000D02*
X173750000Y-75750000D01*
X173750000Y-75750000D02*
X174750000Y-74750000D01*
X174750000Y-74750000D02*
X174750000Y-71000000D01*
X174750000Y-71000000D02*
X175500000Y-70250000D01*
X175500000Y-70250000D02*
X176500000Y-70250000D01*
X177135856Y-70885856D02*
X176500000Y-70250000D01*
X176500000Y-70250000D02*
X176500000Y-69700000D01*
X179692416Y-71015846D02*
X179102416Y-71015846D01*
X179102416Y-71015846D02*
X178972426Y-70885856D01*
X178972426Y-70885856D02*
X177135856Y-70885856D01*
X164400000Y-69000000D02*
X165412828Y-70012828D01*
X165412828Y-70012828D02*
X166644730Y-70012828D01*
X164400000Y-68218098D02*
X164400000Y-69000000D01*
X164394730Y-68012828D02*
X164394730Y-68212828D01*
X164394730Y-68212828D02*
X164400000Y-68218098D01*
X164794730Y-71262828D02*
X166009730Y-71262828D01*
X166009730Y-71262828D02*
X166644730Y-70627828D01*
X166644730Y-70627828D02*
X166644730Y-70012828D01*
X164794730Y-74250000D02*
X164794730Y-74955270D01*
X164794730Y-72762828D02*
X164794730Y-74250000D01*
X164794730Y-74250000D02*
X164807558Y-74262828D01*
X164807558Y-74262828D02*
X166644730Y-74262828D01*
X164794730Y-74955270D02*
X164750000Y-75000000D01*
X179380000Y-69270000D02*
X178950000Y-69700000D01*
X178950000Y-69700000D02*
X178250000Y-69700000D01*
X179380000Y-67490000D02*
X179380000Y-69270000D01*
X178740000Y-66850000D02*
X179380000Y-67490000D01*
X175120000Y-66850000D02*
X178740000Y-66850000D01*
X172470000Y-69500000D02*
X175120000Y-66850000D01*
X170000000Y-69500000D02*
X172470000Y-69500000D01*
X178250000Y-69700000D02*
X177700000Y-69700000D01*
X169487172Y-70012828D02*
X170000000Y-69500000D01*
X168144730Y-70012828D02*
X169487172Y-70012828D01*
X178250000Y-69700000D02*
X178150000Y-69700000D01*
X179692416Y-70515846D02*
X178625846Y-70515846D01*
X178625846Y-70515846D02*
X178250000Y-70140000D01*
X178250000Y-70140000D02*
X178250000Y-69700000D01*
X151744730Y-72712828D02*
X151744730Y-74912828D01*
X151744730Y-74912828D02*
X151644730Y-75012828D01*
X151744730Y-72712828D02*
X154094730Y-72712828D01*
X154094730Y-72712828D02*
X154144730Y-72762828D01*
X166750000Y-80250000D02*
X166750000Y-82000000D01*
X168900000Y-80300000D02*
X166800000Y-80300000D01*
X166800000Y-80300000D02*
X166750000Y-80250000D01*
X148784730Y-70750000D02*
X149481902Y-70750000D01*
X149481902Y-70750000D02*
X149544730Y-70812828D01*
X147394730Y-70000000D02*
X148034730Y-70000000D01*
X148034730Y-70000000D02*
X148784730Y-70750000D01*
X154900000Y-69050000D02*
X154144730Y-69805270D01*
X154144730Y-69805270D02*
X154144730Y-70762828D01*
X154900000Y-67350000D02*
X154900000Y-69050000D01*
X154650000Y-67100000D02*
X154900000Y-67350000D01*
X150617558Y-67100000D02*
X154650000Y-67100000D01*
X150144730Y-68262828D02*
X150144730Y-67572828D01*
X150144730Y-67572828D02*
X150617558Y-67100000D01*
X150150000Y-69642558D02*
X150144730Y-69637288D01*
X150144730Y-69637288D02*
X150144730Y-68262828D01*
X149544730Y-70812828D02*
X149544730Y-70247828D01*
X149544730Y-70247828D02*
X150150000Y-69642558D01*
X155644730Y-70762828D02*
X155644730Y-72762828D01*
X157850000Y-72000000D02*
X157087172Y-72762828D01*
X157087172Y-72762828D02*
X155644730Y-72762828D01*
X158750000Y-72000000D02*
X157850000Y-72000000D01*
X138293750Y-75106250D02*
X139193750Y-75106250D01*
X139550000Y-74250000D02*
X140000000Y-73800000D01*
X139193750Y-75106250D02*
X139550000Y-74750000D01*
X139550000Y-74750000D02*
X139550000Y-74250000D01*
X143450000Y-73800000D02*
X143750000Y-74100000D01*
X140000000Y-73800000D02*
X143450000Y-73800000D01*
X143850000Y-75950000D02*
X145800000Y-77900000D01*
X143750000Y-74100000D02*
X143750000Y-74685998D01*
X159800000Y-87050000D02*
X169200000Y-87050000D01*
X143750000Y-74685998D02*
X143850000Y-74785998D01*
X169200000Y-87050000D02*
X169500000Y-86750000D01*
X143850000Y-74785998D02*
X143850000Y-75950000D01*
X145800000Y-77900000D02*
X154350000Y-77900000D01*
X155800000Y-79350000D02*
X155800000Y-83050000D01*
X154350000Y-77900000D02*
X155800000Y-79350000D01*
X155800000Y-83050000D02*
X159800000Y-87050000D01*
X169500000Y-86750000D02*
X169500000Y-86000000D01*
X176500000Y-86050000D02*
X174094998Y-86050000D01*
X174094998Y-86050000D02*
X171444998Y-83400000D01*
X171444998Y-83400000D02*
X171100000Y-83400000D01*
X169500000Y-86000000D02*
X169500000Y-84000000D01*
X170500000Y-84000000D02*
X171100000Y-83400000D01*
X171100000Y-83400000D02*
X171100000Y-83100000D01*
X169500000Y-84000000D02*
X170500000Y-84000000D01*
X171100000Y-83100000D02*
X171100000Y-82200000D01*
X165250000Y-80250000D02*
X163750000Y-80250000D01*
X168000000Y-84000000D02*
X167360000Y-84000000D01*
X166000000Y-82640000D02*
X166000000Y-80510000D01*
X167360000Y-84000000D02*
X166000000Y-82640000D01*
X165740000Y-80250000D02*
X165250000Y-80250000D01*
X166000000Y-80510000D02*
X165740000Y-80250000D01*
X138293750Y-74606250D02*
X138293750Y-74241250D01*
X138293750Y-74241250D02*
X140785000Y-71750000D01*
X140785000Y-71750000D02*
X141950000Y-71750000D01*
X141950000Y-71750000D02*
X145894730Y-71750000D01*
X145894730Y-70000000D02*
X145894730Y-71750000D01*
X145894730Y-70000000D02*
X145894730Y-68250000D01*
X147394730Y-73500000D02*
X147394730Y-75250000D01*
X147394730Y-73500000D02*
X147394730Y-71750000D01*
D50*
X175350000Y-85300000D02*
X175350000Y-85335000D01*
X175350000Y-85335000D02*
X175415000Y-85400000D01*
X175415000Y-85400000D02*
X176500000Y-85400000D01*
X174570000Y-85300000D02*
X175350000Y-85300000D01*
D48*
X199450000Y-70200000D02*
X199107912Y-70200000D01*
X199107912Y-70200000D02*
X199069779Y-70161867D01*
X200011867Y-70761867D02*
X199450000Y-70200000D01*
X200569779Y-70761867D02*
X200011867Y-70761867D01*
D47*
X200569779Y-72111867D02*
X200569779Y-73511867D01*
X200569779Y-72111867D02*
X200569779Y-70761867D01*
D48*
X199044779Y-69661867D02*
X199561867Y-69661867D01*
D47*
X200569779Y-69661867D02*
X199561867Y-69661867D01*
X203700000Y-69661867D02*
X200569779Y-69661867D01*
X204800000Y-69661867D02*
X209411867Y-69661867D01*
X209411867Y-69661867D02*
X209500000Y-69750000D01*
X198569779Y-73511867D02*
X199669779Y-73511867D01*
X199669779Y-75211867D02*
X199669779Y-73511867D01*
X189627416Y-73070846D02*
X188048262Y-73070846D01*
X188048262Y-73070846D02*
X188027416Y-73050000D01*
X186717416Y-73060846D02*
X188016570Y-73060846D01*
X188016570Y-73060846D02*
X188027416Y-73050000D01*
X199200000Y-83375000D02*
X199200000Y-81100000D01*
X190727416Y-73070846D02*
X191407416Y-73070846D01*
X191407416Y-73070846D02*
X199200000Y-80863430D01*
X199200000Y-80863430D02*
X199200000Y-81100000D01*
X195669779Y-72111867D02*
X195669779Y-73511867D01*
X195669779Y-70761867D02*
X195669779Y-72111867D01*
D48*
X197294779Y-69661867D02*
X196838133Y-69661867D01*
D47*
X195669779Y-69661867D02*
X196838133Y-69661867D01*
X194069779Y-69661867D02*
X195669779Y-69661867D01*
D48*
X188485000Y-85560000D02*
X188020000Y-85560000D01*
X188020000Y-85560000D02*
X187420000Y-84960000D01*
X187420000Y-84960000D02*
X186910000Y-84960000D01*
D47*
X186910000Y-83660000D02*
X186910000Y-82210000D01*
X186910000Y-84960000D02*
X186910000Y-83660000D01*
X179692416Y-72342416D02*
X179697416Y-72347416D01*
X179697416Y-72347416D02*
X179697416Y-73850846D01*
D48*
X179692416Y-72015846D02*
X179692416Y-72342416D01*
D47*
X187910000Y-86060000D02*
X186910000Y-86060000D01*
D48*
X188110000Y-86060000D02*
X187910000Y-86060000D01*
X188485000Y-86060000D02*
X188110000Y-86060000D01*
D47*
X186910000Y-86060000D02*
X185360000Y-86060000D01*
X184260000Y-86060000D02*
X180910000Y-86060000D01*
X180910000Y-86060000D02*
X180900000Y-86050000D01*
X186527416Y-69950846D02*
X187157416Y-69950846D01*
X187157416Y-69950846D02*
X187357416Y-69750846D01*
X187357416Y-69750846D02*
X187600846Y-69750846D01*
D51*
X187827416Y-69750846D02*
X187600846Y-69750846D01*
D47*
X185850846Y-69950846D02*
X185770846Y-69870846D01*
X185770846Y-69870846D02*
X185207416Y-69870846D01*
X186527416Y-69950846D02*
X185850846Y-69950846D01*
X186527416Y-71050846D02*
X187157416Y-71050846D01*
X187157416Y-71050846D02*
X187600846Y-71050846D01*
D51*
X187827416Y-71050846D02*
X187600846Y-71050846D01*
D47*
X185900000Y-71118262D02*
X186460000Y-71118262D01*
X186460000Y-71118262D02*
X186527416Y-71050846D01*
X185207416Y-71130846D02*
X185887416Y-71130846D01*
X185887416Y-71130846D02*
X185900000Y-71118262D01*
D50*
X182492416Y-72592416D02*
X182960846Y-73060846D01*
X182960846Y-73060846D02*
X184087416Y-73060846D01*
X182492416Y-72442416D02*
X182492416Y-72592416D01*
D48*
X182492416Y-72292416D02*
X182492416Y-72442416D01*
X182492416Y-72015846D02*
X182492416Y-72292416D01*
D47*
X184087416Y-73060846D02*
X185617416Y-73060846D01*
X187810000Y-80510000D02*
X187810000Y-82210000D01*
X188910000Y-82210000D02*
X187810000Y-82210000D01*
X191810000Y-83660000D02*
X191810000Y-82210000D01*
X191810000Y-84960000D02*
X191810000Y-83660000D01*
D51*
X196090000Y-86060000D02*
X196100000Y-86070000D01*
X196100000Y-86070000D02*
X196570000Y-86070000D01*
D47*
X194710000Y-86060000D02*
X196090000Y-86060000D01*
X190790000Y-86060000D02*
X191810000Y-86060000D01*
D48*
X190640000Y-86060000D02*
X190790000Y-86060000D01*
X190235000Y-86060000D02*
X190640000Y-86060000D01*
D47*
X193610000Y-86060000D02*
X191810000Y-86060000D01*
D48*
X135000000Y-67300000D02*
X135000000Y-68750000D01*
X137250000Y-67300000D02*
X137250000Y-68750000D01*
X139750000Y-67300000D02*
X139750000Y-68750000D01*
D51*
X122750000Y-76700000D02*
X126300000Y-76700000D01*
X126300000Y-76700000D02*
X126500000Y-76500000D01*
D48*
X183034154Y-71015846D02*
X183149154Y-71130846D01*
X183149154Y-71130846D02*
X184107416Y-71130846D01*
X182492416Y-71015846D02*
X183034154Y-71015846D01*
X183648262Y-69950000D02*
X184028262Y-69950000D01*
X184028262Y-69950000D02*
X184107416Y-69870846D01*
X182492416Y-70515846D02*
X183082416Y-70515846D01*
X183082416Y-70515846D02*
X183648262Y-69950000D01*
D52*
X124112500Y-77475000D02*
X129357842Y-77475000D01*
X122750000Y-77350000D02*
X123987500Y-77350000D01*
X123987500Y-77350000D02*
X124112500Y-77475000D01*
X129357842Y-77475000D02*
X130039092Y-78156250D01*
X130039092Y-78156250D02*
X130918750Y-78156250D01*
X130918750Y-78156250D02*
X130968750Y-78106250D01*
X130968750Y-78106250D02*
X131493750Y-78106250D01*
D48*
X126250000Y-78650000D02*
X126750000Y-79150000D01*
X126750000Y-79150000D02*
X126750000Y-79750000D01*
X122750000Y-78650000D02*
X126250000Y-78650000D01*
X132150000Y-82550000D02*
X132600000Y-83000000D01*
X132150000Y-81352500D02*
X132150000Y-82550000D01*
X132143750Y-80756250D02*
X132143750Y-81346250D01*
X132143750Y-81346250D02*
X132150000Y-81352500D01*
X131493750Y-79106250D02*
X129793750Y-79106250D01*
X129793750Y-79106250D02*
X129750000Y-79150000D01*
X124500000Y-85750000D02*
X123000000Y-87250000D01*
X123000000Y-87250000D02*
X123000000Y-89000000D01*
X132690000Y-85750000D02*
X124500000Y-85750000D01*
X133250000Y-84500000D02*
X133250000Y-85190000D01*
X133250000Y-85190000D02*
X132690000Y-85750000D01*
X134643750Y-82156250D02*
X133250000Y-83550000D01*
X133250000Y-83550000D02*
X133250000Y-84500000D01*
X134643750Y-80756250D02*
X134643750Y-82156250D01*
X134750000Y-84500000D02*
X134750000Y-84700000D01*
X134750000Y-84700000D02*
X132450000Y-87000000D01*
X132450000Y-87000000D02*
X126250000Y-87000000D01*
X126250000Y-87000000D02*
X125540000Y-87710000D01*
X125540000Y-87710000D02*
X125540000Y-89000000D01*
X135050000Y-81440000D02*
X135050000Y-83510000D01*
X135050000Y-83510000D02*
X134750000Y-83810000D01*
X134750000Y-83810000D02*
X134750000Y-84500000D01*
X135143750Y-80756250D02*
X135143750Y-81346250D01*
X135143750Y-81346250D02*
X135050000Y-81440000D01*
D47*
X205050000Y-85750000D02*
X209500000Y-85750000D01*
D48*
X172655000Y-74250000D02*
X172655000Y-71415000D01*
X172655000Y-71415000D02*
X172490000Y-71250000D01*
X172490000Y-71250000D02*
X171500000Y-71250000D01*
X169537172Y-72012828D02*
X170300000Y-71250000D01*
X170300000Y-71250000D02*
X171500000Y-71250000D01*
X168144730Y-72012828D02*
X169537172Y-72012828D01*
X164794730Y-72262828D02*
X165744728Y-72262828D01*
X170085000Y-73000000D02*
X170345000Y-73260000D01*
X165744728Y-72262828D02*
X166481900Y-73000000D01*
X166481900Y-73000000D02*
X170085000Y-73000000D01*
X170345000Y-73260000D02*
X170345000Y-74250000D01*
X160250000Y-72000000D02*
X160740000Y-72000000D01*
X160740000Y-72000000D02*
X161002828Y-72262828D01*
X161002828Y-72262828D02*
X161994730Y-72262828D01*
X157650000Y-82450000D02*
X159850000Y-82450000D01*
X162250000Y-80250000D02*
X162250000Y-81450000D01*
X162250000Y-81450000D02*
X161250000Y-82450000D01*
X161250000Y-82450000D02*
X159850000Y-82450000D01*
X154144730Y-68262828D02*
X153654730Y-68262828D01*
X153654730Y-68262828D02*
X151644730Y-68262828D01*
X151744730Y-70812828D02*
X151744730Y-68362828D01*
X151744730Y-68362828D02*
X151644730Y-68262828D01*
X168000000Y-86000000D02*
X166500000Y-86000000D01*
X168750000Y-84560000D02*
X168750000Y-82915000D01*
X168900000Y-82765000D02*
X168900000Y-82200000D01*
X168750000Y-82915000D02*
X168900000Y-82765000D01*
X168000000Y-86000000D02*
X168000000Y-85310000D01*
X168000000Y-85310000D02*
X168750000Y-84560000D01*
D50*
X188450000Y-68200000D02*
X188450000Y-68860000D01*
X188450000Y-68860000D02*
X188477416Y-68887416D01*
X188477416Y-68887416D02*
X188477416Y-69222584D01*
D51*
X188477416Y-69750846D02*
X188477416Y-69222584D01*
D48*
X164794730Y-71762828D02*
X166394730Y-71762828D01*
X166394730Y-71762828D02*
X166644730Y-72012828D01*
X138293750Y-75606250D02*
X139606250Y-75606250D01*
X143500000Y-76400000D02*
X145450000Y-78350000D01*
X139606250Y-75606250D02*
X139750000Y-75750000D01*
X139750000Y-75750000D02*
X143050000Y-75750000D01*
X143500000Y-76200000D02*
X143500000Y-76400000D01*
X143050000Y-75750000D02*
X143500000Y-76200000D01*
X176500000Y-89100000D02*
X176500000Y-88100000D01*
X176450000Y-88150000D02*
X176500000Y-88100000D01*
X176500000Y-88100000D02*
X176500000Y-87350000D01*
X143900000Y-76800000D02*
X145450000Y-78350000D01*
X153900000Y-78350000D02*
X155350000Y-79800000D01*
X145450000Y-78350000D02*
X153900000Y-78350000D01*
X155350000Y-79800000D02*
X155350000Y-83400000D01*
X160100000Y-88150000D02*
X176450000Y-88150000D01*
X155350000Y-83400000D02*
X160100000Y-88150000D01*
D52*
X130918750Y-78556250D02*
X130968750Y-78606250D01*
X130968750Y-78606250D02*
X131493750Y-78606250D01*
X123987500Y-78000000D02*
X124112500Y-77875000D01*
X124112500Y-77875000D02*
X129192158Y-77875000D01*
X122750000Y-78000000D02*
X123987500Y-78000000D01*
X129192158Y-77875000D02*
X129873408Y-78556250D01*
X129873408Y-78556250D02*
X130918750Y-78556250D01*
D48*
X141150000Y-72400000D02*
X143400000Y-72400000D01*
X143400000Y-72400000D02*
X144400000Y-73400000D01*
X144400000Y-73400000D02*
X144400000Y-75650000D01*
X144400000Y-75650000D02*
X146000000Y-77250000D01*
X157650000Y-78750000D02*
X157650000Y-80550000D01*
X146000000Y-77250000D02*
X156150000Y-77250000D01*
X156150000Y-77250000D02*
X157650000Y-78750000D01*
X137143750Y-73956250D02*
X137143750Y-72256250D01*
X137143750Y-72256250D02*
X137450000Y-71950000D01*
X136643750Y-73956250D02*
X136643750Y-71506250D01*
X136643750Y-71506250D02*
X137250000Y-70900000D01*
X137250000Y-70900000D02*
X137250000Y-70250000D01*
X139750000Y-70250000D02*
X139750000Y-70740000D01*
X139750000Y-70740000D02*
X137643750Y-72846250D01*
X137643750Y-72846250D02*
X137643750Y-73956250D01*
D47*
X197890000Y-85410000D02*
X197970000Y-85330000D01*
X197970000Y-85330000D02*
X199160000Y-85330000D01*
D51*
X197570000Y-85410000D02*
X197890000Y-85410000D01*
D47*
X199160000Y-85330000D02*
X199160000Y-84065000D01*
X199160000Y-84065000D02*
X199200000Y-84025000D01*
X197880000Y-86730000D02*
X197980000Y-86830000D01*
X197980000Y-86830000D02*
X199160000Y-86830000D01*
D51*
X197570000Y-86730000D02*
X197880000Y-86730000D01*
D47*
X203950000Y-85750000D02*
X202500000Y-85750000D01*
X202500000Y-85750000D02*
X201420000Y-86830000D01*
X201420000Y-86830000D02*
X199160000Y-86830000D01*
X191899154Y-69750846D02*
X191988133Y-69661867D01*
X191988133Y-69661867D02*
X192969779Y-69661867D01*
X189399154Y-69750846D02*
X191899154Y-69750846D01*
D51*
X189127416Y-69750846D02*
X189399154Y-69750846D01*
D48*
X139406250Y-76106250D02*
X139800000Y-76500000D01*
X139800000Y-76500000D02*
X140500000Y-76500000D01*
X138293750Y-76106250D02*
X139406250Y-76106250D01*
D51*
X142500000Y-76500000D02*
X142500000Y-78250000D01*
X142500000Y-76500000D02*
X140500000Y-76500000D01*
D53*
G36*
X123373000Y-72373000D02*
X118102000Y-72373000D01*
X118102000Y-65627000D01*
X123373000Y-65627000D01*
X123373000Y-72373000D01*
X123373000Y-72373000D01*
G37*
X123373000Y-72373000D02*
X118102000Y-72373000D01*
X118102000Y-65627000D01*
X123373000Y-65627000D01*
X123373000Y-72373000D01*
D54*
G36*
X178644585Y-88187257D02*
X179060553Y-88603951D01*
X179325512Y-88713972D01*
X179325512Y-89160000D01*
X179412673Y-89623222D01*
X179686437Y-90048663D01*
X179871337Y-90175000D01*
X177835830Y-90175000D01*
X177924076Y-90045847D01*
X178024488Y-89550000D01*
X178024488Y-88650000D01*
X178007023Y-88557184D01*
X178113663Y-88488563D01*
X178399076Y-88070847D01*
X178464005Y-87750219D01*
X178644585Y-88187257D01*
X178644585Y-88187257D01*
G37*
X178644585Y-88187257D02*
X179060553Y-88603951D01*
X179325512Y-88713972D01*
X179325512Y-89160000D01*
X179412673Y-89623222D01*
X179686437Y-90048663D01*
X179871337Y-90175000D01*
X177835830Y-90175000D01*
X177924076Y-90045847D01*
X178024488Y-89550000D01*
X178024488Y-88650000D01*
X178007023Y-88557184D01*
X178113663Y-88488563D01*
X178399076Y-88070847D01*
X178464005Y-87750219D01*
X178644585Y-88187257D01*
G36*
X203650000Y-87274488D02*
X204250000Y-87274488D01*
X204509179Y-87225720D01*
X204750000Y-87274488D01*
X205350000Y-87274488D01*
X205799016Y-87190000D01*
X206491337Y-87190000D01*
X206724153Y-87349076D01*
X207220000Y-87449488D01*
X210675000Y-87449488D01*
X210675000Y-90175000D01*
X182289858Y-90175000D01*
X182337257Y-90155415D01*
X182753951Y-89739447D01*
X182979743Y-89195682D01*
X182980128Y-88753766D01*
X183333222Y-88687327D01*
X183344344Y-88680170D01*
X183443099Y-88680256D01*
X183987257Y-88455415D01*
X184403951Y-88039447D01*
X184595653Y-87577779D01*
X184819179Y-87535720D01*
X185060000Y-87584488D01*
X185660000Y-87584488D01*
X186109016Y-87500000D01*
X186114281Y-87500000D01*
X186164153Y-87534076D01*
X186660000Y-87634488D01*
X187070089Y-87634488D01*
X187072673Y-87648222D01*
X187346437Y-88073663D01*
X187764153Y-88359076D01*
X188260000Y-88459488D01*
X188710000Y-88459488D01*
X189173222Y-88372327D01*
X189358787Y-88252919D01*
X189514153Y-88359076D01*
X190010000Y-88459488D01*
X190460000Y-88459488D01*
X190923222Y-88372327D01*
X191348663Y-88098563D01*
X191634076Y-87680847D01*
X191643464Y-87634488D01*
X192060000Y-87634488D01*
X192523222Y-87547327D01*
X192596770Y-87500000D01*
X192892788Y-87500000D01*
X193310000Y-87584488D01*
X193910000Y-87584488D01*
X194169179Y-87535720D01*
X194410000Y-87584488D01*
X195010000Y-87584488D01*
X195459016Y-87500000D01*
X196090000Y-87500000D01*
X196125627Y-87492913D01*
X196301527Y-87528534D01*
X196491437Y-87823663D01*
X196909153Y-88109076D01*
X197405000Y-88209488D01*
X197675784Y-88209488D01*
X197980000Y-88270000D01*
X198292788Y-88270000D01*
X198710000Y-88354488D01*
X199610000Y-88354488D01*
X200059016Y-88270000D01*
X201420000Y-88270000D01*
X201971065Y-88160387D01*
X202438234Y-87848234D01*
X203096468Y-87190000D01*
X203232788Y-87190000D01*
X203650000Y-87274488D01*
X203650000Y-87274488D01*
G37*
X203650000Y-87274488D02*
X204250000Y-87274488D01*
X204509179Y-87225720D01*
X204750000Y-87274488D01*
X205350000Y-87274488D01*
X205799016Y-87190000D01*
X206491337Y-87190000D01*
X206724153Y-87349076D01*
X207220000Y-87449488D01*
X210675000Y-87449488D01*
X210675000Y-90175000D01*
X182289858Y-90175000D01*
X182337257Y-90155415D01*
X182753951Y-89739447D01*
X182979743Y-89195682D01*
X182980128Y-88753766D01*
X183333222Y-88687327D01*
X183344344Y-88680170D01*
X183443099Y-88680256D01*
X183987257Y-88455415D01*
X184403951Y-88039447D01*
X184595653Y-87577779D01*
X184819179Y-87535720D01*
X185060000Y-87584488D01*
X185660000Y-87584488D01*
X186109016Y-87500000D01*
X186114281Y-87500000D01*
X186164153Y-87534076D01*
X186660000Y-87634488D01*
X187070089Y-87634488D01*
X187072673Y-87648222D01*
X187346437Y-88073663D01*
X187764153Y-88359076D01*
X188260000Y-88459488D01*
X188710000Y-88459488D01*
X189173222Y-88372327D01*
X189358787Y-88252919D01*
X189514153Y-88359076D01*
X190010000Y-88459488D01*
X190460000Y-88459488D01*
X190923222Y-88372327D01*
X191348663Y-88098563D01*
X191634076Y-87680847D01*
X191643464Y-87634488D01*
X192060000Y-87634488D01*
X192523222Y-87547327D01*
X192596770Y-87500000D01*
X192892788Y-87500000D01*
X193310000Y-87584488D01*
X193910000Y-87584488D01*
X194169179Y-87535720D01*
X194410000Y-87584488D01*
X195010000Y-87584488D01*
X195459016Y-87500000D01*
X196090000Y-87500000D01*
X196125627Y-87492913D01*
X196301527Y-87528534D01*
X196491437Y-87823663D01*
X196909153Y-88109076D01*
X197405000Y-88209488D01*
X197675784Y-88209488D01*
X197980000Y-88270000D01*
X198292788Y-88270000D01*
X198710000Y-88354488D01*
X199610000Y-88354488D01*
X200059016Y-88270000D01*
X201420000Y-88270000D01*
X201971065Y-88160387D01*
X202438234Y-87848234D01*
X203096468Y-87190000D01*
X203232788Y-87190000D01*
X203650000Y-87274488D01*
G36*
X177877416Y-73105334D02*
X178223272Y-73105334D01*
X178122928Y-73600846D01*
X178122928Y-74100846D01*
X178210089Y-74564068D01*
X178483853Y-74989509D01*
X178901569Y-75274922D01*
X179397416Y-75375334D01*
X179997416Y-75375334D01*
X180460638Y-75288173D01*
X180886079Y-75014409D01*
X181171492Y-74596693D01*
X181271904Y-74100846D01*
X181271904Y-73600846D01*
X181190557Y-73168522D01*
X181481253Y-73603579D01*
X181949683Y-74072009D01*
X182413608Y-74381994D01*
X182960846Y-74490846D01*
X183277062Y-74490846D01*
X183341569Y-74534922D01*
X183837416Y-74635334D01*
X184337416Y-74635334D01*
X184800638Y-74548173D01*
X184874186Y-74500846D01*
X184900204Y-74500846D01*
X185317416Y-74585334D01*
X185917416Y-74585334D01*
X186176595Y-74536566D01*
X186417416Y-74585334D01*
X187017416Y-74585334D01*
X187311145Y-74530065D01*
X187777416Y-74624488D01*
X188277416Y-74624488D01*
X188740638Y-74537327D01*
X188781791Y-74510846D01*
X188910204Y-74510846D01*
X189327416Y-74595334D01*
X189927416Y-74595334D01*
X190186595Y-74546566D01*
X190427416Y-74595334D01*
X190895436Y-74595334D01*
X197760000Y-81459898D01*
X197760000Y-82757788D01*
X197675512Y-83175000D01*
X197675512Y-83575000D01*
X197699896Y-83704589D01*
X197675512Y-83825000D01*
X197675512Y-83930512D01*
X197405000Y-83930512D01*
X196941778Y-84017673D01*
X196516337Y-84291437D01*
X196298265Y-84610595D01*
X196166944Y-84635305D01*
X196090000Y-84620000D01*
X195427212Y-84620000D01*
X195010000Y-84535512D01*
X194410000Y-84535512D01*
X194150821Y-84584280D01*
X193910000Y-84535512D01*
X193311064Y-84535512D01*
X193285419Y-84399217D01*
X193384488Y-83910000D01*
X193384488Y-83410000D01*
X193297327Y-82946778D01*
X193250000Y-82873230D01*
X193250000Y-82680306D01*
X193284488Y-82510000D01*
X193284488Y-81910000D01*
X193197327Y-81446778D01*
X192923563Y-81021337D01*
X192505847Y-80735924D01*
X192033069Y-80640184D01*
X191739447Y-80346049D01*
X191524488Y-80256790D01*
X191524488Y-80175000D01*
X191437327Y-79711778D01*
X191330223Y-79545333D01*
X191330256Y-79506901D01*
X191105415Y-78962743D01*
X190689447Y-78546049D01*
X190145682Y-78320257D01*
X189556901Y-78319744D01*
X189012743Y-78544585D01*
X188614257Y-78942377D01*
X188210000Y-78860512D01*
X187410000Y-78860512D01*
X186946778Y-78947673D01*
X186521337Y-79221437D01*
X186235924Y-79639153D01*
X186135512Y-80135000D01*
X186135512Y-80794271D01*
X185821337Y-80996437D01*
X185535924Y-81414153D01*
X185435512Y-81910000D01*
X185435512Y-82510000D01*
X185470000Y-82693288D01*
X185470000Y-82864281D01*
X185435924Y-82914153D01*
X185335512Y-83410000D01*
X185335512Y-83910000D01*
X185422673Y-84373222D01*
X185438580Y-84397943D01*
X185410722Y-84535512D01*
X185060000Y-84535512D01*
X184800821Y-84584280D01*
X184560000Y-84535512D01*
X183960000Y-84535512D01*
X183510984Y-84620000D01*
X183121990Y-84620000D01*
X183363260Y-84379151D01*
X183599730Y-83809667D01*
X183600268Y-83193039D01*
X183364792Y-82623143D01*
X182929151Y-82186740D01*
X182359667Y-81950270D01*
X182141678Y-81950080D01*
X181650000Y-81850512D01*
X180850000Y-81850512D01*
X180386778Y-81937673D01*
X179961337Y-82211437D01*
X179675924Y-82629153D01*
X179575512Y-83125000D01*
X179575512Y-83875000D01*
X179662673Y-84338222D01*
X179839857Y-84613573D01*
X179711778Y-84637673D01*
X179286337Y-84911437D01*
X179000924Y-85329153D01*
X178955962Y-85551180D01*
X178646049Y-85860553D01*
X178499488Y-86213509D01*
X178499488Y-85825000D01*
X178479981Y-85721328D01*
X178499488Y-85625000D01*
X178499488Y-85175000D01*
X178412327Y-84711778D01*
X178138563Y-84286337D01*
X177720847Y-84000924D01*
X177225000Y-83900512D01*
X175775000Y-83900512D01*
X175713344Y-83912113D01*
X175440847Y-83725924D01*
X174945000Y-83625512D01*
X174195000Y-83625512D01*
X173731778Y-83712673D01*
X173709487Y-83727017D01*
X173400000Y-83417530D01*
X173400000Y-77120000D01*
X173750000Y-77120000D01*
X174274277Y-77015715D01*
X174718736Y-76718736D01*
X175718737Y-75718736D01*
X176015715Y-75274276D01*
X176120000Y-74750000D01*
X176120000Y-73202820D01*
X176132416Y-73205334D01*
X176882416Y-73205334D01*
X177345638Y-73118173D01*
X177488107Y-73026497D01*
X177877416Y-73105334D01*
X177877416Y-73105334D01*
G37*
X177877416Y-73105334D02*
X178223272Y-73105334D01*
X178122928Y-73600846D01*
X178122928Y-74100846D01*
X178210089Y-74564068D01*
X178483853Y-74989509D01*
X178901569Y-75274922D01*
X179397416Y-75375334D01*
X179997416Y-75375334D01*
X180460638Y-75288173D01*
X180886079Y-75014409D01*
X181171492Y-74596693D01*
X181271904Y-74100846D01*
X181271904Y-73600846D01*
X181190557Y-73168522D01*
X181481253Y-73603579D01*
X181949683Y-74072009D01*
X182413608Y-74381994D01*
X182960846Y-74490846D01*
X183277062Y-74490846D01*
X183341569Y-74534922D01*
X183837416Y-74635334D01*
X184337416Y-74635334D01*
X184800638Y-74548173D01*
X184874186Y-74500846D01*
X184900204Y-74500846D01*
X185317416Y-74585334D01*
X185917416Y-74585334D01*
X186176595Y-74536566D01*
X186417416Y-74585334D01*
X187017416Y-74585334D01*
X187311145Y-74530065D01*
X187777416Y-74624488D01*
X188277416Y-74624488D01*
X188740638Y-74537327D01*
X188781791Y-74510846D01*
X188910204Y-74510846D01*
X189327416Y-74595334D01*
X189927416Y-74595334D01*
X190186595Y-74546566D01*
X190427416Y-74595334D01*
X190895436Y-74595334D01*
X197760000Y-81459898D01*
X197760000Y-82757788D01*
X197675512Y-83175000D01*
X197675512Y-83575000D01*
X197699896Y-83704589D01*
X197675512Y-83825000D01*
X197675512Y-83930512D01*
X197405000Y-83930512D01*
X196941778Y-84017673D01*
X196516337Y-84291437D01*
X196298265Y-84610595D01*
X196166944Y-84635305D01*
X196090000Y-84620000D01*
X195427212Y-84620000D01*
X195010000Y-84535512D01*
X194410000Y-84535512D01*
X194150821Y-84584280D01*
X193910000Y-84535512D01*
X193311064Y-84535512D01*
X193285419Y-84399217D01*
X193384488Y-83910000D01*
X193384488Y-83410000D01*
X193297327Y-82946778D01*
X193250000Y-82873230D01*
X193250000Y-82680306D01*
X193284488Y-82510000D01*
X193284488Y-81910000D01*
X193197327Y-81446778D01*
X192923563Y-81021337D01*
X192505847Y-80735924D01*
X192033069Y-80640184D01*
X191739447Y-80346049D01*
X191524488Y-80256790D01*
X191524488Y-80175000D01*
X191437327Y-79711778D01*
X191330223Y-79545333D01*
X191330256Y-79506901D01*
X191105415Y-78962743D01*
X190689447Y-78546049D01*
X190145682Y-78320257D01*
X189556901Y-78319744D01*
X189012743Y-78544585D01*
X188614257Y-78942377D01*
X188210000Y-78860512D01*
X187410000Y-78860512D01*
X186946778Y-78947673D01*
X186521337Y-79221437D01*
X186235924Y-79639153D01*
X186135512Y-80135000D01*
X186135512Y-80794271D01*
X185821337Y-80996437D01*
X185535924Y-81414153D01*
X185435512Y-81910000D01*
X185435512Y-82510000D01*
X185470000Y-82693288D01*
X185470000Y-82864281D01*
X185435924Y-82914153D01*
X185335512Y-83410000D01*
X185335512Y-83910000D01*
X185422673Y-84373222D01*
X185438580Y-84397943D01*
X185410722Y-84535512D01*
X185060000Y-84535512D01*
X184800821Y-84584280D01*
X184560000Y-84535512D01*
X183960000Y-84535512D01*
X183510984Y-84620000D01*
X183121990Y-84620000D01*
X183363260Y-84379151D01*
X183599730Y-83809667D01*
X183600268Y-83193039D01*
X183364792Y-82623143D01*
X182929151Y-82186740D01*
X182359667Y-81950270D01*
X182141678Y-81950080D01*
X181650000Y-81850512D01*
X180850000Y-81850512D01*
X180386778Y-81937673D01*
X179961337Y-82211437D01*
X179675924Y-82629153D01*
X179575512Y-83125000D01*
X179575512Y-83875000D01*
X179662673Y-84338222D01*
X179839857Y-84613573D01*
X179711778Y-84637673D01*
X179286337Y-84911437D01*
X179000924Y-85329153D01*
X178955962Y-85551180D01*
X178646049Y-85860553D01*
X178499488Y-86213509D01*
X178499488Y-85825000D01*
X178479981Y-85721328D01*
X178499488Y-85625000D01*
X178499488Y-85175000D01*
X178412327Y-84711778D01*
X178138563Y-84286337D01*
X177720847Y-84000924D01*
X177225000Y-83900512D01*
X175775000Y-83900512D01*
X175713344Y-83912113D01*
X175440847Y-83725924D01*
X174945000Y-83625512D01*
X174195000Y-83625512D01*
X173731778Y-83712673D01*
X173709487Y-83727017D01*
X173400000Y-83417530D01*
X173400000Y-77120000D01*
X173750000Y-77120000D01*
X174274277Y-77015715D01*
X174718736Y-76718736D01*
X175718737Y-75718736D01*
X176015715Y-75274276D01*
X176120000Y-74750000D01*
X176120000Y-73202820D01*
X176132416Y-73205334D01*
X176882416Y-73205334D01*
X177345638Y-73118173D01*
X177488107Y-73026497D01*
X177877416Y-73105334D01*
G36*
X203400000Y-71186355D02*
X204000000Y-71186355D01*
X204259179Y-71137587D01*
X204500000Y-71186355D01*
X205100000Y-71186355D01*
X205549016Y-71101867D01*
X206362350Y-71101867D01*
X206724153Y-71349076D01*
X207220000Y-71449488D01*
X210675000Y-71449488D01*
X210675000Y-84050512D01*
X207220000Y-84050512D01*
X206756778Y-84137673D01*
X206488974Y-84310000D01*
X205767212Y-84310000D01*
X205350000Y-84225512D01*
X204750000Y-84225512D01*
X204490821Y-84274280D01*
X204250000Y-84225512D01*
X203650000Y-84225512D01*
X203200984Y-84310000D01*
X202500005Y-84310000D01*
X202500000Y-84309999D01*
X201948936Y-84419613D01*
X201481766Y-84731766D01*
X200884488Y-85329044D01*
X200884488Y-85080000D01*
X200797327Y-84616778D01*
X200681577Y-84436898D01*
X200724488Y-84225000D01*
X200724488Y-83825000D01*
X200700104Y-83695411D01*
X200724488Y-83575000D01*
X200724488Y-83175000D01*
X200640000Y-82725984D01*
X200640000Y-80863430D01*
X200595012Y-80637257D01*
X200530387Y-80312365D01*
X200218234Y-79845196D01*
X197192488Y-76819450D01*
X197433001Y-76774194D01*
X197858442Y-76500430D01*
X198123044Y-76113171D01*
X198356216Y-76475530D01*
X198773932Y-76760943D01*
X199269779Y-76861355D01*
X200069779Y-76861355D01*
X200533001Y-76774194D01*
X200958442Y-76500430D01*
X201243855Y-76082714D01*
X201344267Y-75586867D01*
X201344267Y-74927596D01*
X201658442Y-74725430D01*
X201943855Y-74307714D01*
X202044267Y-73811867D01*
X202044267Y-73211867D01*
X202009779Y-73028579D01*
X202009779Y-72907586D01*
X202043855Y-72857714D01*
X202144267Y-72361867D01*
X202144267Y-71861867D01*
X202057106Y-71398645D01*
X202033497Y-71361956D01*
X202086167Y-71101867D01*
X202982788Y-71101867D01*
X203400000Y-71186355D01*
X203400000Y-71186355D01*
G37*
X203400000Y-71186355D02*
X204000000Y-71186355D01*
X204259179Y-71137587D01*
X204500000Y-71186355D01*
X205100000Y-71186355D01*
X205549016Y-71101867D01*
X206362350Y-71101867D01*
X206724153Y-71349076D01*
X207220000Y-71449488D01*
X210675000Y-71449488D01*
X210675000Y-84050512D01*
X207220000Y-84050512D01*
X206756778Y-84137673D01*
X206488974Y-84310000D01*
X205767212Y-84310000D01*
X205350000Y-84225512D01*
X204750000Y-84225512D01*
X204490821Y-84274280D01*
X204250000Y-84225512D01*
X203650000Y-84225512D01*
X203200984Y-84310000D01*
X202500005Y-84310000D01*
X202500000Y-84309999D01*
X201948936Y-84419613D01*
X201481766Y-84731766D01*
X200884488Y-85329044D01*
X200884488Y-85080000D01*
X200797327Y-84616778D01*
X200681577Y-84436898D01*
X200724488Y-84225000D01*
X200724488Y-83825000D01*
X200700104Y-83695411D01*
X200724488Y-83575000D01*
X200724488Y-83175000D01*
X200640000Y-82725984D01*
X200640000Y-80863430D01*
X200595012Y-80637257D01*
X200530387Y-80312365D01*
X200218234Y-79845196D01*
X197192488Y-76819450D01*
X197433001Y-76774194D01*
X197858442Y-76500430D01*
X198123044Y-76113171D01*
X198356216Y-76475530D01*
X198773932Y-76760943D01*
X199269779Y-76861355D01*
X200069779Y-76861355D01*
X200533001Y-76774194D01*
X200958442Y-76500430D01*
X201243855Y-76082714D01*
X201344267Y-75586867D01*
X201344267Y-74927596D01*
X201658442Y-74725430D01*
X201943855Y-74307714D01*
X202044267Y-73811867D01*
X202044267Y-73211867D01*
X202009779Y-73028579D01*
X202009779Y-72907586D01*
X202043855Y-72857714D01*
X202144267Y-72361867D01*
X202144267Y-71861867D01*
X202057106Y-71398645D01*
X202033497Y-71361956D01*
X202086167Y-71101867D01*
X202982788Y-71101867D01*
X203400000Y-71186355D01*
G36*
X192669779Y-71186355D02*
X193269779Y-71186355D01*
X193528958Y-71137587D01*
X193769779Y-71186355D01*
X194168715Y-71186355D01*
X194201049Y-71358196D01*
X194195703Y-71366020D01*
X194095291Y-71861867D01*
X194095291Y-72361867D01*
X194182452Y-72825089D01*
X194229779Y-72898637D01*
X194229779Y-73041561D01*
X194195291Y-73211867D01*
X194195291Y-73811867D01*
X194197698Y-73824660D01*
X192425650Y-72052612D01*
X191958481Y-71740459D01*
X191537961Y-71656813D01*
X191523263Y-71646770D01*
X191027416Y-71546358D01*
X190532562Y-71546358D01*
X190551904Y-71450846D01*
X190551904Y-71190846D01*
X191899154Y-71190846D01*
X192299105Y-71111291D01*
X192669779Y-71186355D01*
X192669779Y-71186355D01*
G37*
X192669779Y-71186355D02*
X193269779Y-71186355D01*
X193528958Y-71137587D01*
X193769779Y-71186355D01*
X194168715Y-71186355D01*
X194201049Y-71358196D01*
X194195703Y-71366020D01*
X194095291Y-71861867D01*
X194095291Y-72361867D01*
X194182452Y-72825089D01*
X194229779Y-72898637D01*
X194229779Y-73041561D01*
X194195291Y-73211867D01*
X194195291Y-73811867D01*
X194197698Y-73824660D01*
X192425650Y-72052612D01*
X191958481Y-71740459D01*
X191537961Y-71656813D01*
X191523263Y-71646770D01*
X191027416Y-71546358D01*
X190532562Y-71546358D01*
X190551904Y-71450846D01*
X190551904Y-71190846D01*
X191899154Y-71190846D01*
X192299105Y-71111291D01*
X192669779Y-71186355D01*
G36*
X210675000Y-68050512D02*
X207940000Y-68050512D01*
X207940000Y-67500000D01*
X207830387Y-66948936D01*
X207518234Y-66481766D01*
X207051064Y-66169613D01*
X206500000Y-66060000D01*
X205948936Y-66169613D01*
X205481766Y-66481766D01*
X205169613Y-66948936D01*
X205060000Y-67500000D01*
X205060000Y-68137379D01*
X204500000Y-68137379D01*
X204240821Y-68186147D01*
X204000000Y-68137379D01*
X203400000Y-68137379D01*
X202950984Y-68221867D01*
X201365498Y-68221867D01*
X201315626Y-68187791D01*
X200819779Y-68087379D01*
X200459690Y-68087379D01*
X200457106Y-68073645D01*
X200183342Y-67648204D01*
X199765626Y-67362791D01*
X199269779Y-67262379D01*
X198819779Y-67262379D01*
X198356557Y-67349540D01*
X198170992Y-67468948D01*
X198015626Y-67362791D01*
X197519779Y-67262379D01*
X197069779Y-67262379D01*
X196606557Y-67349540D01*
X196181116Y-67623304D01*
X195895703Y-68041020D01*
X195886315Y-68087379D01*
X195419779Y-68087379D01*
X194956557Y-68174540D01*
X194883009Y-68221867D01*
X194786991Y-68221867D01*
X194369779Y-68137379D01*
X193769779Y-68137379D01*
X193510600Y-68186147D01*
X193269779Y-68137379D01*
X192669779Y-68137379D01*
X192220763Y-68221867D01*
X191988133Y-68221867D01*
X191540803Y-68310846D01*
X189969490Y-68310846D01*
X189924488Y-68280098D01*
X189924488Y-67900000D01*
X189837327Y-67436778D01*
X189563563Y-67011337D01*
X189145847Y-66725924D01*
X188650000Y-66625512D01*
X188250000Y-66625512D01*
X187786778Y-66712673D01*
X187361337Y-66986437D01*
X187075924Y-67404153D01*
X186975512Y-67900000D01*
X186975512Y-68317107D01*
X186858056Y-68392688D01*
X186777416Y-68376358D01*
X186277416Y-68376358D01*
X185955072Y-68437011D01*
X185507416Y-68346358D01*
X184907416Y-68346358D01*
X184648237Y-68395126D01*
X184407416Y-68346358D01*
X183807416Y-68346358D01*
X183344194Y-68433519D01*
X182918753Y-68707283D01*
X182775255Y-68917300D01*
X182679526Y-68981264D01*
X182544432Y-69116358D01*
X182142416Y-69116358D01*
X181679194Y-69203519D01*
X181253753Y-69477283D01*
X181092149Y-69713798D01*
X180955979Y-69502183D01*
X180733987Y-69350502D01*
X180750000Y-69270000D01*
X180750000Y-67490000D01*
X180645715Y-66965724D01*
X180555027Y-66830000D01*
X180348737Y-66521264D01*
X179708736Y-65881264D01*
X179264277Y-65584285D01*
X178740000Y-65480000D01*
X175120000Y-65480000D01*
X174595723Y-65584285D01*
X174151264Y-65881264D01*
X173400000Y-66632528D01*
X173400000Y-65325000D01*
X210675000Y-65325000D01*
X210675000Y-68050512D01*
X210675000Y-68050512D01*
G37*
X210675000Y-68050512D02*
X207940000Y-68050512D01*
X207940000Y-67500000D01*
X207830387Y-66948936D01*
X207518234Y-66481766D01*
X207051064Y-66169613D01*
X206500000Y-66060000D01*
X205948936Y-66169613D01*
X205481766Y-66481766D01*
X205169613Y-66948936D01*
X205060000Y-67500000D01*
X205060000Y-68137379D01*
X204500000Y-68137379D01*
X204240821Y-68186147D01*
X204000000Y-68137379D01*
X203400000Y-68137379D01*
X202950984Y-68221867D01*
X201365498Y-68221867D01*
X201315626Y-68187791D01*
X200819779Y-68087379D01*
X200459690Y-68087379D01*
X200457106Y-68073645D01*
X200183342Y-67648204D01*
X199765626Y-67362791D01*
X199269779Y-67262379D01*
X198819779Y-67262379D01*
X198356557Y-67349540D01*
X198170992Y-67468948D01*
X198015626Y-67362791D01*
X197519779Y-67262379D01*
X197069779Y-67262379D01*
X196606557Y-67349540D01*
X196181116Y-67623304D01*
X195895703Y-68041020D01*
X195886315Y-68087379D01*
X195419779Y-68087379D01*
X194956557Y-68174540D01*
X194883009Y-68221867D01*
X194786991Y-68221867D01*
X194369779Y-68137379D01*
X193769779Y-68137379D01*
X193510600Y-68186147D01*
X193269779Y-68137379D01*
X192669779Y-68137379D01*
X192220763Y-68221867D01*
X191988133Y-68221867D01*
X191540803Y-68310846D01*
X189969490Y-68310846D01*
X189924488Y-68280098D01*
X189924488Y-67900000D01*
X189837327Y-67436778D01*
X189563563Y-67011337D01*
X189145847Y-66725924D01*
X188650000Y-66625512D01*
X188250000Y-66625512D01*
X187786778Y-66712673D01*
X187361337Y-66986437D01*
X187075924Y-67404153D01*
X186975512Y-67900000D01*
X186975512Y-68317107D01*
X186858056Y-68392688D01*
X186777416Y-68376358D01*
X186277416Y-68376358D01*
X185955072Y-68437011D01*
X185507416Y-68346358D01*
X184907416Y-68346358D01*
X184648237Y-68395126D01*
X184407416Y-68346358D01*
X183807416Y-68346358D01*
X183344194Y-68433519D01*
X182918753Y-68707283D01*
X182775255Y-68917300D01*
X182679526Y-68981264D01*
X182544432Y-69116358D01*
X182142416Y-69116358D01*
X181679194Y-69203519D01*
X181253753Y-69477283D01*
X181092149Y-69713798D01*
X180955979Y-69502183D01*
X180733987Y-69350502D01*
X180750000Y-69270000D01*
X180750000Y-67490000D01*
X180645715Y-66965724D01*
X180555027Y-66830000D01*
X180348737Y-66521264D01*
X179708736Y-65881264D01*
X179264277Y-65584285D01*
X178740000Y-65480000D01*
X175120000Y-65480000D01*
X174595723Y-65584285D01*
X174151264Y-65881264D01*
X173400000Y-66632528D01*
X173400000Y-65325000D01*
X210675000Y-65325000D01*
X210675000Y-68050512D01*
M02*
