G04 #@! TF.FileFunction,Legend,Top*
%FSLAX46Y46*%
G04 Gerber Fmt 4.6, Leading zero omitted, Abs format (unit mm)*
G04 Created by KiCad (PCBNEW 4.0.5-e0-6337~49~ubuntu14.04.1) date Sun Feb 26 21:45:19 2017*
%MOMM*%
%LPD*%
G01*
G04 APERTURE LIST*
%ADD10C,0.100000*%
%ADD11C,0.150000*%
%ADD12C,0.120000*%
%ADD13C,0.300000*%
G04 APERTURE END LIST*
D10*
D11*
X177025000Y-84700000D02*
X177025000Y-84875000D01*
X180375000Y-84700000D02*
X180375000Y-84950000D01*
X180375000Y-88050000D02*
X180375000Y-87800000D01*
X177025000Y-88050000D02*
X177025000Y-87800000D01*
X177025000Y-84700000D02*
X180375000Y-84700000D01*
X177025000Y-88050000D02*
X180375000Y-88050000D01*
X177025000Y-84875000D02*
X175775000Y-84875000D01*
D12*
X153940000Y-90640000D02*
X161680000Y-90640000D01*
X161680000Y-90640000D02*
X161680000Y-87860000D01*
X161680000Y-87860000D02*
X153940000Y-87860000D01*
X153940000Y-87860000D02*
X153940000Y-90640000D01*
X152670000Y-90640000D02*
X151280000Y-90640000D01*
X151280000Y-90640000D02*
X151280000Y-89250000D01*
D10*
X166500000Y-83000000D02*
X166500000Y-83200000D01*
X166500000Y-83000000D02*
X166500000Y-83100000D01*
X166200000Y-83000000D02*
X166200000Y-83200000D01*
X166200000Y-83000000D02*
X166500000Y-83000000D01*
X166200000Y-83100000D02*
X166500000Y-83100000D01*
D11*
X166200000Y-85800000D02*
X166200000Y-83200000D01*
X168800000Y-85800000D02*
X166200000Y-85800000D01*
X168800000Y-83200000D02*
X168800000Y-85800000D01*
X166200000Y-83200000D02*
X168800000Y-83200000D01*
X164875000Y-77375000D02*
X164875000Y-76875000D01*
X168125000Y-74125000D02*
X168125000Y-74625000D01*
X164875000Y-74125000D02*
X164875000Y-74625000D01*
X168125000Y-77375000D02*
X167625000Y-77375000D01*
X168125000Y-74125000D02*
X167625000Y-74125000D01*
X164875000Y-74125000D02*
X165375000Y-74125000D01*
X164875000Y-77375000D02*
X165375000Y-77375000D01*
X151512500Y-78375000D02*
X151512500Y-77850000D01*
X156762500Y-73125000D02*
X156762500Y-73650000D01*
X151512500Y-73125000D02*
X151512500Y-73650000D01*
X156762500Y-78375000D02*
X156237500Y-78375000D01*
X156762500Y-73125000D02*
X156237500Y-73125000D01*
X151512500Y-73125000D02*
X152037500Y-73125000D01*
X151512500Y-78375000D02*
X152037500Y-78375000D01*
X165250000Y-64750000D02*
X170750000Y-64750000D01*
X165250000Y-68500000D02*
X165250000Y-66500000D01*
X170750000Y-70250000D02*
X165250000Y-70250000D01*
X170750000Y-68500000D02*
X170750000Y-66500000D01*
X169274755Y-67500000D02*
G75*
G03X169274755Y-67500000I-1274755J0D01*
G01*
X149000000Y-64750000D02*
X154500000Y-64750000D01*
X149000000Y-68500000D02*
X149000000Y-66500000D01*
X154500000Y-70250000D02*
X149000000Y-70250000D01*
X154500000Y-68500000D02*
X154500000Y-66500000D01*
X153024755Y-67500000D02*
G75*
G03X153024755Y-67500000I-1274755J0D01*
G01*
D12*
X162250000Y-72070000D02*
X163250000Y-72070000D01*
X163250000Y-73430000D02*
X162250000Y-73430000D01*
X155500000Y-72180000D02*
X154500000Y-72180000D01*
X154500000Y-70820000D02*
X155500000Y-70820000D01*
D13*
X211750000Y-84750000D02*
X211750000Y-83000000D01*
X211750000Y-88500000D02*
X211750000Y-86750000D01*
X211750000Y-68750000D02*
X211750000Y-67000000D01*
X211750000Y-72500000D02*
X211750000Y-70750000D01*
D12*
X144550000Y-81350000D02*
X145250000Y-81350000D01*
X145250000Y-82550000D02*
X144550000Y-82550000D01*
X151650000Y-70900000D02*
X152350000Y-70900000D01*
X152350000Y-72100000D02*
X151650000Y-72100000D01*
X156850000Y-80350000D02*
X156150000Y-80350000D01*
X156150000Y-79150000D02*
X156850000Y-79150000D01*
X160050000Y-75100000D02*
X159350000Y-75100000D01*
X159350000Y-73900000D02*
X160050000Y-73900000D01*
X147750000Y-81350000D02*
X148450000Y-81350000D01*
X148450000Y-82550000D02*
X147750000Y-82550000D01*
X145950000Y-69050000D02*
X146650000Y-69050000D01*
X146650000Y-70250000D02*
X145950000Y-70250000D01*
X159100000Y-76400000D02*
X159100000Y-77100000D01*
X157900000Y-77100000D02*
X157900000Y-76400000D01*
X159850000Y-80350000D02*
X159150000Y-80350000D01*
X159150000Y-79150000D02*
X159850000Y-79150000D01*
X164350000Y-84600000D02*
X163650000Y-84600000D01*
X163650000Y-83400000D02*
X164350000Y-83400000D01*
X170150000Y-72650000D02*
X170850000Y-72650000D01*
X170850000Y-73850000D02*
X170150000Y-73850000D01*
X167850000Y-82600000D02*
X167150000Y-82600000D01*
X167150000Y-81400000D02*
X167850000Y-81400000D01*
X164350000Y-86100000D02*
X163650000Y-86100000D01*
X163650000Y-84900000D02*
X164350000Y-84900000D01*
X170150000Y-77150000D02*
X170850000Y-77150000D01*
X170850000Y-78350000D02*
X170150000Y-78350000D01*
X163100000Y-78100000D02*
X162400000Y-78100000D01*
X162400000Y-76900000D02*
X163100000Y-76900000D01*
X166600000Y-79600000D02*
X165900000Y-79600000D01*
X165900000Y-78400000D02*
X166600000Y-78400000D01*
X163100000Y-76600000D02*
X162400000Y-76600000D01*
X162400000Y-75400000D02*
X163100000Y-75400000D01*
X170850000Y-76850000D02*
X170150000Y-76850000D01*
X170150000Y-75650000D02*
X170850000Y-75650000D01*
X171350000Y-88850000D02*
X170650000Y-88850000D01*
X170650000Y-87650000D02*
X171350000Y-87650000D01*
X170850000Y-75350000D02*
X170150000Y-75350000D01*
X170150000Y-74150000D02*
X170850000Y-74150000D01*
X171350000Y-87350000D02*
X170650000Y-87350000D01*
X170650000Y-86150000D02*
X171350000Y-86150000D01*
X180100000Y-89380000D02*
X180600000Y-89380000D01*
X180600000Y-88440000D02*
X180100000Y-88440000D01*
X175170000Y-85700000D02*
X175170000Y-86400000D01*
X173970000Y-86400000D02*
X173970000Y-85700000D01*
X183090000Y-88000000D02*
X183090000Y-87500000D01*
X182150000Y-87500000D02*
X182150000Y-88000000D01*
X199769779Y-72581867D02*
X200269779Y-72581867D01*
X200269779Y-71641867D02*
X199769779Y-71641867D01*
X204500000Y-69191867D02*
X204000000Y-69191867D01*
X204000000Y-70131867D02*
X204500000Y-70131867D01*
X180850000Y-84100000D02*
X180150000Y-84100000D01*
X180150000Y-82900000D02*
X180850000Y-82900000D01*
X178597416Y-72330846D02*
X178597416Y-71830846D01*
X177657416Y-71830846D02*
X177657416Y-72330846D01*
X200069779Y-74611867D02*
X200769779Y-74611867D01*
X200769779Y-75811867D02*
X200069779Y-75811867D01*
X177107416Y-71930846D02*
X177107416Y-72630846D01*
X175907416Y-72630846D02*
X175907416Y-71930846D01*
X190427416Y-72600846D02*
X189927416Y-72600846D01*
X189927416Y-73540846D02*
X190427416Y-73540846D01*
X197669779Y-75811867D02*
X196969779Y-75811867D01*
X196969779Y-74611867D02*
X197669779Y-74611867D01*
X195969779Y-72581867D02*
X196469779Y-72581867D01*
X196469779Y-71641867D02*
X195969779Y-71641867D01*
X193769779Y-69191867D02*
X193269779Y-69191867D01*
X193269779Y-70131867D02*
X193769779Y-70131867D01*
X188497416Y-73850000D02*
X188497416Y-73350000D01*
X187557416Y-73350000D02*
X187557416Y-73850000D01*
X187710000Y-83190000D02*
X187210000Y-83190000D01*
X187210000Y-84130000D02*
X187710000Y-84130000D01*
X180497416Y-73380846D02*
X179997416Y-73380846D01*
X179997416Y-74320846D02*
X180497416Y-74320846D01*
X184560000Y-86530000D02*
X185060000Y-86530000D01*
X185060000Y-85590000D02*
X184560000Y-85590000D01*
X186997416Y-70750846D02*
X186997416Y-70250846D01*
X186057416Y-70250846D02*
X186057416Y-70750846D01*
X183617416Y-73360846D02*
X183617416Y-73860846D01*
X184557416Y-73860846D02*
X184557416Y-73360846D01*
X187410000Y-81110000D02*
X186710000Y-81110000D01*
X186710000Y-79910000D02*
X187410000Y-79910000D01*
X190950000Y-81150000D02*
X190250000Y-81150000D01*
X190250000Y-79950000D02*
X190950000Y-79950000D01*
X191510000Y-83190000D02*
X191010000Y-83190000D01*
X191010000Y-84130000D02*
X191510000Y-84130000D01*
X193910000Y-86530000D02*
X194410000Y-86530000D01*
X194410000Y-85590000D02*
X193910000Y-85590000D01*
X157500000Y-65950000D02*
X156500000Y-65950000D01*
X156500000Y-65950000D02*
X156500000Y-68050000D01*
X157500000Y-65950000D02*
X157500000Y-68050000D01*
X160000000Y-65950000D02*
X159000000Y-65950000D01*
X159000000Y-65950000D02*
X159000000Y-68050000D01*
X160000000Y-65950000D02*
X160000000Y-68050000D01*
X162500000Y-65950000D02*
X161500000Y-65950000D01*
X161500000Y-65950000D02*
X161500000Y-68050000D01*
X162500000Y-65950000D02*
X162500000Y-68050000D01*
X159400000Y-76500000D02*
X159400000Y-77500000D01*
X161100000Y-77500000D02*
X161100000Y-76500000D01*
X145800000Y-72150000D02*
X146800000Y-72150000D01*
X146800000Y-70450000D02*
X145800000Y-70450000D01*
X164250000Y-81150000D02*
X163250000Y-81150000D01*
X163250000Y-82850000D02*
X164250000Y-82850000D01*
X200099779Y-69961867D02*
X200099779Y-70461867D01*
X201039779Y-70461867D02*
X201039779Y-69961867D01*
X195199779Y-69961867D02*
X195199779Y-70461867D01*
X196139779Y-70461867D02*
X196139779Y-69961867D01*
X185917416Y-73530846D02*
X186417416Y-73530846D01*
X186417416Y-72590846D02*
X185917416Y-72590846D01*
X187380000Y-85760000D02*
X187380000Y-85260000D01*
X186440000Y-85260000D02*
X186440000Y-85760000D01*
X184407416Y-70340846D02*
X184907416Y-70340846D01*
X184907416Y-69400846D02*
X184407416Y-69400846D01*
X184407416Y-71600846D02*
X184907416Y-71600846D01*
X184907416Y-70660846D02*
X184407416Y-70660846D01*
X192280000Y-85760000D02*
X192280000Y-85260000D01*
X191340000Y-85260000D02*
X191340000Y-85760000D01*
X141300000Y-72750000D02*
X141300000Y-80750000D01*
X148620000Y-72750000D02*
X148620000Y-80750000D01*
X148620000Y-80750000D02*
X141300000Y-80750000D01*
X141920000Y-80750000D02*
X141920000Y-72750000D01*
X141300000Y-72750000D02*
X148620000Y-72750000D01*
X153940000Y-86640000D02*
X161680000Y-86640000D01*
X161680000Y-86640000D02*
X161680000Y-83860000D01*
X161680000Y-83860000D02*
X153940000Y-83860000D01*
X153940000Y-83860000D02*
X153940000Y-86640000D01*
X152670000Y-86640000D02*
X151280000Y-86640000D01*
X151280000Y-86640000D02*
X151280000Y-85250000D01*
X150680000Y-78500000D02*
X150680000Y-79500000D01*
X149320000Y-79500000D02*
X149320000Y-78500000D01*
X157680000Y-69750000D02*
X157680000Y-70750000D01*
X156320000Y-70750000D02*
X156320000Y-69750000D01*
X160180000Y-69750000D02*
X160180000Y-70750000D01*
X158820000Y-70750000D02*
X158820000Y-69750000D01*
X162680000Y-69750000D02*
X162680000Y-70750000D01*
X161320000Y-70750000D02*
X161320000Y-69750000D01*
X171000000Y-79930000D02*
X170000000Y-79930000D01*
X170000000Y-78570000D02*
X171000000Y-78570000D01*
X162250000Y-78320000D02*
X163250000Y-78320000D01*
X163250000Y-79680000D02*
X162250000Y-79680000D01*
X167000000Y-73430000D02*
X166000000Y-73430000D01*
X166000000Y-72070000D02*
X167000000Y-72070000D01*
X171000000Y-72430000D02*
X170000000Y-72430000D01*
X170000000Y-71070000D02*
X171000000Y-71070000D01*
X167000000Y-87570000D02*
X168000000Y-87570000D01*
X168000000Y-88930000D02*
X167000000Y-88930000D01*
X168000000Y-87430000D02*
X167000000Y-87430000D01*
X167000000Y-86070000D02*
X168000000Y-86070000D01*
X171500000Y-84180000D02*
X170500000Y-84180000D01*
X170500000Y-82820000D02*
X171500000Y-82820000D01*
X170500000Y-84570000D02*
X171500000Y-84570000D01*
X171500000Y-85930000D02*
X170500000Y-85930000D01*
X200369779Y-72981867D02*
X199869779Y-72981867D01*
X199869779Y-74041867D02*
X200369779Y-74041867D01*
X198369779Y-72981867D02*
X197869779Y-72981867D01*
X197869779Y-74041867D02*
X198369779Y-74041867D01*
X195869779Y-74041867D02*
X196369779Y-74041867D01*
X196369779Y-72981867D02*
X195869779Y-72981867D01*
X188250000Y-67670000D02*
X187750000Y-67670000D01*
X187750000Y-68730000D02*
X188250000Y-68730000D01*
X187110000Y-82740000D02*
X187610000Y-82740000D01*
X187610000Y-81680000D02*
X187110000Y-81680000D01*
X189110000Y-82740000D02*
X189610000Y-82740000D01*
X189610000Y-81680000D02*
X189110000Y-81680000D01*
X191610000Y-81680000D02*
X191110000Y-81680000D01*
X191110000Y-82740000D02*
X191610000Y-82740000D01*
X177030000Y-69500000D02*
X177030000Y-69000000D01*
X175970000Y-69000000D02*
X175970000Y-69500000D01*
X177720000Y-69000000D02*
X177720000Y-69500000D01*
X178780000Y-69500000D02*
X178780000Y-69000000D01*
X199840000Y-85580000D02*
X199840000Y-86580000D01*
X198480000Y-86580000D02*
X198480000Y-85580000D01*
D11*
X143050000Y-88800000D02*
X143050000Y-84800000D01*
X143050000Y-88800000D02*
X144050000Y-88800000D01*
X150050000Y-88800000D02*
X149050000Y-88800000D01*
X150050000Y-88800000D02*
X150050000Y-84800000D01*
D13*
X189727416Y-71150846D02*
X189727416Y-69650846D01*
X197320000Y-84570000D02*
G75*
G03X197320000Y-84570000I-250000J0D01*
G01*
X197820000Y-87320000D02*
X196320000Y-87320000D01*
X197820000Y-84820000D02*
X196320000Y-84820000D01*
X198950000Y-84700000D02*
X199450000Y-84700000D01*
D12*
X156000000Y-80820000D02*
X157000000Y-80820000D01*
X157000000Y-82180000D02*
X156000000Y-82180000D01*
X153750000Y-82180000D02*
X152750000Y-82180000D01*
X152750000Y-80820000D02*
X153750000Y-80820000D01*
X175250000Y-88420000D02*
X176250000Y-88420000D01*
X176250000Y-89780000D02*
X175250000Y-89780000D01*
X204250000Y-86220000D02*
X204750000Y-86220000D01*
X204750000Y-85280000D02*
X204250000Y-85280000D01*
D10*
X199169779Y-70911867D02*
X199169779Y-70711867D01*
X199169779Y-70911867D02*
X199169779Y-70811867D01*
X199469779Y-70911867D02*
X199469779Y-70711867D01*
X199469779Y-70911867D02*
X199169779Y-70911867D01*
X199469779Y-70811867D02*
X199169779Y-70811867D01*
D11*
X199469779Y-68111867D02*
X199469779Y-70711867D01*
X196869779Y-68111867D02*
X199469779Y-68111867D01*
X196869779Y-70711867D02*
X196869779Y-68111867D01*
X199469779Y-70711867D02*
X196869779Y-70711867D01*
D10*
X188360000Y-84810000D02*
X188360000Y-85010000D01*
X188360000Y-84810000D02*
X188360000Y-84910000D01*
X188060000Y-84810000D02*
X188060000Y-85010000D01*
X188060000Y-84810000D02*
X188360000Y-84810000D01*
X188060000Y-84910000D02*
X188360000Y-84910000D01*
D11*
X188060000Y-87610000D02*
X188060000Y-85010000D01*
X190660000Y-87610000D02*
X188060000Y-87610000D01*
X190660000Y-85010000D02*
X190660000Y-87610000D01*
X188060000Y-85010000D02*
X190660000Y-85010000D01*
X182142416Y-69640846D02*
X180042416Y-69640846D01*
X182917416Y-72890846D02*
X180042416Y-72890846D01*
D12*
X165900000Y-79800000D02*
X166600000Y-79800000D01*
X166600000Y-81000000D02*
X165900000Y-81000000D01*
M02*
